<svg version="1" xmlns="http://www.w3.org/2000/svg" width="4249.333" height="4249.333" viewBox="0 0 3187.000000 3187.000000"><path d="M1537 1.1c-3 .4-8.6 1-12.5 1.4-3.8.3-8.6.8-10.5 1-4.6.6-18.7 1.9-32 3-4.1.4-8.6.8-10 1-1.4.2-5.9.6-10 1s-8.6.8-10 1c-1.4.2-5.4.7-9 1-3.6.4-7.2.8-8 1-.8.2-4.4.6-8 1-3.6.4-7.2.9-8.2 1-.9.2-3.8.7-6.5 1.1-2.6.3-5.7.8-6.8 1-4.3.8-15.2 2.6-18.5 3-1.9.2-7.1 1.1-11.5 1.9-4.4.8-9.8 1.7-12 2-2.3.3-5.2.7-6.5 1-1.3.3-4.2.7-6.5 1-2.2.3-6.7 1.1-10 1.6-3.3.6-7.3 1.3-9 1.5-3.1.4-5.7.8-15.5 2.4-3 .5-7.3 1.2-9.5 1.5-2.2.3-6.5 1-9.5 1.5s-7.1 1.2-9 1.5c-1.9.3-4.6.7-6 1-1.4.2-4.5.7-7 1-2.5.3-5.8.8-7.3 1.1-1.6.3-3.8.7-5 .8-1.2.2-3.5.6-5.2.9-1.6.4-5 .9-7.5 1.2-2.5.3-5.4.7-6.5.9-2.6.5-9 1.5-14 2.1-2.2.3-6.2 1-9 1.5-2.7.5-7 1.2-9.5 1.5-2.5.3-5.2.8-6 1-.8.2-3.5.6-6 .9-2.5.3-5.6.8-7 1.1-1.4.3-4.5.8-7 1.1-7.1.9-9.5 1.3-9.5 1.4 0 .1-1.6.3-3.5.6-1.9.2-9.3 1.4-16.5 2.5-16.2 2.5-22.5 3.5-48 7.4-2.2.4-5.1.8-6.5 1.1-1.4.2-4.5.7-7 1-2.5.3-5.2.7-6 .9-.8.2-3.5.7-6 1-2.5.3-9.7 1.5-16 2.5-6.3 1.1-13.1 2.2-15 2.4-1.9.3-7.5 1.2-12.5 2-9.2 1.5-12.9 2.1-20 3.1-2.2.3-5.2.8-6.7 1.1-1.5.3-4 .7-5.7 1-1.7.2-4.3.6-5.8.8-1.6.3-4.6.7-6.8 1.1-2.2.3-7.8 1.2-12.5 2s-9.8 1.6-11.5 1.9c-1.6.2-5.9.9-9.5 1.4-3.6.6-8.3 1.3-10.5 1.6-4.7.7-11.3 1.7-13.7 2.2-.9.1-6.8 1-13 1.9-12.9 1.9-15.2 2.2-22.8 3.5-3 .5-7.7 1.2-10.5 1.5-2.7.3-5.9.7-7 .9-1.1.2-4.5.7-7.5 1.1-3 .4-6.6.9-8 1.1-1.4.2-4.1.7-6 1-5.5.9-19.1 5.4-23.5 7.7-10.6 5.7-17.1 12.1-25.8 25.5-4.9 7.4-44.1 60.7-57.6 78.3-1.9 2.4-24.2 32.3-28.6 38.3-4.7 6.4-9.1 12.2-10.2 13.4-.7.7-1.3 1.7-1.3 2.1 0 .4-.8 1.6-1.8 2.7-.9 1-6.2 8-11.7 15.4-5.5 7.4-10.5 14.2-11.2 15-.7.8-5.8 7.8-11.5 15.5s-16.5 22.3-24 32.5c-7.6 10.2-14.6 19.6-15.5 20.9-3.6 4.8-37.8 50.9-43.7 58.8-3.4 4.5-6.9 9.2-7.8 10.5-3.3 4.4-15.8 21.3-17.7 23.8-1.1 1.4-6.1 8.2-11.3 15.2-13.5 18.4-57.8 78-75.6 101.8-8.4 11.3-16.1 21.5-17 22.8-.9 1.3-6.9 9.3-13.2 17.7-10.8 14.5-18.3 24.6-60.9 82-9.4 12.6-25.1 33.8-34.9 47-16.5 22.1-40.7 54.7-65.7 88.5-5.5 7.4-16.9 22.7-25.2 34-8.4 11.3-16.1 21.6-17 22.9-1 1.3-7.4 9.9-14.2 19-12.5 16.9-31.6 42.6-51.6 69.6-36.1 48.6-44.8 60.2-53.5 71-12 14.9-20.3 26.1-23 31.1-1.2 2.2-3.2 5.8-4.5 8.2-1.3 2.4-3.8 7.9-5.5 12.2-2.7 7.3-3 9-3 19.7 0 6.5.5 13.6.9 15.8.9 3.8 1.3 6.4 2.6 17.5 2 16 4.7 30.6 8.6 47.5 2.7 11.2 10.6 40.9 15.4 57.5 2 6.9 3.8 13.2 4 14 .2.8 2.5 8.9 5 18s4.8 17.2 5 18c.7 3.2 11.6 43.7 13 48.5.8 2.7 3.7 13.3 6.4 23.5s7.5 27.9 10.6 39.5c7.7 28.3 10.5 38.7 10.9 40.5.2.9 2.5 9.2 5.1 18.5 2.6 9.4 4.8 17.7 5 18.6.2.9 2.4 9.2 5 18.5 2.5 9.3 4.8 17.8 5 18.8.3 1 1.5 5.8 2.9 10.5 1.3 4.7 4.7 17.4 7.6 28.1 2.8 10.7 6 22.4 7.1 26 1 3.6 4.4 15.9 7.4 27.5 3.1 11.5 6.1 22.6 6.6 24.5 1.3 4.6 11.9 43.1 12.4 45 .2.8 2.4 9.1 5 18.5 2.6 9.3 4.9 17.6 5.1 18.5.5 2.3 1.7 6.8 7.7 28.5 3 11 6 22.5 6.7 25.5 1.5 6.9 2.1 23.2 1 29.1-.4 2.4-1.1 6-1.4 7.9-.3 1.9-1.2 6.2-2.1 9.5-.9 3.3-1.7 6.7-1.9 7.5-.2.8-4.1 16.1-8.6 34s-8.4 33.2-8.5 34c-.4 1.5-7.3 29.1-8.1 32-1.1 4.4-3.4 13.8-3.8 15.5-.2 1.1-1 4-1.7 6.5-1.6 5.6-1.3 4.5-2.9 11.5-.7 3.3-1.5 6.4-1.6 7-.2.5-1.5 5.7-2.9 11.5-1.5 5.8-2.8 11.2-3.1 12-1 3.7-3.4 13.7-3.8 15.5-.2 1.1-1 4-1.7 6.5-1.3 4.8-1.4 5.2-2.3 9-.3 1.4-1.7 7-3.1 12.5-1.4 5.5-2.7 10.9-3 12-.2 1.1-1.1 4.7-2 8-.8 3.3-1.7 6.9-1.9 8-.2 1.1-.7 2.7-1 3.5-.3.8-.7 2.6-1 4-.2 1.4-1.6 7.2-3.1 13s-2.8 11.2-3 12c-.2.8-.8 3.5-1.5 6s-1.4 5.3-1.6 6.2c-.4 2-1.1 4.7-2 8.1-.3 1.2-.7 5.8-.9 10.2-.6 12.3 1.6 16.9 12.9 27.8 5 4.9 14.3 13.2 20.6 18.5 6.3 5.3 11.7 9.8 12 10.2.3.3 7.7 6.6 16.5 14s16.2 13.7 16.5 14c.3.3 4.8 4.1 10 8.5s10 8.5 10.5 9.1c.6.6 7.1 6.2 14.5 12.5 7.4 6.2 13.7 11.6 14 11.9.3.3 3.7 3.3 7.5 6.6 3.9 3.2 8.4 7.1 10 8.5 1.7 1.5 10.2 8.8 19 16.4 8.8 7.5 18.5 15.8 21.5 18.5 3 2.6 24.6 21.1 48 41.1s43 36.8 43.6 37.4c.6.5 3.5 3 6.4 5.5 2.9 2.5 5.8 5 6.4 5.5.6.6 13.7 11.8 29.1 25 15.4 13.2 28.2 24.2 28.5 24.5.6.6 12 10.4 16.4 14.1 1.6 1.3 3.4 2.9 4 3.4 1.4 1.3 49.2 42.3 52.5 45 1.3 1.1 2.9 2.5 3.5 3 .9.8 30.2 25.8 43.6 37.1 14.9 12.6 19.4 17.1 21.2 21.2 3.5 7.8 2.5 10.8-10.1 31-4.2 6.7-8.3 13.5-9.2 15-.9 1.5-6.5 10.8-12.4 20.7-5.9 9.9-11.3 18.9-11.9 20-.6 1.1-4.6 7.8-8.9 15-4.3 7.1-8.4 13.9-9 15-.7 1.1-2.4 3.8-3.8 6s-2.8 4.4-3 5c-.3.8-4.5 7.9-11.4 19.3-.6.9-4.1 6.9-7.9 13.2-3.7 6.3-7.8 13.1-9.1 15-1.9 2.9-20.9 34.6-24.8 41.5-.7 1.1-2.4 3.9-3.9 6.3-1.6 2.4-2.8 4.5-2.8 4.8 0 .2-1.2 2.3-2.7 4.7-3.4 5.2-4.4 6.8-6.4 10.4-.9 1.5-5.2 8.9-9.6 16.3-11.6 19.7-13.1 24.7-9.9 32.3 2.8 6.7 9.7 11 55.6 34 24.5 12.3 52.2 26.3 61.5 31.2 9.4 4.8 23.3 12 31 16 7.7 4 20.8 10.7 29 15 8.3 4.3 18.6 9.7 23 12 4.4 2.3 15.7 8.2 25 13 9.4 4.8 23.8 12.2 32 16.5 8.3 4.3 24.7 12.7 36.5 18.8 11.8 6 29.6 15.1 39.5 20.2 9.9 5.1 19.4 9.9 21 10.7 1.7.8 3.9 1.9 5 2.5 1.1.6 7.4 3.9 14 7.3 44.3 22.9 58.6 30.4 74.5 38.8 21.4 11.3 25.6 12.7 32.3 10.5 3.6-1.2 11.7-8.5 11.7-10.5 0-.7.3-1.3.8-1.3.4 0 1.2-1 1.8-2.3l6.6-13.2c3-6.1 7.4-15.1 9.8-20 7.5-15.8 15.5-32.4 25.5-53 5.4-11 12.6-25.9 16-33 3.5-7.2 12.2-25.2 19.5-40 7.3-14.9 16.9-34.7 21.5-44 4.5-9.4 13.8-28.3 20.5-42 6.7-13.8 14.8-30.4 18-37 25.6-53.4 46.8-97.1 60-123.5 4.8-9.6 11.7-23.4 15.3-30.5 7.9-15.9 9.1-18.5 11.7-25.5 1.1-3 1.8-4.2 1.4-2.5-.3 1.6-.8 4.1-1 5.5-.3 1.4-1.1 5.6-1.9 9.5-.7 3.8-1.6 8.8-2 11-.3 2.3-.7 5-.9 6-.2 1.1-.7 4-1 6.5-.3 2.5-.8 5.6-1.1 7-.3 1.4-.8 4.9-1.1 7.9-.3 3-.8 6.4-1 7.5-.2 1.1-.6 5-.9 8.6-.4 3.6-.8 7.2-1 8-.2.8-.7 4.2-1 7.5-.4 3.3-.8 7.1-1 8.5-.2 1.4-.7 5.2-1 8.5-.4 3.3-1.3 10-2 15-.8 4.9-1.6 11.2-2 14-.3 2.7-.8 6.1-1 7.5-.2 1.4-.9 6.1-1.5 10.6-.6 4.4-1.2 9-1.4 10.1-.3 1.1-.7 4.4-1.1 7.4-.3 3-1 7.9-1.5 10.9s-1.2 7.7-1.5 10.5c-.3 2.7-.7 6.1-1 7.5-.2 1.4-.7 4.5-1 7-.3 2.5-.8 5.6-1 7-.4 2.5-.7 5.1-2.9 22-.4 3-.9 6.6-1.1 8-.6 4.2-1.4 10.3-2 15-.2 2.5-.7 5.4-.9 6.5-.2 1.1-.7 4.2-1 7-.4 2.7-1.1 7.9-1.6 11.5-.8 6-1.2 8.9-2.4 19-.3 1.9-1.2 8.7-2.1 15-.8 6.3-1.8 13.3-2.1 15.5-.6 4.5-1.4 9.8-1.9 13.5-.2 1.4-.7 5.2-1.1 8.5-1 8.3-1.1 9.1-3.4 25.5-.5 3.6-1.2 8.3-1.5 10.5-1.1 9.2-1.7 14.1-2 15.6-.2.9-.6 4-1 7-.3 3-.8 6.5-1 7.9-.7 4-1.3 7.9-2.5 16.6-.6 4.4-1.3 9.1-1.6 10.5-1.3 6.1-1.6 20.8-.4 24.3 3.2 9.9 12.3 13.4 44.8 17.2 2.6.3 5.8.7 7.2.9 1.4.2 6.6.9 11.5 1.5 5 .5 10.6 1.2 12.5 1.5 6.7.9 10.5 1.3 17 2 3.6.3 7.6.8 9 1 2.8.4 9.9 1.2 17.5 2 2.8.3 9.3 1 14.5 1.5 5.2.6 12 1.3 15 1.6 3 .3 6.9.7 8.5.9 1.7.2 5.7.7 9 1 3.3.3 7.6.8 9.5 1 1.9.3 5.8.7 8.5 1 2.8.3 8.4 1 12.5 1.5 11.6 1.4 16.1 1.9 21.5 2.5 2.8.3 6.6.8 8.5 1 1.9.2 6.2.7 9.5 1.1 3.3.3 7.1.8 8.5.9 1.4.2 4.8.6 7.5.9 9.8 1.3 12.1 1.6 17.5 2.1 3 .3 7.1.8 9 1 1.9.2 6 .7 9 1 3 .3 7.1.8 9 1 1.9.3 6 .7 9 1 3 .3 7.2.8 9.3 1 8.2 1.1 11.5 1.4 17.7 2 3.6.4 7.6.8 9 1 1.4.2 5.7.7 9.6 1 3.9.3 8 .7 9 .9 1 .2 5.1.7 8.9 1 7.2.7 12.3 1.3 18.8 2.1 6.3.8 11 1.4 16.7 2 3 .3 6.6.8 8 1 1.4.2 4.5.6 7 .9 10 1.2 22.7 2.7 26 3.1 1.9.3 6 .7 9 1 3 .2 7.8.7 10.5 1 13.5 1.3 16.9 1.6 37 3 3.3.2 12.3.7 20 1 7.7.3 17.4.8 21.5 1 4.1.3 11.6.7 16.5 1 13.3.7 25.8 1.7 27.7 2 4.7.9 24 1.8 38.1 1.8 17.4-.1 17.1 0 20.2-6.9 2.3-5.1 2.5-7.9 2.5-29.9 0-20.1-.2-26.4-1.4-45.5-2.1-33.7-2.4-43.6-3.1-91.5-.2-20.4-.7-56.8-1.1-81-.5-44.3-.7-49.5-1.9-90.5-1.2-39.6-1.4-46.8-2-82-.4-19-.8-59.3-.9-89.5-.2-30.3-.6-56.1-.9-57.5-.3-1.4-.8-7.9-1.2-14.5-.3-6.6-.8-14.5-1-17.5-1.5-20.2-1.6-29.8-.2-21.9.7 3.8 21.3 64.5 55.3 163.4 2.5 7.1 6 17.5 7.9 23 1.8 5.5 9.3 27.3 16.5 48.5 7.2 21.2 14.7 43 16.5 48.5 1.9 5.5 8.6 25.3 15 44 34.6 100.8 46.7 136.2 56.2 164.5 4.7 14 9.4 27.1 10.4 29.1 5 9.9 11.6 14 21.4 13.4 6-.4 8.5-1.2 80.5-26.2 13.5-4.6 32.2-11.1 41.5-14.3 9.4-3.2 28.3-9.7 42-14.5 13.8-4.7 26.8-9.2 29-10 3.4-1.1 35.3-12.1 81.5-28 6.9-2.4 28.9-9.9 49-16.8s40.8-13.9 46-15.7c5.2-1.8 13.6-4.8 18.5-6.7 5-1.9 9.5-3.5 10.2-3.7 2.8-.5 10.4-5.1 12.9-7.7 3.2-3.3 5.3-10.6 4.9-17.2-.3-4.8-1.5-15.9-2-18.8-.2-.9-.6-4-1-7-.3-3-.8-6.5-1-7.9-.2-1.4-.7-5-1-8-.4-3-.9-6.2-1-7.1-.2-.9-.6-4-1-6.9-.4-2.9-.8-6-1-6.9-.1-.9-.6-4.1-1-7.1-.3-3-.8-6.6-1-8-1.3-8.8-4.2-30.7-5-38.4-.3-3.3-.8-6.3-1-6.6-.2-.4-.7-3.8-1-7.6-.4-3.8-.8-7.1-1-7.4-.2-.3-.6-3.4-1-7s-.9-7.3-1.1-8.4c-.2-1-.6-4.4-1-7.5-.3-3.1-.8-5.8-.9-6.1-.2-.3-.6-3.9-1-8s-.8-7.7-1-8c-.2-.3-.6-3.4-1-7s-.9-7.2-1-8.1c-.2-.9-.6-4-1-7-.3-3-.8-6.5-1-7.9-.2-1.4-.7-4.5-1-7-.3-2.5-.8-5.6-1-7-.2-1.4-.7-4.9-1-7.9-.4-3-.8-6.2-1-7.2-.2-1-.7-4.9-1-8.6-.4-3.7-.9-7-1-7.3-.2-.3-.6-3.3-1-6.5-.3-3.3-1-8.5-1.5-11.5s-1.2-7.9-1.5-10.9c-.4-3-.8-6.1-1-7-.1-.9-.6-4.3-.9-7.6-.4-3.3-.9-7.1-1.1-8.5-.8-4.6-1.8-11.5-2-14.5-.1-1.7-.5-4.4-.8-6-.4-1.7-.9-4.8-1.1-7-.3-2.2-1.3-9.4-2.1-16-.9-6.6-1.8-13.4-2-15-.3-1.7-1.4-9.8-2.5-18-1.1-8.3-2.3-16.8-2.6-19-.5-4.1-.7-5.5-1.9-13.5-1-6.6-1.3-8.9-2-14.5-.3-2.8-1.3-9.7-2.1-15.5-2.1-15.1-2.2-16-2.9-21.5-.4-2.8-.8-5.7-1-6.5-.2-.8-.7-4.2-1.1-7.5-.3-3.3-.8-6.9-1-8-.9-4.9-.5-13.3.9-16.5 2.8-6.4 7.2-9.1 27.9-17.6 11.8-4.8 35.6-14.5 54.3-22.1 6.1-2.4 12.4-5.1 14.2-5.9 1.7-.8 3.3-1.4 3.6-1.4.2 0 2.2-.8 4.3-1.7 2.2-.9 4.1-1.7 4.4-1.8.3-.1 1.6-.6 3-1.2s15.6-6.3 31.5-12.7c16-6.4 29.9-12.1 31-12.6 1.9-.9 8.5-3.5 53-21.4 10.5-4.2 20.4-8.3 22-9 1.7-.7 4.6-1.9 6.5-2.6 1.9-.7 8.7-3.4 15-6 6.3-2.6 18.5-7.5 27-11 8.5-3.4 16.9-6.8 18.5-7.5 1.7-.7 6.2-2.6 10-4.1 3.9-1.5 7.4-3.1 7.9-3.5.6-.5 1.6-.9 2.3-.9.7 0 3.2-.9 5.6-1.9 5.5-2.5 77.4-31.7 112.2-45.5 14.9-6 27.9-11.2 29-11.7 1.1-.4 6.7-2.7 12.5-5 24.2-9.4 31.7-17.9 33.5-37.9.4-4.1.8-8.6 1-10 .1-1.4.6-5.4 1-9 .3-3.6.8-7.6 1-9 .2-1.4.7-5.2 1-8.5.6-6.1 1.1-10.4 2.1-18.5.3-2.5.7-6.3 1-8.5.9-7.4 1.6-13 2-15.5.2-1.4 1-8.6 1.9-16 .9-7.4 1.7-14.6 1.9-16 .4-2.3.7-4.5 2-15.5.3-2.2 1-7.6 1.5-12 .6-4.4 1.3-10.5 1.6-13.5.3-3 .8-6.2 1-7 .2-.8.7-4.4 1-8 .4-3.6.9-7.9 1.1-9.5.2-1.7.6-5.5.9-8.5.4-3 .8-6.6 1-8 .2-1.4.7-4.8 1-7.5.3-2.8.8-6.6 1-8.5.3-1.9.8-6.2 1.1-9.5.3-3.3.8-6.8.9-7.7.2-.9.7-4.8 1-8.5.4-3.7.9-7.7 1.1-8.8.2-1.1.6-4.7.9-8 .3-3.3.8-7.1 1-8.5.2-1.4.6-5 1-8 .9-7.7 1.6-13.1 2-16 .2-1.4.6-5.2.9-8.5.4-3.3.8-7.6 1.1-9.5.3-1.9.7-5.5 1-8 1-8.3 1.6-13.5 2.1-17 .6-4.4 1.2-9.1 1.9-15.5.3-2.8.8-6.7 1-8.8.3-2 .7-5.4.9-7.5.3-2 .9-7.1 1.5-11.2s1.3-9.5 1.6-12c.9-8.1 1.6-13.5 2.1-16 .2-1.4.6-5 1-8 .3-3 .8-6.3 1-7.4.2-1 .6-4.4 1-7.5 2.6-23.7 6.5-27 33.9-28.6 14.4-.8 25.1-1.6 27.5-2 1.4-.2 6.1-.7 10.5-1 4.4-.4 8.7-.8 9.5-1 .8-.2 5.6-.7 10.5-1.1 5-.3 9.7-.8 10.5-.9 1.4-.3 13.6-1.2 25.5-2 7.6-.5 15.6-3.2 19.8-6.6 3.7-3 3.7-3.1 3.7-10.9 0-4.3-.4-9-1-10.4-.8-2.3-3-13.7-4.5-24.1-1.2-7.7-4.3-19.1-7.8-28-1.9-5-5.9-15.8-9-24-3.1-8.3-10.6-28.5-16.7-45s-12.5-33.8-14.2-38.5c-1.6-4.7-3.4-9.4-3.9-10.5-.5-1.1-2.4-6.3-4.3-11.5-7.6-21-17.8-48.7-19.1-52-1.4-3.6-21.1-57.3-42-114.5-6.4-17.6-12-32.9-12.5-34-.5-1.1-2.7-7.2-5-13.5s-5-13.8-6-16.5c-4.9-12.9-26.2-71.2-26.5-72.5-.4-1.5-15-41.3-16.2-44-.3-.8-.7-1.7-.8-2-.1-.3-.5-1.4-.9-2.5-1.6-4-4.8-12.9-22.6-61.5-9.9-27.2-18.7-51.1-19.5-53-1.3-3.2-22.9-62.1-26.2-71.5-.8-2.2-2.9-8.1-4.8-13-1.8-5-8.2-22.5-14.3-39-6.1-16.5-16.1-43.7-22.2-60.5-6.2-16.8-12.1-32.8-13.1-35.5-6.1-17-9.9-27.4-20.4-56-6.5-17.6-12.4-33.6-13.1-35.5-.7-1.9-3.1-8.5-5.2-14.5-2.2-6.1-5.4-14.8-7.2-19.5-1.7-4.7-4.4-12.3-6.1-17-1.6-4.7-3.4-9.3-3.9-10.2-.6-1-1-2.5-1-3.3 0-.8-.4-2.3-1-3.3-.5-.9-5.1-13-10.1-26.7-13.6-37.1-20.8-53.3-30.8-68.5-9.6-14.8-21-26.9-35.2-37.6-4.1-3-8.3-6.3-9.4-7.2-1.1-1-9-7.2-17.5-13.9-18.2-14.3-24.6-19.5-43.5-35.2-16.7-13.8-16.8-13.8-22.6-18.7-2.5-2.2-6.7-5.8-9.5-8.1-20.1-16.9-52.9-44.7-56.9-48.1-1.6-1.4-12.9-10.9-25-21s-24-20.1-26.5-22.2c-2.5-2.1-8.8-7.3-14-11.6-5.2-4.3-9.7-8.1-10-8.4-.3-.3-5.7-4.8-12-10s-12.6-10.5-14-11.6c-1.4-1.2-31.3-26.2-66.5-55.5s-69.8-58.2-77-64.2c-16.2-13.5-13.5-11.3-35.5-29.7-10.2-8.4-18.7-15.7-19-16-.3-.3-1.7-1.5-3.2-2.6-1.5-1.2-5.1-4.1-8-6.6-4.8-4.1-66.1-55.1-69.8-58.1-.8-.7-4.9-4-9-7.4-26.3-21.7-36.3-30.2-43.9-37.2C2033 21.7 2019.8 12 2005 4.7l-8.5-4.2-227-.1c-124.8-.1-229.5.2-232.5.7zM975.5 1162.4c6.1.3 12.6.7 14.5 1 1.9.3 5.8.8 8.5 1.1 10.4 1.3 12.3 1.6 22.5 3.5 14 2.6 14.9 2.8 17 3.5 1 .3 2.7.7 3.7.9 1 .2 6.8 1.8 12.8 3.6 33.9 9.8 69.2 26.7 100 47.7 33.4 22.9 70.8 58.7 97.5 93.3 1.9 2.5 4 5.2 4.7 6 6.4 8.2 27.3 39.2 27.3 40.5 0 .4 1 2.1 2.3 3.8 6 8.5 24.2 45.5 32.2 65.5 5.3 13.4 15.1 42.3 17 50.2.2.8 1.5 6 3 11.5 2.2 8.5 4.1 16.3 6.1 26 1.5 7.6 2.5 12.3 2.9 14.5.8 4.2 4.5 28.5 5 33.2.3 2.3.7 6.3 1 8.8.3 2.5.7 6.1.9 8 .4 3.3 1.4 16.9 2.2 28.5.4 7.1.4 48.9-.1 55.5-1.8 26-1.7 25.1-4.5 45.7-.6 4.6-1.3 9.5-1.5 11-.9 7.3-7 35.4-10.5 48.9-14.2 54.1-38.6 108.4-70.7 157.2-8.1 12.4-20.7 29.7-27.1 37.3-21.7 26-41.2 45.1-64.2 63-14.5 11.3-42.6 29.7-47.8 31.3-1.2.4-2.2 1.2-2.2 1.7s-.9.9-1.9.9c-1.1 0-2.1.3-2.3.7-.3.9-12.7 7.1-21.8 11-3 1.3-6.4 2.8-7.5 3.3-18.5 8.7-63.4 21.6-88 25.4-13.2 2-15 2.2-25.5 3.3-9.8 1-53.3 1-63.5 0-9.9-1-21-2.7-39-6.2-10.3-2-42.6-11.9-50-15.5-1.1-.5-4.9-2.1-8.5-3.6-28-11.4-61.5-31.8-91.5-55.8-18.9-15.2-40.1-35.2-53.7-50.8-2.9-3.3-6.4-7.2-7.7-8.6-3.6-3.9-16-19.7-22.2-28.2-7.8-10.9-19.1-28.1-21.5-33-.4-.7-2.5-4.3-4.6-7.8-5.7-9.4-21.8-42.8-27.6-57.2-7.2-17.9-17.2-48.1-20.3-61-.4-1.9-1.5-6.4-2.4-10-2.2-9.3-5-21.7-6-27-.3-1.4-.7-3.6-1-5-.9-4.4-2.7-14.4-3-16.5-1.1-8.1-2.6-18.5-3-20.2-.2-1.2-.7-5.4-1-9.4-.4-4-.8-8-1-9-1.7-8.7-2.4-54-1.1-74.9.9-16.2 2.5-35.5 3.1-39 .1-.8.6-4 1-7 .3-3 .8-6.6 1-8 .2-1.4.7-4.5 1-7 .3-2.5 1-6.8 1.5-9.5.5-2.8 1.2-6.6 1.5-8.5.3-1.9.8-4.2 1-5 .2-.8.6-3.2 1-5.4.3-2.1.7-4.2 1-4.6.3-.4.7-2.5 1.1-4.6.3-2 1-4.8 1.5-6.1.5-1.3.7-2.3.5-2.3-.4 0 .4-3.2 5.3-21.3 3.4-12.6 11.6-36.3 17.7-51.3 5.4-13.4 19.6-43.1 25-52.4 1.4-2.5 4.5-7.7 6.7-11.5 9.6-16.6 34-50.9 43.7-61.6.8-.9 3.8-4.3 6.5-7.5 7.6-8.9 36.6-38.1 44.6-44.9 3.9-3.3 8.3-7.1 9.8-8.4 3.5-3.1 27.5-20.9 33.1-24.5 41.8-27.1 81.5-43.3 127.5-52.1 1.7-.3 3.9-.7 5-.9 9.5-1.8 23.8-3.4 37.5-4.2 5.8-.3 10.6-.7 10.7-.7.3-.4 24.2.1 34.8.7zm1219 111c1.7.2 5.5.8 8.5 1.1 3 .4 6.3.9 7.5 1.1 1.1.2 4.9.9 8.5 1.5 15.2 2.4 35.9 8.1 53.4 14.9 9.3 3.5 31.7 13.9 36.6 17 .8.5 4.7 2.8 8.5 5.1 6.8 4 25 16.6 27.7 19.1.7.7 3.6 3.1 6.3 5.3 13.6 10.9 32 29.9 45.9 47.4 9.7 12.3 31.6 44.5 31.6 46.6 0 .2 1.4 2.8 3.1 5.7 20.2 34.2 39.8 88.9 47.3 131.8.2 1.4.7 3.6 1 5 .7 2.9 1.3 6.5 2.2 12.9.3 2.5.8 5.7 1 7.1.2 1.4.6 5 .9 8 .3 3 .8 6.4 1 7.5.2 1.1.7 5.6 1 10 .4 4.4.9 9.6 1.1 11.5 2.4 22.5 2.3 107-.1 111-.2.3-.6 3.8-.9 7.9-.3 4-.8 7.6-1 8-.2.3-.6 2.8-1 5.6-.6 5.3-1.1 8.1-2.6 16-.5 2.7-1.2 6.6-1.5 8.5-1.2 7.2-7.2 32.8-12 50.5-8.2 30.5-24.5 79.7-41.2 124.5-1.3 3.6-2.8 7.6-3.2 9-1.9 5.7-16.4 42.5-21.9 55.5-11.2 26.5-15.1 35-26.8 58-21.8 43.2-44 77.5-70.4 109-7.1 8.6-33.8 34-42.5 40.6-34.2 26-71.2 41-112.4 45.7-13.6 1.5-50.9.7-61.6-1.4-1.1-.2-3.6-.7-5.5-1-2.9-.5-14.2-2.7-20-3.9-7.3-1.5-35.8-10.4-46.5-14.5-1.6-.6-3.2-1.2-3.5-1.2-.3 0-1.4-.5-2.5-1.1-1.1-.6-2.2-1.2-2.5-1.2-1.9-.2-24.6-10.5-40-18.2-49.1-24.5-88-52.4-123.5-88.5-7.7-7.9-15.1-15.7-16.5-17.3-1.4-1.7-4.8-5.7-7.5-9-11.2-13.4-28.9-38.3-36.1-51-.6-1.1-3-5.4-5.4-9.4-13.6-23.8-28.2-57.3-37.3-85.6-3.1-9.7-8.7-29.1-9.3-32.5-.3-1.4-.7-3.3-1-4.2-.6-2.1-.7-2.5-4.8-22-1.9-9.1-3.7-18.6-4-21-.3-2.4-.8-5.4-1-6.8-.3-1.4-.7-4.5-1-7-.3-2.5-.8-6.1-1-8-3.5-28.4-4-79.3-1.1-105 .3-1.9.7-6 1-9 .4-3 .8-7 1.1-8.8.2-1.7.6-4.9.9-7 .3-2 .7-4.8 1-6.2.3-1.4.7-4.1.9-6 .4-2.9 2.4-14 4-21.5 2.8-13.2 5.1-23.2 6.7-29 1.1-3.9 2.7-9.7 3.5-13 3-11.1 16-50.4 18.9-57 .7-1.7 1.9-4.6 2.6-6.5 1.5-4.1 12.2-29.5 15.1-36 3.7-8 21.3-43.1 23.7-47 .5-.8 4.5-7.6 8.9-15 12.1-20.7 22.4-36 37-55.5 25.9-34.3 63.8-72.6 97.2-98 8.3-6.4 23.8-17.5 27.9-20 .9-.6 4.8-3 8.6-5.5 3.9-2.5 9.3-5.9 12-7.5 2.8-1.6 5.7-3.4 6.6-4 4-2.4 36.5-18.8 39.8-20 2-.8 7-2.8 11.1-4.5 26.1-10.9 58.9-18.9 88.5-21.6 3.9-.4 7.2-.8 7.4-1 .5-.5 48 .4 51.6 1zm-721 767.3c1.1 2.1 3.8 7.2 6.1 11.3 2.3 4.1 5.8 10.6 7.9 14.5 2.1 3.8 5 9.2 6.5 12 1.5 2.7 4.7 8.6 7 13s5 9.3 6 11c1 1.6 3.9 7 6.5 12 2.6 4.9 6.1 11.5 7.8 14.5 5.6 10.2 8.4 15.5 15.2 28 3.7 6.9 8.1 15 9.7 18 1.7 3 6.2 11.3 10 18.5 7.7 14.2 11.6 21.3 15.8 29 1.5 2.7 4.4 8 6.4 11.7 6.2 11.7 10.1 18.8 19.6 36.3 5.1 9.3 10.7 19.7 12.5 23 1.7 3.3 5.1 9.6 7.5 14 2.4 4.4 5.5 10.2 7 13 1.5 2.7 4.4 8.1 6.5 12 2.1 3.8 4.5 8.3 5.5 10 .9 1.6 3.9 7 6.5 12 2.7 4.9 7 13 9.7 17.9 2.6 4.9 4.8 9.1 4.8 9.3 0 .1-67.9.3-151 .3-83 0-151-.3-151-.7 0-1.6 114.5-344.3 115-344.3.3 0 1.4 1.7 2.5 3.7z"/></svg>