<?xml version="1.0" encoding="utf-8"?>
<!-- Generator: Adobe Illustrator 23.0.1, SVG Export Plug-In . SVG Version: 6.00 Build 0)  -->
<svg version="1.1" id="Layer_1" xmlns="http://www.w3.org/2000/svg" xmlns:xlink="http://www.w3.org/1999/xlink" x="0px" y="0px"
	 viewBox="0 0 222 1558.9" style="enable-background:new 0 0 222 1558.9;" xml:space="preserve">
<style type="text/css">
	.st0{fill:#FFFFFF;}
</style>
<title>ForCharity_White</title>
<g>
	<g id="Layer_1-2">
		<path class="st0" d="M5.4,1558.9l13.7-15.5h185.6l13.4,15.5v-72.8l-14.4,16.9h-86.8v-25.6l23.5-16.2H76.8l25.3,16.8v25H17v-41.8
			l63.6-25.7H5.4V1558.9z"/>
		<path class="st0" d="M74.5,1284.8c-10.9,2-21.5,5.6-31.5,10.5c-13.4,6.8-23.9,15.3-31.4,25.7c-7.6,10.3-11.4,21.4-11.4,33.4
			c0,11.8,3.8,23.3,10.7,32.8c7.2,10.2,16.9,18.7,29.3,25.5c10.3,5.6,21.4,9.4,32.9,11.4c12.7,2.3,25.6,3.4,38.5,3.3
			c14.6,0.1,29.1-1.2,43.4-3.9c13.7-2.6,25.5-7.3,35.3-14.1c9.8-6.2,17.9-14.8,23.6-24.9c5.3-9.2,8.1-19.6,8.1-30.2
			c0-10.1-2.1-20-6.3-29.2c-4.2-9.1-11.6-17-22.2-23.5c-5.4-3.3-11-6.1-16.9-8.4c-6.6-2.7-13.3-4.8-20.2-6.5
			c-7.3-1.8-14.7-3.2-22.2-4.1c-7.5-0.9-15.1-1.4-22.7-1.4C99.1,1281.2,86.7,1282.4,74.5,1284.8z M149,1321.7
			c10.2,1.5,20.3,4.1,30,7.6c8.4,3.1,15.1,6.9,20,11.3c4.9,4.4,7.4,9.1,7.4,14.2c0,4.9-2.5,9.7-7.4,14.3s-11.6,8.6-20,12
			c-9.7,3.7-19.7,6.5-30,8.1c-12.4,2.1-24.9,3.1-37.5,3c-12.7,0.1-25.3-0.9-37.8-3c-10.4-1.7-20.5-4.3-30.4-7.9
			c-8.7-3.3-15.5-7.2-20.4-11.8s-7.4-9.3-7.4-14.2c0-5.1,2.5-9.9,7.4-14.3c4.9-4.3,11.7-8.1,20.4-11.4c9.9-3.6,20-6.2,30.4-7.7
			c12.5-1.9,25.1-2.9,37.8-2.8C124.1,1318.9,136.6,1319.8,149,1321.7L149,1321.7z"/>
		<path class="st0" d="M218,1168.7v-54.1l-14.4,18.6l-88.9,47.8c0-2.8-1.1-6.5-3.2-11.1c-2.4-5-5.8-9.4-10-13
			c-4.6-4.1-10.5-7.6-17.9-10.6c-7.4-3-16.4-4.3-27.2-4c-11.2,0.2-20.2,2.7-26.9,7.5c-6.3,4.4-11.5,10.1-15.3,16.7
			c-3.4,6-5.8,12.5-7,19.3c-1,5-1.6,10.1-1.8,15.1v67.1l15.8-19.7h182.7l14.1,23.6v-81.9l-14.1,23.2h-78L218,1168.7z M18.8,1212.7
			c0.2-6.9,1.6-13.6,4.2-20c2.7-5.6,6.6-10.4,11.4-14.3c5.3-4.3,13-6.7,23.4-7.2c5.1-0.3,10.3,0.1,15.3,1.3
			c3.9,0.9,7.7,2.4,11.2,4.4c3,1.7,5.6,4,7.7,6.7c1.9,2.4,3.5,5,4.8,7.8c2.8,6.1,4.1,13.2,3.9,21.4L18.8,1212.7z"/>
		<path class="st0" d="M44.4,954.7c-8.4-3.4-15.2-7.3-20.2-11.8c-5-4.5-7.8-9.3-8.3-14.4c-0.7-6.1-0.1-10.7,1.8-13.7l67.5-31.3H12.4
			c-2.9,2.3-5.3,5.2-7,8.4c-1.9,4.3-3.4,8.9-4.2,13.5c-1.1,5.7-1.5,13.2-1,22.3c0.7,11.8,4.6,23.1,11.4,32.9
			c6.9,10.2,16.5,18.7,28.6,25.5c10.2,5.5,21.2,9.4,32.7,11.4c12.8,2.3,25.7,3.4,38.7,3.3c14.6,0.1,29.1-1.2,43.4-3.9
			c13.7-2.6,25.5-7.3,35.3-14.1c10.5-6.8,18.5-15,23.7-24.8c5.2-9.3,7.9-19.8,7.9-30.4c0-5.3-0.7-10.5-1.9-15.7
			c-1.1-4.9-2.7-9.6-4.8-14.2c-2.1-4.9-4.4-9.7-7-14.4h-82.6l75.2,31.3c1.7,1.8,3.1,4,4,6.3c1,2.2,1.5,4.6,1.6,7
			c0,5.2-2.4,10-7.2,14.4c-4.8,4.5-11.5,8.4-20,11.8c-9.8,3.7-19.9,6.4-30.2,8c-12.4,2.1-24.9,3.1-37.5,3c-12.5,0.1-25-0.9-37.4-2.8
			C64,961,54,958.4,44.4,954.7z"/>
		<path class="st0" d="M17.7,732.9L5.4,717.8v66.1l14.1-14.4h84.7v45.7H20.5l-15.1-13v65l14.1-15.8h183.8l14.8,14.1v-65.7
			l-14.8,15.5h-83.7v-45.7h82.6l15.8,16.5v-66.8l-15.8,13.8H17.7z"/>
		<path class="st0" d="M218,533.3l-15.5,20.4L5.1,607.8v54.8l17.5-22.1l177.1,48.9l18.3,24.6v-65.3l-16.9,18.6l-56.2-14.4v-43.9
			l54.8-11.2l18.3,15.8L218,533.3z M131.9,649.3l-74.5-18.4l74.5-18.6V649.3z"/>
		<path class="st0" d="M218,415.2V361l-14.4,18.6l-88.9,47.8c0-2.8-1.1-6.5-3.2-11.1c-2.4-5-5.8-9.4-10-13
			c-4.6-4.1-10.5-7.6-17.9-10.5s-16.4-4.3-27.2-4c-11.2,0.2-20.2,2.7-26.9,7.6c-6.3,4.4-11.5,10.1-15.3,16.7c-3.4,6-5.8,12.5-7,19.3
			c-1,5-1.6,10-1.8,15.1v67.1l15.8-19.7h182.7l14.1,23.5v-81.9l-14.1,23.2h-78L218,415.2z M18.8,459.1c0.2-6.9,1.6-13.6,4.2-20
			c2.7-5.6,6.6-10.4,11.4-14.3c5.3-4.3,13-6.7,23.4-7.2c5.1-0.3,10.3,0.1,15.3,1.2c3.9,0.9,7.7,2.4,11.2,4.4c3,1.7,5.6,4,7.7,6.7
			c1.9,2.4,3.5,5,4.8,7.7c2.8,6.1,4.1,13.3,3.9,21.4L18.8,459.1z"/>
		<path class="st0" d="M218,352.9v-72.4l-15.1,15.2h-187L5.4,280.9v73.4L17,337.8h186.6L218,352.9z"/>
		<path class="st0" d="M5.4,273.5h73.5l-57.3-23.2v-18.6h182.7l13.7,15.8v-71L203.6,192h-182v-16.5l58-24.3H5.4V273.5z"/>
		<path class="st0" d="M19.8,12.4L5.4,0.1v44.3l14.4-12l60.1,26L19.8,85L5.4,74.5v63.6l14.4-15.8l84-35.8h98l16.2,14.1V34.5
			l-15.1,12.7H102.8L19.8,12.4z"/>
	</g>
</g>
</svg>
