<?xml version="1.0" encoding="utf-8"?>
<!-- Generator: Adobe Illustrator 23.0.1, SVG Export Plug-In . SVG Version: 6.00 Build 0)  -->
<svg version="1.1" id="Layer_1" xmlns="http://www.w3.org/2000/svg" xmlns:xlink="http://www.w3.org/1999/xlink" x="0px" y="0px"
	 viewBox="0 0 222 1062.5" style="enable-background:new 0 0 222 1062.5;" xml:space="preserve">
<style type="text/css">
	.st0{fill:#FFFFFF;}
</style>
<title>Headstone_White</title>
<g>
	<g id="Layer_1-2">
		<path class="st0" d="M48.1,974.2c0-0.5-0.4-0.9-0.9-0.9c0,0-0.1,0-0.1,0h-3.2c-23,0-25.6,0-30.3,0.3c-4.3,0.3-6.8,1.5-7.9,6.4
			c-0.2,1.2-0.3,3.4-0.4,5.2c0,2.1-0.9,2.8-1.5,2.8c-0.9,0-1.5-0.7-1.5-3c0-8.6,0.4-22,0.4-23.5c0-1.3-0.4-18.4-0.4-24.8
			c0-2.2,0.6-3,1.5-3s1.5,0.8,1.5,2.3c0.3,2.5,0.3,3.4,0.6,5.2c0.6,3.9,3.1,5,7.9,5.5c4.8,0.3,8.6,0.3,31.7,0.3h26.2
			c14.1,0,25.1,0,31.4-0.7c4.9-0.5,7.4-1.6,8.2-6.1c0.3-2.1,0.4-5.1,0.6-6.5c0-1.8,0.7-2.5,1.5-2.5c1,0,1.5,1.2,1.5,3
			c0,10.3-0.4,25.3-0.4,28c0,2.4,0.4,14,0.4,21.3c0,2.7-0.7,3.3-1.6,3.3s-1.3-0.9-1.3-2.8c-0.1-1.5-0.3-3.1-0.6-4.6
			c-0.8-3.6-3.6-4.5-8.3-4.9c-6.2-0.6-15.6-0.9-29.7-0.9h-12c-0.5,0-0.9,0.4-0.9,0.8c0,0,0,0,0,0.1v46.3c-0.1,0.4,0.2,0.8,0.7,0.9
			c0.1,0,0.2,0,0.2,0h15.4c14.1,0,20.2-0.1,26.6-0.7c4.3-0.5,7.1-1.8,7.9-6.2c0.4-3.1,0.6-4.6,0.7-6.3c0-1.6,0.4-2.8,1.5-2.8
			c0.7,0,1.5,0.7,1.5,3c0,8.5-0.4,26-0.4,27.5s0.4,16.9,0.4,21.7c0,1.6-0.3,3.3-1.3,3.3s-1.6-0.6-1.6-2.5c-0.2-1.8-0.3-2.7-0.6-4.6
			c-0.4-3.6-4.3-4.9-8.8-5.2c-6.3-0.5-16.7-0.8-30.8-0.8H45.7c-23,0-26.5,0.1-31.2,0.4c-5.2,0.3-8,1.9-8.8,7.1
			c-0.3,1.8-0.3,2.5-0.4,4.1c-0.2,2.7-0.9,3-1.6,3c-1,0-1.3-1.6-1.3-3.3c0-8.6,0.4-20.1,0.4-23.5c0-5.6-0.4-18.1-0.4-24.5
			c0-2.7,0.6-3.1,1.5-3.1s1.5,0.9,1.5,2.7c0.1,1.7,0.3,3.5,0.6,5.2c0.9,4,4.3,4.8,8.6,5.1c4.8,0.5,10.9,0.5,29.4,0.5h3.1
			c0.7,0,1-0.4,1-0.9L48.1,974.2z"/>
		<path class="st0" d="M45.4,900.4c-24.2,0-27.2,0.2-32,0.5c-4.3,0.3-6.8,1.6-7.7,5.4c-0.3,1.3-0.3,3.4-0.4,4.9
			c-0.2,1.9-0.7,2.7-1.6,2.7s-1.3-0.9-1.3-3.3c0-8.5,0.4-15.6,0.4-22.1c0-3.1-0.1-39.5-0.1-41.9c0-2.7-0.2-5.4-0.6-8
			c-0.3-0.8-0.5-1.6-0.6-2.4c0-0.8,0.6-0.9,1.3-0.9s2.2,0.3,6.5,0.7c3,0.4,8.2,0.7,15.9,1.2c1.2,0,2.1,0.6,2.1,1.5
			c0,0.9-0.7,1.3-2.1,1.5c-1.8,0-3.5,0.2-5.2,0.7c-3.4,0.8-5.4,2.7-6,9.8c-0.4,4.9-0.7,17.8-0.7,22.3c0,0.9,0.4,1.2,1.5,1.2h32.8
			c1,0,1.8-0.1,1.8-1.2c0.2-4.2,0-16.2-0.2-21.5c-0.3-7.3-0.7-9.2-3.4-10.9c-1.3-0.9-1.9-1.3-1.9-2.1c0-0.9,0.9-0.9,1.8-0.9
			c1.5,0,6.8,0.8,12.6,1.2c3.4,0.2,10.7,0.2,12.3,0.2c1.9,0,2.8,0.4,2.8,1.3s-1,1.3-2.4,1.6c-1.2,0.2-2.2,0.3-3.4,0.5
			c-4.3,0.6-6.8,2.7-7.3,10c-0.3,4.2-0.6,16.3-0.6,21c0,0.7,0.8,0.9,1.9,0.9h10.2c5.1,0,13.8,0.1,19.5,0
			c10.4-0.2,12.8-2.2,12.8-18.7c0-3.9-0.2-9.7-1.8-13.8c-1.6-4.2-4.9-6-11.8-7.3c-1.8-0.3-2.7-0.9-2.7-1.8c0-1.2,1.5-1.3,3.3-1.3
			c6.7,0.2,13.4,1,19.9,2.4c3.9,1,4,2.1,4,7.6c0,20.5-0.9,31.7-0.9,47.3c0,7,0.4,13.2,0.4,21.4c0,2.7-0.4,3.6-1.5,3.6
			c-0.8,0-1.5-0.7-1.5-3c-0.1-1.5-0.3-3-0.6-4.5c-0.6-4.2-6.3-4.8-15.6-5c-6-0.3-14.7-0.4-23.9-0.4L45.4,900.4z"/>
		<path class="st0" d="M83.9,785.7c0,0.7,0.3,1,1,1.3l12.2,4.6c3,1.3,6.2,2.1,9.5,2.4c2.8,0,4.2-1.3,4.5-4.5c0.3-1.6,0.4-4,0.6-5.2
			c0-2.2,0.7-2.7,1.5-2.7c1.2,0,1.5,1.2,1.5,3.1c0,6.7-0.4,11.7-0.4,19.6c0,1.6,0.4,11.4,0.4,18.9c0,2.1-0.6,3-1.5,3
			c-1.2,0-1.5-1-1.5-2.8c-0.1-1.6-0.3-3.2-0.6-4.8c-1-5.2-5.7-8.2-12.8-11.3L8.6,767.7c-6.4-2.8-8.6-4.5-8.6-6.1s2.1-2.8,7.4-5.4
			c8.3-3.9,65.3-28.8,87.8-39c11.6-5,15.2-8.3,15.9-13.5c0.3-1.6,0.5-3.2,0.6-4.8c0-1.9,0.6-2.8,1.5-2.8c1,0,1.5,1,1.5,3.9
			c0,14.6-0.3,31.5-0.4,41c0,2.4-0.4,3.3-1.3,3.3s-1.5-0.8-1.8-2.1c-0.3-1.6-1.3-2.2-2.7-1.8l-23.6,10c-0.5,0.2-0.9,0.6-0.9,1.2
			L83.9,785.7z M72,755.9c0-0.9-0.4-0.9-0.7-0.7l-31.8,13.1c-1,0.4-0.7,0.7,0,1L71.3,782c0.4,0.2,0.7-0.1,0.7-0.6V755.9z"/>
		<path class="st0" d="M45.4,683.1c-21.9,0-26,0-30.8,0.3c-4.3,0.3-8.3,1-8.9,6.7c-0.2,1.2-0.2,2.7-0.4,5.5
			c-0.1,2.2-0.9,2.8-1.6,2.8c-0.9,0-1.3-0.9-1.3-3.4c0-3.7,0.4-17.4,0.4-23.9c0-4.9-0.1-11.6-0.3-24.1c0.2-25.4,3.4-45.3,17.2-58.9
			c7.6-7.6,20.1-14.3,37.8-14.3c18,0,32.7,7.9,40.7,16.4c7.4,7.3,17.7,21,17.7,50.8c0,6-0.2,11-0.6,15.9c-0.6,5.8-1,11.9-1,14.7
			c0,3.6,0,7.1,0.2,11.3s0.3,6.1,0.3,10.3c0,2.5-0.7,3-1.5,3c-1,0-1.5-1.2-1.5-2.8c-0.1-1.5-0.3-3.1-0.6-4.6c-0.4-3-3.3-4.5-9.1-4.9
			c-7.1-0.4-17.7-0.7-30.5-0.7L45.4,683.1z M62.1,656.8c15.8,0,26-0.2,28.8-0.3c6.1-0.3,9.1-0.9,10.7-2.5c3.3-2.7,5.3-8.8,5.3-15.3
			c0-10.4-2.2-19.2-10.4-27c-7.7-7.7-21-9.7-34.9-9.7c-12.2,0-24.1,4-34,11.1c-13.4,10.3-16.2,24.4-16.2,34.2c0,3.3,0.4,6.7,1.2,8
			c0.6,1.2,1.3,1.3,2.7,1.3c5-0.2,15.8,0.1,27.8,0.1L62.1,656.8z"/>
		<path class="st0" d="M112.6,553.4c-1,2.5-3,3.3-5.9,3.3c-7.3,0.1-14.6-0.2-21.8-0.9c-2.7-0.3-3.6-0.9-3.6-1.8
			c0-0.9,1.3-1.2,2.5-1.3c1.6-0.1,3.1-0.4,4.6-0.7c12.2-2.5,19.2-13.7,19.2-25.3c0-14.1-7.3-18.4-13.7-18.4
			c-6.2,0-11.4,1.2-20.1,13.8l-6.4,9.2c-12.8,18.1-23.2,23.2-36.3,23.2c-17.1,0-30.9-14.1-30.9-37.9c-0.1-5.7,0.4-11.5,1.5-17.1
			c0.5-2.5,1.1-4.9,1.8-7.3c0.4-1.5,0.9-1.9,2.1-1.9c4.8,0.3,7.7,0.6,21,0.6c2.7,0,3.7,0.5,3.7,1.6c0,0.7-0.4,1.3-2.8,1.6
			c-3,0.3-6,1.2-8.6,2.7c-4.8,2.8-9.8,9.7-9.8,20.4c0,12.2,6.8,16.7,13.7,16.7c5.1,0,10.9-1.8,17.7-11.9l5-7.6
			c13.8-20.8,23.1-27.3,38.1-27.3c10.3,0,20.4,4.6,26.9,15.8c5.2,8.6,6.4,18.1,6.4,25.9C116.8,539.8,115.3,547.7,112.6,553.4z"/>
		<path class="st0" d="M71.6,411.7c11.6,0,25.4,0,31.7-0.8c3.9-0.3,7-1.3,7.7-5.8c0.3-1.9,0.4-3.7,0.7-6.4c0.2-2.4,0.6-3,1.6-3
			c0.9,0,1.3,0.7,1.3,3.4c0,10.1-0.4,24.5-0.4,26.9c0,2.5,0.4,17,0.4,21.9c0,2.4-0.3,3.4-1.5,3.4c-1,0-1.5-1.2-1.5-3
			c-0.2-1.5-0.3-3.1-0.6-4.8c-0.6-3.3-3.9-4.3-8.2-4.8c-6.2-0.6-16.9-0.9-31.4-0.9H13.3c0,5.8-0.1,15,0.3,22.4
			c0.4,8.3,2.4,11.6,7.6,13.5c1.1,0.5,2.3,1,3.4,1.3c1.2,0.3,2.4,0.7,2.4,1.8c0,1.3-1.2,1.3-3,1.2c-6.1-0.6-14.1-2.2-19.8-3.3
			c-2.2-0.3-3.7-0.7-3.7-1.6s0.5-1.6,1.2-5c0.6-2.7,1-10.8,1-16.5v-64.7c0-3.1-0.2-6.3-0.6-9.4c-0.4-1.5-0.7-3.1-0.9-4.6
			c0-1.3,0.9-1.5,4.6-1.5c2.1,0,15.9,0.9,19.6,1c2.1,0.2,3,0.6,3,1.5c0,1.2-0.9,1.5-2.7,1.6c-1.6,0.2-2.2,0.2-3,0.3
			c-4.6,0.6-8.2,2.8-8.8,11.6c-0.4,4.9-0.7,12.6-0.7,23.9L71.6,411.7z"/>
		<path class="st0" d="M58.9,364.1c-29.7,0-58.7-19.9-58.7-63.6c0-37.8,25.3-61.4,55.4-61.4c34.6,0,61.1,23.5,61.1,62.4
			C116.8,345.4,85.3,364.1,58.9,364.1z M62.2,268.8c-24.7,0-52.8,10.3-52.8,36.6c0,13.7,7.6,29,42.8,29c28.1,0,55-11.7,55-37.3
			C107.3,287.9,103.3,268.8,62.2,268.8L62.2,268.8z"/>
		<path class="st0" d="M7.2,210.4c-4.5-0.1-7.1-0.7-7.1-2.5c0-1.2,0.4-1.9,3.6-5.8c5.2-6.2,12.6-14,43.8-48
			c14-15.2,23.9-25.4,27.5-29.4l-55.8,0.9c-8.3,0.3-12.2,1-13.2,7c-0.4,2.2-0.6,4.3-0.7,6.5c0,1.9-0.7,2.7-1.5,2.7
			c-1,0-1.5-1.3-1.5-3c0-6,0.4-15.6,0.4-21.6c0-3.3-0.4-10.7-0.4-16.9c0-2.2,0.4-3.3,1.3-3.3c0.7,0,1.6,0.7,1.6,2.5
			c0,1.2,0.2,2.5,0.4,3.7c0.6,4.9,3.1,6.4,12.3,6.8c29.9,1.2,59.6,1.2,89.5,1.8c7.6,0,9.2,1,9.2,3c0,2.4-3.6,7-12,16.6
			c-8.9,10.1-20.7,23.1-28.8,32.1c-7.6,8.3-21.6,23.2-32.1,34l50.7-1.5c10.7-0.3,14.7-0.9,16.2-5c0.7-2.2,0.7-4.9,1-7.9
			c0.2-2.2,0.6-3,1.5-3c1.2,0,1.5,1.2,1.5,3.6c0,5.2-0.3,10-0.4,19.2c0,3.4,0.4,14.4,0.4,20.2c0,2.1-0.3,3.3-1.5,3.3
			c-0.9,0-1.5-0.8-1.5-2.8c-0.2-1.3-0.2-3.3-0.4-4.9c-0.9-5.8-4.6-6.5-18.4-7C62.2,211,26.4,211.3,7.2,210.4z"/>
		<path class="st0" d="M45.4,69.2c-24.2,0-27.2,0.2-32,0.5C9.2,70,6.6,71.3,5.7,75c-0.3,1.3-0.3,3.4-0.4,4.9
			c-0.2,1.9-0.7,2.7-1.6,2.7s-1.3-0.9-1.3-3.3c0-8.5,0.4-15.6,0.4-22.2c0-3.1-0.1-39.5-0.1-41.9c0-2.7-0.2-5.4-0.6-8
			C1.7,6.5,1.5,5.7,1.4,4.9C1.4,4.1,2,4,2.8,4S5,4.3,9.3,4.7c3,0.4,8.2,0.7,15.9,1.2c1.2,0,2.1,0.6,2.1,1.5c0,0.7-0.7,1.3-2.1,1.5
			c-1.8,0-3.5,0.2-5.2,0.8c-3.4,0.7-5.4,2.7-6,9.8c-0.4,4.9-0.7,17.8-0.7,22.3c0,0.9,0.4,1.2,1.5,1.2h32.8c1,0,1.8-0.2,1.8-1.2
			c0.2-4.2,0-16.2-0.2-21.5c-0.3-7.3-0.7-9.2-3.4-10.8c-1.3-0.9-1.9-1.3-1.9-2.1s0.9-0.9,1.8-0.9c1.5,0,6.8,0.7,12.6,1.2
			c3.4,0.1,10.7,0.1,12.3,0.1c1.9,0,2.8,0.4,2.8,1.3c0,1-1,1.3-2.4,1.6c-1.2,0.2-2.2,0.3-3.4,0.4c-4.3,0.6-6.8,2.7-7.3,10
			c-0.3,4.2-0.6,16.3-0.6,21c0,0.7,0.8,0.9,1.9,0.9h10.2c5.1,0,13.8,0.2,19.5,0c10.4-0.2,12.8-2.2,12.8-18.7c0-3.9-0.2-9.7-1.8-13.8
			s-4.9-6-11.8-7.3c-1.8-0.3-2.7-0.9-2.7-1.8c0-1.2,1.5-1.3,3.3-1.3c6.7,0.2,13.4,1,19.9,2.4c3.9,1,4,2.1,4,7.6
			c0,20.5-0.9,31.7-0.9,47.3c0,7,0.4,13.2,0.4,21.4c0,2.7-0.4,3.6-1.5,3.6c-0.8,0-1.5-0.8-1.5-3c-0.1-1.5-0.3-3-0.6-4.5
			c-0.6-4.2-6.3-4.8-15.6-5c-6-0.3-14.7-0.5-23.9-0.5L45.4,69.2z"/>
		<path class="st0" d="M162.9,947.6c-20,0-21.5,0.1-25.4,0.4c-4.4,0.2-6.5,1.2-7.2,4.7c-0.2,1.4-0.4,2.8-0.5,4.2
			c0,1.3-0.3,2.4-1.2,2.4s-1.2-0.9-1.2-2.8c0-7.1,0.4-13.4,0.4-18.8l-0.1-36.1c0-2.1-0.2-4.2-0.6-6.3c-0.2-0.8-0.3-1.5-0.4-2.3
			c0-0.5,0.5-0.8,0.9-0.8c0.1,0,0.1,0,0.2,0c0.9,0.1,3.3,0.6,6.3,0.9c2.9,0.2,6.9,0.6,11.8,0.9c1.6,0.1,2.1,0.5,2.1,1.3
			s-0.7,1.1-2,1.2c-1.3,0.1-2.6,0.2-3.8,0.5c-2.7,0.7-4.7,2.6-5,8.1c-0.4,4.5-0.6,15.8-0.6,19.8c0,0.7,0.4,1,1.4,1h27.9
			c0.9,0,1.5-0.1,1.5-1c0.1-3.6,0-12.2-0.1-16.9c-0.3-6.8-0.4-8.4-2.8-10c-1.1-0.7-1.6-1.1-1.6-1.7s0.9-0.9,1.6-0.9
			c1.2,0,5.6,0.7,9.9,1c2.7,0.1,9,0.2,10.3,0.2s2.5,0.1,2.5,1.1c0,0.7-0.7,1.2-2.1,1.2c-0.9,0.1-1.7,0.2-2.7,0.4
			c-3.3,0.5-5.5,2.2-6,8.1c-0.3,3.6-0.4,14.1-0.4,17.7c0,0.6,0.5,0.7,1.6,0.7h8.5c11.8,0,19.5,0,24.7-0.6c3.6-0.4,6-1.1,6.8-5.6
			c0.2-1.7,0.4-2.9,0.5-4.2c0-1.8,0.4-2.7,1.1-2.7s1.4,0.4,1.4,2.7c0,6.9-0.4,7.9-0.4,20.8c0,8.7,0.4,16,0.4,19
			c0,1.8-0.5,2.6-1.2,2.6s-1.1-0.4-1.2-2.2c-0.1-1.2-0.3-1.8-0.5-3.2c-0.5-3.3-3.7-3.9-8.7-4.3c-6.6-0.5-12.2-0.5-23.9-0.5
			L162.9,947.6z"/>
		<path class="st0" d="M174.1,878.8c-24.6,0-48.5-16.4-48.5-52.5c0-31.2,20.9-50.7,45.8-50.7c28.6,0,50.5,19.4,50.5,51.6
			C221.9,863.4,195.9,878.8,174.1,878.8z M176.8,800.1c-20.4,0-43.6,8.5-43.6,30.2c0,11.3,6.3,23.9,35.4,23.9
			c23.2,0,45.4-9.7,45.4-30.8C214,815.8,210.7,800.1,176.8,800.1z"/>
		<path class="st0" d="M162.9,752.4c-19,0-21.5,0.3-25.4,0.4c-5,0.3-6.6,1.7-7.2,4.7c-0.3,1.6-0.4,3.3-0.5,4.9
			c-0.1,1.5-0.6,2.2-1.4,2.2s-1.1-0.9-1.1-2.7c0-5.3,0.4-17.1,0.4-18.8c0-2.3-0.4-14.1-0.4-19.8c0-11.5,1.1-19.6,4.2-25
			c3.6-7,10.9-11.3,18.8-11.2c10.3,0,18.2,5.9,24.7,16.5c10.8-7.5,23.9-16.5,32.5-23.9c7.2-6.5,9.3-9.5,9.8-12.9
			c0.2-1.3,0.2-2.1,0.4-3.1c0-1.3,0.5-2.1,1.2-2.1c1.1,0,1.2,1.2,1.2,2.5v11c0,12.7-1.2,18-4.1,22.4c-2.3,3.9-7.6,7.9-15.4,12.6
			c-9.3,5.6-14.4,8.5-17.7,10.7c-0.5,0.4-0.7,0.9-0.7,1.5v8.1c0,0.6,0.2,1,1,1h6.3c9.7,0,15.5,0,20.6-0.6c3.2-0.2,5.9-1.1,6.8-4.8
			c0.4-1.8,0.7-3.7,0.7-5.5c0.1-2,0.6-2.2,1.4-2.2s1.1,0.9,1.1,2.6c0,8.2-0.4,21.6-0.4,22.5c0,1.5,0.4,13.4,0.4,17.5
			c0,1.8-0.4,2.5-1.2,2.5s-1.2-0.9-1.2-2.2c0-1.3-0.3-2.8-0.5-4.2c-0.6-2.5-2.8-3.4-7-3.8c-5.2-0.5-13.8-0.6-25.7-0.6L162.9,752.4z
			 M171.2,731.3c0.8,0.1,1.5-0.4,1.9-1.1c1.2-2.3,1.6-6,1.6-9.5s-0.5-5.8-2-7.7c-2-2.6-7.3-4.8-15.5-4.8c-17.4,0-22,11-22,17.4
			c-0.1,1.7,0.1,3.3,0.5,4.9c0.3,0.5,0.4,0.7,1.4,0.7H171.2z"/>
		<path class="st0" d="M194.8,611.9c0,0.6,0.2,0.9,0.9,1.1l10.1,3.8c2.5,1,5.1,1.7,7.9,2c2.3,0,3.4-1.1,3.7-3.7
			c0.2-1.4,0.4-3.3,0.5-4.3c0-1.8,0.6-2.2,1.2-2.2c1,0,1.2,1,1.2,2.6c0,5.5-0.4,9.7-0.4,16.2c0,1.4,0.4,9.5,0.4,15.6
			c0,1.7-0.5,2.5-1.2,2.5c-1,0-1.2-0.9-1.2-2.3c-0.1-1.3-0.3-2.6-0.5-3.9c-0.9-4.3-4.7-6.8-10.6-9.3l-74.2-32.8
			c-5.3-2.3-7.1-3.7-7.1-5s1.7-2.3,6.1-4.4c6.9-3.2,53.9-23.8,72.6-32.2c9.6-4.2,12.5-6.9,13.1-11.2c0.3-1.3,0.4-2.6,0.5-3.9
			c0-1.6,0.5-2.3,1.2-2.3s1.2,0.9,1.2,3.2c0,12-0.2,26-0.4,33.9c0,2-0.4,2.7-1.1,2.7s-1.2-0.6-1.5-1.7c-0.3-1.4-1.1-1.8-2.2-1.5
			l-19.5,8.2c-0.4,0.1-0.7,0.5-0.7,1L194.8,611.9z M184.9,587.4c0-0.7-0.4-0.7-0.6-0.6l-26.3,10.8c-0.9,0.4-0.6,0.6,0,0.9l26.3,10.4
			c0.4,0.1,0.6-0.1,0.6-0.5L184.9,587.4z"/>
		<path class="st0" d="M165.2,432c0-0.4-0.3-0.7-0.9-0.7h-2.6c-19,0-21.1,0-25.1,0.2c-3.6,0.3-5.6,1.2-6.5,5.3
			c-0.1,1-0.3,2.8-0.4,4.3c0,1.7-0.7,2.3-1.2,2.3c-0.7,0-1.2-0.6-1.2-2.5c0-7.1,0.4-18.2,0.4-19.4s-0.4-15.2-0.4-20.5
			c0-1.8,0.5-2.5,1.2-2.5s1.2,0.6,1.2,1.8c0.2,2.1,0.2,2.8,0.5,4.3c0.5,3.2,2.6,4.2,6.5,4.5s7.1,0.2,26.1,0.2h21.6
			c11.7,0,20.8,0,25.9-0.6c4.1-0.4,6.1-1.3,6.8-5c0.2-1.7,0.4-4.2,0.5-5.4c0-1.5,0.6-2.1,1.2-2.1c0.9,0,1.2,1,1.2,2.5
			c0,8.5-0.4,20.9-0.4,23.1c0,2,0.4,11.5,0.4,17.5c0,2.2-0.6,2.7-1.4,2.7s-1.1-0.7-1.1-2.3c-0.1-1.2-0.3-2.7-0.5-3.8
			c-0.6-3-3-3.7-6.9-4.1c-5.2-0.5-12.9-0.7-24.6-0.7h-9.9c-0.4,0-0.7,0.3-0.7,0.7c0,0,0,0,0,0.1v38.3c-0.1,0.4,0.2,0.7,0.5,0.7
			c0.1,0,0.1,0,0.2,0h12.8c11.7,0,16.7-0.1,22-0.6c3.6-0.4,5.9-1.5,6.5-5.2c0.4-2.6,0.5-3.8,0.6-5.2s0.4-2.3,1.2-2.3
			c0.6,0,1.2,0.6,1.2,2.5c0,7-0.4,21.5-0.4,22.7s0.4,14,0.4,17.9c0,1.3-0.2,2.7-1.1,2.7s-1.4-0.5-1.4-2.1s-0.3-2.2-0.5-3.8
			c-0.4-3-3.6-4-7.3-4.3c-5.1-0.4-13.8-0.6-25.4-0.6h-21.4c-19,0-21.9,0.1-25.8,0.4c-4.3,0.2-6.6,1.6-7.2,5.9
			c-0.2,1.1-0.3,2.3-0.4,3.4c-0.1,2.2-0.7,2.5-1.4,2.5c-0.9,0-1.1-1.4-1.1-2.7c0-7.1,0.4-16.6,0.4-19.4c0-4.7-0.4-15-0.4-20.3
			c0-2.2,0.5-2.6,1.2-2.6c0.7,0,1.2,0.7,1.2,2.2c0.1,1.4,0.2,2.9,0.5,4.3c0.7,3.3,3.6,3.9,7.1,4.2c3.9,0.4,9,0.4,24.3,0.4h2.6
			c0.6,0,0.9-0.4,0.9-0.7L165.2,432z"/>
		<path class="st0" d="M162.9,373.2c-20,0-22.5,0.1-26.4,0.4c-3.6,0.3-5.6,1.3-6.4,4.4c-0.2,1.3-0.3,2.7-0.4,4.1
			c-0.1,1.6-0.6,2.2-1.4,2.2s-1.1-0.7-1.1-2.7c0-7,0.4-12.9,0.4-18.3l-0.1-34.6c0-2.2-0.2-4.4-0.5-6.6c-0.2-0.6-0.4-1.3-0.5-2
			c0-0.6,0.5-0.7,1.1-0.7c0.6,0,1.8,0.3,5.4,0.6c2.5,0.4,6.8,0.6,13.1,1c1,0,1.7,0.5,1.7,1.2s-0.6,1.1-1.7,1.2
			c-1.5,0-2.9,0.2-4.3,0.6c-2.8,0.6-4.4,2.2-4.9,8.1c-0.4,4.1-0.6,14.7-0.6,18.4c0,0.7,0.4,1,1.2,1h27c0.9,0,1.5-0.1,1.5-1
			c0.1-3.4,0-13.4-0.1-17.8c-0.3-6-0.6-7.6-2.8-9c-1.1-0.7-1.6-1.1-1.6-1.7s0.7-0.7,1.5-0.7c1.2,0,5.6,0.6,10.4,1
			c2.8,0.1,8.8,0.1,10.2,0.1c1.6,0,2.3,0.4,2.3,1.1s-0.9,1.1-2,1.3s-1.9,0.3-2.8,0.4c-3.6,0.5-5.6,2.2-6,8.2
			c-0.3,3.4-0.5,13.5-0.5,17.3c0,0.6,0.6,0.7,1.6,0.7h8.5c4.2,0,11.4,0.1,16.1,0c8.6-0.1,10.6-1.8,10.6-15.5c0-3.2-0.1-8-1.5-11.4
			s-4.1-4.9-9.7-6c-1.5-0.3-2.2-0.7-2.2-1.5c0-1,1.2-1.1,2.7-1.1c5.5,0.2,11,0.9,16.5,2c3.2,0.9,3.3,1.7,3.3,6.3
			c0,16.9-0.7,26.2-0.7,39c0,5.8,0.4,10.9,0.4,17.7c0,2.2-0.4,3-1.2,3c-0.6,0-1.2-0.6-1.2-2.5c-0.1-1.2-0.2-2.5-0.5-3.7
			c-0.5-3.4-5.2-3.9-12.9-4.2c-4.9-0.2-12.1-0.4-19.8-0.4L162.9,373.2z"/>
		<path class="st0" d="M162.9,292c-19,0-21.5,0.3-25.4,0.4c-5,0.2-6.6,1.7-7.2,4.7c-0.3,1.6-0.4,3.3-0.5,4.9
			c-0.1,1.5-0.6,2.2-1.4,2.2s-1.1-0.9-1.1-2.7c0-5.3,0.4-17.1,0.4-18.8c0-2.3-0.4-14.1-0.4-19.8c0-11.5,1.1-19.6,4.2-25
			c3.6-7,10.9-11.3,18.8-11.2c10.3,0,18.2,5.9,24.7,16.5c10.8-7.5,23.9-16.5,32.5-23.9c7.2-6.5,9.3-9.5,9.8-12.9
			c0.2-1.3,0.2-2.1,0.4-3.1c0-1.3,0.5-2.1,1.2-2.1c1.1,0,1.2,1.2,1.2,2.5v11c0,12.7-1.2,18-4.1,22.3c-2.3,3.9-7.6,7.9-15.4,12.7
			c-9.3,5.7-14.4,8.5-17.7,10.7c-0.4,0.4-0.7,0.9-0.7,1.5v8.1c0,0.6,0.2,1,1,1h6.3c9.7,0,15.5,0,20.6-0.6c3.2-0.3,5.9-1.1,6.8-4.8
			c0.4-1.8,0.7-3.7,0.7-5.5c0.1-2,0.6-2.2,1.4-2.2s1.1,0.9,1.1,2.6c0,8.2-0.4,21.6-0.4,22.5c0,1.5,0.4,13.4,0.4,17.6
			c0,1.8-0.4,2.5-1.2,2.5s-1.2-0.8-1.2-2.2s-0.3-2.8-0.5-4.2c-0.6-2.5-2.8-3.4-7-3.8c-5.2-0.5-13.8-0.6-25.7-0.6L162.9,292z
			 M171.2,270.8c0.8,0.1,1.5-0.4,1.9-1.1c1.2-2.3,1.6-6,1.6-9.5s-0.5-5.8-2-7.7c-2-2.6-7.3-4.8-15.5-4.8c-17.4,0-22,11.1-22,17.4
			c-0.1,1.7,0.1,3.3,0.5,4.9c0.3,0.5,0.4,0.7,1.4,0.7H171.2z"/>
		<path class="st0" d="M174.1,204.8c-24.6,0-48.5-16.5-48.5-52.5c0-31.2,20.9-50.7,45.8-50.7c28.6,0,50.5,19.4,50.5,51.6
			C221.9,189.3,195.9,204.8,174.1,204.8z M176.8,126.1c-20.4,0-43.6,8.5-43.6,30.2c0,11.3,6.3,23.9,35.4,23.9
			c23.2,0,45.4-9.7,45.4-30.8C214,141.8,210.7,126.1,176.8,126.1z"/>
	</g>
</g>
</svg>
