<?xml version="1.0" encoding="utf-8"?>
<!-- Generator: Adobe Illustrator 23.0.1, SVG Export Plug-In . SVG Version: 6.00 Build 0)  -->
<svg version="1.1" id="Layer_1" xmlns="http://www.w3.org/2000/svg" xmlns:xlink="http://www.w3.org/1999/xlink" x="0px" y="0px"
	 viewBox="0 0 220 787.2" style="enable-background:new 0 0 220 787.2;" xml:space="preserve">
<style type="text/css">
	.st0{fill-rule:evenodd;clip-rule:evenodd;fill:#FFFFFF;}
</style>
<title>StJude_White</title>
<g>
	<g id="Layer_1-2">
		<path class="st0" d="M49.7,694c-15,4.7-33.2,12.8-33.2,34.6c0,17.2,12.4,26.6,27.2,26.6c14.5,0,24.1-10.4,33.2-30.5l3.1-6.8
			c9.1-20.3,22.9-39,49.9-39c30.9,0,52.7,24.2,52.7,59.4c-0.1,8.8-1.6,17.6-4.4,26c-2.3,7.3-4.4,12-5.4,15.1
			c-6.8,2.1-24.4,5.2-40.3,7.8l-2.5-7.8c13.5-5.2,42.3-19.3,42.3-46.1c0-16.9-13.2-27.3-29.3-27.3c-14.5,0-24.9,7-35,27.6l-4.2,8.3
			c-8.8,17.2-22.6,39-48,39c-27.2,0-49.6-20.6-49.6-55.5c0-7,1-16.4,3.6-23.7c1.6-4.2,2.1-7.8,3.4-10.9c9.1-1,20.5-2.6,35-5.2
			L49.7,694L49.7,694z"/>
		<path class="st0" d="M160.7,593.2c2.8,4.5,4.3,9.7,4.5,15c0,4.9-3.5,14.1-24.2,14.1H75.3v-23.9c-2.1-3.5-9-4.4-12.3-1.5v25.3H29.1
			v4.6c4.7,2.5,14.5,8.9,18,20.7H63v16.8h12.3v-16.8h74.8c22.1,0,31.7-9.1,31.7-27.6c0-2-0.5-4.5-2.7-8.1l-11.7-21.7L160.7,593.2z"
			/>
		<path class="st0" d="M162.4,571.4c-10,0-17.4-6.9-17.4-15.7c0-9.2,7.5-16.1,17.4-16.1c11,0,17.9,6.9,17.9,16.1
			C180.4,564.4,173.4,571.4,162.4,571.4z"/>
		<path class="st0" d="M54.9,436.4c-30.8,0-33,2.1-34.8,24h-8v-74.4h8c1.7,18.7,4,20.8,34.8,20.8h74.5c31,0,55.8,2.4,74.3,25.6
			c7.6,9.3,13.1,20.1,16.2,31.6l-8,3.2c-8.8-17.7-21.6-24.5-36.7-27.7c-13.7-2.6-30.2-3.1-49.5-3.1L54.9,436.4L54.9,436.4z"/>
		<path class="st0" d="M137.9,329.2c18.8,0,24.4-9.5,24.4-18.8c0-7.3-3.3-15.4-10.4-23.1H89c-9.3,0-10.4,1.5-11.9,9.7l-1.3,6.8h-6.1
			c-0.5-11.5-3.3-31.2-4.6-41.7h86.2c10.7,0,12.4-1.5,12.4-8v-9.3h7.1c1.5,12.9,6.1,29,9.1,40.5l-2,2h-16.5
			c3.8,4.9,7.6,9.7,11.1,15.1c4.8,7.5,7.4,13.4,7.4,20.2c0,19.5-12.2,31.7-34.2,31.7H89c-9.3,0-10.6,2.4-11.7,7.8l-1.5,6.6h-6.1
			c-0.5-10-3.3-28.5-4.6-39.5L137.9,329.2L137.9,329.2z"/>
		<path class="st0" d="M161.4,115.3c0,7.4-1.4,9-14,9H0c3.4,13.7,7.4,32.5,9.7,45.9h7.4c1.2-18.2,1.7-18.7,18-18.7h16
			c-0.7,4.3-1.2,8.6-1.5,12.9c0,40.9,31.1,70.5,69,70.5c42,0,61.6-30.1,61.6-53.1c0-2.6-1.1-6.3-4.3-11.3l-11.7-19h16.5
			c-6.8-18.3-10.2-41.2-11.4-46h-8L161.4,115.3z M154.3,151.4c4.6,6.1,7.1,12.7,7.1,19.8c0,13.7-15.1,32.5-49.6,32.5
			c-44.8,0-50.2-22.2-50.2-29.6c0-9.5,3.7-17.9,12.8-22.7L154.3,151.4z"/>
		<path class="st0" d="M161.9,30.6c0,19-13.9,38.9-47.7,38.5c-1.1-27.6-3.8-60.2-4.3-63.7c-1-4.8-1.6-5.3-11.5-5.3
			C79.1,0,60.1,16.5,60.1,37.7c0,33.4,32.9,56.9,66.4,56.4c31.3-0.5,56.3-20,56.3-53.1c0-7.1-5.4-26.1-27.6-40.5l-4.6,3.5
			C158.7,14,161.9,22,161.9,30.6z M70.6,44.5c0-11.1,13.9-19,24.6-19c5.9,0,7.5,1,7.5,4.5l0.5,37.7C83.2,65.8,70.6,55.2,70.6,44.5z"
			/>
	</g>
</g>
</svg>
