<?xml version="1.0" encoding="utf-8"?>
<!-- Generator: Adobe Illustrator 23.0.1, SVG Export Plug-In . SVG Version: 6.00 Build 0)  -->
<svg version="1.1" id="Layer_1" xmlns="http://www.w3.org/2000/svg" xmlns:xlink="http://www.w3.org/1999/xlink" x="0px" y="0px"
	 viewBox="0 0 222 2127.7" style="enable-background:new 0 0 222 2127.7;" xml:space="preserve">
<style type="text/css">
	.st0{fill:#FFFFFF;}
</style>
<title>Adventure_White</title>
<g>
	<g id="Layer_1-2">
		<path class="st0" d="M216.1,1877.7v116.1h-11.7c-0.6-6.4-1.5-12.7-2.9-19c-1.6-7.3-3.5-11-5.8-11c-0.9,0-1.8,0.1-2.7,0.2
			c-1.4,0.3-2.8,0.7-4.1,1.3l-44.1,18.2v73.6c4.1,1.7,8.9,3.6,14.4,5.6c5.5,2,10.4,3.8,14.7,5.3c4,1.4,8,2.6,12.2,3.4
			c1.7,0.3,3.5,0.5,5.3,0.5c3.2,0,5.9-2.4,8.2-7.3c2.3-4.9,3.9-12.9,4.9-24.2h11.7v87.4h-11.7c-0.3-3.8-0.8-7.5-1.6-11.2
			c-0.6-3.5-1.8-6.8-3.5-9.8c-2.3-4-5.3-7.5-8.9-10.4c-3.8-3-7.9-5.4-12.4-7.2c-28.2-11.6-56.3-23.2-84.6-34.9S34,2029.7,0,2015.6
			l0-30c48.3-19.6,86.4-35,114.4-46.1c28-11.1,51.3-20.6,69.7-28.4c2.9-1.3,5.7-2.9,8.2-4.9c2.8-2.4,5.2-5.3,7-8.6
			c1.7-3.1,2.9-6.3,3.6-9.8c0.7-3.3,1.2-6.7,1.5-10.1L216.1,1877.7z M129.9,1989.7l-77,30.8l77,30.4V1989.7z"/>
		<path class="st0" d="M24.9,1683.8c8.6-13.1,20.3-23.9,34-31.5c14.2-8,31.5-12,52-12c18,0,33.7,3.6,47.1,10.7
			c13,6.8,24.2,16.6,32.8,28.5c8.7,12.4,15.1,26.3,19,40.9c4.2,15.7,6.3,31.8,6.2,48v107.3h-11.7c-0.1-3.2-0.4-7.2-0.9-12
			s-1.1-8-1.8-9.6c-1.5-3.6-3.5-6.1-6.1-7.5c-2.9-1.5-6-2.2-9.2-2.1H35.3c-3.2,0-6.3,0.7-9.2,2c-2.8,1.3-5,3.8-6.7,7.7
			c-1.7,3.8-2.9,7.9-3.4,12.1c-0.6,4.2-1,7.5-1.2,9.8H3v-113.4c0.1-13.1,1.7-26.2,4.7-38.9C10.9,1709.5,16.8,1696,24.9,1683.8z
			 M177.7,1714.5c-8-4.9-17.5-8.5-28.6-10.7c-12.6-2.4-25.4-3.5-38.2-3.4c-13-0.1-26,1.4-38.6,4.5c-11.6,3-21.5,7.4-29.7,13.2
			c-8,5.6-14.6,13-19.1,21.7c-4.5,8.7-6.8,18.5-6.8,29.5c0,3.5,0.1,7.5,0.2,11.9c0.2,4.5,0.3,7.8,0.4,10H179
			c3.2,0.1,6.5-0.4,9.5-1.4c2.8-1,5.3-2.7,7.3-4.9c2.2-2.5,3.9-5.4,4.9-8.5c1.3-4.3,1.9-8.7,1.7-13.1c0-11.3-2.1-21-6.3-29.1
			C191.9,1726,185.5,1719.2,177.7,1714.5z"/>
		<path class="st0" d="M15,1393.5c0.3,3.2,0.9,6.4,1.8,9.5c1,3.3,2.4,6.4,4.2,9.3c2.1,3.8,4.8,7.2,8,10c3.6,2.8,7.6,5.2,11.8,7
			c6.9,3.1,17,7.5,30.3,13.1c13.3,5.6,28.4,12,45.3,19.2c15.2,6.4,31.9,13.3,50,20.8c18.1,7.5,35.5,14.6,52.1,21.4v30.2
			c-34.3,14-69.2,28.3-104.7,42.8s-60,24.7-73.8,30.6c-4.1,1.7-7.9,4-11.3,6.7c-2.6,2.2-5.2,5.6-7.9,10.3c-1.7,2.8-3,5.9-4,9
			c-0.9,3.4-1.6,6.9-2,10.4H3v-115.5h11.4c1.3,10.8,2.7,18.1,4.1,22c1.5,3.9,3.3,5.8,5.5,5.8c1.2,0,2.4-0.2,3.5-0.5
			c1.3-0.3,2.9-0.9,5-1.6c8.8-3.2,23.2-9,43.1-17.4s50.4-20.9,91.3-37.4c-24.9-10.1-45.9-18.5-63.1-25.2s-32.4-12.6-45.6-17.7
			c-6.4-2.5-12.4-4.6-17.9-6.2s-9.7-2.5-12.5-2.5c-3.2,0-5.9,2.3-8,6.9c-2.1,4.6-3.7,13.1-4.8,25.5H3v-86.3H15z"/>
		<path class="st0" d="M57.4,1200.3v11.4c-8.1,2.9-16.3,7.9-24.5,15s-13.2,14.1-14.7,21.2c-0.8,4.1-1.2,8.3-1.3,12.5
			c-0.2,5.3-0.2,9.8-0.2,13.3v31h82.2v-22c0-5.1-0.6-10.1-2-15c-1.4-4.7-4-8.9-7.5-12.3c-2.3-2.3-6.4-4.6-12.2-7
			c-4.9-2.1-9.9-3.6-15.2-4.5v-11.4h88.9v11.4c-5.4,0.9-10.7,2.5-15.9,4.6c-6.4,2.4-10.7,4.8-13.1,7c-3.5,3.2-6.1,7.2-7.4,11.7
			c-1.4,5.1-2.1,10.3-2,15.6v22h61.4c5.1,0.1,10.2-0.3,15.2-1.4c3.4-0.7,6.5-2.6,8.6-5.3c1.9-2.5,3.2-5.9,3.8-10.3
			c0.7-5.9,1-11.9,0.9-17.8c0-3.5,0-7.7-0.1-12.6c-0.1-4.3-0.4-8.6-0.9-12.9c-0.5-4-1.2-7.9-2.3-11.8c-0.7-3.1-2.2-5.9-4.4-8.2
			c-4.9-4.8-12.4-10.2-22.4-16.2c-10.1-6-17.6-10-22.6-11.9v-11l66.4,4v199.9h-11.7c-0.2-2.8-0.6-6.6-1.2-11.4
			c-0.3-3.5-1-6.9-2.1-10.2c-1.6-3.8-3.6-6.4-6.1-7.7c-2.9-1.4-6.1-2.1-9.4-2H35.3c-3.1-0.1-6.1,0.5-8.9,1.7c-2.4,1.1-4.5,3.8-6.4,8
			c-1.5,3.5-2.6,7.2-3.3,11c-1,4.7-1.7,8.3-2,10.7H3v-189H57.4z"/>
		<path class="st0" d="M14.7,924.9c0.3,2.8,0.8,6.8,1.7,12c0.8,5.1,2.8,10,5.9,14.1c2.7,3.7,7.3,6.3,13.9,7.9
			c6.6,1.6,16.2,2.3,28.9,2.3h152.3V988L52.6,1120.8h100c12.4,0,21.9-0.8,28.3-2.5s11.2-4.3,14.2-8c2.2-2.7,4.2-7,5.9-12.9
			c1.4-4.6,2.5-9.3,3.4-14.1h11.7v91.5h-11.7c-0.4-4.5-1.1-9-2.2-13.4c-0.9-4.5-2.7-8.8-5.3-12.7c-2.9-3.9-7.3-6.6-13.1-8
			c-5.9-1.4-15.7-2.2-29.5-2.2H53.3c-4.8,0-9.6,0.7-14.2,2.3c-4.3,1.5-8.3,4-11.5,7.3c-3.4,3.5-6.1,7.6-8,12.1
			c-2.1,5-3.7,10.2-4.6,15.6H3v-80.2l144.1-116.5H66.5c-12.8,0-22.3,0.9-28.6,2.6S27,985.9,24,989.6c-2.3,2.9-4.3,7.2-5.9,12.9
			c-1.4,4.5-2.5,9.2-3.4,13.8H3v-91.5H14.7z"/>
		<path class="st0" d="M64,713.4v11.7c-9.1,3.1-18.9,8-29.3,14.9c-10.4,6.9-16,13.2-16.8,19c-0.4,3.2-0.8,7.1-1,11.8
			c-0.3,4.7-0.4,8.7-0.5,12.1v7h167.2c3.3,0.1,6.5-0.6,9.5-2c2.8-1.3,4.9-3.9,6.5-7.7c1.2-3.5,2.1-7.1,2.8-10.7c1-4.8,1.6-9,2-12.4
			h11.7v118.8h-11.7l-1.3-12.2c-0.6-5.3-1.2-8.8-2-10.7c-1.6-3.9-3.8-6.5-6.5-7.8c-3-1.4-6.3-2.1-9.6-2H16.4v7
			c0,3.4,0.2,7.4,0.5,12.1c0.3,4.7,0.6,8.6,1,11.8c0.8,5.8,6.4,12.1,16.8,19c10.4,6.9,20.2,11.9,29.3,15v11.7H3V713.4L64,713.4z"/>
		<path class="st0" d="M14.7,457.9c0.3,2.9,1,7.1,2,12.5c0.8,4.9,2.7,9.6,5.5,13.7c2.5,3.8,7,6.5,13.5,8c6.5,1.5,16.3,2.3,29.3,2.4
			h79.3c23.3,0,42.1,7.9,56.3,23.7c14.2,15.8,21.3,36.7,21.4,62.8c0,30.3-6.9,53.8-20.6,70.4s-32.9,24.9-57.4,24.9H35
			c-3.1-0.1-6.2,0.6-9,2c-2.5,1.3-4.8,3.9-6.8,7.7c-1.4,3.1-2.5,6.3-3.1,9.6c-0.8,3.8-1.4,6.9-1.6,9.3H3V593.4h11.4
			c0.2,3.3,0.6,6.5,1.1,9.8c0.6,3.4,1.4,6.8,2.5,10.1c1.2,3.8,3.2,6.4,6,7.7c3,1.3,6.2,2,9.5,1.9H141c21.1,0,36.5-4.7,46.1-13.9
			c9.6-9.3,14.4-22.8,14.4-40.5c0-17.4-5.3-31-15.9-40.9s-26.2-14.8-46.9-14.8H66.5c-12.8,0-22.4,0.9-28.8,2.6
			c-6.4,1.8-10.9,4.4-13.7,8c-2.2,2.6-4.2,7.1-6,13.6c-1.3,4.5-2.4,9-3.3,13.6H3v-92.5L14.7,457.9z"/>
		<path class="st0" d="M216.1,202.3v81.8c-21.6,14.1-38.9,25.8-51.7,35.2c-12.8,9.3-27.6,21-44.4,34.9v8.2h64.7
			c3.2,0.1,6.3-0.6,9.2-2c2.5-1.3,4.6-3.9,6.3-7.7c1.1-2.9,1.9-5.9,2.5-8.9c0.8-3.4,1.3-6.9,1.7-10.4h11.7V447h-11.7
			c-0.3-2.9-0.7-6.7-1.3-11.5c-0.3-3.4-0.9-6.8-2-10.1c-1.6-3.8-3.6-6.4-6.1-7.7c-2.9-1.4-6.1-2.1-9.4-2H35.3
			c-3.1-0.1-6.2,0.5-9,1.7c-2.4,1.1-4.5,3.8-6.3,8c-1.4,3.7-2.5,7.5-3.3,11.3c-0.9,4.4-1.6,7.8-2,10.3H3V327.4
			c0-26.7,4.2-47,12.5-60.9s21-20.8,37.9-20.8c14.9,0,26.9,4.3,36,12.8c9.1,8.6,16.2,21.6,21.3,39.1c8.8-6.8,19-14.7,30.6-23.8
			c11.6-9.1,23.5-18.5,35.6-28.3c3.9-3.1,8.7-7.3,14.3-12.7c5.7-5.4,9.1-10.1,10.4-14.2c0.8-2.9,1.4-5.8,1.8-8.8
			c0.5-3.6,0.8-6.1,0.9-7.6L216.1,202.3z M57.7,304.6c-14.2,0-24.6,4-31.2,11.9s-9.8,19.3-9.8,34v11.9h89.2V351
			c0-14.7-3.9-26.1-11.6-34.2S74.4,304.6,57.7,304.6z"/>
		<path class="st0" d="M57.4,15.1v11.4c-8.1,2.9-16.3,7.9-24.5,15c-8.3,7.1-13.2,14.2-14.7,21.2c-0.8,4.1-1.2,8.3-1.3,12.5
			c-0.2,5.3-0.2,9.8-0.2,13.3v30.9h82.2V97.5c0-5.1-0.6-10.1-2-15c-1.4-4.7-4-8.9-7.5-12.3c-2.3-2.3-6.4-4.6-12.2-7
			c-4.9-2.1-9.9-3.6-15.2-4.5V47.2h88.9v11.4c-5.4,0.9-10.7,2.5-15.9,4.6c-6.4,2.4-10.7,4.8-13.1,7c-3.5,3.2-6.1,7.2-7.4,11.7
			c-1.4,5.1-2.1,10.3-2,15.6v21.9h61.4c5.1,0.1,10.2-0.3,15.2-1.4c3.4-0.7,6.5-2.6,8.6-5.3c1.9-2.5,3.2-5.9,3.8-10.3
			c0.7-5.9,1-11.8,0.9-17.8c0-3.5,0-7.7-0.1-12.6c-0.1-4.3-0.4-8.6-0.9-12.9c-0.5-4-1.2-7.9-2.3-11.8c-0.7-3.1-2.2-5.9-4.4-8.2
			c-4.9-4.8-12.4-10.2-22.4-16.2c-10.1-6-17.6-10-22.6-11.9V0l66.4,4.1V204h-11.7c-0.2-2.8-0.6-6.6-1.2-11.4
			c-0.3-3.5-1-6.9-2.1-10.2c-1.6-3.8-3.6-6.3-6.1-7.7c-2.9-1.4-6.1-2.1-9.4-2l-150.3,0c-3.1-0.1-6.1,0.5-8.9,1.7
			c-2.4,1.1-4.5,3.8-6.4,8c-1.5,3.5-2.6,7.2-3.3,11c-1,4.7-1.7,8.2-2,10.7H3V15.1L57.4,15.1z"/>
	</g>
</g>
</svg>
