<?xml version="1.0" encoding="utf-8"?>
<!-- Generator: Adobe Illustrator 23.0.1, SVG Export Plug-In . SVG Version: 6.00 Build 0)  -->
<svg version="1.1" id="Layer_1" xmlns="http://www.w3.org/2000/svg" xmlns:xlink="http://www.w3.org/1999/xlink" x="0px" y="0px"
	 viewBox="0 0 222 701.2" style="enable-background:new 0 0 222 701.2;" xml:space="preserve">
<style type="text/css">
	.st0{fill:#FFFFFF;}
</style>
<title>Relief_White</title>
<g>
	<g id="Layer_1-2">
		<path class="st0" d="M125.7,622.7v24.4h54.9c4.3,0.1,8.5-0.2,12.7-0.8c2.8-0.3,5.3-1.5,7.4-3.3c1.8-1.7,3-4.2,3.6-7.6
			c0.7-4.6,1-9.2,0.9-13.8h13c-0.2,4.2-0.4,10-0.5,17.2s-0.3,14.8-0.3,22.7c0,7.9,0,15.4,0.1,22.7c0.1,7.3,0.3,12.9,0.7,17h-12.7
			c0.1-4.5-0.2-8.9-0.7-13.4c-0.2-2.8-1.3-5.5-3.2-7.6c-1.7-1.8-4.2-2.9-7.6-3.3c-4.7-0.5-9.4-0.7-14.1-0.7H53.3
			c-4.2-0.1-8.3,0.2-12.5,0.8c-2.6,0.3-5,1.5-6.9,3.3c-1.6,1.7-2.7,4.2-3.2,7.6c-0.6,4.4-0.8,8.9-0.8,13.3H17.5c0-5,0-11,0.1-18.2
			c0.1-7.2,0.1-14.6,0.1-22.3v-22.1c0-7.1-0.1-12.9-0.3-17.5c0-13.1,1.8-23.8,5.3-32.2c3.5-8.4,7.9-15,13.1-19.8
			c4.8-4.6,10.7-7.9,17-9.9c5.4-1.7,10.9-2.7,16.6-2.8c6.1-0.1,12.1,1.1,17.8,3.3c5.3,2.1,10.3,5,14.7,8.6c4.3,3.4,8,7.5,11,12.1
			c2.9,4.2,5,8.8,6.4,13.7c5.3-3.2,11.2-6.8,17.5-11s12.7-8.4,19-12.9c6.3-4.4,12.2-8.8,17.9-13c5.7-4.2,10.4-8,14.2-11.1
			c4.6-3.8,8.6-8.3,12.1-13.1c3.4-4.9,5.2-11.2,5.2-19h13c-0.5,7.6-0.8,15.6-0.8,23.9c0,8.3,0.3,15.8,0.8,22.5
			c-6.7,5.1-14.1,10.5-22.3,16c-8.1,5.5-16.4,11.1-24.6,16.7c-8.3,5.5-16.4,10.8-24.3,15.9C139.1,614.1,132,618.7,125.7,622.7z
			 M110.8,647.1l0.5-13.8c0-8.5-1.2-15.6-3.6-21.5c-2.1-5.3-5.2-10.2-9.3-14.2c-3.7-3.5-8-6.2-12.9-7.8c-4.6-1.6-9.4-2.4-14.3-2.4
			c-5.4-0.1-10.8,0.7-15.9,2.3c-4.7,1.5-8.9,4-12.4,7.4c-3.8,3.8-6.6,8.5-8.2,13.7c-1.9,5.7-2.9,12.7-2.9,21v9.4c0,2,0.1,4,0.5,6
			L110.8,647.1z"/>
		<path class="st0" d="M140.8,410.4v74h10.4c1.9,0,4.1-0.1,6.6-0.3c6-0.3,11.9-1.4,17.5-3.3c5-1.7,9.6-4.1,13.8-7.3
			c3.8-2.9,6.9-6.5,9.1-10.7c2.2-4.3,3.4-9.1,3.3-13.9c0.1-6.8-1.8-13.5-5.4-19.2c-4.3-6.5-9.5-12.2-15.5-17.1l7.4-12
			c9.7,5.4,18,13,24.4,22c6.4,9,9.6,19.5,9.6,31.3c0.1,8-1.6,15.9-5,23.1c-3.3,7-8,13.2-13.9,18.3c-6,5.2-12.9,9.3-20.4,12
			c-8,3-16.4,4.4-24.9,4.4c-10.3,0.1-20.6-1.3-30.5-4.4c-8.4-2.6-16.2-6.8-22.9-12.3c-12.5-10.4-19.7-25.9-19.5-42.2
			c0-6,1-12,2.9-17.6c1.9-5.8,4.8-11.1,8.6-15.8c4-4.7,8.9-8.6,14.4-11.4c6.3-3.1,13.4-4.7,20.4-4.5c2.5-0.1,5,0.1,7.4,0.7
			C140.1,404.6,140.8,406.6,140.8,410.4z M126.5,482.2v-46.1c0-2.1-0.2-3.3-0.5-3.6s-1.5-0.4-3.4-0.4c-5.7,0.1-11.3,2.1-15.7,5.8
			c-2.3,1.9-4.2,4.3-5.6,7c-1.4,2.8-2.2,6-2.1,9.1c0,8,2.6,14.3,7.7,19S118.5,480.9,126.5,482.2z"/>
		<path class="st0" d="M187.7,367.6H43.5c-4.4,0-7.8,0.1-10.2,0.3c-1.9,0-3.8,0.7-5.3,1.9c-1.1,1.1-1.8,2.8-1.9,5.2
			s-0.1,5.8-0.1,10.2H15.3c-1.8-13.4-6.4-24.3-14-32.6v-14.6c5.5,0.5,11.2,1,17.1,1.3s10.9,0.5,15,0.5h154.3
			c2.9,0.1,5.9-0.2,8.8-0.7c2-0.3,3.9-1.2,5.4-2.6c1.4-1.5,2.4-3.5,2.6-5.6c0.5-3.2,0.7-6.4,0.7-9.7H218c-0.2,4.4-0.3,9.5-0.4,15.3
			s-0.1,11.6-0.1,17.5s0.1,11.7,0.3,17.4s0.4,10.6,0.5,14.9h-13c0.1-3.5-0.1-6.9-0.5-10.4c-0.2-2.1-1-4-2.4-5.6
			c-1.5-1.3-3.3-2.1-5.3-2.3C193.9,367.7,190.8,367.6,187.7,367.6z"/>
		<path class="st0" d="M117.2,259.9h73.5c2.7,0,5.5-0.1,8.2-0.4c1.7-0.1,3.2-0.9,4.2-2.3c1-1.7,1.6-3.6,1.7-5.6
			c0.3-2.5,0.4-5.9,0.4-10.4h12.5c0,6.2-0.1,11.9-0.3,17c-0.2,5.1-0.3,10.1-0.3,14.9c0,5.1,0,10.4,0.1,15.8s0.2,11.2,0.4,17.4h-12.5
			c0-4.4-0.1-7.9-0.3-10.4c0-2-0.6-3.9-1.7-5.6c-1.1-1.3-2.7-2.1-4.4-2.3c-2.7-0.3-5.5-0.4-8.2-0.4H127c-4.3,0-7.6,0.1-10.1,0.3
			c-2,0-4,0.7-5.7,1.9c-1.4,1.2-2.2,2.8-2.4,4.6c-0.3,2.9-0.4,5.7-0.4,8.6H97.8c-0.7-5.7-2.1-11.3-4.1-16.7c-2-5-4.9-9.6-8.6-13.5
			v-14.6c5.6,0.7,11.2,1.2,16.9,1.3C107.9,259.9,112.9,259.9,117.2,259.9z M14.8,274.8c-0.1-5,1.9-9.9,5.4-13.4
			c3.2-3.4,7.6-5.4,12.3-5.4c4.4,0,8.4,1.8,11.9,5.4c3.5,3.6,5.4,8.4,5.3,13.4c0,2.5-0.5,5-1.5,7.3c-1,2.2-2.3,4.2-3.8,6
			c-1.5,1.7-3.4,3.1-5.6,4.1c-2,0.9-4.2,1.4-6.4,1.5c-4.6,0-8.7-1.9-12.3-5.6C16.7,284.6,14.8,279.8,14.8,274.8z"/>
		<path class="st0" d="M140.8,123.3v74h10.4c1.9,0,4.1-0.1,6.6-0.3c6-0.3,11.9-1.4,17.5-3.3c5-1.7,9.6-4.1,13.8-7.3
			c3.8-2.9,6.9-6.5,9.1-10.7c2.2-4.3,3.4-9.1,3.3-13.9c0.1-6.8-1.8-13.5-5.4-19.2c-4.3-6.5-9.5-12.2-15.5-17.1l7.4-12
			c9.7,5.4,18,13,24.4,22c6.4,9,9.6,19.5,9.6,31.3c0.1,8-1.6,15.9-5,23.1c-3.3,7-8,13.3-13.9,18.3c-6,5.2-12.9,9.3-20.4,12
			c-8,3-16.4,4.4-24.9,4.4c-10.3,0.1-20.6-1.3-30.5-4.4c-8.4-2.6-16.2-6.8-22.9-12.3c-12.5-10.4-19.7-25.9-19.5-42.2
			c0-6,1-12,2.9-17.6c1.9-5.8,4.8-11.1,8.6-15.8c4-4.7,8.9-8.6,14.4-11.4c6.3-3.1,13.3-4.7,20.4-4.5c2.5-0.1,5,0.1,7.4,0.7
			C140.1,117.6,140.8,119.6,140.8,123.3z M126.5,195.2v-46.1c0-2.1-0.2-3.3-0.5-3.6s-1.5-0.4-3.4-0.4c-5.7,0.1-11.3,2.1-15.7,5.8
			c-2.3,1.9-4.2,4.3-5.6,7c-1.4,2.8-2.2,6-2.1,9.2c0,8,2.6,14.3,7.7,19S118.5,193.9,126.5,195.2z"/>
		<path class="st0" d="M92.3,49.1V13.8h17v35.3h81.1c2.7,0.1,5.4-0.2,8-0.9c1.9-0.6,3.5-1.9,4.5-3.7c1.2-2.4,1.9-5.1,2-7.8
			c0.3-3.3,0.4-7.7,0.4-13H218c-0.2,5.1-0.3,11-0.4,17.6c-0.1,6.6-0.1,13.4-0.1,20.4c0,7,0.1,13.8,0.3,20.4
			c0.2,6.6,0.4,12.3,0.5,17.1h-13c0.1-3.8-0.2-7.5-0.7-11.3c-0.3-2.4-1.1-4.7-2.4-6.8c-1.2-1.6-2.9-2.8-4.8-3.3
			c-2.5-0.7-5-1-7.6-0.9h-80.6v19.4h-9.8c-0.7-4.8-2.2-9.4-4.5-13.7c-2.1-3.8-5.8-5.7-11.1-5.7C72.3,76.8,60.9,75,50,71.5
			c-5.7-1.8-11.2-4.2-16.4-7c-5-2.7-9.6-6.1-13.7-10.1C12.3,47,7,40,4.2,33.4C1.4,26.8,0,22,0,18.8C0,13.2,1.1,8.6,3.4,5.2
			S9.2,0,13.8,0c1.9,0,3.7,0.5,5.2,1.6c1.5,1.1,2.8,2.4,3.9,4c1.1,1.6,1.9,3.4,2.4,5.3c0.5,1.8,0.8,3.7,0.8,5.6c0,2-0.1,4-0.4,6
			c-0.2,1.4-0.6,2.7-1.1,4c-0.4,1.1-0.8,2.3-1.1,3.5c-0.3,1.4-0.4,2.9-0.4,4.4c0,2.3,0.9,4.5,2.5,6.1c1.9,1.9,4.2,3.5,6.6,4.6
			c2.9,1.4,6,2.4,9.2,3c3.3,0.7,6.7,1.1,10.1,1.1L92.3,49.1z"/>
	</g>
</g>
</svg>
