<?xml version="1.0" encoding="utf-8"?>
<!-- Generator: Adobe Illustrator 23.0.1, SVG Export Plug-In . SVG Version: 6.00 Build 0)  -->
<svg version="1.1" id="Layer_1" xmlns="http://www.w3.org/2000/svg" xmlns:xlink="http://www.w3.org/1999/xlink" x="0px" y="0px"
	 viewBox="0 0 222 1135.5" style="enable-background:new 0 0 222 1135.5;" xml:space="preserve">
<style type="text/css">
	.st0{fill:#FFFFFF;}
</style>
<title>Deluxe_White</title>
<g>
	<g id="Layer_1-2">
		<path class="st0" d="M2.4,952.8c-4.8,32.5-0.7,65.4-2,98.3c72.5,28.2,144.7,56.2,217.4,84.4v-87.8c0-77.9-46.4-135.9-122.4-153.2
			C44.3,882.9,9.6,904,2.4,952.8z M100.2,947.1c50.5,12.4,78.4,47.9,78.3,99.8v24.4c-46.4-18-92.2-35.9-138.3-53.8
			c0.6-14.7-1.3-29.4,2.2-43.8C48.6,948.1,68.1,939.2,100.2,947.1L100.2,947.1z"/>
		<path class="st0" d="M0.7,360.1c17.9,7.1,35.8,13.8,53.5,21.2c37.6,15.6,76.9,27,112.6,47c52.4,29.3,62,84.4,51.2,127.7
			c-8.4,33.8-38.5,47.8-78.1,36.3c-47.7-13.8-92.6-35.5-139.3-52v-49.6c21,8.3,41.8,16.7,62.7,24.8c23.7,9.2,47.3,18.6,71.3,27.1
			c13.3,4.7,27.7,6.7,38-6c10.6-13,8.7-28.2,2-42.2c-8.8-18.6-26.4-27.1-44.3-34.2c-43.1-17.2-86.4-34-129.7-51L0.7,360.1z"/>
		<path class="st0" d="M107.7,253.7c38.4-8.6,74.1-16.6,110.1-24.7v55.6c-28.4,2.2-56.4,10.2-84.3,9.3
			c30.3,21.5,55.4,50.3,84.3,74.5v58.9L104.2,316.7l-103.4,23v-57c28-1.2,55.3-8.3,84.7-6.5c-16.5-8.3-27.6-21.7-40.2-33.3
			c-14.4-13.2-28.5-26.7-42.8-40c-0.7-0.7-1.7-1.7-1.7-2.6c-0.1-18.3-0.1-36.5-0.1-57.5C37.6,181,73.1,217.8,107.7,253.7z"/>
		<path class="st0" d="M40.2,91.2c16.4,6.3,32.6,12.6,49.2,18.9V39.3c13.5,5.3,26.7,10.5,39.9,15.7v70.5l49,19.3V63.7L217.8,79
			v130.3C145.3,181.1,73,152.9,0.8,124.8V0l39.3,15.2V91.2z"/>
		<path class="st0" d="M40.3,791.5c16.4,6.4,32.6,12.6,49.2,19.1v-70.8l39.6,15.7v70.5c16.5,6.5,32.8,13,49.5,19.5v-81.2l39.2,15.2
			v130.1l-217-84.2V700.1l39.5,15.4V791.5z"/>
		<path class="st0" d="M177.6,607.8c13.7,5.3,26.9,10.4,40.2,15.5v129.5L0.7,668.5v-49.3l177,69L177.6,607.8z"/>
	</g>
</g>
</svg>
