<?xml version="1.0" encoding="utf-8"?>
<!-- Generator: Adobe Illustrator 23.0.1, SVG Export Plug-In . SVG Version: 6.00 Build 0)  -->
<svg version="1.1" id="Layer_1" xmlns="http://www.w3.org/2000/svg" xmlns:xlink="http://www.w3.org/1999/xlink" x="0px" y="0px"
	 viewBox="0 0 222 701.8" style="enable-background:new 0 0 222 701.8;" xml:space="preserve">
<style type="text/css">
	.st0{fill:#FFFFFF;}
</style>
<title>Hope_White</title>
<g>
	<g id="Layer_1-2">
		<path class="st0" d="M214.8,521.7c4.5,4.5,7,10.6,6.9,17c0,3.2-0.7,6.3-1.9,9.1c-1.2,2.8-3,5.3-5.1,7.5c-2.1,2.1-4.6,3.9-7.3,5.1
			c-2.8,1.3-5.9,2-9,2h-69v91.7H219v47.7H24.6c-6.4,0.1-12.6-2.4-17-7c-4.6-4.5-7.1-10.6-7-17c0-7,2.4-12.6,7.2-17
			c4.4-4.4,10-6.6,16.8-6.6h63.6v-91.5H3.3l-0.6-48H198C204.3,514.5,210.4,517.1,214.8,521.7z"/>
		<path class="st0" d="M9,361.2c5.8-12.5,14.1-23.7,24.3-33c10.4-9.3,22.4-16.6,35.4-21.4c27.3-10.2,57.3-10.2,84.6,0
			c13.1,4.9,25.1,12.2,35.4,21.6c10.2,9.3,18.5,20.6,24.3,33.1c12,26.8,12,57.5,0,84.3c-5.8,12.5-14.1,23.7-24.3,33
			c-10.4,9.3-22.4,16.6-35.4,21.6c-13.5,5.2-27.8,7.9-42.3,7.8c-14.6,0.1-29-2.6-42.6-7.8c-13-5-25-12.3-35.3-21.7
			C23,469.3,14.8,458,9,445.5C-3,418.7-3,388,9,361.2z M86.8,350.7c-8.2,2-15.9,5.5-22.8,10.2c-6.7,4.6-12.2,10.6-16.2,17.7
			c-4.1,7.2-6.1,15.7-6.2,25.5c0,9.4,2,17.6,6.2,24.6c4,6.9,9.5,12.8,16,17.4c6.7,4.7,14.3,8.1,22.2,10.2c16.3,4.4,33.5,4.4,49.8,0
			c7.9-2.1,15.4-5.5,22.2-10.2c6.6-4.5,12-10.5,16.1-17.4c4.1-7,6.1-15.2,6.1-24.6s-2-17.6-5.9-24.8c-3.8-6.9-9-13-15.3-17.7
			c-6.5-4.8-13.8-8.4-21.6-10.6c-8.1-2.4-16.5-3.6-25-3.6C103.8,347.4,95.2,348.6,86.8,350.7z"/>
		<path class="st0" d="M103.3,137.2c8.2,3.4,15.7,8.5,22,14.8c6.3,6.5,11.4,14.1,14.9,22.5c3.7,8.9,5.9,18.4,6.4,28
			c0.2,1.8,0.3,4.6,0.4,8.4c0.1,3.8,0.1,7.9,0.1,12.3v20.1h12.6c6,0,12.4,0.1,19.2,0.3c6.4,0.2,12.7,0.7,19.1,1.5
			c5.9,0.8,9.8,1.9,11.8,3.3c3,2.2,5.7,4.8,7.9,7.8c2.3,3,3.5,6.7,3.4,10.5c0.1,6.5-2.5,12.8-7.2,17.2c-4.5,4.6-10.7,7.1-17.1,7H3
			l-0.3-49.5c0-19,2-37.9,6-56.4c2.6-13.1,9-25.1,18.5-34.5c9.5-9.6,21.5-15.6,36.1-18c3.9-0.6,7.8-0.9,11.7-0.9
			C84.7,131.7,94.3,133.5,103.3,137.2z M105.6,243.1v-33.6c0-4.1-0.8-8.1-2.4-11.9c-1.6-3.6-3.8-7-6.6-9.8c-2.8-2.8-6-5-9.6-6.6
			c-3.7-1.6-7.7-2.4-11.7-2.4c-8.1,0-15.8,3.2-21.5,9c-2.7,2.8-4.9,6.1-6.5,9.8c-1.6,3.7-2.4,7.8-2.4,11.9v33.6H105.6z"/>
		<path class="st0" d="M216.9,113.3c-1.3,2.8-3.2,5.4-5.4,7.5c-2.3,2.1-4.9,3.8-7.8,5c-3,1.2-6.1,1.8-9.3,1.8H2.7l0.2-9.5
			C2.9,112.4,3,106.1,3,99.3V24.6C2.9,19.1,5.1,13.7,9.1,9.9c3.9-3.9,9.3-6.1,14.9-6c5.6-0.1,11,2.1,14.8,6.2
			c4,3.9,6.2,9.3,6.2,14.9v54.9h45.3V30.9c0-3,0.6-6.1,1.8-8.8c1.2-2.7,2.8-5.2,4.8-7.3c3.6-4,8.7-6.2,14.1-6
			c5.7-0.1,11.1,2.2,14.8,6.5c3.8,4.1,5.9,9.5,5.9,15.2v49.5H177V0l42,0v103.8C219,107.1,218.3,110.3,216.9,113.3z"/>
	</g>
</g>
</svg>
