<?xml version="1.0" encoding="utf-8"?>
<!-- Generator: Adobe Illustrator 23.0.1, SVG Export Plug-In . SVG Version: 6.00 Build 0)  -->
<svg version="1.1" id="Layer_1" xmlns="http://www.w3.org/2000/svg" xmlns:xlink="http://www.w3.org/1999/xlink" x="0px" y="0px"
	 viewBox="0 0 216.7 1669.9" style="enable-background:new 0 0 216.7 1669.9;" xml:space="preserve">
<style type="text/css">
	.st0{fill:#FFFFFF;}
</style>
<title>Recovery_White</title>
<g>
	<g id="Layer_1-2">
		<path class="st0" d="M84,1620.9c-42.8-8.2-48.4-8.7-57.2-10.1c-11.3-1.6-14.9,1.1-16.3,7.6c-0.8,4.1-0.8,8.6-1.1,11.1
			c-0.3,3.3-1.4,4.8-3,4.5c-1.6-0.3-2.5-2.4-2.5-6.7c0-12.1,0.8-39,0.8-43c0-5.4-0.8-32.6-0.8-45.6c0-26.5,2.5-44.6,9.4-55.7
			c7.2-12.1,21.3-21.5,42.3-17.5c23.2,4.4,40.9,21.4,55.5,48.4c24.3-12.5,53.9-27.5,73.2-41c16.3-11.8,21-17.7,22.1-25.4
			c0.6-3,0.6-4.7,0.8-6.9c0-3.1,1.1-4.6,2.8-4.3c2.5,0.5,2.8,3.3,2.8,6.2v25.4c0,29-2.8,40.9-9.1,49.6c-5.3,8-17.1,14.8-34.5,22.4
			c-21,9-32.3,13.3-39.8,16.9c-1.1,0.7-1.7,1.8-1.7,3.1v18.6c-0.2,1.3,0.8,2.5,2.1,2.7c0,0,0.1,0,0.1,0l14.1,2.7
			c21.8,4.2,34.8,6.7,46.4,7.5c7.2,0.8,13.3,0,15.2-8.1c1.1-3.7,1.1-6.8,1.6-12.4c0.3-4.5,1.4-4.8,3-4.5c1.6,0.3,2.5,2.5,2.5,6.4
			c0,18.9-0.8,49.5-0.8,51.4c0,3.4,0.8,30.9,0.8,40.5c0,4.2-0.8,5.5-2.8,5.1s-2.8-2.5-2.8-5.6c-0.3-2.9-0.6-6.6-1.1-9.8
			c-1.4-5.9-6.4-9.1-15.8-11.8c-11.6-3.3-30.9-7.3-57.8-12.5L84,1620.9z M102.5,1575.9c2.2,0.4,3.3-0.2,4.1-1.7
			c2.8-4.8,3.6-13.1,3.6-21c0-7.6-1.1-13.5-4.4-18.6c-4.4-6.8-16.3-14.1-34.8-17.7c-39.2-7.5-49.5,15.9-49.5,30.6
			c0,4.5,0.3,9.4,1.1,11.5c0.5,1.2,0.8,1.8,3,2.3L102.5,1575.9z"/>
		<path class="st0" d="M83.7,1393.4c-45-8.8-50.6-9.6-59.4-10.7c-8-1-12.7,0.7-14.4,7.5c-0.6,2.5-0.6,6.5-0.8,9.3
			c-0.3,3.7-1.4,4.9-3,4.6c-1.6-0.3-2.5-2.2-2.5-6.8c0-16.4,0.8-30,0.8-42.6c0-6-0.3-76.5-0.3-81.1c0-5.3-0.4-10.5-1.1-15.7
			c-0.5-1.6-0.9-3.2-1.1-4.8c0-1.4,1.1-1.5,2.5-1.2s4.1,1.4,12.2,3.8c5.5,1.9,15.2,4.4,29.6,8.1c2.2,0.4,3.9,1.9,3.9,3.6
			c0,1.4-1.4,2.3-3.9,2.1c-3.2-0.7-6.4-0.8-9.7-0.4c-6.4,0.2-9.9,3.2-11.1,16.8c-0.8,9.3-1.4,34.2-1.4,42.8c0,1.7,0.8,2.5,2.8,2.8
			l60.8,11.8c1.9,0.4,3.3,0.4,3.3-1.7c0.3-8,0-31.3-0.3-41.7c-0.6-14.2-1.4-18.1-6.3-22.2c-2.5-2.2-3.6-3.3-3.6-4.7
			c0-1.7,1.7-1.4,3.3-1.1c2.8,0.5,12.7,3.9,23.5,6.9c6.4,1.5,19.9,4.2,22.9,4.8c3.6,0.7,5.3,1.9,5.3,3.6c0,2-1.9,2.2-4.4,2.3
			c-2.2-0.1-4.2-0.2-6.4-0.4c-8-0.4-12.7,2.7-13.5,16.6c-0.6,7.9-1.1,31.4-1.1,40.3c0,1.4,1.4,2,3.6,2.4l19.1,3.7
			c9.4,1.8,25.7,5.3,36.2,7.1c19.3,3.5,23.8,0.3,23.8-31.6c0-7.5-0.3-18.7-3.3-27.4s-9.1-13.3-21.8-18.3c-3.3-1.2-5-2.7-5-4.4
			c0-2.3,2.8-2.1,6.1-1.4c10.8,2.1,31.8,9.4,37,11.8c7.2,3.4,7.5,5.5,7.5,16.1c0,39.6-1.7,60.9-1.7,91c0,13.5,0.8,25.7,0.8,41.5
			c0,5.2-0.8,6.7-2.8,6.4c-1.4-0.3-2.8-2-2.8-6.3c-0.2-3-0.5-5.9-1.1-8.8c-1.1-8.3-11.6-11.5-29-15.4c-11-2.7-27.4-6.2-44.5-9.5
			L83.7,1393.4z"/>
		<path class="st0" d="M186.2,1240.9c-23.2,22.7-51.7,25.1-81.3,19.6c-18.8-3.5-53-16.3-76.5-48.6C8.2,1184.3,0,1155.2,0,1115.1
			c0-12.9,1.2-25.9,3.3-38.6c1.9-12.1,3.3-18.5,3.6-26.7c0.3-3,1.9-2.7,3.6-2.4c2.2,0.4,8.8,2.5,18.2,4.8c9.1,2.3,25.4,5,32.3,6.9
			c4.2,1.1,6.6,2.1,6.6,4.6c0,2.2-1.9,2.7-5.8,2.2c-6.1-0.9-17.1-1.8-27.1,5.4c-10.2,7.8-17.4,25.8-17.4,52.6
			c0,16.3,3.9,30.6,13.3,43.1c14.6,19.6,40.3,31.9,69.9,37.4c56.9,10.7,95.1-13.1,95.1-59.5c0-22.7-1.9-37.1-14.1-50.2
			c-4.1-4.7-10.2-8.8-18.5-12.6c-5.8-2.5-7.7-3.7-7.7-5.9c0-1.9,2.8-1.7,5-1.3c4.7,0.9,28.8,8.7,42,14c4.1,1.3,6.4,3.7,8,8.7
			c4.4,11.9,6.4,31,6.4,48.7C216.6,1182.2,210.5,1216.5,186.2,1240.9z"/>
		<path class="st0" d="M109.1,1045.8C53.8,1035.4,0,988.3,0,907c0-70.2,47-105.3,103.1-94.8c64.4,12.1,113.6,65,113.6,137.4
			C216.6,1031.1,158,1055,109.1,1045.8z M115.2,869.8c-45.9-8.6-98.1,0.7-98.1,49.6c0,25.4,14.1,56.5,79.6,68.8
			C149,998,199,985.5,199,938C199,920.9,191.5,884.1,115.2,869.8z"/>
		<path class="st0" d="M31.7,792.1c-17.1,4.5-19.6,7.1-21.5,16.1c-0.5,2-0.8,4.1-0.8,6.2c-0.6,2.9-1.7,4.1-3,3.8
			c-1.9-0.4-2.5-2.7-2.5-6.3c0-14.9,0.8-30.8,0.8-41.8c0-9.7-0.8-24.8-0.8-46.3c0-4.2,1.1-6.2,2.8-5.8s2.8,2.2,2.8,4.7
			c0.1,2.6,0.4,5.1,0.8,7.6c1.1,7.4,4.1,9.1,6.9,9.6c3.6,0.7,9.1,0,21-2.4c33.7-6.7,74.9-16.3,107.2-22.7
			c-25.4-16.1-93.1-57.5-119.1-71.5c-2.8-1.8-5.9-3.2-9.1-3.9c-3.6-0.7-5.5,0.6-6.4,5.4c-0.7,3.6-1.2,7.2-1.4,10.8
			c-0.3,3.5-1.1,4.8-2.8,4.5s-2.8-1.9-2.8-6.6c0-18.2,0.8-31.6,0.8-35.8s-0.8-22.3-0.8-30.8c0-4.1,0.8-5.9,2.8-5.6s2.8,1.9,2.8,5.5
			c0.3,3.4,0.3,7.8,2.5,12.6c2.8,6.3,8.6,11.3,24.9,22.1c23.8,15.5,46.2,29.7,81.2,52c39.2,25,64.4,41.7,78.8,51.5
			c16.3,11.1,19.9,14.5,19.9,18.1c0,3.9-3.9,5.4-16.6,8.2L31.7,792.1z"/>
		<path class="st0" d="M83.7,567.5c-45-8.7-50.5-9.5-59.3-10.7c-8-1-12.7,0.7-14.4,7.5c-0.6,2.5-0.6,6.5-0.8,9.3
			c-0.3,3.7-1.4,4.9-3,4.6s-2.5-2.2-2.5-6.8c0-16.3,0.8-29.9,0.8-42.4c0-6-0.3-76.1-0.3-80.7c0-5.2-0.4-10.5-1.1-15.7
			c-0.5-1.6-0.9-3.2-1.1-4.8c0-1.4,1.1-1.5,2.5-1.2s4.1,1.4,12.1,3.8c5.5,1.9,15.2,4.4,29.5,8c2.2,0.4,3.9,1.9,3.9,3.6
			c0,1.4-1.4,2.3-3.9,2.1c-3.2-0.7-6.4-0.8-9.7-0.4c-6.3,0.2-9.9,3.2-11,16.7c-0.8,9.3-1.4,34-1.4,42.6c0,1.7,0.8,2.4,2.8,2.8
			l60.7,11.8C89.6,518,91,518,91,516c0.3-7.9,0-31.2-0.3-41.5c-0.6-14.1-1.4-18-6.3-22.1c-2.5-2.2-3.6-3.3-3.6-4.7
			c0-1.7,1.7-1.4,3.3-1.1c2.8,0.5,12.7,3.9,23.5,6.8c6.3,1.5,19.9,4.2,22.9,4.7c3.6,0.7,5.2,1.9,5.2,3.6c0,2-1.9,2.2-4.4,2.3
			c-2.2-0.1-4.1-0.2-6.3-0.4c-8-0.4-12.7,2.7-13.5,16.5c-0.6,7.9-1.1,31.2-1.1,40.1c0,1.4,1.4,2,3.6,2.4l19,3.7
			c9.4,1.8,25.7,5.3,36.1,7c19.3,3.5,23.7,0.3,23.7-31.4c0-7.4-0.3-18.7-3.3-27.2s-9.1-13.2-21.8-18.3c-3.3-1.2-5-2.7-5-4.4
			c0-2.3,2.8-2,6.1-1.4c10.8,2.1,31.7,9.3,37,11.8c7.2,3.4,7.4,5.4,7.4,16c0,39.5-1.6,60.6-1.6,90.6c0,13.4,0.8,25.6,0.8,41.3
			c0,5.1-0.8,6.7-2.8,6.3c-1.4-0.3-2.8-2-2.8-6.3c-0.2-3-0.5-5.9-1.1-8.8c-1.1-8.2-11.6-11.4-29-15.3c-11-2.7-27.3-6.2-44.4-9.5
			L83.7,567.5z"/>
		<path class="st0" d="M84,402.4c-42.8-8.2-48.4-8.7-57.2-10.1c-11.3-1.6-14.9,1.1-16.3,7.6c-0.8,4.1-0.8,8.6-1.1,11.1
			c-0.3,3.3-1.4,4.8-3,4.5s-2.5-2.5-2.5-6.7c0-12.1,0.8-39,0.8-43c0-5.4-0.8-32.6-0.8-45.6c0-26.5,2.5-44.7,9.4-55.7
			c7.2-12.2,21.3-21.6,42.3-17.6c23.2,4.4,40.9,21.4,55.5,48.4c24.3-12.6,53.9-27.5,73.2-41c16.3-11.8,21-17.7,22.1-25.4
			c0.6-3,0.6-4.7,0.8-6.9c0-3.1,1.1-4.6,2.8-4.3c2.5,0.5,2.8,3.3,2.8,6.2v25.4c0,29-2.8,40.9-9.1,49.6c-5.3,8-17.1,14.8-34.5,22.4
			c-21,9-32.3,13.3-39.8,16.9c-1,0.7-1.7,1.8-1.7,3.1V360c-0.2,1.3,0.8,2.5,2.1,2.7c0,0,0.1,0,0.1,0l14.1,2.7
			c21.8,4.2,34.8,6.7,46.4,7.5c7.2,0.8,13.3,0,15.2-8.1c1.1-3.7,1.1-6.8,1.6-12.4c0.3-4.5,1.4-4.8,3-4.5s2.5,2.4,2.5,6.4
			c0,18.9-0.8,49.5-0.8,51.5c0,3.4,0.8,30.9,0.8,40.5c0,4.2-0.8,5.5-2.8,5.1s-2.8-2.5-2.8-5.6c-0.3-2.9-0.6-6.6-1.1-9.8
			c-1.4-5.9-6.4-9.1-15.8-11.8c-11.6-3.3-30.9-7.3-57.8-12.5L84,402.4z M102.5,357.4c2.2,0.4,3.3-0.2,4.1-1.8
			c2.8-4.8,3.6-13.1,3.6-21c0-7.6-1.1-13.5-4.4-18.6c-4.4-6.8-16.3-14.1-34.8-17.7c-39.2-7.5-49.5,15.9-49.5,30.6
			c0,4.5,0.3,9.4,1.1,11.5c0.5,1.2,0.8,1.8,3,2.3L102.5,357.4z"/>
		<path class="st0" d="M141.2,168.2c-14.9-2.9-20.4-0.8-29.6,2.3c-18.8,6.9-64.4,26.3-78.5,33.3c-16,7.7-19.6,10.2-22.4,18.7
			c-0.7,2.3-1.1,4.7-1.4,7.1c-0.3,2.8-1.4,4-3,3.7c-1.9-0.4-2.5-2.8-2.5-6.2c0-11.7,0.8-32.9,0.8-43.7c0-4.8-0.8-22.9-0.8-40.9
			c0-3.1,0.6-5.3,2.2-5c2.2,0.4,2.8,2,3.6,6.4c0.8,7.8,3.6,9.5,5.8,10c1.9,0.4,4.4,0,8-1.3c8-3,69.4-26.8,77.7-29.7
			C69.3,99.4,41.7,78.7,30.7,71.1c-5.8-4-10.5-6.6-14.1-7.3c-3-0.6-5.5,0.6-6.9,8.9c-0.6,2.4-1.4,4.6-3.3,4.2
			c-1.7-0.3-2.5-2.2-2.5-6.8c0-11.7,0.8-21.2,0.8-32c0-4-0.8-27.5-0.8-32.9c0-3.4,0.6-5.6,2.5-5.2c2.2,0.4,3,2.6,3,6.3
			c0.3,3.9,1.1,7.8,2.2,11.5c3,8.6,7.7,12.3,14.1,18.7c11.6,11.9,79.3,65.7,90.9,72c8.2,4.6,17,7.8,26.3,9.6l19.6,3.7
			c4.4,0.8,15.8,3,27.4,4.4c6.9,0.8,13.8,1.5,15.8-8.6c1.1-4.9,1.1-10.6,1.6-15.3c0.3-3.4,1.1-4.3,3-4c1.4,0.3,2.5,1.9,2.5,6.2
			c0,20.5-0.8,44-0.8,53.4c0,8.3,0.8,31.5,0.8,44.3c0,4-1.1,5.5-3,5.1c-1.4-0.3-2.5-2.2-2.5-5.6c-0.6-4.7-0.6-7.5-1.4-10.2
			c-1.9-7.8-6.9-10.4-14.9-12.6c-11.6-3.1-24-5.8-28.5-6.6L141.2,168.2z"/>
	</g>
</g>
</svg>
