<?xml version="1.0" encoding="utf-8"?>
<!-- Generator: Adobe Illustrator 23.0.1, SVG Export Plug-In . SVG Version: 6.00 Build 0)  -->
<svg version="1.1" id="Layer_1" xmlns="http://www.w3.org/2000/svg" xmlns:xlink="http://www.w3.org/1999/xlink" x="0px" y="0px"
	 viewBox="0 0 222 849.2" style="enable-background:new 0 0 222 849.2;" xml:space="preserve">
<style type="text/css">
	.st0{fill:#FFFFFF;}
</style>
<title>Classic_White</title>
<g>
	<g id="Layer_1-2">
		<path class="st0" d="M44.9,803.1c-8.4-3.4-15.1-7.3-20.1-11.7c-5-4.4-7.8-9.2-8.2-14.4c-0.7-6.1-0.1-10.6,1.8-13.7l67.3-31.1H13
			c-2.9,2.3-5.3,5.1-7,8.4c-1.9,4.3-3.4,8.8-4.2,13.5c-1.2,5.7-1.6,13.1-1.1,22.2c0.7,11.8,4.7,23.1,11.4,32.8
			c6.9,10.2,16.4,18.6,28.5,25.4c10.2,5.5,21.2,9.4,32.6,11.4c12.7,2.3,25.6,3.4,38.5,3.3c14.5,0.1,29-1.2,43.3-3.8
			c13.7-2.6,25.4-7.2,35.2-14c10.5-6.8,18.4-15,23.7-24.7c5.2-9.3,7.9-19.7,7.9-30.3c0-5.3-0.7-10.5-2-15.6
			c-1.2-4.9-2.7-9.6-4.7-14.2c-2.1-4.9-4.4-9.7-7-14.4h-82.3l75,31.2c1.7,1.8,3.1,4,4,6.3c1,2.2,1.5,4.6,1.6,7
			c0,5.2-2.4,10-7.2,14.4c-4.8,4.4-11.4,8.4-20,11.8c-9.7,3.7-19.8,6.4-30.1,8c-12.3,2.1-24.8,3.1-37.3,3c-12.5,0.1-25-0.9-37.3-2.8
			C64.4,809.5,54.5,806.8,44.9,803.1z"/>
		<path class="st0" d="M203.5,643.6v24.2H17L5.1,651v75.7l14-17.2h185.1l13,17.2v-108h-91.5L203.5,643.6z"/>
		<path class="st0" d="M217.4,436.1l-15.4,20.3L5.1,510.3V565l17.5-22.1l176.6,48.7l18.2,24.5V551l-16.8,18.6l-56.1-14.4v-43.8
			l54.7-11.2l18.2,15.8V436.1z M131.5,551.7l-74.3-18.2l74.3-18.6V551.7z"/>
		<path class="st0" d="M155.9,315.8c-5.6,0.4-11,1.7-16.2,3.9c-6.4,2.8-12.4,6.5-17.8,10.9c-7.7,6.4-15,13.2-21.8,20.6
			c-7.3,7.7-14,15.2-20.3,22.4c-5.4,6.4-11.5,12.3-18.1,17.4c-5.9,4.5-11.6,7-17.1,7.8c-5.5,0.7-11.3-1.6-17.4-7
			c-4.2-3.8-6.8-7.8-7.6-12.1c-0.8-4.1-1-8.3-0.5-12.5c1-4.7,2.6-9.3,4.6-13.7l62.7-29.2H13.7c-2.3,3.7-4.2,7.8-5.6,11.9
			c-1.7,5-2.9,10.1-3.7,15.3c-1.1,7.4-1.7,14.9-1.6,22.4c0,8.5,1.8,16.9,5.3,24.7c3.4,7.5,8.4,14.2,14.8,19.4
			c6.7,5.3,14.6,8.9,23,10.4c9,1.8,19,1,29.8-2.3c4.6-1.4,9-3.4,13-6c4.3-2.8,8.3-6,12-9.5c4-3.8,8.1-7.9,12.2-12.5
			s8.5-9.7,13.2-15.3c6.1-7,12.2-13.7,18.3-19.9c5.8-6.1,13.3-10.3,21.6-12.2c4.1-0.9,8.2-1.4,12.3-1.6c3.8-0.1,7.6,0.5,11.1,1.8
			c3.3,1.2,6.3,3.2,8.8,5.8c2.7,3,4.4,6.6,5.1,10.6c1.1,4.2,1.4,8.6,0.9,12.9c-0.5,3.4-1.4,6.8-2.6,10c-1.1,3.3-2.9,6.3-5.3,8.8
			l-71.5,27.5h81.3c2.8-3.2,4.9-6.9,6.4-10.9c2-5.4,3.5-10.9,4.4-16.5c1.4-8.7,1.9-17.6,1.6-26.4c-0.1-5.5-0.6-11-1.6-16.4
			c-1.1-6.4-3.2-12.5-6.3-18.2c-3.3-6-7.9-11.2-13.5-15.1c-5.9-4.2-13.7-6.6-23.6-7C167,315.4,161.2,315.5,155.9,315.8z"/>
		<path class="st0" d="M155.9,194.8c-5.6,0.4-11,1.7-16.2,3.9c-6.4,2.8-12.4,6.5-17.8,10.9c-7.7,6.4-15,13.2-21.8,20.6
			c-7.3,7.7-14,15.2-20.3,22.4c-5.4,6.4-11.5,12.3-18.1,17.4c-5.9,4.5-11.6,7.1-17.1,7.8c-5.5,0.7-11.3-1.6-17.4-7.1
			c-4.2-3.8-6.8-7.8-7.6-12.1c-0.8-4.1-1-8.3-0.5-12.5c1-4.7,2.5-9.4,4.6-13.8l62.7-29.2H13.7c-2.3,3.7-4.2,7.8-5.6,11.9
			c-1.7,5-2.9,10.1-3.7,15.3c-1.1,7.4-1.7,14.9-1.6,22.3c0,8.5,1.8,16.9,5.3,24.7c3.4,7.5,8.4,14.2,14.8,19.4
			c6.7,5.3,14.6,8.9,23,10.4c9,1.7,19,1,29.8-2.3c4.6-1.4,9-3.4,13-6c4.3-2.8,8.3-6,12-9.5c4-3.8,8.1-7.9,12.2-12.5
			s8.5-9.7,13.2-15.3c6.1-7,12.2-13.7,18.3-19.9c5.8-6.1,13.3-10.3,21.6-12.1c4.1-0.9,8.2-1.4,12.3-1.6c3.8-0.2,7.6,0.4,11.1,1.8
			c3.3,1.3,6.3,3.2,8.8,5.8c2.7,3,4.4,6.7,5.1,10.6c1.1,4.2,1.4,8.5,0.9,12.8c-0.5,3.4-1.3,6.8-2.6,10c-1.2,3.3-2.9,6.3-5.3,8.8
			l-71.5,27.4h81.3c2.8-3.2,4.9-6.9,6.4-10.9c2-5.4,3.5-10.9,4.4-16.5c1.4-8.7,1.9-17.6,1.6-26.4c-0.1-5.5-0.6-11-1.6-16.4
			c-1.1-6.4-3.2-12.5-6.3-18.2c-3.3-6-7.9-11.2-13.5-15.1c-5.9-4.2-13.7-6.6-23.6-7C166.9,194.4,161.2,194.5,155.9,194.8z"/>
		<path class="st0" d="M217.2,197.2V125l-15.1,15.1H15.6L5.1,125.4v73.3l11.6-16.5h186.2L217.2,197.2z"/>
		<path class="st0" d="M44.4,71.2c-8.4-3.4-15.2-7.3-20.2-11.8c-5.1-4.4-7.8-9.2-8.3-14.4c-0.7-6.1-0.1-10.7,1.8-13.7L85.2,0L12.4,0
			c-2.9,2.3-5.3,5.1-7,8.4c-2,4.3-3.4,8.9-4.2,13.5c-1.1,5.7-1.5,13.2-1,22.3c0.7,11.8,4.7,23.2,11.4,32.8
			c6.9,10.2,16.4,18.7,28.6,25.5c10.2,5.5,21.2,9.4,32.7,11.4c12.8,2.3,25.7,3.4,38.7,3.3c14.6,0.1,29.1-1.2,43.4-3.9
			c13.7-2.6,25.5-7.3,35.3-14.1c10.5-6.8,18.4-15,23.7-24.8c5.2-9.3,7.9-19.8,7.9-30.4c0-5.3-0.7-10.5-2-15.6
			c-1.2-4.9-2.8-9.6-4.8-14.2c-2.1-4.9-4.4-9.7-7-14.4l-82.6,0l75.2,31.2c1.7,1.8,3.1,4,4,6.3c1,2.2,1.5,4.6,1.6,7
			c0,5.2-2.4,10-7.2,14.4c-4.8,4.4-11.5,8.4-20,11.8c-9.8,3.8-19.9,6.5-30.2,8.1c-12.4,2.1-24.9,3.1-37.4,3C99,82,86.5,81,74.1,79.1
			C64,77.5,54,74.9,44.4,71.2z"/>
	</g>
</g>
</svg>
