<?xml version="1.0" encoding="utf-8"?>
<!-- Generator: Adobe Illustrator 23.0.1, SVG Export Plug-In . SVG Version: 6.00 Build 0)  -->
<svg version="1.1" id="Layer_1" xmlns="http://www.w3.org/2000/svg" xmlns:xlink="http://www.w3.org/1999/xlink" x="0px" y="0px"
	 viewBox="0 0 222 857.4" style="enable-background:new 0 0 222 857.4;" xml:space="preserve">
<style type="text/css">
	.st0{fill:#FFFFFF;}
</style>
<title>Cures_White</title>
<g>
	<g id="Layer_1-2">
		<path class="st0" d="M161.9,657.6c15.7,4.6,40.5,12.7,51.6,18.3c2,8.8,8.5,37.9,8.5,60.7c0,84.5-56.5,120.8-108,120.8
			C46,857.4,0,805.5,0,729.1c0-26.4,6.8-49.9,8.8-58.7c18-2.6,32.6-4.9,51.9-7.2l2.3,11.4c-37.2,9.8-49.6,33-49.6,61.7
			c0,49.9,45,77,94,77c60.1,0,100.5-33.3,100.5-79.6c0-29.7-17.6-48.6-50.3-65.3L161.9,657.6z"/>
		<path class="st0" d="M206.5,446c3.2,21.8,8.5,44.8,14.5,68.5l-2.8,2.8h-25.8c6,8.1,11.7,14.1,17.3,23.8
			c7.3,11.7,11.3,21.8,11.3,33.5c0,31.5-19.8,52-58.5,52H81.1c-20.6,0-22.2,1.2-27,23H42.8c-0.9-23-3.2-45.8-6.9-68.5
			c15.3,0.8,35.1,1.2,60.1,1.2h56.9c29.8,0,39.1-15.3,39.1-30.7c0-12.1-3.6-23.4-14.1-34.3H81.1c-21.4,0-23,1.6-27,27.8H42.8
			C42,521,39.7,496.9,35.9,473h132.3c21,0,24.2-2.4,25.8-17.3l0.8-9.7H206.5z"/>
		<path class="st0" d="M77.1,366.8c-23.6-13.6-42.3-29.9-42.3-46.3c0-15.2,10.8-25.5,23.2-25.5c11.6,0,22,7.6,25.6,17.2
			c2,5.2,1.2,9.2-1.2,11.6c-5.6,6.8-8.4,11.6-8.4,18c0,8.8,7.6,18.4,26,26h73.9c25.2,0,27.1-2,29.6-32.7h12v103h-12
			c-2.4-22.8-4.4-26.4-29.6-26.4H87.8c-22.4,0-24,2.4-28,22.8H49.5c-3.1-22.7-8.3-45-15.6-66.7h43.1V366.8z"/>
		<path class="st0" d="M178.1,142.1c33.9,24.3,41.9,54.3,41.9,69.5c0,51.5-39.5,80.7-85.4,80.7c-29.2,0-54.3-11.6-71.1-28.3
			c-18-17.2-28.7-39.1-28.7-60.3c0-35.5,30.7-63.1,62.7-63.1c8,0,12.8,2.4,14,10.8c1.2,7.2,4.8,56.3,6.4,98.2
			c47.1-1.2,69.1-27.5,69.1-55.9c0-15.6-5.6-30.7-18.4-44.7L178.1,142.1z M99.8,247.5c0-18.4-0.4-35.9-1.2-54.3
			c0-6.4-1.2-8.8-7.6-9.2c-20.8,0-40.7,10.8-40.7,28.3C50.3,228.7,68.3,243.9,99.8,247.5z"/>
		<path class="st0" d="M90.4,19.6c-24.3,9.6-40.3,22.8-40.3,41.9c0,12.4,10,22.4,24,22.4S97.6,72.3,106,52.7
			C119.6,21.2,133.6,0,163.5,0C201.8,0,221,36.3,221,69.5c0,20.8-7.6,41.1-13.6,48.7c-6,2.8-33.9,6.4-51.5,6.4l-1.2-11.2
			c25.6-8.4,51.5-26.8,51.5-50.7c0-13.6-10-24.3-24-24.3c-13.6,0-23.2,8-34.3,30.7c-9.6,20.4-24.3,50.7-57.5,50.7
			c-29.9,0-54.7-24.8-54.7-65.1c0-17.6,3.2-28.3,6.8-37.1c9.2-4,35.9-8.4,44.7-9.6L90.4,19.6z"/>
	</g>
</g>
</svg>
