<?xml version="1.0" encoding="utf-8"?>
<!-- Generator: Adobe Illustrator 23.0.1, SVG Export Plug-In . SVG Version: 6.00 Build 0)  -->
<svg version="1.1" id="Layer_1" xmlns="http://www.w3.org/2000/svg" xmlns:xlink="http://www.w3.org/1999/xlink" x="0px" y="0px"
	 viewBox="0 0 221 785.2" style="enable-background:new 0 0 221 785.2;" xml:space="preserve">
<style type="text/css">
	.st0{fill:#FFFFFF;}
</style>
<title>Wild_White</title>
<g>
	<g id="Layer_1-2">
		<path class="st0" d="M88.1,0.5C87.3,1.4,86.2,2,85,2.1c-3.3,0.8-5.9,2.4-7.4,5.6c-0.7,1.5-1.7,2.9-3,4c-2.3,2-3.5,4.9-3.3,7.9
			c0,2-0.2,3.9,0.3,5.9c0.1,0.4,0.2,1-0.4,1.2s-0.5-0.5-0.7-0.8c-0.7-1.4-1.8-2.6-3.1-3.5c-0.7-0.4-1.3-1-1.6-1.8
			c-1.2-4.8-5.7-7.3-8-11.4c-0.8,1.4-1.5,2.6-2.2,3.9c-1,2-1.5,4-0.5,6.3c1.2,2.4,1.5,5.2,0.7,7.8c-0.3,1.2-0.3,2.4,0,3.6
			c0.5,2.1,1.8,3.7,2.8,5.5c0.2,0.4,0.5,0.8,0.1,1.3c-0.3,0.3-0.8,0.3-1.1,0.1C53.2,36.4,48.5,37,44,36c-0.7-0.2-1.5-0.3-2.2-0.2
			c-5,0.7-8.5,3.8-11.4,7.6c-0.8,1-1.5,2-2.9,2c-2.2-0.1-3.1,1.5-4,3.1c-0.3,0.4-0.6,1-0.2,1.5s1,0,1.4-0.3c2.7-1.4,5.5-1.1,8.4-0.6
			c3.5,0.5,6.3,2.8,9.8,3.3c1.1,0.1,2.2,0.3,3.2,0.6c0.3,0.1,0.6,0.3,0.8,0.6c0.1,0.4-0.3,0.5-0.6,0.7c-1.2,0.6-2.4,1.1-3.7,1.6
			c-1.5,0.3-2.8,1.3-3.5,2.7c-1.2,2.3-2.8,4.4-3.6,6.9c-0.8,2.6-1.4,5.2-0.6,8c0.1,0.3,0,0.8,0.4,0.9s0.5-0.3,0.7-0.5
			c0.9-1,2.1-1.7,3.5-1.7c1.8-0.2,3.7,0.1,5.3-0.9c4-2.4,8.1-4.4,12.9-4.6c2.7-0.1,3,0,3.1,2.7c0.2,5.5,3,9.4,7.3,12.4
			c0.9,0.5,1.5,1.5,1.3,2.6c-0.2,1.3,0.2,2.7,0.9,3.8c0.3,0.5,0.7,0.9,1.3,0.7s0.4-0.8,0.4-1.2c-0.2-1.8,0.2-3.6,1-5.2
			c1.5-2.9,2.2-6.1,2.1-9.4c0-1.1,0.2-2.2,0.5-3.2c0.2-0.5,0.3-1.1,1.1-0.7c1.9,1,4.1,1.4,5.6,3c3.9,3.8,8.7,6.1,13.5,8.5
			c4.2,2.2,8.5,4.2,11.9,7.6c1.8,1.8,3.5,3.9,6.5,4c0.6,0,1.2,0.7,1.7,1.1c2.2,1.5,3.5,3.9,5.4,5.7s2.6,3.9,3.1,6.4
			c0.9,4.2,0.8,8.6,2.8,12.5c0.4,0.8,0,1.2-0.8,1.6c-1.4,0.4-2.7,1.2-3.7,2.2c-0.8,0.9-0.4,1.6,0.3,1.5c2.2-0.3,3.5,1.2,5.2,2
			c0.9,0.3,1.6,1.2,1.6,2.2c0.2,2.1,0.5,4.1,1,6.2c1.5,6.5,4.6,12.5,5.8,19.1c0.1,0.4,0.5,0.8-0.1,1.3c-0.5-0.3-1-0.8-1.3-1.3
			c-1.6-2.5-3.6-4.8-5.9-6.6c-2-1.7-3.8-3.6-5.4-5.7c-2.1-2.8-4.9-5-8.1-6.4c-3.9-1.5-7.5-3.6-10.7-6.2c-4.6-3.8-9.8-5.8-15.5-7
			c-4-0.9-8.3-1.2-11.8-3.8c-3.3-2.3-7.3-3.5-11.3-3.4c-6.2,0-11.9-2-17.3-4.6c-4-2.1-8.4-3-12.8-2.8c-3.1,0.2-6.2-0.5-9.2,0.5
			c-3.7,1.2-7.3,1.8-11.1,0.7c-1.3-0.3-2.6-0.2-3.8,0.4c1,1.1,2.3,2,3.7,2.5c6.4,2.7,13,4.8,19.6,7.1s13.2,5.5,20.3,6.8
			c5.6,1,10.8,3.4,16.4,4.6c3.6,0.7,6.9,2.4,10.5,3.1c2.9,0.7,5.7,1.9,8.2,3.6c3.1,2,6.5,3.4,9.5,5.5c3.9,2.7,8.2,4.9,11.8,8
			c3.4,2.9,6.3,6.3,9.7,9.3c1.6,1.4,3.4,2.5,4.8,4.2c3.2,3.9,6,8.1,9.1,12.1c0.3,0.4,0.7,0.8,0.5,1.2s-0.8,0.3-1.3,0.3
			c-0.5,0-0.9-0.1-1.3-0.4c-2.2-1.8-4.8-3.1-6.6-5.3c-1.7-2.1-4.2-3.4-6.8-3.8c-4.1-0.6-8.3-0.2-12.5-1c-1.5-0.4-3.1,0.3-3.9,1.7
			c-0.4,0.6-1,0.7-1.6,0.9c-3.3,1.1-6.4,2.6-9.3,4.5c1.5,0.1,3-0.1,4.5-0.4c3-0.9,5.6,0.1,7.8,1.8c2,1.7,4.3,3,6.8,3.7
			c2.2,0.6,4.3,1.7,6.1,3.1c3.6,2.6,6.6,6,10.1,8.7c2.8,2.1,5.3,4.5,8.7,5.9c1.2,0.6,2.2,1.5,3.1,2.5c0.9,1.1,2.2,1.9,3.6,2.2
			c1.3,0.2,2.5,0.9,3.4,1.9c2,2.5,4.1,5.1,5.2,8.2c0.2,0.7,0.9,1.5,0.3,2.1s-1.4-0.1-2.1-0.3c-9.2-3-18.7-4.8-28.3-5.2
			c-5.3-0.3-10.7,0.1-16,0.1c-1.7-0.1-3.4,0.4-4.8,1.3c-1.4,0.9-3.2,1.1-4.8,0.5c-1.2-0.4-2.4-0.5-3.6-0.3c-5.7,1-11.2,2.6-16.5,4.8
			c-14.5,5.9-25.8,15.3-33.3,29.2c-0.3,0.5-1,1.2-0.5,1.7c1.1,1.1,0.3,1.9-0.2,2.8c-0.8,1.1-1.3,2.3-1.5,3.7
			c-0.3,1.5-1.2,2.8-2.4,3.7c-0.7,0.6-1.2,1.4-1.5,2.3c-4,12.6-5,25.5-4.6,38.5c0,0.4,0,0.8,0.2,1c1.8,1.7,0.9,3.7,1,5.7
			s-1.3,3.4-1.3,5.3c0.1,5.9,0,11.9,0,17.8c0,0.5,0,0.9,0.1,1.4c0.2,0.9,0.9,1.6,1.7,2c0.8,0.3,1-0.8,1.3-1.3
			c2.5-3.7,5.1-7.4,7.5-11.1c0.7-1.2,1.9-1.8,3.3-1.7c7,0,13.9,0.2,20.9-0.3c0.8,0,1.6-0.2,2.3-0.6c1.7-1,3.8-1.2,5.6-0.3
			c2.1,0.8,4.4,1.2,6.7,1.3c7.7,0,15.3,0,23,0c2.6-0.1,5.2-0.4,7.7-1c2.8-0.5,5.7-0.5,8.5-0.2c3.5,0.3,7,1.6,10.5,0.5
			c2.7-0.9,5.5-0.6,8.3-0.7c0.8,0,1.8,0,2.3,0.6c0.8,0.7,1.8,1,2.9,0.8c12.7,0,25.4,0,38,0c1.7-0.2,3.3,0.7,4.1,2.2
			c1.1,1.9,2.4,3.6,3.6,5.4c2,2.9,4,5.8,6.3,9.1c0-1.1,0-1.7,0-2.2c-0.3-5.5,0.6-11.1-0.6-16.6c-0.7-3.3,0.7-6.5,0.6-9.8
			c0-4.6,0-9.2,0-13.8c0-4.8,0.3-9.7-0.3-14.5c-0.2-1.3-0.1-3.2-2.4-2.7c-0.3,0-0.6-0.1-0.8-0.3c-0.6-0.9-1.9-1.8-1.5-3
			c0.5-1.3,1-3.1,2.6-3.5c1.1-0.3,0.9-0.6,0.8-1.4c-1.2-6.3-3.3-12.4-6.2-18.1c-2.3-4.6-4.6-9.3-8.9-12.5c-0.5-0.3-0.8-0.8-1.1-1.3
			c-0.9-1.8-2.2-3.4-3.8-4.7c-3.1-2.9-6.6-5.4-10.2-7.5c-0.9-0.6-1.6-1.3-2-2.3c-1.2-2.2-2-4.6-3.5-6.6c-1.1-1.6-2.1-3.2-3-4.9
			c-2.1-4.1-0.4-11.1,3.4-13.8c0.7-0.5,1.3-1,1.8-1.6c1.2-1.7,3.2-2.8,5.4-2.8c2.2-0.1,2.7-0.7,2.9-2.9c0-0.8,0.4-1.5,1-2.1
			c1.7-1.5,2.8-3.6,3-5.9c0.2-2.4,1-4.4,3.8-5.2c1.9-0.6,3.5-2,4.4-3.8c0.4-0.5,0.8-1,1.3-1.4c0.5-0.4,1.1-0.5,1.7-0.5
			c-4.8-0.2-9.5,0.3-14.1,1.5c-1.7,0.4-3.2,1.6-4.1,3.1c-0.8,1.5-2,2.7-3.4,3.7c-1.4,1.1-2.6,2.6-3.3,4.2c-1,2.2-2,4.5-2.9,6.8
			c-0.2,0.4-0.3,0.9-0.8,0.8s-0.5-0.6-0.5-1c-0.1-1.6,0-3.2,0.3-4.9c0.5-5.3,0.7-10.7,1.5-16c0.7-4.8,1.5-9.6,2.1-14.4
			c0.6-4.7,1.7-9.3,3.4-13.8c1.4-3.7,3.7-6.8,5.6-10.2c1.3-2.3,3.2-4.2,5.4-5.5c1.3-0.8,2.9-0.8,3.9-1.5c1.8-1.2,3-0.8,4.4,0.2
			c0.6,0.4,1.3,0.7,2,1c1.9,0.6,3.5,1.9,4.5,3.6c0.4,0.7,1.1,1.2,1.9,1.4c3.6,1.1,6.9,3.2,9.3,6.1c0.6,0.7,1.4,1.4,2.1,2
			c0.4,0.4,1.1,0.6,1.6,0.3c1.1-0.5,2.4-2.8,2-4c-0.4-1.7-1.1-3.3-2-4.8c-2.5-3.6-5.3-7-7.4-10.9c-0.3-0.6-0.9-1.1-1.6-1.3
			c-3.4-0.7-6.1-2.6-9.1-4.2c-1-0.5-2.1-0.7-3.2-0.5c-3.2,0.6-5.6,2.2-6.9,5.4c-0.7,2.1-2.4,3.6-4.6,4.1c-1.4,0.2-2.7,1.1-3.3,2.3
			c-1.3,2.4-3,4.6-5.1,6.3c-1.5,1.2-2.5,2.9-2.9,4.8c-0.2,2-0.9,3.9-2,5.5c-0.9,1.3-1.4,2.8-1.5,4.4c-0.1,2.4-0.7,4.8-1.7,7
			c-0.8,1.9-1.2,3.8-1.3,5.9c0,5.6-1,11.2-0.9,16.9c0,1.6,0.7,3.2,0.6,4.7c-0.1,3.1-0.4,6.2-0.9,9.3c0,0.3,0,0.8-0.4,0.8
			s-0.5-0.4-0.6-0.7c-0.5-1-0.7-2.2-0.7-3.3c0-1.7,0.2-3.6-0.4-5.2c-1.2-2.8-1.2-5.9-2-8.8c-1.1-4.1-0.4-8.3-1-12.5
			c-0.4-1.6-0.6-3.2-0.6-4.8c0.3-3.5,0-7-0.6-10.4c-0.5-3.4,0.9-5.8,2.9-7.9c2.2-2.3,4.5-4.5,5.9-7.3c0.4-0.7,0.6-1.5,0.5-2.3
			c-0.1-0.7-0.4-1.1-1.2-0.8c-1.2,0.4-2.5,0.5-3.8,0.5c-1,0-1.9,0.5-2.5,1.4c-0.5,0.7-0.5,2.1-1.6,1.8c-1.3-0.3-0.4-1.6-0.6-2.4
			v-0.2c-1-6.5-2.4-12.9-4.1-19.2c-0.3-0.6-0.4-1.3-0.2-2c0.8-2.3,0.7-4.9-0.2-7.1c-0.3-0.7-0.5-1.5-0.6-2.3
			c0-5.5-1.4-10.8-4.1-15.6c-1.4-2.6-2-5.9-4.5-7.7c-1.9-1.3-1.9-2.7-1.5-4.7c0.3-2.2,1.4-4.2,3-5.7c1.4-1.2,2.7-2.5,4.1-3.7
			c1.5-1.5,3.7-2.1,5.8-1.6c3.5,1,7.3,0.8,10.8-0.4c2.7-1.3,5.9-1.1,8.6,0.4c1.8,0.9,3.4,2.1,4.8,3.5c0.5,0.6,1.1,1.1,1.6,1.6
			c-0.7-1.7-1.7-3.2-3-4.5c-4.9-5.3-11.1-8.5-17.7-11.2c-1.4-0.6-3-0.6-4.4,0c-1.6,0.7-3.3,1-5.1,1c-1.7-0.1-3.5-0.3-5.2-0.3
			c-2.6,0-4.8,1.4-7.1,2.2c-4.9,1.8-6.8,4.9-7.2,10.6c-0.1,2.3,0.1,4.6-0.8,6.9c-1,2.7-0.7,5.5-0.3,8.2c0.6,3.8,2.3,7.5,2.1,11.4
			c-0.2,5.1,0.5,10.2,2,15.1c0.2,0.5,0.4,1.1-0.3,1.6c-1.2-1.6-2.5-3.1-3.9-4.4c-1.4-1.4-2.6-3.1-3.4-5c-0.5-1-1.2-1.9-2.1-2.5
			c-1.9-1.4-3.6-2.9-5.1-4.7c-0.8-0.7-1.3-1.8-1.3-2.9c0-2.8-0.6-5.6-1.7-8.2c-2.3-5.6-5.2-11-8.4-16.2c-2.3-3.6-2.2-6,0.9-8.8
			c2.3-2.2,2.7-4.8,1.9-7.6c-1.1-4-0.5-5.7,3-7.9c2.7-1.7,5.2-3.6,5.8-7.1c0.5-3,2.3-4.5,5-5.3c1.3-0.4,2.7-1,4-1.5l-0.1-0.4
			c-1.3,0-2.5-1-4,0c-0.9,0.6-2,0.6-3,0.1c-1.7-0.8-3.6-0.9-5.5-0.5c-3.4,1-6.9,1.8-10.5,2.4c-1.7,0.2-3.2,1.1-4.4,2.3
			c-1.1,1.2-2.1,2.5-3.1,3.7c-0.3,0.3-0.4,1-1,0.7c-0.4-0.2-0.5-0.7-0.4-1.1c0.4-3.2,0.2-6.4,1.3-9.4c1.1-3,2.4-5.8,4.1-8.5
			c0.7-1.1,1.4-2.3,2-3.5c0.2-0.4,0.6-0.8,0-1.2C92.2-0.2,88.4,0.1,88.1,0.5z M110.2,236.6c2.4,0.1,4.9,0.1,7.3,0
			c4.2-0.1,8.4,0.3,12.5,0.5c0.2,0.1,0.5,0.1,0.7,0c4-1.5,7.9,0.3,11.5,1.3c4,1.1,8.1,2.3,12,3.8c6.4,2.4,12.5,5.3,17.6,10
			c6.6,6.2,11.6,13.5,13.3,22.6c0.4,1.8,0.5,3.6,0.4,5.4c-0.1,1.2-0.6,1.8-2,1.8c-3.9-0.1-7.8,0-11.7,0H46.4c-2.6,0-2.5,0-2.6-2.5
			c-0.3-8.5,3.3-15.7,8.4-22.2c2.6-3.3,4.9-6.9,6.9-10.6c0.7-1.3,1.4-1.6,2.7-0.9c1.1,0.6,2.5,0.6,3.6-0.1
			c7.2-3.4,14.5-6.3,22.3-7.7C95.1,236.5,102.7,236,110.2,236.6z M161.2,345.5c-4.2,0.5-8.3-0.9-12.5-0.7c-6.8,0.2-13.7,0-20.5,0
			c0.4,0.4,1,0.7,1.5,0.9c18.4,6.9,36.8,13.9,55.3,20.8c1.4,0.3,2.3,1.6,2.1,3c-0.1,6-0.1,12-0.1,18c0,2.4,0,2.4-2.4,2.4
			c-17.5,0-35,0-52.5,0c-1.8,0-3.5,0.1-5,1.4c-1.3,1.1-3.2,1.4-4.4,0.4c-2-1.6-4.2-1.7-6.4-1.7c-12.4-0.1-24.8-0.1-37.2,0
			c-2.1,0-4.1,0.4-6.1,1.1c-1.9,0.7-4,0.7-5.9,0.1c-2.5-0.9-5.2-1.3-7.8-1.3c-5.1,0.1-10.3,0-15.4,0.1c-1.4,0.1-2.7-0.6-3.3-1.9
			c-1.7-3.1-3.6-6.1-5.4-9.1c-0.2-0.4-0.4-0.9-1-0.8c-0.4,0.1-0.7,0.5-0.7,0.9c0.1,2-0.8,3.9-0.7,5.9c0,18.3,0,36.5,0,54.8
			c-0.1,0.9,0,1.8,0.5,2.6c2.7-3.9,5.2-7.5,7.7-11.2c0.2-0.4,0.3-0.8,0.2-1.2c-0.4-2.7,1-3.3,3.4-3.5s5,0.2,7.5-0.4
			c0.6-0.1,1.2,0.1,1.6,0.6c0.9,1.1,2,1.2,3.3,1.2c9.1,0,18.2,0,27.4,0c9.2,0,18.4,0.2,27.6,0s18.1,1,27.2-0.9
			c2.6-0.5,5.4-0.5,8-1.2c1.3-0.2,2.5-0.9,3.4-2c0.4-0.7,1.4-1,2.1-0.7c0.8,0.3,0.6,1,0.6,1.7c-0.1,1,0.1,1.8,1.2,2
			c2,0.4,4,1.1,6.1,1.1c8.4,0,16.8,0,25.3,0c1.1-0.1,2.2,0.5,2.7,1.5c1.2,2.1,2.5,4,3.8,6c1.5,2.4,3.1,4.7,4.8,7.5
			c0.1-0.8,0.1-1,0.1-1.3v-49.4c0-0.6-0.1-1.2-0.3-1.7c-2-3.9-2.1-8.5-0.1-12.4c0.3-0.8,0.5-1.7,0.4-2.5v-27.9c0-2.5,0-2.5-2.4-2.4
			C183.6,345.1,172.4,344.1,161.2,345.5L161.2,345.5z M183.7,472.2c-8.9,0-17.8,0-26.7,0c-1.4,0-2.5,0.2-2.9,1.8
			c-0.2,1-1.1,1.1-2,0.9c-1-0.2-1.8-0.7-2.6-1.5c-0.6-0.6-1.4-0.9-2.2-0.7c-1.3,0.2-2.5,0.5-3.7,0.9c-1.5,0.6-3.1,0.5-4.5-0.2
			c-1.7-0.9-3.5-1.3-5.4-1.3H67.4c-3.2,1.3-6.4,0.3-9.7,0.1c-4.9-0.3-9.8-0.1-14.6,0c-1.5,0.2-2.9-0.6-3.4-2
			c-1.8-3.1-3.7-6.2-5.6-9.3c-0.2-0.4-0.3-0.9-1.1-0.9c0,4,0,7.9,0,11.8c-0.1,1.1,0.3,2.2,0.9,3.1c0.7,1,0.9,2.3,0.5,3.4
			c-0.6,2-1.5,3.9-1.4,6c0.1,5.8-0.2,11.6,0.1,17.5s-1,11.5,1,17.2c0.2,0.5,0,1.3,0.7,1.5c0.9,0.3,1.1-0.5,1.4-1
			c1.5-2.5,3.1-5,4.5-7.6c0.5-1.2,1.7-1.8,3-1.7c16.1,0,32.2,0,48.3,0c2.3,0.1,4.6-0.4,6.7-1.4c1.8-0.9,3.8-1.1,5.7-0.5
			c2.4,0.7,4.6,0.3,6.9,0c1.4-0.2,2.9-0.6,4.2,0.3c1.5,1.1,3.3,1.7,5.2,1.6c21.3,0,42.7,0,64-0.1c1.2-0.1,2.4,0.5,3.1,1.5
			c1.3,1.8,2.7,3.4,4,5c1.7,2.1,3.5,4.3,5.6,6.8c0-3.5,0.1-6.6-0.1-9.5c-0.1-1.3-0.7-2.5-0.6-3.9c0.1-1,0.6-1.9,0.7-2.9
			c0.2-2.5-0.4-4.9-1.7-7c-1.2-2.2-0.9-3.6,1-5.1c0.5-0.5,0.8-1.1,0.7-1.8v-34.5c-3.6,4.2-6.9,8-10.1,12
			C186.4,471.7,185.1,472.3,183.7,472.2z M1.1,585.1c4-5.6,8.1-11.2,12-16.9c0.5-1.1,1.8-1.6,2.9-1.1c2.3,0.7,4.7,1.2,7.1,1.7
			c1.8,0.4,3.6,1.3,5.4,1c4-0.5,8-0.7,12-0.5c2.9,0.1,5.8,0.6,8.5,1.6c1.9,0.7,3.7,1.6,5.7,1.5c2.1-0.3,4.1,1.2,4.4,3.2
			c0.4,1.5,1.4,2,2.8,2.4c23.5,5.5,47,11,70.6,16.5c0.7,0.2,1.9,0,1.8,0.8c0,0.8-1.2,0.7-1.9,0.9c-23.9,6.6-47.9,13.2-71.8,19.7
			c-0.7,0.2-1.5,0.2-1.8,0.9c-1,2-2.3,3.8-2.3,6.1c0,0.8,0.2,1.9-1,2.1c-1,0.2-2.3-1.4-2.1-2.4c0.5-2.9-1.3-4.6-4.3-3.7
			c-10.8,3.2-21.8,6-32.7,9.1c-1.2,0.5-2.6,0-3.3-1c-3.3-3.8-6.7-7.4-10.1-11.1c-0.3-0.4-0.6-1-1.2-0.9c-0.7,0.1-0.4,0.8-0.5,1.3
			c0,0.3-0.1,0.7-0.3,0.8c-1.5,0.7-1.2,2-1.2,3.2c0,21.5,0,43,0,64.5c-0.1,0.7,0,1.5,0.3,2.2c0.6-0.8,1.1-1.4,1.6-2.1
			c3.9-5.3,7.8-10.6,11.6-15.9c0.6-1,1.8-1.4,2.9-1c3.9,1,7.8,1.8,11.7,2.8c0.6,0.3,1.4,0.3,2,0c2-1.6,3.9-1.4,6.3-0.5
			s4.9,1,7.2,1.9c2.2,0.9,4.5,1.4,6.9,1.7c0.9,0.1,1.7,0.5,2.3,1c1.5,1,2.7,2.4,4.7,2.8c23.3,5.3,46.6,10.8,69.9,16.3
			c2.5,0.5,5,1.1,7.4,1.9c-0.7,0.6-1.5,0.9-2.4,1c-18.1,5-36.2,10-54.4,15c-0.8,0.1-1.5,0.6-1.9,1.3c-1.2,1.8-1.7,3.1,0.9,4
			c0.4,0.1,0.6,0.7,0.5,1.2s-0.3,1-0.9,0.8c-1.7-0.6-3.6-0.7-5.3-1.5c-2.9-1.6-6.3-2-9.6-1.2c-15.2,4.1-30.3,8.3-45.5,12.4
			c-1,0.4-2.1,0.1-2.7-0.8c-3.6-4.1-7.4-8.1-11-12.1c-0.7-0.8-1.5-1.4-2.3-2.4c-0.1,0.6-0.1,1-0.1,1.3v50.3
			c-0.1,0.9,0.1,1.8,0.5,2.5c1,1.7,1.4,3.7,0.9,5.5c-0.4,1.9,0.2,4.1-0.8,5.9c-1,1.8-0.4,4-0.4,6c4.5-5.1,8.9-10.3,13.2-15.5
			c0.7-0.9,1.7-1.6,2.8-1.8c11.5-3.1,23-6.3,34.6-9.4c1.5-0.3,2.8-1.2,3.6-2.5c0.7-1,1.7-1.7,2.9-2.1c3.5-1.6,7.3-2.7,10.6-4.8
			c2.8-1.8,5.8-3.2,9.3-1.1c2.7,1.6,5.8,1.5,8.8,0.7c25.6-6.9,51.2-13.9,76.7-20.9c1.5-0.3,3-0.7,4.4-1.4c-1.1-0.8-2.5-1.2-3.8-1
			c-0.5,0-1.1,0.6-1.4,0c-0.4-0.6-0.1-1.2,0.2-1.8c0.7-1.4,2.2-1.7,4.3-0.7c1.3,0.5,2.7,0.5,4,0c2.2-0.7,4.6-1.1,6.9-1.2
			c0.4,0,0.8,0,1.1,0.3c1.4,1.5,2.8,0.8,4.3,0.4c11.3-3.1,22.7-6.3,34.1-9.2c2.4-0.6,2.3-3.3,4.3-4.1c0.1,0,0.1-0.4,0.1-0.7
			c0-3.9,0-7.8,0-11.7c0-1-0.4-1.4-1.4-1.6c-5.8-1.4-11.6-2.8-17.4-4.2c-1-0.3-2.1-0.1-2.9,0.7c-0.8,0.8-2,1-3,0.5
			c-2.9-1-5.8-2-8.7-3.1c-0.8-0.4-1.7-0.5-2.5-0.3c-1.2,0.5-1.9,0.1-2.1-1c-0.3-1.5-1.4-1.9-2.7-2.2L67.8,657.9
			c-2.7-0.7-5.4-1.3-8.1-2c0.6-1,1.4-1,2.1-1.2c25-6.9,50-13.7,75-20.5c0.8-0.1,1.6-0.5,2.1-1.1c0.9-1.1,2.3-1.8,3.8-1.8
			c1.2-0.1,2.8,0.1,3.4-1c1.1-2,2.9-2.2,4.7-2.4c1-0.2,2-0.4,3-0.7c3.2-0.8,6.4-1.7,9.8-0.7c0.7,0.1,1.4,0,2-0.3
			c8.9-2.4,17.7-4.8,26.5-7.2c4.6-1.3,9.3-2.6,13.9-3.8c4.2-1.1,8-3.5,12.6-3.5c2.1,0,2.4-0.6,2.4-2.8c0-4.1,0-8.3,0-12.4
			c0-1.4-0.4-2-1.8-2.4c-19-4.6-37.9-9.5-57-13.5c-3.1-0.6-6.3-0.1-9.4-0.3c-2.5-0.2-4.8-0.5-6.3-3c-0.6-0.8-1.4-1.3-2.3-1.5
			c-2.7-0.7-5.4-1.3-8.1-2c-38.8-9.5-77.5-19-116.3-28.4c-3.8-0.9-6.7-2.4-8.6-5.9c-0.7-1.4-1.6-3.1-2.8-3.6c-2.2-0.9-3-2.8-4.2-4.4
			c-0.8-1-0.2-2.1-0.7-2.9c-1-1.6-2.1-3.1-3.4-4.9v62.4C0.7,585.7,0.9,585.4,1.1,585.1z"/>
		<path class="st0" d="M0.2,523.8c1.3,1.8,2.4,3.3,3.4,4.9c0.5,0.8-0.1,1.9,0.7,2.9c1.3,1.6,2,3.5,4.2,4.4c1.2,0.5,2.1,2.3,2.8,3.6
			c1.9,3.5,4.7,5,8.6,5.9c38.8,9.4,77.5,18.9,116.3,28.4c2.7,0.7,5.4,1.3,8.1,2c0.9,0.2,1.8,0.7,2.3,1.5c1.4,2.5,3.8,2.8,6.3,3
			c3.1,0.2,6.3-0.3,9.4,0.3c19.1,4,38,9,57,13.5c1.5,0.3,1.8,1,1.8,2.4c-0.1,4.1,0,8.3,0,12.4c0,2.2-0.3,2.8-2.4,2.8
			c-4.6,0-8.4,2.4-12.6,3.5c-4.6,1.3-9.3,2.6-13.9,3.8c-8.8,2.4-17.7,4.8-26.5,7.2c-0.6,0.3-1.3,0.4-2,0.3c-3.3-1-6.5-0.1-9.8,0.7
			c-1,0.3-2,0.5-3,0.7c-1.9,0.2-3.6,0.5-4.7,2.4c-0.6,1.1-2.2,0.8-3.4,0.9c-1.5,0-2.8,0.7-3.8,1.8c-0.6,0.6-1.3,1-2.1,1.1
			c-25,6.8-50,13.7-75,20.5c-0.7,0.2-1.5,0.2-2.1,1.2c2.8,0.7,5.5,1.3,8.1,2l112.5,27.5c1.3,0.3,2.4,0.7,2.7,2.2
			c0.2,1.1,0.9,1.5,2.1,1c0.9-0.2,1.8-0.1,2.5,0.3c2.9,1.1,5.8,2.1,8.7,3.1c1,0.5,2.2,0.3,3-0.5c0.8-0.7,1.9-1,2.9-0.7
			c5.8,1.4,11.6,2.8,17.4,4.2c0.9,0.2,1.4,0.6,1.4,1.6c0,3.9,0,7.8,0,11.7c0,0.2,0,0.6-0.1,0.7c-1.9,0.8-1.9,3.4-4.3,4.1
			c-11.4,2.9-22.7,6.2-34.1,9.2c-1.5,0.4-3,1.2-4.3-0.4c-0.3-0.2-0.7-0.3-1.1-0.3c-2.4,0.1-4.7,0.5-6.9,1.2c-1.3,0.5-2.7,0.5-4,0
			c-2.1-1-3.6-0.7-4.3,0.7c-0.3,0.6-0.6,1.2-0.2,1.8c0.4,0.6,1,0.1,1.4,0c1.4-0.2,2.7,0.2,3.8,1c-1.4,0.6-2.8,1.1-4.3,1.4
			c-25.5,7-51.1,14-76.7,20.9c-3,0.8-6,0.9-8.8-0.7c-3.5-2.1-6.5-0.7-9.3,1.1c-3.3,2.1-7,3.2-10.6,4.8c-1.2,0.3-2.2,1.1-2.9,2.1
			c-0.8,1.3-2.1,2.2-3.6,2.5c-11.5,3.1-23.1,6.3-34.6,9.4c-1.1,0.3-2.1,0.9-2.8,1.8c-4.3,5.2-8.6,10.4-13.2,15.5c0-2-0.6-4,0.4-6
			s0.4-4,0.8-6c0.5-1.9,0.1-3.9-0.9-5.5c-0.4-0.8-0.6-1.6-0.5-2.5l0-50.3c0-0.3,0.1-0.7,0.1-1.3c0.9,0.9,1.6,1.6,2.3,2.4
			c3.7,4,7.4,8.1,11,12.1c0.6,0.9,1.8,1.2,2.7,0.8c15.2-4.2,30.3-8.4,45.5-12.5c3.2-0.8,6.6-0.4,9.6,1.2c1.7,0.8,3.6,0.9,5.3,1.5
			c0.6,0.2,0.8-0.2,0.9-0.8c0-0.5-0.1-1.1-0.5-1.2c-2.6-0.9-2.1-2.2-0.9-4c0.4-0.6,1.1-1.1,1.9-1.2c18.1-5,36.2-9.9,54.4-14.9
			c0.9-0.1,1.7-0.4,2.4-1c-2.4-0.8-4.9-1.5-7.4-1.9c-23.2-5.5-46.5-10.9-69.8-16.4c-2-0.5-3.2-1.8-4.7-2.8c-0.7-0.5-1.5-0.9-2.3-1
			c-2.4-0.3-4.7-0.9-6.9-1.7c-2.3-0.9-4.9-1-7.2-1.9s-4.3-1-6.3,0.5c-0.6,0.3-1.4,0.3-2,0c-3.9-0.9-7.8-1.8-11.7-2.8
			c-1.1-0.4-2.3,0-2.9,1c-3.8,5.3-7.8,10.6-11.6,15.9c-0.5,0.7-1,1.3-1.6,2.1c-0.3-0.7-0.4-1.4-0.3-2.2c0-21.5,0-43,0-64.5
			c0-1.2-0.3-2.5,1.2-3.2c0.2-0.1,0.2-0.5,0.3-0.8c0.1-0.5-0.3-1.2,0.5-1.3c0.6-0.1,0.9,0.6,1.2,0.9c3.4,3.7,6.8,7.3,10.1,11.1
			c0.7,1,2.1,1.5,3.3,1c10.9-3,21.8-5.9,32.7-9.1c3-0.9,4.8,0.8,4.3,3.7c-0.2,1,1.1,2.5,2.1,2.4c1.2-0.2,1-1.3,1-2.1
			c0-2.4,1.3-4.2,2.3-6.1c0.3-0.7,1.2-0.7,1.8-0.9c23.9-6.6,47.9-13.2,71.8-19.7c0.7-0.2,1.9-0.1,1.9-0.9c0-0.8-1.2-0.6-1.8-0.8
			c-23.5-5.5-47.1-11-70.6-16.5c-1.4-0.3-2.4-0.8-2.8-2.4c-0.4-2.1-2.3-3.5-4.4-3.2c-2,0.1-3.8-0.7-5.7-1.5c-2.7-1-5.6-1.5-8.5-1.6
			c-4-0.2-8,0-12,0.5c-1.8,0.2-3.6-0.7-5.4-1c-2.4-0.5-4.8-1-7.1-1.7c-1.1-0.4-2.4,0.1-2.9,1.1c-4,5.7-8,11.3-12,16.9
			c-0.2,0.3-0.4,0.5-0.9,1.1L0.2,523.8z"/>
		<path class="st0" d="M88.1,0.5C87.3,1.4,86.2,2,85,2.1c-3.3,0.8-5.9,2.4-7.4,5.6c-0.7,1.5-1.7,2.9-3,4c-2.3,2-3.5,4.9-3.3,7.9
			c0,2-0.2,3.9,0.3,5.9c0.1,0.4,0.2,1-0.4,1.2s-0.5-0.5-0.7-0.8c-0.7-1.4-1.8-2.6-3.1-3.5c-0.7-0.4-1.3-1-1.6-1.8
			c-1.2-4.8-5.7-7.3-8-11.4c-0.8,1.4-1.5,2.6-2.2,3.9c-1,2-1.5,4-0.5,6.3c1.2,2.4,1.5,5.2,0.7,7.8c-0.3,1.2-0.3,2.4,0,3.6
			c0.5,2.1,1.8,3.7,2.8,5.5c0.2,0.4,0.5,0.8,0.1,1.3c-0.3,0.3-0.8,0.3-1.1,0.1C53.2,36.4,48.5,37,44,36c-0.7-0.2-1.5-0.3-2.2-0.2
			c-5,0.7-8.5,3.8-11.4,7.6c-0.8,1-1.5,2-2.9,2c-2.2-0.1-3.1,1.5-4,3.1c-0.3,0.4-0.6,1-0.2,1.5s1,0,1.4-0.3c2.7-1.4,5.5-1.1,8.4-0.6
			c3.5,0.5,6.3,2.8,9.8,3.3c1.1,0.1,2.2,0.3,3.2,0.6c0.3,0.1,0.6,0.3,0.8,0.6c0.1,0.4-0.3,0.5-0.6,0.7c-1.2,0.6-2.4,1.1-3.7,1.6
			c-1.5,0.3-2.8,1.3-3.5,2.7c-1.2,2.3-2.8,4.4-3.6,6.9c-0.8,2.6-1.4,5.2-0.6,8c0.1,0.3,0,0.8,0.4,0.9s0.5-0.3,0.7-0.5
			c0.9-1,2.1-1.7,3.5-1.7c1.8-0.2,3.7,0.1,5.3-0.9c4-2.4,8.1-4.4,12.9-4.6c2.7-0.1,3,0,3.1,2.7c0.2,5.5,3,9.4,7.3,12.4
			c0.9,0.5,1.5,1.5,1.3,2.6c-0.2,1.3,0.2,2.7,0.9,3.8c0.3,0.5,0.7,0.9,1.3,0.7s0.4-0.8,0.4-1.2c-0.2-1.8,0.2-3.6,1-5.2
			c1.5-2.9,2.2-6.1,2.1-9.4c0-1.1,0.2-2.2,0.5-3.2c0.2-0.5,0.3-1.1,1.1-0.7c1.9,1,4.1,1.4,5.6,3c3.9,3.8,8.7,6.1,13.5,8.5
			c4.2,2.2,8.5,4.2,11.9,7.6c1.8,1.8,3.5,3.9,6.5,4c0.6,0,1.2,0.7,1.7,1.1c2.2,1.5,3.5,3.9,5.4,5.7s2.6,3.9,3.1,6.4
			c0.9,4.2,0.8,8.6,2.8,12.5c0.4,0.8,0,1.2-0.8,1.6c-1.4,0.4-2.7,1.2-3.7,2.2c-0.8,0.9-0.4,1.6,0.3,1.5c2.2-0.3,3.5,1.2,5.2,2
			c0.9,0.3,1.6,1.2,1.6,2.2c0.2,2.1,0.5,4.1,1,6.2c1.5,6.5,4.6,12.5,5.8,19.1c0.1,0.4,0.5,0.8-0.1,1.3c-0.5-0.3-1-0.8-1.3-1.3
			c-1.6-2.5-3.6-4.8-5.9-6.6c-2-1.7-3.8-3.6-5.4-5.7c-2.1-2.8-4.9-5-8.1-6.4c-3.9-1.5-7.5-3.6-10.7-6.2c-4.6-3.8-9.8-5.8-15.5-7
			c-4-0.9-8.3-1.2-11.8-3.8c-3.3-2.3-7.3-3.5-11.3-3.4c-6.2,0-11.9-2-17.3-4.6c-4-2.1-8.4-3-12.8-2.8c-3.1,0.2-6.2-0.5-9.2,0.5
			c-3.7,1.2-7.3,1.8-11.1,0.7c-1.3-0.3-2.6-0.2-3.8,0.4c1,1.1,2.3,2,3.7,2.5c6.4,2.7,13,4.8,19.6,7.1s13.2,5.5,20.3,6.8
			c5.6,1,10.8,3.4,16.4,4.6c3.6,0.7,6.9,2.4,10.5,3.1c2.9,0.7,5.7,1.9,8.2,3.6c3.1,2,6.5,3.4,9.5,5.5c3.9,2.7,8.2,4.9,11.8,8
			c3.4,2.9,6.3,6.3,9.7,9.3c1.6,1.4,3.4,2.5,4.8,4.2c3.2,3.9,6,8.1,9.1,12.1c0.3,0.4,0.7,0.8,0.5,1.2s-0.8,0.3-1.3,0.3
			c-0.5,0-0.9-0.1-1.3-0.4c-2.2-1.8-4.8-3.1-6.6-5.3c-1.7-2.1-4.2-3.4-6.8-3.8c-4.1-0.6-8.3-0.2-12.5-1c-1.5-0.4-3.1,0.3-3.9,1.7
			c-0.4,0.6-1,0.7-1.6,0.9c-3.3,1.1-6.4,2.6-9.3,4.5c1.5,0.1,3-0.1,4.5-0.4c3-0.9,5.6,0.1,7.8,1.8c2,1.7,4.3,3,6.8,3.7
			c2.2,0.6,4.3,1.7,6.1,3.1c3.6,2.6,6.6,6,10.1,8.7c2.8,2.1,5.3,4.5,8.7,5.9c1.2,0.6,2.2,1.5,3.1,2.5c0.9,1.1,2.2,1.9,3.6,2.2
			c1.3,0.2,2.5,0.9,3.4,1.9c2,2.5,4.1,5.1,5.2,8.2c0.2,0.7,0.9,1.5,0.3,2.1s-1.4-0.1-2.1-0.3c-9.2-3-18.7-4.8-28.3-5.2
			c-5.3-0.3-10.7,0.1-16,0.1c-1.7-0.1-3.4,0.4-4.8,1.3c-1.4,0.9-3.2,1.1-4.8,0.5c-1.2-0.4-2.4-0.5-3.6-0.3c-5.7,1-11.2,2.6-16.5,4.8
			c-14.5,5.9-25.8,15.3-33.3,29.2c-0.3,0.5-1,1.2-0.5,1.7c1.1,1.1,0.3,1.9-0.2,2.8c-0.8,1.1-1.3,2.3-1.5,3.7
			c-0.3,1.5-1.2,2.8-2.4,3.7c-0.7,0.6-1.2,1.4-1.5,2.3c-4,12.6-5,25.5-4.6,38.5c0,0.4,0,0.8,0.2,1c1.8,1.7,0.9,3.7,1,5.7
			s-1.3,3.4-1.3,5.3c0.1,5.9,0,11.9,0,17.8c0,0.5,0,0.9,0.1,1.4c0.2,0.9,0.9,1.6,1.7,2c0.8,0.3,1-0.8,1.3-1.3
			c2.5-3.7,5.1-7.4,7.5-11.1c0.7-1.2,1.9-1.8,3.3-1.7c7,0,13.9,0.2,20.9-0.3c0.8,0,1.6-0.2,2.3-0.6c1.7-1,3.8-1.2,5.6-0.3
			c2.1,0.8,4.4,1.2,6.7,1.3c7.7,0,15.3,0,23,0c2.6-0.1,5.2-0.4,7.7-1c2.8-0.5,5.7-0.5,8.5-0.2c3.5,0.3,7,1.6,10.5,0.5
			c2.7-0.9,5.5-0.6,8.3-0.7c0.8,0,1.8,0,2.3,0.6c0.8,0.7,1.8,1,2.9,0.8c12.7,0,25.4,0,38,0c1.7-0.2,3.3,0.7,4.1,2.2
			c1.1,1.9,2.4,3.6,3.6,5.4c2,2.9,4,5.8,6.3,9.1c0-1.1,0-1.7,0-2.2c-0.3-5.5,0.6-11.1-0.6-16.6c-0.7-3.3,0.7-6.5,0.6-9.8
			c0-4.6,0-9.2,0-13.8c0-4.8,0.3-9.7-0.3-14.5c-0.2-1.3-0.1-3.2-2.4-2.7c-0.3,0-0.6-0.1-0.8-0.3c-0.6-0.9-1.9-1.8-1.5-3
			c0.5-1.3,1-3.1,2.6-3.5c1.1-0.3,0.9-0.6,0.8-1.4c-1.2-6.3-3.3-12.4-6.2-18.1c-2.3-4.6-4.6-9.3-8.9-12.5c-0.5-0.3-0.8-0.8-1.1-1.3
			c-0.9-1.8-2.2-3.4-3.8-4.7c-3.1-2.9-6.6-5.4-10.2-7.5c-0.9-0.6-1.6-1.3-2-2.3c-1.2-2.2-2-4.6-3.5-6.6c-1.1-1.6-2.1-3.2-3-4.9
			c-2.1-4.1-0.4-11.1,3.4-13.8c0.7-0.5,1.3-1,1.8-1.6c1.2-1.7,3.2-2.8,5.4-2.8c2.2-0.1,2.7-0.7,2.9-2.9c0-0.8,0.4-1.5,1-2.1
			c1.7-1.5,2.8-3.6,3-5.9c0.2-2.4,1-4.4,3.8-5.2c1.9-0.6,3.5-2,4.4-3.8c0.4-0.5,0.8-1,1.3-1.4c0.5-0.4,1.1-0.5,1.7-0.5
			c-4.8-0.2-9.5,0.3-14.1,1.5c-1.7,0.4-3.2,1.6-4.1,3.1c-0.8,1.5-2,2.7-3.4,3.7c-1.4,1.1-2.6,2.6-3.3,4.2c-1,2.2-2,4.5-2.9,6.8
			c-0.2,0.4-0.3,0.9-0.8,0.8s-0.5-0.6-0.5-1c-0.1-1.6,0-3.2,0.3-4.9c0.5-5.3,0.7-10.7,1.5-16c0.7-4.8,1.5-9.6,2.1-14.4
			c0.6-4.7,1.7-9.3,3.4-13.8c1.4-3.7,3.7-6.8,5.6-10.2c1.3-2.3,3.2-4.2,5.4-5.5c1.3-0.8,2.9-0.8,3.9-1.5c1.8-1.2,3-0.8,4.4,0.2
			c0.6,0.4,1.3,0.7,2,1c1.9,0.6,3.5,1.9,4.5,3.6c0.4,0.7,1.1,1.2,1.9,1.4c3.6,1.1,6.9,3.2,9.3,6.1c0.6,0.7,1.4,1.4,2.1,2
			c0.4,0.4,1.1,0.6,1.6,0.3c1.1-0.5,2.4-2.8,2-4c-0.4-1.7-1.1-3.3-2-4.8c-2.5-3.6-5.3-7-7.4-10.9c-0.3-0.6-0.9-1.1-1.6-1.3
			c-3.4-0.7-6.1-2.6-9.1-4.2c-1-0.5-2.1-0.7-3.2-0.5c-3.2,0.6-5.6,2.2-6.9,5.4c-0.7,2.1-2.4,3.6-4.6,4.1c-1.4,0.2-2.7,1.1-3.3,2.3
			c-1.3,2.4-3,4.6-5.1,6.3c-1.5,1.2-2.5,2.9-2.9,4.8c-0.2,2-0.9,3.9-2,5.5c-0.9,1.3-1.4,2.8-1.5,4.4c-0.1,2.4-0.7,4.8-1.7,7
			c-0.8,1.9-1.2,3.8-1.3,5.9c0,5.6-1,11.2-0.9,16.9c0,1.6,0.7,3.2,0.6,4.7c-0.1,3.1-0.4,6.2-0.9,9.3c0,0.3,0,0.8-0.4,0.8
			s-0.5-0.4-0.6-0.7c-0.5-1-0.7-2.2-0.7-3.3c0-1.7,0.2-3.6-0.4-5.2c-1.2-2.8-1.2-5.9-2-8.8c-1.1-4.1-0.4-8.3-1-12.5
			c-0.4-1.6-0.6-3.2-0.6-4.8c0.3-3.5,0-7-0.6-10.4c-0.5-3.4,0.9-5.8,2.9-7.9c2.2-2.3,4.5-4.5,5.9-7.3c0.4-0.7,0.6-1.5,0.5-2.3
			c-0.1-0.7-0.4-1.1-1.2-0.8c-1.2,0.4-2.5,0.5-3.8,0.5c-1,0-1.9,0.5-2.5,1.4c-0.5,0.7-0.5,2.1-1.6,1.8c-1.3-0.3-0.4-1.6-0.6-2.4
			v-0.2c-1-6.5-2.4-12.9-4.1-19.2c-0.3-0.6-0.4-1.3-0.2-2c0.8-2.3,0.7-4.9-0.2-7.1c-0.3-0.7-0.5-1.5-0.6-2.3
			c0-5.5-1.4-10.8-4.1-15.6c-1.4-2.6-2-5.9-4.5-7.7c-1.9-1.3-1.9-2.7-1.5-4.7c0.3-2.2,1.4-4.2,3-5.7c1.4-1.2,2.7-2.5,4.1-3.7
			c1.5-1.5,3.7-2.1,5.8-1.6c3.5,1,7.3,0.8,10.8-0.4c2.7-1.3,5.9-1.1,8.6,0.4c1.8,0.9,3.4,2.1,4.8,3.5c0.5,0.6,1.1,1.1,1.6,1.6
			c-0.7-1.7-1.7-3.2-3-4.5c-4.9-5.3-11.1-8.5-17.7-11.2c-1.4-0.6-3-0.6-4.4,0c-1.6,0.7-3.3,1-5.1,1c-1.7-0.1-3.5-0.3-5.2-0.3
			c-2.6,0-4.8,1.4-7.1,2.2c-4.9,1.8-6.8,4.9-7.2,10.6c-0.1,2.3,0.1,4.6-0.8,6.9c-1,2.7-0.7,5.5-0.3,8.2c0.6,3.8,2.3,7.5,2.1,11.4
			c-0.2,5.1,0.5,10.2,2,15.1c0.2,0.5,0.4,1.1-0.3,1.6c-1.2-1.6-2.5-3.1-3.9-4.4c-1.4-1.4-2.6-3.1-3.4-5c-0.5-1-1.2-1.9-2.1-2.5
			c-1.9-1.4-3.6-2.9-5.1-4.7c-0.8-0.7-1.3-1.8-1.3-2.9c0-2.8-0.6-5.6-1.7-8.2c-2.3-5.6-5.2-11-8.4-16.2c-2.3-3.6-2.2-6,0.9-8.8
			c2.3-2.2,2.7-4.8,1.9-7.6c-1.1-4-0.5-5.7,3-7.9c2.7-1.7,5.2-3.6,5.8-7.1c0.5-3,2.3-4.5,5-5.3c1.3-0.4,2.7-1,4-1.5l-0.1-0.4
			c-1.3,0-2.5-1-4,0c-0.9,0.6-2,0.6-3,0.1c-1.7-0.8-3.6-0.9-5.5-0.5c-3.4,1-6.9,1.8-10.5,2.4c-1.7,0.2-3.2,1.1-4.4,2.3
			c-1.1,1.2-2.1,2.5-3.1,3.7c-0.3,0.3-0.4,1-1,0.7c-0.4-0.2-0.5-0.7-0.4-1.1c0.4-3.2,0.2-6.4,1.3-9.4c1.1-3,2.4-5.8,4.1-8.5
			c0.7-1.1,1.4-2.3,2-3.5c0.2-0.4,0.6-0.8,0-1.2C92.2-0.2,88.4,0.1,88.1,0.5z M110.2,236.6c2.4,0.1,4.9,0.1,7.3,0
			c4.2-0.1,8.4,0.3,12.5,0.5c0.2,0.1,0.5,0.1,0.7,0c4-1.5,7.9,0.3,11.5,1.3c4,1.1,8.1,2.3,12,3.8c6.4,2.4,12.5,5.3,17.6,10
			c6.6,6.2,11.6,13.5,13.3,22.6c0.4,1.8,0.5,3.6,0.4,5.4c-0.1,1.2-0.6,1.8-2,1.8c-3.9-0.1-7.8,0-11.7,0H46.4c-2.6,0-2.5,0-2.6-2.5
			c-0.3-8.5,3.3-15.7,8.4-22.2c2.6-3.3,4.9-6.9,6.9-10.6c0.7-1.3,1.4-1.6,2.7-0.9c1.1,0.6,2.5,0.6,3.6-0.1
			c7.2-3.4,14.5-6.3,22.3-7.7C95.1,236.5,102.7,236,110.2,236.6z"/>
		<path class="st0" d="M194.8,344.9c2.4-0.1,2.4,0,2.4,2.4v27.9c0,0.9-0.1,1.7-0.4,2.5c-2,3.9-1.9,8.5,0.1,12.4
			c0.2,0.5,0.4,1.1,0.3,1.7v49.4c0,0.3,0,0.6-0.1,1.3c-1.8-2.7-3.3-5.1-4.8-7.5c-1.3-2-2.6-4-3.8-6c-0.5-1-1.6-1.6-2.7-1.5
			c-8.4,0-16.9,0-25.3,0c-2.2,0-4.1-0.7-6.1-1.1c-1.1-0.2-1.2-1.1-1.2-2c0-0.6,0.2-1.4-0.6-1.7c-0.8-0.3-1.7,0-2.1,0.7
			c-0.8,1.1-2,1.8-3.4,2c-2.6,0.6-5.4,0.6-8,1.2c-9.1,1.9-18.1,0.6-27.2,0.9s-18.4,0-27.6,0s-18.3,0-27.4,0c-1.3,0-2.4-0.1-3.3-1.2
			c-0.4-0.5-1-0.7-1.6-0.6c-2.5,0.6-5,0.1-7.5,0.4s-3.8,0.8-3.4,3.5c0,0.4,0,0.8-0.2,1.2c-2.5,3.7-5,7.4-7.7,11.2
			c-0.4-0.8-0.6-1.7-0.5-2.6c0-18.3,0-36.5,0-54.8c0-2,0.9-3.8,0.7-5.9c-0.1-0.4,0.2-0.8,0.7-0.9c0.6-0.1,0.8,0.4,1,0.8
			c1.8,3,3.7,6,5.4,9.1c0.6,1.3,1.8,2.1,3.2,2c5.1-0.1,10.2,0,15.4-0.1c2.7,0,5.3,0.4,7.9,1.3c1.9,0.6,4,0.6,5.9-0.1
			c1.9-0.7,4-1.1,6.1-1.1c12.4-0.1,24.8-0.1,37.2,0c2.2,0,4.4,0.1,6.4,1.7c1.2,1,3.1,0.7,4.4-0.4c1.5-1.3,3.2-1.4,5-1.4
			c17.5,0,35,0,52.5,0c2.4,0,2.4,0,2.4-2.4c0-6-0.1-12,0.1-18c0.2-1.4-0.7-2.7-2.1-3c-18.4-6.9-36.8-13.8-55.3-20.8
			c-0.6-0.2-1.1-0.5-1.5-0.9c6.8,0,13.7,0.2,20.5,0c4.2-0.1,8.3,1.2,12.5,0.7C172.4,344.1,183.6,345.1,194.8,344.9z"/>
		<path class="st0" d="M197.3,458.7v34.5c0.1,0.7-0.2,1.4-0.7,1.8c-1.9,1.6-2.2,3-1,5.1c1.3,2.1,1.9,4.5,1.7,7
			c-0.1,1-0.6,1.9-0.7,2.9c-0.1,1.4,0.5,2.6,0.6,3.9c0.2,3,0.1,6,0.1,9.5c-2.1-2.5-3.8-4.7-5.6-6.8c-1.4-1.7-2.8-3.3-4-5
			c-0.7-1-1.9-1.6-3.1-1.5c-21.3,0-42.7,0-64,0.1c-1.9,0-3.7-0.5-5.2-1.6c-1.3-0.9-2.8-0.5-4.2-0.3c-2.3,0.3-4.5,0.7-6.9,0
			c-1.9-0.6-4-0.4-5.7,0.5c-2.1,1-4.4,1.5-6.7,1.4c-16.1,0-32.2,0-48.3,0c-1.3-0.1-2.5,0.6-3,1.7c-1.4,2.6-3,5.1-4.5,7.6
			c-0.3,0.5-0.5,1.3-1.4,1c-0.7-0.2-0.5-0.9-0.7-1.5c-2-5.6-0.7-11.4-1-17.1s0-11.6-0.1-17.5c0-2.2,0.8-4.1,1.4-6
			c0.4-1.2,0.3-2.5-0.5-3.4c-0.7-0.9-1-2-0.9-3.1c0-3.9,0-7.9,0-11.8c0.8,0,0.9,0.5,1.1,0.9c1.9,3.1,3.8,6.1,5.6,9.3
			c0.6,1.4,2,2.2,3.4,2c4.9-0.1,9.8-0.2,14.6,0c3.3,0.2,6.5,1.2,9.7-0.1h66.4c1.9,0,3.7,0.4,5.4,1.3c1.4,0.7,3.1,0.8,4.5,0.2
			c1.2-0.4,2.4-0.7,3.7-0.9c0.8-0.2,1.6,0.1,2.2,0.7c0.7,0.7,1.6,1.2,2.6,1.5c0.9,0.2,1.7,0.2,2-0.9c0.4-1.6,1.5-1.8,2.9-1.8
			c8.9,0,17.8,0,26.7,0c1.3,0.1,2.6-0.5,3.4-1.5C190.3,466.8,193.7,463,197.3,458.7z"/>
	</g>
</g>
</svg>
