<?xml version="1.0" encoding="utf-8"?>
<!-- Generator: Adobe Illustrator 23.0.1, SVG Export Plug-In . SVG Version: 6.00 Build 0)  -->
<svg version="1.1" id="Layer_1" xmlns="http://www.w3.org/2000/svg" xmlns:xlink="http://www.w3.org/1999/xlink" x="0px" y="0px"
	 viewBox="0 0 222 948.3" style="enable-background:new 0 0 222 948.3;" xml:space="preserve">
<style type="text/css">
	.st0{fill:#FFFFFF;}
</style>
<title>ACS_White</title>
<g>
	<g id="Layer_1-2">
		<path class="st0" d="M1.8,804.5c-0.1-1,0.6-1.8,1.6-1.9l116.1-21c0.2,0,0.5,0,0.7,0l0.8,0.2c0.6,0.1,1.2,0.5,1.7,1
			c0.4,0.5,0.7,1.1,0.7,1.8v29.9c0.1,0.9-0.5,1.7-1.4,1.9c-0.1,0-0.1,0-0.2,0l-17.4,3.1v38.9l17.4,9.9c1,0.4,1.6,1.4,1.6,2.5v29.8
			c0,0.6-0.2,1.2-0.7,1.6c-0.5,0.4-1.1,0.5-1.7,0.4l-0.8-0.2c-0.3-0.1-0.6-0.2-0.8-0.3l-116-65c-1-0.5-1.6-1.4-1.6-2.5L1.8,804.5z
			 M74.5,841.6v-16.8L52,829.1L74.5,841.6z"/>
		<path class="st0" d="M2.4,664.3c-0.4-0.5-0.6-1.1-0.6-1.7v-30.9c0-0.6,0.2-1.1,0.7-1.5c0.5-0.4,1.2-0.5,1.8-0.3L121,652.1
			c0.7,0.1,1.3,0.5,1.8,1c0.4,0.5,0.7,1.1,0.7,1.8v29.4c0,0.6-0.2,1.1-0.7,1.5c-0.5,0.4-1.2,0.5-1.8,0.3l-59-11.2l38.1,16.3
			c1.1,0.4,1.9,1.5,1.8,2.7v30.6c0,1.3-0.6,2-1.8,2L62,728.3l59,11.2c0.7,0.1,1.3,0.5,1.8,1.1c0.4,0.5,0.7,1.2,0.7,1.8v29.3
			c0,0.6-0.2,1.2-0.7,1.6c-0.5,0.4-1.2,0.5-1.8,0.3L4.2,751.5c-0.7-0.1-1.3-0.5-1.8-1c-0.4-0.5-0.7-1.2-0.7-1.9v-30.8
			c0-0.6,0.2-1.1,0.6-1.5c3.3-2.7,9.3-5.4,17.9-8.1c7.7-2.5,15.6-4.5,23.5-6.1l10.5-2c-1.1-0.6-2.5-1.4-4.4-2.5
			c-1.9-1.1-5.4-3.2-10.5-6.2c-5.1-3.1-9.7-6-14-8.8s-8.7-5.9-13.2-9.4C8.7,670.7,5.4,667.7,2.4,664.3z"/>
		<path class="st0" d="M123.4,643.5c0,0.6-0.2,1.2-0.7,1.6c-0.5,0.4-1.2,0.5-1.8,0.3L4.2,623.3c-0.7-0.1-1.3-0.5-1.8-1
			c-0.4-0.5-0.7-1.2-0.7-1.9v-71.4c0-0.6,0.2-1.2,0.7-1.6c0.5-0.4,1.2-0.6,1.8-0.4l24.2,4.6c0.7,0.1,1.3,0.5,1.7,1
			c0.5,0.5,0.7,1.2,0.7,1.8v39.6l17.3,3.3v-34.3c0-0.6,0.2-1.1,0.7-1.5c0.5-0.4,1.1-0.5,1.6-0.3l24.3,4.6c0.7,0.1,1.2,0.5,1.7,1
			c0.4,0.5,0.7,1.1,0.7,1.8V603l17.4,3.3v-39.7c0-0.6,0.2-1.2,0.7-1.6c0.4-0.4,1.1-0.6,1.6-0.4l24.2,4.6c0.7,0.1,1.3,0.5,1.8,1.1
			c0.4,0.5,0.6,1.2,0.7,1.8L123.4,643.5z"/>
		<path class="st0" d="M81.7,472.7c10.8-7.4,24.5-9.8,41.1-7.2c0.7,0.1,1.3,0.5,1.7,1c0.5,0.5,0.7,1.2,0.7,1.9v31.5
			c0,0.6-0.2,1.1-0.7,1.5c-0.5,0.4-1.1,0.5-1.6,0.4c-9.8-1.5-17.3-0.4-22.6,3.2c-5.2,3.6-8.1,9.3-8.7,17.3l31.1,5.9
			c0.7,0.1,1.3,0.5,1.7,1c0.5,0.5,0.7,1.2,0.7,1.8v29.3c0,0.6-0.2,1.2-0.7,1.6c-0.5,0.4-1.1,0.5-1.7,0.3L4.2,539.9
			c-0.7-0.1-1.3-0.5-1.8-1c-0.4-0.5-0.7-1.2-0.7-1.9v-57.6c-0.1-4.7,0.8-9.3,2.7-13.6c1.8-3.9,4.5-7.4,8-9.9c4-2.9,8.8-4.6,13.7-5.2
			c6.4-0.8,12.9-0.5,19.2,0.8C61.9,454.6,74,461.7,81.7,472.7z M33.4,511.2l25.9,4.9c0.7,0.1,1.1-0.1,1.1-0.9v-14
			c0-3.6-1.4-7-3.8-9.7c-2.7-2.9-6.3-4.9-10.2-5.5c-4.3-0.8-7.7-0.3-10.2,1.6c-2.6,1.9-4,5-3.8,8.2v14
			C32.3,510.6,32.8,511.2,33.4,511.2z"/>
		<path class="st0" d="M123.4,427.3v29.3c0,0.6-0.2,1.2-0.7,1.6c-0.5,0.4-1.2,0.5-1.8,0.3L4.2,436.4c-0.7-0.1-1.3-0.5-1.8-1
			c-0.4-0.5-0.7-1.2-0.7-1.9v-29.3c0-0.6,0.2-1.2,0.7-1.6c0.5-0.4,1.2-0.5,1.8-0.3L121,424.4c0.7,0.1,1.3,0.5,1.8,1.1
			C123.2,426,123.4,426.7,123.4,427.3z"/>
		<path class="st0" d="M81.3,320.7l18.7-19.9c0.4-0.4,1-0.6,1.6-0.5c0.6,0,1.3,0.3,1.7,0.8c7.3,7.3,13.2,15.8,17.4,25.2
			c4.1,9.1,6.3,19,6.3,29c0.1,8.2-1.6,16.4-5,23.9c-3.1,6.9-7.7,13-13.5,17.8c-5.9,4.8-12.9,8.1-20.3,9.8c-8.1,1.9-16.5,2-24.7,0.4
			c-8.8-1.7-17.1-5-24.7-9.7c-15.4-9.4-27.3-23.6-33.8-40.4c-3.3-8.2-5-16.9-5-25.8c-0.2-9.2,2-18.4,6.3-26.5
			c4-7.6,10-14.1,17.3-18.6c0.6-0.3,1.2-0.3,1.8-0.1c0.6,0.2,1.2,0.6,1.6,1.2l18.5,27c0.4,0.5,0.6,1.1,0.5,1.7
			c0,0.6-0.3,1.1-0.8,1.4c-3.2,2.3-5.9,5.3-7.8,8.8c-2,3.6-3,7.7-3,11.8c0,8.1,2.8,15.5,8.5,22.3c5.2,6.4,12.4,10.8,20.5,12.3
			c8,1.5,14.8,0,20.5-4.6s8.5-11,8.5-19.1c-0.1-4.5-1.1-8.9-3-13c-2-4.4-4.6-8.3-7.9-11.8c-0.5-0.4-0.7-1-0.8-1.7
			C80.8,321.6,81,321.1,81.3,320.7z"/>
		<path class="st0" d="M1.8,204.5c-0.1-1,0.6-1.8,1.6-1.9c0,0,0,0,0,0l116.1-21c0.2,0,0.5,0,0.7,0l0.8,0.2c0.7,0.1,1.2,0.5,1.7,1
			c0.4,0.5,0.7,1.1,0.7,1.8v29.9c0.1,0.9-0.5,1.7-1.4,1.9c-0.1,0-0.1,0-0.2,0l-17.4,3.2v38.9l17.4,9.9c1,0.4,1.6,1.4,1.6,2.5v29.8
			c0,0.6-0.2,1.2-0.7,1.6c-0.5,0.4-1.1,0.5-1.7,0.4l-0.8-0.2c-0.3-0.1-0.6-0.2-0.8-0.3l-116-65c-1-0.5-1.6-1.4-1.6-2.5L1.8,204.5z
			 M74.5,241.6v-16.8L52,229.1L74.5,241.6z"/>
		<path class="st0" d="M4.2,80c-0.7-0.1-1.3-0.5-1.8-1c-0.4-0.5-0.7-1.1-0.7-1.8V47.8c0-0.6,0.2-1.2,0.7-1.6
			c0.5-0.4,1.1-0.6,1.8-0.4L121,68c0.7,0.1,1.3,0.5,1.7,1c0.5,0.5,0.7,1.2,0.7,1.8v30.4c0.1,0.8-0.4,1.6-1.2,1.8l-67.4,25.3L121,141
			c0.7,0.1,1.3,0.5,1.8,1.1c0.4,0.5,0.7,1.2,0.7,1.8v29.3c0,0.6-0.2,1.2-0.7,1.6c-0.5,0.4-1.2,0.5-1.8,0.3L4.2,153
			c-0.7-0.1-1.3-0.5-1.8-1c-0.4-0.5-0.7-1.2-0.7-1.9v-30.4c-0.1-0.8,0.4-1.5,1.1-1.7l61.4-26.5L4.2,80z"/>
		<path class="st0" d="M191,888.8l12.6-13.6c0.3-0.3,0.7-0.4,1.1-0.4c0.4,0,0.9,0.2,1.2,0.5c4.9,4.9,8.9,10.7,11.8,17.1
			c2.8,6.2,4.3,12.9,4.3,19.7c0,5.6-1.1,11.1-3.4,16.2c-2.1,4.7-5.2,8.9-9.1,12.2c-4,3.3-8.7,5.6-13.8,6.7
			c-5.5,1.3-11.2,1.4-16.7,0.3c-5.9-1.1-11.6-3.3-16.7-6.5c-10.4-6.4-18.5-16-22.9-27.3c-2.2-5.6-3.4-11.5-3.4-17.5
			c-0.1-6.3,1.4-12.5,4.3-18.1c2.7-5.2,6.7-9.6,11.7-12.7c0.4-0.2,0.8-0.2,1.2-0.1c0.4,0.1,0.8,0.4,1.1,0.8l12.5,18.3
			c0.3,0.3,0.4,0.8,0.4,1.2c0,0.4-0.2,0.7-0.5,0.9c-2.2,1.6-4,3.6-5.3,6c-1.4,2.4-2.1,5.2-2.1,8c0,5.6,2.1,11,5.8,15.2
			c3.5,4.4,8.4,7.3,13.9,8.4c5.4,1,10.1-0.1,13.9-3.2s5.8-7.5,5.8-13c0-3.1-0.7-6.1-2.1-8.8c-1.3-2.9-3.1-5.6-5.4-8
			c-0.3-0.3-0.5-0.7-0.5-1.1C190.6,889.5,190.8,889.1,191,888.8z"/>
		<path class="st0" d="M137.1,810.6c-0.1-0.7,0.4-1.2,1-1.3c0,0,0,0,0,0l78.7-14.8c0.2,0,0.3,0,0.5,0l0.6,0.1
			c0.4,0.1,0.8,0.3,1.1,0.7c0.3,0.3,0.4,0.8,0.4,1.2v20.4c0.1,0.6-0.4,1.2-1,1.3c0,0-0.1,0-0.1,0l-11.8,2.2v26.5l11.8,6.6
			c0.7,0.3,1.1,1,1.1,1.7v20.3c0,0.4-0.1,0.8-0.4,1.1c-0.3,0.2-0.7,0.3-1.1,0.3l-0.6-0.1c-0.2,0-0.4-0.1-0.6-0.2l-78.6-43.8
			c-0.7-0.3-1.1-1-1.1-1.7V810.6z M186.4,835.6v-11.4l-15.3,3L186.4,835.6z"/>
		<path class="st0" d="M138.8,727.3c-0.5-0.1-0.9-0.3-1.2-0.7c-0.3-0.3-0.4-0.8-0.4-1.2v-20c0-0.4,0.2-0.8,0.4-1.1
			c0.3-0.3,0.8-0.4,1.2-0.3l79.1,14.6c0.5,0.1,0.9,0.3,1.2,0.7c0.3,0.3,0.5,0.8,0.5,1.3v20.7c0,0.6-0.3,1.1-0.8,1.3L173.1,760
			l44.9,8.3c0.5,0.1,0.9,0.3,1.2,0.7c0.3,0.4,0.4,0.8,0.4,1.2v19.9c0,0.4-0.1,0.8-0.4,1.1c-0.3,0.3-0.8,0.3-1.2,0.2l-79.1-14.6
			c-0.5-0.1-0.9-0.3-1.2-0.7c-0.3-0.4-0.5-0.8-0.4-1.3v-20.7c-0.1-0.5,0.2-1,0.7-1.2l41.6-18.3L138.8,727.3z"/>
		<path class="st0" d="M191,648l12.6-13.6c0.3-0.3,0.7-0.4,1.1-0.4c0.4,0,0.9,0.2,1.2,0.5c4.9,4.9,8.9,10.7,11.8,17.1
			c2.8,6.2,4.3,12.9,4.3,19.7c0.1,5.6-1.1,11.1-3.4,16.3c-2.1,4.7-5.2,8.9-9.1,12.2c-4,3.3-8.7,5.6-13.8,6.7
			c-5.5,1.3-11.2,1.4-16.7,0.3c-5.9-1.1-11.6-3.3-16.7-6.5c-10.4-6.3-18.5-16-22.9-27.3c-2.2-5.6-3.4-11.5-3.4-17.5
			c-0.1-6.3,1.4-12.5,4.3-18.1c2.7-5.2,6.7-9.6,11.7-12.7c0.4-0.2,0.8-0.2,1.2-0.1c0.4,0.1,0.8,0.4,1.1,0.8l12.5,18.3
			c0.3,0.3,0.4,0.8,0.4,1.2c0,0.4-0.2,0.7-0.5,0.9c-2.2,1.6-4,3.6-5.3,6c-1.4,2.4-2.1,5.2-2.1,8c0,5.6,2.1,11,5.8,15.2
			c3.5,4.4,8.4,7.3,13.9,8.4c5.4,1,10.1-0.1,13.9-3.2s5.8-7.5,5.8-13c0-3.1-0.7-6.1-2.1-8.8c-1.3-2.9-3.1-5.6-5.4-8
			c-0.3-0.3-0.5-0.7-0.5-1.1C190.6,648.7,190.8,648.3,191,648z"/>
		<path class="st0" d="M219.6,631.9c0,0.4-0.1,0.8-0.4,1.1c-0.3,0.3-0.8,0.3-1.2,0.2l-79.1-14.6c-1-0.1-1.7-1-1.6-2v-48.5
			c0-0.4,0.1-0.8,0.4-1.1c0.3-0.3,0.8-0.4,1.2-0.3l16.4,3c0.5,0.1,0.9,0.3,1.2,0.7c0.3,0.3,0.5,0.8,0.5,1.3v27l11.7,2.2v-23.3
			c0-0.4,0.2-0.8,0.4-1c0.3-0.3,0.7-0.3,1.1-0.3l16.5,3c0.4,0.1,0.8,0.3,1.1,0.7c0.3,0.3,0.4,0.8,0.4,1.2v23.3l11.8,2.2v-27
			c0-0.4,0.2-0.8,0.4-1.1c0.3-0.3,0.7-0.4,1.1-0.3l16.4,3c0.5,0.1,0.9,0.3,1.2,0.7c0.3,0.4,0.4,0.8,0.4,1.2L219.6,631.9z"/>
		<path class="st0" d="M191.3,516.2c7.3-5.1,16.6-6.8,27.9-5c0.4,0.1,0.9,0.3,1.1,0.7c0.3,0.4,0.5,0.8,0.5,1.3v21.4
			c0,0.4-0.2,0.8-0.5,1c-0.3,0.3-0.7,0.3-1.1,0.3c-6.7-0.9-11.8-0.2-15.3,2.3c-3.5,2.5-5.5,6.4-5.9,11.8l21.1,3.9
			c0.5,0.1,0.9,0.3,1.1,0.7c0.3,0.3,0.5,0.8,0.5,1.3v20c0,0.4-0.2,0.8-0.5,1.1c-0.3,0.2-0.7,0.3-1.1,0.2l-80.4-14.8
			c-0.5-0.1-0.9-0.3-1.2-0.7c-0.3-0.4-0.5-0.8-0.4-1.3V521c-0.1-3.2,0.6-6.3,1.8-9.3c1.2-2.7,3.1-5,5.4-6.8c2.7-2,5.9-3.2,9.3-3.6
			c4.3-0.5,8.7-0.4,13,0.5C177.8,504,186.1,508.7,191.3,516.2z M158.5,542.6l17.6,3.2c0.5,0.1,0.8-0.1,0.8-0.6v-9.5
			c0-2.4-0.9-4.8-2.6-6.5c-1.8-2-4.3-3.3-6.9-3.7c-2.9-0.5-5.2-0.1-6.9,1.2c-1.7,1.3-2.7,3.4-2.6,5.6v9.5
			C157.8,542.1,158.1,542.5,158.5,542.6C158.5,542.6,158.5,542.6,158.5,542.6z"/>
		<path class="st0" d="M139.9,404.3l16.1,4.5c0.5,0.2,0.9,0.5,1.1,0.9c0.3,0.4,0.4,0.8,0.3,1.3c-1.2,4.8-1.8,9.8-1.9,14.8
			c-0.1,1.7,0.2,3.4,0.7,5c0.4,1.2,1.1,2.4,2,3.3c0.7,0.6,1.4,1.1,2.1,1.6c0.5,0.3,1.1,0.5,1.6,0.6c0.6,0.1,1.2,0.1,1.8,0
			c0.9-0.2,1.7-0.5,2.5-0.9c1.2-0.7,2.2-1.6,2.9-2.8c1-1.6,1.8-3.4,2.2-5.3c0.6-2.4,1.7-4.8,3.1-6.8c1.5-2.2,3.3-4.1,5.4-5.7
			c2.4-1.7,5.1-2.9,8-3.4c3.4-0.6,7-0.6,10.4,0.1c8,1.5,13.9,5.1,17.9,10.7c3.9,5.7,5.9,14.1,5.9,25.1c0,5.8-0.3,11.6-1,17.4
			c0,0.4-0.3,0.7-0.6,0.9c-0.3,0.2-0.8,0.3-1.2,0.2l-16.1-4.5c-0.5-0.1-0.9-0.5-1.2-0.9c-0.3-0.4-0.4-0.9-0.3-1.4
			c1.1-4.7,1.7-9.4,1.8-14.2c0.1-1.7-0.2-3.4-0.7-5c-0.4-1.2-1.1-2.3-2-3.2c-0.7-0.6-1.4-1.1-2.1-1.5c-1.1-0.6-2.3-0.9-3.5-0.7
			c-0.9,0.2-1.7,0.4-2.5,0.8c-1.2,0.6-2.2,1.6-2.9,2.8c-1,1.6-1.8,3.4-2.2,5.3c-0.6,2.5-1.6,4.8-3,6.9c-1.5,2.2-3.3,4.1-5.4,5.6
			c-2.4,1.7-5.1,2.9-8,3.4c-3.4,0.6-7,0.6-10.4-0.1c-7.3-1.1-13.7-5.4-17.6-11.6c-4-6.3-6.1-14.4-6.1-24.2c0-6,0.4-12,1-17.9
			c0.1-0.4,0.3-0.7,0.6-0.9C139.1,404.3,139.5,404.2,139.9,404.3z"/>
		<path class="st0" d="M139.3,372.4c-2.2-5.6-3.4-11.6-3.4-17.6c-0.1-5.6,1.1-11.2,3.4-16.4c4.2-9.6,12.7-16.7,22.9-19.1
			c5.5-1.3,11.2-1.5,16.7-0.4c5.9,1.1,11.6,3.3,16.7,6.6c5.2,3.2,9.9,7.2,13.8,11.9c3.9,4.7,7,10,9.1,15.7
			c2.2,5.6,3.4,11.6,3.4,17.6c0.1,5.6-1.1,11.2-3.4,16.4c-4.1,9.7-12.7,16.8-22.9,19.1c-5.5,1.3-11.2,1.5-16.7,0.4
			c-5.9-1.1-11.6-3.3-16.7-6.5C151.8,393.6,143.7,383.9,139.3,372.4L139.3,372.4z M192.8,379.5c3.8-3.2,5.8-7.6,5.8-13.1
			c-0.3-11.5-8.5-21.3-19.7-23.7c-5.4-1-10.1,0.1-13.9,3.3c-3.9,3.2-5.8,7.6-5.8,13.1c0.3,11.5,8.5,21.3,19.7,23.7
			C184.4,383.8,189,382.7,192.8,379.5z"/>
		<path class="st0" d="M191,255.5l12.6-13.6c0.3-0.3,0.7-0.4,1.1-0.4c0.4,0,0.9,0.2,1.2,0.5c4.9,4.9,8.9,10.7,11.8,17.1
			c2.8,6.2,4.3,12.9,4.3,19.7c0.1,5.6-1.1,11.1-3.4,16.2c-2.1,4.7-5.2,8.9-9.1,12.2c-4,3.3-8.7,5.6-13.8,6.7
			c-5.5,1.3-11.2,1.4-16.7,0.3c-5.9-1.1-11.6-3.3-16.7-6.5c-10.4-6.4-18.5-16-22.9-27.3c-2.2-5.6-3.4-11.5-3.4-17.5
			c-0.1-6.3,1.4-12.5,4.3-18.1c2.7-5.2,6.7-9.6,11.7-12.7c0.4-0.2,0.8-0.2,1.2-0.1c0.4,0.1,0.8,0.4,1.1,0.8l12.5,18.3
			c0.3,0.3,0.4,0.8,0.4,1.2c0,0.4-0.2,0.7-0.5,0.9c-2.2,1.6-4,3.6-5.3,6c-1.4,2.4-2.1,5.2-2.1,8c0,5.6,2.1,11,5.7,15.1
			c3.5,4.4,8.4,7.3,13.9,8.4c5.4,1,10.1-0.1,13.9-3.2s5.8-7.5,5.8-13c0-3.1-0.7-6.1-2.1-8.8c-1.3-2.9-3.1-5.6-5.4-8
			c-0.3-0.3-0.5-0.7-0.5-1.1C190.6,256.1,190.8,255.7,191,255.5z"/>
		<path class="st0" d="M219.6,218.6v19.9c0,0.4-0.1,0.8-0.4,1.1c-0.3,0.3-0.8,0.3-1.2,0.2l-79.1-14.6c-1-0.1-1.7-1-1.6-2v-19.9
			c0-0.4,0.2-0.8,0.4-1.1c0.3-0.3,0.8-0.4,1.2-0.3l79.1,14.6c0.5,0.1,0.9,0.3,1.2,0.7C219.4,217.7,219.6,218.2,219.6,218.6z"/>
		<path class="st0" d="M219.6,211.5c0,0.4-0.1,0.8-0.4,1.1c-0.3,0.3-0.8,0.3-1.2,0.2l-79.1-14.6c-0.5-0.1-0.9-0.3-1.2-0.7
			c-0.3-0.4-0.5-0.8-0.4-1.3v-48.5c0-0.4,0.1-0.8,0.4-1.1c0.3-0.3,0.8-0.4,1.2-0.3l16.4,3c0.5,0.1,0.9,0.3,1.2,0.7
			c0.3,0.3,0.5,0.8,0.5,1.3v27l11.7,2.2v-23.3c0-0.4,0.2-0.8,0.4-1c0.3-0.2,0.7-0.3,1.1-0.3l16.5,3c0.4,0.1,0.8,0.3,1.1,0.7
			c0.3,0.3,0.4,0.8,0.4,1.2v23.3l11.8,2.2v-27c0-0.4,0.2-0.8,0.4-1.1c0.3-0.3,0.7-0.4,1.1-0.3l16.4,3c0.5,0.1,0.9,0.3,1.2,0.7
			c0.3,0.4,0.4,0.8,0.4,1.2L219.6,211.5z"/>
		<path class="st0" d="M138.8,79.7l16.4,3c0.4,0.1,0.8,0.3,1.1,0.7c0.3,0.4,0.4,0.8,0.4,1.2v18.1l61.2,11.3c0.5,0.1,0.9,0.3,1.2,0.7
			c0.3,0.4,0.4,0.8,0.4,1.2v20c0,0.4-0.2,0.8-0.4,1c-0.3,0.3-0.8,0.3-1.2,0.2L156.7,126v18.2c0,0.4-0.1,0.8-0.4,1.1
			c-0.3,0.2-0.7,0.3-1.1,0.3l-16.4-3c-1-0.1-1.7-1-1.6-2V81.1c0-0.4,0.1-0.8,0.4-1.1C137.9,79.7,138.3,79.6,138.8,79.7z"/>
		<path class="st0" d="M169,43.1L169,43.1c0-0.5,0-0.9,0-1.3c-0.1-0.7-0.3-1.5-0.6-2.1c-0.4-1.1-0.9-2-1.6-2.9
			c-1-1.2-2.1-2.3-3.3-3.3c-1.6-1.4-3.4-2.6-5.3-3.5c-2.6-1.3-5.3-2.4-8.1-3.3c-3.7-1.2-7.5-2.2-11.3-3c-0.4-0.1-0.8-0.3-1.1-0.7
			c-0.3-0.3-0.4-0.8-0.4-1.2V1.3c0-0.4,0.2-0.8,0.5-1c0.3-0.2,0.8-0.3,1.2-0.2c4.2,0.8,8.4,1.9,12.5,3.2c3.5,1.1,6.9,2.6,10.2,4.3
			c2.8,1.5,5.4,3.1,8,5c2.2,1.5,4.2,3.3,6.1,5.2c1.5,1.6,2.9,3.3,4.3,5c1.1,1.4,2.1,3,3,4.6c0.7,1.4,1.3,2.7,1.7,3.8
			c0.4,1.1,0.7,1.9,0.9,2.5l0.2,0.9l32.3,6c0.5,0.1,0.9,0.3,1.2,0.7c0.3,0.4,0.4,0.8,0.4,1.3v19.9c0,0.4-0.1,0.8-0.4,1.1
			c-0.3,0.3-0.8,0.4-1.2,0.3l-32.3-6c-0.1,0.5-0.2,0.9-0.3,1.4c-0.4,1.2-1,2.3-1.6,3.3c-0.9,1.6-2,3.1-3.3,4.5
			c-1.7,1.7-3.6,3.2-5.6,4.4c-2.6,1.6-5.5,2.8-8.4,3.6c-3.9,1-7.9,1.5-11.9,1.5c-5.3,0.1-10.5-0.4-15.7-1.4
			c-0.5-0.1-0.9-0.3-1.2-0.7c-0.3-0.4-0.5-0.8-0.5-1.3V52.8c0-0.4,0.2-0.8,0.4-1c0.3-0.2,0.7-0.3,1.1-0.3c3.1,0.5,6.2,0.9,9.3,1.1
			c2.4,0.2,4.8,0.2,7.2,0.1c1.8-0.1,3.6-0.4,5.3-0.8c1.3-0.3,2.5-0.8,3.8-1.3c0.9-0.4,1.7-1,2.4-1.8c0.7-0.8,1.1-1.4,1.4-1.8
			c0.3-0.5,0.6-1.1,0.6-1.8c0.1-0.8,0.2-1.2,0.2-1.3L169,43.1z"/>
	</g>
</g>
</svg>
