<?xml version="1.0" encoding="utf-8"?>
<!-- Generator: Adobe Illustrator 23.0.1, SVG Export Plug-In . SVG Version: 6.00 Build 0)  -->
<svg version="1.1" id="Layer_1" xmlns="http://www.w3.org/2000/svg" xmlns:xlink="http://www.w3.org/1999/xlink" x="0px" y="0px"
	 viewBox="0 0 222 1906.8" style="enable-background:new 0 0 222 1906.8;" xml:space="preserve">
<style type="text/css">
	.st0{fill:#FFFFFF;}
</style>
<title>AOTZ_White</title>
<g>
	<g id="Layer_1-2">
		<path class="st0" d="M218.2,1841.4l-53.9,4.3v22.1l53.9,4.3v34.9L3.6,1884.7v-58.7l214.6-20.7V1841.4z M38.8,1855.3v2.6l91.6,8.5
			V1847L38.8,1855.3z"/>
		<path class="st0" d="M218.2,1711.5l-132.1,47.6v1.4h132.1v31.8H3.6V1756l91.6-29.2v-1.4H3.6v-32h214.6V1711.5z"/>
		<path class="st0" d="M218.2,1648h-85.9L5.1,1682.9H3.6v-35.7c15.1-3.4,27.2-6.1,36.3-8.1c9.1-2,16.2-3.5,21.5-4.7
			c5.3-1.1,9.3-1.9,11.8-2.4c2.6-0.5,4.7-0.8,6.4-1v-2.5c-1.7-0.2-3.8-0.5-6.4-1c-2.5-0.5-6.5-1.3-11.8-2.4s-12.5-2.8-21.5-5
			s-21.2-5-36.3-8.4v-34.6h1.4l127,33.5h86.2V1648z"/>
		<path class="st0" d="M218.2,1539.2H39.1v30.3H3.6v-95.2h35.4v30.1h179.2V1539.2z"/>
		<path class="st0" d="M218.2,1396.3h-92.7v30h92.7v35.8H3.6v-35.7h88.2v-30H3.6v-35.5h214.6V1396.3z"/>
		<path class="st0" d="M218.2,1341.8H3.6v-35.7h214.6V1341.8z"/>
		<path class="st0" d="M218.2,1206.4L86.1,1254v1.4h132.1v31.8H3.6v-36.3l91.6-29.2v-1.4H3.6v-32h214.6V1206.4z"/>
		<path class="st0" d="M129.5,1130.2H95.8v-52.7c3.6-0.2,8.6-0.3,15.2-0.4s14.3-0.2,23.4-0.2c11.3,0,20.8,0.2,28.5,0.6
			s14.1,0.9,19.3,1.7c4.4,0.6,8.7,1.5,12.9,2.7c3.2,1,6.3,2.1,9.4,3.5c6.6,3.2,11.2,7.8,13.8,13.9c2.6,6,3.9,14.8,3.9,26.3
			c0,11.7-1.3,20.6-3.8,26.7c-2.5,6-7.1,10.7-13.8,13.9c-3.4,1.6-7,2.9-10.6,4c-5.2,1.4-10.6,2.3-16,2.8c-6.8,0.8-15.6,1.3-26.4,1.6
			c-10.8,0.3-24.9,0.4-42.2,0.4c-16.6,0-30.1-0.1-40.5-0.4c-10.4-0.3-18.9-0.8-25.4-1.6c-5.1-0.5-10.2-1.4-15.2-2.8
			c-3.5-1.1-6.9-2.4-10.2-4c-3.1-1.5-6-3.5-8.5-6c-2.3-2.4-4.2-5.2-5.5-8.2c-1.5-3.6-2.5-7.3-3-11.2c-0.6-5-0.9-10.1-0.9-15.2
			c0-5.2,0.2-10.4,0.9-15.6c0.4-3.8,1.4-7.5,2.8-11c1.2-2.8,3-5.4,5.3-7.5c2.4-2.1,5-4,7.8-5.5c5.7-2.8,11.7-4.8,18-5.8
			c8.3-1.3,16.7-2,25.1-1.8h5c1.5,0,2.9,0.1,4.4,0.3v32.8c-1.1-0.2-2.3-0.3-3.4-0.3h-6c-3.3,0-6.6,0.3-9.9,0.7
			c-2.9,0.3-5.7,0.9-8.5,1.6c-4.5,1.3-6.8,5.5-6.8,12.5c0,3.8,0.6,6.5,1.7,8.2c1.1,1.7,3.2,3,6.2,4c1.7,0.4,3.7,0.8,6,1.1
			s5.8,0.7,10.5,1c4.7,0.3,11,0.5,18.8,0.7c7.8,0.2,18.2,0.3,31.1,0.3c13.6,0,24.5,0,32.6-0.1c8.1-0.1,14.6-0.3,19.3-0.6
			c4.7-0.3,8.2-0.6,10.5-1c2-0.3,4-0.8,5.9-1.4c3-1,5.1-2.4,6.2-4.3s1.7-4.8,1.7-8.8c0-4.3-0.6-7.4-1.8-9.2
			c-1.2-1.8-3.4-3.2-6.7-4.1c-1.7-0.4-3.9-0.8-6.5-1.1s-5.5-0.7-8.5-0.8c-3-0.2-6-0.3-9.1-0.4s-5.9-0.1-8.5-0.1h-8.8
			c-1.9,0-3.8,0.1-5.7,0.3L129.5,1130.2z"/>
		<path class="st0" d="M204.4,925.8c6.6,3.2,11.2,7.9,13.8,13.9c2.6,6,3.8,14.8,3.9,26.4c0,11.7-1.3,20.7-3.8,26.8
			s-7.1,10.7-13.8,13.8c-3.4,1.6-7,2.9-10.6,4c-5.2,1.4-10.5,2.3-15.8,2.8c-6.6,0.8-15.3,1.3-25.9,1.6c-10.7,0.3-24.4,0.4-41.3,0.4
			c-16.8,0-30.5-0.1-41.1-0.4c-10.6-0.3-19.2-0.8-25.8-1.6c-5.3-0.5-10.5-1.4-15.6-2.8c-3.7-1.1-7.3-2.4-10.8-4
			c-6.6-3.2-11.2-7.7-13.7-13.7S0,978,0,966c0-11.5,1.3-20.3,3.8-26.4s7.1-10.7,13.8-13.9c3.5-1.6,7.1-2.9,10.8-4
			c5.1-1.4,10.3-2.3,15.6-2.7c6.6-0.7,15.2-1.2,25.8-1.6c10.6-0.4,24.3-0.6,41.1-0.6c16.8,0,30.6,0.2,41.3,0.6
			c10.7,0.4,19.3,0.9,25.9,1.6c5.3,0.4,10.6,1.3,15.7,2.7C197.4,922.8,200.9,924.2,204.4,925.8z M177.7,954.4
			c-2.1-0.6-4.2-1.1-6.4-1.4c-3.5-0.5-7.1-0.8-10.6-0.8c-4.7-0.2-11.1-0.3-19-0.4c-7.9-0.1-18.5-0.1-31.8-0.1
			c-13.4,0-24.2,0-32.3,0.1c-8.1,0.1-14.5,0.3-19.1,0.6c-4.6,0.3-8.1,0.6-10.5,0.8c-2.1,0.2-4.1,0.6-6.1,1.3
			c-2.3,0.5-4.3,1.8-5.7,3.7c-1.1,1.7-1.7,4.3-1.7,7.9c0,3.8,0.5,6.5,1.6,8.1s2.9,2.7,5.5,3.5c2,0.6,4.1,1.1,6.2,1.4
			c2.3,0.4,5.8,0.7,10.5,1s11.1,0.5,19.3,0.6s18.9,0.1,32.3,0.1c13.2,0,23.9,0,31.9-0.1c8-0.1,14.4-0.3,19-0.6
			c4.6-0.3,8.1-0.6,10.5-1c2.2-0.3,4.3-0.8,6.4-1.4c2.7-0.8,4.5-1.9,5.5-3.5c1-1.6,1.5-4.3,1.6-8.1c0-3.6-0.5-6.2-1.6-7.9
			C181.9,956.2,180,954.9,177.7,954.4z"/>
		<path class="st0" d="M218.2,880.7H39.1V911H3.6v-95.3h35.4v30h179.2V880.7z"/>
		<path class="st0" d="M218.2,738.8h-92.7v30h92.7v35.7H3.6v-35.7h88.2v-30H3.6v-35.4h214.6V738.8z"/>
		<path class="st0" d="M218.2,686H3.6v-80.8h35.4v45.9h52.7V606h33.7v45.1h55.6v-45.6h37.1V686z"/>
		<path class="st0" d="M218.2,524.4l-3.4,1.1c-1.4,0.5-2.9,0.8-4.4,1c-1.8,0.3-4.2,0.6-7.2,0.8s-6.9,0.7-11.6,1.3
			c-5.5,0.6-11.8,1.1-19,1.6s-14.9,1.3-23.3,2.4c-7.7,1.1-12.7,2.5-14.9,4c-2.2,1.5-3.3,3.9-3.3,7.1v9.4h87v34.8H3.6v-55.3
			c0-8.1,1-14.9,3.1-20.3c1.9-5.2,5.4-9.6,10.1-12.6c4.6-3,10.6-5.1,18-6.4c8.8-1.3,17.7-1.9,26.6-1.8c9.3-0.1,18.7,0.3,27.9,1.3
			c6.7,0.8,11.9,2,15.4,3.5c3.6,1.5,6.1,3.3,7.5,5.4c1.4,2.1,2.7,4.3,3.8,6.5h1.7c2.2-2.9,5.1-5.2,8.5-6.5c4.5-1.8,9.1-3.1,13.9-4
			c8-1.5,16-2.6,24.1-3.3c7.9-0.7,17.2-1.6,27.8-2.7c4.2-0.4,7.6-0.8,10.2-1.1c2.6-0.4,4.9-0.7,6.7-1c1.8-0.3,3.3-0.6,4.5-0.8
			s2.4-0.6,3.5-1h1.1V524.4z M99.7,541.1c0-2-0.2-4.1-0.6-6.1c-0.4-1.8-1.7-3.3-3.8-4.5c-2.2-1.2-5.6-2.2-10.2-2.8
			c-6.5-0.8-13.1-1.1-19.7-1c-5.2-0.1-10.3,0.2-15.4,1c-3.7,0.7-6.4,1.6-8.1,2.7c-1.5,0.9-2.6,2.4-3.1,4.1c-0.4,1.6-0.6,3.3-0.6,5
			v13.6h61.5V541.1z"/>
		<path class="st0" d="M218.2,404.8H39.1v30.3H3.6v-95.3h35.4v30h179.2V404.8z"/>
		<path class="st0" d="M218.2,261.9h-92.7v30h92.7v35.7H3.6v-35.7h88.2v-30H3.6v-35.4h214.6V261.9z"/>
		<path class="st0" d="M218.2,148l-53.9,4.3v22.1l53.9,4.3v34.9L3.6,191.3v-58.7L218.2,112V148z M38.8,161.8v2.6l91.6,8.5v-19.3
			L38.8,161.8z"/>
		<path class="st0" d="M218.2,18.1L86.1,65.8v1.4h132.1v31.8H3.6V62.7l91.6-29.2V32H3.6V0l214.6,0V18.1z"/>
	</g>
</g>
</svg>
