<?xml version="1.0" encoding="utf-8"?>
<!-- Generator: Adobe Illustrator 23.0.1, SVG Export Plug-In . SVG Version: 6.00 Build 0)  -->
<svg version="1.1" id="Layer_1" xmlns="http://www.w3.org/2000/svg" xmlns:xlink="http://www.w3.org/1999/xlink" x="0px" y="0px"
	 viewBox="0 0 222 1297.7" style="enable-background:new 0 0 222 1297.7;" xml:space="preserve">
<style type="text/css">
	.st0{fill:#FFFFFF;}
</style>
<title>Mission_White</title>
<g>
	<g id="Layer_1-2">
		<path class="st0" d="M190.8,1013.1h25.2v90.2h-25v-26H30.7c1.7,1,3.6,1.9,5.5,2.6c1.8,0.8,3.7,1.5,5.5,2.1c2.1,0.7,4,1.7,6.1,2.5
			c2.1,0.8,4.1,1.5,6.1,2.4c2,0.9,4.2,1.7,6.3,2.6c2.1,0.9,3.9,1.7,5.9,2.5s3.8,1.5,5.7,2.2c1.9,0.7,3.9,1.7,5.8,2.5
			c2.2,0.9,4.4,1.6,6.5,2.6c2.1,1,4,1.8,6,2.6c4,1.5,7.8,3.4,11.8,4.7c2.1,0.7,4.1,1.8,6.2,2.7c2.7,1.1,5.5,2.1,8.3,3.2
			c1.2,0.5,2.4,1.1,3.7,1.6c4.9,1.9,9.7,4,14.5,5.9c3,1.2,6,2.6,9,3.8c2.2,0.9,4.4,1.9,6.7,2.7s4.5,1.7,6.7,2.7
			c2.2,0.9,4.3,1.9,6.4,2.7c1.9,0.7,3.8,1.6,5.7,2.4s3.8,1.6,5.7,2.2s4,1.8,6,2.6s4.3,1.6,6.3,2.5s4,1.8,6,2.5
			c2,0.8,4.2,1.6,6.3,2.5s3.9,1.7,5.9,2.4c3.4,1.3,6.6,2.9,10,4c0.2,0.1,0.3,0.3,0.5,0.5v12.9c-1.1,1.2-2.7,1.4-4.1,1.9
			c-2.1,0.9-4.2,1.7-6.3,2.5c-3.8,1.5-7.4,3.1-11.2,4.5c-1.2,0.4-2.4,0.9-3.5,1.5c-2.1,1-4.3,1.8-6.5,2.6c-1.9,0.7-3.6,1.5-5.5,2.3
			c-3.9,1.6-7.7,3.1-11.6,4.7c-2,0.8-4,1.8-6,2.6c-2,0.8-4.2,1.7-6.3,2.4c-1.3,0.4-2.5,1.3-3.9,1.8c-2.9,1-5.6,2.3-8.5,3.3
			c-1.2,0.4-2.3,1.1-3.5,1.5c-1.5,0.5-3,1.2-4.5,1.8s-3.1,1.1-4.5,1.8c-1.9,1-3.9,1.7-5.8,2.5c-2.2,0.9-4.4,1.7-6.5,2.6
			s-4.3,1.8-6.4,2.7c-2.7,1.1-5.3,2.2-8.1,3.2c-1.2,0.4-2.3,1.1-3.5,1.5c-1.5,0.5-3,1.2-4.5,1.8c-1.5,0.6-3.1,1.1-4.5,1.8
			c-1.9,0.9-3.9,1.7-5.8,2.5c-2.2,0.9-4.4,1.7-6.5,2.6c-2,0.8-3.9,1.7-5.8,2.5c-2.2,0.9-4.4,1.7-6.5,2.6l-5.9,2.5
			c-2.2,0.9-4.4,1.6-6.5,2.6c-2.1,1-4,1.8-6,2.6c-2,0.8-4.3,1.6-6.3,2.5s-4.5,1.8-6.7,2.8c-1.2,0.5-2.5,1-3.7,1.5c0,0,0,0.1,0,0.1
			c0,0,0.1,0.1,0.2,0.1h159.8v-26.1H216v82h-25.2v-27.9c-8.9-0.4-163.5-0.2-165.6,0.2v27.7H0.5v-83.7c1.7-0.7,3.4-1.3,5.2-1.9
			c2.6-0.9,5.1-2.1,7.7-2.9c2.1-0.7,4.2-1.7,6.3-2.4c2.7-0.9,5.2-2.1,7.9-3.1c1.7-0.6,3.4-1.4,5.1-2.1c2.4-1,4.9-1.8,7.3-2.9
			c2.4-1.1,4.9-1.8,7.3-2.8c2.4-0.9,4.6-1.8,6.9-2.7s4.9-1.8,7.3-2.8s4.6-1.8,6.9-2.7s4.9-1.8,7.3-2.8c2.4-0.9,4.6-1.8,6.9-2.7
			c2.5-1,5-1.8,7.5-2.8c2.3-0.9,4.6-1.9,6.9-2.7c2.3-0.8,4.5-1.8,6.7-2.6c2.5-0.9,4.9-2.1,7.5-2.9c1.8-0.6,3.5-1.5,5.3-2.1
			c2.8-1.1,5.7-2.2,8.5-3.3c1.9-0.7,3.8-1.6,5.7-2.2c3.8-1.3,7.5-3,11.3-4.3c2.3-0.8,4.6-1.9,6.9-2.9c-4.3-2-8.8-3.3-13.1-5.3
			c-1.8-0.8-3.8-1.5-5.7-2.2c-1.9-0.7-3.6-1.6-5.5-2.2c-3.1-1.1-6-2.5-9.1-3.5c-1.8-0.5-3.5-1.5-5.3-2.2c-3.7-1.3-7.2-3-10.9-4.2
			c-1.7-0.6-3.4-1.5-5.1-2.1c-2.6-1-5.1-2-7.7-2.9c-1.7-0.6-3.4-1.4-5.1-2.1c-3.7-1.4-7.4-2.9-11-4.4c-3.2-1.3-6.5-2.5-9.6-3.8
			c-2.1-0.9-4.2-1.7-6.3-2.5s-4.1-1.5-6.1-2.4c-2.4-1-4.8-2-7.3-2.9c-3-1.2-6-2.5-9.1-3.6c-3.5-1.3-6.9-2.6-10.2-4
			c-3.3-1.4-6.6-2.6-9.8-3.9s-6.8-2.8-10.2-4.1c-0.5-0.1-1-0.4-1.3-0.9v-84.1h24.7v27.4h165.6V1013.1z"/>
		<path class="st0" d="M102.6,230.7c-1.7,0.3-3.4-0.1-5.1,0.4c-1.2,0.4-2.6,0.1-4,0.4s-2.6,0.2-3.9,0.6s-2.5,0.3-3.7,0.6
			c-2,0.6-4.1,1.2-6.2,1.6c-3.8,0.9-7.6,2-11.2,3.4c-3.6,1.3-7.1,2.9-10.4,4.7c-2.6,1.2-5.2,2.6-7.7,4.2c-2.7,1.8-5.5,3.5-8.1,5.6
			c-2.2,1.7-4.5,3.4-6.5,5.3c-4.4,4.2-8.8,8.3-12.4,13.2c-1.2,1.6-2.3,3.3-3.6,4.9c-1,1.2-1.5,2.6-2.4,3.8c-1.6,2.3-3,4.7-4.2,7.2
			c-1.4,2.6-2.7,5.3-3.8,8.1c-0.8,1.9-1.6,3.8-2.3,5.7s-1.1,3.7-1.9,5.4c-0.7,1.9-1.2,3.8-1.6,5.7c-0.5,1.6-0.9,3.3-1.2,5
			c-0.3,1.1-0.4,2.2-0.4,3.3c-1,1,0.1,2.5-0.9,3.5c0.1,1.3-0.4,2.5-0.4,3.7c0,2.3-0.9,4.6-0.6,6.9c0,0.2-0.1,0.4-0.3,0.4
			c0,0-0.1,0-0.1,0l0,22c0.1,0,0.4,0.1,0.4,0.2c0.1,0.8,0.1,1.5,0,2.3c-0.2,0.9,0.6,1.5,0.5,2.3c-0.2,1.1,0,2.2,0.3,3.3
			c0.5,1-0.2,2.4,0.5,3.4c-0.2,2.2,1,4.1,0.9,6.3c0.7,0.8,0.2,1.9,0.6,2.7c0.8,1.8,0.7,3.9,1.7,5.5c0.2,2.9,1.9,5.4,2.3,8.2
			c1.7,3.2,2.9,6.6,4.5,9.8c2.3,4.7,4.9,9.2,7.8,13.5c1.3,1.8,2.7,3.6,4,5.5c1.9,2.7,4.1,5,6.3,7.4c2.8,3,5.8,5.8,9.1,8.4
			c2,1.6,4,3.2,6.1,4.7c4.7,3.3,9.7,6.2,15,8.6c2.8,1.2,5.6,2.4,8.4,3.5c3.4,1.3,6.9,2.1,10.2,3.5c1.8-0.1,3.5,1.2,5.3,0.9
			c1.7,0.9,3.6,0.8,5.4,1.3s4,0.6,6,0.9c1.6,0.3,3.2,0.1,4.9,0.5c1.4,0.2,2.9,0.2,4.3,0c1.5,0,2.9,0.2,4.4,0.5
			c1.1,0.1,2.3-0.1,3.4,0s2.1-0.5,3.3-0.5c2.5,0,4.9,0.3,7.4-0.3c1.4-0.4,3.1,0,4.6-0.5c0.9-0.3,1.8,0,2.8-0.4
			c0.8-0.4,1.9,0.2,2.8-0.5c2.5-0.3,5-0.7,7.4-1.4c2-0.5,4-1,5.9-1.7c2.8-0.9,5.5-1.8,8.2-2.8c2.4-1,4.9-1.9,7.2-3
			c4.4-2.1,8.6-4.5,12.6-7.2c4.6-3,9-6.4,13-10.2c3.4-3.1,6.5-6.5,9.3-10.1c1.9-2.4,3.7-4.9,5.5-7.4c2.3-3.4,4.4-6.9,6.3-10.5
			c1.3-2.4,2.4-4.9,3.4-7.5c0.8-1.9,1.6-3.8,2.3-5.7c1.4-3.6,2.6-7.4,3.5-11.2c0.5-1.7,0.9-3.4,1.1-5.1c0.3-1.1,0.4-2.2,0.4-3.3
			c1.1-0.9-0.2-2.4,0.9-3.3c0-1.3,0.3-2.5,0.4-3.7c0-2.2,0.8-4.3,0.6-6.5c0-0.3,0-0.6,0.4-0.6l0-22c-0.1,0-0.4-0.1-0.4-0.2
			c-0.1-0.8-0.1-1.7-0.1-2.5c0.2-1-0.5-1.7-0.5-2.6c0.1-1.1,0-2.2-0.3-3.3c-0.5-1-0.2-2.3-0.4-3.5c-0.4-1.8-0.8-3.7-1-5.6
			c-0.4-3-1.4-5.9-2-8.8c-0.6-2.2-1.3-4.3-2.2-6.4c-0.7-2.2-1.5-4.4-2.5-6.5c-1.6-3.2-2.9-6.6-4.8-9.7c-1.6-2.6-3-5.3-4.7-7.9
			c-3.1-4.8-6.6-9.2-10.4-13.3c-1.2-1.2-2.4-2.4-3.6-3.6c-1.1-1.2-2.2-2.3-3.4-3.4c-2.7-2-5.2-4.2-7.9-6.2c-3.4-2.5-7-4.8-10.7-6.8
			c-3.2-1.9-6.5-3.4-10-4.7c-2-0.7-3.9-1.6-5.9-2.3s-4-1.3-6.1-2c-2.7-0.8-5.4-1.5-8.1-2.1c-0.6-0.1-0.9-0.7-1.6-0.5
			c-0.6,0.2-1.2,0.1-1.8-0.1c-0.5-0.3-1.1-0.4-1.7-0.3c-0.6,0-1-0.6-1.6-0.5c-1.1,0.1-2.2-0.1-3.3-0.4c-1.1-0.2-2.2,0.2-3.2-0.5
			c-2.5,0.2-4.9-0.4-7.4-0.4C111.8,230.3,107.2,229.8,102.6,230.7z M124,273.4c0.9,0.2,1.9,0.3,2.8,0.4c1-0.1,1.9,0.7,3,0.5
			c0.9-0.1,1.8,0.8,2.8,0.4c2.4,0.9,4.9,1.6,7.4,2.1c3,0.8,6,1.8,8.8,3.1c2.8,1.1,5.5,2.4,8,3.9c2.2,1.5,4.6,2.6,6.8,4.2
			c1.7,1.2,3.4,2.5,5.1,3.8c2.3,1.8,4.5,3.8,6.4,6c3.4,3.6,6.4,7.6,8.9,11.9c1.5,2.5,2.8,5.1,4,7.8c1.1,2.7,2.4,5.3,2.8,8.2
			c0.7,0.6,0.1,1.6,0.7,2.2s0,1.4,0.6,2.1s-0.3,1.6,0.5,2.3c0.1,0.1,0,0.3,0,0.4c-0.2,2,0.8,3.8,0.5,5.8c0.9,3.5,0.2,7.1,0.5,10.6
			c0.1,1.2-0.6,2.3-0.5,3.5c0.2,1.1,0.1,2.2-0.3,3.3c-0.3,1-0.4,2-0.5,3c-0.6,3.4-1.5,6.7-2.6,9.9c-1.2,3.3-2.6,6.4-4.3,9.5
			c-1.5,2.9-3.6,5.6-5.3,8.3c-1,1.4-2.1,2.7-3.4,3.9c-0.8,0.8-1.3,1.8-2.1,2.6c-2,1.8-4,3.5-6,5.3c-2.8,2.2-5.7,4.3-8.7,6.3
			c-0.1,0.1-0.2,0.3-0.3,0.3c-2.4,0.9-4.4,2.6-6.8,3.6s-4.7,2-7.1,2.9c-2,0.7-4,1.4-6.1,2c-1.9,0.5-3.8,0.9-5.6,1.5
			c-1,0.3-2.1-0.2-2.9,0.7c-1.4-0.3-2.6,0.3-3.9,0.5c-3.4,0.6-6.9,0.9-10.4,0.9c-3,1-6,0.2-9,0.5c-1.2,0.1-2.2-0.7-3.5-0.5
			c-1.2,0.2-2.4,0.2-3.6,0c-1.3-0.4-2.7-0.1-4-0.5c-2.8-0.7-5.8-0.5-8.4-1.8c-3.7-0.3-7.1-1.7-10.6-2.8c-1.8-0.6-3.6-1.4-5.3-2.1
			c-1.4-0.6-2.8-1.3-4.2-1.9c-2.2-1.1-4.2-2.3-6.3-3.5c-1.4-0.8-2.7-1.6-4-2.5c-1.8-1.3-3.6-2.6-5.3-4c-2.3-1.9-4.4-3.9-6.4-6
			c-1.8-2-3.4-4-5-6.2c-1.5-2-2.9-4.2-4.2-6.4c-1.4-2.4-2.6-4.9-3.6-7.5c-0.7-2-1.6-3.9-2.3-5.9c-0.5-1.6-0.8-3.3-1.3-5
			c-0.7-2-0.6-4.3-1.4-6.3c0-0.1,0-0.2,0-0.2c0.4-2.3-0.6-4.6-0.5-6.9s-0.2-4.8,0.1-7.1c0.2-1.6,0.1-3.3,0.4-4.8
			c0.5-2.4,0.7-4.9,1.3-7.2s1.4-4.5,2-6.7c0.7-2.4,1.7-4.7,2.9-6.8c1.6-3.3,3.6-6.5,5.7-9.6c2.7-3.8,5.9-7.4,9.3-10.6
			c2-1.9,4.3-3.5,6.5-5.3c4.7-3.6,9.9-6.2,15.2-8.7c0.9-0.5,1.9-0.9,2.9-1.2c1.1-0.3,2.1-0.9,3.2-1.2s2.1-0.3,3-1.1
			c1.6,0.3,3-0.7,4.4-1s3-0.4,4.3-1.2c1.3,0.3,2.4-0.7,3.7-0.5c0.9,0.2,1.4-0.7,2.3-0.5c0.8,0.3,1.7,0.1,2.3-0.4
			c0.1-0.1,0.4,0,0.7,0c2.2,0.3,4.3-0.6,6.5-0.5s4.4,0,6.7,0c1.2,0,2.5,0.1,3.7,0C118,272.6,121,273.3,124,273.4z"/>
		<path class="st0" d="M161.7,735.6c1.8-0.1,3.6,0.1,5.3,0.4c1.6,0.3,3.3,0.7,4.9,0.9c2.4,0.4,4.7,1.1,7,1.9
			c3.2,1.1,6.3,2.6,9.2,4.3c2.2,1.3,4.4,2.7,6.4,4.3c2,1.6,3.9,3.3,5.7,5.1c2.9,2.9,5.5,6.2,7.8,9.7c0.8,1.2,1.6,2.5,2.2,3.9
			c0.9,1.8,1.9,3.7,2.7,5.5c1,2.1,2.8,7.5,3.6,10.2c0.7,2,0.7,4.2,1.6,6.2c0.4,0.9-0.2,2.1,0.6,3c-0.4,1.7,0.7,3.4,0.5,5.1
			c-0.2,1.4,0.7,2.7,0.5,4.2c-0.1,1.5-0.1,3.1,0,4.6c-0.1,1.4-0.1,2.9,0,4.4c0.1,1.2-0.5,2.3-0.5,3.5c0.1,1.2,0,2.4-0.3,3.5
			c-0.3,1.1-0.5,2.1-0.5,3.2c-0.7,3.9-1.7,7.8-3,11.6c-1.3,3.6-2.9,7.1-4.8,10.4c-1.6,2.9-3.4,5.7-5.3,8.3c-0.8,1.3-1.8,2.5-3,3.6
			c-0.6,0.5-1,1.2-1.2,1.9h15v30.6h-72v-30.6h2c5.2,0,10.4-0.1,15.6,0.1c1.7,0.1,3.3-0.5,4.6-1.5c1.9-1.5,4-2.8,5.8-4.4
			c2.4-1.9,4.7-4,6.8-6.3c3-3.4,5.6-7.1,7.7-11c1.5-2.7,2-5.9,3.3-8.7c-0.2-1.1,0.4-2,0.4-3s0.6-1.5,0.5-2.3c-0.2-0.8-0.2-1.5,0-2.3
			c0.9-2.9,0.2-5.9,0.5-8.8c0.1-1-0.5-1.8-0.5-2.8c0.1-1,0-1.9-0.3-2.8c-0.5-0.9-0.2-2.1-0.5-3.2c-0.5-1.8-1-3.5-1.7-5.3
			c-0.4-1.3-1-2.5-1.7-3.6c-0.8-1.1-1.3-2.4-2.1-3.5c-1.8-2.5-3.9-4.8-6.3-6.8c-1.9-1.6-4.1-2.9-6.4-3.9c-2.2-1-4.6-1.7-7-2
			c-2.1-0.3-4.2-0.2-6.2-0.4c-1.8-0.2-3.5,0.8-5.3,0.5c-1.5,0.8-3.3,0.8-4.8,1.8s-3.2,1.3-4.5,2.4c-1.9,1.7-4.2,3-5.6,5.4
			c-0.8,1.3-2.1,2.4-3,3.8c-1.9,3-3.5,6-5,9.2c-1.6,3.5-3,7-4.1,10.7c-1.2,3.4-2.3,6.9-3.4,10.3c-0.7,2.3-1.5,4.6-2.1,6.9
			c-1.6,5.9-3.7,11.6-5.6,17.4c-0.7,2.1-1.4,4.1-2.3,6.1c-1.1,2.5-2,5.1-3.3,7.6c-1.7,3.3-3.7,6.5-5.8,9.5c-1.2,1.6-2.4,3.1-3.7,4.7
			c-1.2,1.6-2.6,3.1-4.1,4.4c-2.8,2.6-5.8,4.8-9.1,6.7c-1.5,0.9-3,1.7-4.5,2.4c-2.9,1.4-5.9,2.4-9,3.1c-1.8,0.4-3.6,0.7-5.3,1
			s-3.5,0-5.1,0.5c-2.3,0.6-4.6,0.2-6.9,0.4c-1.1,0.1-2-0.6-3-0.5c-1.1,0.2-2.1,0.2-3.2,0c-1.8-0.5-3.6-0.5-5.4-0.9
			c-2.4-0.5-4.7-1.3-7-2c-2.9-1-5.8-2.3-8.5-3.9c-1.8-1-3.6-2.2-5.2-3.4c-0.9-0.5-1.7-1.2-2.4-1.9c-0.7-0.7-1.5-1.4-2.3-2
			c-1.7-1.5-3.2-3.2-4.5-5c-0.5-0.8-1.5-1.2-1.6-2.3c-2.4-3.1-4.5-6.5-6-10.1c-1.1-2.4-2.1-4.9-2.9-7.5c-0.9-2.3-1.5-4.7-1.9-7.2
			c-0.3-2.5-1.4-4.9-1-7.4c0.1-0.7-0.7-1.1-0.5-1.9c0.1-0.7,0.1-1.3,0-2c0-0.1-0.2-0.1-0.4-0.2v-15.6c0.5,0,0.5-0.3,0.5-0.6
			c-0.3-1.7,0.4-3.3,0.6-4.8c0.1-1.6,0.4-3.1,0.8-4.7c0.4-1.5,0.9-3,1.4-4.5c1-3.4,2.4-6.7,4-9.8c1.6-3.2,3.5-6.3,5.7-9.2
			c0.7-1,1.8-1.7,2.3-3.2H0.5v-30.2h62.3v30.1H46.6l-3.9,4c-2.9,2.9-5.4,6.2-7.5,9.7c-2.3,3.8-4,7.9-4.9,12.2
			c-0.9,0.7-0.3,1.8-0.9,2.6c-0.5,0.6,0.1,1.7-0.4,2.6c-0.4,0.8,0.1,2-0.1,2.9c-0.8,2.9-0.2,5.8-0.4,8.8c0,1.1,0.1,2.2,0.4,3.3
			c0.2,1-0.4,2.1,0.5,3c0,1.5,0.3,3,0.8,4.5c0.5,1.4,1,2.8,1.4,4.2c0.9,2.6,2.1,5,3.7,7.2c1,1.6,2.2,3.2,3.5,4.5
			c2.6,2.4,5.7,4.2,9,5.3c1.1,0.3,2.3,0.5,3.4,0.7c1.5,0.3,3.1,0.4,4.6,0.3c3.5-0.5,7.1-0.8,10.4-2.7c1.7-1,3.3-2.2,4.8-3.5
			c3-2.7,5.6-5.9,7.6-9.5c1.8-3.3,3.5-6.6,4.9-10.1c1.7-3.9,3-7.9,4.3-12c0.9-2.7,1.7-5.4,2.5-8.1c1.5-4.7,2.9-9.5,4.6-14.1
			c1.3-3.5,2.6-6.9,3.9-10.3s2.7-6.5,4-9.8c1.6-3.7,3.5-7.2,5.8-10.5c1.9-2.9,4.1-5.7,6.4-8.4c1-1,1.8-2.2,2.8-3.2
			c3-2.8,6.3-5.3,9.8-7.4c2.6-1.5,5.4-2.7,8.2-4s5.8-1.4,8.5-2.6c1.6,0.3,3.1-0.3,4.6-0.5C153.3,735.2,157.5,735.8,161.7,735.6z"/>
		<path class="st0" d="M161.7,565.9c1.8-0.1,3.6,0,5.3,0.4c1.6,0.3,3.3,0.7,4.9,0.9c2.4,0.4,4.7,1.1,7,1.9c3.2,1.1,6.3,2.6,9.2,4.3
			c2.2,1.3,4.4,2.8,6.4,4.3c2,1.6,3.9,3.3,5.7,5.1c2.9,2.9,5.5,6.2,7.7,9.7c0.8,1.2,1.6,2.5,2.2,3.9c0.9,1.8,1.9,3.7,2.7,5.5
			c1,2.1,2.8,7.5,3.6,10.2c0.7,2,0.7,4.2,1.6,6.2c0.4,0.9-0.2,2.1,0.6,3c-0.4,1.7,0.7,3.3,0.5,5.1c-0.2,1.4,0.7,2.7,0.5,4.2
			c-0.1,1.5-0.1,3.1,0,4.6c-0.1,1.5-0.1,2.9,0,4.4c0.1,1.2-0.5,2.3-0.5,3.5c0.1,1.2,0,2.4-0.3,3.5c-0.3,1-0.5,2.1-0.5,3.2
			c-0.7,3.9-1.7,7.8-3,11.6c-1.3,3.6-2.9,7.1-4.8,10.4c-1.6,2.9-3.4,5.7-5.3,8.3c-0.8,1.3-1.8,2.5-3,3.6c-0.6,0.5-0.8,1.2-1.4,2H216
			v30.6h-71.9v-30.6h2c5.2,0,10.4-0.1,15.6,0.1c1.7,0.1,3.3-0.5,4.6-1.5c1.9-1.5,4-2.8,5.8-4.4c2.4-2,4.7-4.1,6.8-6.3
			c3-3.4,5.6-7,7.7-11c1.5-2.7,2-5.9,3.3-8.7c-0.2-1.1,0.4-2,0.4-3s0.6-1.5,0.5-2.3c-0.2-0.8-0.2-1.5,0-2.3c0.9-2.9,0.2-5.8,0.5-8.8
			c0.1-1-0.5-1.8-0.5-2.8c0.1-1,0-1.9-0.3-2.8c-0.5-0.9-0.2-2.1-0.5-3.2c-0.5-1.8-1-3.5-1.7-5.3c-0.4-1.3-1-2.5-1.7-3.7
			c-0.8-1.1-1.3-2.4-2.1-3.5c-1.8-2.5-3.9-4.8-6.3-6.8c-3.9-3.1-8.5-5.2-13.4-5.9c-2.1-0.3-4.2-0.2-6.2-0.4
			c-1.8-0.2-3.5,0.8-5.3,0.5c-1.5,0.8-3.3,0.8-4.8,1.8s-3.2,1.3-4.5,2.4c-1.9,1.7-4.2,3-5.6,5.4c-0.8,1.3-2.1,2.4-3,3.8
			c-1.9,3-3.5,6-5,9.2c-1.6,3.5-3,7-4.1,10.7c-1.2,3.4-2.3,6.9-3.4,10.3c-0.7,2.3-1.5,4.6-2.1,6.9c-1.6,5.9-3.7,11.6-5.6,17.4
			c-0.7,2.1-1.4,4.1-2.3,6.2c-1.1,2.5-2,5.1-3.3,7.6c-1.7,3.3-3.7,6.5-5.8,9.5c-1.2,1.6-2.4,3.1-3.7,4.7c-1.2,1.6-2.6,3.1-4.1,4.4
			c-2.8,2.6-5.9,4.8-9.1,6.7c-1.5,0.9-3.1,1.7-4.7,2.5c-2.8,1.3-5.8,2.4-8.9,3c-1.8,0.3-3.6,0.7-5.3,1s-3.5,0-5.1,0.4
			c-2.3,0.6-4.6,0.2-6.9,0.4c-1.1,0.1-2-0.6-3-0.5c-1.1,0.2-2.1,0.2-3.2,0c-1.8-0.5-3.6-0.5-5.4-0.9c-2.4-0.5-4.7-1.3-7-2
			c-2.9-1-5.8-2.3-8.5-3.9c-1.8-1-3.6-2.2-5.2-3.5c-0.9-0.5-1.7-1.2-2.4-1.9c-0.7-0.7-1.5-1.4-2.3-2c-1.7-1.5-3.2-3.2-4.5-5
			c-0.5-0.8-1.5-1.2-1.6-2.3c-2.4-3.1-4.5-6.5-6-10.1c-1.1-2.4-2.1-4.9-2.9-7.5c-0.9-2.3-1.5-4.7-1.9-7.2c-0.3-2.5-1.4-4.9-1-7.4
			c0.1-0.7-0.7-1.1-0.5-1.9c0.1-0.7,0.1-1.3,0-2c0-0.1-0.3-0.1-0.4-0.2L0,644c0.4,0,0.5-0.3,0.4-0.6c-0.3-1.7,0.4-3.3,0.6-4.8
			c0.1-1.6,0.4-3.1,0.8-4.7c0.4-1.5,0.9-3,1.4-4.5c1-3.4,2.4-6.7,4-9.8c1.6-3.2,3.6-6.3,5.8-9.2c0.7-1,1.8-1.7,2.3-3.1H0.5V577h62.3
			v30.1H46.6l-3.9,4c-2.9,2.9-5.4,6.2-7.5,9.7c-2.3,3.8-4,7.9-4.9,12.2c-0.9,0.7-0.3,1.8-0.9,2.6c-0.5,0.6,0.1,1.7-0.4,2.6
			s0.1,2-0.1,2.9c-0.8,2.9-0.2,5.8-0.4,8.8c0,1.1,0.1,2.2,0.4,3.3c0.2,1-0.4,2.1,0.5,3c0,1.5,0.3,3,0.8,4.5c0.5,1.4,1,2.8,1.4,4.2
			c0.9,2.6,2.1,5,3.7,7.2c1,1.6,2.2,3.2,3.5,4.5c2.6,2.4,5.7,4.2,9,5.3c1.1,0.3,2.3,0.5,3.4,0.7c1.5,0.3,3.1,0.4,4.6,0.3
			c3.5-0.5,7.1-0.8,10.4-2.7c1.7-1,3.3-2.2,4.8-3.5c3-2.7,5.6-5.9,7.6-9.5c1.8-3.3,3.5-6.6,4.9-10.1c1.7-3.9,3-7.9,4.3-12
			c0.9-2.7,1.7-5.4,2.5-8.1c1.5-4.7,2.9-9.5,4.6-14.1c1.3-3.5,2.6-6.9,3.9-10.3s2.7-6.5,4-9.8c1.6-3.7,3.5-7.2,5.8-10.5
			c1.9-3,4.1-5.7,6.4-8.4c1-1,1.8-2.2,2.8-3.2c3-2.8,6.3-5.3,9.8-7.4c2.6-1.5,5.4-2.7,8.2-4s5.8-1.5,8.5-2.7
			c1.6,0.3,3.1-0.3,4.6-0.5C153.3,565.6,157.5,566.1,161.7,565.9z"/>
		<path class="st0" d="M190.8,905.8h25.1v93.4h-25v-27.2c-2.1-0.4-157.6-0.5-165.6-0.2v27.3H0.5v-93.4h24.7v27.3h165.6V905.8z"/>
		<path class="st0" d="M190.8,457.3h25.2v93.3c-1.8,0.3-18.5,0.5-25.1,0.2v-27.3H25.3v27.3H0.5v-93.4h24.7v27.4h165.5V457.3z"/>
		<path class="st0" d="M0.5,0.6h24.7V32H216v38.5c-1.4,0.8-2.7,1.6-4.1,2.4c-3,1.8-5.9,3.5-8.8,5.3s-5.8,3.4-8.7,5.1
			c-2.7,1.6-5.4,3.3-8.1,4.8c-1.8,1.1-3.6,2.1-5.4,3.1c-3.2,1.9-6.3,3.9-9.5,5.8c-2.7,1.6-5.4,3.1-8.1,4.7s-5.2,3.3-7.9,4.8
			c-2.1,1.1-4.1,2.3-6.1,3.5c-2.9,1.7-5.7,3.6-8.6,5.3c-2.1,1.3-4.2,2.3-6.3,3.6c-2.8,1.7-5.5,3.4-8.2,5c-1.8,1.1-3.6,2-5.4,3.1
			c-3.8,2.5-7.9,4.6-11.8,7.1c-2.6,1.7-5.3,3.2-7.9,4.7c-3,1.8-6.1,3.4-9,5.3c-1.7,1.1-3.5,2-5.2,3c-2.9,1.7-5.7,3.6-8.6,5.3
			c-1.9,1.2-4,2.3-5.9,3.4c-3,1.7-5.9,3.5-8.8,5.3s-5.7,3.2-8.5,4.9s-5.5,3.4-8.2,5c-2.1,1.3-4.3,2.5-6.4,3.8l0,0c0,0-0.1,0-0.1,0
			l0,0l0,0l0,0c0,0,0,0.1,0.1,0.1s0.1,0.1,0.2,0.1h150.1v-30.2H216v90.2h-25v-30.6H25.3v30.5H0.5v-77.7c1.7-0.9,3.4-1.9,4.9-2.9
			c2.5-1.5,5-3,7.6-4.4c2.2-1.3,4.4-2.6,6.6-3.9s4.5-2.6,6.6-3.9c1.9-1.2,4-2.2,5.9-3.4c2.4-1.5,4.9-2.9,7.4-4.4
			c2-1.3,4.2-2.4,6.3-3.7c2.3-1.4,4.7-2.7,7-4.1c1.9-1.2,4-2.2,5.9-3.4c2.4-1.5,4.9-2.9,7.4-4.3c2-1.2,4.1-2.3,6.1-3.5
			c2.4-1.5,4.8-2.8,7.2-4.3c2-1.2,4.1-2.3,6.1-3.5c2.4-1.4,4.8-2.8,7.2-4.3c2-1.2,4.1-2.3,6.1-3.5c2.4-1.4,4.8-2.8,7.2-4.3
			c2-1.2,4.1-2.3,6.1-3.5c2.4-1.5,4.8-2.8,7.2-4.3c2-1.2,4.1-2.3,6.1-3.5c2.4-1.5,5-2.9,7.4-4.4c1.8-1.2,3.8-2.2,5.7-3.3
			c2.5-1.5,5.1-2.9,7.6-4.5c1.9-1.2,3.8-2.2,5.7-3.3c2.5-1.5,5.1-2.9,7.6-4.4c1.5-1,3.2-1.9,4.8-2.6v-0.6H25.3v30H0.5V0.6z"/>
	</g>
</g>
</svg>
