<?xml version="1.0" encoding="utf-8"?>
<!-- Generator: Adobe Illustrator 23.0.1, SVG Export Plug-In . SVG Version: 6.00 Build 0)  -->
<svg version="1.1" id="Layer_1" xmlns="http://www.w3.org/2000/svg" xmlns:xlink="http://www.w3.org/1999/xlink" x="0px" y="0px"
	 viewBox="0 0 222 2052.6" style="enable-background:new 0 0 222 2052.6;" xml:space="preserve">
<style type="text/css">
	.st0{fill:#FFFFFF;}
</style>
<title>Champions_White</title>
<g>
	<g id="Layer_1-2">
		<path class="st0" d="M3.6,46.8c7.9,1.4,15.8,2.8,24.7,4.3C9.7,62.6,2.6,79.8,0,99.4v14.5c0.2,0.9,0.4,1.9,0.6,2.8
			c5,30.5,18.5,55.7,45.2,72.7c11.2,6.9,23.5,9.6,36.5,9.7c19.8,0,34-9.3,43.9-26.1c10.9-18.6,13.8-40,21.1-59.9
			c3.2-8.6,5.3-18,15-22.3c7.1-0.8,11.4,3.2,14.8,8.7c10.9,17.4,7.1,39.1-10.1,58.6c-6,5.1-13.1,8.9-20.6,11.1v46.2
			c7.2,1.2,14.2,2.3,21.2,3.5c8.1,1.4,16.2,2.9,24.3,4.3c5.4,0.9,10.9,1.8,16.3,2.7c3.3,0.6,6.7,1.3,10.3,2v-46.1
			c-2.7-0.4-5.2-0.7-7.8-1.1c-4.3-0.8-8.7-1.6-13.9-2.6c7-4.7,12.7-11.2,16.2-18.8c5.4-11.4,7.2-23.7,9.2-35.9V98.3
			c-0.2-0.9-0.5-1.8-0.6-2.8c-2.6-23.7-10.3-45-28.4-61.6c-8.2-8.5-18.1-13.9-29.4-17c-18.4-6-35.6-4.3-50.4,9
			C95,42.3,88,64.7,81.2,87.2c-2.4,7-4.2,14.3-7.3,21.1c-2.6,5.9-4,15.2-12.7,13.9c-8.9-1.3-11.4-10-12.6-17.9
			c-3.2-21,8.1-34.5,24-45.3V12.2C63.8,10.7,55,9.3,46.3,7.8C32.2,5.2,18,2.6,3.6,0L3.6,46.8z"/>
		<path class="st0" d="M96.2,1606.3c-9.3-1.6-18.5-3.2-27.8-4.8c-7.2-1.4-14.5-2.8-22-4.2v-22.6c-4.5-0.7-8.6-1.3-12.8-2
			c-9.9-1.8-19.8-3.6-29.9-5.4v114.4c9.5,1.5,18.8,3,28.1,4.5c4.7,0.9,9.4,1.8,14.7,2.8v-22.7c7.7,1.3,14.8,2.4,21.9,3.6
			c6.9,1.3,13.7,2.7,20.6,4v56.8c-4.9-0.8-9.6-1.5-14.2-2.2c-9.5-1.8-18.9-3.5-28.4-5.3v-22.6c-14.4-2.5-28.4-5-42.9-7.5v111.2
			c0,0.8,0.1,1.7,0.2,2.9c14.1,2.4,28.1,4.8,42.7,7.3v-22.2c9.5,1.6,18.9,3.1,28.3,4.7c6.5,1.1,13.1,2.3,19.6,3.5
			c25.6,4.6,51.1,9.1,76.6,13.7c1.7,0.4,3.3,0.8,5.4,1.2v22c8.5,1.4,16.7,2.8,24.8,4.1c5.6,1,11.3,2.1,17.2,3.2V1731
			c-5.2-0.8-10.3-1.7-15.4-2.5l-26.7-4.9v22.6c-2.4-0.3-4.4-0.5-6.4-0.8c-14.4-2.7-28.8-5.3-43.1-8v-56.9
			c14.2,2.5,28.1,4.9,41.9,7.3c2.4,0.5,4.9,1,7.6,1.6v22.6c14.2,2.5,28,4.9,42.1,7.4V1605c-13.9-2.4-27.8-4.8-42.2-7.3v22.5
			l-6.2-0.7L96.2,1606.3z"/>
		<path class="st0" d="M85.8,702.6c-8.3-1.5-16.6-3-24.9-4.5c-4.7-0.9-9.4-1.8-14.5-2.8v-22.6c-3.9-0.6-7.5-1.2-11.1-1.8
			c-10.5-1.8-20.9-3.7-31.6-5.6v117.2c10,1.6,19.9,3.2,29.8,4.8c4.1,0.8,8.2,1.6,12.9,2.5v-22.3c1.1,0.2,2.2,0.3,3.3,0.5
			s2.1,0.3,3.2,0.5s2.1,0.3,3.1,0.5c0.5,0.1,1,0.1,1.5,0.2s1,0.1,1.5,0.2l26.1,4.6l80,14.3c3.6,0.7,7.1,1.4,11,2.1v22.4
			c6.2,1,12.1,1.9,18,2.8l24.1,4.2V703c-7.9-1.3-15.7-2.6-23.5-3.8c-6-1.1-12-2.3-18.6-3.5v22.8c-4-0.7-7.5-1.2-11-1.8
			C138.7,712,112.2,707.3,85.8,702.6z"/>
		<path class="st0" d="M155.3,1378.5l-63.8,12c-6.4,1.2-12.7,2.4-19.1,3.6l-30.8,5.8c-12.7,2.3-25.3,4.5-38,6.8v95.2
			c13,2.2,25.8,4.3,38.6,6.4c1.2,0.2,2.3,0.4,4.1,0.7v-12.8c8.9,4.7,17.1,9,25.4,13.4l18.1,9.7c21.4,11.6,42.8,23.1,64.3,34.7
			c5,2.7,10.1,5.4,15.1,8.1l7,4.2v18.8c5.4,0.9,10.5,1.8,15.6,2.6c8.7,1.6,17.4,3.2,26.5,4.8v-97.8c-8.7-1.4-17.3-2.8-25.8-4.2
			c-5.2-1-10.5-2-16.3-3.1v21.6l-5.7-2.9c-2.8-1.6-5.7-3.3-8.4-4.8v-55.9c4.7-0.6,9.2-1.2,14.1-1.8v20.5l4.6,0.8
			c12.4,2.2,24.8,4.4,37.5,6.6v-111c-12.6-2.1-25-4.2-37.4-6.2c-1.4-0.3-2.9-0.6-4.7-0.9v21.3C169,1375.8,162.1,1377.2,155.3,1378.5
			z M123.6,1451.1c0.2,0,0.3,0.2,0.8,0.3v30.1c-11.2-5.7-22-11.1-32.8-16.6l-12.4-6.7c4.4-0.8,8.2-1.5,11.9-2.2
			C101.8,1454.4,112.7,1452.7,123.6,1451.1z"/>
		<path class="st0" d="M55,807c-10.3,0.8-20.1,5-27.8,12c-12.6,11-19.5,25.2-21.7,41.4C3.9,872,3.7,884,3.6,895.8
			c-0.2,34.4-0.1,68.8-0.1,103.6c7.7,1.2,15.1,2.4,22.5,3.6c6.7,1.2,13.3,2.4,20.6,3.8v-22.3c3.2,0.4,5.8,0.8,8.5,1.1
			c9.7,1.7,19.3,3.5,29,5.2c27.6,5,55.3,9.9,82.9,14.9c2.8,0.6,5.6,1.1,8.8,1.8v22.1c8.7,1.4,17.1,2.8,25.4,4.1
			c5.6,1,11.2,2.1,17.1,3.2V923c-5.4-0.8-10.6-1.7-15.9-2.5c-8.7-1.6-17.5-3.2-26.8-4.9v22.6l-7.4-0.9c-7.6-1.5-15.3-3-23.3-4.6
			c0-11.2,0.1-22.1,0-33.1c-0.6-42.6-24.8-79.3-58.5-89C76.1,807,65.7,805.3,55,807z M102,925.3c-5.8-1-11.6-1.9-17.4-2.9
			c-9.7-1.7-19.3-3.5-29-5.2c-3-0.6-6-1.3-9.8-2.1c3.6-12.9-6.5-29.1,11-38c9.7-1.8,19.1,0.2,28.4,2.9
			C101.9,888.9,107,902.4,102,925.3z"/>
		<path class="st0" d="M175.3,1071.4l-25.2-4.2c-20.1-3.6-40.2-7.2-60.3-10.8l-33.6-5.9c-3.2-0.7-6.3-1.3-9.9-2.1v-23.3
			c-6.8-1.1-13.2-2.1-19.7-3.1c-7.6-1.4-15.1-2.8-23-4.2V1135l21.7,11.1c9.9,5.2,19.8,10.4,29.6,15.6l27.8,14.6l10.7,6
			c-4.9,1.1-9.3,2.1-13.6,3.1c-9.8,2-19.7,3.9-29.5,5.9c-9.5,1.9-18.9,3.8-28.4,5.7c-6.1,1.2-12.2,2.4-18.3,3.6v110.1
			c6.2,1,12.3,1.9,18.3,2.9l24.4,4.4v-23.1c1.7,0.1,2.8,0.1,4,0.2c9.8,1.7,19.7,3.5,29.5,5.3l90.5,16.1c1.8,0.5,3.7,0.9,5.9,1.5
			v22.8c8.5,1.4,16.7,2.8,24.8,4.1c5.6,1,11.3,2.1,17.2,3.2v-100.2c-5.6-0.9-11.1-1.8-16.6-2.6c-8.4-1.5-16.7-3.1-25.6-4.7v23.2
			c-2-0.2-3.6-0.4-5.1-0.6c-26.9-4.9-53.7-9.8-82.1-14.9c28.2-5.2,54.8-10.2,81.5-15.1c9.6-1.8,19.3-3.5,29-5.3
			c6.3-1,12.6-2.1,18.9-3.2v-19.9l-17.2-8.8l-30-15.7c-29.4-15.4-58.8-30.8-88.2-46.2l-23.2-12.6l30.7,5.1
			c19.5,3.5,39.1,6.9,58.6,10.3c8.9,2,17.8,3.9,26.7,5.8v22.7c9,1.5,17.8,3,26.6,4.4c5.3,0.9,10.5,1.9,16,2.9v-117
			c-4.8-0.8-9.5-1.5-14.2-2.3c-9.3-1.7-18.7-3.4-28.4-5.1v18L175.3,1071.4z"/>
		<path class="st0" d="M163.3,1897.3c14.8,27.3,14.6,49.3-0.5,67.2c-5.8,4.9-12.8,8.1-20.3,9.2c-20.1,3.4-39-2-58-7.6
			c-9.9-4-19.2-9-27.2-16.3c-19.3-22.6-17.9-46.4,3.4-59.2c6.3-3.2,13.1-4.1,20.1-3.9v-47.7c-6.8-1.1-13.4-2.2-20.1-3.3l-32.4-5.7
			c-8.1-1.4-16.3-2.9-24.7-4.4v48c5.5,1,10.8,2,17,3.1C8.5,1886.8,2.1,1899.3,0,1914v17.4c3,25.7,11.4,49.2,27.9,69.5
			c7.9,10.4,17.4,19.5,28.2,26.8c8.3,6.3,17.5,11.3,27.3,15c26.6,10.7,53.6,14,81.3,4.1c12-4,22.7-11,31.3-20.3c1-1,2.1-2,3-3.1
			c14.7-17.3,21.1-37.9,23.1-60.1v-19.1c-2.3-24.3-9.9-46.5-25.6-65.4c-9-11.5-19-21.7-32.3-28.4l-17,28.1L163.3,1897.3z"/>
		<path class="st0" d="M73.6,460.5c-13.6,1.7-26.4,5.9-37.7,13.9c-1.7,1.2-3.5,2.3-5.2,3.7C11.3,493.8,2.9,515.2,0,539.3l0,22
			c0.3,0.9,0.5,1.8,0.6,2.7c2.9,27.3,14.9,52.9,34,72.7c10.7,11.6,23.5,21,37.8,27.8c34.1,15.9,68.7,21.4,104.4,5.3
			c13.1-6.1,24-16,31.3-28.4c8.8-12.4,11.4-26.8,13.8-41.2v-21.5c-1.9-16.7-6.2-32.6-14-47.5c-7.4-14.8-17.8-27.8-30.5-38.3
			C147.2,467.9,113,455.9,73.6,460.5z M154.5,550.5c9.4,4.7,17.1,11.5,20.9,21.8c1.6,5.5,1.7,11.3,0.1,16.8
			c-12.7,21.1-33.2,16.1-52,14.6c-17.7-1.3-35-5.7-51.2-12.8C59.8,584.5,48.3,577,46,561.4c-2.2-14.7,6.8-23.8,26.4-26.9
			C101.2,532.6,128.7,537.6,154.5,550.5L154.5,550.5z"/>
		<path class="st0" d="M29.5,205.5c-8.5-1.5-17-3.1-25.9-4.7v100.9c8.5,1.4,16.8,2.7,25.2,4.1c5.7,1.1,11.4,2.1,17.6,3.3v-23.6
			c5.3,0.8,10.1,1.6,14.9,2.3c10.8,1.9,21.6,3.8,32.4,5.8c7.3,1.4,14.6,2.8,22.8,4.4l-15.3,6.5c-11,4.4-22,8.8-33,13.3
			c-12.1,4.9-24.3,9.8-36.5,14.6L3.7,343.5v94.9c9.5,1.6,18.8,3.1,28.2,4.6c4.7,0.9,9.3,1.7,14.5,2.7v-23.2c7,1.1,13.6,2.2,20.1,3.2
			c12,2.1,24,4.3,36,6.4c16.8,3,33.6,6,50.4,9.1l22.6,4.3v23c5.2,0.8,10.1,1.6,15,2.4c9.1,1.6,18.2,3.3,27.6,5V375.5l-26.9-4.3
			c-5.1-1-10.1-1.9-15.8-3v23.3c-7.6-1.2-14.8-2.4-21.9-3.5l-51.6-9.1l0.5-1.4l48.7-19.6c10.5-4.2,21-8.4,31.5-12.6l35.6-14v-69.1
			c-11.6-2-23-3.9-34.5-5.8l-32.5-5.7c-0.5,0.1-0.9,0.4-1.3,0.8c0.4-0.4,0.8-0.6,1.3-0.8l-57.4-10.3l-33.1-5.8
			c-4.7-0.9-9.4-1.8-14.5-2.8v-23.6C40.5,207.2,35,206.3,29.5,205.5z"/>
	</g>
</g>
</svg>
