<?xml version="1.0" encoding="utf-8"?>
<!-- Generator: Adobe Illustrator 23.0.1, SVG Export Plug-In . SVG Version: 6.00 Build 0)  -->
<svg version="1.1" id="Layer_1" xmlns="http://www.w3.org/2000/svg" xmlns:xlink="http://www.w3.org/1999/xlink" x="0px" y="0px"
	 viewBox="0 0 222 1963.6" style="enable-background:new 0 0 222 1963.6;" xml:space="preserve">
<style type="text/css">
	.st0{fill:#FFFFFF;}
</style>
<title>Response_White</title>
<g>
	<g id="Layer_1-2">
		<path class="st0" d="M159.7,974.2c-0.1,0-0.2,0.1-0.4,0.1L159.7,974.2c0.3,0.3,0.7,0.6,1,0.8L159.7,974.2z"/>
		<path class="st0" d="M1.2,653v0.5c0,0.4,0,0.8,0,1.2v-2.4C1.2,652.6,1.2,652.8,1.2,653z"/>
		<path class="st0" d="M170.6,1754.4c-18.3-0.3-25.3,13.2-33.6,23.8c-7.2-12.1-3.1-29.4-18.4-33.3c-4.4-3.5-7.3-6.3-10.6-8.3
			c-36.7-22.5-85.3-0.8-98.3,43.6C4,1800,3,1820.5,1.3,1840.9v46.7l2.2,67.9c0.1,2.1,0,4.2,0,9.2h105.2l2.7-12.8
			c0.3,7.8,5.1,8.6,10.9,8.2c4-0.2,3-3.5,3.4-5.9h2.8c1.6,5,5.6,5.7,10.4,5.4l1.5-9.8c0.6,11.8,6.6,6.3,9.6,6.2l5.9,3.5
			c1.9-1.2,3.6-2.2,5.5-3.4l1.8,6.2c1.7,0.2,3.4,0.4,5.1,0.6l1.9-3.4c1.2-0.1,2.5-0.3,3.2-0.4l3.3,5.5h42.1c0.8-2.7,2.2-5.3,2.2-7.9
			c0.2-20.7,0-41.4,0.2-62.1c0-4.9-2-6.6-6.7-6.5c-15,0.2-30.1,0.1-44.8,0.1c-5.2-9-14.1-2.2-21-5.4v-41.2c3.6-0.2,7.1-0.5,10.9-0.7
			l1.3-13.3c3.8,1.8,6,0.3,7.4-4.1l1.6,8.1c12.1,5,47.2-18.4,53.5-35.5v-29.8l-2.3-41.5c-1.4-0.7-2.8-1.5-5-2.7
			C202.9,1736.7,182,1740.8,170.6,1754.4z M96.6,1824.2c3.3,21.2,0.5,42.3,0.1,63.7H50.9c7.8-27.6-11.7-61,18.4-81.9
			C86.1,1804.5,94.5,1810.1,96.6,1824.2z"/>
		<path class="st0" d="M156.1,484.4c1.5-0.2,3.4,2.4,5.7,4.2c17,0,35.1,0.1,53.2,0c3.9,0,5.8,1.5,6,5.5c0.6,10.5,1.4,21,2.1,31.5
			v25.8c-3.5,23.2-26.6,25.5-40.6,37.3c-6.5,5.5-12.7,13.8-23.1,14.2l-1.3-6.6l-0.5,5.6c-1.7,0.6-3.3,1.1-4.7,1.6l-5.9-6.6
			c-6.2,5.8-0.1,23.6-17.3,15.8l-1.9,12.3c-1.9-0.2-3.5-0.3-5.4-0.5v-4.8l-4.1-2.3l-1.4,13.6c-1.8,0.3-3.6,0.6-5.9,1v0.3v0.3v0.3
			v0.3c-2,6.7-2.8,9.2-3.8,12.5c-2.3-0.6-4.7-1.3-7.2-2l-0.4,4.1c9.1,5.2,15.4-7.2,24.3-2.8l0.5,3.5h5.8c7.9-8.1,17.4-2.9,25.8-4.1
			c1.5-0.2,3.3,2.5,5.6,4.3c17.1,0,35.3,0,53.5,0c4,0,5.7,1.8,5.7,5.8c-0.1,19.2-0.1,38.4,0,57.6c0,3.8-1.8,5.7-5.6,5.6
			c-17.3,0-34.5,0-51.3,0l-1.1-5.6c-1.1-0.5-2.3-1.1-3.5-1.7c-3.9,4.5-7.5,4-10.4-1.5c-3.2,8.4-8.5,1.4-13.1,2.4l-0.6,3.4
			c-1.6,0.3-3.3,0.5-5.3,0.8l-3.2-9.2l-3,7.2c-2.2-0.6-4.3-1.2-10.4-2.8c0.3,0,0.6,0,0.8,0.1l-1.3-2.4h-6.7l-0.4,6.7
			c-34,2.8-68,1.5-101.9,0.2l-2.8-36.8v-23.6c0-0.4,0-0.8,0-1.2V653c0-0.2,0-0.5,0-0.7l0,0v-0.5v-0.4v-0.3V651
			c0.1-0.4,0.1-0.8,0.3-1.2l0.1-0.3c0.1-0.3,0.2-0.6,0.3-0.9l0.1-0.4l0.2-0.6l0.2-0.4l0.3-0.6l0.2-0.3l0.1-0.3
			c0.1-0.2,0.2-0.3,0.3-0.5l0.3-0.5l0.3-0.3l0.5-0.6l0.2-0.2l0.1-0.1l0.3-0.4l0.3-0.3c0.1-0.1,0.2-0.2,0.3-0.3l0.4-0.3l0.4-0.4
			l0.4-0.3l0.4-0.3c0.1-0.1,0.3-0.2,0.4-0.3l0.3-0.2l0.5-0.3l0.6-0.4l1-0.7c0.3-0.2,0.6-0.4,0.9-0.6s0.6-0.4,1-0.6l0.6-0.4
			c0.9-0.5,1.8-1.1,2.6-1.6c30.6-19.3,55.9-46.1,88.7-62.5c2.7-1.4,2.5-7.8,5-10.7s6.9-4.3,10.5-6.4l3.3,2.7l2-1.2l-1.6-4.4
			c-1.1,0.4-2,0.7-3,1.1l-4.6-2.7l-2.5,2.1c-0.3,4.1-2.6,5.5-6.7,5.5c-32.4-0.1-64.8-0.1-97.2,0c-4.2,0-5.9-1.8-5.8-5.9
			c0.1-19.8,0.1-39.5,0-59.3c0-4.3,1.8-6.1,6-6.1c32.4,0.1,64.8,0.1,97.2,0l0.5-3.9c6.3-0.7,13.1-4,18.3,3.8
			c1.6,0.1,3.6,0.3,4.4,0.4C138.2,480.5,147.7,485.5,156.1,484.4z"/>
		<path class="st0" d="M172.6,1h46.1c2.7,2.8,2.4,6.2,2.4,9.6c0,65.8,0,131.7,0,197.6c0,4.3-1.8,6.3-6,6c-16-1.1-32.9,3.7-47.3-8
			c-1.7,3-3.4,6.3-7.1,2.1c-5.3,5.4-8.2,5.9-8.7,1.7c-0.4-3.3-0.5-6.7-0.8-10.3c-3.6,2.1-6.1,0.9-8.1-2.4
			c-2.8,4.4-1.1,12.6-8.5,12.3c-8.3-0.6-12.4-3.9-14.8-11.7l-1.4,13.7c-0.2,0.1-0.5,0.1-0.7,0.2s-0.3,0.1-0.4,0.1
			c-0.5,0.1-1,0.3-1.5,0.4l-0.4,0.1c-0.3,0.1-0.6,0.2-0.8,0.2l-0.4,0.1c0,0-446.1-1672.5-0.3,0.1c0,0-0.1,0-0.1,0H3.4v-4.9
			c0-63.1,0-126.3,0-189.4c0-4.4,1.8-6.2,6.2-6.2c13,0.1,26,0.1,39,0c4.4,0,6.2,1.9,6.1,6.3c-0.1,38.3-0.1,76.6,0,114.9v4.2h26.2
			v-34.3c0-26,0-52.1,0-78.1c0-3.8,1.4-5.6,5.4-5.8c13.7-0.4,27.5-0.6,41-4.1c1.4-0.4,3.3,1.1,5,1.7v119.3c2.5,0.4,4.8,0.8,6.9,1.2
			l4.1-5c8.6,1.2,17.3,2.3,26.3,3.6c0.1-1.1,0.2-2.3,0.2-3.6c0-41.3,0-82.6-0.1-123.9C169.6,5.5,170.1,2.9,172.6,1z"/>
		<path class="st0" d="M1.3,1887.6l2.2,67.9c0.1,2.1,0,4.2,0,9.2h58.5c-19.6,0-39.1,0-58.7,0.1c-1.7,0-2-0.3-2-2
			C1.3,1937.6,1.3,1912.6,1.3,1887.6z"/>
		<path class="st0" d="M215.8,1494.6c3.5,0,5.2,1.7,5.2,5.2c0,67.5,0,135.1,0,202.6c0,2.8-1.3,5.2-4,5.1
			c-16.7-0.9-34.3,3.9-49.4-7.9c-1.6,3.5-3.4,6-7,2.1c-2.6,1.8-4.5,9.5-8.4,1.7c-1.4-2.8-0.7-6.8-1-10.4c-3.6,2.3-6.1,1.1-8-2.3
			c-3.2,4-1,12.8-8.7,12.1c-8.1-0.4-12.2-3.8-14.7-11.6l-1.4,13.7c-0.8,0.2-1.7,0.4-2.4,0.6c-0.2,0.1-0.4,0.1-0.6,0.2
			s-0.5,0.1-0.7,0.2c-0.2,0-0.3,0.1-0.4,0.1c-0.1,0-0.2,0-0.3,0.1s-0.1,0-0.2,0.1c-0.1,0-0.1,0-0.2,0H3.8c-0.2-2.6-0.3-3.9-0.3-5.1
			c0-63,0-126.1-0.1-189.1c0-4.4,1.6-6.2,6.1-6.2c13.2,0.2,26.4,0.1,39.6,0c3.9,0,5.6,1.8,5.5,5.6c0,38.4,0,76.8,0,115.2v4.3H81
			v-30.4c0-27.3,0-54.7,0-82.1c0-4.1,1.8-5.9,5.9-5.9c13.5,0,26.9-0.6,40.1-3.9c1.5-0.4,3.4,1,5.2,1.6v119.4c2.5,0.4,4.9,0.9,5.6,1
			c11.3-8.1,21.5-1,32-1.2v-15.7c0-37.8,0-75.5-0.1-113.3c0-4.2,1.6-6.1,5.9-6.1C189,1494.7,202.4,1494.6,215.8,1494.6z"/>
		<path class="st0" d="M122.4,731.9c-18.7,5.4-38.5,7.1-56.3,15.9C-10,785.4-19.4,919.5,50.2,974c25,19.6,60.4,24.9,78.6,11.8
			c1.1,0.4,2.2,0.8,3.3,1.2c0.8-0.4,1.5-0.7,1.6-0.7c2.3,1,4.1,2.5,5.2,2.1c5.3-2.2,2.4-7.6,4.1-11.8c4.8,2,10,4,9.5-4.6
			c1.6,1.1,3,2,4.2,2.9c0.6-0.2,1.2-0.3,1.7-0.4l0.5-0.1l0.5-0.1l0.3-0.1c0.4,0.3,0.7,0.6,1,0.8l0.3,0.3l0.4,0.4
			c1.6-0.4,3.1-0.7,4.6-1l0.8-3c2.6-0.7,5.1-1.5,9.8-2.8c26-20.3,41.3-49.1,43.2-83.8c2.9-52.6-4-101.9-54.7-133.3v-6.6
			c-9.8-3.1-18.6-10.4-30.4-5.7c-1.1-0.3-2.7-0.7-4.5-1.1C128.4,734.9,127.1,730.6,122.4,731.9z M144.6,804.7
			c1.2,0.1,2.4,0.2,3.9,0.3l4.6,11h5.4l1.4-3.8c2.8,9.8-0.8,21.3,8.3,31c0.1,16,1.6,33.7-4.8,51l-4-2.2
			c-8.3,10.4-16.1,21.3-28.7,26.9l-3.3-2.3c-35.3,7.6-55.2,0.5-66.4-25.5c-8.3-19.2-8.7-39.2,2.6-57.5
			c11.5-18.7,31.3-22.5,52.9-25.4l0.4,0.1c0.1,0,0.2,0,0.2,0l0.8,0.2l5-5.8h1.8c0.1,4.3-0.8,9.2,6.1,8.3l1.2-2.2l9.7-5.9l1.6-3.6
			L144.6,804.7z"/>
		<path class="st0" d="M8.5,1064.6c-6.3,36.3-5.2,72.9-4.5,109.5c0.3,19.4,0.1,38.8,0.1,60.7h110.7v-11c1.9-0.2,3.4-0.4,4.9-0.6
			l3.4,6.2l6.1-3.4c0.9,1.1,2,2.5,3.1,3.8c1.9-0.4,3.5-0.8,5.2-1.2l1.3,4.2c1.8-0.2,3.5-0.4,5.5-0.7v-7.4l4.9,1.5l1.1,2
			c2.1-0.4,4.7,1.2,6-1.9c1.6,0.7,3.1,1.2,4.5,1.8c1.4-1,2.6-1.8,3.5-2.4l1.8-7.2l2.5,16.5c15.6,0,31.3,0,47,0
			c3.7,0,5.4-1.7,5.4-5.4c0-22.2,0-44.4,0-66.6c0-4.3-1.9-6-6.1-6c-19.5,0-39.1-0.1-58.7-3.6c-1.3-35.3,3-70.6-8-104.6
			c-1.4-0.2-2.5-0.3-2.8-0.3c-9.2-14.1-12.1-31.2-27.9-39c-6.6-1.4-12-3.9-17.6-5.2C48.3,992.4,17.5,1012.9,8.5,1064.6z
			 M80.4,1077.6c4,1,7.9,3.3,13.1,1.1c21.8,24.3,8.7,53.2,11.8,80.2H53.8c0.7-23.9-4.1-48,5.4-71
			C62.9,1078.7,70.3,1075.2,80.4,1077.6z"/>
		<path class="st0" d="M152.8,1249.2c41.9,11.9,61.6,41.8,66,83.3c5.5,51.8,3.4,102.2-33,144.6c-3.4,3.9-6.1,10.6-12.5,8.7
			c-6.7-2.1-6-9.5-6.9-15.1c-0.5-3.8-0.7-7.7-0.8-11.5c-15.2-9.6-11-26.4-20-36.4l5.1-3.3c25.9-25.1,19.9-56.9,18.7-87.5
			c-2.5,0.1-4.5,0.2-6.5,0.3c-2.6-6.7-0.7-14.3-5.8-20.2c-2.4,1.8-4.9,2-6.6-1.4c-2.3,4.7,1.1,12.8-8.4,12.6
			c-2.2,7.4,0.8,16.2-5.6,23.7v41.7l-4.4,1.5v15.8c-1.6,0.3-2.6,0.5-4.2,0.8v18.3c-2.1,0.9-3.6,1.5-5.1,2.2l-3.2-2.2l-0.7,6.3
			c-1.3,0.2-2.5,0.4-3.7,0.6c-2.1,6,2.2,13.5-4.5,18.5l-2.2,9.6c-25.2,19-48.5,12.5-69.7-2.4C15,1441.2,7.6,1415.2,4,1387.6
			c-5.7-43.3,10.9-101.3,39.7-134.4c8.3,0.1,31,32.7,37.8,54c-28.6,22-36.1,70.5-13.5,90.6c11.3-5.1,11.2-16.6,13.4-26.3
			c6-26,5.5-53.2,13.9-78.7c5.1-15.5,17.1-27,27-39.7h4.6l2.9,3.2c2.3-0.6,4.4-1.1,6.6-1.7l0.7-4.1
			C142.2,1248.5,147.5,1247.7,152.8,1249.2z"/>
		<path class="st0" d="M170.9,237.6c4.8-1.7,8.3,0.6,11.7,3.3c33,26.8,38,64.1,38.4,103c0.4,41.1-6.8,79.9-35,112
			c-3.5,3.9-6.2,10.9-12.7,8.8s-5.9-9.5-6.8-15.2c-0.7-4.6-0.6-9.3-1-14.6c-13.5,2.4-8.8-8.1-10.3-13.3c-3.9-7.2-7.7-13.4-8-21
			l3.7-2.1c25.5-25.4,19.9-57.2,18.5-87.9h-6.8l-2.5-15.3l-2.8-4.5c-2.5,2.3-5,2.4-6.7-1.2c-2.4,4.6,1.1,12.7-8.4,12.7
			c-2.5,7.3,1.1,16.4-6.1,23.8v41.7c-1.3,0.3-2.4,0.6-3.9,1v16c-1.5,0.3-2.6,0.6-4.2,1v18.4c-2,0.9-3.6,1.5-5.2,2.2l-3.3-2.4
			l-0.6,6.6l-3.8,0.5c-2,6,2,13.4-4.7,18.7l-1.8,8.2c-18.1,16.7-36.2,14.2-54.6,7.6c-13.8-5-24.3-14.1-32.5-26.2
			c-13.4-20-17.5-42.5-18.2-66c-1.3-45.2,12.2-85.6,41.7-123c20.5,13,22.5,38.5,37.2,54.9c-30,25-37.7,73.1-15.1,90.8
			c6.8,0.5,8.2-5.1,9.7-9.6c7.2-20.8,9.6-42.6,11.5-64.3c2.4-28.1,15.1-50.3,34.6-70.1h3.8l2.8,3.2c2.1-0.5,4.4-1.1,6.8-1.7l0.4-3.9
			C150.2,224.3,160.8,230.3,170.9,237.6z"/>
	</g>
</g>
</svg>
