<?xml version="1.0" encoding="utf-8"?>
<!-- Generator: Adobe Illustrator 23.0.1, SVG Export Plug-In . SVG Version: 6.00 Build 0)  -->
<svg version="1.1" id="Layer_1" xmlns="http://www.w3.org/2000/svg" xmlns:xlink="http://www.w3.org/1999/xlink" x="0px" y="0px"
	 viewBox="0 0 222 1114.8" style="enable-background:new 0 0 222 1114.8;" xml:space="preserve">
<style type="text/css">
	.st0{fill:#FFFFFF;}
</style>
<title>Heals_White</title>
<g>
	<g id="Layer_1-2">
		<path class="st0" d="M80.7,951.6L3,936.1v-75.3L219,904v75.3l-73.5-14.8v60.2l73.5,14.8v75.3L3,1071.6v-75.3l77.7,15.5V951.6z"/>
		<path class="st0" d="M3,645.7l54.2,10.8v100.6l28.2,5.6v-97.6l51.2,10.2V773l28.2,5.7V675.1l54.3,13.9v175.9L3,821.6V645.7z"/>
		<path class="st0" d="M181.7,573.1l37.2,15.7v87.3L3,562.1V453.7l216-27.5v84.3l-37.2,0.6L181.7,573.1z M130.5,512.1l-65.4,1.4
			v10.5l65.4,27.5V512.1z"/>
		<path class="st0" d="M219,409.6L3,366.4v-75.3l151.2,30.3v-87l64.8,16L219,409.6z"/>
		<path class="st0" d="M138.8,99.2l-3.5,28.9c-5.9,51.2-24,76.8-54.2,76.8c-4.2,0-8.3-0.5-12.3-1.3C22.9,194.5,0,151.5,0,74.7
			C-0.1,49.5,2.9,24.4,9,0l61.8,12.3c-5.8,22.4-8.9,45.5-9,68.7c0,16.4,0.9,30.2,2.6,41.6l17.3,3.5l3.3-28.9
			c6-51,24.4-76.5,55.3-76.5c4.4,0,8.7,0.5,13,1.3C199,31.2,222,74.2,222,150.9c0.1,24.7-3,49.4-9,73.3l-61.7-12.3
			c6-23.8,9-46.2,9-67.3c0-18.3-0.9-32.1-2.6-41.6L138.8,99.2z"/>
	</g>
</g>
</svg>
