<?xml version="1.0" encoding="utf-8"?>
<!-- Generator: Adobe Illustrator 23.0.1, SVG Export Plug-In . SVG Version: 6.00 Build 0)  -->
<svg version="1.1" id="Layer_1" xmlns="http://www.w3.org/2000/svg" xmlns:xlink="http://www.w3.org/1999/xlink" x="0px" y="0px"
	 viewBox="0 0 222 1048.5" style="enable-background:new 0 0 222 1048.5;" xml:space="preserve">
<style type="text/css">
	.st0{fill:#FFFFFF;}
</style>
<title>Forces_White</title>
<g>
	<g id="Layer_1-2">
		<path class="st0" d="M3.2,884c0-1,0.4-2,1.2-2.7c0.9-0.7,2-0.9,3.1-0.7l42.3,6.5c1.2,0.2,2.2,0.7,3,1.6c0.8,0.8,1.3,1.9,1.3,3.1
			v72.7l30.2,4.7V906c0-1,0.4-2,1.2-2.7c0.8-0.7,1.9-0.9,2.9-0.7l42.5,6.5c1.1,0.2,2.1,0.7,2.9,1.6c0.8,0.8,1.2,1.9,1.2,3.1v63.1
			l76.8,11.8c1.2,0.2,2.3,0.8,3.1,1.8c0.7,0.9,1.2,2,1.2,3.2v51.2c0.1,1.1-0.4,2.2-1.2,2.9c-0.9,0.7-2,0.9-3.1,0.7L7.4,1017.2
			c-1.2-0.2-2.3-0.7-3.1-1.6c-0.8-0.9-1.2-2.1-1.2-3.3V884z"/>
		<path class="st0" d="M8.8,814.3C3,800,0,784.7,0,769.3c-0.1-14.6,2.9-29,8.8-42.3c5.4-12.4,13.5-23.4,23.7-32.3
			c10.3-8.7,22.4-15.1,35.4-18.6c14-3.9,28.7-4.7,43.1-2.4c15.2,2.4,29.9,7.7,43.2,15.5c27,15.6,47.9,39.9,59.1,69
			c5.7,14.3,8.7,29.6,8.7,45c0.1,14.6-2.8,29-8.7,42.3c-10.7,25.2-32.6,44-59.1,50.9c-14,3.9-28.8,4.7-43.1,2.3
			c-15.2-2.4-29.8-7.6-43-15.5C41,867.7,20.2,843.4,8.8,814.3L8.8,814.3z M146.9,828.3c9.9-8.5,14.9-19.9,14.9-34.2
			c0-14.2-5-27.2-14.9-38.8c-9.9-11.6-21.9-18.4-35.9-20.6s-26,1-35.9,9.6c-9.9,8.5-14.9,19.9-14.9,34.2c0,14.3,5,27.2,14.9,38.7
			c9.9,11.6,21.9,18.5,35.9,20.6S137,836.8,146.9,828.3z"/>
		<path class="st0" d="M142.8,529.2c18.8-13.7,42.8-18.7,71.9-15.1c1.2,0.2,2.2,0.8,3,1.6c0.8,0.9,1.3,2.1,1.3,3.3V574
			c0,1-0.4,2-1.2,2.7c-0.8,0.7-1.9,0.9-2.9,0.7c-17.1-1.9-30.3,0.4-39.4,7s-14.2,16.8-15.2,30.7l54.4,8.4c1.2,0.2,2.2,0.8,3,1.7
			c0.8,0.9,1.3,2,1.3,3.2v51.2c0.1,1.1-0.4,2.2-1.3,2.9c-0.9,0.7-1.9,0.9-3,0.7L7.4,651.5c-1.2-0.1-2.3-0.7-3.1-1.6
			c-0.8-0.9-1.2-2.1-1.2-3.3V545.8c-0.1-8.2,1.5-16.4,4.7-23.9c3.1-7,7.9-13.1,13.9-17.9c6.2-4.9,14.1-8.2,23.9-9.9s21-1.7,33.6,0.3
			C108.2,498.8,129.4,510.4,142.8,529.2z M58.4,599.5l45.3,7c1.3,0.2,1.9-0.3,1.9-1.6v-24.5c0-6.2-2.4-12.2-6.7-16.6
			c-4.5-4.9-10.4-7.9-17.9-9c-7.4-1.1-13.4,0-17.9,3.5c-4.5,3.5-6.7,8.4-6.7,14.6v24.4C56.4,598.4,57.3,599.4,58.4,599.5
			C58.4,599.5,58.4,599.5,58.4,599.5z"/>
		<path class="st0" d="M142.2,339.6l32.5-36c0.7-0.8,1.7-1.1,2.8-1.1c1.1,0,2.2,0.5,3,1.3c12.8,12.3,23.1,26.9,30.4,43
			c7.3,15.8,11,32.9,11.1,50.3c0.1,14.5-2.8,28.8-8.7,42c-10.8,25.1-32.7,43.7-59.1,50.4c-14.1,3.8-28.8,4.5-43.2,2.2
			c-15.2-2.4-29.8-7.6-43-15.4C41,460.8,20.2,436.7,8.8,407.8C3,393.6,0,378.4,0,363.1c0-17.2,3.7-32.7,11.1-46.8
			c7-13.6,17.4-25.2,30.2-33.6c1-0.5,2.1-0.7,3.2-0.4c1.1,0.3,2.1,1,2.8,1.9l32.3,46c0.7,0.8,1,1.9,1,3c0,1-0.6,1.9-1.4,2.5
			c-5.7,4.2-10.3,9.6-13.7,15.8c-3.5,6.4-5.3,13.5-5.3,20.8c0,14.2,5,27,14.9,38.4c9.9,11.4,21.9,18.3,35.9,20.4
			c14,2.2,26-1,35.9-9.4s14.9-19.7,14.9-33.9c-0.1-7.8-1.9-15.5-5.3-22.5c-3.4-7.5-8.1-14.3-13.8-20.2c-0.8-0.7-1.3-1.8-1.4-2.9
			C141.2,341.3,141.5,340.4,142.2,339.6z"/>
		<path class="st0" d="M215.8,297.8c0.1,1.1-0.4,2.2-1.2,2.9c-0.9,0.7-2,0.9-3.1,0.7L7.4,270.1c-1.2-0.1-2.3-0.7-3.1-1.6
			c-0.8-0.9-1.2-2.1-1.2-3.3V140.4c0-1.1,0.4-2.1,1.2-2.8c0.8-0.7,2-1,3.1-0.8l42.3,6.5c1.2,0.2,2.2,0.8,3,1.7
			c0.8,0.9,1.2,2,1.3,3.2v69.3l30.2,4.6v-60c0-1,0.4-2,1.2-2.7c0.8-0.7,1.9-0.9,2.9-0.7l42.5,6.5c1.1,0.2,2.1,0.7,2.9,1.6
			c0.7,0.8,1.2,1.9,1.2,3v60l30.4,4.7v-69.3c0-1.1,0.4-2.1,1.2-2.8c0.8-0.7,1.8-1,2.9-0.8l42.3,6.5c1.2,0.2,2.3,0.8,3.1,1.8
			c0.7,0.9,1.2,2,1.2,3.2L215.8,297.8z"/>
		<path class="st0" d="M10.4,0.1l41.5,10.4c1.2,0.4,2.2,1.1,2.9,2.1c0.7,0.9,1,2.2,0.7,3.3c-3,12.5-4.6,25.3-4.9,38.2
			c-0.2,4.3,0.4,8.6,1.8,12.7c1,3.1,2.8,6,5.2,8.2c1.7,1.5,3.5,2.8,5.5,3.9c1.3,0.7,2.8,1.2,4.3,1.5c1.6,0.2,3.1,0.2,4.7-0.1
			c2.2-0.5,4.4-1.3,6.4-2.4c2.6-1.3,5-3.8,7.4-7.5c2.7-4.3,4.6-9,5.7-13.9c1.6-6.3,4.3-12.4,7.9-17.8c3.8-5.7,8.5-10.8,13.9-15
			c6.1-4.6,13.2-7.8,20.7-9.4c8.8-1.9,17.9-2.1,26.8-0.6c20.7,3.2,36,11.9,46,26.2c10,14.3,15,35.7,15,64.2
			c0.1,14.9-0.8,29.9-2.6,44.7c-0.1,1-0.7,1.8-1.5,2.3c-0.9,0.6-2,0.8-3,0.6l-41.5-10.4c-1.2-0.3-2.3-1.1-3-2.2
			c-0.7-1-0.9-2.3-0.6-3.5c2.8-12,4.4-24.3,4.7-36.7c0.2-4.4-0.4-8.8-1.8-12.9c-1.3-3.7-3-6.4-5.1-8.1c-1.7-1.5-3.5-2.8-5.5-3.8
			c-1.4-0.7-2.8-1.2-4.4-1.5c-1.6-0.2-3.1-0.2-4.7,0.1c-2.2,0.5-4.4,1.3-6.4,2.3c-2.5,1.2-5,3.7-7.4,7.4c-2.7,4.3-4.6,9-5.7,13.9
			c-1.5,6.4-4.2,12.5-7.9,17.9c-3.8,5.7-8.5,10.7-13.8,14.9c-5.5,4.4-12.4,7.6-20.7,9.5c-8.8,1.9-18,2.2-26.9,0.7
			c-19.8-3-35-12.6-45.4-28.5S3.1,74.1,3.2,48.9C3.3,33.6,4.2,18.2,6,3c0.1-1,0.7-1.8,1.5-2.3C8.3,0.1,9.4-0.1,10.4,0.1z"/>
	</g>
</g>
</svg>
