<?xml version="1.0" encoding="utf-8"?>
<!-- Generator: Adobe Illustrator 23.0.1, SVG Export Plug-In . SVG Version: 6.00 Build 0)  -->
<svg version="1.1" id="Layer_1" xmlns="http://www.w3.org/2000/svg" xmlns:xlink="http://www.w3.org/1999/xlink" x="0px" y="0px"
	 viewBox="0 0 292.6 1723" style="enable-background:new 0 0 292.6 1723;" xml:space="preserve">
<style type="text/css">
	.st0{fill:#FFFFFF;}
</style>
<g>
	<g id="Layer_1-2">
		<path class="st0" d="M280.9,1352.3c-7.9,20.1-18.4,34.9-31.5,44.9c-12.4,9.7-27.5,15.3-43.2,16c-4.9,0.1-9-3.9-9.1-8.8
			c0-0.1,0-0.2,0-0.2V1327c-0.3-3.1,0.2-6.2,1.4-9.1c1.4-3,3.3-5.9,5.5-8.4c6.2-7.9,9.3-17.9,9.3-30.1c0.3-7.5-0.8-15.1-3.1-22.2
			c-1.9-5.5-4.8-8.4-8.1-8.4s-8.6,3.6-11.2,11c-2.6,7.4-5.3,21.3-7.9,41.6c-9.3,69.7-39.2,104.8-89.6,104.8
			c-17.5,0.2-34.5-5.3-48.5-15.8c-14.3-10.3-25.3-24.8-33.2-43.7S0,1306.7,0,1282.3s4.3-48,12.9-67.1s19.6-34.2,32.7-44.4
			s26-15.8,38.5-16.2c2.3,0,4.6,0.9,6.2,2.6c1.7,1.5,2.7,3.7,2.6,6v81.2c0.2,3.1-0.2,6.2-1.4,9.1c-1.2,2.7-2.9,5.1-5,7.2
			c-5,6.1-7.6,13.8-7.4,21.7c0,12.9,3.8,19.3,11.5,19.3c4.1,0,7.4-3.1,10.3-9.6c2.9-6.4,5-18.1,7.2-35.6c3.6-27,8.8-48.7,16-65.2
			c7.2-16.5,16.5-28.2,28.2-35.8s26.5-11,44.4-11c18.4-0.4,36.4,5.8,50.6,17.5c14.6,11.7,25.8,27.7,33.7,48.3
			c7.9,20.5,11.7,43.5,11.7,69.3C292.6,1305.3,288.8,1332.5,280.9,1352.3z"/>
		<path class="st0" d="M265.6,1083.4c-18.2,24.1-45.9,37-83.1,38.7c-7.4,0.2-19.4,0.5-35.8,0.5s-28.9-0.2-36.5-0.5
			c-36.3-1.7-63.8-14.8-82.4-39.4C9.1,1058.1,0,1025.8,0,985.9c-0.3-22.9,3.4-45.7,11-67.4c6.5-19.5,18.3-36.8,34.2-49.9
			c15.8-12.9,35.3-19.6,58.8-19.8c5,0,9.1,4.1,9.1,9.1c0,0,0,0,0,0v82.9c0.2,3.4-0.7,6.7-2.4,9.5c-2.6,2.6-5.9,4.5-9.6,5.5
			c-6.8,2-12.7,6.1-17,11.7c-3.5,5.6-5.3,12.2-5,18.9c0,9.3,2.6,16.7,7.6,21.7s13.4,7.9,25.3,8.1c7.4,0.5,18.6,0.5,33.9,0.5
			s26.5,0,34.4-0.5c11.9-0.2,20.5-2.9,25.6-8.1s7.4-12.4,7.4-21.7c0-15.5-7.2-25.8-22-30.6c-3.5-0.9-6.7-2.6-9.3-5
			c-1.8-3-2.7-6.5-2.4-10v-82.9c0-2.4,0.9-4.7,2.6-6.5c1.6-1.7,3.9-2.6,6.2-2.6c23.6,0.2,43.2,6.9,58.8,19.8
			c15.8,13.2,27.7,30.4,34.4,49.9c7.6,21.6,11.3,44.4,11,67.4C292.6,1026.8,283.5,1059.2,265.6,1083.4z"/>
		<path class="st0" d="M285.2,813.5c-2,2.1-4.7,3.4-7.6,3.3H15.1c-3,0-5.8-1.2-7.9-3.3c-2.1-2-3.2-4.8-3.1-7.6V597.3
			c-0.2-5.8,4.2-10.7,10-11h58.3c2.9-0.1,5.7,1,7.6,3.1c2.1,2.1,3.3,4.9,3.3,7.9v121.8h25.6v-113c-0.1-2.9,1-5.7,3.1-7.6
			c2.1-2.1,4.9-3.3,7.9-3.3h52.8c6,0.2,10.8,5,11,11v113h25.6V594c0.2-6,5-10.8,11-11h57.3c6,0.2,10.8,5,11,11v211.8
			C288.6,808.7,287.4,811.5,285.2,813.5z"/>
		<path class="st0" d="M285.2,542.4c-2,2.1-4.7,3.4-7.6,3.3H15.1c-3,0-5.8-1.2-7.9-3.3c-2.1-2-3.2-4.8-3.1-7.6v-64.2
			c-0.4-6.9,3.2-13.4,9.3-16.7L125.9,385H15.1c-5.8,0.2-10.7-4.2-11-10v-74.5c-0.1-2.9,1-5.7,3.1-7.6c2.1-2.1,4.9-3.3,7.9-3.3h262.5
			c6,0.2,10.8,5,11,11v64.3c0.3,3.7-0.7,7.4-2.9,10.5c-1.8,2.4-4,4.5-6.5,6.2l-103.7,68.8h102c2.9-0.1,5.7,1,7.6,3.1
			c2.1,2,3.4,4.7,3.3,7.6v73.8C288.6,537.7,287.3,540.4,285.2,542.4z"/>
		<path class="st0" d="M285.9,1720.4c-1.6,1.7-3.9,2.6-6.2,2.6c-1,0-1.9-0.2-2.9-0.5l-259.4-90.8c-3.6-1-6.9-3.1-9.3-6
			c-2.8-3.4-4.3-7.8-4.1-12.2v-88.1c-0.2-4.5,1.2-8.9,4.1-12.4c2.4-2.9,5.7-5,9.3-6l259.4-90.8c0.9-0.2,1.9-0.3,2.9-0.2
			c4.8,0.2,8.6,4.1,8.8,8.8v75.3c0,8.1-3.3,13.4-10,15.8l-26.8,9.8v87.4l26.8,9.8c6.7,2.4,10,7.6,10,15.8v75.2
			C288.5,1716.3,287.6,1718.6,285.9,1720.4z M172.5,1546.5l-75.7,23.2l75.7,22.7V1546.5z"/>
		<path class="st0" d="M285.2,178.6c-2,2.1-4.8,3.2-7.6,3.1h-186v67.6c-0.2,6-5,10.8-11,11H15.1c-3,0-5.8-1.2-7.9-3.3
			c-2.1-2-3.2-4.8-3.1-7.6V11C4,8.1,5.1,5.3,7.2,3.3C9.3,1.2,12.1,0,15.1,0h65.4c6,0.2,10.8,5,11,11v67.6h186c2.9-0.1,5.7,1,7.6,3.1
			c2.2,2,3.4,4.9,3.3,7.9v81.2C288.6,173.7,287.4,176.6,285.2,178.6z"/>
	</g>
</g>
</svg>
