<?xml version="1.0" encoding="utf-8"?>
<!-- Generator: Adobe Illustrator 25.4.1, SVG Export Plug-In . SVG Version: 6.00 Build 0)  -->
<svg version="1.1" id="Layer_1" xmlns="http://www.w3.org/2000/svg" xmlns:xlink="http://www.w3.org/1999/xlink" x="0px" y="0px"
	 viewBox="0 0 253.6 1723" style="enable-background:new 0 0 253.6 1723;" xml:space="preserve">
<style type="text/css">
	.st0{fill:#FFFFFF;}
</style>
<g id="Layer_2_00000060726762109825519910000016897388438478154418_">
	<g id="Layer_1-2">
		<path class="st0" d="M253.6,1585v138c-16.5-5.2-29.9-7-63-7H63.2c-33.1,0-46.3,1.8-63,7v-138c0-44.1,22.9-64.6,70.4-64.6h114
			C233.4,1520.5,253.6,1541,253.6,1585z M203.3,1609.5c0.2-2.9-2.1-5.5-5-5.6c-0.2,0-0.4,0-0.6,0h-141c-3.7,0-5.9,2.1-5.9,5.6v23.7
			h152.5V1609.5z M198.7,1496.8l-143.3-21.2c-28.5-4-40.5-1.9-55.1,2.7v-159.1c14.6,4.6,26.6,6.7,55.1,2.7l143.3-21.2
			c28.8-4.6,40.4-8.9,54.9-15.9v106.5c-13.5-5.1-24.8-7.7-49.7-5.6v34.5c24.9,1.9,36.2-0.6,49.7-5.9v98.8
			C239.1,1505.5,227.5,1500.9,198.7,1496.8L198.7,1496.8z M154.6,1390.8l-115.1,11.9l115.1,11.9V1390.8z M0.3,1309.5v-109
			c10,5.7,18,6.5,36.8,2.7l68.3-16.3l-68.3-16.2c-19.3-4.3-26.9-3-36.8,2.7v-98.6c10,7.3,17.5,11.6,36.8,18.6l159.2,56.4
			c29.3-0.3,41.7-1.9,57.3-7v96.5c-15.1-4.9-27.8-6.2-56.3-6.7l-160.2,58.4C17.8,1298.3,10.2,1302.2,0.3,1309.5z M123.4,891.7
			c10.2-18.7,22.1-23.6,53.6-23.6h12.3c49.1,0,64.3,20.5,64.3,64.6v137.7c-16.5-5.2-29.9-7-63-7H63c-33.1,0-46.3,1.8-63,7V931.1
			c0-43.7,14.6-63,63.3-63h9.7C101.4,868.1,114,873,123.4,891.7L123.4,891.7z M100.1,957.1c0.1-3-2.3-5.6-5.3-5.7
			c-0.2,0-0.4,0-0.6,0H57.3c-2.7-0.4-5.3,1.5-5.6,4.3c0,0,0,0.1,0,0.1c-0.1,0.4-0.1,0.8,0,1.3v23.5h48.4L100.1,957.1z M203.6,957.1
			c0.3-2.9-1.8-5.4-4.7-5.6c0,0,0,0,0,0c-0.3,0-0.6,0-0.9,0h-43.1c-2.9-0.2-5.4,1.9-5.6,4.7c0,0.3,0,0.6,0,0.9v23.5h54.3V957.1z
			 M190.6,841.2H63.2c-33.1,0-46.3,1.6-63,7V710c0-49.2,21.2-66.7,68.3-66.7h19.3c42.8,0,55.7,8.6,60.6,24.5l65.3-18.9
			c13.7-4.1,27-9.4,39.8-15.9v92.5l-87.8,20.2v12.3h24.8c33.1,0,46.5-1.8,63-7v97.1C237.1,842.9,223.8,841.2,190.6,841.2
			L190.6,841.2z M114,734.8c0.2-2.9-2.1-5.5-5-5.6c-0.2,0-0.4,0-0.6,0H56.7c-3.7,0-5.9,2.1-5.9,5.6v23.3H114L114,734.8z
			 M190.6,616.1H63.2c-33.1,0-46.3,1.6-63,7V464.8l58.4-5.9c-5.7,23.6-7,53.5-7,74h47.1v-67h50.5v67.4h54c0-20.9-1.6-50.8-7-74.4
			l57.3,5.9v158.3C237.1,617.8,223.8,616.1,190.6,616.1L190.6,616.1z M198.6,435.4L55.3,414.2c-28.5-4-40.5-2.1-55.1,2.7V257.7
			c14.6,4.6,26.6,6.5,55.1,2.7l143.3-21.2c28.8-4.8,40.4-9.1,54.9-16v106.4c-13.5-4.9-24.8-7.6-49.7-5.6v34.6
			c24.9,1.9,36.2-0.7,49.7-6.1v98.9C239,444,227.5,439.4,198.6,435.4L198.6,435.4z M154.5,329.2l-115.1,12l115.1,11.9V329.2z
			 M190.6,210.6H63.2c-33.1,0-46.3,1.6-63,7v-97.3c16.6,5.3,29.8,7,63,7h35.5V115L0.3,93.1V0c12.7,6.6,26,11.9,39.8,15.9l72.3,19.9
			c7.3-18,19.6-22.6,55.4-22.6h22.9c33.1,0,46.5-1.3,63-6.7v84.7c-18.9,6.5-43.1,7.6-64.9,7.6h-23.4c-12.6,0-17.5,3-17.5,15v13.5
			h42.8c33.1,0,46.5-1.6,63-7v97.3C237.2,212.2,223.8,210.6,190.6,210.6L190.6,210.6z"/>
	</g>
</g>
</svg>
