<svg width="298" height="1285" viewBox="0 0 298 1285" fill="none" xmlns="http://www.w3.org/2000/svg">
<path d="M2.57338 1281.69L2.57338 1236.22C2.97338 1227.29 4.5967 1222.82 7.44337 1222.82C5.8167 1212.94 5.00337 1205.77 5.00337 1201.3C5.00337 1189.8 6.56005 1176.41 9.67338 1161.11C4.93338 1160.02 2.56671 1152.91 2.57337 1139.79L2.57337 1086.19C5.81337 1086.19 7.44336 1085.32 7.44336 1083.56L12.1134 1086.19L100.823 1086.19L117.673 1083.56L119.903 1088.83C66.57 1116.73 39.4367 1132.83 38.5034 1137.15L38.5034 1185.27L127.213 1185.27L124.783 1179.99L124.783 1169.24L127.213 1163.75C122.753 1162.13 117.137 1152.32 110.363 1134.32L110.363 1129.04L112.803 1129.04C124.717 1129.04 152.663 1129.92 196.643 1131.68C199.763 1129.92 202.193 1129.04 203.953 1129.04L163.153 1166.6L163.153 1185.27L258.973 1185.27C258.973 1183.94 259.783 1178.61 261.403 1169.27C259.783 1150.86 258.16 1140.17 256.533 1137.19C258.153 1137.19 258.973 1136.19 258.973 1134.35C238.267 1125.97 227.913 1117.03 227.913 1107.55L225.473 1107.55C220.06 1107.55 216.06 1108.5 213.473 1110.39C185.733 1103.22 168.953 1095.17 163.133 1086.23C177.473 1086.23 184.647 1085.36 184.653 1083.6L189.573 1086.2L287.823 1086.2L292.493 1083.57L294.933 1088.84L294.933 1142.44C294.933 1144.2 295.743 1145.08 297.363 1145.08L294.933 1150.56L294.933 1185.27L292.493 1198.69L294.933 1198.69L292.493 1203.97C292.493 1211.55 294.117 1237.47 297.363 1281.72L292.493 1284.36C291 1284.36 281.46 1273.67 263.873 1252.29L196.673 1252.29C165.68 1252.29 138.543 1249.59 115.263 1244.17C98.2167 1249.59 83.8034 1252.29 72.0234 1252.29L33.6634 1252.29L7.47337 1281.69L2.57338 1281.69Z" fill="white"/>
<path d="M17.2136 889.763C9.88024 879.883 6.21357 871.29 6.21357 863.983L111.004 863.983C65.5302 894.023 41.2369 919.67 38.1236 940.923L39.1236 940.923C38.9836 942.543 38.9136 944.173 38.9136 945.793C49.0736 970.027 67.2936 982.14 93.5736 982.133L184.524 982.133C228.91 982.133 251.107 965.96 251.114 933.613L251.114 932.803L251.724 932.803C243.604 913.583 220.27 891.25 181.724 865.803L286.404 865.803C286.404 873.103 282.737 881.697 275.404 891.583C282.584 909.85 288.064 923.587 291.844 932.793L293.474 939.693C293.474 1007.36 242.99 1045.73 142.024 1054.8C87.3569 1054.8 44.9302 1030.58 14.7436 982.123C6.62358 980.79 2.56358 976.73 2.56358 969.943C-1.74308 936.117 3.14024 909.39 17.2136 889.763Z" fill="white"/>
<path d="M2.57357 839.323L2.57357 824.913C2.52515 824.582 2.55454 824.245 2.65937 823.927C2.76421 823.61 2.94161 823.321 3.1775 823.084C3.41339 822.848 3.70127 822.669 4.01826 822.563C4.33525 822.457 4.67261 822.426 5.00357 822.473L2.57357 817.603L2.57357 731.123L33.8636 757.693L40.9636 757.693C62.7636 757.693 80.3602 759.25 93.7536 762.363C98.8936 759.256 110.127 757.7 127.454 757.693L125.014 752.823L125.014 704.693L127.454 700.023L33.8636 700.023L2.57357 726.453L2.57356 608.693C4.19356 608.693 14.6136 619.116 33.8336 639.963L60.2236 639.963C67.8036 639.963 73.4202 642.33 77.0736 647.063C90.6069 642.33 100.217 639.963 105.904 639.963L187.574 639.963C190.68 639.963 192.237 642.33 192.244 647.063C245.13 642.336 271.574 637.546 271.574 632.693L285.994 616.043C292.354 618.353 295.534 620.713 295.534 623.153L295.534 695.193C295.534 700.873 293.164 708.873 288.424 719.193L283.574 719.193C283.574 716.086 277.144 709.726 264.284 700.113L163.384 700.113L163.384 757.693L187.574 757.693C205.574 762.433 219.174 764.803 228.374 764.803C241.497 759.839 255.219 756.632 269.184 755.263C269.184 753.09 277.167 745.036 293.134 731.103L295.574 731.103L295.574 848.863L290.694 848.863C277.707 828.023 266.544 817.603 257.204 817.603L213.934 817.603C213.603 817.651 213.265 817.622 212.948 817.517C212.63 817.412 212.342 817.235 212.105 816.999C211.868 816.763 211.69 816.475 211.583 816.158C211.477 815.841 211.447 815.504 211.494 815.173C211.164 815.126 210.827 815.157 210.511 815.263C210.195 815.368 209.908 815.546 209.672 815.782C209.436 816.017 209.259 816.304 209.153 816.621C209.048 816.937 209.017 817.273 209.064 817.603L168.254 810.503C155.534 813.61 145.924 815.166 139.424 815.173L122.574 812.933C122.574 816.053 121.024 817.603 117.904 817.603L40.9636 817.603C35.1569 817.603 25.5502 824.843 12.1436 839.323L2.57357 839.323Z" fill="white"/>
<path d="M2.57336 528.583L2.57336 492.243C2.57336 434.183 42.97 399.806 123.763 389.113L154.013 389.113C203.54 389.113 235.873 403.256 251.013 431.543C269.96 431.543 284.103 453.806 293.443 498.333C293.443 566 242.96 604.37 141.993 613.443C87.3267 613.443 44.9 589.216 14.7134 540.763C6.62003 539.383 2.57336 535.323 2.57336 528.583ZM93.5734 540.763L184.523 540.763C228.91 540.763 251.107 524.59 251.113 492.243C251.113 472.083 220.797 459.97 160.163 455.903L129.883 455.903C69.2567 455.903 38.94 472.076 38.9334 504.423C49.08 528.65 67.2934 540.763 93.5734 540.763ZM111.573 504.423L111.573 498.333C111.573 492.92 121.723 482.77 142.023 467.883L147.913 467.883C168.213 484.123 182.357 492.243 190.343 492.243L190.343 498.333C190.343 504.693 174.237 516.806 142.023 534.673L111.573 504.423Z" fill="white"/>
<path d="M2.57338 398.693L2.57338 353.223C2.97338 344.29 4.5967 339.823 7.44337 339.823C5.8167 329.943 5.00337 322.77 5.00337 318.303C5.00337 306.803 6.56005 293.403 9.67338 278.103C4.93338 277.023 2.56671 269.92 2.57337 256.793L2.57337 203.193C5.81337 203.193 7.44336 202.323 7.44336 200.563L12.1134 203.193L100.823 203.193L117.673 200.563L119.903 205.833C66.57 233.727 39.4367 249.833 38.5034 254.153L38.5034 302.263L127.213 302.263L124.783 296.983L124.783 286.233L127.213 280.743C122.753 279.123 117.137 269.313 110.363 251.313L110.363 246.033L112.803 246.033C124.717 246.033 152.663 246.913 196.643 248.673C199.763 246.913 202.193 246.033 203.953 246.033L163.153 283.593L163.153 302.263L258.973 302.263C258.973 300.93 259.783 295.597 261.403 286.263C259.783 267.85 258.16 257.157 256.533 254.183C258.153 254.183 258.973 253.183 258.973 251.343C238.267 242.957 227.913 234.023 227.913 224.543L225.473 224.543C220.06 224.543 216.06 225.49 213.473 227.383C185.733 220.217 168.953 212.163 163.133 203.223C177.473 203.223 184.647 202.347 184.653 200.593L189.523 203.223L287.773 203.223L292.443 200.593L294.883 205.863L294.883 259.463C294.883 261.223 295.693 262.103 297.313 262.103L294.883 267.583L294.883 302.293L292.443 315.693L294.883 315.693L292.443 320.973C292.443 328.553 294.067 354.47 297.313 398.723L292.443 401.363C290.95 401.363 281.41 390.673 263.823 369.293L196.673 369.293C165.68 369.293 138.543 366.587 115.263 361.173C98.2167 366.58 83.8034 369.287 72.0234 369.293L33.6634 369.293L7.47337 398.693L2.57338 398.693Z" fill="white"/>
<path d="M10.3132 136.063C3.81322 119.81 0.699873 99.0999 0.973206 73.9332L2.60321 67.0332C6.38988 57.8332 11.8699 44.0966 19.0432 25.8232C11.7099 15.9432 8.04321 7.34988 8.04321 0.0432126L112.833 0.043208C74.2666 25.4832 50.9332 47.8165 42.8332 67.0432L43.4432 67.0432L43.4432 67.8533C40.7299 96.4133 50.2699 110.627 72.0632 110.493C103.603 114.687 123.5 106.16 131.753 84.9132C140.68 54.9999 152.727 33.1399 167.893 19.3332L187.983 27.4632L175.573 13.2433C186.837 5.65231 200.152 1.68513 213.733 1.87328C266.253 0.926613 292.307 26.4365 291.893 78.4032C296.22 106.823 291.35 130.847 277.283 150.473C284.583 160.353 288.25 168.947 288.283 176.253L183.483 176.253C228.95 146.213 252.903 120.567 255.343 99.3132C255.483 97.6932 255.553 96.0632 255.553 94.4432C254.887 70.7632 242.5 60.4766 218.393 63.5832C197.427 60.7432 180.983 72.5165 169.063 98.9032C153.637 150.477 122.303 177.277 75.0632 179.303C63.2899 179.023 52.9365 176.923 44.0032 173.003C39.4032 164.75 33.7199 158.93 26.9532 155.543C21.9466 151.083 19.4432 144.79 19.4432 136.663L10.3132 136.063Z" fill="white"/>
</svg>
