<?xml version="1.0" encoding="utf-8"?>
<!-- Generator: Adobe Illustrator 23.0.1, SVG Export Plug-In . SVG Version: 6.00 Build 0)  -->
<svg version="1.1" id="Layer_1" xmlns="http://www.w3.org/2000/svg" xmlns:xlink="http://www.w3.org/1999/xlink" x="0px" y="0px"
	 viewBox="0 0 222 1271.3" style="enable-background:new 0 0 222 1271.3;" xml:space="preserve">
<style type="text/css">
	.st0{fill:#FFFFFF;}
</style>
<title>ADA_White</title>
<g>
	<g id="Layer_1-2">
		<path class="st0" d="M1.8,966.5c-0.1-1,0.6-1.8,1.6-1.9l117.5-21.3c0.2,0,0.5,0,0.7,0l0.9,0.2c0.7,0.1,1.2,0.5,1.7,1
			c0.4,0.5,0.7,1.1,0.7,1.8v30.3c0.1,0.9-0.5,1.8-1.5,1.9c0,0-0.1,0-0.1,0l-17.6,3.2v39.4l17.6,10c1,0.4,1.6,1.4,1.6,2.5v30.1
			c0,0.6-0.2,1.2-0.7,1.7c-0.5,0.4-1.1,0.5-1.7,0.4l-0.9-0.2c-0.3-0.1-0.6-0.2-0.9-0.3L3.4,999.4c-1-0.5-1.6-1.4-1.6-2.5V966.5z
			 M75.4,1004v-17l-22.8,4.3L75.4,1004z"/>
		<path class="st0" d="M2.4,826.9c-0.4-0.5-0.6-1.1-0.6-1.7v-31.3c0-0.6,0.2-1.2,0.7-1.5c0.5-0.4,1.2-0.5,1.8-0.3l118.1,22.4
			c0.7,0.1,1.3,0.5,1.8,1c0.4,0.5,0.7,1.1,0.7,1.8V847c0,0.6-0.2,1.2-0.7,1.5c-0.5,0.4-1.2,0.5-1.8,0.3l-59.7-11.3l38.5,16.5
			c1.2,0.4,1.9,1.5,1.8,2.7v31c0,1.3-0.6,2-1.8,2l-38.5,1.8l59.7,11.3c0.7,0.1,1.3,0.5,1.8,1.1c0.4,0.5,0.7,1.2,0.7,1.8v29.6
			c0,0.6-0.2,1.2-0.7,1.7c-0.5,0.4-1.2,0.5-1.8,0.3L4.3,915.1c-0.7-0.1-1.3-0.5-1.8-1c-0.4-0.5-0.7-1.2-0.7-1.9V881
			c0-0.6,0.2-1.1,0.6-1.5c3.3-2.7,9.4-5.5,18.1-8.2c7.8-2.5,15.8-4.5,23.8-6.1l10.6-2.1l-4.5-2.6c-1.9-1.1-5.5-3.2-10.6-6.3
			s-9.9-6.1-14.2-8.9c-4.3-2.8-8.8-6-13.3-9.5C8.8,833.3,5.4,830.2,2.4,826.9z"/>
		<path class="st0" d="M124.8,806.5c0,0.6-0.2,1.2-0.7,1.6c-0.5,0.4-1.2,0.5-1.8,0.3L4.3,786.1c-0.7-0.1-1.3-0.5-1.8-1
			c-0.4-0.5-0.7-1.2-0.7-1.9V711c0-0.6,0.2-1.2,0.7-1.6c0.5-0.4,1.2-0.6,1.8-0.4l24.5,4.6c0.7,0.1,1.3,0.5,1.7,1.1
			c0.5,0.5,0.7,1.2,0.7,1.9v40.1l17.5,3.3v-34.7c0-0.6,0.2-1.2,0.7-1.5c0.5-0.4,1.1-0.5,1.7-0.4l24.6,4.7c1.3,0.3,2.3,1.4,2.3,2.8
			v34.7l17.6,3.3v-40.1c0-0.6,0.2-1.2,0.7-1.6c0.5-0.4,1.1-0.6,1.7-0.4l24.5,4.7c0.7,0.1,1.3,0.5,1.8,1.1c0.4,0.5,0.7,1.2,0.7,1.8
			L124.8,806.5z"/>
		<path class="st0" d="M82.6,634.5c10.9-7.5,24.7-9.9,41.6-7.2c0.7,0.1,1.3,0.5,1.7,1c0.5,0.5,0.8,1.2,0.7,1.9V662
			c0,0.6-0.2,1.2-0.7,1.5c-0.5,0.4-1.1,0.5-1.7,0.4c-9.9-1.5-17.5-0.4-22.8,3.2c-5.3,3.6-8.2,9.4-8.8,17.5l31.5,6
			c0.7,0.1,1.3,0.5,1.7,1.1c0.5,0.5,0.7,1.2,0.7,1.9v29.6c0,0.6-0.2,1.3-0.7,1.7c-0.5,0.4-1.1,0.5-1.7,0.3L4.3,702.4
			c-0.7-0.1-1.3-0.5-1.8-1c-0.4-0.5-0.7-1.2-0.7-1.9v-58.3c-0.1-4.7,0.8-9.4,2.7-13.8c1.8-4,4.6-7.4,8.1-10
			c3.6-2.7,8.2-4.4,13.8-5.3c6.5-0.8,13.1-0.5,19.4,0.9C62.6,616.2,74.9,623.3,82.6,634.5z M33.8,673.5l26.2,5
			c0.7,0.1,1.1-0.2,1.1-0.9v-14.2c0-3.6-1.4-7.1-3.9-9.8c-2.7-3-6.4-4.9-10.3-5.6c-4.3-0.8-7.7-0.3-10.3,1.7c-2.6,2-4,5.1-3.9,8.3
			v14.1C32.6,672.8,33.1,673.4,33.8,673.5L33.8,673.5z"/>
		<path class="st0" d="M124.8,590v29.7c0,0.6-0.2,1.2-0.7,1.7c-0.5,0.4-1.2,0.5-1.8,0.3L4.3,599.2c-0.7-0.1-1.3-0.5-1.8-1
			c-0.4-0.5-0.7-1.2-0.7-1.9v-29.7c0-0.6,0.2-1.2,0.7-1.6c0.5-0.4,1.2-0.6,1.8-0.4l118.1,22.4c0.7,0.1,1.3,0.5,1.8,1.1
			C124.6,588.7,124.8,589.4,124.8,590z"/>
		<path class="st0" d="M82.3,481.4l18.8-20.2c0.4-0.4,1-0.6,1.6-0.6c0.7,0,1.3,0.3,1.7,0.8c7.4,7.4,13.3,16,17.5,25.5
			c4.2,9.2,6.4,19.2,6.4,29.3c0.1,8.3-1.6,16.6-5,24.1c-3.1,7-7.8,13.1-13.7,18c-6,4.8-13,8.2-20.5,9.9c-8.2,1.9-16.7,2-25,0.4
			c-8.8-1.7-17.3-5-24.9-9.8c-15.6-9.5-27.6-23.9-34.2-40.9C1.7,509.8,0,500.9,0,492c-0.1-9.3,2.1-18.6,6.4-26.8
			c4-7.7,10.1-14.2,17.5-18.8c0.6-0.3,1.2-0.4,1.8-0.1c0.6,0.2,1.2,0.6,1.6,1.2L46,474.7c0.4,0.5,0.6,1.1,0.5,1.8
			c0,0.6-0.3,1.1-0.8,1.4c-3.3,2.3-6,5.4-7.9,8.9c-2,3.6-3.1,7.7-3.1,11.9c0,8.2,2.9,15.7,8.6,22.5c5.2,6.5,12.6,11,20.8,12.5
			c8.1,1.5,15.1,0,20.8-4.7c5.7-4.7,8.6-11.1,8.6-19.3c-0.1-4.5-1.1-9-3.1-13.1c-2-4.4-4.7-8.5-8-12c-0.5-0.4-0.7-1-0.8-1.7
			C81.6,482.4,81.9,481.8,82.3,481.4z"/>
		<path class="st0" d="M1.8,365.4c-0.1-1,0.6-1.8,1.6-1.9l117.5-21.3c0.2,0,0.5,0,0.7,0l0.9,0.2c0.7,0.1,1.2,0.5,1.7,1
			c0.4,0.5,0.7,1.1,0.7,1.8v30.3c0.1,0.9-0.5,1.8-1.4,1.9c-0.1,0-0.1,0-0.2,0l-17.6,3.2v39.4l17.6,10c1,0.4,1.6,1.4,1.6,2.5v30.1
			c0,0.6-0.2,1.2-0.7,1.7c-0.5,0.4-1.1,0.5-1.7,0.4l-0.9-0.2c-0.3-0.1-0.6-0.2-0.9-0.3L3.4,398.2c-1-0.5-1.6-1.4-1.6-2.5V365.4z
			 M75.4,402.9v-17l-22.8,4.3L75.4,402.9z"/>
		<path class="st0" d="M4.3,240.2c-0.7-0.1-1.3-0.5-1.8-1c-0.4-0.5-0.7-1.1-0.7-1.8v-29.8c0-0.6,0.2-1.2,0.7-1.6
			c0.5-0.4,1.2-0.6,1.8-0.4L122.4,228c0.7,0.1,1.3,0.5,1.7,1.1c0.5,0.5,0.7,1.2,0.7,1.9v30.8c0.1,0.8-0.4,1.6-1.2,1.8l-68.2,25.6
			l66.9,12.7c0.7,0.1,1.3,0.5,1.8,1.1c0.4,0.5,0.7,1.2,0.7,1.8v29.6c0,0.6-0.2,1.2-0.7,1.7c-0.5,0.4-1.2,0.5-1.8,0.3L4.3,314
			c-0.7-0.1-1.3-0.5-1.8-1c-0.4-0.5-0.7-1.2-0.7-1.9v-30.8c-0.1-0.8,0.4-1.5,1.1-1.8l62.1-26.8L4.3,240.2z"/>
		<path class="st0" d="M137.5,1223.4c-0.1-4.6,0.7-9.2,2.4-13.5c1.6-3.9,4-7.3,7.2-10c3.2-2.7,7.5-4.5,12.8-5.3
			c6.2-0.8,12.4-0.6,18.5,0.7c6.5,1.1,12.7,3.3,18.5,6.3c4.9,2.5,9.3,6,12.9,10.2c3.1,3.8,5.6,8.1,7.2,12.7
			c1.6,4.6,2.5,9.5,2.4,14.4v31.1c0,0.4-0.1,0.8-0.4,1.1c-0.3,0.3-0.8,0.4-1.2,0.3l-78.7-14.8c-0.5-0.1-0.9-0.3-1.2-0.7
			c-0.3-0.4-0.5-0.8-0.4-1.3V1223.4z M200.1,1240.3c0-5.1-1.9-10.1-5.4-13.8c-3.6-4-9-6.6-16.2-8c-7.2-1.4-12.6-0.8-16.2,1.9
			c-3.6,2.6-5.4,6.5-5.4,11.8v3.8c0,0.5,0.3,0.9,0.8,0.9l41.7,7.8c0.5,0.1,0.7-0.1,0.7-0.6V1240.3z"/>
		<path class="st0" d="M219.5,1176.1v19.8c0,0.4-0.1,0.8-0.4,1.1c-0.3,0.3-0.8,0.3-1.2,0.2l-78.7-14.8c-0.5-0.1-0.9-0.3-1.2-0.7
			c-0.3-0.4-0.5-0.8-0.4-1.3v-19.8c0-0.4,0.2-0.8,0.4-1.1c0.3-0.3,0.8-0.4,1.2-0.3l78.8,14.8c0.5,0.1,0.9,0.3,1.2,0.7
			C219.4,1175.3,219.5,1175.7,219.5,1176.1z"/>
		<path class="st0" d="M137.5,1103.6c-0.1-0.6,0.4-1.2,1.1-1.3l78.3-14.3c0.2,0,0.3,0,0.5,0l0.6,0.1c0.4,0.1,0.8,0.3,1.1,0.7
			c0.3,0.3,0.4,0.8,0.4,1.2v20.2c0.1,0.6-0.3,1.2-0.9,1.3c0,0-0.1,0-0.1,0l-11.7,2.1v26.3l11.7,6.6c0.7,0.3,1.1,1,1.1,1.7v20.1
			c0,0.4-0.1,0.8-0.4,1.1c-0.3,0.3-0.7,0.3-1.1,0.2l-0.6-0.1c-0.2,0-0.4-0.1-0.6-0.2l-78.2-43.8c-0.7-0.3-1.1-1-1.1-1.7
			L137.5,1103.6z M186.5,1128.6v-11.4l-15.2,2.9L186.5,1128.6z"/>
		<path class="st0" d="M174.9,1018.2c0.3-0.2,0.6-0.3,0.9-0.5c0.8-0.5,1.6-0.9,2.4-1.2c1.3-0.5,2.5-1,3.9-1.3
			c1.7-0.4,3.4-0.6,5.1-0.7c2.1-0.1,4.2,0.1,6.3,0.5c4,0.7,7.8,2,11.4,3.9c3.1,1.6,5.9,3.7,8.2,6.3c2,2.3,3.7,4.9,4.8,7.7
			c1.1,2.7,1.7,5.6,1.7,8.5v41.5c0,0.4-0.1,0.8-0.4,1.1c-0.3,0.3-0.8,0.3-1.2,0.2l-78.7-14.8c-0.5-0.1-0.9-0.3-1.2-0.7
			c-0.3-0.4-0.5-0.8-0.4-1.3v-36.9c0-2.8,0.5-5.6,1.6-8.1c1.1-2.4,2.7-4.5,4.7-6.1c2.3-1.8,5.1-2.9,7.9-3.3c3.7-0.6,7.4-0.5,11,0.3
			c2.4,0.4,4.7,1.1,7,2c1.4,0.5,2.8,1.2,4.1,2.1L174.9,1018.2z M157.5,1049.8l10.5,2c0.6,0.1,0.8-0.1,0.8-0.7v-7.4
			c0-1.7-0.7-3.3-1.8-4.6c-1.1-1.4-2.6-2.3-4.3-2.6c-2.6-0.6-5.3,1-5.9,3.6c-0.1,0.4-0.1,0.9-0.1,1.3v7.4
			C156.7,1049.3,157,1049.8,157.5,1049.8L157.5,1049.8z M200.5,1046c0-1.7-0.6-3.4-1.8-4.6c-1.1-1.3-2.6-2.2-4.3-2.6
			c-1.5-0.4-3.1,0-4.3,0.9c-1.2,1-1.9,2.5-1.8,4v11c-0.1,0.5,0.3,0.9,0.8,1c0,0,0,0,0,0l10.5,2c0.5,0.1,0.8-0.1,0.8-0.7L200.5,1046z
			"/>
		<path class="st0" d="M219.5,1012.8c0,0.4-0.1,0.8-0.4,1.1c-0.3,0.3-0.8,0.3-1.2,0.2l-78.7-14.8c-0.5-0.1-0.9-0.3-1.2-0.7
			c-0.3-0.4-0.5-0.8-0.4-1.3v-48.2c0-0.4,0.1-0.7,0.4-1c0.3-0.3,0.8-0.4,1.2-0.3l16.3,3.1c0.5,0.1,0.9,0.3,1.1,0.7
			c0.3,0.3,0.5,0.8,0.5,1.2v26.7l11.6,2.2v-23.1c0-0.4,0.2-0.8,0.4-1c0.3-0.2,0.7-0.3,1.1-0.3l16.4,3.1c0.4,0.1,0.8,0.3,1.1,0.7
			c0.3,0.3,0.4,0.8,0.4,1.2v23.1l11.7,2.2V961c0-0.4,0.2-0.8,0.4-1.1c0.3-0.3,0.7-0.4,1.1-0.3l16.3,3.1c0.5,0.1,0.9,0.3,1.2,0.7
			c0.3,0.3,0.4,0.8,0.4,1.2L219.5,1012.8z"/>
		<path class="st0" d="M139.2,881.8l16.3,3.1c0.4,0.1,0.8,0.3,1.1,0.7c0.3,0.3,0.4,0.8,0.4,1.2v18l60.8,11.4
			c0.5,0.1,0.9,0.3,1.2,0.7c0.3,0.4,0.4,0.8,0.4,1.2V938c0,0.4-0.2,0.8-0.4,1c-0.3,0.3-0.8,0.3-1.2,0.2l-60.8-11.4v18
			c0,0.4-0.1,0.8-0.4,1.1c-0.3,0.2-0.7,0.3-1.1,0.2l-16.3-3.1c-0.5-0.1-0.9-0.3-1.2-0.7c-0.3-0.4-0.5-0.8-0.4-1.3v-59
			c0-0.4,0.2-0.8,0.4-1.1C138.3,881.8,138.8,881.7,139.2,881.8z"/>
		<path class="st0" d="M219.5,890.7c0,0.4-0.1,0.8-0.4,1.1c-0.3,0.3-0.8,0.3-1.2,0.2l-78.7-14.8c-0.5-0.1-0.9-0.3-1.2-0.7
			c-0.3-0.4-0.5-0.8-0.4-1.3v-48.1c0-0.4,0.1-0.8,0.4-1.1c0.3-0.3,0.8-0.4,1.2-0.3l16.3,3.1c0.5,0.1,0.9,0.3,1.1,0.7
			c0.3,0.3,0.5,0.8,0.5,1.2v26.7l11.6,2.2v-23.1c0-0.4,0.2-0.8,0.4-1c0.3-0.2,0.7-0.3,1.1-0.2l16.4,3.1c0.9,0.2,1.5,0.9,1.6,1.9
			v23.1l11.7,2.2v-26.7c0-0.4,0.1-0.8,0.4-1.1c0.3-0.3,0.7-0.4,1.1-0.3l16.3,3.1c0.5,0.1,0.9,0.3,1.2,0.7c0.3,0.3,0.4,0.8,0.4,1.2
			L219.5,890.7z"/>
		<path class="st0" d="M140.3,770.9l16,4.6c0.5,0.2,0.9,0.5,1.1,0.9c0.3,0.4,0.4,0.8,0.3,1.3c-1.1,4.8-1.8,9.7-1.9,14.6
			c-0.1,1.7,0.2,3.3,0.7,4.9c0.4,1.2,1.1,2.3,2,3.3c0.7,0.6,1.4,1.1,2.1,1.6c0.5,0.3,1.1,0.5,1.6,0.6c0.6,0.1,1.2,0.1,1.8,0
			c0.9-0.2,1.7-0.5,2.5-0.9c1.2-0.7,2.2-1.6,2.9-2.8c1-1.6,1.8-3.4,2.2-5.3c0.6-2.4,1.6-4.7,3-6.8c1.5-2.2,3.3-4,5.4-5.6
			c2.4-1.7,5.1-2.8,8-3.3c3.4-0.6,6.9-0.6,10.3,0.1c8,1.5,13.9,5.1,17.8,10.7c3.8,5.6,5.8,14,5.9,25c0,5.7-0.3,11.5-1,17.2
			c-0.1,0.4-0.3,0.7-0.6,0.9c-0.3,0.2-0.7,0.3-1.1,0.2l-16-4.6c-0.5-0.1-0.9-0.4-1.1-0.9c-0.3-0.4-0.4-0.9-0.3-1.4
			c1.1-4.6,1.7-9.4,1.8-14.1c0.1-1.7-0.2-3.4-0.7-5c-0.4-1.2-1.1-2.3-2-3.2c-0.7-0.6-1.4-1.1-2.1-1.5c-0.5-0.3-1.1-0.5-1.7-0.6
			c-0.6-0.1-1.2-0.1-1.8,0c-0.9,0.2-1.7,0.4-2.5,0.8c-1.2,0.6-2.2,1.6-2.9,2.7c-1,1.6-1.8,3.4-2.2,5.3c-0.6,2.4-1.6,4.7-3,6.8
			c-1.5,2.1-3.3,4-5.3,5.5c-2.4,1.7-5.1,2.9-8,3.4c-3.4,0.6-7,0.6-10.4-0.1c-7.2-1.2-13.6-5.4-17.5-11.6c-4-6.3-6-14.3-6-24.1
			c0-5.9,0.4-11.8,1.1-17.7c0-0.4,0.3-0.7,0.6-0.9C139.6,770.9,140,770.8,140.3,770.9z"/>
		<path class="st0" d="M137.5,674.2c-0.1-0.6,0.4-1.2,1.1-1.3l78.3-14.3c0.2,0,0.3,0,0.5,0l0.6,0.1c0.4,0.1,0.8,0.3,1.1,0.7
			c0.3,0.3,0.4,0.8,0.4,1.2v20.2c0.1,0.6-0.3,1.2-0.9,1.3c0,0-0.1,0-0.1,0l-11.7,2.1v26.2l11.7,6.6c0.7,0.3,1.1,0.9,1.1,1.7v20.1
			c0,0.4-0.1,0.8-0.4,1.1c-0.3,0.2-0.7,0.3-1.1,0.2l-0.6-0.1c-0.2,0-0.4-0.1-0.6-0.2l-78.2-43.7c-0.6-0.3-1.1-1-1.1-1.7L137.5,674.2
			z M186.5,699.2v-11.3l-15.2,2.9L186.5,699.2z"/>
		<path class="st0" d="M140.3,588.9l16,4.6c0.5,0.2,0.9,0.5,1.1,0.9c0.3,0.4,0.4,0.8,0.3,1.3c-1.1,4.8-1.8,9.7-1.9,14.7
			c-0.1,1.7,0.2,3.3,0.7,4.9c0.4,1.2,1.1,2.3,2,3.3c0.7,0.6,1.4,1.1,2.1,1.6c0.5,0.3,1.1,0.5,1.6,0.6c0.6,0.1,1.2,0.1,1.8,0
			c0.9-0.2,1.7-0.5,2.5-0.8c1.2-0.7,2.2-1.6,2.9-2.8c1-1.6,1.8-3.4,2.2-5.3c0.6-2.4,1.6-4.7,3-6.8c1.5-2.2,3.3-4.1,5.4-5.6
			c2.4-1.7,5.1-2.8,8-3.3c3.4-0.6,6.9-0.6,10.3,0.1c8,1.5,13.9,5.1,17.8,10.7c3.8,5.6,5.8,14,5.9,25c0,5.7-0.3,11.5-1,17.2
			c-0.1,0.4-0.3,0.7-0.6,0.9c-0.3,0.2-0.7,0.3-1.1,0.2l-16-4.6c-0.5-0.1-0.9-0.4-1.1-0.9c-0.3-0.4-0.4-0.9-0.3-1.4
			c1.1-4.6,1.7-9.3,1.8-14.1c0.1-1.7-0.2-3.4-0.7-5c-0.4-1.2-1.1-2.3-2-3.2c-0.7-0.6-1.4-1.1-2.1-1.5c-0.5-0.3-1.1-0.5-1.7-0.6
			c-0.6-0.1-1.2-0.1-1.8,0c-0.9,0.2-1.7,0.4-2.5,0.8c-1.2,0.6-2.2,1.6-2.9,2.7c-1,1.6-1.8,3.4-2.2,5.3c-0.6,2.4-1.6,4.7-3,6.8
			c-1.5,2.1-3.3,4-5.3,5.5c-2.4,1.7-5.1,2.9-8,3.4c-3.4,0.6-7,0.6-10.4-0.1c-7.2-1.2-13.6-5.4-17.5-11.6c-4-6.3-6-14.3-6-24.1
			c0-5.9,0.4-11.8,1.1-17.7c0-0.4,0.3-0.7,0.6-0.9C139.6,588.9,139.9,588.9,140.3,588.9z"/>
		<path class="st0" d="M140.3,535l16,4.6c0.5,0.1,0.9,0.4,1.1,0.9c0.3,0.4,0.4,0.8,0.3,1.3c-1.1,4.8-1.8,9.7-1.9,14.7
			c-0.1,1.7,0.2,3.3,0.7,4.9c0.4,1.2,1.1,2.3,2,3.3c0.7,0.6,1.4,1.1,2.1,1.6c0.5,0.3,1.1,0.5,1.6,0.6c0.6,0.1,1.2,0.1,1.8,0
			c0.9-0.2,1.7-0.4,2.5-0.8c1.2-0.7,2.2-1.6,2.9-2.8c1-1.6,1.8-3.4,2.2-5.3c0.6-2.4,1.6-4.7,3-6.8c1.5-2.2,3.3-4,5.4-5.6
			c2.4-1.7,5.1-2.9,8-3.3c3.4-0.6,6.9-0.6,10.3,0.1c8,1.5,13.9,5.1,17.8,10.7c3.8,5.6,5.8,14,5.8,25c0,5.7-0.3,11.5-1,17.2
			c-0.1,0.4-0.3,0.7-0.6,0.9c-0.3,0.2-0.8,0.3-1.1,0.2l-16-4.6c-0.5-0.1-0.9-0.5-1.1-0.9c-0.3-0.4-0.4-0.9-0.3-1.3
			c1.1-4.6,1.7-9.3,1.8-14.1c0.1-1.7-0.2-3.4-0.7-5c-0.4-1.2-1.1-2.3-2-3.2c-0.7-0.6-1.4-1.1-2.1-1.5c-0.5-0.3-1.1-0.5-1.7-0.6
			c-0.6-0.1-1.2-0.1-1.8,0c-0.9,0.2-1.7,0.4-2.5,0.8c-1.2,0.6-2.2,1.6-2.9,2.7c-1,1.6-1.8,3.4-2.2,5.3c-0.6,2.4-1.6,4.7-3,6.8
			c-1.5,2.1-3.3,4-5.3,5.6c-2.4,1.7-5.1,2.9-8,3.4c-3.4,0.6-7,0.6-10.4-0.1c-7.2-1.2-13.6-5.4-17.5-11.6c-4-6.3-6-14.3-6-24
			c0-5.9,0.4-11.8,1.1-17.7c0-0.4,0.3-0.7,0.6-0.9C139.5,535,139.9,534.9,140.3,535z"/>
		<path class="st0" d="M139.7,502.6c-2.2-5.6-3.4-11.5-3.4-17.5c-0.1-5.6,1.1-11.1,3.4-16.2c4.2-9.6,12.6-16.5,22.8-18.8
			c5.4-1.3,11.1-1.4,16.6-0.3c5.9,1.1,11.6,3.4,16.6,6.6c10.4,6.4,18.4,16,22.8,27.4c2.2,5.6,3.4,11.5,3.4,17.5
			c0.1,5.6-1.1,11.1-3.4,16.2c-2.1,4.7-5.2,8.9-9.1,12.2c-4,3.2-8.7,5.5-13.7,6.6c-5.5,1.3-11.1,1.4-16.6,0.3
			c-5.9-1.1-11.5-3.4-16.6-6.6C152.1,523.6,144.1,514,139.7,502.6L139.7,502.6z M193,509.9c3.8-3.2,5.8-7.5,5.8-13
			c-0.4-11.4-8.5-21.1-19.6-23.6c-5.4-1-10,0.1-13.9,3.2c-3.8,3.2-5.7,7.5-5.7,13c0.4,11.4,8.4,21.1,19.6,23.6
			C184.5,514.1,189.1,513,193,509.9z"/>
		<path class="st0" d="M191.2,386.1l12.6-13.5c0.3-0.3,0.7-0.4,1.1-0.4c0.4,0,0.9,0.2,1.1,0.5c4.9,4.9,8.9,10.7,11.7,17
			c2.8,6.1,4.3,12.8,4.3,19.5c0.1,5.5-1.1,11-3.4,16.1c-2.1,4.6-5.2,8.8-9.1,12c-4,3.2-8.7,5.5-13.7,6.6c-5.5,1.3-11.1,1.4-16.6,0.3
			c-5.9-1.1-11.5-3.3-16.6-6.5c-10.4-6.3-18.4-15.9-22.8-27.2c-2.2-5.5-3.4-11.4-3.4-17.4c-0.1-6.2,1.4-12.4,4.3-17.9
			c2.7-5.2,6.7-9.5,11.6-12.6c0.4-0.2,0.8-0.2,1.2-0.1c0.4,0.1,0.8,0.4,1.1,0.8l12.4,18.2c0.3,0.3,0.4,0.7,0.4,1.2
			c0,0.4-0.2,0.7-0.5,0.9c-2.2,1.6-4,3.6-5.3,5.9c-1.4,2.4-2.1,5.2-2.1,7.9c0,5.5,2.1,10.9,5.7,15c3.5,4.3,8.4,7.3,13.9,8.3
			c5.4,1,10,0,13.9-3.1c3.8-3.1,5.7-7.4,5.8-12.9c0-3-0.7-6-2-8.8c-1.3-2.9-3.1-5.6-5.3-8c-0.3-0.3-0.5-0.7-0.5-1.1
			C190.8,386.7,190.9,386.4,191.2,386.1z"/>
		<path class="st0" d="M219.5,349.7v19.8c0,0.4-0.1,0.8-0.4,1.1c-0.3,0.3-0.8,0.3-1.2,0.2L139.2,356c-0.5-0.1-0.9-0.3-1.2-0.7
			c-0.3-0.4-0.5-0.8-0.4-1.3v-19.7c0-0.4,0.2-0.8,0.4-1.1c0.3-0.3,0.8-0.4,1.2-0.3l78.7,14.8c0.5,0.1,0.9,0.3,1.2,0.7
			C219.4,348.8,219.5,349.2,219.5,349.7z"/>
		<path class="st0" d="M137.5,276.4c-0.1-0.6,0.4-1.2,1.1-1.3l78.3-14.3c0.2,0,0.3,0,0.5,0l0.6,0.1c0.4,0.1,0.8,0.3,1.1,0.7
			c0.3,0.3,0.4,0.8,0.4,1.2V283c0.1,0.6-0.3,1.2-0.9,1.3c0,0-0.1,0-0.1,0l-11.7,2.1v26.2l11.7,6.6c0.7,0.3,1.1,1,1.1,1.7v20.1
			c0,0.4-0.1,0.8-0.4,1.1c-0.3,0.3-0.7,0.3-1.1,0.2l-0.6-0.1c-0.2,0-0.4-0.1-0.6-0.2l-78.2-43.8c-0.7-0.3-1.1-1-1.1-1.7L137.5,276.4
			z M186.5,301.4v-11.3l-15.2,2.9L186.5,301.4z"/>
		<path class="st0" d="M139.2,195.3l16.3,3.1c0.4,0.1,0.8,0.3,1.1,0.7c0.3,0.3,0.4,0.8,0.4,1.2v18l60.8,11.4
			c0.5,0.1,0.9,0.3,1.2,0.7c0.3,0.4,0.4,0.8,0.4,1.2v19.8c0,0.4-0.2,0.8-0.4,1c-0.3,0.3-0.8,0.3-1.2,0.2l-60.8-11.5v18
			c0,0.4-0.1,0.8-0.4,1.1c-0.3,0.2-0.7,0.3-1.1,0.2l-16.3-3.1c-0.5-0.1-0.9-0.3-1.2-0.7c-0.3-0.4-0.5-0.8-0.4-1.3v-59
			c0-0.4,0.1-0.8,0.4-1.1C138.3,195.3,138.8,195.2,139.2,195.3z"/>
		<path class="st0" d="M219.5,185.2v19.8c0,0.4-0.1,0.8-0.4,1.1c-0.3,0.3-0.8,0.3-1.2,0.2l-78.7-14.8c-0.5-0.1-0.9-0.3-1.2-0.7
			c-0.3-0.4-0.5-0.8-0.4-1.3v-19.8c0-0.4,0.1-0.8,0.4-1.1c0.3-0.3,0.8-0.4,1.2-0.3l78.7,14.8c0.5,0.1,0.9,0.3,1.2,0.7
			C219.4,184.3,219.5,184.7,219.5,185.2z"/>
		<path class="st0" d="M139.7,136.6c-2.2-5.6-3.4-11.5-3.4-17.5c-0.1-5.6,1.1-11.1,3.4-16.2c4.2-9.6,12.6-16.5,22.8-18.8
			c5.4-1.3,11.1-1.4,16.6-0.3c5.9,1.1,11.6,3.4,16.6,6.6c10.4,6.4,18.4,16,22.8,27.4c2.2,5.6,3.4,11.5,3.4,17.5
			c0.1,5.6-1.1,11.1-3.4,16.2c-2.1,4.7-5.2,8.8-9.1,12.1c-4,3.3-8.7,5.5-13.7,6.7c-5.5,1.3-11.1,1.4-16.6,0.3
			c-5.9-1.1-11.5-3.4-16.6-6.6C152.2,157.7,144.1,148,139.7,136.6L139.7,136.6z M193,143.8c3.8-3.2,5.8-7.5,5.8-13
			c-0.4-11.4-8.5-21.1-19.6-23.6c-5.4-1-10,0.1-13.9,3.2c-3.8,3.2-5.7,7.5-5.7,13c0.4,11.4,8.4,21.1,19.6,23.6
			C184.5,148.1,189.1,147,193,143.8z"/>
		<path class="st0" d="M139.2,23.1c-0.5-0.1-0.9-0.3-1.2-0.7c-0.3-0.3-0.4-0.8-0.4-1.2V1.4c0-0.4,0.1-0.8,0.4-1.1
			c0.3-0.3,0.8-0.4,1.2-0.3l78.7,14.8c0.5,0.1,0.9,0.3,1.1,0.7c0.3,0.3,0.5,0.8,0.5,1.2v20.5c0,0.5-0.3,1.1-0.8,1.2l-45.4,17.1
			l44.6,8.4c0.5,0.1,0.9,0.3,1.2,0.7c0.3,0.4,0.4,0.8,0.4,1.2v19.8c0,0.4-0.1,0.8-0.4,1.1c-0.3,0.3-0.8,0.3-1.2,0.2l-78.7-14.8
			c-0.5-0.1-0.9-0.3-1.2-0.7c-0.3-0.4-0.5-0.8-0.4-1.3V49.8c-0.1-0.5,0.3-1,0.7-1.2l41.4-18L139.2,23.1z"/>
	</g>
</g>
</svg>
