<?xml version="1.0" encoding="utf-8"?>
<!-- Generator: Adobe Illustrator 23.0.1, SVG Export Plug-In . SVG Version: 6.00 Build 0)  -->
<svg version="1.1" id="Layer_1" xmlns="http://www.w3.org/2000/svg" xmlns:xlink="http://www.w3.org/1999/xlink" x="0px" y="0px"
	 viewBox="0 0 222 980.9" style="enable-background:new 0 0 222 980.9;" xml:space="preserve">
<style type="text/css">
	.st0{fill:#FFFFFF;}
</style>
<title>Quest_White</title>
<g>
	<g id="Layer_1-2">
		<path class="st0" d="M169.2,799.8c-3-1.6-5.8-3.3-8.8-4.5s-6.1-2.7-9.2-3c-32.6-3.5-65.3-2.7-97.8-0.8
			C24.5,793,3.5,813.1,1.4,841.9c-2,27.6-1.6,55.4-0.6,83c1.1,28.5,20.1,50,48.5,53.2c33.4,3.8,67.2,3.5,100.6,0.2
			c27.4-2.7,45.5-20.2,48.6-47.5c3.9-33.6,3.5-67.5-1.2-101l24.7-23.6l-28.9-30.3C185,784,177.1,791.8,169.2,799.8z M127.7,839.6
			l-24.4,21.9c9.5,10.3,18.9,20.3,28.7,30.9c6.8-7,13.5-13.8,20-20.6c0,13.7,0.9,27.4-0.3,40.9c-1,11.4-9.4,17.5-20.6,17.8
			c-20.6,0.5-41.1,0.6-61.7-0.1c-12.7-0.4-20.7-7.8-21.2-20.6c-0.7-16.5-0.7-33.1,0-49.7c0.5-12.1,7.9-20,20-20.4
			C87.9,839,107.6,839.6,127.7,839.6z"/>
		<path class="st0" d="M137,178.2c35,2.4,57.2,22.5,58.8,57.4c1.7,38.5,0.4,77.2,0.4,116.2h-47.1c0-30.7,0-61.3,0-91.9
			c0-5.3,0.1-10.5-0.1-15.8c-0.4-8.6-1.9-16.7-13.1-16.7s-12.3,8.3-12.7,16.7c-1.3,22.7,2.8,45.8-2.9,68.2
			c-7.5,29.5-31.8,45.6-63.7,43C27.4,352.8,5.3,331.7,4,301c-1.5-37.9-0.4-75.9-0.4-114h47.1c0,21.3,0,42.5,0,63.7
			c0,14-0.1,27.9,0.1,41.9c0.1,7.8,2.7,14,12,14s11.5-6.3,11.8-13.9c1-22.3-2.4-44.9,2.4-67.1C83.8,194.7,107.6,176.3,137,178.2z"/>
		<path class="st0" d="M75.3,492.3V382h47.1v110c18.7,5,27.2-1.3,27.2-20c0-29.8,0-59.6,0-89.4c0-0.2,0.1-0.4,0.1-0.7h47.4
			c-2,39.8,3.2,79.7-2.8,119.2c-3.7,24.2-19,37.2-44.4,39.1c-32.8,2.5-65.7,2.5-98.4,0c-30.5-2.4-46-18-47.4-49
			C2.4,455,3.6,418.5,3.6,381.9h46.6v88C50.3,491.5,53.2,494.1,75.3,492.3z"/>
		<path class="st0" d="M146.1,572.4c29.2,1.5,50,21.3,52.9,50.5c2.9,27.6,2.8,55.5-0.2,83.1c-3.6,31.2-25,48.8-62.3,49.9
			c-44.3,1.3-88.8,0.3-133.3,0.3v-48.6h118.6c24,0,30.7-6.7,30.7-30.7c0-11,0.1-21.9-0.1-32.9c-0.3-15.2-9.2-23.7-24.5-23.7
			c-41.5,0-83.1,0-124.8,0v-48.8c21,0,41.8-0.1,62.7,0C92.7,571.8,119.5,571.1,146.1,572.4z"/>
		<polygon class="st0" points="3.3,0 50.6,0 50.6,57.5 196.7,57.5 196.7,106.2 50.8,106.2 50.8,163.6 3.3,163.6 		"/>
	</g>
</g>
</svg>
