<?xml version="1.0" encoding="utf-8"?>
<!-- Generator: Adobe Illustrator 23.0.1, SVG Export Plug-In . SVG Version: 6.00 Build 0)  -->
<svg version="1.1" id="Layer_1" xmlns="http://www.w3.org/2000/svg" xmlns:xlink="http://www.w3.org/1999/xlink" x="0px" y="0px"
	 viewBox="0 0 276.4 1490.6" style="enable-background:new 0 0 276.4 1490.6;" xml:space="preserve">
<style type="text/css">
	.st0{fill:#FFFFFF;}
</style>
<g>
	<g id="Layer_1-2">
		<path class="st0" d="M35.6,2c-7,3.5-9.8,10.7-8.9,18.3c1,5.9,1.6,11.8,1.8,17.7c0.2,32,0.2,64.2,0,96.3c0,10.2-0.2,20.3-2.8,30.1
			c-0.1,0.7-0.2,1.3-0.2,2c0.7,8.3,5.4,14.4,13.5,16.6c1.3,0.4,2.6,0.7,3.9,0.9c-6.6,2.4-10.7,6.3-12.2,12.8
			c-0.7,3.3-1.7,6.8-2.4,10.2c-4.3,19.2-5.2,38.4,0.2,57.7c5.4,18.7,15.9,33.1,33.8,41.2c15.2,6.8,30.7,6.3,46.2,0.9
			c11.5-4.2,21.6-11.7,29-21.4c7.2-9.1,13.7-18.9,20.5-28.3c3.2-4.5,6.8-8.7,10.7-12.6c3.1-3,5.4-2.2,6.1,1.7
			c1.7,8.3,0.9,16.4-4.3,23.7c-2.7,3.9-7,6.6-11.7,7.4c-2.8,0.5-5.5,0.9-8.3,1.5c-11.3,2.6-15.7,15.9-9.8,25.5
			c2.5,4.2,6.7,7,11.5,7.8l-4.8,8c-3-0.4-6.3-0.7-9.6-0.9c-8.7-0.5-17.4-0.9-26.1-1.3c-4.4-0.2-9-1.7-13.5,0
			c-2.8,1.1-5.5,2.2-8.5,3.3c-1.8-1.3-3.7-2.4-5.7-3.3c-4-0.9-8.1-1.5-12.2-1.9c-7-0.6-14.2-0.7-21.5-1.5C46,314,42,312.9,37.4,314
			c-7.9,2.2-12.4,10.9-11.3,18.3c0.8,4.3,1.3,8.7,1.5,13.1c0,31.4-0.4,62.8-0.4,94.3c0,7.2,1.3,13.9,7,18.1c-1.8,2.8-4.3,5-5.2,8
			c-1.2,3.7-1.8,7.6-1.8,11.5c-0.2,17.4,0,34.8,0,52.1c-0.2,4.6,0.2,9.2,1.3,13.7c0.8,3.2,2.7,6.1,5.4,8.1c2.5,1.4,5.1,2.7,7.8,3.9
			l-1.7,0.6c-3.6,0.7-6.8,2.9-8.9,5.9c-3.2,4.4-3.9,9.4-3.9,14.8v66.5c0.1,4.2,0.6,8.5,1.5,12.6c0.6,3.2,2.5,6,5.2,7.8
			c2.4,1.5,4.8,2.8,7.4,4.1c-3.5,3.5-7.6,6.8-11.3,10.7C10,699.7,1.7,726,0.1,754.8c-0.5,14.9,1.1,29.9,5,44.3
			c11.3,45.1,48.4,78.2,100,81.2c11.5,0.5,23.1-0.9,34.2-4.1c36-9.8,61.4-31.8,74-67.1c8.2-23,10-47.8,5.2-71.7c-0.2-1,0-2,0.6-2.8
			c5.9-9.8,12-19.4,18.1-29.2c9.3-14.8,18.1-29.6,25-45.7c9-20.5,13.8-42.6,14.2-65c0-19.4-3-38.8-8.9-57.3
			c-4.5-15-11.4-29.2-20.3-42c-3.9-5.4-12.4-9.8-20.5-7.4c-7.6,2.3-12.4,9.7-11.3,17.6c0.4,3.6,1.3,7.1,2.8,10.4
			c3.5,8.5,5.5,17.5,5.9,26.6c1.3,20.1-1.3,40.2-7.8,59.2c-7.6,21.8-17.2,42.8-28.7,62.8c-1.7,3-3.3,6.1-5,9.2
			c-15-13.7-33.6-22.9-53.6-26.6c1.1-0.2,2.2-0.3,3.3-0.4c11.4,0.1,22.7-1.2,33.8-3.7c23.8-5.5,40.1-19.8,48.1-42.7
			c8.1-23.8,9.4-48.3,2-72.6c-7.2-24-22.4-40.5-46.6-48.3c-13.1-3.9-26.7-5.7-40.3-5.4c-19.2,0-38.4,0-57.7-0.2
			c-3,0-5.9-0.4-8.7-0.4c-2.2-9.2-2-9.8-7.6-15.3c5-4.8,5-4.8,7.8-15.3c39.7-0.4,79.7-0.7,119.2,0.4c0.7,3.3,1.7,6.6,3,9.8
			c2.3,4.8,6.9,8,12.2,8.5c6,1.1,12.1-1.1,15.9-5.9c3.7-4.3,4.4-9.4,4.4-14.8c-0.2-11.3-0.7-22.5-0.7-33.6c0.2-20.3,0.9-40.7,1.1-61
			c0-7,0.7-14.2-1.3-21.1c-0.9-3.9-3.2-7.3-6.5-9.6c-2.4-1.6-4.8-3.1-7.4-4.4c7.4-3.7,10.5-10.5,12.6-18.1
			c6.5-22.1,6.7-45.6,0.5-67.8c-4.4-16.3-13.3-29.6-27.9-38.3c-17.8-10.7-36.8-11.6-56.2-4.4c-10.1,3.9-18.8,10.7-25,19.6
			c-7.6,10.2-14.4,20.9-21.6,31.2c-3,4.3-5.9,8.3-8.9,12.4c-1.2,1.7-3.4,2.2-5.2,1.3c-1.3-0.9-2.2-2.3-2.4-3.9
			c-1.3-6.1-0.2-12.6,3.1-17.9c1.7-3,4.7-5.1,8.1-5.6c5.5-0.4,10.7-2.8,14.6-6.6c5.8-6.4,5.9-16.2,0.2-22.7c-1.8-1.8-3.8-3.5-5.9-5
			c3.2-2.6,5.4-6.4,6.1-10.5c0.9-6.1-1.3-12.2-5.9-16.3c-3.4-2.5-7.4-4.3-11.5-5.2c-1.1-0.3-1.9-1.3-2-2.4
			c-0.2-4.1-0.6-8.1-0.6-12.2c-0.2-2.6,0-5.2,0-7.6c4.4-0.9,103.5-0.2,107.6,0.7l1.1,4.4c1.2,6.8,6.5,12.2,13.3,13.5
			c8.5,2,18.3-3.5,19.8-12.4c0.6-3.2,0.9-6.4,0.9-9.6c0-7.4-0.4-15-0.4-22.4c0-15.5,0.4-31.1,0.4-46.6c-0.1-3.9-0.6-7.7-1.3-11.5
			c-0.6-3.4-2.5-6.4-5.4-8.3c-7.6-5.7-18.3-4.1-24,3.4c0,0,0,0,0,0.1c-1.4,1.9-2.4,4.2-3,6.5c-0.7,3-1.3,5.9-1.9,9.2h-107l1.1-20.7
			c3.3-0.6,6.6-1.3,9.8-2.2c2.7-1.1,5.2-2.7,7.2-4.8c4.1-4.4,5.3-10.7,3.3-16.3C95.3,8.7,91,4.4,85.5,3.1c-5-1.1-10.1-1.8-15.2-2
			C61.6,0.6,52.9,0,44.2,0C41.2,0,38.3,0.7,35.6,2z M49.4,555.5c-0.5-0.2-0.9-0.2-1.5-0.4c0,0,0-0.2-0.4-0.6
			c11.8-2,14.6-10.7,15.5-21.3h11.1c24.8,0,49.6,0,74.1,0.4c5.7-0.1,11.4,0.7,16.8,2.4c4.2,1.3,7.4,4.6,8.5,8.9
			c1.5,5,1.6,10.4,0.2,15.5c-2.4,8.3-8.7,12.2-16.8,13.1c-6.8,0.7-13.7,1.1-20.5,1.3c-23.7,0-47.3-0.2-71.2-0.2
			c-1.8,0-2.6-0.4-3-2.4c-0.7-3.5-1.1-7-3.3-10C56.8,558.7,53.4,556.2,49.4,555.5z M175.1,673.4c3,2.4,5.7,5,8.9,7.6
			c2.6-5,5.2-9.8,7.8-14.6c9.6-16.8,18-34.3,25-52.3c5.3-13.3,9.1-27.2,11.1-41.4c2-17.2,2.2-34.2-2.4-51
			c-1.5-5.2-3.7-10.2-5.2-15.3c-1.5-4.7,0.2-9.9,4.3-12.7c5.1-3.9,12.3-3.1,16.5,1.7c3.6,4.2,6.7,8.7,9.3,13.5
			c12,20.9,18.3,43.6,20.7,67.7c2.8,27.7-1.7,55.7-12.9,81.2c-7.2,15.7-15.5,30.8-24.8,45.3c-6.3,10-12.6,20-18.7,30.1
			c-0.5,1.1-0.8,2.3-0.6,3.5c5,26.4,3.1,52.5-7.4,77.5c-8.5,20.1-23.5,36.8-42.7,47.3c-18.7,10.7-40.1,15.5-61.6,13.9
			c-22.4-1.7-42.7-9.3-59.9-24S14.4,817.4,9,795c-6.3-27-5.7-53.6,4.3-79.5c13.3-34.4,37.7-56.4,74.1-63.6
			C119.7,645.4,149.1,652.9,175.1,673.4L175.1,673.4z M61.8,654.2c0.3-2.3,0.8-4.5,1.5-6.7c0-0.4,0.9-0.7,1.3-0.7c7-0.2,14,0,20.9,0
			 M46.9,459.9c5,0.4,9.2,4,10.3,8.9c0.6,2.4,1,4.8,1.3,7.2c0.2,1.5,0.6,2,2.2,2c9.6,0.2,19.2,0.5,29,0.7c17,0.2,34,0,50.8,0.5
			c12.4,0.2,24.6,2.8,35.9,7.8c12.4,5.7,22.5,15.2,29,27.2c6.8,12.6,10.4,26.7,10.5,41c0.6,13.4-1.1,26.8-5,39.6
			c-7.2,23.3-22.5,38.1-46.4,43.6c-9.2,2.1-18.6,3.1-28.1,3.1H59.2c-0.7,4.1-1.3,7.6-2.2,11.1c-1.9,6.6-6.3,9.1-12,9.2
			c-5.6,0.2-10.6-3.7-11.7-9.2c-0.7-3-1-6-0.9-9.1c0-12.2,0.5-24.4,0.5-36.6c0-10.2-0.4-20.5-0.5-30.9c0-4.4,0.4-8.7,3.1-12.4
			c2.4-3.4,6.6-5.2,10.7-4.6c5.1,0.2,9.5,3.8,10.7,8.7c0.9,3.5,1.6,7.1,2,10.7c5.2,0.2,10.3,0.4,15.5,0.4c23.5,0,47.1,0,70.6-0.2
			c5.3,0,10.5-0.6,15.7-1.7c10.3-2,17.2-8.7,18.3-20.5c0.4-4.3,0.2-8.6-0.7-12.8c-1.8-8.1-7.8-12.6-15.5-13.7
			c-7.6-1.2-15.2-1.8-22.9-1.8c-24.2-0.2-48.4,0-72.6,0c-2.8,0-5.5,0.4-8.3,0.6c-0.6,3.9-0.9,7.6-1.7,11.1c-1.4,6.7-8,11-14.7,9.6
			h-0.1c-2-0.4-3.8-1.3-5.4-2.6c-3-2.4-4.7-6.1-4.6-10c-0.2-5.7,0-11.5,0-17.2c0-14.2,0-28.3-0.2-42.5c0-4.4,0.2-8.9,3-12.7
			C38.1,461,42.5,459.3,46.9,459.9z M175,312.6L175,312.6c8.1,1,16.5,1.7,24.6,3.2c9.2,1.7,13.7,7,14,16.4
			c0.2,11.6,0.2,23.3-0.2,34.9c-0.9,24.4-1.1,48.6-0.2,72.8c0.5,4.3-0.5,8.6-3,12.2c-2.7,3.7-7.3,5.6-11.8,4.8
			c-4.9-0.4-8.9-4.1-9.8-8.9c-0.7-2.8-0.9-5.7-1.5-9c-4.8-0.4-9.6-0.9-14.6-0.9c-34.6-0.2-69-0.2-103.3,0c-3.3,0-6.8,0.4-10,0.4
			c-0.4,3.1-1,6.1-1.7,9.1c-1.7,6.3-6.5,8.9-12,8.9c-5.5,0.3-10.5-3.5-11.6-8.9c-0.7-2.8-1.1-5.8-1.1-8.7c0-31.2,0.4-62.5,0.4-93.7
			c0-4.3-0.5-8.6-1.5-12.8c-1.4-6.5,2.7-13,9.2-14.4c1.6-0.4,3.4-0.4,5,0c6.5,1.1,12.9,1.5,19.6,2c5,0.6,10,0.6,15,1.3
			c5.4,0.7,8.7,4.3,10.3,9.2c1.9-7,8-9.6,14.8-9.2l36,2.2c4.6,0.4,8.7,1.5,11.3,5c0-2.5,0.2-5,0.6-7.4c0.9-4.4,3.9-6.8,8.1-8.1
			C166,312,170.5,311.8,175,312.6z M56.7,188.3L56.7,188.3h7.9l15.5,0.6c3.5,0,6.9,1,9.8,3c5.5,4.6,6.3,12.7,1.9,18.3
			c-0.3,0.5-0.8,1-1.3,1.3c-3,2.2-6.5,3.5-10.2,3.7c-4.7,0.4-9,3-11.5,7c-4.4,6.6-5.9,14.7-4.2,22.5c0.6,3.3,2.2,6.3,5.7,7.2
			s7.2,0.6,9.8-2.6c3.3-4.3,6.5-8.5,9.6-12.9c7-10.2,13.7-20.7,21.1-30.5c19.4-25.5,49.7-27.7,72.5-16.3
			c13.1,6.7,21.4,17.9,26.8,31.4c4.2,11.5,6.3,23.7,6.1,35.9c0.2,13.2-1.8,26.4-5.9,39c-3,8.7-8.9,13.3-17.9,13.5
			c-12.8,0.2-25.5,0.6-38.1-1.8c-6.8-1.1-11.4-7.6-10.3-14.4c0.8-4.5,3.9-8.3,8.3-9.8c2.1-0.5,4.2-0.9,6.3-1.1
			c8.7-0.9,14.8-5.6,18.8-13.1c3.7-7.2,4.7-15.4,3-23.3c-0.5-3-1.5-6.3-4.8-7.2c-3.5-1.1-7.3,0-9.6,2.8c-3.9,4.6-7.8,9.3-11.5,14
			c-6.5,8.7-12.4,18.1-19.2,26.4c-10.7,13.3-24.2,22.2-41.6,23.8c-21.8,2.2-39.2-5.7-51.6-24c-7.4-10.9-10.4-23.5-11.5-36.4
			c-1.3-16.3,1.3-32.4,5.5-48.1c1.7-5.6,7-9.4,12.9-9C51.1,188,54,188.3,56.7,188.3L56.7,188.3z M64.2,5.4c4.3,0.2,8.7,0.4,13.1,0.7
			c3.9,0.4,7.8,0.7,10.9,3.1c3.8,2.7,5.8,7.4,5,12c-0.5,5-4.3,9.1-9.2,10c-2.7,0.6-5.4,0.9-8.1,1.1c-1.6-0.1-3.1,1-3.3,2.6v0.4
			c-0.7,9.2-1.3,18.5-1.9,27.9c1.3,0,2,0.2,2.8,0.2c31.3,0,62.7,0,93.9-0.2c5.9,0,12-0.6,17.9-0.7c1.3,0,1.8-0.6,2-1.9
			c0.5-3.7,0.9-7.4,1.7-10.9c1.6-6.7,8.3-10.8,15-9.3c1.8,0.4,3.4,1.3,4.8,2.4c2.8,2.6,4.5,6.2,4.6,10c0.2,3.1,0.2,6.1,0.2,9.2
			c-0.6,22.2-0.7,44.6,0,66.7c0.4,4-0.5,8-2.6,11.5c-2.5,3.8-7,5.8-11.5,5c-5-0.4-9.3-4-10.5-8.9c-0.9-3-1.1-5.9-1.9-9.4
			c-4.3-0.2-8.7-0.7-13.1-0.7c-33.6-0.2-67.5-0.2-101.3-0.2c-0.7,0-1.3,0.1-2,0.2c0,0.6-0.2,1.3-0.2,1.8c0.2,7.8,0.5,15.5,0.7,23.3
			c-0.1,3,1.9,5.6,4.8,6.3c3.6,1.1,7,2.6,10.2,4.6c3.7,2.4,5.6,6.9,4.6,11.3c-0.5,4.8-4,8.8-8.7,10c-4.3,1.3-8.5,0.6-12.8-0.2
			c-9.4-1.5-18.9-3.1-28.3-4.8c-7-1.3-11.7-8-10.5-15c0-0.4,0.2-0.7,0.2-1.1c2.4-8.7,2.4-17.9,2.4-26.8V36
			c-0.1-5.3-0.8-10.5-1.8-15.7C30.4,14.4,32,9.2,36.8,6.4c2.3-1.2,5-1.9,7.6-1.9C51.1,4.6,57.6,5.2,64.2,5.4L64.2,5.4z"/>
		<path class="st0" d="M153.7,912.8c-2.6,2.1-4.4,4.9-5.2,8.1c-3.5-0.4-6.8-0.7-10.2-0.9c-8.7-0.5-17.2-0.9-25.9-1.3
			c-4.3-0.2-8.5-1.7-12.8-0.2c-3.1,1.1-6.3,2.4-9.4,3.5c-1.8-1.3-3.8-2.4-5.9-3.2c-4.1-0.9-8.2-1.5-12.4-1.8c-7-0.5-14-0.7-20.9-1.5
			c-4.3-0.4-8.3-1.7-12.9-0.4c-8,2.2-12.4,10.9-11.3,18.3c0.8,4.3,1.3,8.7,1.5,13.1c0,31.4-0.4,62.8-0.4,94.3
			c0.1,3.8,0.7,7.5,1.8,11.1c1,2.5,2.5,4.7,4.4,6.5c4.4,4,10.7,5.3,16.3,3.3c5.4-1.5,9.6-5.7,11.1-11.1c0.6-2,0.9-4.1,1.5-6.3h28.3
			c-0.4,0.3-0.8,0.5-1.3,0.6c-26.4,9-44,27.3-53.2,53.6c-6.7,18.9-8.7,38.6-8.7,58.6c0,14.4,0.4,29,0.4,43.4
			c0,10.7-0.4,21.6-0.5,32.4c0,5.4,0.7,10.5,4.4,14.8c1.5,1.5,3,2.8,4.7,4.1c-1.6,1.3-3.2,2.6-4.6,4.1c-3.5,4.1-4.4,9.1-4.4,14.2
			v65.8c-0.2,5.6,1,11.2,3.5,16.3c-2.2-0.2-4.1-0.4-6.1-0.4c-9.1,0.2-15.7,4.1-18.5,13.3c-0.7,2.6-1.5,5.2-2,8
			c-5,21.3-6.3,42.6-0.6,63.8c5.3,19.9,16.4,35.4,35,44.5c17.8,8.4,36.3,7.6,54.6,0.6c13.3-5.2,24-14.2,32.7-25.3
			c6.8-8.3,12.8-17.4,19-26.1c4.1-5.5,7.8-11.5,13.1-16.1c1.3-1,2.6-1.9,4.1-2.6c5.5-2.2,9.6-0.6,11.3,5c1.8,5.7,1.9,11.8,0.2,17.6
			c-3.1,10.9-10.3,18.3-23.3,19.4c-3.6,0.4-7.1,1.4-10.3,3c-4.4,2.3-7.4,6.7-8,11.6c-1.1,6,1.1,12.1,5.9,15.9
			c3.9,3,8.6,4.6,13.5,4.6c12,0.9,24.2,1.4,36.3,1.6c5.5,0.2,11-1.3,15.7-4.3c5-3.5,8.5-8.7,10-14.6c8.1-25.7,9.2-51.8,0.5-77.3
			c-7.9-23.7-23.3-40.7-48.6-46.6c-17.5-4.4-36.1-1.6-51.6,7.7c-10.9,6.5-19.4,15.5-26.8,25.9c-6.8,9.4-13.3,19.4-20.1,29
			c-3.1,4.4-6.3,9.2-11.7,11.3c-6.3,2.4-10,0.4-10.9-5.4c-1.3-7.6-0.7-15,3.7-21.8c2.3-3.5,5.9-5.9,10-6.6c2.6-0.6,5.4-0.9,7.9-1.7
			c7.6-2,12.7-9,12.4-16.8c-0.2-8-5-14.6-13.5-16.3c-2.2-0.4-4.6-0.9-6.3-1.3l3.7-11.8c0.5,0,1.3-0.2,2-0.2
			c30.3,0,60.5-0.2,90.8-0.2c8.3,0,16.5,0.6,24.8,0.9c1.1-0.1,2.1,0.7,2.2,1.8c0,0,0,0,0,0v0.2c0.6,2.7,1.5,5.4,2.6,8
			c4.9,8.1,15.4,10.6,23.5,5.7c1.5-0.9,2.9-2.1,4-3.4c3.7-4.4,4.4-9.8,4.4-15.3c-0.2-11.5-0.5-22.7-0.5-34.2
			c0-12.8,0.5-25.5,0.5-38.5c0.4-5.2-1.3-10.4-4.6-14.4c-1-1.1-2.1-2.2-3.3-3.2c4.2-2.6,6.9-6.9,7.4-11.8c0.4-3.1,0.5-6.1,0.5-9.2
			c-0.8-18.4-0.5-36.8,0.9-55.1c2.1-19.7,0.7-39.6-4.1-58.8c-8.9-33.8-30-56.4-62.7-68.2c-0.4-0.2-0.5-0.2-0.9-0.4h31.1
			c0.7,3.4,1.7,6.8,3,10c2.3,4.8,6.9,8,12.2,8.5c6,1.1,12.2-1.1,16.1-5.9c3.5-4.3,4.4-9.4,4.3-14.6c0-11.3-0.7-22.5-0.7-33.6
			c0.2-23.3,0.9-46.6,1.1-69.9c-0.1-4-0.5-7.9-1.3-11.8c-1.5-7.6-6.7-12-13.7-13.9c-11.7-2.9-23.8-4.4-35.9-4.4
			C161.9,908.3,157.4,909.9,153.7,912.8z M59.6,1357.2c5.2,0.2,10,1.3,13.1,5.9c3.9,5.7,2.5,13.4-3.1,17.4h-0.1c-1,0.6-2,1.1-3,1.5
			c-1.8,0.7-3.8,1.1-5.7,1.3c-8.9,0.9-14.6,5.5-17.9,13.7c-3,7.1-3.5,15.1-1.3,22.5c2.4,8.1,10,9.4,16.4,7c6.1-2.4,10-7.4,13.5-12.4
			c6.8-9.8,13.3-19.8,20.3-29.4c6.8-9.7,15.4-18.1,25.3-24.6c10.5-6.4,22.6-9.6,34.9-9.3c17.4,0.2,32.2,6.5,43.8,19.2
			c8.6,9.6,14.6,21.2,17.4,33.8c5,21.9,4.1,44.8-2.8,66.2c-1.1,4.5-3.5,8.5-7,11.6c-4,2.9-8.8,4.5-13.7,4.4c-3.9,0.2-7.6,0-11.5,0
			v0.4c-8.7-0.5-17.4-1.1-26.1-1.8c-5-0.5-9.6-1.8-12.6-6.3c-3.7-5.5-2.3-13,3.1-16.8c1.2-0.8,2.5-1.3,3.9-1.7c2.5-0.6,5-1,7.6-1.3
			c15.2-1.9,24.6-14,25.9-27.7c0.8-5.6,0.3-11.3-1.7-16.6c-2.2-5.4-5.4-7.2-11.1-7.4c-4.8,0-9.5,2-12.8,5.5
			c-7.2,6.8-12.2,15.3-17.7,23.5c-6.4,9.7-13.7,18.7-21.8,27c-15.2,14.4-33.3,21.4-54.2,19.4c-19.4-1.9-34.2-11.5-44.4-28.3
			c-8.5-13.9-11-29.4-11.2-45.5c0-14.2,2-28.4,6.1-42c2-7,7-10.5,14.4-10.3C36.7,1356.5,48.1,1356.9,59.6,1357.2L59.6,1357.2z
			 M201.9,1250c4.8,0.4,8.8,3.7,10.1,8.3c0.9,3.6,1.3,7.2,1.1,10.9c-0.6,22.7-0.7,45.7,0,68.4c0.4,4.1-0.6,8.3-2.8,11.8
			c-2.4,3.7-6.8,5.6-11.1,4.8c-5.1-0.2-9.6-3.7-10.9-8.7c-0.7-2.8-1.1-5.5-1.7-8.9c-3.1-0.4-6.7-0.7-10-0.9
			c-10.7-0.4-21.6-0.5-32.4-0.5c-25.5,0-51.2,0-76.9,0.2c-3,0-5.9,0.4-8.9,0.5c-0.6,3.1-0.9,5.9-1.7,8.7c-1.5,6.6-8,10.7-14.5,9.2
			c0,0,0,0-0.1,0c-4.6-1-8.2-4.6-9.2-9.2c-0.6-2.6-0.9-5.3-0.7-8c0.7-22.2,0.6-44.4,0-66.5c-0.2-5.5,0.9-10.9,6.1-14
			c5.7-3.7,13.3-2.1,17,3.6v0.1c0.6,1.1,1.1,2.2,1.5,3.3c0.6,2.4,1,4.8,1.3,7.2c0.2,1.5,0.7,2,2.2,2c8.1,0.2,16.5,0.5,24.6,0.5
			c28.1,0,56.2,0,84.3-0.2c5.7,0,11.3-0.6,17.4-0.7l0.6-5.2c0.4-4.3,0.5-8.7,3.5-12.4C193.4,1251,197.7,1249.4,201.9,1250
			L201.9,1250z M191.2,1248L191.2,1248c-7.2,4.6-7.9,12-8.7,19.6c-3.3,0.2-6.6,0.6-10,0.6c-35.9,0-71.5,0-107.4,0.2
			c-1.9,0-2.4-0.7-2.6-2.4c-0.7-3.7-1.3-7.4-4.1-10.2c-1.5-1.5-3.1-3-4.8-4.6c7.6-4.1,8.7-11.7,9.8-19.6
			c39.7-0.2,79.5-0.6,119.4,0.2C183.6,1238.6,185.3,1244.3,191.2,1248L191.2,1248z M178.5,1064.2L178.5,1064.2
			c17.5,13.7,28.1,32,32.9,53.8c3.3,15.8,4.4,32,3.1,48.1c-1.8,21.1-2.1,42.3-1.1,63.4c0.5,4.2-0.6,8.4-3,11.8
			c-2.6,3.5-6.9,5.4-11.3,4.8c-5-0.4-9.1-3.9-10.4-8.7c-0.7-2.4-1.1-4.9-1.3-7.4c-0.2-1.5-0.5-2.2-2-2.2c-6.5-0.4-13.1-0.9-19.6-0.9
			c-32.7,0-65.6,0.2-98.3,0.2c-2.8,0-5.4,0.4-8,0.6c-0.7,4.1-1.1,8.1-2,12c-1.7,6.5-6.3,9.1-12,9.2c-5.7,0.3-10.7-3.6-11.8-9.2
			c-0.5-2-0.8-4-0.7-6.1c0-25.5,0-50.8,0.2-76.3c0.2-18.3,2-36.6,7.4-54.2c4.1-13.4,11.4-25.6,21.4-35.5
			c10.5-10.3,23.8-17.4,38.3-20.3C128.8,1040.6,155.2,1045.9,178.5,1064.2L178.5,1064.2z M168.3,913.3L168.3,913.3
			c10.6,1,21.1,1.9,31.5,3.6c9.1,1.5,13.7,7,13.9,16.3c0.4,11.8,0.2,23.5-0.2,35.3c-0.9,24.2-1.1,48.4-0.2,72.7
			c0.2,4.4-0.2,8.7-3,12.4c-2.7,3.7-7.3,5.5-11.8,4.6c-5-0.4-9.1-4.1-10-9.1c-0.7-2.8-0.9-5.7-1.5-9.1c-4.6-0.4-9.6-1.1-14.4-1.1
			c-34.8-0.2-69.3-0.2-104.1,0c-3.1,0-6.3,0.4-9.6,0.6c-0.3,2.9-0.8,5.7-1.5,8.5c-1.1,5.5-6,9.5-11.6,9.4c-4.8,0.5-9.4-2.2-11.2-6.7
			c-1.3-3.2-1.9-6.7-1.8-10.2c0-21.6,0.4-43.3,0.6-64.9c0-11.6-0.2-23.1-0.4-34.8c-0.2-2.6-0.5-5.1-1.1-7.6
			c-1.4-4.9,0.6-10.2,5-12.9c2.4-1.4,5.2-2,7.9-1.7c9.8,2,19.8,1.7,29.8,2.6c3.6,0.3,7.1,1.1,10.4,2.4c3.1,1.5,5.2,4.4,5.7,7.8
			c0.5-3.3,2.6-6.2,5.7-7.6c2.9-1.1,6.1-1.7,9.2-1.7c12,0.4,23.8,1.3,35.7,2c4.6,0.2,8.7,1.3,11.3,5c0-2.5,0.2-5.1,0.5-7.6
			c0.7-3.6,3.4-6.5,7-7.4C162.8,913.5,165.5,913.2,168.3,913.3L168.3,913.3z"/>
		<path class="st0" d="M41,470.6c-0.4,1.5-0.6,3-0.5,4.6c0.2,7.4,0.5,15,0.5,22.4L40.5,534c-0.2,1.8,0,3.7,0.5,5.5
			c0.3,1,1,1.8,1.8,2.4l0,0c2.2,1.6,5.4,1.1,7-1.1c0.8-1.2,1.3-2.6,1.5-4.1c0.6-3.1,0.7-6.5,1.3-9.6c0.2-2.6,2.2-4.6,4.8-4.8
			c2.7-0.5,5.5-0.8,8.3-0.9c25-0.2,49.9-0.4,74.9-0.4c8.6-0.2,17.1,0.6,25.5,2.4c10.6,2.6,17.8,8.9,20,19.8
			c0.9,4.1,1.3,8.4,1.1,12.6c-0.5,14.4-9.2,24.8-23.1,28.3c-8,1.8-16.2,2.6-24.4,2.4c-20.9,0.2-42,0.2-62.9,0
			c-6.3,0-12.6-0.4-18.8-0.9c-4.3-0.6-5.4-2.2-5.9-6.5c-0.4-3-0.9-5.7-1.5-8.7c-0.7-2.4-2.9-4-5.4-3.9c-2.2,0-4.1,1.7-4.4,3.9
			c-0.4,1.9-0.5,3.9-0.5,5.9v61.6c0,3.7-0.2,7.6,0,11.3c-0.1,2.8,2,5.2,4.8,5.5c2.9,0.2,5-1.3,5.9-4.6c0.2-0.6,0.3-1.1,0.4-1.7
			c0.6-2.8,0.9-5.5,1.3-8.3c0.1-2.8,2.4-5,5.2-5c3.7-0.2,7.4-0.6,11.1-0.6h35.1c10.9,0,21.8,0.4,32.7,0c7.9-0.2,15.9-0.9,23.7-2.2
			c22.2-4.1,36.8-17.2,43.8-38.6c2.6-8,4.1-16.2,4.4-24.6c0.7-12,0.4-24-2.9-35.7c-5.2-18.1-15.5-32.1-33.1-40.1
			c-10.7-4.4-22.1-6.7-33.6-6.7c-17.7-0.4-35.7-0.4-53.4-0.6c-8.9,0-17.9-0.4-26.8-0.9c-5-0.2-5.9-1.3-6.8-6.1
			c-0.2-1.1-0.4-2.4-0.6-3.5c-0.2-1.8-0.5-3.5-1.1-5.2h0.1c-0.7-1.4-1.7-2.6-3-3.5h-0.1C44.6,466.1,41.8,467.8,41,470.6z"/>
		<path class="st0" d="M159.4,323.9c-0.5,2.2,0.5,4.4,2.4,5.6c1.3,0.6,2.6,1.1,3.9,1.5c2.4,0.7,4.8,1.3,7.2,2c4.5,1.2,7.7,5,8.3,9.6
			c1.5,8.5,1.8,17.1,1.1,25.7c-0.2,2.9-0.6,5.8-1.3,8.7c-0.5,3.1-3.1,5.4-6.3,5.6c-1.8,0.4-3.7,0.6-5.6,0.6h-39.2
			c-0.7,0-1.5,0-2.2-0.2c0.4-10.5,0.6-20.9,1.5-31.2c0.6-6.7,3-8.3,9.8-9.1c1.9-0.2,3.7-0.6,5.5-1.3c2.1-1,3.3-3.3,2.8-5.6
			c-0.1-2.2-1.7-4-3.9-4.3c-1.2-0.2-2.5-0.3-3.7-0.4c-8-0.4-15.7-0.6-23.7-0.9c-4.4-0.4-8.9-0.9-13.3-1.3c-2.4-0.4-4.9,1-5.7,3.3
			c-0.7,2.5,0.4,5.1,2.6,6.3c3.7,2.1,4.6,5.4,4.8,9.1l0.7,33.5c0,0.5-0.2,1.1-0.2,1.8H62.6c0.4-9.1,0.5-17.8,0.9-26.4
			c0.2-3.4,0.6-6.8,1.1-10.2c0.3-3.2,2.9-5.7,6.1-5.9c2.4-0.4,5-0.7,7.4-1.1c3-0.2,5.2-2.7,5-5.7c0,0,0,0,0,0
			c-0.2-2.9-2.6-5.2-5.5-5.4c-2-0.2-4.1-0.2-6.1-0.4c-8.9-0.7-17.7-0.4-26.6-2.4c-5-1.1-7.8,1.7-6.6,6.7c0.7,2.3,1.1,4.6,1.3,7
			c0.2,10,0.4,20.2,0.4,30.3c0,19.6-0.2,39.2-0.4,58.8c0,5.2-0.2,10.2,0,15.3c0,3.7,2,5.9,5.2,6.1s5.4-2,5.7-5.7l0.6-5
			c0.6-4.8,2.6-6.8,7.4-7.2c2.6-0.2,5-0.4,7.4-0.4c25.7-0.2,51.6-0.4,77.5-0.4c9.8,0,19.4,0,29.2,0.4c5.5,0.2,10.9,0.7,16.3,1.7
			c4.3,0.7,5.2,2,5.5,6.3l0.6,5.9c0,2.4,1.7,4.5,4.1,5c2.9,0.7,5.8-1,6.5-3.8c0,0,0,0,0-0.1c0.4-1.1,0.5-2.2,0.5-3.3
			c0-4.6-0.2-9.3-0.2-13.9c0-15.2-0.2-30.1,0-45.3c0.2-16.6,0.6-33.5,0.7-50.1c0.2-6.8-2.4-10-9.4-11.1s-13.9-2-20.9-2.6
			c-4.1-0.3-8.1-0.4-12.2-0.1C161.8,319.9,159.8,321.6,159.4,323.9z"/>
		<path class="st0" d="M154.6,333.5c1.1,5.6-0.4,10.5-5.2,13.1c-3.2,1.5-6.5,2.4-10,2.8c-1.7,0.4-2.6,0.7-2.8,2.6l-0.6,6.6v17h16.3
			c6.6,0,13.3-0.2,20-0.2c1.8,0,2.4-0.9,2.6-2.6c1-8.7,1.1-17.4,0.2-26.1c-0.4-5-3-7.4-7.6-8.3s-9.6-1.8-13.1-6.5
			C154.5,332.4,154.6,332.9,154.6,333.5z M168.3,343.6c1.3,0.2,2.2,1.3,2.2,2.6c0.8,8.2,0.9,16.4,0.2,24.6h-29.4v-15.7
			c0-0.4,0.9-0.9,1.5-1.1c3-0.7,5.9-1.7,8.7-2.8c3.9-2,6.7-5.7,7.6-10C162.2,342,165.3,342.9,168.3,343.6L168.3,343.6z"/>
		<path class="st0" d="M80.9,346c-2.1,0.6-4.2,0.9-6.3,1.1c-1.8,0.2-2.8,0.9-2.8,2.8l-1.1,25.2c0,0.2,0.2,0.2,0.4,0.4h27.7
			c-0.4-9.8-0.5-19.6-0.9-29.2c-0.2-0.6-0.6-1.1-1.1-1.5c-3-1.8-5.2-4.7-6.1-8.1C89.5,341.4,85.7,345,80.9,346z M93.4,351.2v19.4
			H75.3l0.7-18.9c5.2-1.3,10.5-1.5,14.2-5.5C92.4,346.7,93.8,348.9,93.4,351.2z"/>
		<path class="st0" d="M38,18.3c0,0.7,0.4,1.7,0.4,2.4c0.9,5.5,1.5,11.1,1.9,16.6c0.2,32.7,0.2,65.4,0,98.2c0,9.8-0.2,19.6-2.8,29.2
			c-0.7,2.7,0.7,5.5,3.3,6.5c1.4,0.6,2.8,1.1,4.3,1.3c7.8,1.3,15.5,2.6,23.5,3.9c3.1,0.5,6.2,0.8,9.3,0.9c2.7,0.3,5.1-1.5,5.7-4.1
			c0.6-2.7-1-5.5-3.7-6.3c-1.8-0.9-3.7-1.7-5.7-2.2c-6.7-1.7-9.8-6.1-10-12.8c-0.4-10.2-0.6-20.2-0.9-30.3c-0.2-2,0.4-2.8,2.6-2.8
			c31.1,0.2,62,0,93,0.2c9.1,0,18.3,0.4,27.5,1.1c6.5,0.3,7.4,1.8,8,8.3c0.2,2.1,0.6,4.1,1.1,6.1c0.6,2.5,3.1,4.1,5.7,3.7
			c2.4-0.4,4.2-2.4,4.4-4.8c0.2-1.5,0.2-3.1,0.2-4.6c-0.2-13.6-0.6-27.3-0.6-41c0-9.9,0.4-19.9,0.6-29.9c0-2.3-0.2-4.7-0.6-7
			c-0.3-1.9-1.9-3.4-3.9-3.5c-2.1-0.4-4.2,0.6-5.2,2.4c-0.8,1.4-1.3,3-1.5,4.6c-0.4,2.6-0.6,5.4-0.9,8.1c-0.5,4.3-2,5.9-6.3,6.8
			c-2.2,0.5-4.4,0.8-6.7,0.7c-19,0.4-37.9,0.7-56.9,1.1v-0.2H65.4c-1.8,0-2.6-0.4-2.4-2.4c0.4-5.2,0.2-10.5,0.6-15.7
			c0.4-6.1,0.5-12.4,1.7-18.7s3.9-8.3,10.2-8.7c2.4-0.2,4.8-0.6,7.2-1.1c2-0.7,3.3-2.5,3.3-4.6c0.3-2.2-1-4.2-3-5
			c-1-0.5-2.2-0.8-3.3-0.9c-6.5-0.6-13.1-0.9-19.6-1.3c-5.2-0.4-10.5-0.6-15.9-0.6C40,12,38.3,14,38,18.3z"/>
		<path class="st0" d="M42.4,200.3c-2,8.8-3.5,17.8-4.6,26.8c-1.3,11.7-0.3,23.6,3,34.9c4.3,13.5,11.5,24.9,24.4,31.2
			c19.2,9.4,37.3,6.5,54.2-6.3c8.7-6.4,15-15.1,21.1-24c4.8-6.8,9.4-13.9,14.4-20.5c2.6-3.4,5.7-6.5,9.2-9
			c9.3-6.3,19.7-2.4,22.7,8.5c2.8,9.7,1.8,20.1-2.6,29.2c-4.8,10-12.2,16.3-23.3,17.7c-2,0.4-3.9,0.6-5.9,0.9
			c-2.2,0.4-3.9,2.1-4.3,4.3c-0.4,2.3,0.8,4.6,3,5.5c1.1,0.4,2.2,0.7,3.3,0.9c12.1,1.5,24.3,1.9,36.4,1.3c4.1,0,7.8-2.6,9.1-6.5
			c3.5-8.7,5.5-17.9,5.9-27.2c0.7-12.9,0.5-25.7-3-38.3c-6.1-21.1-22.2-41.8-53.6-40c-10.1,0.5-19.7,4.5-27.2,11.3
			c-7,6.6-13.1,14.1-18.3,22.2c-4.6,7.2-9.1,14.6-13.9,21.6c-2.3,3.7-5.1,7.1-8.3,10c-9.8,8.3-23.7,3.7-26.4-8.9
			c-1.7-7.2-1.1-14.8,1.7-21.6c3.7-9.8,10.2-16.1,21.1-17c1.3,0,2.7-0.4,3.9-0.9c2.2-0.9,3.6-3.1,3.5-5.5c-0.1-2.4-1.9-4.4-4.3-4.8
			c-1.3-0.2-2.6-0.3-3.9-0.4H64.9L49.4,195C45.2,194.9,43.2,196.2,42.4,200.3z"/>
		<path class="st0" d="M159.5,924.1c-0.6,2,0.2,4.1,1.8,5.4c1.4,0.8,2.8,1.4,4.4,1.8c2.4,0.9,5,1.5,7.6,2.2c4.3,1.2,7.4,4.8,8,9.2
			c1.5,8.5,1.9,17.3,1.1,25.9c-0.1,2.7-0.5,5.4-1.1,8.1c-0.9,4.1-3,6.1-7.2,6.3c-6.3,0.4-12.4,0.5-18.7,0.5h-27
			c-0.2-0.2-0.3-0.4-0.4-0.7c0.2-9.9,0.2-19.9,0.9-29.9c0.4-7.2,3-9.3,10.2-10c1.8-0.2,3.5-0.5,5.2-1.1c2.2-0.9,3.5-3.2,3.1-5.5
			c-0.2-2.2-1.9-4-4.1-4.3c-1.3-0.2-2.6-0.3-3.9-0.4c-7.6-0.4-15-0.6-22.4-0.9c-4.6-0.2-9.2-0.9-14-1.3c-2.4-0.4-4.9,1-5.7,3.3
			c-0.9,2.4,0.1,5.1,2.4,6.3c3.7,2.1,4.8,5.4,4.8,9.1c0.2,11.3,0.5,22.4,0.7,33.6c0,0.6,0,1.1-0.2,1.7H62.8
			c0.4-8.9,0.6-17.8,0.9-26.4c0.2-3.7,0.7-7.3,1.5-10.9c0.4-2.5,2.5-4.4,5-4.6c2.8-0.4,5.5-0.7,8.1-1.3c2.9-0.3,5.2-2.8,5.2-5.7
			c-0.2-2.9-2.6-5.3-5.5-5.4c-2-0.2-4.1-0.2-6.1-0.4c-8.9-0.7-17.6-1.3-26.2-2.4c-5.9-0.7-8.3,1.7-6.8,7.6c0.5,2.1,0.8,4.2,0.9,6.3
			c0.2,10,0.4,20,0.4,30c0,19.6-0.2,39.4-0.4,59.1c0,5.2-0.2,10.2,0,15.4v0.2c-0.1,3,2.2,5.6,5.2,5.7c0,0,0,0,0,0
			c3.1,0.2,5.5-2,5.9-5.7c0.2-1.9,0.4-3.5,0.5-5.2c0.6-4.8,2.6-6.8,7.4-7.2c2.6-0.2,5-0.4,7.4-0.4c25.7-0.2,51.6-0.4,77.5-0.4
			c9.8,0,19.4,0,29.2,0.4c5.4,0.2,10.8,0.7,16.1,1.7c4.4,0.7,5.4,2.2,5.7,6.8l0.5,5.7c0.2,2.3,1.8,4.3,4.1,4.8
			c2.8,0.7,5.6-1.1,6.3-3.9c0.4-1.1,0.6-2.2,0.6-3.3c0-4.4-0.2-9.1-0.2-13.7c0-15.3-0.2-30.7,0-46c0-16.6,0.4-33.1,0.6-49.7
			c0-6.6-2.4-9.8-9.4-10.9s-13.9-2-20.9-2.6c-4.1-0.4-8.2-0.4-12.3-0.6C161.8,920.4,159.9,921.9,159.5,924.1z"/>
		<path class="st0" d="M154.8,934.6c1.1,5.4-0.5,10.3-5.2,12.9c-3.1,1.5-6.4,2.4-9.8,2.8c-1.8,0.4-3,0.9-3.1,3s-0.4,4.1-0.4,6.3v17
			h22.2c4.4,0,9.1-0.2,13.5-0.2c2,0,3.1-0.7,3.1-3c0-8,0.6-15.7,0.2-23.7s-1.5-9-9.1-10.7c-4.4-0.9-8.5-2-11.8-6.3
			C154.5,933.4,154.6,934,154.8,934.6z M169,945L169,945c0.8,0.4,1.4,2,1.5,3.2c0.4,4.6,0.4,9.4,0.6,14.2v9.8h-30v-15.9
			c0-0.4,0.9-0.9,1.5-1.1c3-0.7,5.9-1.7,8.7-2.8c3.9-2.1,6.7-5.7,7.8-10C162.5,942.9,165.8,943.7,169,945z"/>
		<path class="st0" d="M80.5,947c-2.1,0.5-4.3,0.9-6.5,1.1c-1.1,0-2,0.8-2,1.8c0,0,0,0,0,0.1v0.3c-0.2,3-0.6,6.1-0.6,9.1
			c-0.2,5.7,0,11.3,0,17h27c0.2-0.2,0.2-0.4,0.2-0.7L98,947.6c-0.1-0.8-0.5-1.4-1.1-1.9c-3-1.8-5.1-4.7-5.9-8.1
			C89.7,942.5,85.5,946.2,80.5,947z M93.4,952.2c0,5.9,0.2,12,0.4,17.9c0,0.6,0,1.1-0.2,1.7H75.5l0.7-18.9c2.7-0.5,5.4-1.1,8-1.8
			c2.3-1,4.6-2.2,6.8-3.5C92.9,948.1,93.4,950,93.4,952.2z"/>
		<path class="st0" d="M17.5,1369.2c-4.3,14.9-6,30.4-5.2,45.9c0.3,10.3,2.8,20.5,7.2,29.8c8.3,17.1,21.6,28,40.8,30.1
			c17.2,2.1,34.4-3.5,47-15.3c7.9-7.3,15-15.5,21.1-24.4c5.4-7.6,10.5-15.3,16.3-22.7c3-3.9,6.6-7.2,10.7-9.8
			c13.3-8.3,27.9-2,31.2,13.3c1.3,6.1,1.4,12.4,0.4,18.5c-2.2,15.2-13.7,27.3-28.7,30.5c-3.1,0.5-6.3,0.9-9.4,1.5
			c-2.2,0.2-4,2.1-4.1,4.3c-0.3,2.3,1.1,4.5,3.3,5.3c1.4,0.7,3,1.1,4.6,1.3l26.1,1.5c4.4,0,9.1,0.2,13.5,0c4.3-0.2,8.1-3,9.6-7
			c1.3-3.1,2.4-6.2,3.3-9.4c3.9-13.3,4.3-27.1,3.5-41c-0.4-10.2-2.9-20.3-7.2-29.6c-11.8-25.5-34.8-37.5-62.3-32.8
			c-12.6,2.2-22.7,8.7-31.4,17.7c-9.1,9.4-16.5,20.2-23.7,31.1c-3.3,5-6.8,10.2-10.5,15c-3.1,4.2-7.1,7.5-11.8,9.8
			c-12.6,5.9-24.9-0.2-27.9-13.7c-1.7-7.8-1.1-15.9,1.7-23.3c4.1-10.9,11.5-17.8,23.3-19.4c1.7-0.1,3.4-0.5,5-1.3
			c1.6-0.5,2.8-1.7,3.3-3.3c0.8-2.8-0.8-5.7-3.5-6.7c-2.1-0.4-4.2-0.7-6.3-0.7c-10.5-0.4-21.3-0.5-31.8-0.9
			C20.8,1363.1,18.9,1364.4,17.5,1369.2z"/>
		<path class="st0" d="M108.2,1052.6c-26.8,3.9-46.2,18.3-57.5,43.1c-7.2,15.9-9.6,32.9-10.2,50.3c-0.5,14.4,0,29,0,43.4l-0.4,31
			c0,5.2-0.2,10.2-0.2,15.4c0.2,3.7,2.6,6.1,5.9,5.7c2.9-0.4,5-2.8,5-5.7c0.4-2.6,0.6-5.4,0.9-8c0.5-4.8,2.4-6.8,7.2-7.6
			c2.2-0.4,4.4-0.6,6.6-0.6c25.9-0.2,51.8-0.2,77.6-0.4c11.7,0,23.5,0,35.1,0.4c3.9,0.3,7.7,0.8,11.5,1.7c2.3,0.4,4,2.3,4.1,4.6
			c0.2,2.4,0.6,4.6,0.9,7c0,3.1,2.6,5.5,5.7,5.5c0,0,0,0,0,0c3,0,5-2.2,5.4-5.7v-3.7c-0.9-21.4-0.4-42.9,1.3-64.3
			c1.3-14.9,0.4-29.9-2.6-44.5c-4.1-19.4-13.1-36.2-28.5-49C156.5,1055,133.5,1048.9,108.2,1052.6z M159.6,1106.2
			c16.5,5,26.4,18.1,27.4,35.3c0.7,6.2,0.2,12.5-1.5,18.5c-2.4,7.9-5.5,10.5-13.7,10.9c-10,0.4-20.2,0.6-30.1,0.7
			c-8.5,0.2-16.8,0-25.3,0v-0.4h-36c-4.3,0-8.5,0-12.6-0.2c-7,0-6.8,0.5-7.2-7c-0.7-17.4,4.1-32.6,17.2-44.4
			c9.1-7.9,20-13.3,31.8-15.7C126.2,1100.6,143.4,1101.4,159.6,1106.2L159.6,1106.2z"/>
		<path class="st0" d="M196.2,1259.6c-0.9,1.3-1.5,2.8-1.7,4.4c-0.6,3.5-0.7,7-1.3,10.5c-0.3,2.7-2.5,4.7-5.2,4.8
			c-2.8,0.2-5.5,0.7-8.3,0.7c-19,0.4-38.3,0.7-57.3,1.1v-0.4c-12.4,0-24.6,0.2-37,0c-8.7,0-17.2-0.4-25.9-0.7
			c-5.9-0.2-7.4-1.7-8.3-7.6c-0.2-1.5-0.4-3-0.6-4.3c-0.2-1.1-0.5-2.1-0.9-3.1c-0.7-2-2.7-3.3-4.8-3.1c-2.2-0.2-4.3,1.3-4.8,3.5
			c-0.4,1.7-0.6,3.5-0.5,5.2v64.5c0,2.2,0,4.4,0.2,6.7v0.9c0.5,3,3.3,5,6.3,4.6c2.4-0.4,4.3-2.4,4.6-5.7c0.4-2.8,0.7-5.4,1.1-8
			c0.2-2.2,1.9-3.9,4.1-4c3-0.5,6-0.8,9.1-0.9c26.8-0.2,53.6-0.4,80.2-0.4c10.9,0,21.6,0.4,32.5,0.7c3.9,0.1,7.7,0.6,11.5,1.3
			c3.7,0.7,4.8,2.2,5.2,5.9l0.6,6.1c0.1,2.7,2.2,4.8,4.8,5.1c2.9,0.3,5.6-1.8,6-4.7c0.3-1.8,0.4-3.6,0.4-5.4
			c0-14.4-0.4-28.6-0.4-42.9c0-9.6,0.4-19.4,0.4-29.2c0-1.8-0.3-3.5-0.9-5.2c-0.4-1.1-1.1-2-2-2
			C200.9,1256.6,197.8,1257.3,196.2,1259.6z"/>
		<path class="st0" d="M117.7,719.3c-16.1,0-31.6,2-46.4,8.7c-8.6,3.5-16.3,9.1-22.2,16.3c-7.2,9.1-9,19.6-7.8,30.9
			c0.7,6.8,4,13.1,9.2,17.6c6.5,5.6,14.4,9.2,22.9,10.5c14.1,2.6,28.5,3.2,42.7,1.7c13.6-0.9,26.8-4.8,38.8-11.3
			c16.5-9.1,26.1-22.4,24.8-42c-0.3-7.4-3.7-14.3-9.4-19c-6.1-4.9-13.3-8.3-20.9-10C139,720.2,128.4,719.1,117.7,719.3z
			 M145.9,726.7c8.4,1.1,16.3,4.8,22.5,10.5c4.1,3.9,6.5,9.2,6.7,14.8c1.1,15.3-5.7,26.6-18.1,34.9c-11.1,7.2-23.8,11.6-37,12.9
			c-14,1.7-28.1,1.6-42.1-0.4c-7.4-0.9-14.5-3.5-20.7-7.6c-8.7-5.5-11.8-14-11.5-24c0.4-14.3,7.8-24.1,19.6-31.1
			c11.4-6.8,24.3-10.8,37.5-11.6c5-0.4,10-0.7,17.4-1.1C128.8,724.3,137.4,725.3,145.9,726.7L145.9,726.7z"/>
		<path class="st0" d="M93.1,1118c-18.5,10-26.4,27.2-25.1,46c0.6,0,1.1,0.2,1.7,0.2c33.7-0.2,67.3-0.4,100.9-0.6
			c6.1,0,6.8-0.9,8.5-6.7c0.1-0.4,0.2-0.9,0.2-1.3c0.2-4.6,0.6-9,0.4-13.7c-0.2-12.7-8.3-24-20.3-28.3c-7.5-2.5-15.3-3.9-23.2-4.2
			C121,1108.6,106.7,1110.6,93.1,1118z M126.5,1114.2c8,0,15.9,0.7,23.8,1.8l0,0c11.1,1.8,20,7.4,23.3,18.7c2.3,7.1,2.4,14.8,0.4,22
			c-0.2,1.4-1.6,2.4-3,2.2c-13.5,0.2-27.2,0.5-40.7,0.7c-18.5,0-36.8-0.2-55.3-0.2c-0.9,0-1.9,0-2.8-0.2
			c0.4-14.6,6.1-26.3,17.9-34.2C100.8,1117.6,113.5,1113.8,126.5,1114.2L126.5,1114.2z"/>
		<path class="st0" d="M229.1,499.5c-1.6,1.2-2.4,3.3-1.8,5.2c0.3,1.6,0.8,3.1,1.3,4.6c5.9,13.3,7.8,27.4,8,41.8
			c0.4,20-3.7,39.4-10.4,58.2c-7.4,20.9-16.8,41.2-27.9,60.4c-4.4,7.8-8.5,15.7-12.9,23.8l-1.7-1.9c-26.6-29.4-59.7-40.5-98.2-32.3
			c-32.7,7-54.3,27.9-66,59c-9.1,24-9.4,48.8-3.7,73.8c5,21.8,15.3,40.7,33.1,54.5c24.6,19.4,52.5,25.5,83,18.9
			c33.8-7.4,58-27.2,70.2-60.1c8.5-22.9,8.9-46.6,4.3-70.4c-0.2-1.2,0.1-2.4,0.7-3.5c5.7-9.2,11.5-18.7,17.4-27.9
			c10-15.7,19.6-31.6,27-48.8c6.7-14.7,10.9-30.4,12.6-46.4c1.5-15.6,0.8-31.2-2-46.6c-3.7-20.5-11.4-40.1-22.7-57.7
			c-1.1-1.7-2.6-3.2-4.3-4.4C233.4,498.3,230.9,498.2,229.1,499.5z M157.8,717.6c8.5,2.8,16.1,7,21.8,14.1
			c4.5,5.5,7.1,12.3,7.4,19.4c1.3,18.9-6.3,33.5-21.5,44.4c-10.9,8-23.3,12.2-36.4,14.8c-18.6,3.8-37.8,3.8-56.4,0.2
			c-6.1-1.2-12-3.2-17.6-5.9c-16.1-7.8-22.2-21.5-21.6-37.7c0.5-16.6,8.5-29.2,22-38.5c11.1-7.4,23.8-12.2,37-14l25.2-2.2
			C131.4,712.3,144.9,713.2,157.8,717.6L157.8,717.6z"/>
	</g>
</g>
</svg>
