<?xml version="1.0" encoding="utf-8"?>
<!-- Generator: Adobe Illustrator 23.0.1, SVG Export Plug-In . SVG Version: 6.00 Build 0)  -->
<svg version="1.1" id="Layer_1" xmlns="http://www.w3.org/2000/svg" xmlns:xlink="http://www.w3.org/1999/xlink" x="0px" y="0px"
	 viewBox="0 0 222 854.3" style="enable-background:new 0 0 222 854.3;" xml:space="preserve">
<style type="text/css">
	.st0{fill:#FFFFFF;}
</style>
<title>ARC_White</title>
<g>
	<g id="Layer_1-2">
		<path class="st0" d="M1.8,757.5c-0.1-1,0.6-1.8,1.6-1.9l116.6-22c0.2,0,0.5,0,0.7,0l0.8,0.2c0.7,0.1,1.2,0.5,1.7,1
			c0.4,0.5,0.7,1.1,0.7,1.8v29.8c0.1,0.9-0.5,1.8-1.4,1.9c-0.1,0-0.1,0-0.2,0l-17.5,3.3v38.8l17.5,9.7c1,0.4,1.6,1.4,1.6,2.5v29.8
			c0,0.6-0.2,1.2-0.7,1.6c-0.5,0.4-1.1,0.5-1.6,0.4l-0.8-0.2c-0.3-0.1-0.6-0.1-0.9-0.3L3.4,789.9c-1-0.4-1.6-1.4-1.6-2.5V757.5z
			 M74.8,793.9v-16.8l-22.6,4.4L74.8,793.9z"/>
		<path class="st0" d="M2.4,619c-0.4-0.5-0.6-1.1-0.6-1.7v-30.8c0-0.6,0.2-1.1,0.7-1.5c0.5-0.4,1.2-0.5,1.8-0.4l117.2,21.1
			c0.7,0.1,1.3,0.5,1.8,1c0.4,0.5,0.7,1.1,0.7,1.8v29.4c0,0.6-0.2,1.1-0.7,1.5c-0.5,0.4-1.2,0.5-1.8,0.4L62.3,629l38.2,16
			c1.1,0.4,1.9,1.4,1.8,2.6v30.5c0,1.3-0.6,2-1.8,2l-38.2,2.1l59.2,10.7c1.4,0.3,2.4,1.5,2.4,2.9v29.3c0,0.6-0.2,1.2-0.7,1.6
			c-0.5,0.4-1.2,0.5-1.8,0.3l-117.2-21c-0.7-0.1-1.3-0.5-1.8-1c-0.4-0.5-0.7-1.2-0.7-1.9v-30.7c0-0.6,0.2-1.1,0.6-1.5
			c3.3-2.7,9.3-5.5,18-8.2c7.8-2.5,15.6-4.6,23.6-6.3l10.5-2.1c-1-0.6-2.5-1.4-4.5-2.5s-5.4-3.1-10.5-6.1s-9.8-5.9-14.1-8.7
			s-8.7-5.8-13.2-9.2C8.7,625.3,5.4,622.3,2.4,619z"/>
		<path class="st0" d="M123.9,597.1c0,0.6-0.2,1.2-0.7,1.6c-0.5,0.4-1.2,0.5-1.8,0.3l-117.2-21c-0.7-0.1-1.3-0.5-1.8-1
			c-0.4-0.5-0.7-1.2-0.7-1.9v-71.3c0-0.6,0.2-1.2,0.7-1.6c0.5-0.4,1.1-0.6,1.8-0.4l24.3,4.4c0.7,0.1,1.3,0.5,1.7,1
			c0.5,0.5,0.7,1.1,0.7,1.8v39.6l17.3,3.1v-34.2c0-0.6,0.2-1.1,0.7-1.5c0.5-0.4,1.1-0.5,1.7-0.4l24.4,4.4c0.7,0.1,1.2,0.5,1.7,1
			c0.4,0.5,0.7,1.1,0.7,1.8V557l17.5,3.1v-39.6c0-0.6,0.2-1.2,0.7-1.6c0.4-0.4,1.1-0.6,1.7-0.4l24.3,4.4c0.7,0.1,1.3,0.5,1.8,1
			c0.4,0.5,0.7,1.2,0.7,1.8L123.9,597.1z"/>
		<path class="st0" d="M82,427c10.8-7.5,24.6-10,41.3-7.5c0.7,0.1,1.3,0.5,1.7,1c0.5,0.5,0.7,1.2,0.7,1.9v31.4
			c0,0.6-0.2,1.1-0.7,1.5c-0.5,0.4-1.1,0.5-1.7,0.4c-9.9-1.3-17.4-0.2-22.7,3.4c-5.2,3.6-8.2,9.4-8.7,17.3l31.3,5.6
			c0.7,0.1,1.3,0.5,1.7,1c0.5,0.5,0.7,1.2,0.7,1.8v29.3c0,0.6-0.2,1.2-0.7,1.6c-0.5,0.4-1.1,0.5-1.7,0.4L4.2,494.7
			c-0.7-0.1-1.3-0.5-1.8-1c-0.4-0.5-0.7-1.2-0.7-1.9v-57.5c-0.1-4.7,0.8-9.3,2.7-13.6c1.8-4,4.5-7.4,8-10c4.1-2.9,8.8-4.7,13.7-5.3
			c6.4-0.8,12.9-0.6,19.3,0.7C62.1,409.1,74.3,416,82,427z M33.6,465.8l26,4.7c0.7,0.1,1.1-0.2,1.1-0.9v-14c0-3.6-1.4-7-3.8-9.6
			c-2.7-2.9-6.3-4.8-10.3-5.4c-4.3-0.8-7.7-0.2-10.3,1.7c-2.6,1.9-4,5-3.8,8.2v14C32.4,465.2,32.9,465.8,33.6,465.8
			C33.5,465.8,33.5,465.8,33.6,465.8z"/>
		<path class="st0" d="M123.9,380.5v29.3c0,0.6-0.2,1.2-0.7,1.6c-0.5,0.4-1.2,0.5-1.8,0.4l-117.2-21c-0.7-0.1-1.3-0.5-1.8-1
			c-0.4-0.5-0.7-1.2-0.7-1.9v-29.3c0-0.6,0.2-1.2,0.7-1.6c0.5-0.4,1.1-0.6,1.8-0.4l117.2,21c0.7,0.1,1.3,0.5,1.8,1
			C123.7,379.2,123.9,379.8,123.9,380.5z"/>
		<path class="st0" d="M81.7,274.4l18.7-20.1c0.4-0.4,1-0.6,1.6-0.6c0.7,0,1.3,0.3,1.7,0.8c7.3,7.2,13.2,15.7,17.5,25
			c4.2,9.1,6.3,18.9,6.3,28.9c0.1,8.2-1.6,16.4-5,23.9c-3.1,6.9-7.7,13.1-13.6,17.9c-6,4.8-12.9,8.2-20.4,9.9
			c-8.1,1.9-16.6,2.1-24.8,0.6c-8.8-1.6-17.2-4.8-24.7-9.5C23.5,342.1,11.6,328,5,311.3c-3.3-8.1-5-16.8-5.1-25.6
			c-0.1-9.2,2.1-18.4,6.3-26.5c4-7.7,10-14.1,17.3-18.7c0.6-0.3,1.2-0.4,1.8-0.2c0.6,0.2,1.2,0.6,1.6,1.1l18.6,26.8
			c0.4,0.5,0.6,1.1,0.5,1.7c0,0.6-0.3,1.1-0.8,1.4c-3.2,2.3-5.9,5.4-7.8,8.9c-2,3.6-3,7.7-3,11.8c0,8.1,2.8,15.5,8.5,22.2
			c5.2,6.4,12.5,10.7,20.6,12.2c8.1,1.4,14.9-0.2,20.6-4.8c5.7-4.6,8.5-11,8.5-19.1c-0.1-4.5-1.1-8.9-3.1-12.9
			c-2-4.3-4.7-8.3-7.9-11.8c-0.5-0.4-0.8-1-0.8-1.7C81.1,275.4,81.3,274.8,81.7,274.4z"/>
		<path class="st0" d="M1.8,159.2c-0.1-1,0.6-1.8,1.6-1.9l116.6-22c0.2,0,0.5,0,0.7,0l0.8,0.2c0.7,0.1,1.2,0.5,1.7,1
			c0.4,0.5,0.7,1.1,0.7,1.8V168c0.1,0.9-0.5,1.8-1.4,1.9c-0.1,0-0.1,0-0.2,0l-17.5,3.3V212l17.5,9.7c1,0.4,1.6,1.4,1.6,2.5V254
			c0,0.6-0.2,1.2-0.7,1.6c-0.5,0.4-1.1,0.5-1.7,0.4l-0.8-0.2c-0.3-0.1-0.6-0.1-0.9-0.3L3.4,191.6c-1-0.4-1.6-1.4-1.6-2.5V159.2z
			 M74.8,195.6v-16.8l-22.6,4.4L74.8,195.6z"/>
		<path class="st0" d="M4.2,34.2c-0.7-0.1-1.3-0.5-1.8-1c-0.4-0.5-0.7-1.1-0.7-1.8V2c0-0.6,0.2-1.2,0.7-1.6C3,0,3.6-0.1,4.2,0
			l117.2,21.1c0.7,0.1,1.3,0.5,1.7,1c0.5,0.5,0.7,1.2,0.7,1.8v30.3c0,0.8-0.5,1.6-1.2,1.8L55,82l66.4,11.9c0.7,0.1,1.3,0.5,1.8,1
			c0.4,0.5,0.7,1.2,0.7,1.8v29.3c0,0.6-0.2,1.2-0.7,1.6c-0.5,0.4-1.2,0.5-1.8,0.3l-117.2-21c-0.7-0.1-1.3-0.5-1.8-1
			c-0.4-0.5-0.7-1.2-0.7-1.9V73.8c-0.1-0.8,0.4-1.5,1.1-1.8l61.7-27L4.2,34.2z"/>
		<path class="st0" d="M191.2,663.9c7.3-5.2,16.6-7.1,27.9-5.6c0.4,0.1,0.9,0.3,1.1,0.6c0.3,0.3,0.5,0.8,0.5,1.3v21.4
			c0,0.4-0.2,0.8-0.5,1c-0.3,0.3-0.7,0.4-1.1,0.3c-6.7-0.8-11.8,0-15.3,2.6c-3.5,2.5-5.5,6.5-5.9,11.9l21.1,3.5
			c0.9,0.2,1.6,1,1.6,1.9v19.9c0,0.4-0.2,0.9-0.5,1.1c-0.3,0.2-0.7,0.3-1.1,0.3l-80.4-13.2c-0.5-0.1-0.9-0.3-1.2-0.6
			c-0.3-0.4-0.5-0.8-0.4-1.3v-39.1c-0.1-3.2,0.6-6.3,1.8-9.3c1.2-2.7,3.1-5.1,5.4-6.9c2.7-2,5.9-3.3,9.3-3.8c4.3-0.6,8.7-0.5,13,0.2
			C177.8,652,186,656.6,191.2,663.9z M158.5,690.9l17.6,2.9c0.5,0.1,0.8-0.1,0.8-0.6v-9.5c0-2.4-0.9-4.7-2.6-6.5
			c-1.8-2-4.3-3.2-6.9-3.6c-2.9-0.5-5.2,0-6.9,1.3c-1.7,1.3-2.7,3.4-2.6,5.6v9.5C157.7,690.5,158.1,690.9,158.5,690.9L158.5,690.9z"
			/>
		<path class="st0" d="M219.5,652.1c0,0.4-0.1,0.8-0.4,1.1c-0.3,0.3-0.8,0.4-1.2,0.3l-79.2-13c-0.5-0.1-0.9-0.3-1.2-0.6
			c-0.3-0.4-0.5-0.8-0.4-1.3v-48.4c0-0.4,0.2-0.8,0.4-1.1c0.3-0.3,0.8-0.4,1.2-0.3l16.4,2.7c0.5,0.1,0.9,0.3,1.1,0.7
			c0.3,0.3,0.5,0.8,0.5,1.2v26.9l11.7,1.9v-23.3c0-0.7,0.5-1.3,1.2-1.3c0.1,0,0.2,0,0.3,0l16.5,2.7c0.4,0.1,0.8,0.3,1.1,0.6
			c0.3,0.3,0.5,0.7,0.5,1.2v23.3l11.8,1.9v-26.9c0-0.4,0.2-0.8,0.5-1.1c0.3-0.3,0.7-0.4,1.1-0.3l16.4,2.7c0.5,0.1,0.9,0.3,1.2,0.7
			c0.3,0.3,0.4,0.8,0.4,1.2L219.5,652.1z"/>
		<path class="st0" d="M137,551.7c-0.1-4.7,0.7-9.3,2.4-13.7c1.6-3.9,4.1-7.4,7.3-10.2c3.2-2.8,7.5-4.7,12.9-5.7
			c6.2-1,12.5-0.9,18.6,0.3c6.5,1,12.8,3,18.7,5.9c4.9,2.4,9.3,5.8,12.9,9.9c3.1,3.7,5.6,8,7.3,12.6c1.6,4.6,2.5,9.5,2.4,14.5v31.2
			c0,0.4-0.1,0.8-0.4,1.1c-0.3,0.3-0.8,0.4-1.2,0.3l-79.2-13c-0.5-0.1-0.9-0.3-1.2-0.7c-0.3-0.4-0.5-0.8-0.4-1.3L137,551.7z
			 M200,567.2c0.1-5.1-1.9-10.1-5.4-13.8c-3.6-3.9-9.1-6.4-16.3-7.6c-7.3-1.2-12.7-0.4-16.3,2.3c-3.6,2.7-5.4,6.7-5.4,12v3.8
			c0,0.5,0.3,0.8,0.8,0.9l42,6.9c0.5,0.1,0.8-0.1,0.8-0.6L200,567.2z"/>
		<path class="st0" d="M191,423.1l12.6-13.8c0.3-0.3,0.7-0.4,1.1-0.4c0.4,0,0.8,0.2,1.1,0.5c5,4.8,9,10.5,11.8,16.8
			c2.8,6.1,4.3,12.8,4.3,19.5c0.1,5.6-1.1,11.2-3.4,16.3c-4.2,9.7-12.7,16.8-23,19.3c-5.5,1.4-11.2,1.6-16.7,0.7
			c-5.9-1-11.6-3.1-16.7-6.2c-10.4-6.1-18.5-15.6-22.9-26.8c-2.2-5.5-3.4-11.4-3.4-17.4c-0.1-6.3,1.4-12.5,4.3-18.1
			c2.7-5.3,6.8-9.7,11.7-12.9c0.4-0.2,0.8-0.3,1.2-0.1c0.4,0.1,0.8,0.4,1.1,0.8l12.5,18c0.3,0.3,0.4,0.7,0.4,1.2
			c0,0.4-0.2,0.7-0.5,1c-2.2,1.6-4,3.7-5.3,6.1c-1.4,2.4-2.1,5.2-2.1,8c0,5.5,2.1,10.9,5.8,15c3.5,4.3,8.5,7.2,13.9,8.1
			c5.4,0.9,10.1-0.3,13.9-3.5c3.9-3.2,5.8-7.6,5.8-13.1c0-3-0.7-6-2.1-8.8c-1.3-2.9-3.1-5.6-5.4-7.9c-0.3-0.3-0.5-0.7-0.5-1.1
			C190.6,423.8,190.7,423.4,191,423.1z"/>
		<path class="st0" d="M191.2,347.2c7.3-5.2,16.6-7.1,27.9-5.6c0.4,0.1,0.9,0.3,1.1,0.6c0.3,0.3,0.5,0.8,0.5,1.3v21.4
			c0,0.4-0.2,0.8-0.5,1c-0.3,0.3-0.7,0.4-1.1,0.3c-6.7-0.8-11.8,0-15.3,2.6c-3.5,2.5-5.5,6.5-5.9,11.9l21.1,3.5
			c0.5,0.1,0.9,0.3,1.1,0.7c0.3,0.3,0.5,0.8,0.5,1.2v19.9c0,0.4-0.2,0.8-0.5,1.1c-0.3,0.3-0.7,0.3-1.1,0.3l-80.4-13.2
			c-0.5-0.1-0.9-0.3-1.2-0.6c-0.3-0.4-0.5-0.8-0.4-1.3V353c-0.1-3.2,0.6-6.3,1.8-9.3c1.2-2.7,3.1-5.1,5.4-6.9c2.7-2,5.9-3.3,9.3-3.8
			c4.3-0.6,8.7-0.6,13,0.2C177.8,335.2,186,339.8,191.2,347.2z M158.5,374.2l17.6,2.9c0.5,0.1,0.8-0.1,0.8-0.6v-9.5
			c0-2.4-0.9-4.7-2.6-6.5c-1.8-2-4.3-3.2-6.9-3.6c-2.9-0.5-5.2,0-6.9,1.3c-1.7,1.3-2.7,3.4-2.6,5.6v9.5
			C157.7,373.7,158.1,374.1,158.5,374.2L158.5,374.2z"/>
		<path class="st0" d="M139.2,297.1c-2.2-5.6-3.4-11.5-3.4-17.5c-0.1-5.6,1.1-11.2,3.4-16.4c4.2-9.7,12.7-16.9,22.9-19.5
			c5.5-1.4,11.2-1.7,16.7-0.7c5.9,1,11.6,3.1,16.7,6.2c10.5,6.1,18.6,15.7,22.9,27c2.2,5.6,3.4,11.5,3.4,17.5
			c0.1,5.6-1.1,11.2-3.4,16.4c-4.2,9.7-12.7,17-22.9,19.5c-5.5,1.4-11.2,1.7-16.8,0.7c-5.9-1-11.6-3.1-16.7-6.2
			C151.7,317.9,143.6,308.4,139.2,297.1L139.2,297.1z M192.8,303.1c3.9-3.3,5.8-7.7,5.8-13.2c-0.3-11.4-8.5-21.1-19.7-23.2
			c-5.5-0.9-10.1,0.3-13.9,3.6s-5.8,7.7-5.8,13.2c0.3,11.4,8.5,21.1,19.7,23.3C184.3,307.5,189,306.3,192.8,303.1L192.8,303.1z"/>
		<path class="st0" d="M139.9,183.8L156,188c0.5,0.1,0.9,0.4,1.1,0.8c0.3,0.4,0.4,0.8,0.3,1.3c-1.2,4.8-1.8,9.8-1.9,14.8
			c-0.1,1.7,0.2,3.4,0.7,4.9c0.4,1.2,1.1,2.3,2,3.2c0.7,0.6,1.4,1.1,2.1,1.5c0.5,0.3,1.1,0.5,1.6,0.6c0.6,0.1,1.2,0.1,1.8,0
			c0.9-0.2,1.7-0.5,2.5-0.9c1.2-0.7,2.2-1.7,2.9-2.9c1-1.7,1.8-3.5,2.2-5.4c0.6-2.5,1.6-4.8,3.1-6.9c1.5-2.2,3.3-4.1,5.4-5.8
			c2.4-1.8,5.1-3,8-3.5c3.4-0.7,7-0.7,10.4-0.1c8,1.3,14,4.8,17.9,10.3s5.8,13.9,5.8,25c0,5.8-0.3,11.6-1,17.3
			c0,0.4-0.3,0.7-0.6,0.9c-0.3,0.2-0.8,0.3-1.1,0.2l-16.1-4.2c-0.5-0.1-0.9-0.4-1.1-0.8c-0.3-0.4-0.4-0.9-0.3-1.4
			c1.1-4.7,1.7-9.4,1.8-14.2c0.1-1.7-0.1-3.4-0.7-5c-0.4-1.2-1.1-2.3-2-3.2c-0.7-0.6-1.4-1.1-2.1-1.5c-0.5-0.3-1.1-0.5-1.7-0.6
			c-0.6-0.1-1.2-0.1-1.8,0c-0.9,0.2-1.7,0.5-2.5,0.9c-1.2,0.7-2.2,1.6-2.9,2.8c-1,1.7-1.8,3.5-2.2,5.4c-0.6,2.5-1.6,4.8-3,6.9
			c-1.5,2.2-3.3,4.1-5.4,5.7c-2.4,1.8-5.1,3-8,3.6c-3.4,0.7-7,0.8-10.4,0.1c-7.2-1-13.7-5.1-17.6-11.3c-4-6.3-6.1-14.3-6.1-24.1
			c0-6,0.4-11.9,1.1-17.8c0.1-0.4,0.3-0.7,0.6-0.9C139.1,183.9,139.5,183.8,139.9,183.8z"/>
		<path class="st0" d="M139.9,130.3l16.1,4.2c0.5,0.1,0.9,0.4,1.1,0.8c0.3,0.4,0.4,0.8,0.3,1.3c-1.2,4.8-1.8,9.8-1.9,14.8
			c-0.1,1.7,0.1,3.4,0.7,5c0.4,1.2,1.1,2.3,2,3.2c0.7,0.6,1.4,1.1,2.1,1.5c0.5,0.3,1.1,0.5,1.6,0.6c0.6,0.1,1.2,0.1,1.8,0
			c0.9-0.2,1.7-0.5,2.5-0.9c1.2-0.7,2.2-1.7,2.9-2.9c1-1.7,1.8-3.5,2.2-5.4c0.6-2.5,1.6-4.8,3.1-6.9c1.5-2.2,3.3-4.2,5.4-5.8
			c2.4-1.8,5.1-3,8-3.5c3.4-0.7,7-0.7,10.4-0.1c8,1.3,14,4.8,17.9,10.3c3.9,5.6,5.9,13.9,5.8,25c0,5.8-0.3,11.6-1,17.3
			c0,0.4-0.3,0.7-0.6,0.9c-0.3,0.2-0.8,0.3-1.1,0.2l-16.1-4.2c-0.5-0.1-0.9-0.4-1.1-0.8c-0.3-0.4-0.4-0.9-0.3-1.4
			c1.1-4.7,1.7-9.4,1.8-14.2c0.1-1.7-0.1-3.4-0.7-5c-0.4-1.2-1.1-2.3-2-3.2c-0.7-0.6-1.4-1.1-2.1-1.5c-0.5-0.3-1.1-0.5-1.7-0.6
			c-0.6-0.1-1.2-0.1-1.8,0c-0.9,0.2-1.7,0.5-2.5,0.9c-1.2,0.7-2.2,1.6-2.9,2.8c-1,1.7-1.8,3.5-2.2,5.4c-0.6,2.5-1.6,4.8-3,6.9
			c-1.5,2.2-3.3,4.1-5.4,5.7c-2.4,1.8-5.1,3-8,3.6c-3.4,0.7-7,0.8-10.4,0.2c-7.3-1-13.8-5.1-17.7-11.4c-4-6.2-6.1-14.3-6.1-24
			c0-6,0.4-11.9,1.1-17.8c0.1-0.4,0.3-0.7,0.6-0.9C139,130.3,139.4,130.2,139.9,130.3z"/>
	</g>
</g>
</svg>
