<?xml version="1.0" encoding="utf-8"?>
<!-- Generator: Adobe Illustrator 23.0.1, SVG Export Plug-In . SVG Version: 6.00 Build 0)  -->
<svg version="1.1" id="Layer_1" xmlns="http://www.w3.org/2000/svg" xmlns:xlink="http://www.w3.org/1999/xlink" x="0px" y="0px"
	 viewBox="0 0 188.2 452.5" style="enable-background:new 0 0 188.2 452.5;" xml:space="preserve">
<style type="text/css">
	.st0{fill:#FFFFFF;}
</style>
<g>
	<g id="Layer_1-2">
		<path class="st0" d="M68.2,409.1H0v-42.6c0-2.3,0.9-4.4,2.5-6c1.6-1.6,3.7-2.6,6-2.5h25.6c2.3,0,4.5,0.9,6.1,2.6
			c1.6,1.6,2.5,3.7,2.5,6V392h25.6V409.1z M25.6,375h-8.5V392h8.5V375z"/>
		<path class="st0" d="M68.2,353.3H0v-17h68.2V353.3z"/>
		<path class="st0" d="M68.2,333H0v-51.2h17.1v34.1h8.5v-25.6h17.1v25.6h8.5v-34.1h17.1L68.2,333z"/>
		<path class="st0" d="M68.2,269.5c0,2.3-0.8,4.5-2.5,6.1c-1.6,1.6-3.8,2.5-6.1,2.5H8.5c-2.3,0-4.4-0.9-6-2.5
			C0.9,274,0,271.8,0,269.5v-34.2c0-2.3,0.9-4.4,2.5-6c1.6-1.6,3.7-2.6,6-2.5h17.1V244h-8.5V261h34.1V244h-8.5v-17.1h17
			c2.3,0,4.5,0.9,6.1,2.5c1.6,1.6,2.5,3.8,2.5,6L68.2,269.5z"/>
		<path class="st0" d="M68.2,222H0v-51.2h17.1v34.1h8.5v-25.6h17.1v25.6h8.5v-34.1h17.1L68.2,222z"/>
		<path class="st0" d="M68.2,141.7c0,2.3-0.8,4.5-2.5,6.1c-1.6,1.6-3.8,2.5-6.1,2.5H8.5c-2.3,0.1-4.4-0.8-6-2.5
			C0.9,146.2,0,144,0,141.7v-34.1c0-2.3,0.9-4.5,2.5-6c1.6-1.6,3.7-2.6,6-2.5h51.2c2.3,0,4.5,0.9,6.1,2.5c1.6,1.6,2.5,3.7,2.5,6
			V141.7z M51.2,116.1H17.1v17.1h34.1V116.1z"/>
		<path class="st0" d="M68.2,94.6H0V43.4h17.1v34.1h8.5V51.9h17.1v25.6h25.6L68.2,94.6z"/>
		<path class="st0" d="M188.1,452.5H73.6v-28.6h42.9v-28.6H73.6v-28.6h114.5v28.6h-42.9v28.6h42.9V452.5z"/>
		<path class="st0" d="M188.1,360.7H73.6v-85.9h28.6v57.3h14.3v-42.9h28.6v42.9h14.3v-57.2h28.6L188.1,360.7z"/>
		<path class="st0" d="M188.1,269.2H87.9c-3.8,0.1-7.4-1.4-10-4.1c-2.8-2.7-4.3-6.3-4.3-10.2v-57.3c-0.1-3.8,1.5-7.5,4.3-10.1
			c2.6-2.7,6.2-4.3,10-4.3h100.2v28.6h-42.9v28.6h42.9V269.2z M116.6,211.9h-14.3v28.6h14.3L116.6,211.9z"/>
		<path class="st0" d="M188.1,177H73.6v-71.5c0-3.8,1.5-7.5,4.3-10.1c2.6-2.7,6.2-4.3,10-4.3h43c3.8-0.1,7.5,1.5,10.2,4.3
			c2.7,2.7,4.2,6.3,4.1,10.1v7.2l42.9-21.5v28.6l-42.9,21.5v7.1h42.9L188.1,177z M116.6,119.8h-14.3v28.6h14.3L116.6,119.8z"/>
		<path class="st0" d="M188.1,57.2h-85.9v28.6H73.6V0h28.6v28.6h85.9V57.2z"/>
	</g>
</g>
</svg>
