<?xml version="1.0" encoding="utf-8"?>
<!-- Generator: Adobe Illustrator 23.0.1, SVG Export Plug-In . SVG Version: 6.00 Build 0)  -->
<svg version="1.1" id="Layer_1" xmlns="http://www.w3.org/2000/svg" xmlns:xlink="http://www.w3.org/1999/xlink" x="0px" y="0px"
	 viewBox="0 0 222 869.8" style="enable-background:new 0 0 222 869.8;" xml:space="preserve">
<style type="text/css">
	.st0{fill:#FFFFFF;}
</style>
<title>ChildsPlay_White</title>
<g>
	<g id="Layer_1-2">
		<path class="st0" d="M140.9,779.3c-4.2,26.2-10.9,40-21.3,48.2c-6.2,5-16.1,8.9-24.7,8.9c-6.9,0-15.3-3.7-21-8.2
			c-12.3-9.6-16.6-28.2-19.5-47c-0.5-3.7-9.4-12.1-12.6-12.1c-6.7,0-16.1,9.6-16.1,15.1c0,26.2,16.3,62.3,40.3,76.4
			c10.4,5.8,22.2,9,34.1,9.2c13.9,0,29.4-6.7,38.1-14.6c23.7-21.5,27.4-52.2,27.4-69.4c0-2.2-4.4-16.8-11.9-16.8h-0.2
			C147.3,768.8,142,773.2,140.9,779.3z"/>
		<path class="st0" d="M82.1,678.5c-5.5,4.1-8.2,10.3-8.4,17.2c-0.4,13.6,6,27.4,15.3,37.2c-22.4-0.1-55.8-0.5-73.7-2.4
			c-4.2-0.5-7.4,7.9-7.4,10.9c0,8.7,5.4,20,9.1,20.3c23.5,1.2,107.5-0.3,133.7-0.3c6.9,0,9.6-24.7,4.4-26.9
			c-3.5-1.5-14.6-6.2-18-7.7c-18.5-8.2-28.2-19.3-28.2-22.5c0-2.5,3.2-6.2,5.4-6.9s10.6-1.7,17.3-1.7c9.6,0,20.3,1.7,27.4,3
			c2,0.3,6.4-5.7,6.4-8.9c0-6.2-6.2-15.3-10.4-16.8c-7.9-3-21.5-5.4-36.3-5.4h-0.3c-15.3,0-28.2,3.2-31.1,5.2
			C85.4,674.3,83.6,676.3,82.1,678.5z"/>
		<path class="st0" d="M81.6,625.8c-4.2,0-8.4,10.4-8.4,18.5c0,3.2,4.2,10.1,7.9,10.4c19.8,1.5,56.8,2.5,69,2.5
			c2.5,0,11.9-8.4,11.9-15.8c0-4.7-4.7-15.8-8.9-16.1c-21.5-1.2-52.6,0.5-71.2,0.5H81.6z"/>
		<path class="st0" d="M69.2,642.3c0-8.2-5.7-17.1-14.6-17.1h-0.3c-8.4,0-13.3,9.4-13.3,16.8c0,5.4,6.9,13.3,12.6,13.3
			C59.8,655.4,69.2,649.5,69.2,642.3z"/>
		<path class="st0" d="M11.6,579.3c-6.2-0.3-8.9,11.9-8.9,15.6c0,7.2,11.1,14.8,13.6,14.8c25.2-0.3,46-0.5,74.4-1
			c22.3-0.5,49.2-0.5,63.5-0.5c6.7,0,9.1-13.8,9.1-21.8c0-1.7-4.9-8.4-12.4-8.4h-0.2c-12.1,0-31.4,0.5-52.4,0.5
			C62.3,578.5,26.9,580,11.6,579.3z"/>
		<path class="st0" d="M0,497.8c0,8.7,4.9,16.6,7.7,16.6c23.2,0,36.6-0.7,49.7-0.7c12.4,0,14.8,1.4,15.1,2.9
			c2.2,13.2,5.4,28.8,11.6,37.5c9.1,12.8,23.7,19.3,36.6,19.3c13.8,0,30.6-10.6,36.6-25.5c2.7-6.7,3.2-24.5,3.2-28.9
			c0-2.9,1.5-4.8,3-4.8c3.7,0,2-26.2-5.7-26.2c-11.6,0-40.8-0.7-66.7-0.7c-30.4,0-60.3-1.7-83.3-1.7H7.4C4.2,485.4,0,492.4,0,497.8z
			 M133.2,515.3c2.2,1.2,3.2,8,3.2,11.3c0,8.9-10.4,15.9-17.3,15.9c-6.4,0-13.3-4.1-16.1-8.9c-1.7-3.1-2-10.1-2-14
			c0-3.1,1.2-4.8,3.7-4.8h0.3C112.5,514.8,131.5,514.6,133.2,515.3z"/>
		<path class="st0" d="M23.7,459c1,2.2,5,6.7,8.5,6.6c5.1,0.1,29.6-0.6,42-0.5c6.8,0,3.9-14.7-0.8-16.5c-5.1-2.2-37.9-4.3-43-4.4
			S21.5,454.1,23.7,459z"/>
		<path class="st0" d="M109.2,382.4c-3.7,6.9-5.9,11.4-10.6,11.4c-4.9,0-9.4-4-9.4-20c0-2-5.9-5.2-8.9-5.2
			c-4.2,0-12.8,7.9-12.8,16.6c0,17.8,17.3,37.8,32.6,37.8c8.4,0,16.1-2.5,21.8-11.1c4-6.2,6.7-14.3,12.6-14.3
			c6.2,0,9.9,6.2,10.9,21.8c0,2.5,6.2,5.9,9.1,5.9c4,0,11.4-8.6,11.4-14.8c0-19.3-14.3-42.5-34.1-42.5h-0.2
			C122.1,367.8,114.9,371.8,109.2,382.4z"/>
		<path class="st0" d="M27.2,295.4c0,1.9,7.9,5.8,18,5.8c4.2,0,6.2-4.1,8.2-4.6c3-0.7,33.1-1,47.5-0.7c32.1,0.7,48,0,57.3,1.2
			c1.2,0.2,9.4-7.6,9.4-10.8c0-4.3-8.1-8.9-13.6-10.2c-3.5-0.7-14.2-1-27.7-1c-0.9-3.7-2.3-7.2-4.2-10.5
			c-0.3-9.1-19.9-34.4-47.2-34.4h-0.2c-11.1,0-23.5,4.3-31.6,12.4C29.9,255.3,27.2,282,27.2,295.4z M98.6,269.8
			c0.1,0.2,0.2,0.4,0.4,0.6l0.8,4.7H58.6c-1.2,0-2.1-0.9-2.2-2.1c0-4.3,1.7-10.7,4.9-13.9c2.7-2.9,10.1-6.9,15.8-6.9
			C85.8,252.2,94.7,257.5,98.6,269.8z"/>
		<path class="st0" d="M11.6,189.1c-6.2-0.2-8.9,11.9-8.9,15.6c0,7.2,11.1,14.8,13.6,14.8c25.2-0.3,46-0.5,74.4-1
			c22.3-0.5,49.2-0.5,63.5-0.5c6.7,0,9.1-13.8,9.1-21.8c0-1.7-4.9-8.4-12.4-8.4h-0.2c-12.1,0-31.4,0.5-52.4,0.5
			C62.3,188.4,26.9,189.9,11.6,189.1z"/>
		<path class="st0" d="M142.1,87.3c-5.9,5.9-18.5,16.1-34.1,26c-12.1,7.7-24.7,14.5-37.8,20.2c-3,1.5-5,11.1-3.7,17.5
			c2,10.9,12.1,19.5,14.6,16.6c6.9-8.7,13.6-11.9,17.1-11.9c7.4,0,29.9,27.4,44.7,27.4c5.9,0,17.8-7.4,17.8-15.1
			c0-18.8-8.4-41.5-8.4-46.2c0-2,3.2-5.2,10.1-10.4c3.2-2.5,1.5-9.4-0.5-12.1C156.5,91.8,144.6,84.8,142.1,87.3z M133.2,132.5
			c1.2,0,4.2,8.9,4.2,16.8c-0.3,1.5-1.7,2.6-3.2,2.7c-4.2,0-13.8-8.9-13.8-10.9c0-1.2,10.9-8.7,12.6-8.7H133.2z"/>
		<path class="st0" d="M74.4,12.1c-0.5,2-0.3,13.6,1.5,14.3c26,11.1,48.9,21,48.9,23c0,2.2-22.7,10.6-47.9,21.8
			c-1.7,0.7-4.9,9.2-4.9,12.4c0,7.2,8.7,17.1,14.8,17.1c3.9,0,19-8.9,40.8-20.5c11.4-5.9,23.5-12.8,28.2-12.8
			c3.7,0,25,12.1,48.7,29.4c3.5,2.7,17.6-3.2,17.6-8.2c0-6.4-3-16.1-8.9-20.3c-12.1-8.7-33.9-19.5-57.8-32.4
			C127.8,21,103.3,5.2,90,0.5C83.8-1.7,76.4,3.7,74.4,12.1z"/>
	</g>
</g>
</svg>
