<?xml version="1.0" encoding="utf-8"?>
<!-- Generator: Adobe Illustrator 25.4.1, SVG Export Plug-In . SVG Version: 6.00 Build 0)  -->
<svg version="1.1" id="Layer_1" xmlns="http://www.w3.org/2000/svg" xmlns:xlink="http://www.w3.org/1999/xlink" x="0px" y="0px"
	 viewBox="0 0 681.6 1740.2" style="enable-background:new 0 0 681.6 1740.2;" xml:space="preserve">
<style type="text/css">
	.st0{fill:#FFFFFF;}
</style>
<path class="st0" d="M405.3,1656.3c-28.7-11.9-48.6-31.5-59.5-58.3c-9.5,11.9-15.4,24.1-17.7,36.4v0.1c-0.6,3.3-1,6.8-1,10.6
	c0,3.8-1,7.5-2.6,10.8c1.9,11.7,6.9,22.8,14.2,32.9c5,6.9,10.9,13.1,17.4,18.8c22,18.8,51.3,30,81,32.2c29.5,2.2,59.3-4.5,82.4-21.3
	c6.1-4.4,11.8-9.6,16.9-15.6c0.4-0.4,0.8-1,1.3-1.7c2.7-3.9,4.9-9.1,5.4-14.2c0.4-3.7-0.2-7-2.4-8.9c-0.1-0.1-0.3-0.2-0.6-0.4
	c-8.4-5.9-27.6-7.4-49.9-9c-22.7-1.7-48.3-3.7-71.8-10.8C414,1658.6,409.5,1658,405.3,1656.3z"/>
<path class="st0" d="M557.3,1489c-2.8,2.5-5.6,5-8.4,7.5c-52.4,45.1-118.9,75.3-182.8,83.3c8.3,28.4,26.8,44.2,48.9,53.4
	c29.6-7.4,58.3-18.6,85.7-33.9c28.5-16,55.7-36.5,81.1-62.1c10.7-10.9,20.4-22.4,29-34.5l-31.3-0.5
	C569.8,1502,561.6,1496.7,557.3,1489z"/>
<path class="st0" d="M370.6,1509.2c-2.4,10.6-3.6,21.6-3.4,32.8c0,4,0.3,8.2,0.6,12.3c46.6-6.7,98.1-26.9,143.7-60.1l-62.6-1
	c-2.1,0-4.2-0.3-6.2-0.9l-27.5-7.3c-13.7,6.3-27.7,11.4-42.2,15.6C372,1503.4,371.2,1506.3,370.6,1509.2z"/>
<path class="st0" d="M302.1,1644.8c0.1-4.9,0.5-9.9,1.4-14.9c3.1-16.8,11.1-33.9,25.4-50.8c-5.4-2.6-10.5-5.3-15.3-8.2
	c-12.7-7.5-23-15.5-31.3-24.6c-3.2-3.4-6.1-7-8.6-10.6c-2.6-3.6-4.9-7.4-6.9-11.3c0,0,0-0.1-0.1-0.1c-1.5-2.9-2.8-5.9-3.9-8.9
	c-8.9,0.2-18,0.2-27.3,0.2c-13.8-0.1-28.5-0.6-44-1.3c-5.8-0.2-12.9-0.8-21-1.5c-44-3.6-117.9-9.8-125.1,27.2
	c-4.1,20.9,15.9,38.6,41.1,52.3c27.4,15,60.8,25,78.8,30.2c24.5,7.1,49.3,12.7,74.2,16.5C260.5,1642.2,281.4,1644.1,302.1,1644.8z"
	/>
<path class="st0" d="M165,236.1c15.4-1.3,30.1-2.3,43.9-3c9.4-0.4,18.5-0.8,27.3-0.9c1-3.1,2.2-6.1,3.5-9.1c0,0,0-0.1,0.1-0.1
	c1.9-4,4.1-7.9,6.5-11.7c2.4-3.6,5.1-7.3,8.2-10.9c8-9.3,17.9-17.8,30.3-25.8c3.7-2.4,7.7-4.7,11.8-7
	c-14.4-15.8-23.7-32.8-27.7-50.6c-0.1-0.6-0.2-1-0.3-1.5c-0.9-4.6-1.5-9.2-1.8-13.8c-19.5,1.5-39.1,4.2-58.7,8.1
	c-24.7,4.8-49.3,11.4-73.5,19.4c-17.8,5.9-50.7,17.3-77.5,33.3c-24.6,14.7-43.9,33.2-39,53.9c8.7,36.6,82.2,27.6,126.1,22.2
	C152.1,237.5,159.2,236.6,165,236.1z"/>
<path class="st0" d="M341.2,159.9c-0.4,1.4-0.9,2.7-1.6,4c51.3,4.9,104.7,23.8,151.5,53.3c55.8-9.2,58.6-9.1,60.6-9.1
	c8.7,0.1,15.6,4,22,10.2c-6.2-7.1-12.8-14-19.9-20.6c-26.3-24.6-54.3-44-83.5-58.9c-26.5-13.5-54.1-23.1-82.3-29.4
	C365.2,118.6,348.9,133.4,341.2,159.9z"/>
<path class="st0" d="M339.5,189.1c-0.7,12.6,0.2,25,2.7,36.8c0.6,2.7,1.2,5.4,1.9,8.1c0.8,2.8,1.6,5.6,2.6,8.4c2-0.9,4-1.5,6.2-1.9
	c41.1-7,73.5-12.5,99.2-16.8C414.6,204.4,375.5,192.8,339.5,189.1z"/>
<path class="st0" d="M321.8,36.4c-6.3,5.9-11.9,12.3-16.6,19.4c-11.2,16.7-16.2,36-11.9,55.6c3.1,13.7,10.7,27.7,23.9,41.6
	c19.9-69.1,87.6-77,140.2-83.1c22.2-2.5,41.3-4.8,49.5-11c0.3-0.2,0.5-0.4,0.5-0.4c2.1-1.9,2.6-5.3,2-9c-0.7-5-3.1-10.2-6-14
	c-0.5-0.7-1-1.2-1.4-1.6c-5.3-5.7-11.2-10.7-17.5-14.9C460.7,3.1,430.7-2.4,401.3,1C371.8,4.4,343,16.7,321.8,36.4z"/>
<path class="st0" d="M461.7,1378.4l-22.1-0.4c1.8,4.4,2.8,9.2,2.9,14c0,0.1,0,0.2,0,0.3c0.2,20.3-16.2,35.1-30.6,48.1l-0.2,0.2
	c-5.2,4.7-10.2,9.2-14,13.6l49,13.1l79.9,1.3l1.6-101.7l50.9-15.5l-2,124.9l95.5,1.5l-21.3-131.1l-58.2-84.9l-102.6,19.3
	L461.7,1378.4z"/>
<path class="st0" d="M370.3,1249v73.1l0.7,36.2c1.5-0.5,3-1,4.5-1.4c0.1,0,0.1,0,0.2-0.1c11.7-3.4,20.8-4.6,28.5-3.8
	c4.2,0.4,8.2,1.4,11.9,2.7c0.2,0.1,0.4,0.1,0.6,0.2c3.4,1.4,6.5,3,9.2,5l8.5-108.5L370.3,1249z"/>
<polygon class="st0" points="393.3,1154.8 370.9,1213 370.7,1221.8 664.9,1253.4 680.4,1022.9 612.5,993.7 598,1165.9 "/>
<path class="st0" d="M372.9,1087l173.2,27.6l35.1,0.6l8.7-56.3l-77.9-11l-6.6-74.3l176.2-32.3l-20.1-86.2l-293.9,73.3L372.9,1087z
	 M482.8,1049.3l-58.3-12.7l1.2-72.2l41.2-11L482.8,1049.3z"/>
<path class="st0" d="M471,746.2l-107.3,62.6l-0.9,53.2c0,0,282.1-33.5,291.8-29.5l-3.5-59.5l-164.4,28.6l71.5-43.9l-49.4-55.2
	L644,728.6l8.9-70.6l-286.8-4.6l-1.1,70.7L471,746.2z"/>
<polygon class="st0" points="368.2,532.2 490.8,557.6 367.3,586.9 366.7,627.8 653.5,632.5 654.3,583.7 510.8,589.2 578.8,546.1 
	518.8,511.2 655.4,513.5 656.2,462.2 369.1,481.5 "/>
<path class="st0" d="M420,342.3c0.4,2,0.6,4,0.6,5.9c0.1,5.9-1,11.7-3.5,17.1c-2.4,5.2-5.9,9.9-10.5,13.7c-3,2.5-6.5,4.6-10.3,6.3
	c-0.2,0.1-0.4,0.2-0.6,0.2c-3.6,1.5-7.6,2.6-11.8,3.2c-7.7,1.1-16.8,0.3-28.7-2.7c-0.1,0-0.1,0-0.2,0c-2.6-0.7-5.2-1.4-7.8-2.2
	l-2.4,11.4l24.3,62.4l286.8-14.4l0.5-31.2l-123.6-11.8l-18.9-35.4l143.4-9.4l0.9-56.6L420,342.3z M492.9,415.7l-82.4,8.1l-9.8-21.6
	l28.5-25.3l54.4-21.3L492.9,415.7z"/>
<path class="st0" d="M357.2,265.5c3.9,6.8,8.5,13.4,13.7,19.6c4.3,5.1,10.5,10.3,17,15.8l0.3,0.2c3.5,2.9,7,5.9,10.4,8.9l166-13.5
	l10.3-31.2c0,0-20.5-31.2-26.1-31.3C543.5,233.8,379.6,261.6,357.2,265.5z"/>
<polygon class="st0" points="594.5,265.6 600,276.2 639.1,285.9 659,266.6 639.9,235.4 609,234.9 "/>
<path class="st0" d="M289,1513c1.4,2.8,3.1,5.5,5.1,8.3c1.9,2.7,4.1,5.4,6.6,8.1c7.3,7.8,16.1,14.4,25.7,20c5.4,3.2,10.9,6,16.6,8.6
	c-1.8-18.3-0.9-36.6,3.2-54.4c5-21.8,14.6-42.6,29.3-61.7c5.5-7.2,12.6-13.6,19.7-20c11.3-10.3,22.6-20.4,22.4-29.4
	c0-2.2-0.6-4.3-1.5-6.1c-0.9-1.8-2.3-3.4-4-4.7c-1.3-1-2.9-1.8-4.5-2.5c-1.7-0.6-3.7-1.1-5.8-1.3c-4.8-0.5-11.7,0.8-18.9,2.9
	c-10.9,3.3-22.4,8.4-29.8,12.1c-17,8.6-32.9,20-45.3,34c-10.9,12.2-19.1,26.4-23.1,42.4c-1.9,7.5-2.6,15.1-1.8,22.7
	C283.5,1499.1,285.6,1506.1,289,1513z"/>
<path class="st0" d="M328.5,349.4c7.5,3.4,19.2,8.1,30.2,10.9c7.3,1.8,14.2,2.9,19,2.2c2.1-0.3,4.1-0.8,5.8-1.5
	c1.6-0.7,3.1-1.6,4.4-2.7c1.7-1.4,3-3,3.8-4.9s1.3-4,1.3-6.2c-0.2-9-11.8-18.7-23.5-28.5c-7.3-6.1-14.7-12.3-20.5-19.2
	c-15.5-18.5-25.9-39-31.7-60.5c-4.8-17.6-6.5-35.8-5.4-54.2c-5.5,2.8-11,5.9-16.2,9.3c-9.3,6-17.9,12.9-24.9,21
	c-2.3,2.7-4.4,5.5-6.3,8.3c-1.9,2.9-3.4,5.7-4.8,8.5c-3.2,7-5,14.1-5.4,21.2c-0.5,7.6,0.5,15.2,2.7,22.6
	c4.6,15.8,13.4,29.7,24.8,41.4C294.8,330.7,311.1,341.4,328.5,349.4z"/>
<polygon class="st0" points="188.2,994.3 327.6,950.1 327.6,901.8 17.4,864.9 17.4,909.1 152.6,953.1 17.4,987.3 17.5,1045.7 
	327.7,1068.3 314.9,1021.3 "/>
<polygon class="st0" points="313.5,575.6 313.5,500.2 16.1,536 16.1,578.7 180.5,564.3 16.1,638.4 16.2,688.2 313.6,698 
	313.6,663.9 164.8,615.6 "/>
<path class="st0" d="M323.3,1151.9l-130.9,12.9l-5.7-37l123.8,2.8l2.8-48.4l-311.7,0.2v59.8l32,86.9c0,0,292.5-30.2,296.8-31.6
	L323.3,1151.9z M50,1140.7v-19.9l91.1,15.6l9.3,49.8H78.5L50,1140.7z"/>
<path class="st0" d="M298.9,816.1l-112.4-4.2v-42.7l112.4-11.4v-48.4L1.5,743.7v86.8l310.3,43.9L298.9,816.1z M71.2,810.5L49.8,792
	l28.4-24.2l71.9-4.3l6.4,55.5L71.2,810.5z"/>
<path class="st0" d="M303.5,457.2v-21.8l-112.4-2.8v-29.9l113.9-1.5c0,0,5.3-39,8.1-44.7s-289-4.9-289-4.9L0,451.2l31,63l272.6-41.9
	L303.5,457.2z M48.4,410.3L80.6,385l64.7,8.4l7.9,66.3l-83.5,7L48.4,410.3z"/>
<path class="st0" d="M347.6,1391l-22.8-85.4l-48.4-83.9l-62.6,15.7l-32.8,41.2l-64.1-37L60,1253.1l-34.1,78.3l21.4,76.8L347.6,1391z
	 M233.7,1260.1l44.8,19.9l20.7,76.8l-54.1,1.5l-25.6-46.2L233.7,1260.1z M78.6,1307.2l27-27.1l54.1,25.6l12.8,58.3H97.1L78.6,1307.2
	z"/>
</svg>
