<?xml version="1.0" encoding="utf-8"?>
<!-- Generator: Adobe Illustrator 23.0.1, SVG Export Plug-In . SVG Version: 6.00 Build 0)  -->
<svg version="1.1" id="Layer_1" xmlns="http://www.w3.org/2000/svg" xmlns:xlink="http://www.w3.org/1999/xlink" x="0px" y="0px"
	 viewBox="0 0 214.5 1817.3" style="enable-background:new 0 0 214.5 1817.3;" xml:space="preserve">
<style type="text/css">
	.st0{fill:#FFFFFF;}
</style>
<title>Ultimate_White</title>
<g>
	<g id="Layer_1-2">
		<path class="st0" d="M26.3,1817.3H0.1l0-124.2h26.4c-0.1,1.4-0.2,2.9-0.2,4.5s-0.1,3.8-0.1,6.5c0,8.9,1.6,14.9,4.7,17.9
			c3.1,3,11.8,4.5,26,4.5h83.2c15.8,0,27-2.9,33.6-8.7c6.6-5.8,9.8-15.5,9.8-29c0-16.2-3.1-27.7-9.4-34.7
			c-6.2-6.9-16.7-10.4-31.5-10.4H58.4c-14.1,0-23,1.5-26.7,4.5c-3.7,3-5.5,9.2-5.5,18.6c0,2.2,0,4,0.1,5.2c0.1,1.2,0.1,2.3,0.2,3.3
			H0.1l0-97.7h26.4c-0.1,6.4,0.3,12.7,1.1,19c0.8,4.4,2,7.3,3.9,8.8c1,1,3.1,1.6,6.2,2s10.1,0.6,21,0.6h87.9
			c22.2,0,39.1,7.8,50.6,23.5c11.6,15.7,17.3,38.5,17.3,68.6c0,27.5-5.7,48.8-17.2,64.1s-27.5,22.9-48.2,22.9H57.7
			c-12.9,0-21.4,1.5-25.5,4.4c-4.1,2.9-6.1,8.4-6.1,16.5c0,2.3,0,4.2,0.1,5.6S26.3,1816.1,26.3,1817.3z"/>
		<path class="st0" d="M0,1567.8l0-120.2H27v12.9c0,8.2,1,13.5,3.1,15.7c2,2.3,7,3.4,14.7,3.4h133.9v-16.3c0-15.7-0.7-26.5-2.2-32.5
			c-1.2-5.5-3.9-10.6-7.6-14.7c-4-4.3-9.6-7.7-16.8-10s-17.3-4-30.3-5V1374h83.9v193.8h-26.9v-11.5c0-8-1-13.1-3-15.4
			s-6.9-3.4-14.8-3.4H44.8c-8,0-13,1.1-14.9,3.4c-1.9,2.3-2.9,7.4-2.9,15.4v11.5H0z"/>
		<path class="st0" d="M210,1123.2h-27.5V1110c0-8.3-1-13.7-3.1-16c-2-2.3-7.1-3.5-15.1-3.5H45.7c-8.1,0-13.2,1.2-15.2,3.5
			c-2,2.3-3,7.7-3,16v13.1H0l0-126.5h27.5v13.1c0,8.4,1,13.8,3.1,16.2c2.1,2.4,7.1,3.6,15,3.6h118.6c7.9,0,13-1.2,15.1-3.6
			c2.1-2.4,3.1-7.8,3.1-16.2v-13.1H210V1123.2z"/>
		<path class="st0" d="M164.3,918c7.9,0,13-1.2,15.1-3.6c2.1-2.4,3.1-8,3.1-16.7v-6.2H210v94.1h-27.5v-10.7c0-8.8-1-14.3-3.1-16.7
			c-2.1-2.4-7.1-3.6-15.1-3.6H45.7c-7.9,0-12.9,1.2-15,3.6s-3.1,8-3.2,16.7v10.7H0l0-115.4l129.3-38.3L0,791.5L0,677h27.5v11.2
			c0,8.7,1,14.2,3.1,16.7s7.1,3.7,15,3.7h118.6c7.9,0,13-1.2,15.1-3.7s3.1-8,3.1-16.7V677H210v115.4h-27.5v-6.6c0-8.5-1-14-3.1-16.4
			c-2-2.4-7.1-3.6-15.1-3.6H33.2L210,820.6v44.2L32.9,918H164.3z"/>
		<path class="st0" d="M210,683.7h-27.5v-8c0-7.2-1.1-12.4-3.3-15.8s-7.9-6.6-17-9.8L0,593.3l0-65.8l163.1-54.3
			c7.9-2.8,13.2-5.7,15.7-8.8c2.5-3,3.7-7.7,3.8-13.9v-11.3H210v121.9h-27.5v-9.3c0-7.9-0.5-13.3-1.6-16c-0.8-2.5-3.2-4.2-5.9-4.1
			c-1.5,0.3-3,0.6-4.4,1.1c-1,0.3-1.8,0.5-2.3,0.6l-25.8,8.5v63.5l24.1,8.4c1.4,0.4,2.9,0.8,4.4,1.1c1.3,0.3,2.7,0.5,4,0.5
			c2.9,0,4.8-1.1,5.9-3.4s1.6-7.1,1.6-14.5v-10.8H210V683.7z M115.1,551.2l-66.3,22.2l66.3,22.7V551.2z"/>
		<path class="st0" d="M0,228.6h81v29.9c-18,0-31.3,3.6-40,10.7s-13,18.1-12.9,33v3.4h133.4c7.2,0,12-0.4,14.3-1.1
			c2.1-0.5,3.7-2.1,4.4-4.2c1.1-3,1.8-6,2-9.2c0.4-3.9,0.7-10.7,0.9-20.4H210v131.1h-26.9c0-6.9-0.2-12.8-0.7-17.8
			c-0.3-4.2-1.1-8.3-2.2-12.3c-0.7-2-2.3-3.5-4.4-4c-2.3-0.7-7-1.1-14-1.1H28.1v3.2c0,15,4.3,26.1,13,33.4
			c8.7,7.2,22,10.9,39.9,10.8v29.6H0L0,228.6z"/>
		<path class="st0" d="M0,1138.7h81v29.9c-18,0-31.3,3.6-40,10.7c-8.7,7.1-13,18.2-12.9,33.1v3.4l133.4,0c7.2,0,12-0.4,14.3-1.1
			c2.1-0.5,3.7-2.1,4.4-4.2c1.1-3,1.8-6,2-9.2c0.4-3.9,0.7-10.7,0.9-20.4H210V1312h-26.9c0-6.9-0.2-12.8-0.7-17.8
			c-0.3-4.2-1.1-8.3-2.2-12.3c-0.7-2-2.3-3.5-4.4-4c-2.3-0.8-7-1.1-14-1.1l-133.7,0v3.2c0,15,4.3,26.2,13,33.4s22,10.9,39.9,10.8
			v29.6H0L0,1138.7z"/>
		<path class="st0" d="M210,216.2h-27.5v-12.1c0-8.5-1-13.9-3.1-16.3c-2-2.4-7.1-3.6-15.1-3.6H45.7c-8.1,0-13.2,1.2-15.2,3.6
			c-2,2.4-3,7.8-3,16.3v12.1H0L0,0l80.1,0v28.7c-12.2,1.8-21.5,3.9-27.7,6.4c-6.3,2.4-11.2,5.7-14.8,9.7c-3.9,4.5-6.6,9.8-7.8,15.6
			c-1.5,6.4-2.3,17.8-2.3,34.2v28.3h59.8v-5.4c0-12.1-2.2-20.2-6.6-24.3s-13.2-6.1-26.6-6.1V59.7h95.8l-0.2,27.4
			c-14.6,0.3-24,2.3-28.4,6c-4.4,3.7-6.6,11.8-6.6,24.4v5.4h67.7V93.6c0-24-4-40.2-11.9-48.6c-7.9-8.4-23.7-13.9-47.2-16.3V0L210,0
			V216.2z"/>
	</g>
</g>
</svg>
