<?xml version="1.0" encoding="utf-8"?>
<!-- Generator: Adobe Illustrator 23.0.1, SVG Export Plug-In . SVG Version: 6.00 Build 0)  -->
<svg version="1.1" id="Layer_1" xmlns="http://www.w3.org/2000/svg" xmlns:xlink="http://www.w3.org/1999/xlink" x="0px" y="0px"
	 viewBox="0 0 213 837.5" style="enable-background:new 0 0 213 837.5;" xml:space="preserve">
<style type="text/css">
	.st0{fill:#FFFFFF;}
</style>
<title>Water_White</title>
<g>
	<g id="Layer_1-2">
		<path class="st0" d="M59,594.2c3,12.6,13.8,17.9,23.9,22.1c41.7,17,83.7,33.1,125.6,49.5c4.3,1.7,2.1,5.3,2.6,8.1
			c0.4,2.2-1.3,2.8-3,3.4c-32.3,10.7-64.7,21.4-97,32.2c-0.9,0.3-1.7,0.7-3.6,1.5c11.4,3.8,21.8,7.1,32.1,10.6
			c22.8,7.6,45.6,15.1,68.3,22.7c1.9,0.6,3.5,1.5,3.2,3.8c-0.4,2.8,1.6,6.2-2.8,7.9c-45.9,18.4-91.7,37-137.5,55.6
			c-8.3,3.4-12.1,10-12,19.1c0.2,3.6-2.6,6.7-6.1,6.9c0,0,0,0-0.1,0c-3.3,0-6.2-3-6.2-6.9c0-25.4,0.2-50.7,0.1-76.1
			c0-4.3,2.2-7.5,6-7.6c4-0.1,6.2,3.2,6.3,7.5c0.3,12,7.4,17.5,18.8,14.3c23.9-6.7,46-18.1,69.3-26.5c0.6-0.2,1.1-0.9,2.2-1.8
			c-2.9-0.9-5.3-1.6-7.6-2.3c-31-10.2-62-20.3-93-30.5c-2.3-0.8-4.5-1.6-3.9-4.7c0.7-3.5-2.1-7.8,3.9-9.8
			c32.6-10.5,65.1-21.4,97.6-32.2c1-0.5,2-1.1,2.9-1.8c-3.7-1.4-6.6-2.5-9.4-3.5c-21.3-7.4-41.6-17.7-63.7-22.9
			c-7.4-1.8-14.9,2.7-16.8,10.1c-0.2,0.8-0.3,1.6-0.4,2.4c-0.4,4.1-2.6,7.6-6.4,7.2c-4-0.4-6.2-3.8-6.1-8.6
			c0.3-16.3,0.2-32.6,0.2-49c0-4.2,2.4-7,5.9-7.3S58.2,590.6,59,594.2z"/>
		<path class="st0" d="M182.5,423.7c-2.1,2.3-0.1,4,2.1,4.9c6.9,2.9,9.6,8.2,8,15.2c-1.4,6.5-7.3,7-12.4,7.1
			c-30.9,0.5-61.9,0.4-92.8,0.9c-13.8,0.3-25.7,5.2-33.6,17.3c-13.5,20.7-12.8,64.8,1.2,85.3c6.3,9.3,14.1,15.4,25.8,12.3
			c9-2.3,13.7-8.8,13.1-18.2c-0.6-10-7.2-14.6-16.3-16.7c-6.7-1.5-14.2-1.9-17.2-9.6c-4.8-12.4,0-29.2,10.3-32.2
			c21.3-6.3,36.8-6.1,45.5,11c6.5,13,6.5,27.8,12,41.2c9.5,23.1,24.5,34.9,43.7,33.2c20.3-1.8,34.4-14.8,37.8-36.6
			c3-19.5,2.1-38.7-13.8-54.9c0.9-0.5,1.8-1,2.6-1.6c15.3-13.1,18.7-59-8.7-65.6C183.1,415.2,184.7,421.3,182.5,423.7z M187,495.8
			c9,6.6,11.5,25.8,5.3,35c-5.3,7.9-24,10.6-34.7,4.1c-17.6-10.8-21.6-30.9-32-48.5C147.3,488.5,168.7,482.5,187,495.8z"/>
		<path class="st0" d="M162.4,147.3c-1.1,2.8-1.8,6.6,3,8.4c17.7,6.7,26.4,19.9,27.1,38.5c0.9,21-2.8,40.2-23.7,50.9
			c-19,9.7-39.6,8.4-60,7.6c-2.4-0.1-3.2-1.1-3.2-3.5c0.1-16.3,0-32.5,0-48.8h0.3c0-16.4,0.1-32.8-0.1-49.2c-0.1-4-2.7-6.8-6.6-6.8
			c-8-0.1-15.8,1.8-22.9,5.7c-28.5,15.6-41.3,58.4-27.7,92c17,41.9,72.4,61.7,117.5,41.9c32.9-14.4,49.2-45.7,45-86.3
			c-3-29.3-16.6-47.6-40.5-54.7C166.7,141.8,163.7,144.1,162.4,147.3z M63.8,235c-7.4-11.2-7.4-33.3,0-42.9
			c6.7-8.7,16.4-10.4,26.9-11.1v69.7C79.8,248.1,70.1,244.5,63.8,235z"/>
		<path class="st0" d="M81.1,8.5c4.7,8.9,2.1,16.2-6.2,21.5c-6.4,4.1-13.4,8.1-10.9,17.1c3,10.9,11,18.2,22,19.2
			c31.7,3,63.6,2.4,95.3,0.2c7.8-0.5,11.2-5.6,11.3-13.1c0.1-5.2,2.2-9.1,7.6-8.9c5.1,0.2,6.9,4.1,6.9,9.1
			c-0.1,21.4,0,42.8-0.1,64.2c0,4.5-2.7,7.4-7.1,7.5s-7.1-2.9-7.2-7.4c-0.4-12.2-4.4-16-24-16.5c-31.1-0.7-62.2-0.2-93.3-0.1
			c-15.9,0.1-13.3,12.4-14.4,22.1c-0.2,2.1-0.5,4.2-3,3.4c-3.3-1.1-8.7,3.6-9.8-3.3c-2-13.1-3.3-26.4-5.7-39.4
			c-1.8-9.5-0.9-15.8,11-14.7c1.6,0.2,3.2-0.3,5.9-0.7c-8.6-8.7-13.8-20.3-14.5-32.5c-1-13.2-0.9-26.4,12.7-34.1
			C65.6-2.4,76.8,0.5,81.1,8.5z"/>
		<path class="st0" d="M193.6,301.3c17.9,10.4,20.4,27.9,19.1,45.8c-2.2,31.2-17,40.5-55.6,38.6c-31-1.6-62.1-1.9-93.1-2.8
			c-0.9,0.1-1.7,0.2-2.5,0.3c0,4.5-0.1,8.7,0,13c0.2,4.7-2.3,7.4-6.5,8.3c-4.7,1-7.5-0.1-8.4-6.1c-3.4-20.9-15.3-31-41.7-36
			c-4.8-0.9-5.3-3.4-4.6-7c0.6-3.4,2.6-6,6.4-6c12-0.1,24.1-0.1,36.1,0c2.7,0,3.8-0.8,3.8-3.5c-0.1-10.4-0.2-20.8-0.2-31.3
			c0-4.5,2.4-7.3,6.8-7.6c5.1-0.3,8.1,2.2,8.2,7.4c0.1,10.5,0,21,0,31.5c0,1.7,0,3.5,2.3,3.4c37.9-1.2,75.8,1.5,113.7-1.7
			c7.3-0.6,15.6-1.6,17.6-10.6c2.2-10.2-0.3-19.1-9.7-25.3c-3.3-2.1-4.3-6.3-2.2-9.2C185.6,299.3,190,299.2,193.6,301.3z"/>
	</g>
</g>
</svg>
