<?xml version="1.0" encoding="utf-8"?>
<!-- Generator: Adobe Illustrator 23.0.1, SVG Export Plug-In . SVG Version: 6.00 Build 0)  -->
<svg version="1.1" id="Layer_1" xmlns="http://www.w3.org/2000/svg" xmlns:xlink="http://www.w3.org/1999/xlink" x="0px" y="0px"
	 viewBox="0 0 222 780.5" style="enable-background:new 0 0 222 780.5;" xml:space="preserve">
<style type="text/css">
	.st0{fill:#FFFFFF;}
</style>
<title>Lives_White</title>
<g>
	<g id="Layer_1-2">
		<path class="st0" d="M180.5,643.5l35.6,1.3v135.7c-29.5-1.3-66.6-2-111.2-2c-40.9,0-74.7,0.7-101.4,2v-45.9
			c24.7,1.3,58.5,2,101.4,2c32.8,0,58.8,0.7,78.1,2.1C182.9,708.7,182.1,676.9,180.5,643.5z"/>
		<path class="st0" d="M216.1,567.5v46.2c-33.7-1.4-70.8-2.1-111.2-2.1c-39.7,0-73.6,0.7-101.4,2.1v-46.2
			c27.4,1.4,61.3,2.1,101.4,2.1C145.9,569.6,183,568.9,216.1,567.5z"/>
		<path class="st0" d="M3.4,347.2c8.9,0,44.4,12.4,106.5,37.3s97.4,37.3,106.2,37.3v44.9c-8.4,0-43.9,11.5-106.7,34.4
			s-98.1,34.4-106,34.4v-51.8c8,0,36.2-7.3,84.6-21.9S164,440,170.5,440v-2.8c-6.3,0-32.8-7.3-79.5-22c-46.7-14.7-75.9-22-87.5-22
			L3.4,347.2z"/>
		<path class="st0" d="M180.1,179.4l35.9,1.3v139c-32.9-1.4-70-2.2-111.2-2.2c-39.6,0-73.4,0.7-101.4,2.1V187l35.8,1.8
			c-1.7,32.7-2.6,62.3-2.6,88.9c15.1-1.1,33-1.6,53.6-1.6c0-22.8-0.6-47.1-1.8-73h34.1c-1.1,25.5-1.6,49.8-1.6,73
			c22.1,0,42.8-0.4,62.1-1.3C182.9,244.9,182,213.1,180.1,179.4z"/>
		<path class="st0" d="M158.1,0C200.7,0,222,30.6,222,91.8c0.2,19.6-2.4,39.1-7.5,58l-36.4-8c6.1-17.6,9.1-34.3,9.1-50
			c0-17.4-1.7-29.9-5.1-37.6c-3.4-7.6-9-11.4-17-11.4c-8.3,0-15.2,3.6-20.9,10.8c-5,6.2-11.5,18.8-19.6,37.7
			c-7.4,17.2-15.5,30-24.2,38.4c-11,10.5-24.5,15.8-40.7,15.8c-18.7,0-33.4-6.9-43.9-20.8C5.3,110.8,0,90.8,0,64.8
			c0-21.3,1.8-39.2,5.4-53.7l36.3,6c-5.4,15.3-8.1,31.4-8,47.7c0,25.7,6.9,38.5,20.6,38.5c7.3,0,13.3-3,17.8-9
			c3.9-5.2,9.4-16.6,16.5-34.1c7.5-18.6,15.8-32.5,24.8-41.7C125.4,6.2,140.4,0,158.1,0z"/>
	</g>
</g>
</svg>
