<?xml version="1.0" encoding="utf-8"?>
<!-- Generator: Adobe Illustrator 25.0.1, SVG Export Plug-In . SVG Version: 6.00 Build 0)  -->
<svg version="1.1" id="Layer_1" xmlns="http://www.w3.org/2000/svg" xmlns:xlink="http://www.w3.org/1999/xlink" x="0px" y="0px"
	 viewBox="0 0 1000 1000" style="enable-background:new 0 0 1000 1000;" xml:space="preserve">
<style type="text/css">
	.st0{fill:#FFFFFF;}
</style>
<g>
	<path d="M500,47c61.2,0,120.5,12,176.3,35.6c53.9,22.8,102.4,55.5,144,97.1c41.6,41.6,74.3,90.1,97.1,144
		C941,379.5,953,438.8,953,500s-12,120.5-35.6,176.3c-22.8,53.9-55.5,102.4-97.1,144c-41.6,41.6-90.1,74.3-144,97.1
		C620.5,941,561.2,953,500,953s-120.5-12-176.3-35.6c-53.9-22.8-102.4-55.5-144-97.1c-41.6-41.6-74.3-90.1-97.1-144
		C59,620.5,47,561.2,47,500s12-120.5,35.6-176.3c22.8-53.9,55.5-102.4,97.1-144c41.6-41.6,90.1-74.3,144-97.1
		C379.5,59,438.8,47,500,47 M500,0C223.9,0,0,223.9,0,500s223.9,500,500,500s500-223.9,500-500S776.1,0,500,0L500,0z"/>
</g>
<g id="Layer_2_1_">
	<g id="Layer_1-2">
		<path d="M933.7,679.7c-7.1,17.3-15.1,34.1-24,50.5c-46.3,38-92.6,76.1-138.9,114.1c-1.6,1.3-3.3,2.3-5.2,3.1
			c-31,12.8-61.7,25.7-93,38.4c-2.9,0.7-4.7,3.4-4.3,6.4c0,5.7-2.7,9.3-7,10.4c-4.3,1.1-8.5-1-11.4-6c-0.3-0.5-0.6-1-0.8-1.5
			c-0.7-2.2-2.3-2.6-4.4-2.8c-1.5,0-2.8-0.3-4.4-0.5c-4.7-0.6-9.3-1.9-13.7-3.7c-2.4-1.1-4.9-2.2-5.3-5.2s-2.6-4-5.4-4
			c-2.4-0.1-4.8,0.4-6.9,1.4c-1.8,0.9-3.9,0.9-5.7,0c-2.3-1-4.7-1.6-7.2-1.7c-2.6,0-5.2-1-7.1-2.8c-1.5-1.4-3.6-2.1-5.7-1.8
			c-3.9,0.3-7.6,1.3-11,3.2c-5.3,3.5-11.2,6-17.5,7.3c-7.2,0.9-14.2,2.7-21,5.3c-4.4,2-9.5,1.9-13.9-0.1c-2.7-1.5-6-1.7-8.8-0.4
			c-2.6,1.2-5.6,1.4-8.3,0.5c-2.1-0.6-4.4-0.3-6.2,0.9c-4.4,2.4-5.7,1.9-9.8-0.9c-3.5-2.4-7.1-5.5-11.9-4.7
			c-4.8,0.7-4.5,0.8-5.9-3.8c-0.9-2.8-1.3-6.6-5.2-7.3c-5.9-1.2-8.5-5.4-10.3-10.6c-1.5-4.6-2.6-5.2-7.5-4.5
			c-3.5,0.5-6.9,1.2-10.4,1.5c-3.5,0.3-4-1.2-3.5-4.2c0.5-2.9,1.8-5.6,3.8-7.9c1.7-1.8,2.7-4.2,2.8-6.7c0.1-2.7,1.5-5.1,3.8-6.4
			c4.7-3,7.5-8.2,7.5-13.7c0.2-3.1,1.6-5.9,3.8-8.1c3.5-3.5,5.7-8.1,10.1-11.8c-8.8,1.5-9.3,1.8-14.2,7.4c-1.8,2.5-4.4,4.3-7.4,5.1
			c-3.5,1-4,2.1-2.8,5.4c0.4,1.1,0.8,2.1,1.3,3.1c2.8,5,1.3,8.8-4,10.6c-11,3.8-22,7.8-33.2,10.9c-1.8,0.7-3.8,0.7-5.7,0
			c-1.6-0.7-2.4-1.9-1.4-3.5c1.3-2.7,2.3-5.7,2.8-8.7c1.5-5.3,3.8-10,10-11.4c1.3-0.4,2.5-1.2,3.2-2.4c1-1.3,1-3.1,0-4.4
			c-0.9-1.4-2.3-0.5-3.4-0.1c-4.9,1.6-15.5,13.2-16.6,18.4c-0.7,6.1-5.3,10.9-11.4,11.9c-5.5,0.8-10.9,2-16.2,3.6c-1,0.3-2,0.3-3,0
			c-5-2.1-9.6,0-14.5,0.9c-7.5,1.4-15.2-0.2-22.7-1.3c-1.4-0.2-2.7-1-4.2-1.3c-6.9-1.4-7.9-4-4.1-10.1c0.1-0.3,0.1-0.6,0-0.9
			c-1.3,0.1-2.6,0.8-3.5,1.8c-5.4,4.8-11.4,9.7-18.4,10.2c-7,0.5-14.2,1.8-21.2,2.1c-7.2,0.2-14.2,2.1-20.5,5.5
			c-4.8,2.7-9.4,5.7-14.5,7.8l-1.4,0.6c-2.2,0.9-4.7,1.9-6.8,0c-2-1.9-5-1.9-7.9-2c-9.1-0.1-18.1-1.5-26.7-4.3
			c-4.9-1.8-9.3-5.2-15-5c-0.6,0-1.3-0.8-1.8-1.4c-18-18.3-36-36.6-53.9-54.8c-1.1-0.9-1.3-2.6-0.4-3.8c0,0,0,0,0,0
			c2.1-3.2,3.9-6.6,5.3-10.2c0.6-2.8,2.7-5,5.5-5.7c0.4-0.1,0.8-0.3,1.2-0.5c1.4-0.8,2.4-2.2,2.5-3.9c0.2-1.3,0.5-2.7,0.9-3.9
			c2.6-6.9,3.7-14.2,7-21.2c1.6-4.2,4.6-7.7,8.5-9.9c3-1.4,5.4-3.9,6.9-6.8c1.6-2.5,0.9-5.9-1.6-7.5c-0.1-0.1-0.2-0.1-0.3-0.2
			c-2.1-0.9-3.1-3.4-2.2-5.5c0.1-0.3,0.3-0.5,0.4-0.8c1.3-2,0.8-4.7-1.2-6c-0.1-0.1-0.2-0.1-0.3-0.2c-2.4-1.9-4.4-4.3-5.7-7.1
			c-2.4-4.3-3.9-9.2-8-12.5c-2-1.5-2.5-4.3-1-6.4c0.1-0.2,0.3-0.4,0.5-0.5c3.2-4.2,2.8-7.4-0.8-11.1c-3.6-3.7-3.9-4.2,0-8
			c2.2-1.8,2.9-4.8,1.6-7.3c-1.3-3.6-3.2-7-5.7-9.9c-3.4-3.7-3-6.6,1-9.7c1.8-1.3,3.6-2.8,5.2-4.4c1.9-2.1,2.6-4.3,0.5-6.6
			c-1.3-1.4-1.4-3.5-0.3-5c1.1-1.9,2.6-3.4,4.5-4.5c4-2.5,4.2-3.2,2.3-7.7c-2.6-5.8-2.5-9.6,0.9-12.2c4.4-3.5,7.7-8.1,9.7-13.3
			c1.5-3.7,4.6-6.5,8.5-7.5c5-1.5,9.9-3.2,15-4.6c11-3.1,20.6-9.9,27.2-19.3c3.2-4.4,7.7-7.7,12.9-9.4c5.7-2,11.4-4.8,14.2-10.5
			c1.9-3.6,4.4-6.9,7.3-9.7c4.8-4.3,9-9.3,12.4-14.8c3.9-6.8,1.8-13-5.3-16c-2.3-0.7-4-2.7-4.6-5c-0.5-2.1-1.3-4.1-2.6-5.9
			c-2.7-3.7-3-8.6-0.6-12.5c3.2-5.3,5.4-11,8.2-16.4c3.8-7.3,5.1-15.6,3.7-23.7c-0.7-2.9,0.2-6,2.4-8c2.1-1.6,3.4-4,3.5-6.6
			c0.1-1.6,1.3-2.9,2.8-3.2c6.2-1.5,7.6-6.1,7.4-11.7c-0.2-8.5,1.5-16.2,7.9-22.3c1.5-1,2-3,1.2-4.6c-2.3-3.8-0.4-6.3,2.1-8.9
			c2.8-3.2,7-5.1,9.4-8.8c1.8-3.4,5.7-5.2,9.5-4.4c4.1,0.9,8.4-0.5,11.4-3.5c3.2-3,7-5.7,11.9-4.6c7.6,1.5,15.4,0.9,22.7-1.5
			c2.2-0.7,4.5-0.7,6.7,0c1.6,0.5,3.3,0.8,5,1.2c2.1,0.7,4.3-0.4,5-2.5c0,0,0,0,0,0c1-2.1,0.1-4.6-2-5.7c-5.1-3.3-11.7-3.5-17-0.6
			c-2.4,1.3-5.1,4-7.5,0.9c-1.8-2.4-5.7-3.1-6.1-6c-0.6-3.8-3-4.7-5.9-5.7c-4-1-7.8-2.5-11.2-4.7c-2.5-1.5-3.5-4.7-2.2-7.4
			c2-5.3,3.7-10.7,5.4-16.1c1.4-4.4,4.8-7.9,9.1-9.4c2.8-0.9,5.5-2.1,8-3.7c7.2-5.4,15.7-8.5,23-13.8c2.3-1.5,5-2.3,7.7-2.4
			c2.8-0.3,5.7-0.5,8.5-0.9c4.3-0.1,7.8-3.6,7.8-7.9c0.7-6.5-3.8-10.8-6.9-15.7c-0.2-0.2-0.4-0.2-0.6-0.2c-2.1,0.8-2.2-1-2.7-2.2
			c-1.3-3.4,0-5.8,4.7-7.6c9.2-3.5,18.1-7.8,28.4-6.4c3.8,0.3,7.6-0.5,10.9-2.3c2.2-0.7,3.7-3,3.4-5.3c-0.5-2.7-2.8-3-5-3.1
			c-1.8-0.1-3.6-0.1-5.4,0c-2.3,0.6-4.6-0.8-5.1-3c-0.1-0.4-0.1-0.7-0.1-1.1c-0.7-4.1-1.8-4.7-5.8-3.6c-2.8,0.7-5.4,1.8-8.1,2.5
			c-1.4,0.3-3.2,0.3-3.8-1.3c-0.8-2.2,1.5-2,2.6-2.8c1.1-0.8,3.7-0.7,3.5-2.6c-0.2-1.9-2.6-1.8-4.1-2.5c-0.3-0.1-0.7-0.1-1-0.2
			c-1-0.3-2.6,0-2.8-1.4c-0.2-1.4,1.6-1.6,2.7-2c1.5-0.6,3.8-1.9,2.8-3c-2-2.5-1.3-6.6-2.7-7.8c-4-3.4-3.7-6.8-3.8-11.4
			c0-3.8,0.8-5.7,3.9-6.6c3.3-1.2,6.3-3.1,9-5.4c2.8-2.3,5.2-4.8,3.8-9c-1.6-5-3.7-6.9-8.9-7.4c-2.8,0.1-5.7,0-8.5-0.5
			c-7.1-2.1-14.7-1.7-21.5,1.2c-4.7,1.8-7.5,0.2-10.2-4.7c-1.5-2.8-0.5-5.7,3.2-8.7c3.4-2.8,6.6-5.9,9.4-9.4c2.4-2.1,3-5.6,1.4-8.3
			c-1.1-2.1-2-4.3-2.8-6.5c-1.6-2.3-0.9-5.5,1.4-7c0.2-0.1,0.3-0.2,0.5-0.3c3.4-2.1,5.2-6,4.5-9.9c-0.4-4.3-3.7-6.5-7.4-8
			c-1.2-0.4-2.4-0.7-3.6-0.9c-1.2-0.3-2.5-0.7-2.8-2.1c-0.6-2.4-2-2-3.6-1.2c-2.5,1.4-5.4,1.8-8.2,1.2c-1.6-0.5-3.1-1.3-2.8-3.2
			c0.3-1.8,2-2.9,3.7-2.6c0.1,0,0.2,0,0.2,0c3.6-0.2,7.1-0.9,10.5-2.1c2.7-0.5,4.9-2.3,6-4.8c0.1-0.3,0.2-0.7,0.3-1
			c1.3-4.4,4.2-8,5.8-12.2c0.5-1.2,1.4-1.4,2.3-1.8c6.3-2.2,12.6-4.6,18.9-6.6c3.5-1.1,7.1-2.6,10.9-1.1c2.8,1.1,3.6,3.9,1.5,5.8
			c-3.3,2.4-7.7,2.8-11.4,0.9c-4.3-2.6-9.8-1.7-13.1,2.2c-0.9,0.9-1.1,2.3-0.7,3.5c0.5,1.4,1.9,1.6,3.1,1.6c3.5,0,7-0.5,10.3-1.7
			c3.3-1.3,6.7-2.3,10.2-2.8c4-0.4,7.7-2.5,10.1-5.7c1.2-1.8,3.4-2.5,5.4-1.7c2.7,0.7,5,2.3,6.6,4.5c1.5,3,4.7,4.7,8.1,4.3
			c0.6,0,1.3,0,1.9,0.2c1.1,0.3,2.2,0.8,3.2,1.5c1.8,1.3,4,1.7,6.1,1.2c4.4-1.1,8.9,0.7,11.4,4.5c1.3,1.9,3.6,2.9,5.9,2.6
			c2.8-0.7,5.6,1,6.3,3.8c0.1,0.2,0.1,0.4,0.1,0.7c0.4,2.8,2.9,4.8,5.7,4.7c1.9,0.1,3.8,0.4,5.7,0.6c4.5,0.7,8.8-2,10.1-6.3
			c0.4-1.1,0-1.4-0.8-1.8s-2.4,0-2.4-1.4c0.1-1.4,1.7-1.6,2.8-2c2-0.5,4-0.9,6-1.2c1.4-0.2,3.4,0.1,3.2,1.6
			c-0.8,4.2,2.2,3.9,4.6,4.6c1.2,0.3,3.2,0,3.1,2c-0.1,2-1.7,2.1-3,2.4c-3.1,0.5-6.2,1.5-9,3c-2.8,1.8-5.3,4.7-8.9,5.5
			c-1,0.2-1,1-0.9,1.9c0.5,2.9-1,5.8-3.7,7c-0.8,0.5-1.9,0.9-1.5,2s1.6,1.2,2.6,1c2.7-0.1,5.4-0.8,7.8-2.2c1.7-1.5,4.3-1.4,5.9,0.2
			c1.4,1.3,3.2,2.1,5.1,2.4c2.2,0.5,3.1,1.8,1.4,3.6c-2.8,2.8-2.2,5.7-0.6,8.7c0.8,1.6,1.4,3.3,1.8,5.1c0.5,2.6,2.3,4.7,4.7,5.7
			c1.8,0.5,2.9,2.5,2.3,4.3c-0.1,0.2-0.2,0.4-0.3,0.6c-0.9,2.6-1.6,5.2-2.1,7.9c-0.8,3,0.9,6.2,3.9,7c0.7,0.2,1.5,0.3,2.3,0.2
			c2.2-0.2,4.5-0.1,6.7,0.3c1.4,0.2,2.5,1.4,2.3,2.9c0,0.2-0.1,0.4-0.1,0.6c-0.9,4.6-0.7,4.6,4,3.9c2.4-0.3,3.8,0.3,3.2,3.1
			c-0.1,0.9-0.3,1.7-0.6,2.6c-1,1.3-0.7,3.2,0.7,4.2c0.2,0.1,0.4,0.3,0.6,0.3c1.2,0.6,1.8,1.9,1.5,3.2c-0.6,4.4,0.3,5.5,4.9,5.7
			c1.7-0.1,3.4,0.4,4.8,1.3c4.8,4,8.1,3.9,12.4-0.6c1.5-2,4.2-2.7,6.4-1.6c6,2.8,11.8,5.7,14.9,12c0.6,1.2,1.6,2.2,2.8,2.8
			c3.8,2.2,3.9,2.4,1.6,5.9c-1.6,2.4-1.2,4.2,1.2,5.7c2.1,1,3.5,3,3.7,5.3c0.8,6.4,5.3,9.8,10.6,12.1s6.2,3.3,5.4,9.3
			c-0.6,4.9-1.1,9.7,2.2,14c0.5,0.9,0.7,1.8,0.7,2.8c0.6,7,3,13.8,7,19.6c3.4,4.2,3.8,10,1.1,14.6c-2.8,5.4-1.5,8.9,3.7,11
			c2.3,1.1,4.1,3,5.1,5.3c0.6,1.2,1.4,2.3,2.4,3.2c5.2,4,9.7,8.8,13.6,14c1.2,1.5,2.6,3.5,1.1,5.2c-3.5,3.8-1.7,7.8-1.2,11.9
			c0.2,2,1.8,3.6,3.8,3.8c5.7,1,7,4.9,2.3,8.5c-2.4,1.6-3,4.9-1.4,7.3c0.1,0.1,0.1,0.2,0.2,0.3c1.1,1.7,1.7,3.7,1.8,5.7
			c0.2,2.3,0.9,4.4,2.1,6.4c3.2,5.7,6.2,11.6,9.2,17.5c1,1.9,1.2,4.2,0.5,6.3c-0.7,1.4-0.1,3.1,1.3,3.8c0.3,0.2,0.6,0.2,1,0.3
			c4.1,0.9,5,3.7,5.7,7.3c1.3,6,3.6,11.8,9.5,14.9c2,0.9,3.1,3,2.6,5.1c-1.5,6.4-0.3,12.9-1.2,19.3c-0.5,2.8,0.6,5.6,2.8,7.3
			c2,1.7,3.4,4,4,6.5c1.9,8.5,7.1,15.9,14.5,20.6c1.5,0.8,2.6,2.3,3,3.9c0.7,3.5,3.3,4,6,3.2c4.2-0.9,8.5-1.5,12.8-1.7
			c3.5-0.9,7,1.2,7.9,4.6c0.1,0.2,0.1,0.4,0.1,0.7c0.9,2.8,2.8,3.1,5.3,2.8c3.3-0.7,6.8-0.8,10.1-0.5c4.5,0.6,9,0.6,13.5-0.1
			c3.8-0.6,7.6-0.4,11.4,0.6c3.6,1,7.5,0.9,11-0.4c3.5-1.2,7.2-1.5,10.8-0.9c15.3,1.6,30.4,5.2,44.9,10.6c3,0.8,5.4,3,6.5,5.9
			c0.7,2,2.2,3.7,4.2,4.7c2.8,1.6,5.5,3.5,8,5.7c4.2,3.5,9,6.2,14.2,7.9c11.2,3.6,19.5,11.6,28.6,18.3c0.5,0.4,1,0.9,1.4,1.4
			c2.3,3.8,5.8,6.7,10,8.1c1.1,0.4,2.2,0.8,3.3,1c6.1,1.4,7.4,3.4,8.2,9.5c2.7,20.8,5.6,41.6,8.5,62.5
			C926.8,629.5,930.2,654.7,933.7,679.7z"/>
	</g>
</g>
<g>
	<g>
		<path class="st0" d="M164.3,688.7V311.3h230.5c17.2,0,32.7,6.5,44.7,18.8c12.2,12.2,18.6,27.6,18.6,44.5V500
			c0,17.5-6.5,33.1-18.9,45.1c-12.2,11.9-27.6,18.2-44.4,18.2H290.9v125.4H164.3z"/>
		<path d="M394.8,332.8c11.5,0,21.3,4.1,29.4,12.4c8.3,8.3,12.4,18.1,12.4,29.4V500c0,11.8-4.1,21.7-12.4,29.7
			c-8.3,8.1-18.1,12.1-29.4,12.1H269.4v125.4h-83.6V332.8H394.8 M269.4,458.2H353v-41.8h-83.6V458.2 M394.8,289.8h-209h-43v43v334.4
			v43h43h83.6h43v-43v-82.4h82.4c22.5,0,43.1-8.4,59.4-24.3c16.6-16.2,25.4-37.1,25.4-60.5V374.6c0-22.7-8.6-43.3-24.8-59.6
			C438.7,298.5,417.9,289.8,394.8,289.8L394.8,289.8z"/>
	</g>
	<g>
		<polygon class="st0" points="696.4,688.7 647,589.9 597.5,688.7 458.3,688.7 458.3,311.3 584.9,311.3 584.9,450.7 612.8,394.9 
			681.1,394.9 709.1,450.7 709.1,311.3 835.7,311.3 835.7,688.7 		"/>
		<path d="M814.2,332.8v334.4H709.7L647,541.8l-62.7,125.4H479.8V332.8h83.6v209l62.7-125.4h41.8l62.7,125.4v-209H814.2
			 M857.2,289.8h-43h-83.6h-43v43v40.6h-19.7h-41.8h-19.7v-40.6v-43h-43h-83.6h-43v43v334.4v43h43h104.5h26.6l11.9-23.8L647,638
			l24.2,48.5l11.9,23.8h26.6h104.5h43v-43V332.8V289.8L857.2,289.8z"/>
	</g>
</g>
</svg>
