<?xml version="1.0" encoding="utf-8"?>
<!-- Generator: Adobe Illustrator 25.0.1, SVG Export Plug-In . SVG Version: 6.00 Build 0)  -->
<svg version="1.1" id="Layer_1" xmlns="http://www.w3.org/2000/svg" xmlns:xlink="http://www.w3.org/1999/xlink" x="0px" y="0px"
	 viewBox="0 0 1000 1000" style="enable-background:new 0 0 1000 1000;" xml:space="preserve">
<g>
	<path d="M636.9,1003.2"/>
</g>
<g>
	<g>
		<path d="M905,885.9c-16.8,11.2-27.9,33.5-27.9,55.9c0,22.3,16.8,50.3,39.1,55.9c5.6,5.6,16.8,5.6,22.3,5.6
			c33.5,0,61.5-27.9,61.5-61.5c0-33.5-27.9-61.5-61.5-61.5H933L826.8,774.1l61.5-61.5c5.6-5.6,5.6-16.8,0-22.3L865.9,668
			c-5.6-5.6-16.8-5.6-22.3,0L664.8,846.8c-5.6,5.6-5.6,16.8,0,22.3l22.3,22.3c5.6,5.6,16.8,5.6,22.3,0l61.5-61.5l83.8,83.8l0,0
			c0,0,0,0,0-5.6c5.6-5.6,5.6-5.6,11.2-11.2c5.6-5.6,11.2-11.2,22.3-16.8c5.6,0,11.2-5.6,16.8-5.6c5.6,0,5.6,0,5.6,0s0,0-5.6,5.6
			C910.6,885.9,910.6,885.9,905,885.9z"/>
		<path d="M67,304.9c5.6,11.2,11.2,22.3,22.3,27.9l575.4,435.8l39.1-39.1L240.2,237.8l497.2,463.7l39.1-39.1L340.8,87
			c-5.6-11.2-16.8-16.8-27.9-22.3L22.3-2.4C5.6-2.4,0,3.2,0,20L67,304.9z"/>
	</g>
</g>
</svg>
