<?xml version="1.0" encoding="utf-8"?>
<!-- Generator: Adobe Illustrator 25.0.1, SVG Export Plug-In . SVG Version: 6.00 Build 0)  -->
<svg version="1.1" id="Layer_1" xmlns="http://www.w3.org/2000/svg" xmlns:xlink="http://www.w3.org/1999/xlink" x="0px" y="0px"
	 viewBox="0 0 463 418.4" style="enable-background:new 0 0 463 418.4;" xml:space="preserve">
<g>
	<rect x="105.3" y="116.9" width="38.8" height="19.4"/>
	<path d="M453.5,76C432.3,30.3,396.2,4.9,344.8,0.2c-0.3-0.1-0.6-0.1-0.9-0.2h-13.2c-14,1.1-27.6,3.7-40.7,8.9
		c-22,8.8-32.6,16.8-58.6,46.5c-26-29.8-36.6-37.8-58.6-46.5c-13-5.2-26.7-7.8-40.7-8.9H119c-0.3,0.1-0.6,0.2-0.9,0.2
		C66.8,4.9,30.7,30.3,9.5,76C3.7,88.6,1.3,102.1,0,115.9v14.2c0.8,6.9,1.3,13.9,2.5,20.8c0.9,5.3,2.1,10.5,3.5,15.5
		c20.4,77.5,98.3,125.3,98.3,125.3c15.3,13.3,30.8,26.3,45.6,40c28.6,26.3,55,54.4,76.3,86.8h10.2c21.4-32.3,47.8-60.4,76.3-86.8
		c14.9-13.7,30.3-26.8,45.6-40c0,0,77.9-47.8,98.3-125.3c1.5-5,2.6-10.2,3.5-15.5c1.2-6.9,1.7-13.9,2.5-20.8v-14.2
		C461.7,102.1,459.3,88.6,453.5,76z M182.9,155.7c0,5.5-1.9,10.1-5.8,13.8c-3.8,3.7-8.4,5.6-13.7,5.6h-58.2v58.2H66.5V78.1h97
		c5.4,0,9.9,1.9,13.7,5.8c3.8,3.8,5.8,8.4,5.8,13.6V155.7z M271.5,220c0,3.8-1.3,6.9-3.9,9.5c-2.6,2.6-5.8,3.9-9.4,3.9h-53.3
		c-3.7,0-6.9-1.3-9.5-3.9c-2.6-2.6-3.8-5.8-3.8-9.5v-80c0-3.7,1.3-6.8,3.8-9.4c2.6-2.6,5.8-4,9.5-4h53.3c3.7,0,6.8,1.3,9.4,4
		c2.6,2.6,3.9,5.8,3.9,9.4V220z M396.5,233.4h-38.8v-58.2h-38.8v58.2h-38.8V78.1h38.8v58.2h38.8V78.1h38.8V233.4z"/>
	<rect x="218.2" y="153.4" width="26.7" height="53.3"/>
</g>
</svg>
