<svg xmlns="http://www.w3.org/2000/svg" viewBox="0 0 1784 466.98"><defs><style>.cls-1{fill:#ff5959;}.cls-2{fill:#fff;}</style></defs><g id="Layer_2" data-name="Layer 2"><g id="Layer_1-2" data-name="Layer 1"><path class="cls-1" d="M36.85,467,21.5,451.64V390.25l15.35-15.34Zm10.2-92.07H62.4v40.9H47.06Zm0,51.17H62.4V467H47.06Zm25.61-10.27H88v-40.9H72.67Zm0,10.27H88V467H72.68Zm25.55-51.17,15.35,15.34v61.39L98.23,467Z"/><path class="cls-1" d="M131.43,415.81V390.25l15.34-15.34H157l15.35,15.34v61.38H182.6V390.25L198,374.9h10.21l15.34,15.35v25.56H208.16V390.25H198v61.38L182.6,467H172.33L157,451.63V390.25H146.77v25.56Zm0,10.27h15.34v15.35H131.43Zm0,25.56h15.35V467H131.43Zm76.73-25.56H223.5v15.34H208.16Zm0,25.55H223.5V467H208.16Z"/><path class="cls-1" d="M307.88,374.9v51.18l-15.35,15.34H256.7v10.21h61.39V374.9l15.34,15.35v61.38L318.09,467H256.7l-15.34-15.35V441.42l15.34-15.34h35.83V374.9Zm-41,15.35v10.21H241.36v15.35h25.55l15.35-15.35V390.25L266.91,374.9H256.7l-15.34,15.35Z"/><path class="cls-1" d="M392.19,374.9v15.35H366.63v61.38h25.56V467H366.63l-15.34-15.35V390.25l15.35-15.35Zm-15.35,25.56h41V415.8h-41Zm0,25.62h41v15.34h-41Zm25.62-51.18v15.35H428v61.38H402.46V467H428l15.34-15.35V390.25L428,374.9Z"/><path class="cls-1" d="M461.21,390.25l15.35-15.35v51.18h10.21V415.8l15.34-15.34h10.28l15.34,15.34v10.28h10.21V374.9l15.35,15.35v35.83l-15.35,15.34H527.73l-15.34-15.34V415.8H502.11v10.28l-15.34,15.34H476.56l-15.35-15.34Zm92.08,61.38L537.94,467H476.56l-15.35-15.35ZM486.77,374.9h41v15.35h-41Z"/><path class="cls-1" d="M586.49,400.46H596.7L612,415.8v35.83h10.28V415.8l15.34-15.34h10.21V374.9l15.35,15.35v10.21L647.87,415.8H637.66v35.83L622.32,467H612L596.7,451.63V415.8H586.49l-15.35-15.34V390.25l15.35-15.35Zm-15.35,25.62h15.35V467l-15.35-15.35ZM596.7,374.9H612v15.35H596.7Zm25.62,0h15.34v15.35H622.32Zm25.55,51.18h15.35v25.55L647.87,467Z"/><path class="cls-1" d="M747.59,374.9v51.17l-15.35,15.35H696.42v10.21H757.8V374.9l15.35,15.35v61.38L757.8,467H696.42l-15.35-15.35V441.42l15.35-15.35h35.82V374.9Zm-41,15.35v10.21H681.07V415.8h25.56L722,400.45v-10.2L706.62,374.9h-10.2l-15.35,15.35Z"/><path class="cls-1" d="M791,374.9h15.34v15.35H791Zm0,25.55h15.34v25.62h10.21l15.35,15.35v10.21L816.55,467H806.34L791,451.63h25.55V441.42H806.34L791,426.07Zm25.55-10.2L831.9,374.9h10.27l15.35,15.34V415.8H842.17V390.24H831.9V415.8H816.55Zm66.52,10.2H867.73v25.62H857.52l-15.35,15.35v10.21L857.52,467h10.21l15.34-15.34H857.52V441.42h10.21l15.34-15.35ZM867.73,374.9h15.34v15.34H867.73Z"/><path class="cls-1" d="M900.93,390.24l15.34-15.34v76.73h61.39V390.24H941.83v35.83h25.62v15.35H941.83l-15.35-15.35V390.24l15.35-15.34h35.83L993,390.24v61.39L977.66,467H916.27l-15.34-15.34Zm51.17,10.21h15.35V415.8H952.1Z"/><path class="cls-1" d="M1010.85,415.8V390.24l15.35-15.34h10.21l15.35,15.34v10.21H1062V390.24l15.34-15.34h10.21l15.35,15.34V415.8h-15.35V390.24h-10.21v10.21L1062,415.8h-10.27l-15.35-15.35V390.24H1026.2V415.8Zm0,10.27h25.56l15.35,15.35v10.21H1062V441.42l15.35-15.35h25.55v15.35h-25.55v10.21L1062,467h-10.27l-15.35-15.34V441.42h-25.56Zm0,25.56h15.35V467h-15.34Zm76.73,0h15.35V467h-15.35Z"/><path class="cls-1" d="M1120.78,390.24l15.35-15.34h10.21l15.34,15.34v10.21l-15.34,15.35h-10.21v10.27h10.21l15.34,15.35v10.21L1146.34,467h-10.21l-15.35-15.34h25.56V441.42h-10.21l-15.35-15.35V415.8l15.35-15.35h10.21V390.24Zm92.08,0-15.35-15.34H1187.3L1172,390.24v10.21l15.34,15.35h10.21v10.27H1187.3L1172,441.42v10.21L1187.3,467h10.21l15.35-15.34H1187.3V441.42h10.21l15.35-15.35V415.8l-15.35-15.35H1187.3V390.24Z"/><path class="cls-1" d="M1230.71,374.9h15.35v15.34h-15.35ZM1246.06,467l-15.35-15.34V415.8l15.35-15.35h61.38l15.35,15.35v35.82L1307.44,467V415.8h-61.38Zm10.21-92.07h15.34v15.34h-15.34Zm0,92.07V441.42l15.34-15.35h10.28l15.34,15.35V467h-15.34V441.42h-10.28V467Zm25.62-92.08h15.34v15.35h-15.34Zm25.55,0h15.35v15.35h-15.35Z"/><path class="cls-1" d="M1340.64,415.8V390.24L1356,374.89h10.21l15.35,15.35v61.38h10.27V390.24l15.35-15.35h10.21l15.34,15.35v25.55h-15.35V390.24h-10.21v61.38L1391.81,467h-10.27l-15.34-15.35V390.24H1356V415.8Zm0,10.27H1356v15.34h-15.35Zm0,25.55H1356V467h-15.35Zm76.73-25.55h15.35v15.34h-15.35Zm0,25.55h15.35V467h-15.35Z"/><path class="cls-1" d="M1450.57,390.24l15.34-15.35h61.39l15.34,15.35v10.21l-15.34,15.34h-35.83V467h-15.35V415.79l15.35-15.34h35.83V390.24h-61.39V467l-15.34-15.35Zm51.17,35.83h15.35V467h-15.35Zm25.56,0h15.34v25.55L1527.3,467Z"/><path class="cls-1" d="M1560.5,374.89h15.34v15.35H1560.5Zm0,25.56h15.34v25.62h10.21l15.35,15.34v10.21L1586.05,467h-10.21l-15.34-15.35h25.55V441.41h-10.21l-15.34-15.34Zm25.55-10.21,15.35-15.35h10.27L1627,390.24v25.55h-15.35V390.24H1601.4v25.55h-15.35Zm66.52,10.21h-15.34v25.62H1627l-15.35,15.34v10.21L1627,467h10.21l15.34-15.35H1627V441.41h10.21l15.34-15.34Zm-15.34-25.56h15.34v15.35h-15.34Z"/><path class="cls-1" d="M1711.33,374.89v15.35h-25.56v61.38h25.56V467h-25.56l-15.35-15.35V390.24l15.35-15.35ZM1696,400.45h41v15.34h-41Zm0,25.62h41v15.34h-41Zm25.62-51.18v15.35h25.55v61.38H1721.6V467h25.55l15.35-15.35V390.24l-15.35-15.35Z"/><path class="cls-1" d="M1004.37,206c-4.38-11.71-8.65-23.46-13-35.2q-7.92-21.56-15.81-43.12c-1.1-3-2.15-5.87-4.93-8-5.31-4-10.3-8.47-15.43-12.73S945.06,98.53,940,94.28c-4.61-3.84-9.2-7.71-13.84-11.51-2-1.62-3.68-3.65-6.22-4.49H885.44c-3.69.45-7.41.62-11.09,1.23-7.81,1.27-15.62,2.47-23.44,3.68-6,.93-12,2-18,2.79-1.87.26-3.42.82-4.41,2.54a21.05,21.05,0,0,1-1.22,1.75c-7.77,10.35-15.45,20.77-23.17,31.16q-13.8,18.51-27.53,37.06c-1.44,1.94-3.26,3.67-3.9,6.13v1.6c.26,1,.29,2.1.48,3.14.59,3.38,1.67,6.64,2.56,9.95q5,18.62,10.1,37.23a7.31,7.31,0,0,1,0,3.8q-2.92,11.6-5.81,23.19a2.67,2.67,0,0,0,.92,3.09c.39.29.7.68,1.08,1,4.16,3.47,8.25,7,12.37,10.57l11.94,10.25c3.61,3.1,7.21,6.21,10.85,9.27a1.55,1.55,0,0,1,.36,2.38c-1.45,2.3-2.81,4.65-4.21,7q-3.64,6.06-7.28,12.13c-.87,1.46-.65,2.19.88,3,.59.32,1.19.61,1.79.91,4.74,2.35,9.44,4.81,14.14,7.25,6.2,3.22,12.45,6.35,18.63,9.62,1,.56,1.72.31,2.34-.72a17.38,17.38,0,0,0,.86-1.66c2.79-5.82,5.63-11.62,8.47-17.42,2.52-5.15,4.94-10.37,7.57-15.47a17.72,17.72,0,0,0,1.12-3.08c-1,3.7-1.25,7.53-1.79,11.3-.81,5.59-1.55,11.19-2.31,16.78-.37,2.77-.73,5.55-1.15,8.32-.26,1.71.17,2.29,1.88,2.54,4.39.65,8.82,1,13.24,1.56s8.65,1,13,1.46c3.71.39,7.4,1,11.13,1.17,2.61.15,5.22.21,7.81.52h2.68c.62-.47.58-1.16.6-1.82.09-2.32-.15-4.63-.24-6.94-.17-4-.13-8.09-.2-12.14-.12-6.54-.45-13.08-.34-19.63,0-3-.31-6-.4-9.05a10,10,0,0,0,.63,2.45c2.36,7,4.77,13.9,7.12,20.86,1.94,5.73,3.95,11.45,5.86,17.2.58,1.76,1.37,2.14,3,1.56,7.61-2.65,15.24-5.26,22.86-7.89,2.27-.79,4.56-1.53,6.81-2.36,1.35-.5,1.63-1,1.46-2.44-.26-2.12-.56-4.23-.84-6.35-1.39-10.36-2.77-20.72-4.22-31.07-.23-1.64,0-2,1.53-2.63,7.37-3,14.76-6,22.15-9,5-2,10-4.12,15.11-6.1a2.94,2.94,0,0,0,2.24-2.52c.47-4.56,1.08-9.1,1.63-13.65.78-6.44,1.51-12.89,2.37-19.33.24-1.81.52-2,2.37-2.14,2.4-.13,4.78-.46,7.18-.62a2.78,2.78,0,0,0,2.19-.8V209.8C1004.79,208.57,1004.82,207.26,1004.37,206ZM894,262.94H870.48l9-26.87Zm-85.3-51.13a38.37,38.37,0,0,1-.54-6.78c.19-10.92,3.54-20.62,11.46-28.38,6.12-6,13.54-9,22.15-8.22,7.47.63,13.63,4.06,18.68,9.52a38.33,38.33,0,0,1,9.78,21.46A41,41,0,0,1,866.66,223c-4.3,8.93-10.85,15.51-20.72,18-9,2.29-17.19.14-24.33-5.71C814.2,229.25,810.21,221.19,808.7,211.81Zm90.48,15c-1.7-8.67-.28-17.08,3.12-25.15,3.56-8.44,8.87-15.49,16.73-20.4,5.07-3.17,10.6-4.88,16.61-4.24,7.57.82,13.28,4.75,17.34,11.1,3.95,6.17,5.49,13,5.45,21.32.17,5.71-1.59,12.06-3.81,18.32-2.36,6.62-4.83,13.18-9,18.91-3,4-6.6,7.12-11.59,8.22-4.75,1-9.27,0-13.64-1.88C908.64,248,901.6,239.19,899.18,226.79Z"/><path class="cls-2" d="M139.17,322.33H0V2.69H132.43c66.44,0,101.91,37.26,101.91,92.48,0,36.36-25.14,56.57-35,63.3,13,8.08,39.51,24.69,39.51,69.58C238.83,289.11,196.18,322.33,139.17,322.33ZM127.49,73.17H78.56v52.08h48.93c21.55,0,28.29-13.47,28.29-26S149,73.17,127.49,73.17Zm4,122.56h-53v56.12h53c21.55,0,28.74-14.82,28.74-28.29S153.08,195.73,131.53,195.73Z"/><path class="cls-2" d="M461.94,294c-14.36,15.27-38.6,31-77.66,31s-63.3-15.71-77.66-31c-20.21-22-26.49-44.89-26.49-92.47,0-47.14,6.28-70.49,26.49-92.48,14.36-15.27,38.6-31,77.66-31s63.3,15.71,77.66,31c20.2,22,26.49,45.34,26.49,92.48C488.43,249.15,482.14,272.05,461.94,294ZM404,151.29c-4.49-4.49-10.77-6.74-19.75-6.74s-15.26,2.25-19.75,6.74c-9.43,9.42-10.78,26.48-10.78,50.28s1.35,40.85,10.78,50.28c4.49,4.48,10.77,6.73,19.75,6.73s15.26-2.25,19.75-6.73c9.43-9.43,10.78-26.49,10.78-50.28S413.46,160.71,404,151.29Z"/><path class="cls-2" d="M673.83,322.33l-50.28-88.44L609.19,249.6v72.73H535.56V2.69h73.63V165.2l65.09-84.39h88.44L673.83,180.92,765,322.33Z"/><path class="cls-2" d="M1225.55,303c-13.91,13.92-35.46,22-58.81,22-25.14,0-40.85-7.63-55.66-22.45v19.76H1039.7V2.69h73.62V98.31c13.47-13.46,30.08-20.2,53.87-20.2,23.35,0,44.45,8.08,58.36,22,23.79,23.79,22.45,66,22.45,101.46S1249.34,279.23,1225.55,303Zm-81.7-158.47c-27.39,0-30.53,22-30.53,57s3.14,57,30.53,57,30.52-22,30.52-57S1171.23,144.55,1143.85,144.55Z"/><path class="cls-2" d="M1367.86,322.33c-53.43,0-75-38.16-75-71.38V2.69h73.62V245.56c0,9.43,4.94,14.81,14.81,14.81h25.59v62Z"/><path class="cls-2" d="M1448.21,56.12V0h73.62V56.12Zm0,266.21V90.23h73.62v232.1Z"/><path class="cls-2" d="M1710.38,322.33V177.77c0-27.83-19.76-33.22-29.63-33.22s-29.63,5.39-29.63,33.22V322.33H1577.5V80.81h71.82v19.75c14.82-14.82,36.81-22.45,56.12-22.45,22.89,0,41.3,7.63,54.32,20.65,20.65,20.65,24.24,43.55,24.24,69.14V322.33Z"/></g></g></svg>