<?xml version="1.0" encoding="utf-8"?>
<!-- Generator: Adobe Illustrator 23.0.1, SVG Export Plug-In . SVG Version: 6.00 Build 0)  -->
<svg version="1.1" id="Layer_1" xmlns="http://www.w3.org/2000/svg" xmlns:xlink="http://www.w3.org/1999/xlink" x="0px" y="0px"
	 viewBox="0 0 1000 1000" style="enable-background:new 0 0 1000 1000;" xml:space="preserve">
<style type="text/css">
	.st0{fill:#FF5959;}
</style>
<g>
	<g id="Layer_1-2">
		<path class="st0" d="M967.4,517.3c-17.7-47.4-35-95-52.5-142.5c-21.4-58.2-42.7-116.4-64-174.6c-4.4-12.2-8.7-23.8-20-32.3
			c-21.5-16.3-41.7-34.3-62.5-51.6c-20.6-17.1-41.2-34.3-61.8-51.5c-18.7-15.6-37.3-31.2-56-46.6c-8-6.5-14.9-14.8-25.2-18.2H485.9
			c-14.9,1.8-30,2.5-44.9,5c-31.6,5.2-63.3,10-94.9,14.9c-24.4,3.8-48.7,7.9-73.1,11.3c-7.5,1-13.8,3.3-17.8,10.2
			c-1.5,2.5-3.2,4.8-5,7.1c-31.4,41.9-62.5,84.1-93.8,126.1c-37.2,50-74.4,100-111.4,150c-5.7,7.9-13.2,14.9-15.7,24.8v6.5
			c1,4.2,1.2,8.5,1.9,12.7c2.4,13.7,6.8,26.9,10.4,40.3c13.5,50.3,27.2,100.5,40.9,150.8c1.4,5,1.5,10.3,0.1,15.4
			C74.7,606.4,66.8,637.7,59,669c-1.3,5.1-0.6,9.2,3.7,12.5c1.6,1.2,2.8,2.8,4.3,4c16.8,14.1,33.4,28.5,50.1,42.8
			c16.1,13.8,32.2,27.7,48.3,41.5c14.6,12.6,29.2,25.1,43.9,37.5c3.8,3.2,3.8,5.8,1.4,9.6c-5.9,9.3-11.4,18.8-17,28.2
			c-9.8,16.4-19.7,32.8-29.5,49.1c-3.5,5.9-2.6,8.8,3.5,12.2c2.4,1.3,4.8,2.5,7.2,3.7c19.2,9.5,38.2,19.5,57.3,29.4
			c25.1,13,50.4,25.7,75.4,38.9c4.3,2.3,7,1.3,9.5-2.9c1.3-2.2,2.4-4.5,3.5-6.7c11.3-23.6,22.8-47,34.3-70.5
			c10.2-20.9,20-42,30.6-62.7c1.9-4,3.4-8.2,4.5-12.5c-4.1,15-5,30.5-7.3,45.8c-3.3,22.6-6.3,45.3-9.3,67.9
			c-1.5,11.2-3,22.5-4.7,33.7c-1,6.9,0.7,9.3,7.6,10.3c17.8,2.6,35.7,4.2,53.6,6.3c17.5,2.1,35,4.1,52.6,5.9c15,1.6,30,3.9,45.1,4.7
			c10.6,0.6,21.1,0.8,31.6,2.1h10.8c2.5-1.9,2.3-4.7,2.5-7.4c0.3-9.4-0.6-18.7-1-28.1c-0.7-16.4-0.5-32.8-0.8-49.2
			c-0.5-26.5-1.8-53-1.4-79.5c0.2-12.3-1.3-24.4-1.6-36.7c0.2,3.4,1.5,6.7,2.6,9.9c9.5,28.2,19.3,56.3,28.8,84.5
			c7.9,23.2,16,46.4,23.7,69.6c2.4,7.2,5.6,8.7,12.3,6.3c30.8-10.8,61.7-21.3,92.5-32c9.2-3.2,18.5-6.2,27.6-9.6
			c5.5-2,6.6-4.1,5.9-9.8c-1.1-8.6-2.3-17.2-3.4-25.7c-5.6-42-11.2-83.9-17.1-125.8c-0.9-6.6-0.1-8,6.2-10.7
			c29.8-12.3,59.8-24.3,89.7-36.4c20.4-8.3,40.7-16.7,61.2-24.7c4.8-1.9,8.5-4.5,9.1-10.2c1.9-18.4,4.4-36.8,6.6-55.3
			c3.2-26.1,6.1-52.2,9.6-78.3c1-7.3,2.1-8.3,9.6-8.7c9.7-0.5,19.4-1.9,29.1-2.5c3.1-0.2,6.6-0.4,8.9-3.3v-4.3
			C969.1,527.5,969.3,522.2,967.4,517.3z M520.6,747.6h-95.2c12-36.1,23.9-71.8,36.3-108.8L520.6,747.6z M175.2,540.6
			c-1.5-9.1-2.3-18.3-2.2-27.5c0.8-44.2,14.3-83.5,46.4-114.9c24.8-24.3,54.9-36.3,89.7-33.3c30.2,2.5,55.2,16.5,75.6,38.6
			c22.7,24.6,35.1,53.9,39.6,86.9c4.5,33.3,0.1,65.4-14.4,95.6C392.5,622.3,366,648.9,326,659c-36.6,9.3-69.6,0.6-98.5-23.1
			C197.5,611.2,181.4,578.6,175.2,540.6z M541.5,601.2c-6.9-35.1-1.2-69.1,12.6-101.8c14.4-34.1,35.9-62.7,67.7-82.6
			c20.5-12.8,43-19.8,67.3-17.1c30.6,3.3,53.7,19.2,70.2,44.9c16,25,22.2,52.8,22.1,86.3c0.7,23.1-6.4,48.8-15.5,74.2
			c-9.5,26.8-19.6,53.4-36.6,76.5c-12,16.3-26.7,28.8-46.9,33.3c-19.2,4.2-37.5-0.1-55.2-7.6C579.9,687.2,551.4,651.5,541.5,601.2
			L541.5,601.2z"/>
	</g>
</g>
</svg>
