<svg xmlns="http://www.w3.org/2000/svg" viewBox="0 0 941.56 1000"><defs><style>.cls-1{fill:#ff5959;}</style></defs><g id="Layer_2" data-name="Layer 2"><g id="Layer_1-2" data-name="Layer 1"><path class="cls-1" d="M938.21,517.26c-17.72-47.41-35-95-52.48-142.51q-32.06-87.27-64-174.57c-4.43-12.19-8.69-23.79-20-32.33-21.48-16.31-41.69-34.29-62.46-51.55q-30.93-25.71-61.8-51.51c-18.66-15.57-37.25-31.22-56-46.63-8-6.54-14.88-14.75-25.16-18.16H456.71c-14.94,1.84-30,2.53-44.9,5-31.59,5.17-63.25,10-94.9,14.93-24.35,3.76-48.66,7.88-73.07,11.29C236.29,32.24,230,34.49,226,41.45A73.68,73.68,0,0,1,221,48.54c-31.45,41.91-62.53,84.11-93.81,126.14q-55.83,75-111.45,150.05C10,332.6,2.59,339.59,0,349.56v6.49c1,4.18,1.19,8.49,1.94,12.7,2.4,13.7,6.77,26.89,10.38,40.27q20.31,75.41,40.87,150.76a29,29,0,0,1,.11,15.37Q41.5,622.09,29.81,669c-1.25,5.07-.6,9.21,3.72,12.51,1.56,1.19,2.82,2.77,4.35,4,16.85,14.08,33.41,28.5,50.08,42.8q24.18,20.73,48.35,41.51c14.6,12.56,29.2,25.12,43.93,37.53,3.75,3.16,3.84,5.84,1.45,9.64-5.86,9.3-11.37,18.81-17,28.23q-14.76,24.56-29.47,49.13c-3.54,5.91-2.65,8.85,3.54,12.16,2.38,1.28,4.82,2.45,7.24,3.65,19.23,9.51,38.23,19.49,57.26,29.37,25.12,13,50.4,25.72,75.42,38.94,4.25,2.26,7,1.25,9.5-2.9,1.32-2.16,2.39-4.45,3.49-6.73,11.28-23.57,22.76-47,34.26-70.51,10.22-20.88,20-42,30.65-62.66a67.82,67.82,0,0,0,4.53-12.47c-4.1,15-5.05,30.48-7.25,45.77-3.26,22.62-6.26,45.28-9.33,67.93-1.51,11.23-3,22.47-4.66,33.68-1,6.92.67,9.28,7.6,10.3,17.79,2.61,35.72,4.21,53.59,6.31,17.51,2.06,35,4.08,52.56,5.92,15,1.57,30,3.9,45.07,4.73,10.56.59,21.13.82,31.63,2.09h10.83c2.52-1.89,2.35-4.68,2.45-7.38.34-9.38-.6-18.71-1-28.07-.67-16.38-.51-32.78-.8-49.17-.48-26.49-1.85-53-1.39-79.46.21-12.27-1.25-24.43-1.61-36.65.24,3.44,1.45,6.66,2.56,9.91,9.55,28.16,19.29,56.28,28.81,84.45,7.87,23.23,16,46.37,23.72,69.64,2.37,7.16,5.56,8.67,12.28,6.33,30.8-10.75,61.68-21.31,92.53-32,9.2-3.17,18.46-6.17,27.59-9.56,5.46-2,6.6-4.14,5.91-9.85-1.06-8.59-2.27-17.15-3.42-25.71-5.63-41.95-11.19-83.9-17.06-125.82-.93-6.62-.14-8.05,6.17-10.65,29.83-12.29,59.79-24.27,89.68-36.41,20.38-8.28,40.7-16.7,61.18-24.71,4.85-1.89,8.49-4.49,9.08-10.2,1.89-18.44,4.36-36.83,6.59-55.25,3.17-26.08,6.1-52.22,9.6-78.27,1-7.34,2.1-8.27,9.6-8.67,9.73-.52,19.36-1.88,29.07-2.5,3.13-.2,6.57-.41,8.88-3.26v-4.33C939.9,527.51,940.05,522.17,938.21,517.26ZM491.37,747.63H396.15c12-36.08,23.93-71.81,36.28-108.82ZM146,540.63a156.67,156.67,0,0,1-2.19-27.46c.78-44.22,14.32-83.47,46.4-114.92C215,374,245.06,362,279.92,365c30.23,2.55,55.2,16.45,75.62,38.56,22.68,24.59,35.14,53.88,39.58,86.9,4.48,33.34.11,65.41-14.43,95.64-17.39,36.17-43.91,62.79-83.88,72.93-36.56,9.28-69.62.57-98.5-23.14C168.29,611.22,152.15,578.61,146,540.63Zm366.32,60.61c-6.87-35.09-1.15-69.12,12.63-101.81,14.4-34.15,35.92-62.71,67.72-82.58C613.22,404,635.63,397.09,660,399.7c30.62,3.29,53.74,19.19,70.19,44.9,16,25,22.2,52.76,22.07,86.32.69,23.12-6.45,48.84-15.46,74.2-9.52,26.79-19.55,53.36-36.62,76.55-12,16.25-26.71,28.84-46.93,33.27-19.22,4.21-37.53-.08-55.22-7.59C550.64,687.21,522.16,651.45,512.35,601.24Z"/></g></g></svg>