<svg xmlns="http://www.w3.org/2000/svg" viewBox="0 0 959.85 1000"><defs><style>.cls-1{fill:#518545;}</style></defs><title>Farore</title><g id="Layer_2" data-name="Layer 2"><g id="Layer_1-2" data-name="Layer 1"><path class="cls-1" d="M207.1,291.61q85.68,0,147.1,61.4,60,60,60,147.1,0,85.71-60,145.69-60,61.41-147.1,61.41-85.71,0-145.68-61.41Q0,585.83,0,500.11,0,413,61.42,353,122.83,291.62,207.1,291.61ZM312.69,164.23q138.51,0,237.23,98.62,97.27,100,97.28,237.26T549.92,737.36q-100.14,97.2-237.23,97.19T75.6,737.7Q27,686.29,4.18,633.44a241.42,241.42,0,0,0,38.57,50q72.82,75.71,175.68,75.69,104.24,0,177.1-75.88Q468.36,605.95,468.37,500q0-107.38-72.84-183.24t-177.1-75.88q-102.85,0-175.68,75.69-24.3,24.29-38.57,48.56Q27.06,310.85,75.6,262.3,174.14,164.25,312.69,164.23ZM814.27,852.86Q667.26,1000,460.16,1000T107.38,852.59Q40.26,785.47,6,708.33q19.95,31.42,51.4,65.72Q168.78,886.87,325.9,886.86T594.42,774.12q109.94-117,110-274,0-159.84-110-274Q483,111.92,325.9,111.92T57.39,226.18A410.56,410.56,0,0,0,6,289q35.7-75.66,101.39-141.38Q253,0,460.16,0T814.27,147.14Q959.86,292.88,959.85,500T814.27,852.86Z"/></g></g></svg>