<svg xmlns="http://www.w3.org/2000/svg" viewBox="0 0 924.3 1000"><defs><style>.cls-1{fill:#ca543c;}</style></defs><title>Din</title><g id="Layer_2" data-name="Layer 2"><g id="Layer_1-2" data-name="Layer 1"><path class="cls-1" d="M674.79,517.26q112.82,7.15,197.1-57.12-12.87,70-84.27,120-85.71,48.58-170,35.7-110-17.12-217.1-84.26-105.69-67.12-207.1-50Q49.23,505.86,2.1,641.52-12.16,515.84,70.66,447.27q81.41-68.55,182.8-81.39,100-12.87,207.1,65.69Q563.39,511.55,674.79,517.26Zm-4.28-201.62q108.53,5.7,165.68-37.15-32.85,14.33-65.71,14.3-61.43,0-104.27-42.85t-41.4-104.26q-1.45-60,41.4-102.83T770.48,0q61.41,0,102.83,42.85,44.25,44.28,48.57,104.26,25.7,247.08-221.37,275.64-50,4.28-82.84-1.43-110-17.13-217.1-84.26-102.84-65.7-207.1-50Q50.66,309.93,13.52,439.9-12.17,321.34,70.66,252.79q81.41-68.53,182.8-81.41Q357.71,160,456.28,235.65,557.68,311.36,670.51,315.64ZM236.34,575.82q48.53-2.85,102.81,5.71,55.73,8.58,161.41,74.26,104.23,65.7,198.52,35.72,97.11-28.57,131.39-77.14Q857.6,653,791.9,718.64t-141.39,80q-77.12,15.72-179.95-47.14-105.69-62.84-209.95-67.12-102.84-5.7-160,37.13,27.12-14.26,64.27-14.28,61.43,0,104.26,42.85T312,852.89q0,61.43-42.85,104.26T164.92,1000q-60,0-102.83-42.85Q17.81,912.9,13.52,852.89-12.17,605.81,236.34,575.82Z"/></g></g></svg>