<svg xmlns="http://www.w3.org/2000/svg" viewBox="0 0 1112.9 1000"><defs><style>.cls-1{fill:#2c3277;}</style></defs><title>Nayru</title><g id="Layer_2" data-name="Layer 2"><g id="Layer_1-2" data-name="Layer 1"><path class="cls-1" d="M723.46,638.43Q672,709.83,684.89,795.54q15.71,88.56,84.27,138.54,70,51.43,158.53,38.55,11.41-2.85,22.13-5A141.81,141.81,0,0,0,972,961.2a295.77,295.77,0,0,1-98.54,34.3q-117.13,19.95-208.68-48.57Q576,881.23,557.46,781.25q-22.9,101.41-108.72,165.68-93,67.13-208.79,48.57-54.28-8.57-98.56-34.3a142.13,142.13,0,0,0,22.14,6.45q10.72,2.13,22.15,5,87.1,12.89,157.2-38.55t85.83-138.54q12.89-85.71-38.61-157.11T251.37,554.17q-88.56-14.29-158.53,38.55Q22.84,644.16,10,731.25A264.54,264.54,0,0,0,5.72,777,235.72,235.72,0,0,1,0,725.55q0-25.72,2.85-54.27,20-115.68,111.41-182.83,94.28-68.54,208.61-50c3.8.95,7.14,1.67,10,2.15s6.2,1.17,10,2.13Q272.8,364.21,272.8,257.08q0-115.68,83.2-198.53A240.3,240.3,0,0,1,397.42,25,500.63,500.63,0,0,1,441.69,0q-8.58,7-17.15,14T407.42,28q-62.85,63-62.85,151.81,0,84.51,62.9,150.36Q469,391.74,557.59,391.74t150.09-61.59q61.49-63,61.48-150.36,0-90.22-61.42-151.81-8.55-7-17.13-14T672,0a298.46,298.46,0,0,1,87.12,58.55q83,82.86,83,198.53,0,107.12-70.12,185.68,11.43-2.86,18.59-4.28,112.93-18.57,208.64,50,92.84,67.16,110,182.83A282.75,282.75,0,0,1,1106.38,777q1.42-20-2.86-45.72-12.86-87.11-84.26-138.53-71.43-54.27-157.11-38.55Q774.87,567,723.46,638.43ZM350.2,667.23q40,55.72,30,124.26-10,67.15-67.12,108.54-55.72,40-122.84,30-70-11.4-110-65.7-41.43-57.11-30-124.26,11.4-70,67.12-108.54,55.68-40,124.26-30Q310.21,613,350.2,667.23ZM675.84,294.52q-51.44,48.57-118.54,48.55T438.76,294.52Q390.18,243.12,390.2,176T438.76,57.43Q487.3,8.89,557.3,8.88T675.84,57.44Q724.4,106,724.41,176T675.84,294.52ZM499.46,540.84A35.84,35.84,0,0,1,507.31,553q37.12,51.43,50,104.26A233.73,233.73,0,0,1,575.15,603a332.82,332.82,0,0,1,29.3-50q10-14.26,18.55-21.42-15.72,2.88-32.13,5a259,259,0,0,1-33.57,2.13,342.35,342.35,0,0,1-67.12-7.14C493,534.42,496.11,537.51,499.46,540.84ZM1062.9,740.07q8.55,67.15-31.42,124.26-40,55.73-108.54,65.7-67.16,10-122.84-30T733,791.51Q721.55,723,763,667.23,803,613,871.52,601.54q68.55-10,124.26,30Q1051.48,670.11,1062.9,740.07Z"/></g></g></svg>