<svg xmlns="http://www.w3.org/2000/svg" viewBox="0 0 1558.87 221.96"><defs><style>.cls-1{fill:#fff;}</style></defs><title>ForCharity_White</title><g id="Layer_2" data-name="Layer 2"><g id="Layer_1-2" data-name="Layer 1"><path class="cls-1" d="M0,5.46,15.47,19.18V204.74L0,218.1H72.76L55.89,203.69V116.88H81.53l16.16,23.53V76.82l-16.85,25.3h-25V17.07h41.8l25.66,63.61V5.46Z"/><path class="cls-1" d="M274.12,74.53a119.09,119.09,0,0,0-10.54-31.45Q253.4,23,237.92,11.63T204.54.2a56.08,56.08,0,0,0-32.85,10.72q-15.28,10.73-25.48,29.34A107.84,107.84,0,0,0,134.8,73.14a210.43,210.43,0,0,0-3.35,38.46A234.68,234.68,0,0,0,135.31,155q3.85,20.53,14.07,35.31a70.16,70.16,0,0,0,24.93,23.55A62.11,62.11,0,0,0,204.54,222a69.11,69.11,0,0,0,29.19-6.32q13.68-6.33,23.53-22.16a112.83,112.83,0,0,0,8.43-16.87,145.48,145.48,0,0,0,6.5-20.19,187.9,187.9,0,0,0,4.06-22.16,190.49,190.49,0,0,0,1.4-22.66A189.23,189.23,0,0,0,274.12,74.53Zm-36.89,74.52a157.33,157.33,0,0,1-7.57,30q-4.72,12.64-11.25,20t-14.2,7.37q-7.4,0-14.25-7.37t-12-20a146,146,0,0,1-8.07-30,220.73,220.73,0,0,1-3-37.45,222.84,222.84,0,0,1,3-37.78,163.46,163.46,0,0,1,7.9-30.4q4.92-13,11.78-20.38t14.21-7.37q7.72,0,14.25,7.37c4.31,4.93,8.14,11.72,11.41,20.38a157.94,157.94,0,0,1,7.74,30.4A238,238,0,0,1,240,111.6,235.75,235.75,0,0,1,237.23,149.05Z"/><path class="cls-1" d="M390.21,218.1H444.3l-18.6-14.41-47.79-88.91c2.8,0,6.48-1.07,11.06-3.18a40.39,40.39,0,0,0,13-10c4.13-4.57,7.62-10.54,10.57-17.93s4.26-16.45,4-27.24Q416.2,39.57,409,29.54A51.26,51.26,0,0,0,392.3,14.25a62.33,62.33,0,0,0-19.31-7,92.69,92.69,0,0,0-15.14-1.78H290.73l19.69,15.83V204L286.86,218.1h81.89L345.55,204V126ZM346.26,18.82a55.83,55.83,0,0,1,20,4.22,40.35,40.35,0,0,1,14.25,11.43q6.5,7.89,7.22,23.37a55.77,55.77,0,0,1-1.25,15.3,39.94,39.94,0,0,1-4.39,11.23,26.74,26.74,0,0,1-6.66,7.72,39.79,39.79,0,0,1-7.75,4.75q-9.15,4.23-21.44,3.86Z"/><path class="cls-1" d="M604.27,44.48q5.1-12.64,11.79-20.2T630.44,16c6.08-.71,10.68-.13,13.72,1.76l31.27,67.47V12.5a26,26,0,0,0-8.43-7,58.58,58.58,0,0,0-13.54-4.22q-8.62-1.72-22.31-1A64.35,64.35,0,0,0,598.3,11.63Q583,22,572.82,40.26a109,109,0,0,0-11.43,32.68,212,212,0,0,0-3.33,38.66A235.54,235.54,0,0,0,561.92,155q3.87,20.53,14.07,35.31,10.15,15.82,24.75,23.73a63.19,63.19,0,0,0,30.41,7.9A65.78,65.78,0,0,0,646.8,220a82.3,82.3,0,0,0,14.2-4.75,156.34,156.34,0,0,0,14.43-7V125.67l-31.27,75.21a19.33,19.33,0,0,1-6.35,4,18.72,18.72,0,0,1-7,1.58q-7.76,0-14.43-7.19c-4.46-4.82-8.37-11.5-11.79-20a151.22,151.22,0,0,1-8.05-30.21,220.73,220.73,0,0,1-3-37.45,231.15,231.15,0,0,1,2.8-37.42A141.55,141.55,0,0,1,604.27,44.48Z"/><path class="cls-1" d="M826,17.78,841.13,5.46H775.05l14.43,14.07v84.7H743.8V20.58l13-15.12h-65l15.82,14.07V203.34L693.52,218.1h65.73L743.8,203.34V119.68h45.68v82.59L773,218.1h66.77L826,202.27Z"/><path class="cls-1" d="M1025.64,218.1l-20.37-15.47L951.15,5.13H896.33l22.13,17.55L869.61,199.81,845,218.1h65.35l-18.63-16.87L906.16,145h43.93l11.23,54.82-15.8,18.29Zm-116-86.1L928,57.49,946.58,132Z"/><path class="cls-1" d="M1143.77,218.1h54.12l-18.63-14.41-47.78-88.91c2.79,0,6.5-1.07,11.07-3.18a40.74,40.74,0,0,0,13-10c4.1-4.57,7.59-10.54,10.54-17.93s4.26-16.45,4-27.24q-.33-16.85-7.55-26.88a51.42,51.42,0,0,0-16.71-15.29,62.24,62.24,0,0,0-19.31-7,92.73,92.73,0,0,0-15.12-1.78h-67.12L1064,21.29V204l-23.53,14.07h81.88L1099.14,204V126ZM1099.85,18.82a56,56,0,0,1,20,4.22,40.35,40.35,0,0,1,14.25,11.43q6.45,7.89,7.19,23.37a55.47,55.47,0,0,1-1.22,15.3,40.25,40.25,0,0,1-4.42,11.23,26.74,26.74,0,0,1-6.66,7.72,38.58,38.58,0,0,1-7.74,4.75c-6.09,2.82-13.25,4.11-21.42,3.86Z"/><path class="cls-1" d="M1206,218.1h72.42L1263.23,203V16L1278,5.46h-73.44l16.53,11.61V203.69Z"/><path class="cls-1" d="M1285.41,5.46V78.93l23.19-57.29h18.62V204.38L1311.4,218.1h71l-15.45-14.41v-182h16.52l24.26,58V5.46Z"/><path class="cls-1" d="M1546.57,19.89l12.3-14.43h-44.29l12,14.43-26,60.08-26.7-60.08,10.52-14.43h-63.61l15.82,14.43,35.85,84v98l-14.05,16.18h66.06L1511.79,203V102.81Z"/></g></g></svg>