<svg xmlns="http://www.w3.org/2000/svg" viewBox="0 0 1062.5 221.96"><defs><style>.cls-1{fill:#fff;}</style></defs><title>Headstone_White</title><g id="Layer_2" data-name="Layer 2"><g id="Layer_1-2" data-name="Layer 1"><path class="cls-1" d="M88.29,48.16a.91.91,0,0,0,.9-1V44c0-23,0-25.57-.3-30.33-.3-4.31-1.49-6.83-6.39-7.87-1.19-.15-3.42-.3-5.2-.45-2.09,0-2.83-.89-2.83-1.49,0-.89.74-1.48,3-1.48,8.63,0,22,.44,23.49.44,1.34,0,18.43-.44,24.82-.44,2.23,0,3,.59,3,1.48S128,5.35,126.5,5.35c-2.53.3-3.42.3-5.21.6-3.86.59-5.05,3.12-5.5,7.87-.29,4.76-.29,8.63-.29,31.66V71.65c0,14.12,0,25.12.74,31.36.45,4.91,1.63,7.43,6.09,8.18,2.09.29,5.06.44,6.54.59,1.79,0,2.53.74,2.53,1.49,0,1-1.19,1.48-3,1.48-10.26,0-25.27-.44-27.95-.44-2.37,0-14,.44-21.25.44-2.68,0-3.27-.74-3.27-1.63s.89-1.34,2.82-1.34a45.61,45.61,0,0,0,4.61-.59c3.57-.75,4.46-3.57,4.9-8.33.6-6.24.9-15.61.9-29.73v-12a.86.86,0,0,0-.9-.89H41.92a.78.78,0,0,0-.89.89V76.55c0,14.12.14,20.22.74,26.61.45,4.31,1.78,7.13,6.24,7.88,3.12.44,4.61.59,6.25.74,1.63,0,2.82.45,2.82,1.49,0,.74-.74,1.48-3,1.48-8.48,0-26-.44-27.5-.44s-16.95.44-21.7.44c-1.64,0-3.27-.29-3.27-1.33s.59-1.64,2.52-1.64c1.79-.15,2.68-.3,4.61-.59,3.57-.45,4.91-4.31,5.2-8.77.45-6.25.75-16.65.75-30.77V45.78c0-23-.15-26.46-.45-31.21-.3-5.21-1.93-8-7.14-8.77C5.35,5.5,4.61,5.5,3,5.35.3,5.2,0,4.46,0,3.72c0-1,1.64-1.34,3.27-1.34,8.62,0,20.07.44,23.49.44,5.64,0,18.13-.44,24.52-.44C54,2.38,54.4,3,54.4,3.86s-.89,1.49-2.67,1.49a49.44,49.44,0,0,0-5.2.6c-4,.89-4.76,4.31-5.06,8.62C41,19.32,41,25.42,41,44v3.12c0,.74.44,1,.89,1Z"/><path class="cls-1" d="M162,45.48c0-24.22-.15-27.2-.45-31.95-.29-4.31-1.63-6.84-5.35-7.73-1.34-.3-3.42-.3-4.9-.45-1.94-.15-2.68-.74-2.68-1.63s.89-1.34,3.27-1.34c8.47,0,15.61.44,22.15.44,3.12,0,39.54-.14,41.92-.14a51.65,51.65,0,0,0,8-.6,10.73,10.73,0,0,1,2.38-.59c.75,0,.89.59.89,1.33s-.29,2.23-.74,6.54c-.44,3-.74,8.18-1.19,15.91,0,1.19-.59,2.08-1.48,2.08s-1.34-.74-1.49-2.08a17.61,17.61,0,0,0-.74-5.2c-.75-3.42-2.68-5.35-9.81-6-4.91-.45-17.84-.74-22.3-.74-.89,0-1.19.44-1.19,1.48V47.57c0,1,.15,1.78,1.19,1.78,4.16.15,16.2,0,21.55-.15,7.29-.3,9.22-.74,10.85-3.42.89-1.34,1.34-1.93,2.08-1.93.9,0,.9.89.9,1.78,0,1.49-.75,6.84-1.19,12.64-.15,3.42-.15,10.7-.15,12.34,0,1.93-.45,2.82-1.34,2.82s-1.34-1-1.63-2.38c-.15-1.19-.3-2.23-.45-3.42-.6-4.31-2.68-6.83-10-7.28-4.16-.3-16.35-.6-21-.6-.74,0-.89.75-.89,1.94V71.94c0,5.06-.15,13.83,0,19.48.15,10.4,2.23,12.78,18.73,12.78,3.86,0,9.66-.15,13.82-1.78s6-4.91,7.29-11.75c.29-1.78.89-2.67,1.78-2.67,1.19,0,1.34,1.48,1.34,3.27a122.35,122.35,0,0,1-2.38,19.92c-1,3.86-2.08,4-7.58,4-20.51,0-31.66-.89-47.27-.89-7,0-13.23.44-21.41.44-2.67,0-3.56-.44-3.56-1.48,0-.75.74-1.49,3-1.49a31,31,0,0,0,4.46-.59c4.16-.6,4.76-6.25,5-15.61.3-6,.45-14.72.45-23.93Z"/><path class="cls-1" d="M276.77,84c-.74,0-1,.3-1.34,1l-4.61,12.19a33.41,33.41,0,0,0-2.37,9.52c0,2.82,1.33,4.16,4.46,4.46,1.63.29,4,.44,5.2.59,2.23,0,2.67.74,2.67,1.49,0,1.19-1.19,1.48-3.12,1.48-6.69,0-11.74-.44-19.62-.44-1.63,0-11.44.44-18.88.44-2.08,0-3-.59-3-1.48,0-1.19,1-1.49,2.82-1.49a43.56,43.56,0,0,0,4.76-.59c5.2-1,8.18-5.65,11.3-12.79L294.76,8.62C297.58,2.23,299.22,0,300.85,0s2.82,2.08,5.35,7.43c3.87,8.33,28.84,65.26,38.95,87.85,5.05,11.6,8.32,15.16,13.52,15.91a30.53,30.53,0,0,0,4.76.59c1.93,0,2.82.6,2.82,1.49,0,1-1,1.48-3.86,1.48-14.57,0-31.51-.29-41-.44-2.37,0-3.27-.45-3.27-1.34s.75-1.49,2.08-1.78c1.64-.3,2.23-1.34,1.79-2.68L312,84.88a1.25,1.25,0,0,0-1.19-.9ZM306.5,72.09c.89,0,.89-.44.74-.74L294.16,39.54c-.44-1-.74-.74-1,0L280.49,71.35c-.15.45.14.74.59.74Z"/><path class="cls-1" d="M379.33,45.48c0-21.85,0-26-.3-30.76-.29-4.31-1-8.33-6.68-8.92-1.19-.15-2.68-.15-5.5-.45C364.62,5.2,364,4.46,364,3.72c0-.9.89-1.34,3.42-1.34,3.72,0,17.39.44,23.93.44,4.91,0,11.6-.14,24.08-.29,25.42.15,45.34,3.42,58.87,17.24,7.58,7.58,14.27,20.07,14.27,37.76,0,18-7.88,32.7-16.36,40.72-7.28,7.44-21,17.69-50.83,17.69-5.95,0-11-.15-15.91-.59-5.79-.6-11.89-1-14.71-1-3.57,0-7.14,0-11.3.15s-6.09.29-10.26.29c-2.52,0-3-.74-3-1.48,0-1,1.19-1.49,2.83-1.49a40.45,40.45,0,0,0,4.6-.59c3-.45,4.46-3.27,4.91-9.07.44-7.14.74-17.69.74-30.47Zm26.31,16.65c0,15.76.15,26,.3,28.84.3,6.09.89,9.07,2.53,10.7,2.67,3.27,8.77,5.35,15.31,5.35,10.4,0,19.17-2.23,27.05-10.4,7.73-7.73,9.66-21,9.66-34.93a58.13,58.13,0,0,0-11.15-34c-10.25-13.38-24.37-16.2-34.18-16.2-3.27,0-6.69.44-8,1.18-1.19.6-1.34,1.34-1.34,2.68.15,5-.15,15.76-.15,27.8Z"/><path class="cls-1" d="M509,112.67c-2.53-1-3.27-3-3.27-5.94a192.08,192.08,0,0,1,.89-21.85c.3-2.68.89-3.57,1.78-3.57s1.19,1.34,1.34,2.53a30.27,30.27,0,0,0,.74,4.6c2.53,12.19,13.68,19.18,25.27,19.18,14.13,0,18.44-7.29,18.44-13.68,0-6.24-1.19-11.44-13.83-20.06l-9.21-6.4C513,54.7,507.91,44.3,507.91,31.22,507.91,14.12,522,.3,545.81.3a82.22,82.22,0,0,1,17.1,1.48,64.89,64.89,0,0,1,7.28,1.79c1.49.44,1.93.89,1.93,2.08-.29,4.76-.59,7.73-.59,21,0,2.67-.45,3.71-1.64,3.71-.74,0-1.34-.44-1.63-2.82a20.78,20.78,0,0,0-2.68-8.62c-2.82-4.76-9.66-9.81-20.36-9.81-12.19,0-16.65,6.83-16.65,13.67,0,5.06,1.78,10.85,11.89,17.69l7.58,5c20.81,13.83,27.35,23.05,27.35,38.06,0,10.25-4.61,20.36-15.75,26.9-8.63,5.21-18.14,6.39-25.87,6.39C522.62,116.83,514.75,115.35,509,112.67Z"/><path class="cls-1" d="M650.75,71.65c0,11.59,0,25.41.75,31.66.29,3.86,1.33,7,5.79,7.73,1.94.29,3.72.44,6.4.74,2.37.15,3,.6,3,1.64,0,.89-.74,1.33-3.42,1.33-10.11,0-24.53-.44-26.9-.44-2.53,0-17,.44-21.86.44-2.37,0-3.41-.29-3.41-1.48,0-1,1.18-1.49,3-1.49,1.49-.15,3.12-.3,4.76-.59,3.27-.6,4.31-3.87,4.75-8.18.6-6.24.89-16.94.89-31.36V13.38c-5.79,0-15-.15-22.44.29-8.33.45-11.6,2.38-13.53,7.59a30.48,30.48,0,0,0-1.34,3.42c-.29,1.18-.74,2.37-1.78,2.37-1.34,0-1.34-1.19-1.19-3,.6-6.09,2.23-14.12,3.27-19.77.3-2.23.74-3.72,1.64-3.72s1.63.45,5,1.19c2.68.6,10.85,1,16.5,1h64.66a61.46,61.46,0,0,0,9.36-.59,37.2,37.2,0,0,1,4.61-.89c1.34,0,1.49.89,1.49,4.61,0,2.08-.89,15.9-1,19.62-.15,2.08-.6,3-1.49,3-1.19,0-1.48-.89-1.63-2.68-.15-1.63-.15-2.23-.3-3-.59-4.61-2.82-8.17-11.59-8.77-4.91-.45-12.64-.74-23.94-.74Z"/><path class="cls-1" d="M698.32,59C698.32,29.28,718.24.3,761.94.3c37.76,0,61.39,25.27,61.39,55.44,0,34.64-23.49,61.09-62.43,61.09C717.05,116.83,698.32,85.32,698.32,59Zm95.28,3.27c0-24.67-10.25-52.77-36.56-52.77-13.68,0-29,7.58-29,42.81,0,28.1,11.74,55,37.31,55C774.58,107.32,793.6,103.31,793.6,62.28Z"/><path class="cls-1" d="M852,7.28c.14-4.46.74-7.13,2.52-7.13,1.19,0,1.94.44,5.8,3.57,6.24,5.2,14,12.63,48,43.85,15.16,14,25.42,23.93,29.43,27.5l-.89-55.75c-.3-8.32-1-12.19-7-13.23a50.36,50.36,0,0,0-6.54-.74c-1.94,0-2.68-.74-2.68-1.49,0-1,1.34-1.48,3-1.48,6,0,15.61.44,21.56.44,3.27,0,10.7-.44,16.94-.44,2.23,0,3.27.44,3.27,1.34,0,.74-.74,1.63-2.53,1.63a17.68,17.68,0,0,0-3.71.45c-4.91.59-6.39,3.12-6.84,12.33-1.19,29.88-1.19,59.61-1.78,89.49,0,7.58-1,9.21-3,9.21-2.37,0-7-3.56-16.64-12C920.84,95.88,907.76,84.13,898.84,76c-8.32-7.58-23.19-21.56-34-32.11l1.49,50.69c.29,10.7.89,14.71,5.05,16.2,2.23.74,4.91.74,7.88,1,2.23.15,3,.6,3,1.49,0,1.19-1.19,1.48-3.57,1.48-5.2,0-10-.29-19.17-.44-3.42,0-14.42.44-20.22.44-2.08,0-3.27-.29-3.27-1.48,0-.89.75-1.49,2.83-1.49,1.33-.15,3.27-.15,4.9-.45,5.8-.89,6.54-4.6,7-18.43C851.42,62.28,851.12,26.46,852,7.28Z"/><path class="cls-1" d="M993.23,45.48c0-24.22-.15-27.2-.45-31.95-.3-4.31-1.63-6.84-5.35-7.73-1.34-.3-3.42-.3-4.91-.45-1.93-.15-2.67-.74-2.67-1.63s.89-1.34,3.27-1.34c8.47,0,15.61.44,22.15.44,3.12,0,39.54-.14,41.91-.14a51.69,51.69,0,0,0,8-.6,10.73,10.73,0,0,1,2.38-.59c.74,0,.89.59.89,1.33s-.3,2.23-.74,6.54c-.45,3-.74,8.18-1.19,15.91,0,1.19-.6,2.08-1.49,2.08-.74,0-1.33-.74-1.48-2.08a17.33,17.33,0,0,0-.75-5.2c-.74-3.42-2.67-5.35-9.81-6-4.9-.45-17.83-.74-22.29-.74-.9,0-1.19.44-1.19,1.48V47.57c0,1,.15,1.78,1.19,1.78,4.16.15,16.2,0,21.55-.15,7.28-.3,9.22-.74,10.85-3.42.89-1.34,1.34-1.93,2.08-1.93s.89.89.89,1.78c0,1.49-.74,6.84-1.19,12.64-.14,3.42-.14,10.7-.14,12.34,0,1.93-.45,2.82-1.34,2.82-1,0-1.34-1-1.64-2.38-.15-1.19-.29-2.23-.44-3.42-.6-4.31-2.68-6.83-10-7.28-4.16-.3-16.35-.6-21-.6-.74,0-.89.75-.89,1.94V71.94c0,5.06-.15,13.83,0,19.48.15,10.4,2.23,12.78,18.73,12.78,3.86,0,9.66-.15,13.82-1.78s6-4.91,7.28-11.75c.3-1.78.9-2.67,1.79-2.67,1.19,0,1.34,1.48,1.34,3.27a122.35,122.35,0,0,1-2.38,19.92c-1,3.86-2.08,4-7.58,4-20.52,0-31.67-.89-47.27-.89-7,0-13.23.44-21.41.44-2.67,0-3.57-.44-3.57-1.48,0-.75.75-1.49,3-1.49a31,31,0,0,0,4.46-.59c4.16-.6,4.75-6.25,5-15.61.3-6,.45-14.72.45-23.93Z"/><path class="cls-1" d="M114.86,163c0-20-.12-21.49-.37-25.42-.24-4.42-1.22-6.51-4.66-7.24a40.94,40.94,0,0,0-4.18-.49c-1.35,0-2.45-.25-2.45-1.23s.86-1.23,2.82-1.23c7.12,0,13.39.37,18.79.37l36.1-.12a29,29,0,0,0,6.26-.62,9.34,9.34,0,0,1,2.33-.37.86.86,0,0,1,.74,1.11c-.13.86-.62,3.31-.86,6.26s-.62,6.88-.86,11.79c-.12,1.59-.49,2.09-1.35,2.09s-1.11-.74-1.23-2a22.74,22.74,0,0,0-.49-3.81c-.74-2.7-2.58-4.66-8.1-5-4.55-.37-15.84-.61-19.77-.61-.74,0-1,.37-1,1.35v27.87c0,.86.12,1.47,1,1.47,3.56.12,12.15,0,16.94-.12,6.75-.25,8.35-.37,9.95-2.82.73-1.11,1.1-1.6,1.72-1.6s.85.86.85,1.6c0,1.22-.73,5.64-1,9.94-.12,2.7-.24,9-.24,10.31s-.13,2.46-1.11,2.46c-.73,0-1.23-.74-1.23-2.09-.12-.86-.24-1.72-.36-2.7-.5-3.31-2.21-5.52-8.11-6-3.56-.25-14.12-.37-17.68-.37-.61,0-.73.49-.73,1.59v8.47c0,11.79,0,19.53.61,24.68.37,3.56,1.1,6,5.65,6.76,1.72.24,2.94.36,4.17.49,1.84,0,2.7.37,2.7,1.1s-.37,1.35-2.7,1.35c-6.87,0-7.86-.37-20.75-.37-8.72,0-16,.37-19,.37-1.84,0-2.58-.49-2.58-1.22s.37-1.11,2.21-1.23c1.23-.13,1.84-.25,3.19-.49,3.32-.49,3.93-3.69,4.3-8.72.49-6.63.49-12.16.49-23.94Z"/><path class="cls-1" d="M183.62,174.2c0-24.56,16.45-48.5,52.55-48.5,31.19,0,50.71,20.87,50.71,45.8,0,28.61-19.4,50.46-51.57,50.46C199.09,222,183.62,195.93,183.62,174.2Zm78.7,2.7c0-20.38-8.47-43.59-30.2-43.59-11.3,0-23.94,6.27-23.94,35.37,0,23.2,9.69,45.42,30.81,45.42C246.61,214.1,262.32,210.79,262.32,176.9Z"/><path class="cls-1" d="M310.08,163c0-19-.25-21.49-.37-25.42-.25-5-1.72-6.63-4.67-7.24a45.48,45.48,0,0,0-4.91-.49c-1.47-.13-2.21-.62-2.21-1.35s.86-1.11,2.7-1.11c5.28,0,17.07.37,18.79.37,2.33,0,14.12-.37,19.77-.37,11.54,0,19.64,1.11,25,4.18a20.83,20.83,0,0,1,11.18,18.78c0,10.31-5.9,18.17-16.46,24.68,7.49,10.8,16.46,23.94,23.94,32.54,6.51,7.24,9.46,9.33,12.9,9.82,1.35.24,2.08.24,3.07.37,1.35,0,2.08.49,2.08,1.23,0,1.1-1.22,1.22-2.45,1.22H387.43c-12.65,0-18.05-1.22-22.35-4.05-3.93-2.33-7.86-7.61-12.64-15.35-5.65-9.33-8.48-14.36-10.69-17.68a1.92,1.92,0,0,0-1.47-.73h-8.1c-.62,0-1,.24-1,1v6.26c0,9.7,0,15.47.62,20.63.24,3.19,1.1,5.89,4.79,6.75a30.67,30.67,0,0,0,5.52.74c2,.12,2.21.61,2.21,1.35s-.86,1.1-2.58,1.1c-8.22,0-21.61-.37-22.47-.37-1.47,0-13.38.37-17.55.37-1.84,0-2.46-.37-2.46-1.22s.86-1.23,2.21-1.23,2.83-.25,4.18-.49c2.45-.62,3.43-2.83,3.8-7,.49-5.16.62-13.75.62-25.66Zm21.11,8.22a1.8,1.8,0,0,0,1.11,1.85c2.33,1.22,6,1.59,9.45,1.59s5.77-.49,7.74-2c2.58-2,4.79-7.25,4.79-15.47,0-17.44-11-22-17.44-22a16.66,16.66,0,0,0-4.91.49c-.49.25-.74.37-.74,1.35Z"/><path class="cls-1" d="M450.54,194.83c-.62,0-.86.24-1.11.86l-3.81,10.07a27.66,27.66,0,0,0-2,7.85c0,2.34,1.1,3.44,3.68,3.69,1.35.24,3.32.36,4.3.49,1.84,0,2.21.61,2.21,1.23,0,1-1,1.22-2.58,1.22-5.52,0-9.7-.37-16.2-.37-1.36,0-9.46.37-15.6.37-1.72,0-2.45-.49-2.45-1.22,0-1,.86-1.23,2.33-1.23a37.61,37.61,0,0,0,3.93-.49c4.3-.86,6.75-4.67,9.33-10.56l32.78-74.16c2.33-5.28,3.69-7.12,5-7.12s2.33,1.72,4.42,6.14c3.19,6.87,23.82,53.9,32.16,72.56,4.18,9.58,6.88,12.52,11.18,13.14a26.3,26.3,0,0,0,3.93.49c1.59,0,2.33.49,2.33,1.23s-.86,1.22-3.19,1.22c-12,0-26-.24-33.89-.37-2,0-2.7-.36-2.7-1.1s.61-1.23,1.72-1.47c1.35-.25,1.84-1.11,1.47-2.21l-8.23-19.53a1,1,0,0,0-1-.73ZM475.09,185c.74,0,.74-.37.62-.62L464.9,158.12c-.37-.86-.61-.62-.86,0l-10.43,26.27c-.13.37.12.62.49.62Z"/><path class="cls-1" d="M630.41,165.24c.36,0,.73-.25.73-.86V161.8c0-19,0-21.12-.24-25.05-.25-3.56-1.23-5.65-5.28-6.5-1-.13-2.83-.25-4.3-.37-1.72,0-2.33-.74-2.33-1.23,0-.74.61-1.23,2.45-1.23,7.12,0,18.17.37,19.4.37s15.23-.37,20.51-.37c1.84,0,2.45.49,2.45,1.23s-.61,1.23-1.84,1.23c-2.09.24-2.82.24-4.3.49-3.19.49-4.17,2.58-4.54,6.51s-.24,7.12-.24,26.15v21.61c0,11.66,0,20.75.61,25.9.37,4.06,1.35,6.14,5,6.76,1.72.24,4.18.36,5.41.49,1.47,0,2.08.61,2.08,1.23,0,.85-1,1.22-2.45,1.22-8.47,0-20.88-.37-23.09-.37-2,0-11.54.37-17.55.37-2.21,0-2.7-.61-2.7-1.35s.73-1.1,2.33-1.1c1.23-.13,2.7-.25,3.8-.49,2.95-.62,3.69-3,4.06-6.88.49-5.16.73-12.89.73-24.56v-9.94a.71.71,0,0,0-.73-.74H592.1a.65.65,0,0,0-.74.74v12.77c0,11.66.13,16.7.62,22,.36,3.56,1.47,5.89,5.15,6.5,2.58.37,3.81.49,5.16.62s2.33.37,2.33,1.23c0,.61-.61,1.22-2.45,1.22-7,0-21.49-.37-22.72-.37s-14,.37-17.92.37c-1.35,0-2.7-.24-2.7-1.1s.49-1.35,2.08-1.35,2.21-.25,3.81-.49c2.95-.37,4-3.56,4.3-7.25.36-5.15.61-13.75.61-25.41V163.27c0-19-.12-21.85-.37-25.78-.24-4.3-1.59-6.63-5.89-7.24a34.58,34.58,0,0,0-3.44-.37c-2.21-.13-2.46-.74-2.46-1.35,0-.86,1.36-1.11,2.71-1.11,7.12,0,16.57.37,19.4.37,4.66,0,15-.37,20.25-.37,2.21,0,2.58.49,2.58,1.23s-.73,1.23-2.21,1.23a39.42,39.42,0,0,0-4.29.49c-3.32.73-3.93,3.56-4.18,7.12-.37,3.93-.37,9-.37,24.31v2.58c0,.61.37.86.74.86Z"/><path class="cls-1" d="M689.21,163c0-20-.13-22.47-.37-26.4-.25-3.56-1.35-5.65-4.42-6.38a39.48,39.48,0,0,0-4.06-.37c-1.59-.13-2.21-.62-2.21-1.35s.74-1.11,2.71-1.11c7,0,12.89.37,18.29.37l34.62-.12a43.77,43.77,0,0,0,6.63-.49,8.91,8.91,0,0,1,2-.5c.61,0,.74.5.74,1.11s-.25,1.84-.62,5.4c-.37,2.46-.61,6.75-1,13.14,0,1-.49,1.72-1.23,1.72s-1.1-.62-1.23-1.72a14.51,14.51,0,0,0-.61-4.3c-.61-2.82-2.21-4.42-8.1-4.91-4.06-.37-14.74-.61-18.42-.61-.74,0-1,.37-1,1.22v27c0,.86.12,1.47,1,1.47,3.44.12,13.38,0,17.8-.12,6-.25,7.61-.62,9-2.83.73-1.1,1.1-1.59,1.71-1.59s.74.73.74,1.47c0,1.23-.61,5.65-1,10.44-.12,2.82-.12,8.84-.12,10.19,0,1.59-.37,2.33-1.11,2.33s-1.1-.86-1.35-2-.25-1.85-.37-2.83c-.49-3.56-2.21-5.65-8.22-6-3.44-.25-13.51-.5-17.32-.5-.61,0-.73.62-.73,1.6v8.47c0,4.18-.13,11.42,0,16.09.12,8.59,1.84,10.56,15.47,10.56,3.19,0,8-.13,11.42-1.48s4.91-4.05,6-9.7c.25-1.47.74-2.21,1.48-2.21,1,0,1.1,1.23,1.1,2.7a101.29,101.29,0,0,1-2,16.46c-.86,3.19-1.72,3.31-6.27,3.31-16.94,0-26.15-.74-39-.74-5.77,0-10.93.37-17.68.37-2.21,0-3-.37-3-1.22,0-.62.62-1.23,2.46-1.23a26.24,26.24,0,0,0,3.68-.49c3.44-.49,3.93-5.16,4.18-12.9.24-4.91.37-12.15.37-19.76Z"/><path class="cls-1" d="M770.49,163c0-19-.25-21.49-.37-25.42-.24-5-1.72-6.63-4.66-7.24a45.86,45.86,0,0,0-4.92-.49c-1.47-.13-2.21-.62-2.21-1.35s.86-1.11,2.71-1.11c5.28,0,17.06.37,18.78.37,2.33,0,14.12-.37,19.77-.37,11.54,0,19.64,1.11,25,4.18a20.84,20.84,0,0,1,11.17,18.78c0,10.31-5.89,18.17-16.45,24.68,7.49,10.8,16.45,23.94,23.94,32.54,6.51,7.24,9.45,9.33,12.89,9.82,1.35.24,2.09.24,3.07.37,1.35,0,2.09.49,2.09,1.23,0,1.1-1.23,1.22-2.46,1.22h-11c-12.65,0-18.05-1.22-22.34-4.05-3.93-2.33-7.86-7.61-12.65-15.35-5.65-9.33-8.47-14.36-10.68-17.68a2,2,0,0,0-1.48-.73h-8.1c-.61,0-1,.24-1,1v6.26c0,9.7,0,15.47.61,20.63.25,3.19,1.11,5.89,4.79,6.75a30.67,30.67,0,0,0,5.53.74c2,.12,2.21.61,2.21,1.35s-.86,1.1-2.58,1.1c-8.23,0-21.61-.37-22.47-.37-1.48,0-13.38.37-17.56.37-1.84,0-2.45-.37-2.45-1.22s.85-1.23,2.21-1.23,2.82-.25,4.17-.49c2.46-.62,3.44-2.83,3.81-7,.49-5.16.61-13.75.61-25.66Zm21.12,8.22a1.81,1.81,0,0,0,1.1,1.85c2.34,1.22,6,1.59,9.46,1.59s5.77-.49,7.73-2c2.58-2,4.79-7.25,4.79-15.47,0-17.44-11.05-22-17.43-22a16.69,16.69,0,0,0-4.92.49c-.49.25-.73.37-.73,1.35Z"/><path class="cls-1" d="M857.66,174.2c0-24.56,16.45-48.5,52.55-48.5,31.18,0,50.7,20.87,50.7,45.8,0,28.61-19.4,50.46-51.56,50.46C873.13,222,857.66,195.93,857.66,174.2Zm78.7,2.7c0-20.38-8.47-43.59-30.21-43.59-11.29,0-23.94,6.27-23.94,35.37,0,23.2,9.7,45.42,30.82,45.42C920.64,214.1,936.36,210.79,936.36,176.9Z"/></g></g></svg>