<svg xmlns="http://www.w3.org/2000/svg" viewBox="0 0 787.18 219.96"><defs><style>.cls-1{fill:#fff;fill-rule:evenodd;}</style></defs><title>StJude_White</title><g id="Layer_2" data-name="Layer 2"><g id="Layer_1-2" data-name="Layer 1"><path class="cls-1" d="M93.22,49.76c-4.69-15-12.76-33.2-34.62-33.2C41.4,16.56,32,29,32,43.8,32,58.33,42.44,67.92,62.5,77l6.76,3.12C89.58,89.2,108.31,103,108.31,130c0,30.86-24.19,52.68-59.36,52.68a83.1,83.1,0,0,1-26-4.41c-7.29-2.33-12-4.4-15.11-5.45C5.74,166,2.61,148.39,0,132.54L7.82,130c5.22,13.48,19.27,42.31,46.09,42.31,16.92,0,27.34-13.24,27.34-29.34,0-14.53-7-24.93-27.6-35l-8.34-4.17c-17.18-8.8-39.05-22.56-39.05-48,0-27.24,20.56-49.56,55.46-49.56,7,0,16.41,1,23.69,3.63,4.17,1.58,7.81,2.09,10.94,3.38,1.05,9.08,2.61,20.5,5.2,35l-8.33,1.56Z"/><path class="cls-1" d="M194,160.71a31.06,31.06,0,0,1-15,4.54c-4.93,0-14.06-3.46-14.06-24.22V75.31h23.91c3.46-2.13,4.43-9,1.47-12.26H165V29.16h-4.65c-2.47,4.68-8.9,14.46-20.74,18V63.05H122.83V75.31h16.75V150.1c0,22.07,9.13,31.66,27.61,31.66,2,0,4.45-.54,8.13-2.67L197,167.38l-3-6.67Z"/><path class="cls-1" d="M215.84,162.47c0-10,6.92-17.42,15.69-17.42,9.21,0,16.13,7.46,16.13,17.42,0,11-6.92,17.94-16.13,17.94-8.77,0-15.69-7-15.69-17.94Z"/><path class="cls-1" d="M350.75,54.87c0-30.75-2.1-33-24-34.76V12.16h74.38v8c-18.74,1.73-20.83,4-20.83,34.76v74.54c0,31-2.39,55.79-25.59,74.31A85.55,85.55,0,0,1,323.08,220l-3.19-8c17.68-8.8,24.53-21.64,27.71-36.72,2.65-13.66,3.15-30.18,3.15-49.54V54.87Z"/><path class="cls-1" d="M458,137.91c0,18.79,9.51,24.36,18.75,24.36,7.31,0,15.36-3.3,23.15-10.41V89c0-9.35-1.46-10.38-9.74-11.9l-6.83-1.26V69.72c11.46-.51,31.18-3.29,41.67-4.56v86.19c0,10.67,1.46,12.43,8,12.43h9.27v7.11c-12.92,1.54-29,6.08-40.46,9.13l-1.95-2V161.51c-4.88,3.81-9.74,7.6-15.12,11.14-7.54,4.84-13.39,7.37-20.21,7.37-19.48,0-31.67-12.18-31.67-34.24V89c0-9.35-2.44-10.62-7.8-11.65l-6.59-1.51V69.72c10-.51,28.51-3.29,39.49-4.56v72.75Z"/><path class="cls-1" d="M671.93,161.43c-7.39,0-9-1.39-9-14V0C649.2,3.42,630.47,7.44,617,9.7v7.41c18.22,1.16,18.73,1.73,18.73,18v16a112.66,112.66,0,0,0-12.94-1.45c-40.93,0-70.49,31.1-70.49,69,0,42,30.12,61.6,53.09,61.6,2.64,0,6.35-1.14,11.34-4.29l19-11.7v16.54c18.25-6.84,41.18-10.23,46-11.39v-8Zm-36.18-7.12c-6.08,4.57-12.67,7.12-19.79,7.12-13.72,0-32.48-15.07-32.48-49.61,0-44.77,22.18-50.16,29.59-50.16,9.48,0,17.93,3.71,22.68,12.83Z"/><path class="cls-1" d="M756.57,161.92c-19,0-38.94-13.93-38.45-47.67,27.57-1.09,60.18-3.77,63.73-4.29,4.79-1,5.33-1.59,5.33-11.53,0-19.27-16.45-38.27-37.69-38.27-33.39,0-56.89,32.93-56.38,66.39.49,31.34,19.95,56.27,53.07,56.27,7.1,0,26.06-5.38,40.46-27.6l-3.53-4.55C773.24,158.72,765.16,161.92,756.57,161.92ZM742.65,70.61c11.14,0,19,13.93,19,24.64,0,5.87-1,7.49-4.52,7.49l-37.69.52C721.41,83.19,732,70.61,742.65,70.61Z"/></g></g></svg>