<svg xmlns="http://www.w3.org/2000/svg" viewBox="0 0 2127.73 221.96"><defs><style>.cls-1{fill:#fff;}</style></defs><title>Adventure_White</title><g id="Layer_2" data-name="Layer 2"><g id="Layer_1-2" data-name="Layer 1"><path class="cls-1" d="M250.05,216.11H134V204.39a143.37,143.37,0,0,0,19-2.93q10.95-2.33,10.95-5.78a18.44,18.44,0,0,0-.23-2.7,19.05,19.05,0,0,0-1.28-4.06l-18.18-44.15H70.68q-2.54,6.16-5.6,14.42t-5.3,14.72a77.38,77.38,0,0,0-3.36,12.16,44.91,44.91,0,0,0-.53,5.26q0,4.8,7.28,8.18t24.23,4.88v11.72H0V204.39a79.41,79.41,0,0,0,11.19-1.58A29.92,29.92,0,0,0,21,199.29a38.26,38.26,0,0,0,10.44-8.86A47,47,0,0,0,38.6,178Q56,135.77,73.51,93.41T112.18,0h30q29.43,72.39,46.1,114.44t28.39,69.68a34.65,34.65,0,0,0,4.95,8.18,32.13,32.13,0,0,0,8.56,7,34.11,34.11,0,0,0,9.76,3.6,70.33,70.33,0,0,0,10.07,1.5Zm-112-86.21-30.85-77-30.39,77Z"/><path class="cls-1" d="M443.92,24.93a96.82,96.82,0,0,1,31.54,34q12,21.25,12,52,0,27-10.74,47.08a95.17,95.17,0,0,1-28.46,32.82,128.39,128.39,0,0,1-40.92,19,181.81,181.81,0,0,1-48,6.24H252V204.39q4.8-.15,12-.9t9.61-1.8q5.42-2.25,7.51-6.08a19,19,0,0,0,2.1-9.24V35.29a21.34,21.34,0,0,0-2-9.23c-1.3-2.76-3.85-5-7.66-6.69a44.72,44.72,0,0,0-12.09-3.45q-6.37-.9-9.83-1.2V3H365.08A178.25,178.25,0,0,1,404,7.66,120.68,120.68,0,0,1,443.92,24.93ZM413.29,177.66q7.35-12,10.74-28.61a193.21,193.21,0,0,0,3.37-38.22,154.19,154.19,0,0,0-4.5-38.59q-4.5-17.43-13.22-29.74A60.38,60.38,0,0,0,388,23.43q-13-6.76-29.51-6.76-5.25,0-11.94.22c-4.45.16-7.78.28-10,.38V179a29.19,29.19,0,0,0,1.42,9.54,17.53,17.53,0,0,0,4.88,7.28,24,24,0,0,0,8.49,4.88,41.35,41.35,0,0,0,13.14,1.73q17,0,29.13-6.31A49.76,49.76,0,0,0,413.29,177.66Z"/><path class="cls-1" d="M734.28,15a48.14,48.14,0,0,0-9.46,1.8,42,42,0,0,0-9.31,4.2,37.07,37.07,0,0,0-10,8,54.39,54.39,0,0,0-7,11.79q-4.65,10.36-13.06,30.26t-19.23,45.28q-9.62,22.83-20.8,50t-21.4,52.11H593.87q-21-51.51-42.8-104.68T520.43,40a51,51,0,0,0-6.68-11.34q-3.24-3.83-10.29-7.89a44.71,44.71,0,0,0-9-4,77.61,77.61,0,0,0-10.36-2V3H599.57V14.42q-16.2,2-22,4.13c-3.86,1.45-5.78,3.28-5.78,5.48a12.77,12.77,0,0,0,.53,3.53q.52,1.88,1.57,5,4.8,13.2,17.42,43.13T628.71,167q15.16-37.35,25.22-63.15t17.72-45.6q3.75-9.6,6.23-17.94t2.48-12.54q0-4.8-6.91-8T647.93,15V3h86.35Z"/><path class="cls-1" d="M927.41,57.37H916q-4.37-12.12-15-24.54T879.81,18.17a67.26,67.26,0,0,0-12.54-1.28q-8-.23-13.29-.22H823V98.82H845a53.65,53.65,0,0,0,15-2,28.56,28.56,0,0,0,12.32-7.5q3.45-3.47,7-12.17A72.48,72.48,0,0,0,883.86,62h11.41v88.91H883.86a76,76,0,0,0-4.58-15.85q-3.67-9.53-7-13.14a25.72,25.72,0,0,0-11.72-7.43,54.47,54.47,0,0,0-15.61-2H823v61.43a64.18,64.18,0,0,0,1.43,15.24,15.12,15.12,0,0,0,5.33,8.63q3.75,2.86,10.28,3.76a137.38,137.38,0,0,0,17.8.9q5.25,0,12.62-.15a115.27,115.27,0,0,0,12.91-.9,80.86,80.86,0,0,0,11.79-2.25,17.36,17.36,0,0,0,8.18-4.36q7.22-7.35,16.22-22.45t11.87-22.6h11l-4,66.38H738.49V204.39q4.2-.3,11.41-1.2a45.87,45.87,0,0,0,10.21-2.1q5.71-2.4,7.66-6.08a20,20,0,0,0,2-9.39V35.29a20.94,20.94,0,0,0-1.66-8.93c-1.1-2.36-3.75-4.48-8-6.39a53.85,53.85,0,0,0-11-3.3q-7.06-1.5-10.66-2V3H927.41Z"/><path class="cls-1" d="M1202.87,14.72q-4.2.45-12,1.65a31.42,31.42,0,0,0-14.12,5.86q-5.55,4.05-7.88,13.89T1166.53,65V217.31H1139.8L1007,52.56v100q0,18.63,2.48,28.31t8,14.19q4.07,3.3,12.92,5.86a138.66,138.66,0,0,0,14.11,3.45v11.72H953V204.39a92.84,92.84,0,0,0,13.44-2.18,35.37,35.37,0,0,0,12.69-5.33q5.85-4.35,8-13.14t2.18-29.51V53.31A42.92,42.92,0,0,0,987,39.12a29.19,29.19,0,0,0-7.28-11.49,39.71,39.71,0,0,0-12.09-8A75,75,0,0,0,952.07,15V3h80.22l116.52,144.11V66.51q0-19.22-2.56-28.6T1138.15,24q-4.37-3.45-12.92-5.92a131.07,131.07,0,0,0-13.82-3.38V3h91.46Z"/><path class="cls-1" d="M1414.32,64h-11.71Q1398,50.32,1387.7,34.69t-19-16.82q-4.8-.6-11.84-1.05t-12.14-.45h-7V183.52a22.07,22.07,0,0,0,2,9.53q2,4.14,7.66,6.54a67.54,67.54,0,0,0,10.74,2.77c4.85,1,9,1.63,12.39,2v11.72H1251.68V204.39l12.24-1.27q7.88-.83,10.74-2,5.85-2.4,7.81-6.46a22,22,0,0,0,2-9.61V16.37h-7q-5.1,0-12.14.45t-11.84,1.05q-8.69,1.2-19,16.82T1219.54,64h-11.71V3h206.49Z"/><path class="cls-1" d="M1669.81,14.72q-4.36.45-12.54,2a35.17,35.17,0,0,0-13.74,5.49q-5.71,3.75-8,13.51T1633.16,65v79.29q0,35-23.72,56.32T1546.66,222q-45.51,0-70.43-20.57T1451.3,144V35a18.74,18.74,0,0,0-2-9q-2-3.75-7.73-6.76a40.26,40.26,0,0,0-9.61-3.15c-3.81-.8-6.91-1.35-9.32-1.65V3h111.74V14.42a95.39,95.39,0,0,0-9.76,1.12A70.36,70.36,0,0,0,1514.52,18q-5.7,1.8-7.66,6a22.23,22.23,0,0,0-1.95,9.46V141q0,31.68,13.95,46.1t40.49,14.42q26.1,0,40.94-15.92t14.85-46.86V66.53q0-19.23-2.63-28.76t-8-13.74q-3.92-3.3-13.59-6a138.14,138.14,0,0,0-13.59-3.3V3h92.51Z"/><path class="cls-1" d="M1925.41,216.11h-81.78q-21.17-32.45-35.19-51.67T1773.55,120h-8.23v64.73a19,19,0,0,0,2,9.16q2,3.75,7.73,6.31a52,52,0,0,0,8.94,2.47,101.58,101.58,0,0,0,10.43,1.73v11.72H1680.77V204.39q4.35-.45,11.49-1.27a43.78,43.78,0,0,0,10.13-2q5.71-2.4,7.66-6.08a20,20,0,0,0,2-9.39V35.29a21.48,21.48,0,0,0-1.66-9q-1.65-3.6-8-6.31a65.66,65.66,0,0,0-11.33-3.3q-6.54-1.35-10.29-2V3h119.54q40.1,0,60.9,12.54T1882,53.46q0,22.38-12.84,36t-39.12,21.25q10.2,13.21,23.8,30.64t28.31,35.59q4.65,5.85,12.69,14.34T1909,201.69a59.4,59.4,0,0,0,8.78,1.8q5.34.75,7.59.9ZM1823.14,57.67q0-21.33-11.94-31.16t-34-9.84h-11.86v89.21h11.41q22.08,0,34.24-11.57T1823.14,57.67Z"/><path class="cls-1" d="M2112.71,57.37H2101.3q-4.35-12.12-15-24.54t-21.17-14.66a67.26,67.26,0,0,0-12.54-1.28q-8-.23-13.29-.22h-30.94V98.82h21.93a53.65,53.65,0,0,0,15-2,28.56,28.56,0,0,0,12.32-7.5q3.45-3.47,7-12.17A72.48,72.48,0,0,0,2069.16,62h11.42v88.91h-11.42a76,76,0,0,0-4.58-15.85q-3.67-9.53-7-13.14a25.72,25.72,0,0,0-11.72-7.43,54.47,54.47,0,0,0-15.61-2h-21.93v61.43a64.18,64.18,0,0,0,1.43,15.24,15.12,15.12,0,0,0,5.33,8.63q3.75,2.86,10.29,3.76a137.1,137.1,0,0,0,17.79.9q5.27,0,12.62-.15a115.27,115.27,0,0,0,12.91-.9,80.86,80.86,0,0,0,11.79-2.25,17.45,17.45,0,0,0,8.19-4.36q7.2-7.35,16.21-22.45t11.87-22.6h11l-4.05,66.38H1923.79V204.39q4.2-.3,11.41-1.2a46.13,46.13,0,0,0,10.22-2.1q5.7-2.4,7.65-6.08a20,20,0,0,0,2-9.39V35.29a21.1,21.1,0,0,0-1.65-8.93c-1.11-2.36-3.76-4.48-8-6.39a54.18,54.18,0,0,0-11-3.3q-7-1.5-10.66-2V3h188.92Z"/></g></g></svg>