<svg xmlns="http://www.w3.org/2000/svg" viewBox="0 0 701.24 221.96"><defs><style>.cls-1{fill:#fff;}</style></defs><title>Relief_White</title><g id="Layer_2" data-name="Layer 2"><g id="Layer_1-2" data-name="Layer 1"><path class="cls-1" d="M78.5,125.7H54.1v54.89a79.55,79.55,0,0,0,.8,12.73,13.81,13.81,0,0,0,3.31,7.43q2.52,2.66,7.56,3.58a79.73,79.73,0,0,0,13.79.93v13q-6.37-.27-17.24-.53t-22.67-.27q-11.8,0-22.68.14t-17,.66V205.52a105.76,105.76,0,0,0,13.39-.66A13.24,13.24,0,0,0,21,201.68c1.77-1.68,2.87-4.2,3.32-7.56a114.84,114.84,0,0,0,.66-14.06V53.3a75.64,75.64,0,0,0-.8-12.46,12.1,12.1,0,0,0-3.31-6.9c-1.69-1.59-4.2-2.65-7.56-3.18A88.66,88.66,0,0,0,0,30V17.5q7.43,0,18.17.13t22.27.14H62.58q10.61,0,17.51-.27,19.62,0,32.22,5.31t19.76,13.12a44.18,44.18,0,0,1,9.94,17,57.6,57.6,0,0,1,2.78,16.57,47.09,47.09,0,0,1-3.31,17.77A56.64,56.64,0,0,1,132.86,102a54.43,54.43,0,0,1-12.07,11,46,46,0,0,1-13.65,6.36q4.77,8,11,17.51t12.86,19q6.63,9.42,13,17.9T155.14,188a70.06,70.06,0,0,0,13.12,12.06q7.29,5.17,19,5.18v13q-11.4-.8-23.86-.8t-22.54.8q-7.69-10.08-16-22.28T108.2,171.31Q100,158.85,92.29,147.05T78.5,125.7ZM54.1,110.85l13.79.53q12.72,0,21.48-3.58a40.55,40.55,0,0,0,14.19-9.28,34.15,34.15,0,0,0,7.82-12.86,45.13,45.13,0,0,0,2.39-14.32,53,53,0,0,0-2.26-15.92A31,31,0,0,0,104.09,43a34.36,34.36,0,0,0-13.66-8.22q-8.49-2.91-21-2.92H60.07a28.37,28.37,0,0,0-6,.53Z"/><path class="cls-1" d="M290.88,140.81h-74v10.35c0,1.94.08,4.15.26,6.63a63.16,63.16,0,0,0,3.32,17.5,48.41,48.41,0,0,0,7.29,13.79,33,33,0,0,0,10.74,9.15,29.14,29.14,0,0,0,13.92,3.31,35.35,35.35,0,0,0,19.23-5.43,75.78,75.78,0,0,0,17.1-15.52L300.7,188a75,75,0,0,1-22,24.4Q265.17,222,247.39,222a53.05,53.05,0,0,1-23.07-5A56,56,0,0,1,206,203.13,65,65,0,0,1,194,182.71a70.27,70.27,0,0,1-4.38-24.92,98.82,98.82,0,0,1,4.38-30.5,66.83,66.83,0,0,1,12.33-22.94,53.77,53.77,0,0,1,42.16-19.49,56.16,56.16,0,0,1,17.64,2.92,48,48,0,0,1,15.78,8.62,45.54,45.54,0,0,1,11.4,14.45,44.06,44.06,0,0,1,4.51,20.42,28.79,28.79,0,0,1-.66,7.42C296.67,140.11,294.6,140.81,290.88,140.81ZM219,126.49h46.14c2.12,0,3.32-.17,3.58-.53s.4-1.5.4-3.44a24.59,24.59,0,0,0-5.84-15.65,22.93,22.93,0,0,0-7-5.57,19.76,19.76,0,0,0-9.15-2.12q-11.94,0-19,7.69T219,126.49Z"/><path class="cls-1" d="M333.61,187.75V43.49q0-6.63-.27-10.21a8.6,8.6,0,0,0-1.85-5.3c-1.07-1.15-2.79-1.77-5.18-1.86s-5.79-.13-10.2-.13V15.38q20.14-2.64,32.61-14h14.59q-.8,8.22-1.33,17.1t-.53,15V187.75a46.78,46.78,0,0,0,.67,8.75,10.09,10.09,0,0,0,2.65,5.44,10.23,10.23,0,0,0,5.57,2.65,54.69,54.69,0,0,0,9.68.67V218c-4.43-.17-9.51-.31-15.25-.39s-11.59-.14-17.51-.14-11.71.09-17.37.27-10.6.35-14.85.53v-13a78.33,78.33,0,0,0,10.35-.53,9.62,9.62,0,0,0,5.57-2.39,8.74,8.74,0,0,0,2.25-5.31A83.59,83.59,0,0,0,333.61,187.75Z"/><path class="cls-1" d="M441.3,117.21v73.46a65.57,65.57,0,0,0,.4,8.22,5.91,5.91,0,0,0,2.25,4.24,11.84,11.84,0,0,0,5.57,1.73c2.48.26,5.92.4,10.35.4v12.46q-9.28,0-17-.27c-5.13-.17-10.07-.26-14.85-.26-5.13,0-10.38,0-15.78.13s-11.18.22-17.37.4V205.26q6.63,0,10.35-.27a10.12,10.12,0,0,0,5.57-1.72,6.43,6.43,0,0,0,2.25-4.38,63.69,63.69,0,0,0,.4-8.22V127c0-4.25-.09-7.6-.27-10.08a10.06,10.06,0,0,0-1.85-5.7,6.75,6.75,0,0,0-4.64-2.39,70.09,70.09,0,0,0-8.62-.4V97.85a74.05,74.05,0,0,0,16.7-4.11,43,43,0,0,0,13.53-8.61h14.58A161.89,161.89,0,0,0,441.57,102Q441.3,110.86,441.3,117.21ZM426.45,14.85a18.2,18.2,0,0,1,13.39,5.44,17,17,0,0,1,5.44,12.33q0,6.63-5.44,11.93a18.4,18.4,0,0,1-13.39,5.31,17.94,17.94,0,0,1-7.29-1.46,22.29,22.29,0,0,1-6-3.85A16.84,16.84,0,0,1,409.08,39a15.18,15.18,0,0,1-1.46-6.36q0-6.9,5.57-12.33A18.34,18.34,0,0,1,426.45,14.85Z"/><path class="cls-1" d="M577.9,140.81h-74v10.35c0,1.94.08,4.15.26,6.63a63.16,63.16,0,0,0,3.32,17.5,48.41,48.41,0,0,0,7.29,13.79,33,33,0,0,0,10.74,9.15,29.14,29.14,0,0,0,13.92,3.31,35.35,35.35,0,0,0,19.23-5.43,75.78,75.78,0,0,0,17.1-15.52L587.72,188a75,75,0,0,1-22,24.4Q552.19,222,534.41,222a53.05,53.05,0,0,1-23.07-5A56,56,0,0,1,493,203.13,65.18,65.18,0,0,1,481,182.71a70.27,70.27,0,0,1-4.38-24.92,98.82,98.82,0,0,1,4.38-30.5,67,67,0,0,1,12.33-22.94,53.81,53.81,0,0,1,42.16-19.49,56.16,56.16,0,0,1,17.64,2.92,48,48,0,0,1,15.78,8.62,45.54,45.54,0,0,1,11.4,14.45,43.93,43.93,0,0,1,4.51,20.42,28.33,28.33,0,0,1-.66,7.42C583.69,140.11,581.62,140.81,577.9,140.81ZM506,126.49h46.14c2.12,0,3.32-.17,3.58-.53s.4-1.5.4-3.44a24.59,24.59,0,0,0-5.84-15.65,22.93,22.93,0,0,0-7-5.57,19.76,19.76,0,0,0-9.15-2.12q-11.94,0-19,7.69T506,126.49Z"/><path class="cls-1" d="M652.19,92.29h35.26v17H652.19V190.4a27.15,27.15,0,0,0,.92,8,7.77,7.77,0,0,0,3.72,4.51,19,19,0,0,0,7.82,2q5,.39,13,.4V218q-7.7-.25-17.63-.39t-20.42-.14q-10.49,0-20.42.27t-17.11.53v-13a76.48,76.48,0,0,0,11.27-.67,15.49,15.49,0,0,0,6.77-2.38,8.88,8.88,0,0,0,3.31-4.78,26.25,26.25,0,0,0,.93-7.56V109.26H605V99.45a42.21,42.21,0,0,0,13.66-4.51q5.7-3.18,5.7-11.14A113.37,113.37,0,0,1,629.78,50a95.88,95.88,0,0,1,7-16.44,58.77,58.77,0,0,1,10.08-13.66q11.14-11.4,21-15.65T682.42,0c5.65,0,10.21,1.15,13.65,3.45s5.17,5.74,5.17,10.34A8.73,8.73,0,0,1,699.65,19a14.86,14.86,0,0,1-4,3.85,18.12,18.12,0,0,1-5.31,2.38,21.22,21.22,0,0,1-5.57.8,35.13,35.13,0,0,1-6-.4,21.2,21.2,0,0,1-4-1.06,25.26,25.26,0,0,0-3.45-1.06,19.65,19.65,0,0,0-4.37-.4,8.58,8.58,0,0,0-6.1,2.52,22.47,22.47,0,0,0-4.64,6.63,39.18,39.18,0,0,0-3,9.15,48.63,48.63,0,0,0-1.06,10.08Z"/></g></g></svg>