<svg xmlns="http://www.w3.org/2000/svg" viewBox="0 0 1135.51 221.96"><defs><style>.cls-1{fill:#fff;}</style></defs><title>Deluxe_White</title><g id="Layer_2" data-name="Layer 2"><g id="Layer_1-2" data-name="Layer 1"><path class="cls-1" d="M182.71,2.4c-32.49-4.79-65.45-.69-98.27-2C56.27,72.89,28.24,145.1,0,217.81H87.82c77.93,0,135.94-46.4,153.21-122.42C252.63,44.32,231.51,9.6,182.71,2.4Zm5.71,97.81C176,150.7,140.5,178.57,88.64,178.55H64.26c18-46.36,35.89-92.2,53.83-138.28,14.66.61,29.38-1.34,43.84,2.16C187.4,48.6,196.31,68.11,188.42,100.21Z"/><path class="cls-1" d="M775.37.75c-7.08,17.94-13.83,35.84-21.16,53.49-15.61,37.55-27.05,76.86-47,112.59-29.25,52.37-84.36,62-127.75,51.2-33.75-8.38-47.79-38.51-36.35-78.09,13.79-47.72,35.45-92.61,52-139.27h49.56c-8.31,21-16.66,41.83-24.76,62.73-9.19,23.71-18.6,47.34-27.06,71.32-4.69,13.29-6.69,27.67,6,38,13,10.62,28.2,8.7,42.24,2,18.6-8.82,27.09-26.35,34.24-44.3,17.16-43.12,34-86.36,51-129.68Z"/><path class="cls-1" d="M881.81,107.72c8.61,38.41,16.62,74.14,24.67,110.07H850.87c-2.24-28.45-10.22-56.35-9.28-84.27-21.51,30.26-50.34,55.45-74.49,84.32H708.2L818.83,104.23,795.88.79h57c1.23,28,8.34,55.35,6.5,84.67,8.32-16.51,21.73-27.6,33.28-40.24,13.17-14.41,26.65-28.55,40-42.78.7-.73,1.73-1.65,2.61-1.65,18.27-.1,36.53-.07,57.47-.07C954.54,37.6,917.71,73.11,881.81,107.72Z"/><path class="cls-1" d="M1044.3,40.19c-6.29,16.36-12.55,32.62-18.94,49.21h70.82c-5.3,13.52-10.46,26.66-15.66,39.95H1010l-19.29,49h81.13l-15.37,39.43H926.13Q968.51,109.13,1010.74.84h124.77l-15.16,39.35Z"/><path class="cls-1" d="M344,40.28c-6.37,16.41-12.64,32.59-19.07,49.16h70.8l-15.65,39.65h-70.5c-6.53,16.51-12.95,32.75-19.55,49.46h81.22l-15.18,39.22H226L310.21.73H435.38L420,40.28Z"/><path class="cls-1" d="M527.71,177.65c-5.28,13.7-10.38,26.94-15.5,40.21H382.7L467,.66H516.3l-69,177Z"/></g></g></svg>