<svg xmlns="http://www.w3.org/2000/svg" viewBox="0 0 701.76 221.96"><defs><style>.cls-1{fill:#fff;}</style></defs><title>Hope_White</title><g id="Layer_2" data-name="Layer 2"><g id="Layer_1-2" data-name="Layer 1"><path class="cls-1" d="M180.12,214.76a23.36,23.36,0,0,1-17,6.9,22.12,22.12,0,0,1-9.15-1.95,24.7,24.7,0,0,1-7.49-5.1,25,25,0,0,1-5.1-7.34,21,21,0,0,1-2-9v-69H47.69V219H0V24.6a23.11,23.11,0,0,1,7.05-17,23.09,23.09,0,0,1,17-7Q34.49.6,41.09,7.8q6.6,6.6,6.6,16.8V88.19h91.49V3.3l48-.6V198A22.58,22.58,0,0,1,180.12,214.76Z"/><path class="cls-1" d="M340.56,9a102.63,102.63,0,0,1,33,24.29A111.68,111.68,0,0,1,395,68.69a120.72,120.72,0,0,1,0,84.58,110.1,110.1,0,0,1-21.59,35.4A104.19,104.19,0,0,1,340.26,213,103.15,103.15,0,0,1,256,213a102.48,102.48,0,0,1-33-24.29,113.54,113.54,0,0,1-21.59-35.4,115.59,115.59,0,0,1-7.8-42.29,116.45,116.45,0,0,1,7.8-42.59,110.27,110.27,0,0,1,21.74-35.25A105.45,105.45,0,0,1,256.28,9a103.15,103.15,0,0,1,84.28,0Zm10.5,77.84A71.6,71.6,0,0,0,340.86,64a53,53,0,0,0-17.69-16.2q-10.8-6.14-25.5-6.15-14.1,0-24.6,6.15a54.42,54.42,0,0,0-17.39,16,70.36,70.36,0,0,0-10.2,22.2,95.55,95.55,0,0,0,0,49.79,70.31,70.31,0,0,0,10.2,22.19,54.42,54.42,0,0,0,17.39,16.05q10.5,6.15,24.6,6.15t24.75-5.85a54.6,54.6,0,0,0,17.69-15.3,68.08,68.08,0,0,0,10.65-21.59,87.71,87.71,0,0,0,3.6-25A102,102,0,0,0,351.06,86.84Z"/><path class="cls-1" d="M564.56,103.33a67.5,67.5,0,0,1-14.85,22,71.64,71.64,0,0,1-22.49,14.85,84.21,84.21,0,0,1-28.05,6.45q-2.7.3-8.4.45t-12.29.15h-20.1v12.59q0,9-.3,19.2a181.92,181.92,0,0,1-1.5,19.05q-1.2,8.85-3.3,11.84a38.9,38.9,0,0,1-7.8,7.95,16.77,16.77,0,0,1-10.5,3.45,23.18,23.18,0,0,1-17.24-7.2,23.59,23.59,0,0,1-7.05-17.09V3l49.49-.3a262,262,0,0,1,56.39,6,67.67,67.67,0,0,1,34.49,18.45q14.4,14.25,18,36.14A78.84,78.84,0,0,1,570,75,71.91,71.91,0,0,1,564.56,103.33Zm-105.88,2.25h33.59a29.36,29.36,0,0,0,11.85-2.4,31,31,0,0,0,9.75-6.6,31.6,31.6,0,0,0,6.6-9.59,28.48,28.48,0,0,0,2.4-11.7,29.69,29.69,0,0,0-9-21.45,32.48,32.48,0,0,0-9.75-6.45A29.53,29.53,0,0,0,492.27,45H458.68Z"/><path class="cls-1" d="M588.53,216.86a25.21,25.21,0,0,1-7.5-5.4,24.11,24.11,0,0,1-4.95-7.79,24.82,24.82,0,0,1-1.8-9.3V2.7l9.45.15q8.55.15,18.74.15h74.69a19.74,19.74,0,0,1,14.7,6.15,20.49,20.49,0,0,1,6,14.85,20.2,20.2,0,0,1-6.15,14.84A20.23,20.23,0,0,1,676.86,45H622V90.28h48.89a21.54,21.54,0,0,1,8.85,1.8,27.65,27.65,0,0,1,7.35,4.8,18.08,18.08,0,0,1,6,14.1,19.17,19.17,0,0,1-6.45,14.85,21.82,21.82,0,0,1-15.15,5.85H622V177h79.79v42H598A21.37,21.37,0,0,1,588.53,216.86Z"/></g></g></svg>