<svg xmlns="http://www.w3.org/2000/svg" viewBox="0 0 1669.88 216.66"><defs><style>.cls-1{fill:#fff;}</style></defs><title>Recovery_White</title><g id="Layer_2" data-name="Layer 2"><g id="Layer_1-2" data-name="Layer 1"><path class="cls-1" d="M49,84c8.19-42.83,8.69-48.36,10.1-57.2,1.6-11.33-1.1-14.93-7.6-16.31-4.07-.83-8.58-.83-11.06-1.1-3.33-.28-4.81-1.39-4.49-3s2.45-2.49,6.67-2.49c12.13,0,39,.83,43,.83,5.36,0,32.58-.83,45.55-.83,26.49,0,44.62,2.49,55.7,9.39C199,20.45,208.4,34.54,204.39,55.55,199.94,78.76,183,96.45,156,111.09c12.54,24.32,27.46,53.89,40.95,73.24,11.82,16.3,17.69,21,25.37,22.11,3,.55,4.69.55,6.89.82,3.1,0,4.58,1.11,4.26,2.77-.47,2.49-3.34,2.76-6.16,2.76H201.93c-29,0-40.91-2.76-49.56-9.12-8-5.25-14.76-17.13-22.43-34.54-9-21-13.26-32.34-16.91-39.8a3.52,3.52,0,0,0-3.06-1.65H91.36a2.4,2.4,0,0,0-2.68,2.21L86,144c-4.18,21.83-6.66,34.82-7.48,46.43-.81,7.18,0,13.26,8.09,15.2,3.74,1.1,6.84,1.1,12.37,1.65,4.46.28,4.81,1.39,4.49,3s-2.45,2.49-6.39,2.49c-18.89,0-49.46-.83-51.43-.83-3.38,0-30.89.83-40.47.83C.94,212.79-.31,212,.06,210s2.5-2.77,5.6-2.77c2.88-.27,6.59-.55,9.8-1.1,5.9-1.38,9.11-6.36,11.75-15.75,3.35-11.61,7.33-30.95,12.46-57.76Zm44.94,18.52c-.42,2.21.21,3.31,1.74,4.14,4.83,2.77,13.13,3.59,21,3.59,7.61,0,13.46-1.1,18.61-4.42,6.76-4.42,14.11-16.3,17.65-34.82,7.51-39.24-15.91-49.46-30.56-49.46-4.51,0-9.36.27-11.49,1.1-1.23.55-1.85.83-2.27,3Z"/><path class="cls-1" d="M276.46,83.75c8.79-45,9.58-50.57,10.73-59.41,1-8-.68-12.72-7.54-14.37-2.48-.56-6.5-.56-9.32-.83-3.68-.28-4.9-1.38-4.58-3s2.21-2.49,6.81-2.49c16.37,0,30,.83,42.64.83,6,0,76.47-.28,81.07-.28A110.22,110.22,0,0,0,412,3.06,24.05,24.05,0,0,1,416.81,2c1.43,0,1.51,1.11,1.24,2.49s-1.39,4.14-3.81,12.16c-1.94,5.53-4.4,15.2-8.07,29.57-.43,2.21-1.9,3.87-3.62,3.87-1.44,0-2.32-1.38-2.12-3.87a30.78,30.78,0,0,0,.45-9.67c-.2-6.36-3.23-9.95-16.81-11.06-9.32-.83-34.2-1.38-42.82-1.38-1.72,0-2.46.83-2.84,2.76l-11.85,60.8c-.38,1.94-.36,3.32,1.65,3.32,8,.27,31.31,0,41.71-.28,14.19-.55,18.08-1.38,22.21-6.35,2.21-2.49,3.29-3.6,4.72-3.6,1.73,0,1.4,1.66,1.08,3.32-.54,2.76-3.91,12.71-6.88,23.49-1.52,6.36-4.16,19.9-4.76,22.94-.7,3.59-1.88,5.25-3.61,5.25-2,0-2.21-1.94-2.29-4.42.14-2.22.23-4.15.37-6.36.42-8-2.69-12.71-16.6-13.54-7.94-.55-31.39-1.11-40.3-1.11-1.43,0-2,1.38-2.42,3.6l-3.72,19.06c-1.83,9.4-5.3,25.7-7.06,36.21-3.48,19.34-.32,23.76,31.57,23.76,7.47,0,18.72-.27,27.36-3.31s13.27-9.12,18.33-21.84q1.84-5,4.42-5c2.3,0,2.05,2.76,1.4,6.08-2.1,10.78-9.36,31.78-11.82,37-3.41,7.19-5.47,7.46-16.1,7.46-39.65,0-60.87-1.66-91-1.66-13.51,0-25.73.83-41.53.83-5.18,0-6.74-.83-6.36-2.76.27-1.38,2-2.76,6.28-2.76A65.11,65.11,0,0,0,242,205.9c8.26-1.1,11.45-11.61,15.42-29,2.73-11,6.2-27.36,9.54-44.49Z"/><path class="cls-1" d="M428.93,186.26C406.2,163.05,403.8,134.58,409.35,105,412.87,86.22,425.65,52,458,28.46,485.52,8.29,514.71,0,554.78,0A235.66,235.66,0,0,1,593.4,3.32c12.08,1.93,18.45,3.31,26.69,3.59,3,.28,2.68,1.93,2.36,3.59-.41,2.21-2.48,8.84-4.8,18.24-2.26,9.12-5,25.43-6.89,32.33-1.06,4.15-2.08,6.64-4.56,6.64-2.21,0-2.68-1.94-2.23-5.81.86-6.08,1.83-17.13-5.42-27.08C590.79,24.6,572.8,17.41,546,17.41c-16.31,0-30.57,3.87-43.11,13.27C483.27,45.32,471,71,465.45,100.59c-10.68,56.93,13.12,95.07,59.54,95.07,22.66,0,37.12-1.94,50.18-14.1,4.65-4.14,8.83-10.22,12.59-18.51,2.47-5.81,3.66-7.74,5.88-7.74,1.93,0,1.69,2.76,1.27,5-.88,4.7-8.7,28.75-14,42-1.33,4.15-3.68,6.36-8.68,8-11.89,4.43-31,6.36-48.73,6.36C487.62,216.66,453.38,210.58,428.93,186.26Z"/><path class="cls-1" d="M624.08,109.16C634.44,53.89,681.58,0,762.83,0,833,0,868.15,47,857.63,103.08c-12.08,64.39-65,113.58-137.37,113.58C638.74,216.66,614.9,158.07,624.08,109.16Zm176,6.08c8.6-45.88-.67-98.11-49.58-98.11-25.43,0-56.53,14.1-68.82,79.59C671.88,149,684.33,199,731.87,199,749,199,785.77,191.51,800.08,115.24Z"/><path class="cls-1" d="M877.81,31.78c-4.52-17.13-7.1-19.62-16.13-21.55a26.32,26.32,0,0,0-6.2-.83c-2.94-.56-4.11-1.66-3.85-3,.36-1.94,2.67-2.49,6.27-2.49,14.92,0,30.79.83,41.85.83,9.67,0,24.75-.83,46.3-.83,4.15,0,6.15,1.1,5.84,2.76s-2.17,2.77-4.66,2.77a52.33,52.33,0,0,0-7.62.83c-7.39,1.1-9.07,4.14-9.59,6.9-.67,3.6,0,9.12,2.42,21,6.67,33.71,16.35,74.89,22.73,107.22,16.09-25.42,57.53-93.13,71.53-119.11a28.77,28.77,0,0,0,3.92-9.12c.67-3.59-.62-5.52-5.44-6.35a74.09,74.09,0,0,0-10.8-1.38c-3.54-.28-4.76-1.11-4.45-2.77s1.9-2.76,6.59-2.76c18.24,0,31.63.83,35.78.83s22.26-.83,30.83-.83c4.14,0,5.92.83,5.56,2.76s-1.9,2.77-5.5,2.77c-3.36.27-7.79.27-12.62,2.48-6.32,2.77-11.28,8.57-22.08,24.88-15.51,23.76-29.66,46.15-52,81.24-25,39.24-41.65,64.39-51.53,78.76-11.07,16.31-14.51,19.9-18.1,19.9-3.87,0-5.36-3.87-8.22-16.58Z"/><path class="cls-1" d="M1102.37,83.78c8.74-45,9.53-50.5,10.67-59.33,1-8-.68-12.7-7.5-14.35-2.47-.56-6.47-.56-9.28-.83-3.67-.28-4.88-1.38-4.56-3s2.2-2.48,6.78-2.48c16.3,0,29.86.83,42.45.83,6,0,76.12-.28,80.7-.28a109.1,109.1,0,0,0,15.66-1.1,23.93,23.93,0,0,1,4.79-1.11c1.43,0,1.5,1.11,1.23,2.49s-1.38,4.14-3.79,12.14c-1.93,5.52-4.38,15.18-8,29.53-.43,2.21-1.89,3.86-3.61,3.86-1.43,0-2.3-1.38-2.11-3.86a30.73,30.73,0,0,0,.45-9.66c-.2-6.35-3.22-9.94-16.73-11-9.28-.83-34-1.38-42.63-1.38-1.72,0-2.45.83-2.82,2.76l-11.8,60.72c-.38,1.93-.36,3.31,1.64,3.31,7.95.28,31.17,0,41.52-.28,14.12-.55,18-1.38,22.11-6.34,2.2-2.49,3.27-3.59,4.7-3.59,1.72,0,1.4,1.65,1.08,3.31-.54,2.76-3.9,12.7-6.85,23.46-1.52,6.35-4.15,19.87-4.74,22.91-.7,3.58-1.88,5.24-3.59,5.24-2,0-2.2-1.93-2.29-4.42.14-2.2.23-4.14.38-6.34.41-8-2.68-12.7-16.54-13.53-7.9-.55-31.24-1.1-40.11-1.1-1.43,0-2,1.38-2.41,3.59l-3.7,19c-1.83,9.38-5.28,25.67-7,36.15-3.47,19.32-.32,23.74,31.42,23.74,7.44,0,18.65-.28,27.24-3.31s13.21-9.11,18.25-21.81q1.83-5,4.4-5c2.29,0,2,2.76,1.4,6.07-2.1,10.76-9.32,31.74-11.77,37-3.39,7.18-5.45,7.45-16,7.45-39.47,0-60.59-1.65-90.62-1.65-13.44,0-25.62.82-41.35.82-5.14,0-6.7-.82-6.32-2.76.26-1.38,2-2.76,6.25-2.76a63.05,63.05,0,0,0,8.8-1.1c8.22-1.1,11.4-11.59,15.35-29,2.72-11,6.17-27.32,9.5-44.43Z"/><path class="cls-1" d="M1267.44,84c8.2-42.83,8.7-48.36,10.11-57.2,1.6-11.33-1.1-14.93-7.6-16.31-4.07-.83-8.58-.83-11.07-1.1-3.33-.28-4.81-1.39-4.5-3s2.46-2.49,6.69-2.49c12.12,0,39,.83,43,.83,5.36,0,32.6-.83,45.57-.83,26.51,0,44.65,2.49,55.74,9.39,12.16,7.19,21.59,21.28,17.57,42.29-4.44,23.21-21.37,40.9-48.43,55.54,12.55,24.32,27.48,53.89,41,73.24,11.83,16.3,17.7,21,25.39,22.11,3,.55,4.69.55,6.89.82,3.1,0,4.58,1.11,4.27,2.77-.48,2.49-3.35,2.76-6.17,2.76h-25.39c-29,0-40.93-2.76-49.59-9.12-8-5.25-14.77-17.13-22.43-34.54-9-21-13.28-32.34-16.92-39.8a3.56,3.56,0,0,0-3.07-1.65h-18.62a2.4,2.4,0,0,0-2.68,2.21l-2.7,14.09c-4.17,21.83-6.66,34.82-7.47,46.43-.81,7.18,0,13.26,8.09,15.2,3.73,1.1,6.84,1.1,12.37,1.65,4.46.28,4.82,1.39,4.5,3s-2.45,2.49-6.4,2.49c-18.9,0-49.48-.83-51.46-.83-3.38,0-30.9.83-40.49.83-4.23,0-5.48-.83-5.11-2.76s2.5-2.77,5.6-2.77c2.88-.27,6.6-.55,9.81-1.1,5.9-1.38,9.11-6.36,11.75-15.75,3.35-11.61,7.34-30.95,12.47-57.76Zm45,18.52c-.42,2.21.21,3.31,1.75,4.14,4.83,2.77,13.13,3.59,21,3.59,7.61,0,13.46-1.1,18.61-4.42,6.77-4.42,14.12-16.3,17.67-34.82,7.51-39.24-15.92-49.46-30.58-49.46-4.52,0-9.37.27-11.5,1.1-1.23.55-1.85.83-2.27,3Z"/><path class="cls-1" d="M1501.66,141.22c2.88-14.93.82-20.45-2.26-29.57-6.91-18.8-26.29-64.39-33.25-78.49-7.72-16-10.16-19.62-18.74-22.38a44.69,44.69,0,0,0-7.13-1.38c-2.8-.28-4-1.39-3.69-3,.38-1.94,2.76-2.49,6.18-2.49,11.67,0,32.87.83,43.7.83,4.84,0,22.94-.83,40.88-.83,3.13,0,5.31.55,5,2.21-.43,2.21-2,2.76-6.4,3.59-7.85.83-9.52,3.59-10,5.81-.37,1.93,0,4.42,1.3,8,3,8,26.75,69.36,29.71,77.66,23.51-31.79,44.23-59.42,51.78-70.47,4-5.81,6.59-10.51,7.28-14.1.59-3-.64-5.53-8.92-6.91-2.45-.55-4.57-1.38-4.2-3.31.32-1.66,2.19-2.49,6.75-2.49,11.68,0,21.2.83,32,.83,4,0,27.5-.83,32.91-.83,3.42,0,5.59.55,5.22,2.49-.43,2.21-2.58,3-6.29,3A54.36,54.36,0,0,0,1652,11.61c-8.56,3-12.32,7.73-18.67,14.09-11.93,11.61-65.74,79.31-72,90.92a89.26,89.26,0,0,0-9.63,26.25L1548,162.5c-.85,4.42-3,15.75-4.43,27.35-.77,6.91-1.53,13.82,8.63,15.76,4.91,1.1,10.61,1.1,15.34,1.65,3.37.28,4.35,1.11,4,3-.26,1.39-1.9,2.49-6.17,2.49-20.51,0-44-.83-53.38-.83-8.26,0-31.49.83-44.31.83-4,0-5.48-1.1-5.11-3,.27-1.38,2.19-2.49,5.61-2.49,4.67-.55,7.51-.55,10.24-1.38,7.77-1.93,10.44-6.91,12.56-14.92,3.1-11.61,5.79-24,6.64-28.46Z"/></g></g></svg>