<svg xmlns="http://www.w3.org/2000/svg" viewBox="0 0 849.22 221.96"><defs><style>.cls-1{fill:#fff;}</style></defs><title>Classic_White</title><g id="Layer_2" data-name="Layer 2"><g id="Layer_1-2" data-name="Layer 1"><path class="cls-1" d="M46.08,45q5.1-12.62,11.74-20.15c4.44-5,9.21-7.77,14.36-8.24,6.06-.71,10.64-.11,13.67,1.76L117,85.63V13.1a25.8,25.8,0,0,0-8.41-7,57.2,57.2,0,0,0-13.5-4.19Q86.55.12,72.89.84A64.12,64.12,0,0,0,40.13,12.23Q24.88,22.55,14.72,40.77A108.2,108.2,0,0,0,3.33,73.38,210.26,210.26,0,0,0,0,111.91a235.77,235.77,0,0,0,3.84,43.28q3.87,20.52,14,35.23Q28,206.2,42.57,214.08A63,63,0,0,0,72.89,222,65.64,65.64,0,0,0,88.5,220a84.49,84.49,0,0,0,14.16-4.73q7.35-3.17,14.38-7V125.94l-31.19,75a19.06,19.06,0,0,1-6.32,4,18.87,18.87,0,0,1-7,1.58c-5.15,0-10-2.4-14.36-7.2s-8.37-11.43-11.77-20a152.25,152.25,0,0,1-8-30.14,219.4,219.4,0,0,1-3-37.34,233.35,233.35,0,0,1,2.8-37.31A140.68,140.68,0,0,1,46.08,45Z"/><path class="cls-1" d="M205.6,203.56H181.41V17.05L198.25,5.13H122.52l17.18,14v185.1l-17.18,13h108V125.72Z"/><path class="cls-1" d="M413.16,217.41,392.82,202,338.89,5.13H284.24L306.3,22.64,257.63,199.19,233.1,217.41h65.15l-18.56-16.82,14.36-56.05h43.79l11.21,54.65-15.78,18.22Zm-115.6-85.83,18.22-74.25,18.56,74.25Z"/><path class="cls-1" d="M533.42,155.93a52.56,52.56,0,0,0-3.89-16.21,73.64,73.64,0,0,0-10.92-17.78A219.44,219.44,0,0,0,498,100.1q-11.62-10.92-22.37-20.26A121.09,121.09,0,0,1,458.21,61.7q-6.69-8.79-7.76-17.09t7.05-17.42c3.76-4.24,7.79-6.75,12.14-7.57a41.35,41.35,0,0,1,12.52-.53,66.49,66.49,0,0,1,13.74,4.57l29.21,62.7V13.8a57.31,57.31,0,0,0-11.94-5.63,95.81,95.81,0,0,0-15.34-3.71,137.46,137.46,0,0,0-22.35-1.58,58.76,58.76,0,0,0-24.66,5.29A52.61,52.61,0,0,0,431.44,23,51.92,51.92,0,0,0,421,46q-2.64,13.56,2.28,29.77a51.83,51.83,0,0,0,6,13,85.56,85.56,0,0,0,9.53,12c3.75,4,7.92,8.06,12.49,12.17s9.7,8.5,15.34,13.2q10.56,9.17,19.89,18.31A43.15,43.15,0,0,1,498.72,166a67.84,67.84,0,0,1,1.58,12.34,28.83,28.83,0,0,1-1.76,11.1,23.51,23.51,0,0,1-5.81,8.79,21.48,21.48,0,0,1-10.57,5.13,32.93,32.93,0,0,1-12.85.86,42,42,0,0,1-10-2.64,25.75,25.75,0,0,1-8.83-5.28L423,124.76v81.35a35.24,35.24,0,0,0,10.92,6.35,86.27,86.27,0,0,0,16.54,4.4,134.91,134.91,0,0,0,26.43,1.59,98.72,98.72,0,0,0,16.36-1.59,58.62,58.62,0,0,0,18.16-6.33A45.07,45.07,0,0,0,526.56,197c4.21-5.88,6.57-13.74,7-23.6Q533.93,163.86,533.42,155.93Z"/><path class="cls-1" d="M654.38,155.93a52.25,52.25,0,0,0-3.88-16.21,74.28,74.28,0,0,0-10.92-17.78A219.44,219.44,0,0,0,619,100.1q-11.62-10.92-22.37-20.26A121.09,121.09,0,0,1,579.18,61.7q-6.69-8.79-7.77-17.09t7.06-17.42c3.75-4.24,7.79-6.75,12.14-7.57a41.23,41.23,0,0,1,12.5-.53,66.45,66.45,0,0,1,13.76,4.57l29.21,62.7V13.8a57.31,57.31,0,0,0-11.94-5.63A96.08,96.08,0,0,0,618.8,4.46a137.46,137.46,0,0,0-22.35-1.58,58.76,58.76,0,0,0-24.66,5.29A52.61,52.61,0,0,0,552.41,23,51.71,51.71,0,0,0,542,46q-2.62,13.56,2.29,29.77a51.83,51.83,0,0,0,6,13,85.46,85.46,0,0,0,9.52,12c3.75,4,7.93,8.06,12.5,12.17s9.7,8.5,15.34,13.2q10.54,9.17,19.89,18.31A43.22,43.22,0,0,1,619.69,166a67.8,67.8,0,0,1,1.57,12.34,28.64,28.64,0,0,1-1.75,11.1,23.63,23.63,0,0,1-5.81,8.79,21.5,21.5,0,0,1-10.59,5.13,32.82,32.82,0,0,1-12.83.86,41.58,41.58,0,0,1-10-2.64,25.89,25.89,0,0,1-8.84-5.28L544,124.76v81.35a35.42,35.42,0,0,0,10.93,6.35,86.34,86.34,0,0,0,16.53,4.4,135.08,135.08,0,0,0,26.44,1.59,98.82,98.82,0,0,0,16.36-1.59,58.56,58.56,0,0,0,18.15-6.33A45.26,45.26,0,0,0,647.52,197q6.33-8.82,7-23.6C654.78,167,654.71,161.21,654.38,155.93Z"/><path class="cls-1" d="M652,217.23h72.23l-15.1-15.09V15.65L723.83,5.13H650.56l16.49,11.56V202.85Z"/><path class="cls-1" d="M778.06,44.48q5.09-12.64,11.78-20.2c4.44-5.06,9.24-7.79,14.39-8.28,6.1-.69,10.67-.11,13.74,1.76l31.25,67.49V12.5a25.72,25.72,0,0,0-8.43-7,57.72,57.72,0,0,0-13.55-4.22q-8.61-1.72-22.3-1a64.39,64.39,0,0,0-32.85,11.41Q756.81,22,746.61,40.26A108.66,108.66,0,0,0,735.2,72.94a210,210,0,0,0-3.35,38.66,234.3,234.3,0,0,0,3.86,43.4q3.85,20.57,14.07,35.33,10.15,15.81,24.77,23.73a63,63,0,0,0,30.39,7.9A66.88,66.88,0,0,0,820.59,220a85.81,85.81,0,0,0,14.22-4.75,158.51,158.51,0,0,0,14.41-7V125.65L818,200.87a19.4,19.4,0,0,1-6.35,4,18.85,18.85,0,0,1-7,1.58q-7.77,0-14.43-7.21t-11.77-20A149.57,149.57,0,0,1,770.33,149a221.17,221.17,0,0,1-3-37.42,232.34,232.34,0,0,1,2.79-37.42A142,142,0,0,1,778.06,44.48Z"/></g></g></svg>