<svg xmlns="http://www.w3.org/2000/svg" viewBox="0 0 857.4 221.96"><defs><style>.cls-1{fill:#fff;}</style></defs><title>Cures_White</title><g id="Layer_2" data-name="Layer 2"><g id="Layer_1-2" data-name="Layer 1"><path class="cls-1" d="M199.77,161.9c-4.57,15.67-12.73,40.48-18.28,51.58-8.82,2-37.87,8.48-60.72,8.48C36.23,222,0,165.49,0,113.92,0,46,51.9,0,128.28,0,154.72,0,178.22,6.85,187,8.81c2.61,18,4.89,32.64,7.18,51.9L182.79,63c-9.79-37.21-33-49.62-61.69-49.62-49.94,0-77,45.05-77,94,0,60.06,33.29,100.54,79.64,100.54,29.7,0,48.64-17.63,65.28-50.27Z"/><path class="cls-1" d="M411.43,206.47c-21.77,3.22-44.75,8.46-68.54,14.51l-2.82-2.82v-25.8c-8.07,6-14.12,11.69-23.79,17.33C304.59,217,294.51,221,282.81,221c-31.45,0-52-19.75-52-58.46V81.07c0-20.56-1.21-22.18-23-27V42.77a580.56,580.56,0,0,0,68.54-6.86C275.55,51.23,275.15,71,275.15,96v56.85c0,29.84,15.32,39.11,30.65,39.11,12.09,0,23.38-3.63,34.27-14.11V81.07c0-21.37-1.62-23-27.82-27V42.77a574.3,574.3,0,0,0,72.17-6.86V168.16c0,21,2.42,24.2,17.34,25.81l9.67.8Z"/><path class="cls-1" d="M490.61,77.05c13.57-23.56,29.94-42.32,46.31-42.32,15.17,0,25.55,10.78,25.55,23.15,0,11.58-7.58,22-17.16,25.56-5.19,2-9.19,1.19-11.58-1.2-6.79-5.59-11.58-8.39-18-8.39-8.78,0-18.36,7.59-25.95,26v73.86c0,25.16,2,27.15,32.74,29.55v12h-103v-12c22.76-2.4,26.35-4.39,26.35-29.55V87.83c0-22.36-2.39-24-22.75-27.95V49.5a373.26,373.26,0,0,0,66.67-15.57V77.05Z"/><path class="cls-1" d="M715.33,178.06C691,212,661,220,645.87,220c-51.51,0-80.65-39.53-80.65-85.44,0-29.15,11.58-54.3,28.34-71.07,17.17-18,39.13-28.74,60.29-28.74,35.53,0,63.08,30.74,63.08,62.68,0,8-2.39,12.78-10.78,14-7.18,1.2-56.29,4.79-98.21,6.39,1.2,47.11,27.55,69.07,55.89,69.07,15.57,0,30.74-5.59,44.72-18.37ZM609.93,99.8c18.37,0,35.94-.39,54.3-1.19,6.39,0,8.78-1.2,9.18-7.59,0-20.76-10.78-40.72-28.34-40.72C628.7,50.3,613.53,68.26,609.93,99.8Z"/><path class="cls-1" d="M837.84,90.43c-9.58-24.35-22.76-40.32-41.92-40.32-12.38,0-22.36,10-22.36,24S785.14,97.62,804.7,106c31.54,13.57,52.7,27.55,52.7,57.49,0,38.33-36.33,57.49-69.47,57.49-20.76,0-41.12-7.58-48.7-13.57-2.8-6-6.39-33.94-6.39-51.5l11.18-1.2c8.38,25.55,26.75,51.5,50.7,51.5,13.58,0,24.35-10,24.35-24,0-13.58-8-23.16-30.74-34.34-20.36-9.58-50.7-24.35-50.7-57.49,0-29.94,24.75-54.7,65.08-54.7,17.56,0,28.34,3.2,37.12,6.79,4,9.18,8.39,35.93,9.59,44.72Z"/></g></g></svg>