<svg xmlns="http://www.w3.org/2000/svg" viewBox="0 0 785.15 221.03"><defs><style>.cls-1{fill:#fff;}</style></defs><title>Wild_White</title><g id="Layer_2" data-name="Layer 2"><g id="Layer_1-2" data-name="Layer 1"><path class="cls-1" d="M784.66,88.1A4.71,4.71,0,0,1,783,85c-.82-3.27-2.37-5.86-5.57-7.37a12.06,12.06,0,0,1-4-3,9.72,9.72,0,0,0-7.93-3.33c-2,0-3.93-.24-5.88.29-.42.11-1,.18-1.2-.4s.51-.53.82-.73a9.63,9.63,0,0,0,3.49-3.07,3.29,3.29,0,0,1,1.82-1.55c4.81-1.22,7.32-5.66,11.43-8-1.38-.78-2.6-1.55-3.91-2.2-2-1-4-1.48-6.35-.49a10.6,10.6,0,0,1-7.79.71,6.61,6.61,0,0,0-3.61,0c-2.11.47-3.73,1.82-5.55,2.82-.43.22-.85.49-1.29.09a1,1,0,0,1-.13-1.14c1.33-4.43.75-9.12,1.77-13.6a5.67,5.67,0,0,0,.16-2.22c-.71-5-3.8-8.48-7.57-11.43-1-.78-2-1.49-2-2.89.11-2.24-1.54-3.11-3.07-4-.4-.25-1-.63-1.46-.23s0,1,.26,1.4c1.42,2.73,1.11,5.51.62,8.44-.55,3.48-2.84,6.34-3.28,9.85a31.87,31.87,0,0,1-.6,3.24,1.24,1.24,0,0,1-.58.78c-.37.11-.55-.29-.68-.62a31.37,31.37,0,0,1-1.56-3.69,5.33,5.33,0,0,0-2.66-3.51c-2.31-1.17-4.37-2.79-6.93-3.59s-5.24-1.42-8-.6c-.33.09-.75,0-.86.42s.26.49.49.65a4.77,4.77,0,0,1,1.72,3.46c.23,1.77-.06,3.68.89,5.28,2.4,4,4.38,8.1,4.62,12.92.11,2.66,0,3-2.69,3.13-5.46.15-9.36,3-12.38,7.28A2.46,2.46,0,0,1,701,69.43a5.58,5.58,0,0,0-3.79.91c-.45.27-.93.67-.71,1.27s.78.42,1.22.42a9.9,9.9,0,0,1,5.24,1,18.6,18.6,0,0,0,9.41,2.09,11.37,11.37,0,0,1,3.24.51c.49.15,1.09.35.69,1.11-1,1.88-1.42,4.06-3,5.64-3.79,3.86-6.08,8.74-8.48,13.47-2.15,4.24-4.19,8.46-7.57,11.9-1.79,1.82-3.93,3.5-3.95,6.5,0,.58-.71,1.18-1.11,1.73-1.53,2.18-3.88,3.49-5.66,5.39s-3.93,2.56-6.37,3.07c-4.19.89-8.59.8-12.54,2.77-.8.4-1.24,0-1.6-.77a9.83,9.83,0,0,0-2.19-3.71c-.94-.85-1.58-.42-1.49.33.27,2.18-1.24,3.49-2,5.15a2.46,2.46,0,0,1-2.2,1.62,51.71,51.71,0,0,0-6.19,1c-6.51,1.46-12.5,4.57-19.09,5.79-.42.07-.82.51-1.29-.09a3.06,3.06,0,0,1,1.33-1.26,26.78,26.78,0,0,0,6.62-5.89,37,37,0,0,1,5.66-5.39,21.1,21.1,0,0,0,6.39-8.12,40.94,40.94,0,0,1,6.17-10.68c3.82-4.57,5.75-9.81,7-15.49.88-4,1.22-8.28,3.75-11.83a19.22,19.22,0,0,0,3.41-11.35c0-6.23,2-11.94,4.6-17.31a25,25,0,0,0,2.82-12.85c-.2-3.06.51-6.19-.47-9.19-1.17-3.66-1.77-7.28-.66-11.1a5.61,5.61,0,0,0-.4-3.79A8.9,8.9,0,0,0,675.32,16c-2.68,6.42-4.75,13.05-7.1,19.6s-5.51,13.18-6.75,20.31c-1,5.59-3.44,10.81-4.57,16.38-.73,3.57-2.42,6.9-3.13,10.48a24.25,24.25,0,0,1-3.62,8.19c-1.95,3.1-3.42,6.5-5.55,9.54-2.73,3.86-4.9,8.15-8,11.76-2.91,3.4-6.33,6.31-9.28,9.68-1.42,1.6-2.51,3.44-4.22,4.84-3.93,3.18-8.08,6-12.12,9.06-.37.26-.79.69-1.22.46s-.29-.84-.29-1.26a2.3,2.3,0,0,1,.4-1.31c1.76-2.2,3.11-4.77,5.33-6.59a10.69,10.69,0,0,0,3.78-6.84c.64-4.13.24-8.35,1-12.5a3.44,3.44,0,0,0-1.71-3.88c-.64-.36-.66-1-.86-1.64A42.63,42.63,0,0,0,612.93,93a18.84,18.84,0,0,0,.38,4.51c.9,3-.07,5.55-1.85,7.81a17.84,17.84,0,0,0-3.68,6.81,17.14,17.14,0,0,1-3.09,6.13c-2.6,3.64-6,6.55-8.72,10.12-2.11,2.82-4.53,5.33-5.93,8.66a9.51,9.51,0,0,1-2.53,3.08,7,7,0,0,0-2.22,3.62,5.91,5.91,0,0,1-1.93,3.44c-2.55,2-5.1,4.06-8.21,5.22-.67.24-1.49.89-2.11.29s.09-1.42.31-2.11a107.63,107.63,0,0,0,5.24-28.3c.31-5.35-.09-10.68-.13-16a8.61,8.61,0,0,0-1.25-4.83,5.13,5.13,0,0,1-.46-4.82A6.75,6.75,0,0,0,577,93a81.21,81.21,0,0,0-4.77-16.51C566.31,62,556.93,50.65,543,43.22c-.53-.29-1.22-1-1.71-.49-1.11,1.09-1.91.33-2.77-.2A9.74,9.74,0,0,0,534.86,41a5.89,5.89,0,0,1-3.7-2.4,5.06,5.06,0,0,0-2.27-1.46c-12.56-4-25.48-5-38.53-4.64-.36,0-.82,0-1,.22-1.66,1.82-3.71.91-5.68,1s-3.38-1.31-5.31-1.27c-5.92.14-11.87.05-17.8.05a6,6,0,0,0-1.4.06,3,3,0,0,0-2,1.74c-.29.75.82,1,1.33,1.33,3.69,2.55,7.37,5.1,11.12,7.55a3.45,3.45,0,0,1,1.71,3.28c0,7-.24,13.94.34,20.91a4.87,4.87,0,0,0,.57,2.33,6,6,0,0,1,.31,5.64A20.19,20.19,0,0,0,471.27,82c0,7.65,0,15.33,0,23a40.18,40.18,0,0,0,1,7.73,28,28,0,0,1,.16,8.48c-.34,3.48-1.62,7-.45,10.5.94,2.73.65,5.5.67,8.28,0,.79,0,1.77-.56,2.3a3.45,3.45,0,0,0-.84,2.89c0,12.67,0,25.35,0,38a4.06,4.06,0,0,1-2.19,4.08c-1.87,1.09-3.58,2.4-5.35,3.62-2.89,2-5.77,4-9.12,6.33,1.11,0,1.68,0,2.24,0,5.55-.31,11.12.6,16.64-.64,3.29-.74,6.53.68,9.81.64,4.6,0,9.2,0,13.79,0,4.82,0,9.66.31,14.45-.34,1.31-.17,3.2-.08,2.73-2.44a.89.89,0,0,1,.29-.75c.93-.65,1.8-1.91,2.95-1.49,1.33.51,3.06,1,3.49,2.55.28,1.09.62.94,1.37.8a71.09,71.09,0,0,0,18.07-6.17c4.59-2.28,9.3-4.55,12.49-8.88a3.33,3.33,0,0,1,1.34-1.08,13.57,13.57,0,0,0,4.68-3.82,59.79,59.79,0,0,0,7.53-10.23,5.33,5.33,0,0,1,2.28-2c2.18-1.2,4.57-2,6.62-3.49a36.09,36.09,0,0,1,4.9-3c4.09-2.15,11.12-.4,13.85,3.37a9,9,0,0,0,1.64,1.78,6.8,6.8,0,0,1,2.82,5.35c.14,2.19.67,2.73,2.87,2.93a3,3,0,0,1,2.08,1,9.15,9.15,0,0,0,5.93,3c2.4.16,4.37,1,5.17,3.75a7.72,7.72,0,0,0,3.8,4.4,6.14,6.14,0,0,1,1.4,1.29,2.94,2.94,0,0,1,.53,1.73,48.62,48.62,0,0,0-1.47-14.12,6.5,6.5,0,0,0-3.1-4.06,11.64,11.64,0,0,1-3.69-3.35,10.74,10.74,0,0,0-4.24-3.27c-2.22-1-4.48-2-6.75-2.93-.37-.17-.86-.28-.77-.77s.57-.51,1-.54a29.16,29.16,0,0,1,4.86.25c5.33.51,10.66.71,16,1.49,4.82.68,9.61,1.46,14.43,2.15a66,66,0,0,1,13.81,3.35c3.73,1.38,6.79,3.73,10.16,5.64a15.11,15.11,0,0,1,5.51,5.41c.77,1.29.8,2.85,1.48,3.87,1.18,1.75.8,3-.15,4.41a11.17,11.17,0,0,0-1,2,8.07,8.07,0,0,1-3.6,4.53,3.18,3.18,0,0,0-1.42,1.89,19.55,19.55,0,0,1-6.14,9.32,15.88,15.88,0,0,0-2,2.13,1.44,1.44,0,0,0-.33,1.62c.47,1.09,2.77,2.38,4,2a16.16,16.16,0,0,0,4.8-2c3.64-2.48,7-5.33,10.92-7.43a2.41,2.41,0,0,0,1.31-1.56c.73-3.35,2.64-6.15,4.21-9.12a4.59,4.59,0,0,0,.51-3.17c-.64-3.2-2.17-5.62-5.37-6.95a6,6,0,0,1-4.06-4.55,4.28,4.28,0,0,0-2.35-3.31,20.94,20.94,0,0,1-6.33-5.08,8,8,0,0,0-4.84-2.89,12.11,12.11,0,0,1-5.5-2,8.39,8.39,0,0,0-4.4-1.48,19.16,19.16,0,0,1-7-1.71,16.48,16.48,0,0,0-5.86-1.25c-5.64,0-11.23-1-16.87-.86-1.62,0-3.15.66-4.66.64a84.21,84.21,0,0,1-9.33-.93c-.33,0-.75,0-.84-.42s.36-.49.67-.6a7.5,7.5,0,0,1,3.35-.71c1.73,0,3.64.2,5.17-.45,2.84-1.22,5.86-1.17,8.75-2,4.08-1.09,8.32-.35,12.45-1a16.93,16.93,0,0,1,4.79-.58,38.56,38.56,0,0,0,10.37-.64c3.42-.53,5.79.86,7.94,2.91,2.31,2.17,4.47,4.48,7.35,5.9a3.7,3.7,0,0,0,2.33.53c.71-.13,1.07-.4.8-1.17a10.94,10.94,0,0,1-.46-3.78,2.9,2.9,0,0,0-1.36-2.48c-.66-.47-2.06-.49-1.77-1.6.31-1.27,1.57-.38,2.39-.56l.16,0a195.85,195.85,0,0,0,19.22-4.06,3,3,0,0,1,2-.18,9.91,9.91,0,0,0,7.13-.24,6.75,6.75,0,0,1,2.33-.6A31,31,0,0,0,710.44,137c2.59-1.44,5.88-2,7.7-4.53,1.35-1.86,2.68-1.91,4.68-1.53a9.53,9.53,0,0,1,5.68,3c1.22,1.4,2.53,2.73,3.73,4.13a6.32,6.32,0,0,1,1.58,5.79,18,18,0,0,0,.42,10.75,9.44,9.44,0,0,1-.36,8.56,18.29,18.29,0,0,1-3.48,4.75c-.58.52-1.07,1.09-1.6,1.65a13.28,13.28,0,0,0,4.53-3c5.26-4.92,8.46-11.14,11.16-17.66a5.6,5.6,0,0,0,0-4.4,11.74,11.74,0,0,1-1-5.08c.11-1.73.31-3.46.29-5.2,0-2.57-1.36-4.77-2.22-7.1-1.84-4.93-4.86-6.83-10.59-7.15-2.31-.11-4.62.09-6.88-.77-2.68-1-5.46-.73-8.23-.33-3.84.57-7.51,2.28-11.44,2.13a44.12,44.12,0,0,0-15.09,2c-.49.15-1.09.44-1.62-.31a34.92,34.92,0,0,0,4.42-3.91,16.06,16.06,0,0,1,5-3.37,6,6,0,0,0,2.5-2.13,28.53,28.53,0,0,1,4.71-5.11,3.94,3.94,0,0,1,2.88-1.35,20.09,20.09,0,0,0,8.15-1.67,101.35,101.35,0,0,0,16.16-8.45c3.62-2.25,6-2.16,8.83.93,2.18,2.35,4.84,2.66,7.64,1.89,4-1.09,5.68-.54,7.88,3,1.68,2.73,3.64,5.22,7.06,5.75,3,.46,4.46,2.33,5.32,5,.42,1.34,1,2.65,1.47,4l.44-.07c0-1.33,1-2.53,0-4a3.09,3.09,0,0,1-.13-3,8.41,8.41,0,0,0,.47-5.46,88.25,88.25,0,0,1-2.4-10.48,7.08,7.08,0,0,0-2.33-4.37c-1.22-1.07-2.49-2.09-3.73-3.11-.33-.29-1-.42-.67-1a1,1,0,0,1,1.07-.45c3.15.36,6.43.18,9.43,1.29a46.31,46.31,0,0,1,8.46,4.06c1.13.71,2.31,1.38,3.46,2,.38.22.82.58,1.18,0C785.3,92.18,785.06,88.36,784.66,88.1ZM548.47,110.18a61.48,61.48,0,0,0,0,7.31c.08,4.19-.25,8.36-.49,12.54a2,2,0,0,0-.05.68c1.49,4-.29,7.93-1.29,11.53-1.11,4-2.33,8.07-3.79,12-2.37,6.43-5.35,12.54-10,17.6-6.18,6.63-13.48,11.56-22.56,13.29a18.91,18.91,0,0,1-5.37.4c-1.24-.13-1.8-.6-1.75-2,.09-3.89,0-7.77,0-11.68V46.35c0-2.6,0-2.53,2.51-2.6,8.54-.27,15.69,3.31,22.15,8.41a72.19,72.19,0,0,0,10.63,6.91c1.27.66,1.58,1.42.94,2.66a3.72,3.72,0,0,0,.08,3.64c3.42,7.15,6.33,14.47,7.73,22.28A82.65,82.65,0,0,1,548.47,110.18Zm-108.87,51c-.51-4.19.86-8.28.73-12.47-.2-6.84,0-13.67,0-20.51a4.09,4.09,0,0,0-.85,1.51q-10.38,27.6-20.8,55.25a2.66,2.66,0,0,1-3,2.11c-6-.12-12-.05-18-.05-2.38,0-2.4,0-2.4-2.42q0-26.27,0-52.49c0-1.84-.09-3.51-1.35-5-1.07-1.29-1.4-3.2-.4-4.37,1.62-2,1.66-4.22,1.69-6.37q.16-18.59,0-37.16a18.65,18.65,0,0,0-1.14-6.08,9,9,0,0,1-.11-5.91,24.46,24.46,0,0,0,1.31-7.83c-.06-5.13,0-10.26-.06-15.36a3.29,3.29,0,0,1,1.93-3.31c3.08-1.73,6.08-3.62,9.12-5.44.38-.24.91-.42.82-1a.8.8,0,0,0-.89-.66c-2,.13-3.86-.76-5.86-.73q-27.39.06-54.78,0a4,4,0,0,0-2.57.49c3.86,2.66,7.54,5.19,11.23,7.68a2,2,0,0,0,1.18.22c2.73-.42,3.26,1,3.48,3.37s-.22,5,.36,7.46a1.55,1.55,0,0,1-.56,1.58c-1.11.86-1.17,2-1.17,3.28q0,13.68,0,27.37c0,9.19-.22,18.38,0,27.57s-1,18.13.87,27.19c.53,2.57.53,5.37,1.17,8a5.11,5.11,0,0,0,2,3.35,1.72,1.72,0,0,1,.69,2.15c-.27.8-1,.63-1.66.6-1-.06-1.78.07-2,1.16-.43,2-1.14,4-1.11,6.15,0,8.41,0,16.84,0,25.28a2.69,2.69,0,0,1-1.47,2.66c-2.06,1.2-4,2.53-6,3.82-2.38,1.53-4.73,3.06-7.46,4.84.75.06,1,.11,1.31.11h49.36a3.61,3.61,0,0,0,1.71-.33,13.6,13.6,0,0,1,12.39-.09,6.09,6.09,0,0,0,2.55.42h27.92c2.45,0,2.49,0,2.42-2.44C440,183.63,441,172.42,439.6,161.23ZM312.9,183.72c.05-8.9,0-17.78,0-26.68,0-1.42-.22-2.51-1.84-2.89-1-.22-1.09-1.08-.87-2a5.55,5.55,0,0,1,1.45-2.55,2.37,2.37,0,0,0,.68-2.22,20.39,20.39,0,0,0-.88-3.71,5.37,5.37,0,0,1,.2-4.53,11.26,11.26,0,0,0,1.26-5.37V67.39c-1.28-3.24-.26-6.44-.06-9.7.26-4.86.13-9.77,0-14.65a3.34,3.34,0,0,1,2-3.44c3.12-1.78,6.19-3.71,9.25-5.57.35-.22.91-.29.87-1.11-4,0-7.91,0-11.84,0a4.72,4.72,0,0,0-3.1.93,3.58,3.58,0,0,1-3.44.49c-2-.6-3.87-1.45-6-1.42-5.82.08-11.63-.16-17.45.06s-11.52-1-17.15,1c-.54.17-1.25,0-1.47.66-.29.87.51,1.09,1,1.4,2.53,1.53,5,3.11,7.64,4.53a3,3,0,0,1,1.73,3c-.05,16.11,0,32.2-.05,48.3a13.9,13.9,0,0,0,1.4,6.74,7.43,7.43,0,0,1,.51,5.73c-.69,2.38-.31,4.57,0,6.86.2,1.42.59,2.91-.34,4.22a8.45,8.45,0,0,0-1.62,5.19c.05,21.33,0,42.66.07,64a3.42,3.42,0,0,1-1.47,3.09c-1.75,1.26-3.37,2.68-5,4-2.14,1.73-4.27,3.48-6.8,5.55,3.55,0,6.57.15,9.55-.07,1.29-.11,2.55-.73,3.9-.62,1,.09,1.85.64,2.87.73a11.66,11.66,0,0,0,7-1.73c2.17-1.22,3.57-.93,5.15,1a2.08,2.08,0,0,0,1.84.71H326.4c-4.24-3.62-8-6.93-11.95-10.12A3.93,3.93,0,0,1,312.9,183.72ZM200,1.07c5.61,4,11.23,8.08,16.89,12A2.24,2.24,0,0,1,218,16c-.71,2.33-1.2,4.73-1.69,7.11-.35,1.81-1.26,3.59-1,5.43a72.61,72.61,0,0,1,.54,12,26.86,26.86,0,0,1-1.56,8.5c-.73,1.86-1.57,3.68-1.46,5.66a4,4,0,0,1-3.24,4.44c-1.54.42-2.05,1.44-2.38,2.84Q199,97.26,190.69,132.56c-.16.66,0,1.86-.8,1.84s-.67-1.2-.87-1.89q-9.89-35.88-19.73-71.8c-.18-.67-.22-1.51-.89-1.82-2-1-3.75-2.33-6.1-2.29-.84,0-1.93.2-2.13-1-.18-1,1.35-2.29,2.35-2.11,2.91.51,4.57-1.29,3.69-4.33-3.18-10.85-6-21.8-9.06-32.69a2.83,2.83,0,0,1,1-3.31c3.75-3.33,7.41-6.73,11.1-10.1.37-.33,1-.6.93-1.18-.13-.73-.84-.38-1.31-.46-.29-.05-.71-.09-.78-.27-.69-1.47-2-1.18-3.17-1.18q-32.26,0-64.55,0a4,4,0,0,0-2.19.28c.79.58,1.41,1.07,2.08,1.56,5.31,3.86,10.59,7.77,15.91,11.61a2.38,2.38,0,0,1,1,2.93c-1,3.88-1.82,7.79-2.75,11.69a2.3,2.3,0,0,0,0,2c1.58,2,1.42,3.93.53,6.26s-1,4.89-1.91,7.22a28.85,28.85,0,0,0-1.73,6.9,4.62,4.62,0,0,1-1,2.33c-1,1.49-2.39,2.71-2.84,4.68Q99.46,92.44,91.18,127.3a56.14,56.14,0,0,1-1.93,7.43,4.3,4.3,0,0,1-1-2.35Q80.71,105.22,73.27,78A2.93,2.93,0,0,0,72,76.09c-1.76-1.2-3.11-1.69-4,.87-.13.42-.71.57-1.22.53s-1-.29-.75-.87c.64-1.73.66-3.62,1.51-5.33a13.15,13.15,0,0,0,1.22-9.56Q62.58,39,56.33,16.27a2.32,2.32,0,0,1,.76-2.75c4.06-3.64,8.1-7.35,12.12-11C70,1.82,70.65,1.07,71.56.18c-.62-.07-1-.13-1.29-.13H20a4.38,4.38,0,0,0-2.53.46,7.21,7.21,0,0,1-5.55.91C10,1,7.84,1.62,6,.65S2,.22,0,.22c5.1,4.55,10.25,8.9,15.45,13.19a5.16,5.16,0,0,1,1.84,2.84c3.11,11.52,6.28,23,9.39,34.58a5.17,5.17,0,0,0,2.46,3.57,5.35,5.35,0,0,1,2.09,2.91c1.58,3.55,2.66,7.28,4.8,10.59,1.77,2.77,3.15,5.79,1.06,9.25-1.64,2.74-1.53,5.84-.73,8.79q10.41,38.4,20.93,76.71A18.54,18.54,0,0,0,58.64,167a5,5,0,0,0,1-3.82c0-.46-.56-1.06,0-1.44s1.24-.09,1.82.2c1.35.67,1.69,2.18.65,4.28a5.18,5.18,0,0,0,0,4,24.73,24.73,0,0,1,1.22,6.93,1.75,1.75,0,0,1-.27,1.15c-1.51,1.35-.75,2.84-.36,4.33,3.09,11.34,6.31,22.68,9.24,34.07.64,2.42,3.31,2.33,4.08,4.28,0,.09.45.07.67.07,3.91,0,7.79,0,11.7,0,1,0,1.42-.45,1.64-1.4,1.4-5.79,2.82-11.61,4.24-17.4a3,3,0,0,0-.67-2.91,2.53,2.53,0,0,1-.53-3c1-2.9,2-5.79,3.08-8.67a3.37,3.37,0,0,0,.31-2.53c-.5-1.16-.06-1.87,1-2.11,1.54-.34,1.91-1.4,2.22-2.71l27.5-112.54c.65-2.66,1.31-5.35,2-8.12,1,.58,1,1.42,1.18,2.11q10.29,37.49,20.55,75a3.55,3.55,0,0,0,1.11,2.11,5.05,5.05,0,0,1,1.78,3.79c.11,1.18-.14,2.78.95,3.4,2,1.11,2.18,2.86,2.4,4.71a21.61,21.61,0,0,0,.71,3c.8,3.22,1.71,6.42.66,9.75a3.6,3.6,0,0,0,.29,2q3.6,13.29,7.24,26.52c1.26,4.64,2.57,9.28,3.84,13.92,1.13,4.22,3.51,8,3.51,12.61,0,2.11.59,2.42,2.75,2.42,4.13,0,8.25,0,12.38,0,1.38,0,2.05-.35,2.4-1.82,4.57-19,9.52-37.87,13.52-57,.64-3.11.11-6.26.31-9.39.15-2.46.51-4.84,3-6.28a3.75,3.75,0,0,0,1.47-2.31c.71-2.68,1.35-5.37,2-8.06,9.48-38.75,19-77.48,28.37-116.28.91-3.82,2.39-6.7,5.88-8.57,1.37-.73,3.15-1.58,3.64-2.82.91-2.24,2.8-3,4.37-4.24,1-.77,2.09-.15,2.91-.66,1.62-1,3.11-2.13,4.93-3.4H198.88C199.46.65,199.7.87,200,1.07Z"/><path class="cls-1" d="M261.32.2c-1.82,1.27-3.31,2.42-4.93,3.4-.82.51-1.93-.11-2.91.66-1.57,1.27-3.46,2-4.37,4.24-.49,1.24-2.27,2.09-3.64,2.82-3.49,1.87-5,4.75-5.88,8.57-9.35,38.8-18.89,77.53-28.37,116.28-.67,2.69-1.31,5.38-2,8.06a3.75,3.75,0,0,1-1.47,2.31c-2.48,1.44-2.84,3.82-3,6.28-.2,3.13.33,6.28-.31,9.39-4,19.13-9,38-13.52,57-.35,1.47-1,1.84-2.4,1.82-4.13-.07-8.25,0-12.38,0-2.16,0-2.75-.31-2.75-2.42,0-4.57-2.38-8.39-3.51-12.61-1.27-4.64-2.58-9.28-3.84-13.92q-3.63-13.25-7.24-26.52a3.6,3.6,0,0,1-.29-2c1.05-3.33.14-6.53-.66-9.75a21.61,21.61,0,0,1-.71-3c-.22-1.85-.45-3.6-2.4-4.71-1.09-.62-.84-2.22-.95-3.4a5.05,5.05,0,0,0-1.78-3.79,3.55,3.55,0,0,1-1.11-2.11q-10.26-37.51-20.55-75c-.2-.69-.16-1.53-1.18-2.11-.67,2.77-1.33,5.46-2,8.12L99.68,180.28c-.31,1.31-.68,2.37-2.22,2.71-1.06.24-1.5.95-1,2.11a3.37,3.37,0,0,1-.31,2.53c-1.06,2.88-2.06,5.77-3.08,8.67a2.53,2.53,0,0,0,.53,3,3,3,0,0,1,.67,2.91c-1.42,5.79-2.84,11.61-4.24,17.4-.22.95-.64,1.4-1.64,1.4-3.91,0-7.79,0-11.7,0-.22,0-.62,0-.67-.07-.77-1.95-3.44-1.86-4.08-4.28-2.93-11.39-6.15-22.73-9.24-34.07-.39-1.49-1.15-3,.36-4.33a1.75,1.75,0,0,0,.27-1.15,24.73,24.73,0,0,0-1.22-6.93,5.18,5.18,0,0,1,0-4c1-2.1.7-3.61-.65-4.28-.58-.29-1.22-.6-1.82-.2s-.07,1,0,1.44a5,5,0,0,1-1,3.82,18.54,18.54,0,0,1-1.35-4.31Q46.8,124.34,36.36,85.94c-.8-3-.91-6,.73-8.79,2.09-3.46.71-6.48-1.06-9.25-2.14-3.31-3.22-7-4.8-10.59a5.35,5.35,0,0,0-2.09-2.91,5.17,5.17,0,0,1-2.46-3.57c-3.11-11.54-6.28-23.06-9.39-34.58a5.16,5.16,0,0,0-1.84-2.84C10.25,9.12,5.1,4.77,0,.22c2,0,4-.64,6,.43s4,.39,5.95.77A7.21,7.21,0,0,0,17.49.51,4.38,4.38,0,0,1,20,.05H70.27c.34,0,.67.06,1.29.13-.91.89-1.6,1.64-2.35,2.31-4,3.68-8.06,7.39-12.12,11a2.32,2.32,0,0,0-.76,2.75Q62.63,39,68.81,61.73a13.15,13.15,0,0,1-1.22,9.56c-.85,1.71-.87,3.6-1.51,5.33-.22.58.22.85.75.87s1.09-.11,1.22-.53c.87-2.56,2.22-2.07,4-.87A2.93,2.93,0,0,1,73.27,78q7.45,27.17,14.94,54.36a4.3,4.3,0,0,0,1,2.35,56.14,56.14,0,0,0,1.93-7.43q8.22-34.86,16.36-69.77c.45-2,1.8-3.19,2.84-4.68a4.62,4.62,0,0,0,1-2.33,28.85,28.85,0,0,1,1.73-6.9c.89-2.33,1.05-4.91,1.91-7.22s1-4.26-.53-6.26a2.3,2.3,0,0,1,0-2c.93-3.9,1.75-7.81,2.75-11.69a2.38,2.38,0,0,0-1-2.93c-5.32-3.84-10.6-7.75-15.91-11.61C99.59,1.4,99,.91,98.18.33a4,4,0,0,1,2.19-.28q32.26,0,64.55,0c1.17,0,2.48-.29,3.17,1.18.07.18.49.22.78.27.47.08,1.18-.27,1.31.46.09.58-.56.85-.93,1.18-3.69,3.37-7.35,6.77-11.1,10.1a2.83,2.83,0,0,0-1,3.31c3,10.89,5.88,21.84,9.06,32.69.88,3-.78,4.84-3.69,4.33-1-.18-2.53,1.13-2.35,2.11.2,1.15,1.29,1,2.13,1,2.35,0,4.15,1.33,6.1,2.29.67.31.71,1.15.89,1.82q9.86,35.92,19.73,71.8c.2.69.11,1.89.87,1.89s.64-1.18.8-1.84q8.3-35.29,16.49-70.63c.33-1.4.84-2.42,2.38-2.84a4,4,0,0,0,3.24-4.44c-.11-2,.73-3.8,1.46-5.66a26.86,26.86,0,0,0,1.56-8.5,72.61,72.61,0,0,0-.54-12c-.22-1.84.69-3.62,1-5.43.49-2.38,1-4.78,1.69-7.11a2.24,2.24,0,0,0-1.13-2.86c-5.66-4-11.28-8-16.89-12-.29-.2-.53-.42-1.11-.87Z"/><path class="cls-1" d="M784.66,88.1A4.71,4.71,0,0,1,783,85c-.82-3.27-2.37-5.86-5.57-7.37a12.06,12.06,0,0,1-4-3,9.72,9.72,0,0,0-7.93-3.33c-2,0-3.93-.24-5.88.29-.42.11-1,.18-1.2-.4s.51-.53.82-.73a9.63,9.63,0,0,0,3.49-3.07,3.29,3.29,0,0,1,1.82-1.55c4.81-1.22,7.32-5.66,11.43-8-1.38-.78-2.6-1.55-3.91-2.2-2-1-4-1.48-6.35-.49a10.6,10.6,0,0,1-7.79.71,6.61,6.61,0,0,0-3.61,0c-2.11.47-3.73,1.82-5.55,2.82-.43.22-.85.49-1.29.09a1,1,0,0,1-.13-1.14c1.33-4.43.75-9.12,1.77-13.6a5.67,5.67,0,0,0,.16-2.22c-.71-5-3.8-8.48-7.57-11.43-1-.78-2-1.49-2-2.89.11-2.24-1.54-3.11-3.07-4-.4-.25-1-.63-1.46-.23s0,1,.26,1.4c1.42,2.73,1.11,5.51.62,8.44-.55,3.48-2.84,6.34-3.28,9.85a31.87,31.87,0,0,1-.6,3.24,1.24,1.24,0,0,1-.58.78c-.37.11-.55-.29-.68-.62a31.37,31.37,0,0,1-1.56-3.69,5.33,5.33,0,0,0-2.66-3.51c-2.31-1.17-4.37-2.79-6.93-3.59s-5.24-1.42-8-.6c-.33.09-.75,0-.86.42s.26.49.49.65a4.77,4.77,0,0,1,1.72,3.46c.23,1.77-.06,3.68.89,5.28,2.4,4,4.38,8.1,4.62,12.92.11,2.66,0,3-2.69,3.13-5.46.15-9.36,3-12.38,7.28A2.46,2.46,0,0,1,701,69.43a5.58,5.58,0,0,0-3.79.91c-.45.27-.93.67-.71,1.27s.78.42,1.22.42a9.9,9.9,0,0,1,5.24,1,18.6,18.6,0,0,0,9.41,2.09,11.37,11.37,0,0,1,3.24.51c.49.15,1.09.35.69,1.11-1,1.88-1.42,4.06-3,5.64-3.79,3.86-6.08,8.74-8.48,13.47-2.15,4.24-4.19,8.46-7.57,11.9-1.79,1.82-3.93,3.5-3.95,6.5,0,.58-.71,1.18-1.11,1.73-1.53,2.18-3.88,3.49-5.66,5.39s-3.93,2.56-6.37,3.07c-4.19.89-8.59.8-12.54,2.77-.8.4-1.24,0-1.6-.77a9.83,9.83,0,0,0-2.19-3.71c-.94-.85-1.58-.42-1.49.33.27,2.18-1.24,3.49-2,5.15a2.46,2.46,0,0,1-2.2,1.62,51.71,51.71,0,0,0-6.19,1c-6.51,1.46-12.5,4.57-19.09,5.79-.42.07-.82.51-1.29-.09a3.06,3.06,0,0,1,1.33-1.26,26.78,26.78,0,0,0,6.62-5.89,37,37,0,0,1,5.66-5.39,21.1,21.1,0,0,0,6.39-8.12,40.94,40.94,0,0,1,6.17-10.68c3.82-4.57,5.75-9.81,7-15.49.88-4,1.22-8.28,3.75-11.83a19.22,19.22,0,0,0,3.41-11.35c0-6.23,2-11.94,4.6-17.31a25,25,0,0,0,2.82-12.85c-.2-3.06.51-6.19-.47-9.19-1.17-3.66-1.77-7.28-.66-11.1a5.61,5.61,0,0,0-.4-3.79A8.9,8.9,0,0,0,675.32,16c-2.68,6.42-4.75,13.05-7.1,19.6s-5.51,13.18-6.75,20.31c-1,5.59-3.44,10.81-4.57,16.38-.73,3.57-2.42,6.9-3.13,10.48a24.25,24.25,0,0,1-3.62,8.19c-1.95,3.1-3.42,6.5-5.55,9.54-2.73,3.86-4.9,8.15-8,11.76-2.91,3.4-6.33,6.31-9.28,9.68-1.42,1.6-2.51,3.44-4.22,4.84-3.93,3.18-8.08,6-12.12,9.06-.37.26-.79.69-1.22.46s-.29-.84-.29-1.26a2.3,2.3,0,0,1,.4-1.31c1.76-2.2,3.11-4.77,5.33-6.59a10.69,10.69,0,0,0,3.78-6.84c.64-4.13.24-8.35,1-12.5a3.44,3.44,0,0,0-1.71-3.88c-.64-.36-.66-1-.86-1.64A42.63,42.63,0,0,0,612.93,93a18.84,18.84,0,0,0,.38,4.51c.9,3-.07,5.55-1.85,7.81a17.84,17.84,0,0,0-3.68,6.81,17.14,17.14,0,0,1-3.09,6.13c-2.6,3.64-6,6.55-8.72,10.12-2.11,2.82-4.53,5.33-5.93,8.66a9.51,9.51,0,0,1-2.53,3.08,7,7,0,0,0-2.22,3.62,5.91,5.91,0,0,1-1.93,3.44c-2.55,2-5.1,4.06-8.21,5.22-.67.24-1.49.89-2.11.29s.09-1.42.31-2.11a107.63,107.63,0,0,0,5.24-28.3c.31-5.35-.09-10.68-.13-16a8.61,8.61,0,0,0-1.25-4.83,5.13,5.13,0,0,1-.46-4.82A6.75,6.75,0,0,0,577,93a81.21,81.21,0,0,0-4.77-16.51C566.31,62,556.93,50.65,543,43.22c-.53-.29-1.22-1-1.71-.49-1.11,1.09-1.91.33-2.77-.2A9.74,9.74,0,0,0,534.86,41a5.89,5.89,0,0,1-3.7-2.4,5.06,5.06,0,0,0-2.27-1.46c-12.56-4-25.48-5-38.53-4.64-.36,0-.82,0-1,.22-1.66,1.82-3.71.91-5.68,1s-3.38-1.31-5.31-1.27c-5.92.14-11.87.05-17.8.05a6,6,0,0,0-1.4.06,3,3,0,0,0-2,1.74c-.29.75.82,1,1.33,1.33,3.69,2.55,7.37,5.1,11.12,7.55a3.45,3.45,0,0,1,1.71,3.28c0,7-.24,13.94.34,20.91a4.87,4.87,0,0,0,.57,2.33,6,6,0,0,1,.31,5.64A20.19,20.19,0,0,0,471.27,82c0,7.65,0,15.33,0,23a40.18,40.18,0,0,0,1,7.73,28,28,0,0,1,.16,8.48c-.34,3.48-1.62,7-.45,10.5.94,2.73.65,5.5.67,8.28,0,.79,0,1.77-.56,2.3a3.45,3.45,0,0,0-.84,2.89c0,12.67,0,25.35,0,38a4.06,4.06,0,0,1-2.19,4.08c-1.87,1.09-3.58,2.4-5.35,3.62-2.89,2-5.77,4-9.12,6.33,1.11,0,1.68,0,2.24,0,5.55-.31,11.12.6,16.64-.64,3.29-.74,6.53.68,9.81.64,4.6,0,9.2,0,13.79,0,4.82,0,9.66.31,14.45-.34,1.31-.17,3.2-.08,2.73-2.44a.89.89,0,0,1,.29-.75c.93-.65,1.8-1.91,2.95-1.49,1.33.51,3.06,1,3.49,2.55.28,1.09.62.94,1.37.8a71.09,71.09,0,0,0,18.07-6.17c4.59-2.28,9.3-4.55,12.49-8.88a3.33,3.33,0,0,1,1.34-1.08,13.57,13.57,0,0,0,4.68-3.82,59.79,59.79,0,0,0,7.53-10.23,5.33,5.33,0,0,1,2.28-2c2.18-1.2,4.57-2,6.62-3.49a36.09,36.09,0,0,1,4.9-3c4.09-2.15,11.12-.4,13.85,3.37a9,9,0,0,0,1.64,1.78,6.8,6.8,0,0,1,2.82,5.35c.14,2.19.67,2.73,2.87,2.93a3,3,0,0,1,2.08,1,9.15,9.15,0,0,0,5.93,3c2.4.16,4.37,1,5.17,3.75a7.72,7.72,0,0,0,3.8,4.4,6.14,6.14,0,0,1,1.4,1.29,2.94,2.94,0,0,1,.53,1.73,48.62,48.62,0,0,0-1.47-14.12,6.5,6.5,0,0,0-3.1-4.06,11.64,11.64,0,0,1-3.69-3.35,10.74,10.74,0,0,0-4.24-3.27c-2.22-1-4.48-2-6.75-2.93-.37-.17-.86-.28-.77-.77s.57-.51,1-.54a29.16,29.16,0,0,1,4.86.25c5.33.51,10.66.71,16,1.49,4.82.68,9.61,1.46,14.43,2.15a66,66,0,0,1,13.81,3.35c3.73,1.38,6.79,3.73,10.16,5.64a15.11,15.11,0,0,1,5.51,5.41c.77,1.29.8,2.85,1.48,3.87,1.18,1.75.8,3-.15,4.41a11.17,11.17,0,0,0-1,2,8.07,8.07,0,0,1-3.6,4.53,3.18,3.18,0,0,0-1.42,1.89,19.55,19.55,0,0,1-6.14,9.32,15.88,15.88,0,0,0-2,2.13,1.44,1.44,0,0,0-.33,1.62c.47,1.09,2.77,2.38,4,2a16.16,16.16,0,0,0,4.8-2c3.64-2.48,7-5.33,10.92-7.43a2.41,2.41,0,0,0,1.31-1.56c.73-3.35,2.64-6.15,4.21-9.12a4.59,4.59,0,0,0,.51-3.17c-.64-3.2-2.17-5.62-5.37-6.95a6,6,0,0,1-4.06-4.55,4.28,4.28,0,0,0-2.35-3.31,20.94,20.94,0,0,1-6.33-5.08,8,8,0,0,0-4.84-2.89,12.11,12.11,0,0,1-5.5-2,8.39,8.39,0,0,0-4.4-1.48,19.16,19.16,0,0,1-7-1.71,16.48,16.48,0,0,0-5.86-1.25c-5.64,0-11.23-1-16.87-.86-1.62,0-3.15.66-4.66.64a84.21,84.21,0,0,1-9.33-.93c-.33,0-.75,0-.84-.42s.36-.49.67-.6a7.5,7.5,0,0,1,3.35-.71c1.73,0,3.64.2,5.17-.45,2.84-1.22,5.86-1.17,8.75-2,4.08-1.09,8.32-.35,12.45-1a16.93,16.93,0,0,1,4.79-.58,38.56,38.56,0,0,0,10.37-.64c3.42-.53,5.79.86,7.94,2.91,2.31,2.17,4.47,4.48,7.35,5.9a3.7,3.7,0,0,0,2.33.53c.71-.13,1.07-.4.8-1.17a10.94,10.94,0,0,1-.46-3.78,2.9,2.9,0,0,0-1.36-2.48c-.66-.47-2.06-.49-1.77-1.6.31-1.27,1.57-.38,2.39-.56l.16,0a195.85,195.85,0,0,0,19.22-4.06,3,3,0,0,1,2-.18,9.91,9.91,0,0,0,7.13-.24,6.75,6.75,0,0,1,2.33-.6A31,31,0,0,0,710.44,137c2.59-1.44,5.88-2,7.7-4.53,1.35-1.86,2.68-1.91,4.68-1.53a9.53,9.53,0,0,1,5.68,3c1.22,1.4,2.53,2.73,3.73,4.13a6.32,6.32,0,0,1,1.58,5.79,18,18,0,0,0,.42,10.75,9.44,9.44,0,0,1-.36,8.56,18.29,18.29,0,0,1-3.48,4.75c-.58.52-1.07,1.09-1.6,1.65a13.28,13.28,0,0,0,4.53-3c5.26-4.92,8.46-11.14,11.16-17.66a5.6,5.6,0,0,0,0-4.4,11.74,11.74,0,0,1-1-5.08c.11-1.73.31-3.46.29-5.2,0-2.57-1.36-4.77-2.22-7.1-1.84-4.93-4.86-6.83-10.59-7.15-2.31-.11-4.62.09-6.88-.77-2.68-1-5.46-.73-8.23-.33-3.84.57-7.51,2.28-11.44,2.13a44.12,44.12,0,0,0-15.09,2c-.49.15-1.09.44-1.62-.31a34.92,34.92,0,0,0,4.42-3.91,16.06,16.06,0,0,1,5-3.37,6,6,0,0,0,2.5-2.13,28.53,28.53,0,0,1,4.71-5.11,3.94,3.94,0,0,1,2.88-1.35,20.09,20.09,0,0,0,8.15-1.67,101.35,101.35,0,0,0,16.16-8.45c3.62-2.25,6-2.16,8.83.93,2.18,2.35,4.84,2.66,7.64,1.89,4-1.09,5.68-.54,7.88,3,1.68,2.73,3.64,5.22,7.06,5.75,3,.46,4.46,2.33,5.32,5,.42,1.34,1,2.65,1.47,4l.44-.07c0-1.33,1-2.53,0-4a3.09,3.09,0,0,1-.13-3,8.41,8.41,0,0,0,.47-5.46,88.25,88.25,0,0,1-2.4-10.48,7.08,7.08,0,0,0-2.33-4.37c-1.22-1.07-2.49-2.09-3.73-3.11-.33-.29-1-.42-.67-1a1,1,0,0,1,1.07-.45c3.15.36,6.43.18,9.43,1.29a46.31,46.31,0,0,1,8.46,4.06c1.13.71,2.31,1.38,3.46,2,.38.22.82.58,1.18,0C785.3,92.18,785.06,88.36,784.66,88.1ZM548.47,110.18a61.48,61.48,0,0,0,0,7.31c.08,4.19-.25,8.36-.49,12.54a2,2,0,0,0-.05.68c1.49,4-.29,7.93-1.29,11.53-1.11,4-2.33,8.07-3.79,12-2.37,6.43-5.35,12.54-10,17.6-6.18,6.63-13.48,11.56-22.56,13.29a18.91,18.91,0,0,1-5.37.4c-1.24-.13-1.8-.6-1.75-2,.09-3.89,0-7.77,0-11.68V46.35c0-2.6,0-2.53,2.51-2.6,8.54-.27,15.69,3.31,22.15,8.41a72.19,72.19,0,0,0,10.63,6.91c1.27.66,1.58,1.42.94,2.66a3.72,3.72,0,0,0,.08,3.64c3.42,7.15,6.33,14.47,7.73,22.28A82.65,82.65,0,0,1,548.47,110.18Z"/><path class="cls-1" d="M440.26,194.82c.07,2.44,0,2.44-2.42,2.44H409.92a6.09,6.09,0,0,1-2.55-.42,13.6,13.6,0,0,0-12.39.09,3.61,3.61,0,0,1-1.71.33H343.91c-.29,0-.56,0-1.31-.11,2.73-1.78,5.08-3.31,7.46-4.84,2-1.29,4-2.62,6-3.82a2.69,2.69,0,0,0,1.47-2.66c0-8.44,0-16.87,0-25.28,0-2.16.68-4.11,1.11-6.15.24-1.09,1.06-1.22,2-1.16.62,0,1.39.2,1.66-.6a1.72,1.72,0,0,0-.69-2.15,5.11,5.11,0,0,1-2-3.35c-.64-2.64-.64-5.44-1.17-8-1.89-9.06-.6-18.14-.87-27.19s0-18.38,0-27.57,0-18.25,0-27.37c0-1.26.06-2.42,1.17-3.28a1.55,1.55,0,0,0,.56-1.58c-.58-2.46-.14-5-.36-7.46s-.75-3.79-3.48-3.37a2,2,0,0,1-1.18-.22c-3.69-2.49-7.37-5-11.23-7.68a4,4,0,0,1,2.57-.49q27.38,0,54.78,0c2,0,3.84.86,5.86.73a.8.8,0,0,1,.89.66c.09.58-.44.76-.82,1-3,1.82-6,3.71-9.12,5.44A3.29,3.29,0,0,0,395.23,44c.11,5.1,0,10.23.06,15.36A24.46,24.46,0,0,1,394,67.23a9,9,0,0,0,.11,5.91,18.65,18.65,0,0,1,1.14,6.08q.16,18.59,0,37.16c0,2.15-.07,4.39-1.69,6.37-1,1.17-.67,3.08.4,4.37,1.26,1.53,1.35,3.2,1.35,5q0,26.24,0,52.49c0,2.42,0,2.42,2.4,2.42,6,0,12-.07,18,.05a2.66,2.66,0,0,0,3-2.11q10.37-27.64,20.8-55.25a4.09,4.09,0,0,1,.85-1.51c0,6.84-.16,13.67,0,20.51.13,4.19-1.24,8.28-.73,12.47C441,172.42,440,183.63,440.26,194.82Z"/><path class="cls-1" d="M326.4,197.26H291.86a2.08,2.08,0,0,1-1.84-.71c-1.58-1.93-3-2.22-5.15-1a11.66,11.66,0,0,1-7,1.73c-1-.09-1.87-.64-2.87-.73-1.35-.11-2.61.51-3.9.62-3,.22-6,.07-9.55.07,2.53-2.07,4.66-3.82,6.8-5.55,1.66-1.36,3.28-2.78,5-4a3.42,3.42,0,0,0,1.47-3.09c-.05-21.33,0-42.66-.07-64a8.45,8.45,0,0,1,1.62-5.19c.93-1.31.54-2.8.34-4.22-.34-2.29-.72-4.48,0-6.86a7.43,7.43,0,0,0-.51-5.73,13.9,13.9,0,0,1-1.4-6.74c0-16.1,0-32.19.05-48.3a3,3,0,0,0-1.73-3c-2.6-1.42-5.11-3-7.64-4.53-.51-.31-1.31-.53-1-1.4.22-.68.93-.49,1.47-.66,5.63-2,11.43-.74,17.15-1s11.63,0,17.45-.06c2.17,0,4.06.82,6,1.42a3.58,3.58,0,0,0,3.44-.49,4.72,4.72,0,0,1,3.1-.93c3.93,0,7.88,0,11.84,0,0,.82-.52.89-.87,1.11-3.06,1.86-6.13,3.79-9.25,5.57a3.34,3.34,0,0,0-2,3.44c.11,4.88.24,9.79,0,14.65-.2,3.26-1.22,6.46.06,9.7v66.43a11.26,11.26,0,0,1-1.26,5.37,5.37,5.37,0,0,0-.2,4.53,20.39,20.39,0,0,1,.88,3.71,2.37,2.37,0,0,1-.68,2.22,5.55,5.55,0,0,0-1.45,2.55c-.22.87-.17,1.73.87,2,1.62.38,1.84,1.47,1.84,2.89,0,8.9,0,17.78,0,26.68a3.93,3.93,0,0,0,1.55,3.42C318.36,190.33,322.16,193.64,326.4,197.26Z"/></g></g></svg>