<svg xmlns="http://www.w3.org/2000/svg" viewBox="0 0 948.26 221.96"><defs><style>.cls-1{fill:#fff;}</style></defs><title>ACS_White</title><g id="Layer_2" data-name="Layer 2"><g id="Layer_1-2" data-name="Layer 1"><path class="cls-1" d="M143.81,1.82A1.75,1.75,0,0,1,145.7,3.4l21,116.13a2.23,2.23,0,0,1,0,.73l-.16.85a2.84,2.84,0,0,1-1,1.65,2.7,2.7,0,0,1-1.77.66H133.88a1.65,1.65,0,0,1-1.88-1.58l-3.15-17.39H89.94l-9.87,17.39a2.59,2.59,0,0,1-2.49,1.58H47.79a2,2,0,0,1-1.63-.66,1.89,1.89,0,0,1-.36-1.65l.16-.85a4.39,4.39,0,0,1,.28-.85l65.05-116a2.77,2.77,0,0,1,2.49-1.58ZM106.68,74.54h16.78L119.21,52Z"/><path class="cls-1" d="M284,2.43a2.61,2.61,0,0,1,1.7-.61h30.89a1.85,1.85,0,0,1,1.51.67,2.12,2.12,0,0,1,.34,1.77L296.26,121a3,3,0,0,1-1,1.77,2.7,2.7,0,0,1-1.76.66H264.06a1.86,1.86,0,0,1-1.52-.66,2.08,2.08,0,0,1-.33-1.77l11.18-59-16.33,38.06a2.64,2.64,0,0,1-2.66,1.82H223.76c-1.3,0-2-.61-2-1.82L220,62l-11.18,59a2.88,2.88,0,0,1-1.07,1.77,2.94,2.94,0,0,1-1.83.66h-29.3a2,2,0,0,1-1.64-.66,2.08,2.08,0,0,1-.33-1.77L196.8,4.26a3,3,0,0,1,1-1.77,2.87,2.87,0,0,1,1.89-.67h30.76a1.8,1.8,0,0,1,1.47.61q4,5,8.09,17.94a212.12,212.12,0,0,1,6.06,23.53l2,10.46q.9-1.59,2.54-4.44t6.24-10.46q4.61-7.6,8.8-14T275,12.28A65.81,65.81,0,0,1,284,2.43Z"/><path class="cls-1" d="M304.84,123.42a2,2,0,0,1-1.64-.66,2.08,2.08,0,0,1-.33-1.77L325,4.26a2.93,2.93,0,0,1,1-1.77,2.87,2.87,0,0,1,1.89-.67h71.38a2,2,0,0,1,1.57.67,1.94,1.94,0,0,1,.4,1.77l-4.59,24.19a2.91,2.91,0,0,1-1.05,1.71,2.87,2.87,0,0,1-1.84.73H354.12l-3.27,17.26h34.29a1.88,1.88,0,0,1,1.52.67,1.9,1.9,0,0,1,.35,1.64L382.4,74.78a2.78,2.78,0,0,1-1,1.65,2.7,2.7,0,0,1-1.77.66H345.36l-3.3,17.39h39.65a2,2,0,0,1,1.57.67,1.84,1.84,0,0,1,.42,1.64L379.11,121a2.86,2.86,0,0,1-1.06,1.77,3,3,0,0,1-1.83.66Z"/><path class="cls-1" d="M475.62,81.72q11.16,16.17,7.16,41.1a3,3,0,0,1-1,1.7,2.77,2.77,0,0,1-1.9.73H448.4a1.87,1.87,0,0,1-1.52-.67,1.93,1.93,0,0,1-.36-1.64q2.19-14.72-3.2-22.56t-17.26-8.69l-5.9,31.13a2.91,2.91,0,0,1-1.05,1.7,2.87,2.87,0,0,1-1.84.73H388a1.88,1.88,0,0,1-1.62-.73,2.1,2.1,0,0,1-.35-1.7L408.47,4.26a3,3,0,0,1,1-1.77,2.87,2.87,0,0,1,1.89-.67H469A32.8,32.8,0,0,1,482.6,4.5a25.18,25.18,0,0,1,9.92,8,29.24,29.24,0,0,1,5.19,13.68,59,59,0,0,1-.84,19.22Q492.16,70.16,475.62,81.72ZM437.11,33.44l-4.91,25.9c-.14.73.15,1.09.88,1.09h14a14.15,14.15,0,0,0,9.66-3.83,17.53,17.53,0,0,0,5.53-10.21q1.2-6.39-1.65-10.21a9.62,9.62,0,0,0-8.21-3.83h-14A1.2,1.2,0,0,0,437.11,33.44Z"/><path class="cls-1" d="M521,123.42h-29.3a2,2,0,0,1-1.64-.66,2.08,2.08,0,0,1-.33-1.77L511.88,4.26a2.93,2.93,0,0,1,1-1.77,2.87,2.87,0,0,1,1.89-.67h29.3a2,2,0,0,1,1.58.67A2,2,0,0,1,546,4.26L523.91,121a2.88,2.88,0,0,1-1.07,1.77A2.94,2.94,0,0,1,521,123.42Z"/><path class="cls-1" d="M627.65,81.35,647.59,100a1.9,1.9,0,0,1,.55,1.58,2.55,2.55,0,0,1-.81,1.7,84.18,84.18,0,0,1-25.24,17.39,70.46,70.46,0,0,1-29,6.32,56.37,56.37,0,0,1-23.86-5,49,49,0,0,1-17.81-13.49,49.93,49.93,0,0,1-9.76-20.31,58.32,58.32,0,0,1-.37-24.68A71.9,71.9,0,0,1,551,38.85a82.31,82.31,0,0,1,40.4-33.8,69.35,69.35,0,0,1,25.76-5A55.33,55.33,0,0,1,643.7,6.32a48.31,48.31,0,0,1,18.62,17.27,2.3,2.3,0,0,1,.14,1.82A3.1,3.1,0,0,1,661.31,27l-27,18.48a2.65,2.65,0,0,1-1.74.55,1.67,1.67,0,0,1-1.37-.8,26.35,26.35,0,0,0-8.8-7.78,23.81,23.81,0,0,0-11.77-3q-12.15,0-22.28,8.51A34.78,34.78,0,0,0,576,63.48q-2.3,12,4.61,20.55t19.06,8.51a31.26,31.26,0,0,0,13-3,43.44,43.44,0,0,0,11.83-7.91,2.64,2.64,0,0,1,1.67-.79A1.93,1.93,0,0,1,627.65,81.35Z"/><path class="cls-1" d="M743.82,1.82a1.74,1.74,0,0,1,1.89,1.58l21,116.13a2.23,2.23,0,0,1,0,.73l-.16.85a2.78,2.78,0,0,1-1,1.65,2.7,2.7,0,0,1-1.77.66H733.9a1.65,1.65,0,0,1-1.89-1.58l-3.15-17.39H690l-9.87,17.39a2.59,2.59,0,0,1-2.49,1.58H647.8a2,2,0,0,1-1.63-.66,1.92,1.92,0,0,1-.36-1.65l.16-.85a4.39,4.39,0,0,1,.28-.85l65-116a2.78,2.78,0,0,1,2.49-1.58ZM706.69,74.54h16.78L719.22,52Z"/><path class="cls-1" d="M868.29,4.26a3,3,0,0,1,1-1.77,2.71,2.71,0,0,1,1.77-.67h29.43a2,2,0,0,1,1.57.67,2,2,0,0,1,.4,1.77L880.32,121a2.9,2.9,0,0,1-1.05,1.7,2.82,2.82,0,0,1-1.85.73H847a1.81,1.81,0,0,1-1.83-1.21L819.9,54.84,807.36,121a2.83,2.83,0,0,1-1.07,1.77,2.93,2.93,0,0,1-1.82.66H775.16a2,2,0,0,1-1.64-.66,2.08,2.08,0,0,1-.33-1.77L795.33,4.26a3,3,0,0,1,1-1.77,2.87,2.87,0,0,1,1.89-.67h30.4a1.66,1.66,0,0,1,1.74,1.1L856.9,64.33Z"/><path class="cls-1" d="M59.52,191.05l13.63,12.61a1.3,1.3,0,0,1,.38,1.07,1.68,1.68,0,0,1-.54,1.16,56.52,56.52,0,0,1-17.1,11.78A47.79,47.79,0,0,1,36.2,222,38.64,38.64,0,0,1,20,218.58a33.5,33.5,0,0,1-12.17-9.15,34.14,34.14,0,0,1-6.72-13.77,39.49,39.49,0,0,1-.34-16.73,48.25,48.25,0,0,1,6.51-16.7,55.71,55.71,0,0,1,27.34-22.92,47.26,47.26,0,0,1,17.5-3.42,37.88,37.88,0,0,1,18.07,4.29,33,33,0,0,1,12.72,11.71,1.5,1.5,0,0,1,.1,1.23,2,2,0,0,1-.77,1.07L63.93,166.72a1.83,1.83,0,0,1-1.19.38,1.14,1.14,0,0,1-.93-.54,18.16,18.16,0,0,0-6-5.28,16.28,16.28,0,0,0-8-2.06A23,23,0,0,0,32.66,165a23.42,23.42,0,0,0-8.36,13.94q-1.52,8.16,3.21,13.93t13,5.77a21.21,21.21,0,0,0,8.81-2.06,29.39,29.39,0,0,0,8-5.36,1.77,1.77,0,0,1,1.13-.54A1.32,1.32,0,0,1,59.52,191.05Z"/><path class="cls-1" d="M137.68,137.13A1.19,1.19,0,0,1,139,138.2l14.75,78.73a1.68,1.68,0,0,1,0,.5l-.11.57a1.89,1.89,0,0,1-.66,1.12,1.83,1.83,0,0,1-1.2.45H131.4a1.14,1.14,0,0,1-1.29-1.07l-2.21-11.79H101.44L94.8,218.5a1.77,1.77,0,0,1-1.69,1.07H72.85a1.35,1.35,0,0,1-1.11-.45,1.32,1.32,0,0,1-.25-1.12l.1-.57a3,3,0,0,1,.19-.58l43.79-78.65a1.88,1.88,0,0,1,1.69-1.07Zm-25,49.3h11.41l-3-15.25Z"/><path class="cls-1" d="M221.06,138.78a2,2,0,0,1,.67-1.2,1.83,1.83,0,0,1,1.2-.45h20a1.39,1.39,0,0,1,1.07.45,1.35,1.35,0,0,1,.28,1.2l-14.61,79.14a2,2,0,0,1-.71,1.16,1.9,1.9,0,0,1-1.25.49H207.06a1.25,1.25,0,0,1-1.26-.82l-17.45-45.68-8.28,44.85a1.94,1.94,0,0,1-.71,1.2,2,2,0,0,1-1.24.45H158.19a1.37,1.37,0,0,1-1.12-.45,1.41,1.41,0,0,1-.23-1.2l14.6-79.14a2,2,0,0,1,.68-1.2,1.94,1.94,0,0,1,1.28-.45h20.67a1.14,1.14,0,0,1,1.19.74l18.28,41.63Z"/><path class="cls-1" d="M300.29,191.05l13.64,12.61a1.33,1.33,0,0,1,.38,1.07,1.74,1.74,0,0,1-.55,1.16,56.52,56.52,0,0,1-17.1,11.78A47.77,47.77,0,0,1,277,222a38.69,38.69,0,0,1-16.25-3.38,33.46,33.46,0,0,1-12.16-9.15,33.88,33.88,0,0,1-6.72-13.77,39.49,39.49,0,0,1-.35-16.73,48.47,48.47,0,0,1,6.52-16.7,55.59,55.59,0,0,1,27.34-22.92,47.26,47.26,0,0,1,17.5-3.42,37.81,37.81,0,0,1,18.06,4.29,33.15,33.15,0,0,1,12.73,11.71,1.58,1.58,0,0,1,.1,1.23,2,2,0,0,1-.78,1.07L304.7,166.72a1.82,1.82,0,0,1-1.19.38,1.15,1.15,0,0,1-.93-.54,18.12,18.12,0,0,0-6-5.28,16.32,16.32,0,0,0-8-2.06A23,23,0,0,0,273.43,165a23.42,23.42,0,0,0-8.36,13.94q-1.5,8.16,3.22,13.93t13,5.77a21.25,21.25,0,0,0,8.82-2.06,29.19,29.19,0,0,0,8-5.36,1.79,1.79,0,0,1,1.14-.54A1.31,1.31,0,0,1,300.29,191.05Z"/><path class="cls-1" d="M316.44,219.57a1.35,1.35,0,0,1-1.11-.45,1.41,1.41,0,0,1-.24-1.2l14.61-79.14a1.93,1.93,0,0,1,2-1.65H380.2a1.37,1.37,0,0,1,1.07.45,1.32,1.32,0,0,1,.28,1.2l-3,16.4a2,2,0,0,1-.71,1.16,1.9,1.9,0,0,1-1.25.49h-27l-2.16,11.71h23.32a1.25,1.25,0,0,1,1,.45,1.29,1.29,0,0,1,.25,1.12l-3,16.48a1.86,1.86,0,0,1-.66,1.12,1.83,1.83,0,0,1-1.2.45H343.82L341.65,200h27a1.41,1.41,0,0,1,1.08.45,1.27,1.27,0,0,1,.29,1.12l-3,16.4a1.91,1.91,0,0,1-.72,1.2,2,2,0,0,1-1.24.45Z"/><path class="cls-1" d="M432.13,191.29q7.65,11,5,27.87a2,2,0,0,1-.66,1.15,1.88,1.88,0,0,1-1.29.5H413.78a1.23,1.23,0,0,1-1-.46,1.29,1.29,0,0,1-.25-1.11q1.42-10-2.27-15.29t-11.77-5.9l-3.89,21.11a2,2,0,0,1-.71,1.15,1.92,1.92,0,0,1-1.25.5H372.68a1.28,1.28,0,0,1-1.11-.5,1.43,1.43,0,0,1-.24-1.15l14.83-80.38a2,2,0,0,1,.68-1.2,1.94,1.94,0,0,1,1.28-.45h39.2a22.44,22.44,0,0,1,9.26,1.81,17.34,17.34,0,0,1,6.77,5.4,19.83,19.83,0,0,1,3.58,9.28,39.76,39.76,0,0,1-.5,13Q443.33,183.46,432.13,191.29Zm-26.38-32.73-3.24,17.56c-.09.5.11.75.61.75h9.51a9.6,9.6,0,0,0,6.55-2.6,11.78,11.78,0,0,0,3.72-6.93c.53-2.88.15-5.19-1.16-6.92a6.6,6.6,0,0,0-5.6-2.6h-9.51A.81.81,0,0,0,405.75,158.56Z"/><path class="cls-1" d="M544,139.93,539.5,156a2.11,2.11,0,0,1-.87,1.11,1.54,1.54,0,0,1-1.29.29,70.72,70.72,0,0,0-14.78-1.9,13.56,13.56,0,0,0-5,.7,7.93,7.93,0,0,0-3.27,2,12.36,12.36,0,0,0-1.59,2.15,5.57,5.57,0,0,0-.64,1.65,5.49,5.49,0,0,0,0,1.81,9.09,9.09,0,0,0,.87,2.47,7.75,7.75,0,0,0,2.81,2.89,17.14,17.14,0,0,0,5.34,2.22,22.06,22.06,0,0,1,6.84,3.05,23.51,23.51,0,0,1,5.66,5.4,19.32,19.32,0,0,1,3.39,8,27.58,27.58,0,0,1-.1,10.39q-2.22,12-10.73,17.85T501,222a141.8,141.8,0,0,1-17.35-1,1.2,1.2,0,0,1-.88-.57,1.53,1.53,0,0,1-.2-1.16l4.54-16.08A2,2,0,0,1,488,202a1.77,1.77,0,0,1,1.37-.25,68.25,68.25,0,0,0,14.22,1.82,13.85,13.85,0,0,0,5-.7,7.76,7.76,0,0,0,3.22-2,12.23,12.23,0,0,0,1.55-2.15,5.1,5.1,0,0,0,.65-3.5,9.88,9.88,0,0,0-.83-2.47,7.53,7.53,0,0,0-2.77-2.89,17.38,17.38,0,0,0-5.34-2.22,21.15,21.15,0,0,1-6.88-3,24.38,24.38,0,0,1-5.63-5.36,19.27,19.27,0,0,1-3.43-8,27.34,27.34,0,0,1,.06-10.43,25.39,25.39,0,0,1,11.64-17.6q9.51-6.06,24.23-6.06A168.17,168.17,0,0,1,543,138.2a1.26,1.26,0,0,1,.89.58A1.55,1.55,0,0,1,544,139.93Z"/><path class="cls-1" d="M575.9,139.31a48,48,0,0,1,17.63-3.42,38.85,38.85,0,0,1,16.36,3.42A33.12,33.12,0,0,1,629,162.23a38.85,38.85,0,0,1,.39,16.7,48.15,48.15,0,0,1-6.56,16.73,56.26,56.26,0,0,1-11.89,13.77,55.56,55.56,0,0,1-15.66,9.15A48.52,48.52,0,0,1,577.64,222a39.37,39.37,0,0,1-16.37-3.38,32.86,32.86,0,0,1-19.09-22.92,39,39,0,0,1-.38-16.73,48,48,0,0,1,6.55-16.7,55.91,55.91,0,0,1,27.55-22.92Zm-7.07,53.55q4.8,5.77,13.12,5.77a25,25,0,0,0,23.69-19.7q1.5-8.16-3.3-13.94t-13.12-5.77a25,25,0,0,0-23.69,19.71Q564,187.09,568.83,192.86Z"/><path class="cls-1" d="M692.86,191.05l13.63,12.61a1.3,1.3,0,0,1,.38,1.07,1.68,1.68,0,0,1-.54,1.16,56.52,56.52,0,0,1-17.1,11.78A47.79,47.79,0,0,1,669.54,222a38.64,38.64,0,0,1-16.24-3.38,33.58,33.58,0,0,1-12.17-9.15,34.14,34.14,0,0,1-6.72-13.77,39.66,39.66,0,0,1-.34-16.73,48.65,48.65,0,0,1,6.51-16.7,55.67,55.67,0,0,1,27.35-22.92,47.22,47.22,0,0,1,17.5-3.42,37.81,37.81,0,0,1,18.06,4.29,33,33,0,0,1,12.72,11.71,1.54,1.54,0,0,1,.11,1.23,2,2,0,0,1-.78,1.07l-18.27,12.53a1.82,1.82,0,0,1-1.19.38,1.14,1.14,0,0,1-.93-.54,18.16,18.16,0,0,0-6-5.28,16.25,16.25,0,0,0-8-2.06A23,23,0,0,0,666,165a23.42,23.42,0,0,0-8.36,13.94q-1.51,8.16,3.22,13.93t13,5.77a21.21,21.21,0,0,0,8.81-2.06,29.39,29.39,0,0,0,8-5.36,1.77,1.77,0,0,1,1.13-.54A1.32,1.32,0,0,1,692.86,191.05Z"/><path class="cls-1" d="M729.68,219.57H709.75a1.37,1.37,0,0,1-1.12-.45,1.44,1.44,0,0,1-.23-1.2L723,138.78a1.93,1.93,0,0,1,2-1.65h19.93a1.41,1.41,0,0,1,1.08.45,1.34,1.34,0,0,1,.27,1.2l-14.6,79.14a1.91,1.91,0,0,1-.72,1.2A2,2,0,0,1,729.68,219.57Z"/><path class="cls-1" d="M736.86,219.57a1.36,1.36,0,0,1-1.11-.45,1.41,1.41,0,0,1-.24-1.2l14.61-79.14a2,2,0,0,1,.68-1.2,1.91,1.91,0,0,1,1.28-.45h48.54a1.37,1.37,0,0,1,1.07.45,1.32,1.32,0,0,1,.28,1.2l-3,16.4a2,2,0,0,1-.71,1.16,1.9,1.9,0,0,1-1.25.49H770l-2.17,11.71h23.32a1.28,1.28,0,0,1,1,.45,1.35,1.35,0,0,1,.25,1.12l-3.05,16.48a1.86,1.86,0,0,1-.66,1.12,1.83,1.83,0,0,1-1.2.45H764.24L762.07,200h27a1.39,1.39,0,0,1,1.07.45,1.24,1.24,0,0,1,.29,1.12l-3,16.4a1.94,1.94,0,0,1-.71,1.2,2,2,0,0,1-1.24.45Z"/><path class="cls-1" d="M868.61,138.78l-3,16.4a1.81,1.81,0,0,1-.7,1.12,2,2,0,0,1-1.24.45H845.53l-11.29,61.17a1.91,1.91,0,0,1-.72,1.2,2,2,0,0,1-1.24.45h-20a1.26,1.26,0,0,1-1-.45,1.41,1.41,0,0,1-.24-1.2l11.29-61.17H804.18a1.35,1.35,0,0,1-1.11-.45,1.32,1.32,0,0,1-.25-1.12l3-16.4a1.93,1.93,0,0,1,1.95-1.65h59.46a1.37,1.37,0,0,1,1.07.45A1.32,1.32,0,0,1,868.61,138.78Z"/><path class="cls-1" d="M905.2,169h.09c.38,0,.77,0,1.16,0a9.47,9.47,0,0,0,2.14-.62,11.43,11.43,0,0,0,2.94-1.61,22.15,22.15,0,0,0,3.33-3.25,26.91,26.91,0,0,0,3.55-5.32,61.34,61.34,0,0,0,3.32-8.12,89.12,89.12,0,0,0,2.95-11.3,1.87,1.87,0,0,1,.66-1.11,1.83,1.83,0,0,1,1.2-.45H947a1.2,1.2,0,0,1,1,.49,1.46,1.46,0,0,1,.24,1.16A93.06,93.06,0,0,1,945,151.35a63.84,63.84,0,0,1-4.27,10.18,75.85,75.85,0,0,1-4.95,8,41,41,0,0,1-5.17,6.06,62.86,62.86,0,0,1-5,4.28,29,29,0,0,1-4.64,3c-1.42.72-2.69,1.29-3.79,1.73s-1.94.74-2.52.91l-.94.16-6,32.32a1.94,1.94,0,0,1-.71,1.2,2,2,0,0,1-1.25.45H885.86a1.4,1.4,0,0,1-1.08-.45,1.32,1.32,0,0,1-.27-1.2l6-32.32a13.32,13.32,0,0,1-1.39-.33,19.29,19.29,0,0,1-3.34-1.6,24.35,24.35,0,0,1-4.52-3.26,25.44,25.44,0,0,1-4.38-5.65,33,33,0,0,1-3.57-8.41,48.75,48.75,0,0,1-1.45-11.87,76.79,76.79,0,0,1,1.41-15.7,2,2,0,0,1,.67-1.16,1.84,1.84,0,0,1,1.29-.49h20.34a1.26,1.26,0,0,1,1,.45,1.3,1.3,0,0,1,.25,1.11,86.64,86.64,0,0,0-1.09,9.28,66.34,66.34,0,0,0-.09,7.21,23.07,23.07,0,0,0,.84,5.32,26.73,26.73,0,0,0,1.33,3.75,6.82,6.82,0,0,0,1.83,2.39c.79.66,1.39,1.14,1.8,1.45a4.28,4.28,0,0,0,1.78.65q1.17.21,1.29.21Z"/></g></g></svg>