<svg xmlns="http://www.w3.org/2000/svg" viewBox="0 0 1906.84 221.96"><defs><style>.cls-1{fill:#fff;}</style></defs><title>AOTZ_White</title><g id="Layer_2" data-name="Layer 2"><g id="Layer_1-2" data-name="Layer 1"><path class="cls-1" d="M65.48,218.28l-4.25-53.86H39.12l-4.25,53.86H0L22.11,3.68H80.79l20.69,214.6ZM51.59,38.84H49l-8.5,91.56H59.81Z"/><path class="cls-1" d="M195.31,218.28,147.69,86.18h-1.42v132.1H114.52V3.68h36.29L180,95.25h1.41V3.68h32v214.6Z"/><path class="cls-1" d="M258.81,218.28v-85.9L223.94,5.1V3.68h35.72q5.1,22.7,8.08,36.29t4.67,21.54q1.71,8,2.41,11.77c.47,2.55.81,4.68,1,6.38h2.55c.18-1.7.52-3.83,1-6.38s1.28-6.47,2.41-11.77,2.79-12.47,5-21.54,5-21.16,8.36-36.29h34.59V5.1l-33.46,127v86.18Z"/><path class="cls-1" d="M367.66,218.28V39.12H337.33V3.68h95.24V39.12H402.52V218.28Z"/><path class="cls-1" d="M510.53,218.28v-92.7h-30v92.7H444.76V3.68h35.72V91.85h30V3.68H546v214.6Z"/><path class="cls-1" d="M565,218.28V3.68h35.72v214.6Z"/><path class="cls-1" d="M700.46,218.28,652.83,86.18h-1.42v132.1H619.66V3.68H656l29.2,91.57h1.41V3.68h32v214.6Z"/><path class="cls-1" d="M776.69,129.55V95.82h52.73c.18,3.59.33,8.64.42,15.16s.15,14.32.15,23.39q0,17-.57,28.49t-1.7,19.27A89.35,89.35,0,0,1,825,195a72.58,72.58,0,0,1-3.54,9.36q-4.82,9.92-13.89,13.75T781.23,222q-17.58,0-26.65-3.82t-13.89-13.75a73.16,73.16,0,0,1-4-10.63,98.29,98.29,0,0,1-2.83-16q-1.14-10.2-1.56-26.36t-.43-42.24q0-24.94.43-40.54t1.56-25.37a85.88,85.88,0,0,1,2.83-15.17,81.85,81.85,0,0,1,4-10.2,32.63,32.63,0,0,1,5.95-8.51,26.79,26.79,0,0,1,8.22-5.52,41.32,41.32,0,0,1,11.2-3A116.16,116.16,0,0,1,781.23,0a122.25,122.25,0,0,1,15.59.85,41.13,41.13,0,0,1,11,2.83,22.15,22.15,0,0,1,7.52,5.25,42.27,42.27,0,0,1,5.52,7.79,63,63,0,0,1,5.81,18,145.48,145.48,0,0,1,1.85,25.08v5a40.45,40.45,0,0,1-.29,4.4H795.4a20.63,20.63,0,0,0,.29-3.4v-6a76.94,76.94,0,0,0-.71-9.92,69.78,69.78,0,0,0-1.56-8.5q-2-6.81-12.48-6.81-5.67,0-8.22,1.7t-4,6.24c-.38,1.7-.75,3.69-1.13,5.95s-.71,5.77-1,10.49-.52,11-.71,18.85-.28,18.2-.28,31.05q0,20.4.14,32.59t.57,19.28c.28,4.73.61,8.22,1,10.49a39.31,39.31,0,0,0,1.41,5.95c1,3,2.36,5.11,4.26,6.24s4.82,1.7,8.79,1.7q6.51,0,9.21-1.84t4.11-6.66c.38-1.7.75-3.87,1.13-6.52s.66-5.48.85-8.51.33-6,.43-9.07.14-5.85.14-8.5v-8.79a46.59,46.59,0,0,0-.29-5.67Z"/><path class="cls-1" d="M981.08,204.39q-4.83,9.92-13.89,13.75T940.82,222q-17.58,0-26.79-3.82t-13.75-13.75a73.17,73.17,0,0,1-4-10.63A96.45,96.45,0,0,1,893.48,178q-1.14-9.92-1.56-25.93t-.42-41.25q0-25.23.42-41.1t1.56-25.8a92.58,92.58,0,0,1,2.84-15.59,90.05,90.05,0,0,1,4-10.77Q905.1,7.65,914,3.83T940.82,0q17.29,0,26.37,3.83t13.89,13.75a91.81,91.81,0,0,1,4,10.77,86.94,86.94,0,0,1,2.7,15.59q1,9.93,1.56,25.8t.56,41.1q0,25.23-.56,41.25T987.74,178a90.37,90.37,0,0,1-2.7,15.74A74.35,74.35,0,0,1,981.08,204.39Zm-28.64-26.65a49.08,49.08,0,0,0,1.42-6.38,97.55,97.55,0,0,0,.85-10.63q.28-7.08.43-19t.14-31.75q0-20.13-.14-32.32t-.57-19.13c-.28-4.63-.57-8.13-.85-10.49a31,31,0,0,0-1.28-6.1,9.68,9.68,0,0,0-3.68-5.67q-2.55-1.7-7.94-1.7c-3.78,0-6.47.53-8.08,1.56S930,39,929.2,41.67a50.61,50.61,0,0,0-1.42,6.24c-.38,2.27-.71,5.76-1,10.49s-.47,11.15-.57,19.27-.14,18.9-.14,32.32q0,19.85.14,31.89t.57,19c.28,4.64.61,8.13,1,10.49a49.08,49.08,0,0,0,1.42,6.38q1.13,4,3.54,5.53t8.08,1.56q5.38,0,7.94-1.56A9,9,0,0,0,952.44,177.74Z"/><path class="cls-1" d="M1026.15,218.28V39.12H995.82V3.68h95.25V39.12h-30V218.28Z"/><path class="cls-1" d="M1168,218.28v-92.7h-30v92.7h-35.72V3.68H1138V91.85h30V3.68h35.43v214.6Z"/><path class="cls-1" d="M1220.88,218.28V3.68h80.79V39.12h-45.93V91.85h45.08v33.73h-45.08v55.56h45.64v37.14Z"/><path class="cls-1" d="M1382.46,218.28l-1.14-3.4a27.71,27.71,0,0,1-1-4.4c-.28-1.79-.57-4.2-.85-7.23s-.71-6.89-1.28-11.62c-.56-5.48-1.09-11.81-1.55-19s-1.28-14.93-2.41-23.25q-1.71-11.61-4-14.88t-7.09-3.26h-9.36v87H1319V3.68h55.28q12.18,0,20.26,3.12a25.78,25.78,0,0,1,12.62,10.07q4.53,6.94,6.38,18a165.92,165.92,0,0,1,1.84,26.64,235.31,235.31,0,0,1-1.28,27.93q-1.27,10.07-3.54,15.45t-5.39,7.51a56.51,56.51,0,0,1-6.52,3.83v1.7a19.73,19.73,0,0,1,6.52,8.5,73.7,73.7,0,0,1,4,13.89,241.48,241.48,0,0,1,3.26,24.1q1,11.9,2.7,27.78.56,6.24,1.13,10.2t1,6.66c.29,1.8.57,3.31.85,4.54s.61,2.41,1,3.54v1.14Zm-16.73-118.5a29.68,29.68,0,0,0,6.1-.56q2.68-.57,4.53-3.83t2.84-10.21a148.7,148.7,0,0,0,1-19.7,92.84,92.84,0,0,0-1-15.45c-.67-3.68-1.56-6.37-2.7-8.08a6.83,6.83,0,0,0-4.11-3.11,21.43,21.43,0,0,0-5-.57h-13.61V99.78Z"/><path class="cls-1" d="M1502,218.28V39.12h-30.33V3.68H1567V39.12h-30V218.28Z"/><path class="cls-1" d="M1644.91,218.28v-92.7h-30v92.7h-35.72V3.68h35.72V91.85h30V3.68h35.44v214.6Z"/><path class="cls-1" d="M1758.87,218.28l-4.25-53.86h-22.11l-4.25,53.86h-34.87L1715.5,3.68h58.68l20.69,214.6ZM1745,38.84h-2.55l-8.5,91.56h19.27Z"/><path class="cls-1" d="M1888.7,218.28l-47.62-132.1h-1.42v132.1h-31.75V3.68h36.28l29.2,91.57h1.42V3.68h32v214.6Z"/></g></g></svg>