<svg xmlns="http://www.w3.org/2000/svg" viewBox="0 0 1297.74 221.96"><defs><style>.cls-1{fill:#fff;}</style></defs><title>Mission_White</title><g id="Layer_2" data-name="Layer 2"><g id="Layer_1-2" data-name="Layer 1"><path class="cls-1" d="M285.19,190.74v25.17H195v-25h26V30.66a31.53,31.53,0,0,0-2.56,5.5c-.8,1.78-1.47,3.67-2.14,5.53-.73,2.06-1.72,4-2.51,6.07s-1.54,4.11-2.41,6.1-1.74,4.18-2.64,6.25S207,64,206.23,66s-1.5,3.82-2.23,5.72-1.67,3.9-2.48,5.85c-.9,2.15-1.62,4.4-2.57,6.5s-1.79,4-2.58,6c-1.52,4-3.37,7.78-4.71,11.81-.72,2.14-1.85,4.12-2.71,6.22-1.12,2.74-2.13,5.53-3.23,8.29-.5,1.24-1.1,2.44-1.58,3.7-1.87,4.87-4,9.66-5.88,14.53-1.18,3-2.57,6-3.76,9-.88,2.24-1.9,4.42-2.7,6.69s-1.72,4.49-2.65,6.69-1.86,4.27-2.69,6.45c-.74,1.91-1.64,3.76-2.39,5.67s-1.58,3.77-2.23,5.72-1.85,4-2.61,6-1.59,4.25-2.47,6.32-1.75,4-2.55,6-1.63,4.22-2.48,6.31-1.67,3.89-2.43,5.87c-1.3,3.36-2.92,6.59-4.05,10-.07.19-.32.32-.52.53H131.8c-1.22-1.1-1.36-2.72-1.94-4.06-.89-2.06-1.66-4.21-2.49-6.3-1.48-3.75-3.12-7.42-4.52-11.2a37,37,0,0,0-1.46-3.53c-1-2.09-1.81-4.29-2.63-6.47-.69-1.85-1.52-3.65-2.28-5.48-1.6-3.85-3.1-7.73-4.65-11.6-.81-2-1.76-4-2.56-6s-1.74-4.18-2.45-6.33c-.44-1.33-1.33-2.51-1.77-3.85-1-2.89-2.35-5.6-3.27-8.51-.38-1.2-1.09-2.27-1.52-3.49-.53-1.53-1.18-3-1.77-4.54s-1.1-3.09-1.81-4.52c-1-1.91-1.72-3.88-2.49-5.85-.86-2.17-1.67-4.37-2.56-6.51s-1.79-4.3-2.69-6.45c-1.11-2.68-2.24-5.34-3.2-8.07-.42-1.2-1.1-2.28-1.53-3.5-.53-1.53-1.18-3-1.77-4.54S81.34,92,80.63,90.6c-.94-1.91-1.72-3.88-2.49-5.84-.86-2.17-1.68-4.37-2.56-6.51-.81-2-1.71-3.88-2.48-5.85-.86-2.17-1.66-4.37-2.56-6.51L68.07,60c-.9-2.16-1.61-4.4-2.57-6.5s-1.75-4-2.57-6-1.6-4.25-2.48-6.31-1.81-4.45-2.76-6.65c-.53-1.24-1-2.48-1.52-3.73a.16.16,0,0,0-.1,0c0,.05-.12.12-.12.18V190.74H82V216H0V190.78H27.9c.35-8.93.2-163.47-.16-165.56H0V.46H83.69c.65,1.71,1.33,3.42,1.94,5.15.91,2.6,2.06,5.1,2.94,7.73.71,2.13,1.68,4.19,2.44,6.32.95,2.66,2.13,5.23,3.07,7.9.6,1.72,1.36,3.41,2.08,5.1,1,2.4,1.82,4.89,2.87,7.29s1.84,4.89,2.78,7.33,1.85,4.59,2.74,6.89,1.82,4.9,2.77,7.34,1.85,4.58,2.74,6.89,1.82,4.9,2.76,7.34,1.85,4.58,2.74,6.89c1,2.5,1.84,5,2.83,7.54.91,2.3,1.9,4.56,2.7,6.9s1.81,4.46,2.62,6.72c.91,2.52,2.06,4.95,2.89,7.51.58,1.81,1.46,3.52,2.14,5.3,1.09,2.84,2.22,5.66,3.29,8.5.72,1.92,1.57,3.79,2.22,5.73,1.28,3.82,3,7.47,4.28,11.3.77,2.34,1.89,4.56,2.87,6.89,2-4.29,3.33-8.8,5.26-13.08.83-1.83,1.54-3.79,2.22-5.73s1.57-3.63,2.22-5.49c1.07-3.08,2.55-6,3.49-9.11.54-1.82,1.54-3.49,2.19-5.28,1.32-3.65,3-7.18,4.21-10.87.59-1.73,1.47-3.36,2.11-5.08,1-2.58,2-5.13,2.93-7.73.61-1.73,1.44-3.38,2.11-5.09,1.42-3.69,2.89-7.36,4.36-11,1.28-3.21,2.46-6.47,3.85-9.64.91-2.06,1.74-4.17,2.5-6.3s1.55-4.11,2.37-6.13c1-2.41,2-4.82,2.94-7.26,1.15-3,2.45-6,3.58-9.07q1.9-5.18,4-10.24c1.38-3.25,2.56-6.58,3.93-9.84s2.84-6.77,4.05-10.24A2.1,2.1,0,0,1,200.62.5h84.1V25.17H257.33V190.74Z"/><path class="cls-1" d="M1067.65,102.56c-.31-1.66.13-3.38-.43-5.09-.4-1.22-.07-2.59-.42-4s-.24-2.61-.55-3.91-.26-2.52-.6-3.66c-.62-2-1.21-4.12-1.62-6.18a79,79,0,0,0-3.44-11.21,81.11,81.11,0,0,0-4.71-10.43,75.2,75.2,0,0,0-4.15-7.66c-1.85-2.68-3.5-5.5-5.56-8.06-1.74-2.17-3.38-4.47-5.29-6.47-4.17-4.35-8.3-8.79-13.2-12.36-1.64-1.2-3.35-2.32-4.93-3.59-1.19-1-2.61-1.54-3.8-2.44a64.3,64.3,0,0,0-7.22-4.2,61.62,61.62,0,0,0-8.07-3.75c-1.9-.76-3.77-1.61-5.71-2.26s-3.66-1.14-5.42-1.86a40.24,40.24,0,0,0-5.74-1.63,43,43,0,0,0-5-1.15,14.77,14.77,0,0,0-3.26-.41c-1-1-2.53.1-3.51-.91-1.27.06-2.51-.37-3.71-.38-2.33,0-4.58-.86-6.92-.55A.34.34,0,0,1,964,0H942c-.05.13-.1.37-.16.38a10.09,10.09,0,0,1-2.26,0c-.89-.17-1.48.55-2.34.53a6.84,6.84,0,0,0-3.29.33c-1,.47-2.36-.23-3.43.54-2.17-.2-4.13.95-6.27.92-.8.74-1.89.2-2.74.57C919.7,4.09,917.66,4,916,5c-2.89.22-5.37,1.89-8.21,2.31-3.18,1.72-6.59,2.9-9.81,4.53a107.86,107.86,0,0,0-13.52,7.78c-1.84,1.3-3.64,2.68-5.47,4-2.66,1.9-5,4.15-7.44,6.27A74.45,74.45,0,0,0,863.19,39q-2.43,3-4.65,6.11a94,94,0,0,0-8.6,15c-1.23,2.78-2.38,5.58-3.5,8.41-1.33,3.37-2.13,6.89-3.54,10.22.06,1.84-1.16,3.47-.91,5.35-.93,1.68-.82,3.61-1.3,5.41s-.59,4-.94,6c-.28,1.58-.08,3.22-.45,4.86a16.07,16.07,0,0,0,0,4.33,26.79,26.79,0,0,1-.45,4.4c-.12,1.13.09,2.31,0,3.43s.54,2.11.54,3.25c0,2.46-.33,4.92.34,7.4.39,1.45,0,3.08.48,4.61.3.87,0,1.85.44,2.81.37.8-.18,1.92.52,2.76a45.07,45.07,0,0,0,1.4,7.45c.45,2,1,4,1.66,5.95.87,2.77,1.76,5.52,2.85,8.22,1,2.42,1.92,4.86,3,7.23a104.06,104.06,0,0,0,7.16,12.63,90.27,90.27,0,0,0,10.17,13,84,84,0,0,0,10.1,9.3c2.43,1.88,4.86,3.73,7.37,5.48a103.65,103.65,0,0,0,10.47,6.29,71.71,71.71,0,0,0,7.5,3.45c1.9.75,3.78,1.56,5.71,2.27a92.88,92.88,0,0,0,11.15,3.49,42.62,42.62,0,0,0,5.06,1.13,14.68,14.68,0,0,0,3.25.41c.87,1.11,2.42-.2,3.29.92,1.25,0,2.51.34,3.71.36,2.17,0,4.27.82,6.45.56.31,0,.63,0,.59.45h22c0-.13.1-.37.16-.37a10.41,10.41,0,0,1,2.49-.05c1,.18,1.66-.52,2.57-.53a7.18,7.18,0,0,0,3.28-.34c1-.47,2.28-.2,3.46-.44,1.84-.37,3.71-.76,5.57-1,3-.35,5.89-1.36,8.83-2a49.13,49.13,0,0,0,6.43-2.17,60.92,60.92,0,0,0,6.53-2.47c3.22-1.65,6.61-2.89,9.73-4.79,2.61-1.58,5.35-3,7.91-4.67a93.39,93.39,0,0,0,13.33-10.45c1.21-1.16,2.38-2.37,3.57-3.56a31.15,31.15,0,0,0,3.37-3.43c2-2.71,4.23-5.23,6.24-7.93a87,87,0,0,0,6.8-10.74,64,64,0,0,0,4.7-10c.66-2,1.63-3.9,2.29-5.93s1.35-4,2-6.07q1.18-4,2.07-8.07c.13-.58.68-.95.54-1.64a2.51,2.51,0,0,1,.13-1.75,2.38,2.38,0,0,0,.28-1.72c0-.63.62-1,.5-1.65a9.22,9.22,0,0,1,.4-3.25c.21-1.07-.18-2.23.5-3.24-.16-2.48.41-4.94.4-7.38C1068,111.77,1068.51,107.15,1067.65,102.56ZM1024.92,124a19,19,0,0,0-.42,2.8c.11,1-.65,1.92-.48,3,.14.92-.75,1.78-.43,2.78a50.7,50.7,0,0,0-2.06,7.39,58.69,58.69,0,0,1-3.11,8.82,46.78,46.78,0,0,1-3.93,8c-1.46,2.19-2.63,4.58-4.17,6.75-1.22,1.73-2.52,3.39-3.77,5.09a50.28,50.28,0,0,1-6,6.43A63.55,63.55,0,0,1,988.63,184a73.86,73.86,0,0,1-7.75,4c-2.65,1.15-5.3,2.43-8.24,2.81-.59.74-1.61.15-2.23.69s-1.41,0-2.08.59-1.63-.28-2.29.53c-.06.07-.29,0-.44,0-2-.2-3.8.8-5.77.46-3.49.91-7.06.21-10.58.49-1.23.1-2.26-.62-3.48-.53a6.48,6.48,0,0,1-3.29-.34,12.15,12.15,0,0,0-3-.47,65.2,65.2,0,0,1-9.94-2.62,61.92,61.92,0,0,1-9.45-4.31c-2.93-1.54-5.56-3.55-8.35-5.3a22.88,22.88,0,0,1-3.86-3.38c-.8-.81-1.84-1.28-2.58-2.1-1.78-2-3.49-4-5.25-6a99.73,99.73,0,0,1-6.27-8.66c-.09-.12-.27-.2-.32-.33-.91-2.41-2.56-4.42-3.57-6.77s-2-4.67-2.9-7.06c-.73-2-1.42-4-2-6.07-.47-1.86-.93-3.75-1.54-5.55-.33-1,.24-2.14-.7-2.92.34-1.37-.33-2.63-.51-3.93a55.87,55.87,0,0,1-.86-10.4c-1-3-.22-6-.47-9-.09-1.19.66-2.24.5-3.48a9.67,9.67,0,0,1,0-3.64c.37-1.34.12-2.7.45-4,.71-2.79.54-5.76,1.78-8.42.27-3.69,1.65-7.09,2.77-10.55.59-1.81,1.36-3.56,2.1-5.32.6-1.43,1.25-2.85,1.94-4.24,1.08-2.17,2.33-4.24,3.51-6.35a44,44,0,0,1,2.53-4c1.28-1.79,2.58-3.56,4-5.25a60.17,60.17,0,0,1,6.05-6.41c2-1.75,4-3.39,6.15-5A55,55,0,0,1,919.06,37a47.81,47.81,0,0,1,7.46-3.57c2-.7,3.91-1.61,5.94-2.27,1.63-.54,3.32-.8,4.95-1.34,2.05-.67,4.27-.6,6.31-1.36a.44.44,0,0,1,.23,0c2.33.35,4.58-.56,6.91-.47s4.77-.22,7.1.09c1.63.22,3.29.1,4.85.44,2.41.53,4.86.71,7.24,1.31s4.47,1.41,6.74,2a38.4,38.4,0,0,1,6.84,2.85,67.47,67.47,0,0,1,9.57,5.73,69.85,69.85,0,0,1,10.57,9.3c1.89,2,3.55,4.29,5.26,6.51,3.6,4.69,6.16,9.94,8.7,15.21a15.8,15.8,0,0,1,1.24,2.92c.27,1.13.91,2.07,1.23,3.17s.33,2.14,1.1,3c-.29,1.6.7,3,1,4.41s.38,3,1.24,4.28c-.26,1.29.72,2.44.46,3.7-.19.89.67,1.44.52,2.34a2.5,2.5,0,0,0,.4,2.34c.12.12,0,.45,0,.67-.34,2.19.6,4.28.49,6.46s0,4.44,0,6.65c0,1.23-.09,2.46,0,3.67C1025.72,118,1025,121,1024.92,124Z"/><path class="cls-1" d="M562.69,161.67a24,24,0,0,1-.38,5.33c-.3,1.63-.68,3.26-.92,4.89a40,40,0,0,1-1.91,7,52.31,52.31,0,0,1-4.35,9.21,64.06,64.06,0,0,1-4.31,6.45,55.13,55.13,0,0,1-5.13,5.69A57.18,57.18,0,0,1,536,208a33.39,33.39,0,0,1-3.88,2.22c-1.85.88-3.65,1.87-5.52,2.73-2.12,1-7.5,2.78-10.19,3.65-2,.66-4.22.74-6.19,1.64-.91.41-2.09-.23-3,.55-1.74-.35-3.36.71-5.08.46-1.44-.21-2.71.67-4.17.5a39,39,0,0,0-4.59,0,39.43,39.43,0,0,0-4.35,0c-1.24.13-2.29-.5-3.48-.53a8.08,8.08,0,0,1-3.52-.34,13.93,13.93,0,0,0-3.22-.49,77.09,77.09,0,0,1-11.58-3,75.85,75.85,0,0,1-10.39-4.81,70.8,70.8,0,0,1-8.32-5.33,16.09,16.09,0,0,1-3.58-3,4.49,4.49,0,0,0-1.92-1.21v15H412.37V144.05H443v2c0,5.19.1,10.39-.06,15.58a6.81,6.81,0,0,0,1.54,4.65c1.51,1.89,2.77,4,4.36,5.77a68.54,68.54,0,0,0,6.3,6.79,59.22,59.22,0,0,0,11,7.73c2.73,1.46,5.86,2,8.72,3.29,1.06-.2,2,.43,3,.41s1.48.63,2.33.53a5.83,5.83,0,0,1,2.28,0c2.9.85,5.85.17,8.76.46,1,.1,1.83-.46,2.79-.52a5.94,5.94,0,0,0,2.85-.33c.88-.47,2.11-.19,3.21-.5a42.48,42.48,0,0,0,5.25-1.74,18.35,18.35,0,0,0,3.65-1.71c1.1-.79,2.38-1.26,3.51-2.07a32.92,32.92,0,0,0,6.76-6.31,26.63,26.63,0,0,0,3.9-6.43,25.82,25.82,0,0,0,2-7c.32-2.1.21-4.17.4-6.24.16-1.81-.83-3.5-.48-5.31-.83-1.5-.83-3.26-1.76-4.79s-1.34-3.22-2.43-4.46c-1.7-1.93-3-4.21-5.36-5.61-1.35-.8-2.41-2.11-3.8-3a84.85,84.85,0,0,0-9.17-5,88.37,88.37,0,0,0-10.67-4.12c-3.43-1.15-6.86-2.26-10.3-3.36-2.3-.74-4.58-1.52-6.91-2.13-5.91-1.55-11.61-3.71-17.42-5.56a64.06,64.06,0,0,1-6.15-2.31c-2.52-1.1-5.13-2-7.57-3.31a87.33,87.33,0,0,1-9.51-5.82c-1.63-1.15-3.13-2.45-4.69-3.67a32.93,32.93,0,0,1-4.44-4.14,52.74,52.74,0,0,1-6.7-9.12c-.85-1.49-1.68-3-2.41-4.51a41.37,41.37,0,0,1-3.09-9c-.37-1.78-.68-3.56-1-5.34s-.05-3.47-.45-5.09c-.57-2.32-.16-4.63-.42-6.92-.12-1.1.63-1.95.52-3a8.76,8.76,0,0,1,0-3.19c.49-1.77.47-3.6.87-5.37.53-2.36,1.25-4.67,2-7a48.33,48.33,0,0,1,3.88-8.47,41.64,41.64,0,0,1,3.44-5.22,13,13,0,0,1,1.9-2.44,23.42,23.42,0,0,0,2-2.34,30.42,30.42,0,0,1,5-4.47c.75-.52,1.23-1.53,2.3-1.57a44.27,44.27,0,0,1,10.14-6,59.36,59.36,0,0,1,7.51-2.89,41.43,41.43,0,0,1,7.2-1.92c2.49-.27,4.86-1.36,7.41-1,.73.1,1.11-.68,1.88-.51a7.71,7.71,0,0,0,2,0c.06,0,.11-.25.17-.38h15.59c0,.45.29.5.59.45,1.66-.29,3.25.36,4.84.57a30.18,30.18,0,0,1,4.68.82c1.49.44,3,.91,4.47,1.37a57.33,57.33,0,0,1,9.8,4A61.4,61.4,0,0,1,518.23,13c.95.73,1.7,1.84,3.2,2.32V.52h30.16V62.77H521.52V46.59l-4-3.91a46.7,46.7,0,0,0-9.72-7.5,39.85,39.85,0,0,0-12.19-4.91c-.67-.86-1.8-.25-2.64-.86-.64-.47-1.65.08-2.57-.42-.77-.42-2,.11-2.92-.14-2.91-.79-5.85-.22-8.76-.42a11.2,11.2,0,0,0-3.26.44c-1,.22-2.11-.35-3,.48a11.66,11.66,0,0,0-4.47.83c-1.4.49-2.81,1-4.23,1.42a27.9,27.9,0,0,0-7.19,3.67,22.29,22.29,0,0,0-4.49,3.55,25.62,25.62,0,0,0-5.28,9,24.5,24.5,0,0,0-.7,3.41,16.17,16.17,0,0,0-.34,4.63c.49,3.54.82,7.13,2.66,10.36A29.56,29.56,0,0,0,451.9,71a36.82,36.82,0,0,0,9.48,7.57,95.17,95.17,0,0,0,10.09,4.94c3.91,1.69,7.94,3,12,4.32,2.69.89,5.43,1.67,8.14,2.52,4.72,1.48,9.48,2.91,14.13,4.61,3.45,1.26,6.88,2.57,10.32,3.87s6.55,2.66,9.79,4a58.56,58.56,0,0,1,10.46,5.75,68.36,68.36,0,0,1,8.36,6.44c1,1,2.23,1.75,3.16,2.81a58.76,58.76,0,0,1,7.39,9.79c1.47,2.63,2.74,5.41,4,8.2s1.44,5.8,2.64,8.54c-.3,1.58.28,3.12.55,4.61C563.07,153.24,562.49,157.46,562.69,161.67Z"/><path class="cls-1" d="M732.37,161.67A23.39,23.39,0,0,1,732,167c-.29,1.63-.68,3.26-.92,4.89a40,40,0,0,1-1.91,7,53,53,0,0,1-4.34,9.21,64.15,64.15,0,0,1-4.32,6.45,56.21,56.21,0,0,1-5.12,5.69,57.65,57.65,0,0,1-9.68,7.7,33.39,33.39,0,0,1-3.88,2.22c-1.85.88-3.65,1.87-5.52,2.73-2.12,1-7.5,2.78-10.19,3.65-2.05.66-4.22.74-6.19,1.64-.91.41-2.09-.23-3,.55-1.74-.35-3.35.71-5.08.46-1.43-.21-2.71.67-4.17.5a38.86,38.86,0,0,0-4.58,0,39.59,39.59,0,0,0-4.36,0c-1.24.13-2.29-.5-3.48-.53a8.08,8.08,0,0,1-3.52-.34,13.76,13.76,0,0,0-3.21-.49,76.9,76.9,0,0,1-11.59-3,75.85,75.85,0,0,1-10.39-4.81,70.8,70.8,0,0,1-8.32-5.33,15.61,15.61,0,0,1-3.58-3c-.46-.62-1.21-.79-2-1.43v15.23H582.06V144.05h30.63v2c0,5.19.11,10.39-.06,15.58a6.81,6.81,0,0,0,1.54,4.65c1.51,1.89,2.77,4,4.36,5.77a69.87,69.87,0,0,0,6.31,6.79,58.82,58.82,0,0,0,11,7.73c2.73,1.46,5.87,2,8.72,3.29,1.06-.2,2,.43,3,.41s1.48.63,2.33.53a5.88,5.88,0,0,1,2.29,0c2.89.85,5.85.17,8.75.46,1,.1,1.84-.46,2.79-.52a5.94,5.94,0,0,0,2.85-.33c.88-.47,2.11-.19,3.21-.5a42.48,42.48,0,0,0,5.25-1.74,18.35,18.35,0,0,0,3.65-1.71c1.1-.79,2.38-1.26,3.51-2.07a32.92,32.92,0,0,0,6.76-6.31,27.67,27.67,0,0,0,5.89-13.43c.31-2.1.21-4.17.39-6.24.16-1.81-.82-3.5-.48-5.31-.83-1.5-.83-3.26-1.76-4.79s-1.33-3.22-2.43-4.46c-1.7-1.93-3-4.21-5.36-5.61-1.35-.8-2.41-2.11-3.8-3a84.85,84.85,0,0,0-9.17-5,88.37,88.37,0,0,0-10.67-4.12c-3.43-1.15-6.86-2.26-10.3-3.36-2.3-.74-4.58-1.52-6.91-2.13-5.91-1.55-11.61-3.71-17.42-5.56a64.06,64.06,0,0,1-6.15-2.31c-2.52-1.1-5.13-2-7.56-3.31a86.51,86.51,0,0,1-9.52-5.82c-1.62-1.15-3.13-2.45-4.69-3.67a32.85,32.85,0,0,1-4.43-4.14,54.31,54.31,0,0,1-6.72-9.12A53,53,0,0,1,585.36,82a39.81,39.81,0,0,1-3-8.86c-.33-1.78-.67-3.56-1-5.34s0-3.47-.44-5.09c-.57-2.32-.17-4.63-.43-6.92-.12-1.1.64-1.95.52-3a9,9,0,0,1,0-3.19c.49-1.77.47-3.6.87-5.37.53-2.36,1.25-4.67,2-7a48.33,48.33,0,0,1,3.88-8.47,40.63,40.63,0,0,1,3.45-5.22,13,13,0,0,1,1.89-2.44,23.42,23.42,0,0,0,2-2.34,30.42,30.42,0,0,1,5-4.47c.75-.52,1.23-1.53,2.31-1.57a44,44,0,0,1,10.13-6,60,60,0,0,1,7.51-2.89,41.43,41.43,0,0,1,7.2-1.92c2.49-.27,4.86-1.36,7.41-1,.73.1,1.11-.68,1.88-.51a7.7,7.7,0,0,0,2,0c.07,0,.11-.25.17-.38h15.59c0,.45.29.5.59.45,1.67-.29,3.25.36,4.84.57a30,30,0,0,1,4.68.82c1.5.44,3,.91,4.47,1.37a57,57,0,0,1,9.8,4A61.4,61.4,0,0,1,687.91,13c1,.73,1.7,1.84,3.14,2.3V.52h30.23V62.77H691.2V46.59l-4-3.91a46.7,46.7,0,0,0-9.72-7.5,39.85,39.85,0,0,0-12.19-4.91c-.67-.86-1.8-.25-2.64-.86-.64-.47-1.65.08-2.57-.42s-2,.11-2.92-.14c-2.91-.79-5.85-.22-8.76-.42a11.25,11.25,0,0,0-3.26.44c-1,.22-2.11-.35-3,.48a11.7,11.7,0,0,0-4.47.83c-1.4.49-2.81,1-4.22,1.42a27.58,27.58,0,0,0-7.19,3.67,22.07,22.07,0,0,0-4.5,3.55,25.77,25.77,0,0,0-5.28,9,24.5,24.5,0,0,0-.7,3.41,15.81,15.81,0,0,0-.33,4.63c.48,3.54.81,7.13,2.66,10.36A28.9,28.9,0,0,0,621.58,71a36.82,36.82,0,0,0,9.48,7.57,95.17,95.17,0,0,0,10.09,4.94c3.91,1.69,7.94,3,12,4.32,2.68.89,5.42,1.67,8.13,2.52,4.73,1.48,9.48,2.91,14.13,4.61,3.45,1.26,6.88,2.57,10.32,3.87s6.55,2.66,9.79,4A58.56,58.56,0,0,1,706,108.62a67.6,67.6,0,0,1,8.36,6.44c1,1,2.23,1.75,3.16,2.81a58.76,58.76,0,0,1,7.39,9.79c1.47,2.63,2.74,5.41,4,8.2s1.45,5.8,2.65,8.54c-.3,1.58.27,3.12.54,4.61C732.75,153.24,732.17,157.46,732.37,161.67Z"/><path class="cls-1" d="M392.49,190.79V215.9H299.06v-25h27.2c.39-2.06.54-157.62.18-165.58H299.11V.52h93.36V25.21H365.13V190.79Z"/><path class="cls-1" d="M841,190.74v25.17H747.75c-.34-1.76-.45-18.5-.15-25.07h27.32V25.26H747.61V.5H841V25.24H813.62v165.5Z"/><path class="cls-1" d="M1297.74.52V25.21h-31.47V216h-38.5c-.81-1.37-1.59-2.73-2.39-4.08-1.75-3-3.49-5.91-5.33-8.8s-3.36-5.8-5.06-8.68c-1.59-2.71-3.25-5.38-4.85-8.08-1.05-1.77-2.05-3.59-3.11-5.36-1.92-3.18-3.89-6.33-5.81-9.52-1.6-2.69-3.13-5.43-4.74-8.12s-3.33-5.18-4.79-7.88c-1.11-2.07-2.31-4.09-3.48-6.12-1.69-2.9-3.57-5.7-5.3-8.58-1.25-2.08-2.35-4.23-3.58-6.31-1.65-2.77-3.36-5.48-5-8.24-1.06-1.78-2-3.64-3.1-5.36-2.53-3.82-4.59-7.91-7.07-11.76-1.65-2.58-3.15-5.27-4.74-7.89-1.82-3-3.42-6.09-5.34-9-1.09-1.66-2-3.47-3-5.17-1.74-2.88-3.56-5.71-5.3-8.59-1.17-1.95-2.26-4-3.41-5.92-1.74-3-3.49-5.91-5.32-8.81s-3.24-5.69-4.9-8.51-3.36-5.48-5-8.24c-1.28-2.14-2.52-4.3-3.75-6.4a.1.1,0,0,1,0,0,.33.33,0,0,0,0-.1h0a0,0,0,0,0,0,0h0s-.06,0-.1.06-.13.11-.13.17v150.1h30.21v25.18h-90.24v-25h30.56V25.29h-30.5V.52h77.68a56.3,56.3,0,0,0,2.92,4.95c1.52,2.5,3,5,4.44,7.58,1.27,2.21,2.55,4.44,3.86,6.63s2.6,4.45,3.92,6.65c1.16,1.94,2.22,4,3.42,5.9,1.5,2.44,2.88,4.94,4.37,7.39,1.25,2.05,2.41,4.19,3.66,6.26,1.4,2.32,2.73,4.69,4.13,7,1.16,1.94,2.24,4,3.42,5.9,1.49,2.44,2.87,4.94,4.35,7.38,1.21,2,2.3,4.1,3.53,6.09,1.46,2.37,2.82,4.81,4.25,7.2,1.2,2,2.32,4.08,3.53,6.08,1.44,2.39,2.84,4.81,4.26,7.2,1.19,2,2.31,4.09,3.52,6.09,1.45,2.38,2.85,4.8,4.27,7.19,1.19,2,2.29,4.11,3.52,6.09,1.46,2.37,2.82,4.82,4.26,7.2,1.2,2,2.27,4.11,3.52,6.08,1.53,2.42,2.86,5,4.41,7.38,1.17,1.83,2.18,3.82,3.33,5.71,1.53,2.49,2.92,5.07,4.46,7.57,1.15,1.86,2.18,3.82,3.33,5.71,1.52,2.5,2.92,5.08,4.45,7.57a33.29,33.29,0,0,1,2.64,4.84h.6V25.28h-30V.52Z"/></g></g></svg>