<svg xmlns="http://www.w3.org/2000/svg" viewBox="0 0 2052.63 221.96"><defs><style>.cls-1{fill:#fff;}</style></defs><title>Champions_White</title><g id="Layer_2" data-name="Layer 2"><g id="Layer_1-2" data-name="Layer 1"><path class="cls-1" d="M2005.86,3.63c-1.38,7.92-2.76,15.79-4.31,24.67C1990,9.77,1972.89,2.63,1953.27,0h-14.5c-.93.19-1.86.42-2.8.57-30.47,5-55.65,18.52-72.67,45.17-6.89,11.21-9.59,23.54-9.66,36.55,0,19.82,9.26,34,26.14,43.86,18.64,10.88,40,13.76,59.87,21.12,8.57,3.18,18,5.32,22.3,15,.83,7.11-3.21,11.38-8.67,14.78-17.41,10.86-39.13,7.1-58.6-10.11a57,57,0,0,1-11.08-20.64h-46.15c-1.19,7.18-2.34,14.19-3.5,21.2q-2.16,12.12-4.3,24.26-1.35,8.15-2.71,16.3c-.64,3.33-1.28,6.66-2,10.25h46.13c.37-2.69.73-5.24,1.08-7.8.79-4.34,1.59-8.68,2.55-13.93a45.72,45.72,0,0,0,18.83,16.22c11.39,5.43,23.67,7.23,35.94,9.16h24.91c.93-.19,1.84-.48,2.76-.58,23.7-2.6,45-10.33,61.56-28.44,8.48-8.17,13.86-18.12,17-29.39,6-18.39,4.29-35.62-9-50.36C2010.32,95,1987.9,88,1965.45,81.24c-7-2.37-14.31-4.24-21.06-7.25-5.92-2.64-15.2-4-13.94-12.66,1.28-8.88,10-11.4,17.9-12.6,21-3.2,34.51,8.12,45.35,24h46.72c1.49-8.93,2.95-17.66,4.41-26.4,2.58-14.15,5.17-28.3,7.8-42.73Z"/><path class="cls-1" d="M446.33,96.2q2.42-13.89,4.84-27.78c1.39-7.24,2.77-14.48,4.23-22.05H478c.69-4.46,1.34-8.61,2-12.76,1.78-9.89,3.55-19.79,5.37-29.91H370.94c-1.53,9.47-3,18.77-4.52,28.07-.9,4.69-1.8,9.39-2.8,14.71h22.67c-1.27,7.69-2.44,14.8-3.61,21.91q-2,10.31-4.05,20.59H321.87c.78-4.94,1.5-9.58,2.23-14.23q2.65-14.18,5.31-28.36H352C354.52,32,357,17.94,359.45,3.47H248.26c-.85,0-1.7.13-2.86.22C243,17.8,240.59,31.81,238.1,46.4h22.24Q258,60.58,255.65,74.73q-1.72,9.8-3.46,19.57-6.85,38.33-13.7,76.63c-.38,1.67-.77,3.33-1.23,5.35h-22c-1.4,8.52-2.75,16.67-4.1,24.82-1,5.62-2.1,11.25-3.21,17.18H321.68c.85-5.2,1.68-10.29,2.5-15.38l4.9-26.73H306.52c.29-2.42.53-4.4.77-6.37q4-21.57,8-43.12h56.94c-2.49,14.24-4.92,28.08-7.35,41.93-.51,2.43-1,4.86-1.6,7.65H340.69c-2.51,14.17-4.94,28-7.43,42.05H447.64c2.41-13.92,4.83-27.8,7.33-42.24H432.51l.65-6.17Z"/><path class="cls-1" d="M1350,85.78q2.26-12.47,4.53-24.93c.93-4.7,1.85-9.4,2.83-14.45h22.6c.64-3.9,1.22-7.48,1.8-11.06,1.85-10.47,3.69-20.94,5.57-31.62H1270.13c-1.62,10-3.22,19.93-4.83,29.8-.78,4.12-1.57,8.24-2.46,12.87h22.28c-.17,1.13-.33,2.23-.49,3.32s-.31,2.14-.46,3.18-.3,2.07-.46,3.09c-.07.51-.14,1-.22,1.53s-.14,1-.22,1.52l-4.64,26.12-14.31,80c-.69,3.57-1.38,7.13-2.14,11h-22.36c-1,6.23-1.89,12.1-2.82,18l-4.22,24.11h116.87c1.29-7.95,2.56-15.72,3.83-23.48,1.14-6,2.27-12,3.52-18.64h-22.77c.65-4,1.2-7.49,1.76-11Q1343,125.48,1350,85.78Z"/><path class="cls-1" d="M674.12,155.29l-12-63.76q-1.79-9.54-3.56-19.08l-5.76-30.8q-3.4-19-6.81-38H550.8c-2.15,13-4.28,25.8-6.4,38.63-.21,1.16-.41,2.33-.73,4.13h12.82c-4.69,8.9-9,17.14-13.36,25.39L533.39,89.9Q516.05,122,498.71,154.17c-2.7,5-5.42,10.06-8.12,15.09l-4.16,7H467.67c-.9,5.37-1.75,10.48-2.6,15.59-1.58,8.72-3.15,17.44-4.77,26.46h97.85c1.43-8.73,2.82-17.28,4.22-25.83,1-5.24,2-10.48,3.09-16.33H543.83l2.93-5.69c1.62-2.84,3.25-5.67,4.82-8.4h55.86c.6,4.73,1.17,9.18,1.8,14.15H588.77L588,180.8c-2.2,12.4-4.4,24.81-6.64,37.5h111c2.09-12.57,4.16-25,6.23-37.42.28-1.44.55-2.88.91-4.74H678.24C676.83,169,675.48,162.15,674.12,155.29Zm-72.55-31.7c0,.16-.15.34-.35.77H571.13c5.67-11.2,11.14-22,16.62-32.8l6.66-12.44c.83,4.43,1.53,8.15,2.22,11.86Q599.11,107.29,601.57,123.59Z"/><path class="cls-1" d="M1245.68,55a47,47,0,0,0-12-27.81c-11-12.55-25.18-19.49-41.36-21.68-11.7-1.58-23.63-1.82-35.46-1.9-34.42-.23-68.83-.08-103.62-.08-1.23,7.68-2.41,15.07-3.6,22.46-1.21,6.66-2.43,13.32-3.76,20.56h22.29c-.42,3.16-.78,5.82-1.14,8.47q-2.6,14.5-5.18,29-7.45,41.44-14.9,82.92c-.56,2.8-1.13,5.61-1.76,8.77h-22.06c-1.42,8.71-2.77,17.06-4.12,25.41-1,5.62-2.09,11.24-3.18,17.14h113.79c.84-5.42,1.66-10.63,2.48-15.85,1.58-8.74,3.16-17.48,4.86-26.84h-22.6l.94-7.35c1.49-7.64,3-15.28,4.56-23.34,11.17,0,22.14.14,33.11,0,42.57-.65,79.3-24.84,89-58.53C1245.66,76.13,1247.36,65.74,1245.68,55ZM1127.35,102c1-5.78,1.92-11.61,2.88-17.44q2.61-14.49,5.21-29c.63-3,1.26-6,2.07-9.85,12.91,3.64,29.14-6.55,38,11,1.84,9.75-.21,19.09-2.9,28.38C1163.7,101.89,1150.25,107,1127.35,102Z"/><path class="cls-1" d="M981.27,175.35l4.19-25.18q5.43-30.16,10.85-60.31l5.91-33.64c.66-3.17,1.33-6.35,2.07-9.86h23.28c1.08-6.78,2.1-13.24,3.13-19.68,1.38-7.56,2.77-15.12,4.21-23H917.61L906.5,25.37Q898.71,40.19,890.92,55L876.31,82.8l-6,10.74c-1.13-4.93-2.11-9.25-3.1-13.58q-2.94-14.76-5.87-29.55-2.86-14.2-5.72-28.43c-1.19-6.08-2.37-12.16-3.56-18.29H742C741,9.9,740.06,16,739.12,22L734.69,46.4h23.1c-.08,1.67-.14,2.81-.2,4Q755,65.15,752.33,79.94l-16.08,90.45c-.46,1.84-.92,3.67-1.48,5.87H712c-1.41,8.52-2.75,16.68-4.1,24.84-1.05,5.63-2.1,11.26-3.21,17.19H804.9c.89-5.57,1.77-11.06,2.64-16.55,1.54-8.36,3.07-16.73,4.7-25.58H789c.23-2,.41-3.57.58-5.15,4.89-26.85,9.77-53.71,14.92-82.06,5.22,28.18,10.16,54.82,15.09,81.46q2.64,14.47,5.27,29,1.57,9.47,3.17,18.95h19.92l8.82-17.21,15.74-30q23.09-44.11,46.19-88.2l12.62-23.22-5.06,30.7q-5.18,29.3-10.33,58.59Q913,162.32,910.1,175.7H887.38c-1.5,9-3,17.76-4.45,26.57-.94,5.26-1.88,10.52-2.87,16h117c.76-4.79,1.52-9.5,2.28-14.21,1.68-9.34,3.37-18.67,5.13-28.4h-18Z"/><path class="cls-1" d="M155.39,163.35c-27.32,14.75-49.31,14.59-67.15-.49A41.27,41.27,0,0,1,79,142.58c-3.39-20.08,2-39,7.57-58,4-9.9,9-19.24,16.32-27.2,22.61-19.28,46.41-17.92,59.22,3.41,3.16,6.33,4.06,13.13,3.86,20.11h47.74c1.11-6.83,2.18-13.45,3.25-20.08l5.73-32.42c1.45-8.12,2.9-16.25,4.41-24.67H179.13c-1,5.48-2,10.8-3.15,17C165.82,8.5,153.39,2.14,138.69,0H121.31C95.62,3,72.1,11.45,51.77,27.85A117.58,117.58,0,0,0,25,56.09a109.34,109.34,0,0,0-15,27.3C-.66,110-4,137,5.94,164.64a74.69,74.69,0,0,0,20.28,31.29c1,1,2,2.06,3.09,3C46.66,213.6,67.21,220,89.43,222h19.13c24.28-2.27,46.47-9.87,65.45-25.65,11.48-9,21.73-19,28.36-32.27l-28.15-17Z"/><path class="cls-1" d="M1592.18,73.6c-1.73-13.63-5.86-26.36-13.88-37.66-1.22-1.73-2.34-3.54-3.67-5.17C1558.86,11.28,1537.49,2.92,1513.39,0h-22a24.72,24.72,0,0,1-2.74.65,123.62,123.62,0,0,0-72.67,34,123.35,123.35,0,0,0-27.76,37.78c-15.93,34.09-21.38,68.72-5.3,104.43a71.71,71.71,0,0,0,28.39,31.32c12.36,8.75,26.76,11.4,41.24,13.77H1474c16.65-1.92,32.6-6.16,47.5-14a118.59,118.59,0,0,0,38.35-30.48C1584.7,147.23,1596.73,113,1592.18,73.6Zm-90.06,80.92c-4.72,9.45-11.53,17.08-21.78,20.95a29.74,29.74,0,0,1-16.75.11c-21.13-12.7-16.09-33.16-14.64-52a156.59,156.59,0,0,1,12.79-51.2c6.45-12.58,13.89-24.06,29.5-26.4,14.68-2.19,23.79,6.76,26.9,26.4C1520,101.19,1515,128.68,1502.12,154.52Z"/><path class="cls-1" d="M1847.17,29.55c1.54-8.52,3.08-17,4.67-25.86H1750.93c-1.37,8.45-2.72,16.81-4.07,25.17-1.06,5.71-2.12,11.42-3.28,17.63h23.56c-.81,5.25-1.56,10.09-2.31,14.93q-2.86,16.22-5.75,32.41c-1.41,7.29-2.82,14.57-4.41,22.83l-6.51-15.27q-6.63-16.51-13.28-33-7.32-18.22-14.63-36.47l-11.1-28.16h-94.92c-1.55,9.52-3.07,18.84-4.6,28.16-.87,4.67-1.73,9.34-2.71,14.55h23.24c-1.13,7-2.18,13.57-3.24,20.12q-3.21,18-6.43,36-4.53,25.22-9.07,50.44l-4.25,22.62h-23c-.82,5.2-1.59,10.12-2.36,15-1.64,9.09-3.27,18.17-5,27.59h100.31l4.35-26.95c1-5.07,1.92-10.13,3-15.78h-23.27c1.23-7.65,2.37-14.76,3.51-21.87l9.12-51.64,1.38.54,19.56,48.68q6.32,15.73,12.6,31.46l14,35.64h69.09c2-11.55,3.89-23,5.82-34.47l5.73-32.53a3,3,0,0,0-.75-1.26,3,3,0,0,1,.76,1.26l10.26-57.42,5.82-33.06c.9-4.71,1.8-9.42,2.76-14.48h23.61C1845.42,40.55,1846.3,35.05,1847.17,29.55Z"/></g></g></svg>