<svg xmlns="http://www.w3.org/2000/svg" viewBox="0 0 1963.62 221.96"><defs><style>.cls-1{fill:#fff;}</style></defs><title>Response_White</title><g id="Layer_2" data-name="Layer 2"><g id="Layer_1-2" data-name="Layer 1"><path class="cls-1" d="M990.43,158.5c0-.12-.06-.24-.1-.36l.09.33c-.28.36-.56.7-.84,1Z"/><path class="cls-1" d="M1311.58,0h-.5c-.4,0-.81,0-1.24,0h2.43Q1311.94,0,1311.58,0Z"/><path class="cls-1" d="M210.19,169.37c.25-18.34-13.19-25.25-23.82-33.59,12.06-7.18,29.45-3.13,33.34-18.45,3.5-4.41,6.27-7.26,8.3-10.55,22.54-36.67.85-85.34-43.59-98.27C164.58,2.74,144.1,1.82,123.72.05H77.06L9.21,2.2c-2.12.07-4.24,0-9.16,0V107.35L12.87,110c-7.77.26-8.55,5.13-8.22,10.93.23,4,3.47,3,5.95,3.45v2.85c-5,1.64-5.65,5.59-5.45,10.44L15,139.14c-11.83.63-6.27,6.57-6.21,9.55l-3.53,5.87c1.17,1.9,2.18,3.55,3.39,5.54l-6.2,1.76c-.21,1.7-.42,3.35-.64,5.11l3.39,1.88c.14,1.2.29,2.46.37,3.2l-5.5,3.28v42.14c2.65.78,5.28,2.21,7.93,2.23,20.69.19,41.39,0,62.08.16,4.9,0,6.55-2,6.5-6.73-.17-15-.07-30.06-.07-44.79,9-5.2,2.15-14.15,5.42-21h41.23c.23,3.59.46,7.09.71,10.93l13.35,1.26c-1.78,3.75-.3,6,4.07,7.4l-8.12,1.55c-5,12.1,18.43,47.16,35.54,53.48h29.8l41.54-2.3c.74-1.37,1.47-2.75,2.69-5C227.9,201.65,223.87,180.78,210.19,169.37ZM140.43,95.43c-21.2,3.26-42.34.46-63.72.14V49.72c27.57,7.82,61-11.7,81.86,18.42C160.11,84.93,154.51,93.26,140.43,95.43Z"/><path class="cls-1" d="M1480.25,154.93c.19,1.5-2.4,3.37-4.17,5.69,0,17-.06,35.1,0,53.22,0,3.95-1.47,5.79-5.49,6-10.5.6-21,1.4-31.5,2.11h-25.85c-23.17-3.49-25.52-26.56-37.32-40.57-5.51-6.54-13.81-12.68-14.22-23.11l6.55-1.3-5.59-.46q-.87-2.58-1.57-4.71l6.56-5.85c-5.75-6.24-23.64-.09-15.75-17.25l-12.32-1.85c.17-1.9.32-3.53.49-5.36h4.78l2.35-4.06-13.56-1.37c-.29-1.8-.6-3.62-1-5.87l-.32,0-.32,0-.31,0-.3,0c-6.65-2-9.2-2.82-12.48-3.84.63-2.27,1.28-4.66,2-7.24l-4.11-.39c-5.19,9.06,7.23,15.43,2.78,24.29l-3.48.46v5.84c8.1,7.87,2.93,17.41,4.09,25.83.2,1.47-2.47,3.34-4.27,5.6,0,17.1,0,35.31,0,53.53,0,4-1.8,5.71-5.78,5.69q-28.8-.08-57.59,0c-3.85,0-5.65-1.76-5.64-5.6,0-17.25,0-34.51,0-51.31l5.63-1.1c.53-1.13,1.06-2.26,1.65-3.54-4.46-3.95-4-7.5,1.5-10.42-8.39-3.24-1.4-8.46-2.44-13.14l-3.43-.65c-.26-1.6-.53-3.31-.85-5.28l9.22-3.19-7.15-3c.58-2.16,1.15-4.25,2.81-10.4q0,.47-.06.81l2.43-1.32v-6.72l-6.68-.37c-2.8-34-1.47-68-.15-101.86L1286.23.05h23.61c.43,0,.84,0,1.24,0h.5q.36,0,.69,0h0l.47,0,.36,0,.32,0,.23,0a12.17,12.17,0,0,1,1.23.25l.31.08a9.18,9.18,0,0,1,.89.28l.42.15.57.24.37.18.56.28.35.2.25.15c.16.09.31.19.46.29l.47.33.35.26.63.51.22.2.07.06.38.35.31.3c.1.11.21.21.31.31l.35.39.36.39.34.4.34.42c.11.14.23.28.33.42l.2.25.35.48.43.59.67,1c.2.29.39.58.58.87s.4.64.61,1l.41.65c.54.87,1.08,1.76,1.64,2.64,19.27,30.61,46.08,55.94,62.52,88.66,1.37,2.73,7.84,2.48,10.7,5s4.28,6.88,6.37,10.48l-2.74,3.34,1.24,2,4.37-1.58c-.42-1.12-.74-2-1.13-3l2.74-4.58-2.12-2.53c-4.14-.25-5.53-2.56-5.52-6.67q.17-48.58,0-97.16c0-4.18,1.76-5.86,5.9-5.84q29.65.13,59.29,0c4.25,0,6.1,1.76,6.09,6q-.08,48.56,0,97.23l3.91.47c.65,6.35,4,13.06-3.83,18.26-.13,1.56-.3,3.57-.37,4.43C1484.13,137,1479.15,146.5,1480.25,154.93Z"/><path class="cls-1" d="M1963.62,171.4v46.07c-2.76,2.66-6.18,2.36-9.63,2.36q-98.77,0-197.55,0c-4.3,0-6.26-1.76-6-6,1.08-16-3.7-32.87,8-47.26-3-1.72-6.29-3.44-2.14-7.15-5.39-5.32-5.93-8.17-1.68-8.7,3.31-.42,6.65-.52,10.27-.78-2.14-3.57-.89-6.14,2.36-8.08-4.43-2.77-12.55-1.14-12.31-8.46.63-8.25,3.87-12.37,11.73-14.81L1753,117.22c-.06-.24-.13-.48-.19-.72s-.06-.25-.09-.36c-.14-.51-.26-1-.39-1.46l-.09-.38c-.08-.3-.16-.57-.22-.82l-.1-.4a112509580900.21,112509580900.21,0,0,0-.08-.3s0-.08,0-.12V2.21h4.91q94.71,0,189.41,0c4.4,0,6.23,1.82,6.19,6.21q-.16,19.52,0,39c0,4.42-1.91,6.15-6.27,6.14q-57.46-.11-114.93,0H1827V79.73h34.33q39.06,0,78.12,0c3.8,0,5.63,1.4,5.75,5.38.4,13.74.6,27.5,4.1,41,.37,1.41-1.08,3.28-1.72,5H1828.27c-.45,2.49-.85,4.75-1.23,6.85l5,4.12c-1.17,8.62-2.33,17.29-3.55,26.27,1.07.06,2.33.19,3.59.19q62,0,123.93-.05C1959.1,168.43,1961.68,168.85,1963.62,171.4Z"/><path class="cls-1" d="M77.06.05,9.21,2.2c-2.12.07-4.24,0-9.16,0V60.72C.05,41.15.08,21.58,0,2,0,.33.33,0,2,0Q39.54.11,77.06.05Z"/><path class="cls-1" d="M470,214.59c0,3.46-1.71,5.16-5.15,5.16q-101.31,0-202.62,0c-2.85,0-5.23-1.25-5.09-4,.88-16.7-3.86-34.32,7.93-49.41-3.47-1.6-6-3.44-2.14-7-1.81-2.65-9.53-4.47-1.73-8.45,2.82-1.44,6.75-.7,10.44-1-2.27-3.58-1.13-6.14,2.27-8-4-3.16-12.8-1-12.13-8.74.38-8.13,3.75-12.18,11.57-14.69l-13.7-1.36c-.23-.85-.45-1.7-.65-2.45-.05-.2-.11-.4-.16-.59s-.13-.49-.18-.7-.08-.3-.12-.43-.05-.19-.07-.26,0-.13-.05-.18,0-.14-.05-.2V2.56c2.6-.15,3.87-.29,5.14-.29q94.56,0,189.13-.06c4.42,0,6.22,1.64,6.17,6.11-.15,13.2-.09,26.4,0,39.61,0,3.89-1.79,5.56-5.63,5.55q-57.62,0-115.23,0h-4.31V79.78H364q41,0,82.06,0c4.14,0,5.9,1.85,5.89,5.94-.05,13.5.63,26.93,3.85,40.14.36,1.5-1,3.43-1.62,5.19H334.82c-.45,2.52-.87,4.85-1,5.55,8.1,11.34,1,21.51,1.18,32h15.68q56.63,0,113.26-.05c4.24,0,6.11,1.56,6.06,5.93C469.88,187.82,470,201.2,470,214.59Z"/><path class="cls-1" d="M1232.71,121.19c-5.4-18.74-7.14-38.53-15.91-56.29C1179.22-11.2,1045.13-20.6,990.59,49,971,74,965.67,109.38,978.77,127.55c-.41,1.08-.83,2.2-1.24,3.27.36.79.67,1.51.72,1.62-1,2.28-2.55,4.14-2.12,5.2,2.16,5.34,7.56,2.36,11.82,4.12-2,4.77-4,10,4.63,9.5-1.11,1.61-2.05,3-2.9,4.23.15.61.28,1.16.41,1.67l.12.48.12.5.09.33c-.28.36-.56.7-.84,1l-.27.33-.36.43c.37,1.63.69,3.07,1,4.57l3,.8c.72,2.56,1.45,5.14,2.77,9.8,20.31,26,49.11,41.29,83.84,43.21,52.55,2.9,101.87-4,133.33-54.68h6.63c3.14-9.84,10.39-18.64,5.66-30.41.28-1.1.69-2.72,1.14-4.46C1229.68,127.21,1234.07,125.89,1232.71,121.19Zm-72.8,22.21c-.08,1.24-.16,2.43-.26,3.86l-11,4.56v5.38l3.8,1.39c-9.85,2.78-21.31-.75-31,8.3-16,.07-33.67,1.59-51-4.75l2.19-4c-10.43-8.26-21.31-16.06-26.93-28.68l2.29-3.28c-7.58-35.35-.49-55.23,25.46-66.42,19.15-8.27,39.2-8.65,57.52,2.59,18.65,11.45,22.47,31.28,25.43,52.91l-.1.42c0,.07,0,.15,0,.23l-.17.78,5.84,5v1.76c-4.25.12-9.22-.75-8.26,6.15l2.22,1.16,5.91,9.73,3.63,1.64Z"/><path class="cls-1" d="M900,7.32C863.7,1,827.08,2.14,790.47,2.8c-19.42.35-38.84.06-60.66.06V113.58h11c.23,1.94.4,3.45.58,4.94l-6.15,3.42,3.37,6.06c-1.09.91-2.47,2-3.77,3.09.44,1.94.81,3.54,1.19,5.21l-4.16,1.34c.24,1.83.45,3.54.7,5.5H740L738.5,148l-2,1.12c.44,2.14-1.22,4.74,1.92,6-.66,1.64-1.24,3.09-1.82,4.52,1,1.41,1.78,2.63,2.37,3.52l7.24,1.77-16.5,2.5q0,23.4,0,47c0,3.74,1.71,5.42,5.44,5.41q33.3,0,66.61,0c4.27,0,6-1.94,6-6.14,0-19.54.13-39.08,3.59-58.68,35.3-1.33,70.58,3,104.61-8,.15-1.39.27-2.51.31-2.81,14.14-9.17,31.22-12.08,39-27.93,1.4-6.6,3.89-12,5.18-17.64C972.21,47.06,951.76,16.33,900,7.32ZM887,79.19c-1,4-3.3,7.9-1.09,13.07-24.29,21.75-53.24,8.68-80.24,11.83V52.54c23.86.73,48-4.13,71,5.37C885.89,61.7,889.46,69.13,887,79.19Z"/><path class="cls-1" d="M715.39,151.61c-11.93,41.87-41.78,61.64-83.26,66-51.84,5.47-102.19,3.38-144.56-33-3.92-3.37-10.63-6.12-8.66-12.48,2.08-6.7,9.46-6,15.13-6.9a107.33,107.33,0,0,1,11.5-.8c9.56-15.18,26.37-11,36.45-20l3.27,5.09c25.13,25.86,56.86,19.9,87.48,18.72-.13-2.53-.23-4.52-.33-6.48,6.73-2.56,14.34-.67,20.18-5.76-1.78-2.44-2-4.93,1.37-6.61-4.69-2.28-12.81,1.1-12.59-8.42-7.41-2.24-16.2.83-23.69-5.58H576L574.48,131H558.72c-.33-1.63-.53-2.62-.84-4.2H539.55c-.89-2.07-1.54-3.59-2.19-5.12l2.15-3.23-6.3-.69c-.21-1.27-.43-2.52-.63-3.73-6-2.08-13.49,2.19-18.5-4.54l-9.65-2.16c-19-25.17-12.45-48.49,2.39-69.74,16.64-23.84,42.62-31.16,70.24-34.8,43.31-5.72,101.31,10.94,134.45,39.65-.14,8.25-32.67,31-54,37.75-22-28.55-70.49-36.14-90.57-13.51,5.12,11.31,16.61,11.2,26.27,13.42,26,6,53.21,5.51,78.7,13.86,15.51,5.09,27,17.07,39.72,27.05v4.63l-3.19,2.91c.57,2.28,1.11,4.41,1.65,6.55l4.08.68C716.15,140.94,716.9,146.31,715.39,151.61Z"/><path class="cls-1" d="M1727,169.67c1.65,4.84-.58,8.3-3.34,11.7-26.81,33-64.09,38-103,38.39-41.05.36-79.91-6.77-112-35-3.95-3.47-10.88-6.19-8.79-12.66s9.52-5.95,15.21-6.8c4.6-.68,9.31-.64,14.62-1-2.42-13.47,8.11-8.75,13.27-10.28,7.15-3.95,13.42-7.67,21-8l2.13,3.67c25.45,25.53,57.24,19.89,87.87,18.46v-6.82l15.3-2.47,4.47-2.8c-2.27-2.46-2.37-5,1.2-6.72-4.59-2.37-12.7,1.07-12.67-8.42-7.25-2.51-16.37,1.1-23.85-6.06h-41.65c-.32-1.29-.58-2.36-1-3.86h-16c-.35-1.49-.59-2.56-1-4.23h-18.43c-.88-2-1.53-3.58-2.21-5.18l2.39-3.26-6.59-.59-.48-3.8c-6-2-13.45,2-18.65-4.66l-8.24-1.8c-16.7-18.06-14.2-36.23-7.55-54.61,5-13.75,14.11-24.32,26.17-32.47C1565.18,7,1587.66,2.89,1611.16,2.24c45.24-1.27,85.56,12.24,123,41.74-13,20.53-38.5,22.53-54.88,37.19-25-30-73.09-37.68-90.78-15.14-.47,6.78,5.09,8.16,9.64,9.74,20.78,7.22,42.62,9.63,64.25,11.5,28.07,2.42,50.32,15.06,70.12,34.59v3.8l-3.2,2.83c.54,2.15,1.1,4.38,1.7,6.81l3.93.42C1740.28,148.94,1734.34,159.54,1727,169.67Z"/></g></g></svg>