<svg xmlns="http://www.w3.org/2000/svg" viewBox="0 0 1114.78 221.96"><defs><style>.cls-1{fill:#fff;}</style></defs><title>Heals_White</title><g id="Layer_2" data-name="Layer 2"><g id="Layer_1-2" data-name="Layer 1"><path class="cls-1" d="M163.23,80.71,178.74,3H254L210.82,219H135.53l14.75-73.48H90.05L75.29,219H0L43.22,3h75.29L103,80.71Z"/><path class="cls-1" d="M469.07,3,458.23,57.22H357.64l-5.57,28.16h97.58l-10.24,51.2H341.83l-5.72,28.16h103.6L425.86,219H250L293.19,3Z"/><path class="cls-1" d="M541.65,181.76,526,219H438.65L552.65,3H661.07L688.62,219H604.3l-.61-37.19Zm61-51.2L601.29,65.2H590.74l-27.55,65.36Z"/><path class="cls-1" d="M705.19,219,748.41,3H823.7L793.43,154.2h87l-16,64.75Z"/><path class="cls-1" d="M1015.55,138.84l-28.92-3.46q-76.8-8.9-76.79-54.21a60.47,60.47,0,0,1,1.35-12.35Q924.89,0,1040.09,0a303.38,303.38,0,0,1,74.69,9l-12.35,61.75a279.27,279.27,0,0,0-68.66-9q-24.56,0-41.57,2.56l-3.46,17.32,28.91,3.31q76.5,9,76.5,55.26a66.4,66.4,0,0,1-1.35,13Q1078.94,222,963.9,222a297.82,297.82,0,0,1-73.34-9l12.35-61.74q35.69,9,67.31,9,27.4,0,41.56-2.56Z"/></g></g></svg>