<svg xmlns="http://www.w3.org/2000/svg" viewBox="0 0 1048.51 221.96"><defs><style>.cls-1{fill:#fff;}</style></defs><title>Forces_White</title><g id="Layer_2" data-name="Layer 2"><g id="Layer_1-2" data-name="Layer 1"><path class="cls-1" d="M164.48,3.19a3.34,3.34,0,0,1,2.69,1.17,3.71,3.71,0,0,1,.69,3.08l-6.49,42.31a5,5,0,0,1-1.62,3A4.37,4.37,0,0,1,156.68,54H84L79.34,84.19h63.15a3.34,3.34,0,0,1,2.69,1.17,3.48,3.48,0,0,1,.73,2.87l-6.53,42.52a4.6,4.6,0,0,1-1.6,2.87,4.49,4.49,0,0,1-3.05,1.17H71.58L59.81,211.54a4.76,4.76,0,0,1-1.75,3.09,4.93,4.93,0,0,1-3.15,1.17H3.67a3.6,3.6,0,0,1-2.91-1.17,3.69,3.69,0,0,1-.69-3.09L31.37,7.44A4.94,4.94,0,0,1,33,4.36a4.82,4.82,0,0,1,3.27-1.17Z"/><path class="cls-1" d="M234.2,8.82a121,121,0,0,1,45-8.82,101.45,101.45,0,0,1,42.34,8.82,92.13,92.13,0,0,1,32.3,23.71,91.38,91.38,0,0,1,18.59,35.4A100.69,100.69,0,0,1,374.8,111a120.94,120.94,0,0,1-15.55,43.16,136.21,136.21,0,0,1-69,59.11,122.14,122.14,0,0,1-45,8.71,102.57,102.57,0,0,1-42.35-8.71A88.22,88.22,0,0,1,152,154.14,101.26,101.26,0,0,1,149.65,111a120.15,120.15,0,0,1,15.53-43,137.49,137.49,0,0,1,69-59.11ZM220.25,146.91q12.81,14.9,34.18,14.88t38.75-14.88Q310.55,132,313.78,111T304.2,75.05Q291.38,60.17,270,60.17T231.27,75.05Q213.89,89.93,210.67,111T220.25,146.91Z"/><path class="cls-1" d="M519.37,142.87q20.53,28.27,15.13,71.86a5,5,0,0,1-1.63,3A4.63,4.63,0,0,1,529.6,219H474.53a3.37,3.37,0,0,1-2.69-1.17,3.45,3.45,0,0,1-.73-2.87q2.88-25.72-7-39.44t-30.73-15.2L425,214.73a4.89,4.89,0,0,1-1.74,3A4.75,4.75,0,0,1,420.1,219H368.86a3.39,3.39,0,0,1-2.88-1.28,3.78,3.78,0,0,1-.72-3L397.06,7.44a4.89,4.89,0,0,1,1.64-3.08A4.81,4.81,0,0,1,402,3.19H502.74a58.44,58.44,0,0,1,23.94,4.68,46.47,46.47,0,0,1,17.85,13.92q7.31,9.26,9.94,23.92t-.26,33.59Q547.55,122.68,519.37,142.87ZM449,58.47,442,103.75q-.3,1.92,1.62,1.92H468.1A24,24,0,0,0,484.75,99q7.31-6.7,9-17.86t-3.53-17.86q-5.25-6.69-14.6-6.7H451.18A2,2,0,0,0,449,58.47Z"/><path class="cls-1" d="M708.9,142.23l36,32.53a3.49,3.49,0,0,1,1.07,2.77,4.27,4.27,0,0,1-1.31,3,139.71,139.71,0,0,1-43,30.41A120.27,120.27,0,0,1,651.39,222a100.9,100.9,0,0,1-42-8.71A87.85,87.85,0,0,1,559,154.14a102.56,102.56,0,0,1-2.2-43.16,121.27,121.27,0,0,1,15.42-43A136.91,136.91,0,0,1,640.7,8.82,119.13,119.13,0,0,1,685.43,0q25.73,0,46.78,11.06a89.08,89.08,0,0,1,33.64,30.19,4.09,4.09,0,0,1,.36,3.18,5,5,0,0,1-1.92,2.77l-46,32.32a4.42,4.42,0,0,1-3,1,3.07,3.07,0,0,1-2.45-1.38A48.49,48.49,0,0,0,697,65.48a42.65,42.65,0,0,0-20.77-5.31q-21.26,0-38.42,14.88T617.38,111q-3.23,21,9.37,35.93t33.86,14.88a53.27,53.27,0,0,0,22.51-5.31,72.73,72.73,0,0,0,20.19-13.82,4.32,4.32,0,0,1,2.87-1.38A3.47,3.47,0,0,1,708.9,142.23Z"/><path class="cls-1" d="M750.76,215.8a3.59,3.59,0,0,1-2.9-1.17,3.72,3.72,0,0,1-.7-3.09L778.47,7.44a4.89,4.89,0,0,1,1.64-3.08,4.81,4.81,0,0,1,3.26-1.17h124.8A3.66,3.66,0,0,1,911,4.36a3.48,3.48,0,0,1,.8,3.08l-6.49,42.31a4.83,4.83,0,0,1-1.73,3A4.75,4.75,0,0,1,900.38,54H831.07l-4.63,30.19h59.95a3.36,3.36,0,0,1,2.7,1.17,3.48,3.48,0,0,1,.73,2.87l-6.53,42.52a4.57,4.57,0,0,1-1.61,2.87,4.47,4.47,0,0,1-3,1.17h-60L814,165.2h69.31a3.65,3.65,0,0,1,2.79,1.17,3.27,3.27,0,0,1,.84,2.87l-6.49,42.3a4.76,4.76,0,0,1-1.75,3.09,4.93,4.93,0,0,1-3.16,1.17Z"/><path class="cls-1" d="M1048.45,10.42l-10.4,41.46a5.22,5.22,0,0,1-2.14,2.87,3.87,3.87,0,0,1-3.31.74,182.24,182.24,0,0,0-38.15-4.89,33.91,33.91,0,0,0-12.72,1.81,19.33,19.33,0,0,0-8.24,5.21,31.29,31.29,0,0,0-3.93,5.52,13.92,13.92,0,0,0-1.5,4.26,14.28,14.28,0,0,0,.13,4.67,24.19,24.19,0,0,0,2.43,6.38q2,3.83,7.46,7.44A45.34,45.34,0,0,0,992,91.63a57.78,57.78,0,0,1,17.82,7.87,63,63,0,0,1,15,13.93,51.51,51.51,0,0,1,9.37,20.73,71.94,71.94,0,0,1,.57,26.78q-4.77,31-26.2,46t-64.17,15a365.71,365.71,0,0,1-44.68-2.55,3.27,3.27,0,0,1-2.32-1.49,4,4,0,0,1-.61-3l10.4-41.46a4.93,4.93,0,0,1,2.16-3,4.42,4.42,0,0,1,3.5-.64,176.6,176.6,0,0,0,36.7,4.68,34.62,34.62,0,0,0,12.93-1.81q5.51-2,8.11-5.1a29.46,29.46,0,0,0,3.83-5.53,15.35,15.35,0,0,0,1.52-4.35,14.35,14.35,0,0,0-.14-4.68,25.94,25.94,0,0,0-2.31-6.38q-1.86-3.82-7.37-7.44a45.77,45.77,0,0,0-13.89-5.74,55.71,55.71,0,0,1-17.93-7.87,64.93,64.93,0,0,1-14.89-13.82q-6.6-8.3-9.47-20.73a70.83,70.83,0,0,1-.66-26.89q4.56-29.76,28.54-45.39T999.59,3.19A431.28,431.28,0,0,1,1045.52,6a3.32,3.32,0,0,1,2.32,1.49A4,4,0,0,1,1048.45,10.42Z"/></g></g></svg>