<svg xmlns="http://www.w3.org/2000/svg" viewBox="0 0 1723 292.6"><defs><style>.cls-1{fill:#fff;}</style></defs><g id="Layer_2" data-name="Layer 2"><g id="Layer_1-2" data-name="Layer 1"><path class="cls-1" d="M370.68,280.89c-20.06-7.88-34.87-18.39-44.9-31.53a75,75,0,0,1-16-43.23,8.95,8.95,0,0,1,9.07-9.07H396a19.53,19.53,0,0,1,9.07,1.43,33.44,33.44,0,0,1,8.36,5.49q11.83,9.32,30.1,9.32a63.3,63.3,0,0,0,22.21-3.11c5.49-1.91,8.36-4.78,8.36-8.12s-3.58-8.6-11-11.22-21.25-5.26-41.56-7.89C351.81,173.65,316.7,143.79,316.7,93.4a79.09,79.09,0,0,1,15.77-48.49c10.27-14.33,24.84-25.31,43.7-33.2S416.3,0,440.66,0s48,4.3,67.12,12.9,34.15,19.58,44.42,32.72,15.76,26,16.24,38.45a8.64,8.64,0,0,1-2.63,6.21,7.73,7.73,0,0,1-6,2.63h-81.2a19.7,19.7,0,0,1-9.08-1.43,24.39,24.39,0,0,1-7.16-5,33,33,0,0,0-21.74-7.4q-19.35,0-19.34,11.46c0,4.06,3.1,7.41,9.55,10.27s18.15,5,35.59,7.17c27,3.58,48.72,8.83,65.2,16s28.18,16.48,35.83,28.18,11,26.51,11,44.43A76.85,76.85,0,0,1,561,247.21c-11.71,14.57-27.71,25.8-48.25,33.68s-43.47,11.7-69.26,11.7S390.51,288.77,370.68,280.89Z"/><path class="cls-1" d="M639.62,265.6q-36.2-27.23-38.7-83.11c-.23-7.41-.47-19.35-.47-35.83s.24-28.9.47-36.54q2.52-54.46,39.41-82.4C664.93,9.09,697.18,0,737.06,0a196.1,196.1,0,0,1,67.36,11,109.76,109.76,0,0,1,49.91,34.15c12.9,15.77,19.59,35.35,19.83,58.76a9.07,9.07,0,0,1-9.08,9.07H782.2a16.71,16.71,0,0,1-9.55-2.39,21.27,21.27,0,0,1-5.49-9.55,33.64,33.64,0,0,0-11.71-17,33,33,0,0,0-18.86-5c-9.32,0-16.72,2.62-21.74,7.64S707,100.09,706.73,112c-.48,7.4-.48,18.63-.48,33.91s0,26.51.48,34.4c.24,11.94,2.87,20.54,8.12,25.55s12.42,7.41,21.74,7.41c15.52,0,25.79-7.17,30.57-22a22,22,0,0,1,5-9.31,16.52,16.52,0,0,1,10-2.39h82.88a9.24,9.24,0,0,1,6.45,2.63,8.68,8.68,0,0,1,2.63,6.21c-.24,23.64-6.93,43.23-19.83,58.75a112,112,0,0,1-49.91,34.39,196.1,196.1,0,0,1-67.36,11C696.22,292.59,663.74,283.52,639.62,265.6Z"/><path class="cls-1" d="M909.51,285.19a10.32,10.32,0,0,1-3.35-7.65V15.06a11.23,11.23,0,0,1,3.35-7.88,10.08,10.08,0,0,1,7.64-3.11h208.51a10.6,10.6,0,0,1,11,10V72.38a10.07,10.07,0,0,1-3.1,7.64,11.25,11.25,0,0,1-7.88,3.35H1003.85v25.55h113a10.08,10.08,0,0,1,7.64,3.11,11.23,11.23,0,0,1,3.35,7.88v52.78a11.46,11.46,0,0,1-11,11h-113v25.56H1129a11.44,11.44,0,0,1,11,11v57.32a11.45,11.45,0,0,1-11,11H917.15A10.28,10.28,0,0,1,909.51,285.19Z"/><path class="cls-1" d="M1180.59,285.19a10.31,10.31,0,0,1-3.34-7.65V15.06a11.22,11.22,0,0,1,3.34-7.88,10.09,10.09,0,0,1,7.64-3.11h64.25a17.93,17.93,0,0,1,16.72,9.32L1338,125.88V15.06a10.62,10.62,0,0,1,10-11h74.52a10.09,10.09,0,0,1,7.64,3.11,11.22,11.22,0,0,1,3.34,7.88V277.54a11.43,11.43,0,0,1-11,11h-64.25a16.39,16.39,0,0,1-10.51-2.86,26.8,26.8,0,0,1-6.21-6.45l-68.79-103.66v102a10.09,10.09,0,0,1-3.1,7.65,10.3,10.3,0,0,1-7.64,3.34h-73.81A10.3,10.3,0,0,1,1180.59,285.19Z"/><path class="cls-1" d="M2.63,285.9A8.68,8.68,0,0,1,0,279.69a11.89,11.89,0,0,1,.48-2.86L91.24,17.45a18.46,18.46,0,0,1,6-9.32,17.54,17.54,0,0,1,12.18-4.06h88.13a18.15,18.15,0,0,1,12.42,4.06,18.46,18.46,0,0,1,6,9.32l90.76,259.38a11.53,11.53,0,0,1,.24,2.86,9.32,9.32,0,0,1-8.84,8.84H222.84q-12.18,0-15.76-10l-9.8-26.75H109.87l-9.8,26.75q-3.57,10-15.76,10H9.08A9.19,9.19,0,0,1,2.63,285.9ZM176.5,172.45,153.34,96.74l-22.69,75.71Z"/><path class="cls-1" d="M1544.35,285.19a10.1,10.1,0,0,1-3.11-7.65v-186h-67.59a11.46,11.46,0,0,1-11-11V15.06A11.23,11.23,0,0,1,1466,7.18a10.08,10.08,0,0,1,7.64-3.11H1712a10.1,10.1,0,0,1,7.65,3.11,11.22,11.22,0,0,1,3.34,7.88V80.5a11.46,11.46,0,0,1-11,11h-67.59V277.54a10.09,10.09,0,0,1-3.1,7.65,10.45,10.45,0,0,1-7.89,3.34h-81.2A10.43,10.43,0,0,1,1544.35,285.19Z"/></g></g></svg>