<svg xmlns="http://www.w3.org/2000/svg" viewBox="0 0 1723 253.63"><defs><style>.cls-1{fill:#fff;}</style></defs><g id="Layer_2" data-name="Layer 2"><g id="Layer_1-2" data-name="Layer 1"><path class="cls-1" d="M138,253.63H0c5.2-16.48,7-29.85,7-63V63.26C7,30.14,5.2,16.93,0,.3H138c44.11,0,64.6,22.87,64.6,70.38v114C202.55,233.44,182.06,253.63,138,253.63Zm-24.5-50.34a5.34,5.34,0,0,0,5.64-5,3.11,3.11,0,0,0,0-.61V56.73c0-3.72-2.08-5.94-5.64-5.94H89.84v152.5Zm112.71-4.6,21.23-143.3c4-28.51,1.93-40.54-2.67-55.09H403.91c-4.6,14.55-6.68,26.58-2.67,55.09l21.23,143.3c4.6,28.81,8.91,40.39,15.89,54.94H331.89c5.05-13.51,7.72-24.8,5.64-49.74H303.08c-1.93,24.94.59,36.23,5.94,49.74H210.27C217.55,239.08,222.15,227.5,226.16,198.69Zm106-44.11L320.31,39.5,308.43,154.58ZM413.56.3h109c-5.65,10-6.54,18-2.68,36.82l16.34,68.31,16.19-68.31c4.3-19.3,3-26.87-2.68-36.82h98.6c-7.27,10-11.58,17.52-18.56,36.82L573.34,196.31c.3,29.26,1.93,41.73,7,57.32H483.8c4.9-15.15,6.24-27.77,6.68-56.28L432.12,37.12C424.7,17.82,420.84,10.25,413.56.3ZM831.28,123.4C850,133.65,854.89,145.53,854.89,177v12.32c0,49.15-20.49,64.3-64.59,64.3H652.64c5.2-16.48,7-29.85,7-63V63c0-33.11-1.78-46.33-7-63H791.93c43.66,0,63,14.55,63,63.26v9.65c0,28.51-4.9,41.14-23.61,50.49Zm-65.34-23.31a5.5,5.5,0,0,0,5.66-5.33c0-.2,0-.41,0-.61V57.32a5,5,0,0,0-4.38-5.64,4.5,4.5,0,0,0-1.27,0H742.48v48.41Zm0,103.5a5.2,5.2,0,0,0,5.65-4.71,7.22,7.22,0,0,0,0-.93V154.88a5.21,5.21,0,0,0-4.71-5.64,4.92,4.92,0,0,0-.94,0H742.48v54.35Zm115.83-12.92V63.26c0-33.12-1.63-46.33-7-63H1013c49.15,0,66.67,21.23,66.67,68.31v19.3c0,42.77-8.61,55.69-24.5,60.59l18.86,65.33a242.34,242.34,0,0,0,15.89,39.8H997.45l-20.2-87.76H964.93v24.8c0,33.11,1.78,46.48,7,63H874.79c5.35-16.48,7-29.85,7-63Zm106.47-76.62a5.35,5.35,0,0,0,5.64-5,3.11,3.11,0,0,0,0-.61V56.73c0-3.72-2.08-5.94-5.64-5.94H964.93V114Zm118.65,76.62V63.26c0-33.12-1.63-46.33-7-63h158.3l5.94,58.36c-23.61-5.65-53.46-7-74-7V98.75h67v50.49h-67.42v54c20.94,0,50.79-1.63,74.4-7l-5.94,57.32h-158.3C1105.26,237.15,1106.89,223.78,1106.89,190.67Zm180.72,8,21.23-143.3c4-28.51,2.08-40.54-2.67-55.09h159.19c-4.6,14.55-6.53,26.58-2.67,55.09l21.23,143.3c4.75,28.81,9.06,40.39,16,54.94H1393.49c4.9-13.51,7.57-24.8,5.64-49.74h-34.6c-1.93,24.94.74,36.23,6.09,49.74h-98.9c7.28-14.55,11.88-26.13,15.89-54.94Zm106.17-44.11-12-115.08-11.88,115.08Zm118.65,36.09V63.26c0-33.12-1.63-46.33-7-63h97.27c-5.35,16.63-7,29.84-7,63V98.75h12.32L1629.89.3H1723a219.77,219.77,0,0,0-15.89,39.79l-19.9,72.32c18,7.28,22.57,19.6,22.57,55.39v22.87c0,33.11,1.34,46.48,6.69,63h-84.65c-6.53-18.86-7.57-43.06-7.57-64.89V165.42c0-12.62-3-17.52-15-17.52h-13.51v42.77c0,33.11,1.63,46.48,7,63h-97.27c5.35-16.48,7-29.85,7-63Z"/></g></g></svg>