<svg width="1285" height="297" viewBox="0 0 1285 297" fill="none" xmlns="http://www.w3.org/2000/svg">
<path d="M2.67 1.61671H48.14C57.0733 2.01671 61.54 3.64004 61.54 6.48671C71.42 4.86004 78.5933 4.04671 83.06 4.04671C94.56 4.04671 107.957 5.60339 123.25 8.71672C124.343 3.97672 131.45 1.61005 144.57 1.61671H198.17C198.17 4.85671 199.04 6.48671 200.8 6.48671L198.17 11.1567V99.8667L200.8 116.717L195.53 118.947C167.637 65.6134 151.53 38.48 147.21 37.5467H99.09V126.257L104.37 123.827H115.12L120.61 126.257C122.23 121.797 132.04 116.18 150.04 109.407H155.32V111.847C155.32 123.76 154.44 151.707 152.68 195.687C154.44 198.807 155.32 201.237 155.32 202.997L117.76 162.197H99.09V258.017C100.423 258.017 105.757 258.827 115.09 260.447C133.503 258.827 144.197 257.203 147.17 255.577C147.17 257.197 148.17 258.017 150.01 258.017C158.397 237.31 167.33 226.957 176.81 226.957V224.517C176.81 219.103 175.863 215.103 173.97 212.517C181.143 184.777 189.197 167.997 198.13 162.177C198.13 176.517 199.007 183.69 200.76 183.697L198.16 188.617V286.867L200.79 291.537L195.52 293.977H141.92C140.16 293.977 139.28 294.787 139.28 296.407L133.8 293.977H99.09L85.67 291.537V293.977L80.39 291.537C72.81 291.537 46.8933 293.16 2.64 296.407L0 291.537C0 290.043 10.69 280.503 32.07 262.917V195.717C32.07 164.723 34.7767 137.587 40.19 114.307C34.7767 97.26 32.07 82.8467 32.07 71.0667V32.7067L2.67 6.51671V1.61671Z" fill="white"/>
<path d="M394.6 16.2569C404.48 8.92358 413.073 5.25692 420.38 5.25692V110.047C390.34 64.5736 364.693 40.2803 343.44 37.1669V38.1669C341.82 38.0269 340.19 37.9569 338.57 37.9569C314.337 48.1169 302.223 66.3369 302.23 92.6169V183.567C302.23 227.954 318.403 250.15 350.75 250.157H351.56V250.767C370.78 242.647 393.113 219.314 418.56 180.767V285.447C411.26 285.447 402.667 281.78 392.78 274.447C374.513 281.627 360.777 287.107 351.57 290.887L344.67 292.517C277.003 292.517 238.633 242.034 229.56 141.067C229.56 86.4003 253.787 43.9736 302.24 13.7869C303.573 5.66691 307.633 1.60692 314.42 1.60692C348.247 -2.69974 374.973 2.18358 394.6 16.2569Z" fill="white"/>
<path d="M445.04 1.61691H459.45C459.781 1.56849 460.118 1.59787 460.436 1.70271C460.753 1.80755 461.042 1.98495 461.279 2.22084C461.516 2.45673 461.694 2.74461 461.8 3.0616C461.906 3.37859 461.937 3.71594 461.89 4.0469L466.76 1.61691H553.24L526.67 32.9069V40.0069C526.67 61.8069 525.113 79.4036 522 92.7969C525.107 97.9369 526.663 109.17 526.67 126.497L531.54 124.057H579.67L584.34 126.497V32.9069L557.91 1.61691H675.67C675.67 3.23691 665.247 13.6569 644.4 32.8769V59.2669C644.4 66.8469 642.033 72.4636 637.3 76.1169C642.033 89.6502 644.4 99.2602 644.4 104.947V186.617C644.4 189.724 642.033 191.28 637.3 191.287C642.027 244.174 646.817 270.617 651.67 270.617L668.32 285.037C666.01 291.397 663.65 294.577 661.21 294.577H589.17C583.49 294.577 575.49 292.207 565.17 287.467V282.617C568.277 282.617 574.637 276.187 584.25 263.327V162.427H526.67V186.617C521.93 204.617 519.56 218.217 519.56 227.417C524.524 240.541 527.731 254.263 529.1 268.227C531.273 268.227 539.327 276.21 553.26 292.177V294.617H435.5V289.737C456.34 276.75 466.76 265.587 466.76 256.247V212.977C466.712 212.646 466.741 212.309 466.846 211.991C466.951 211.674 467.128 211.385 467.364 211.148C467.6 210.911 467.888 210.733 468.205 210.627C468.522 210.521 468.859 210.49 469.19 210.537C469.237 210.207 469.206 209.871 469.101 209.554C468.995 209.238 468.817 208.951 468.582 208.715C468.346 208.48 468.059 208.302 467.743 208.197C467.426 208.091 467.09 208.06 466.76 208.107L473.86 167.297C470.753 154.577 469.197 144.967 469.19 138.467L471.43 121.617C468.31 121.617 466.76 120.067 466.76 116.947V40.0069C466.76 34.2002 459.52 24.5936 445.04 11.1869V1.61691Z" fill="white"/>
<path d="M755.78 1.6167H792.12C850.18 1.6167 884.557 42.0134 895.25 122.807V153.057C895.25 202.583 881.107 234.917 852.82 250.057C852.82 269.003 830.557 283.147 786.03 292.487C718.363 292.487 679.993 242.003 670.92 141.037C670.92 86.37 695.147 43.9434 743.6 13.7567C744.98 5.66337 749.04 1.6167 755.78 1.6167ZM743.6 92.6167V183.567C743.6 227.953 759.773 250.15 792.12 250.157C812.28 250.157 824.393 219.84 828.46 159.207V128.927C828.46 68.3 812.287 37.9834 779.94 37.9767C755.713 48.1234 743.6 66.3367 743.6 92.6167ZM779.94 110.617H786.03C791.443 110.617 801.593 120.767 816.48 141.067V146.957C800.24 167.257 792.12 181.4 792.12 189.387H786.03C779.67 189.387 767.557 173.28 749.69 141.067L779.94 110.617Z" fill="white"/>
<path d="M885.67 1.61671H931.14C940.073 2.01671 944.54 3.64004 944.54 6.48671C954.42 4.86004 961.593 4.04671 966.06 4.04671C977.56 4.04671 990.96 5.60339 1006.26 8.71672C1007.34 3.97672 1014.44 1.61005 1027.57 1.61671H1081.17C1081.17 4.85671 1082.04 6.48671 1083.8 6.48671L1081.17 11.1567V99.8667L1083.8 116.717L1078.53 118.947C1050.64 65.6134 1034.53 38.48 1030.21 37.5467H982.1V126.257L987.38 123.827H998.13L1003.62 126.257C1005.24 121.797 1015.05 116.18 1033.05 109.407H1038.33V111.847C1038.33 123.76 1037.45 151.707 1035.69 195.687C1037.45 198.807 1038.33 201.237 1038.33 202.997L1000.77 162.197H982.1V258.017C983.433 258.017 988.767 258.827 998.1 260.447C1016.51 258.827 1027.21 257.203 1030.18 255.577C1030.18 257.197 1031.18 258.017 1033.02 258.017C1041.41 237.31 1050.34 226.957 1059.82 226.957V224.517C1059.82 219.103 1058.87 215.103 1056.98 212.517C1064.15 184.777 1072.2 167.997 1081.14 162.177C1081.14 176.517 1082.02 183.69 1083.77 183.697L1081.14 188.567V286.817L1083.77 291.487L1078.5 293.927H1024.9C1023.14 293.927 1022.26 294.737 1022.26 296.357L1016.78 293.927H982.07L968.67 291.487V293.927L963.39 291.487C955.81 291.487 929.893 293.11 885.64 296.357L883 291.487C883 289.993 893.69 280.453 915.07 262.867V195.717C915.07 164.723 917.777 137.587 923.19 114.307C917.783 97.26 915.077 82.8467 915.07 71.0667V32.7067L885.67 6.51671V1.61671Z" fill="white"/>
<path d="M1148.3 9.35656C1164.55 2.85656 1185.26 -0.256788 1210.43 0.0165452L1217.33 1.64655C1226.53 5.43322 1240.27 10.9132 1258.54 18.0866C1268.42 10.7532 1277.01 7.08655 1284.32 7.08655V111.877C1258.88 73.3099 1236.55 49.9765 1217.32 41.8765V42.4865H1216.51C1187.95 39.7732 1173.74 49.3132 1173.87 71.1065C1169.68 102.647 1178.2 122.543 1199.45 130.797C1229.36 139.723 1251.22 151.77 1265.03 166.937L1256.9 187.027L1271.12 174.617C1278.71 185.88 1282.68 199.195 1282.49 212.777C1283.44 265.297 1257.93 291.35 1205.96 290.937C1177.54 295.263 1153.52 290.393 1133.89 276.327C1124.01 283.627 1115.42 287.293 1108.11 287.327V182.527C1138.15 227.993 1163.8 251.947 1185.05 254.387C1186.67 254.527 1188.3 254.597 1189.92 254.597C1213.6 253.93 1223.89 241.543 1220.78 217.437C1223.62 196.47 1211.85 180.027 1185.46 168.107C1133.89 152.68 1107.09 121.347 1105.06 74.1065C1105.34 62.3332 1107.44 51.9799 1111.36 43.0465C1119.61 38.4465 1125.43 32.7632 1128.82 25.9966C1133.28 20.9899 1139.57 18.4865 1147.7 18.4865L1148.3 9.35656Z" fill="white"/>
</svg>
