<svg xmlns="http://www.w3.org/2000/svg" viewBox="0 0 1271.25 221.96"><defs><style>.cls-1{fill:#fff;}</style></defs><title>ADA_White</title><g id="Layer_2" data-name="Layer 2"><g id="Layer_1-2" data-name="Layer 1"><path class="cls-1" d="M304.78,1.85a1.77,1.77,0,0,1,1.91,1.59L328,120.93a2.3,2.3,0,0,1,0,.74l-.16.86a2.88,2.88,0,0,1-1,1.66,2.74,2.74,0,0,1-1.79.68H294.73a1.69,1.69,0,0,1-1.91-1.6l-3.18-17.59H250.27l-10,17.59a2.65,2.65,0,0,1-2.51,1.6H207.64a2,2,0,0,1-1.66-.68,1.91,1.91,0,0,1-.36-1.66l.16-.86a3.78,3.78,0,0,1,.29-.86L271.88,3.44a2.8,2.8,0,0,1,2.51-1.59ZM267.21,75.41h17l-4.29-22.76Z"/><path class="cls-1" d="M444.35,2.46a2.56,2.56,0,0,1,1.71-.61h31.25a1.84,1.84,0,0,1,1.53.67,2.09,2.09,0,0,1,.34,1.79l-22.4,118.1a3,3,0,0,1-1,1.78,2.74,2.74,0,0,1-1.79.68H424.21a1.85,1.85,0,0,1-1.53-.68,2.07,2.07,0,0,1-.34-1.78l11.31-59.67-16.53,38.51a2.65,2.65,0,0,1-2.68,1.84h-31c-1.31,0-2-.61-2-1.84l-1.8-38.51-11.32,59.67a2.87,2.87,0,0,1-1.08,1.78,2.94,2.94,0,0,1-1.85.68H335.76a2,2,0,0,1-1.66-.68,2.07,2.07,0,0,1-.34-1.78l22.4-118.1a3,3,0,0,1,1-1.79,2.9,2.9,0,0,1,1.92-.67h31.12a1.78,1.78,0,0,1,1.48.61q4.1,5,8.19,18.15A214.05,214.05,0,0,1,406,44.41L408.06,55l2.57-4.49q1.67-2.89,6.31-10.58t8.91-14.21q4.25-6.51,9.47-13.28A65.92,65.92,0,0,1,444.35,2.46Z"/><path class="cls-1" d="M464.72,124.87a2,2,0,0,1-1.65-.68,2.07,2.07,0,0,1-.34-1.78l22.4-118.1a3,3,0,0,1,1-1.79,2.89,2.89,0,0,1,1.91-.67h72.22a2,2,0,0,1,1.59.67,2,2,0,0,1,.4,1.79l-4.64,24.48a3,3,0,0,1-1.07,1.72,2.84,2.84,0,0,1-1.86.74h-40.1l-3.32,17.47H546a1.88,1.88,0,0,1,1.54.67,2,2,0,0,1,.36,1.66l-4.67,24.61A2.93,2.93,0,0,1,540.41,78H505.72l-3.34,17.59h40.11a2,2,0,0,1,1.59.67,1.86,1.86,0,0,1,.43,1.67l-4.65,24.48a2.9,2.9,0,0,1-1.07,1.78,3,3,0,0,1-1.85.68Z"/><path class="cls-1" d="M636.76,82.67Q648.05,99,644,124.25a3,3,0,0,1-1,1.72,2.72,2.72,0,0,1-1.92.74H609.22a1.84,1.84,0,0,1-1.53-.67,2,2,0,0,1-.37-1.67q2.2-14.88-3.23-22.82t-17.47-8.79l-6,31.49a2.92,2.92,0,0,1-1.06,1.72,2.83,2.83,0,0,1-1.87.74H548.08a1.89,1.89,0,0,1-1.65-.74,2.13,2.13,0,0,1-.35-1.72L568.83,4.31a3,3,0,0,1,1-1.79,2.86,2.86,0,0,1,1.91-.67h58.31a33.26,33.26,0,0,1,13.76,2.7,25.51,25.51,0,0,1,10,8.06q4,5.36,5.25,13.84a59.52,59.52,0,0,1-.86,19.44Q653.5,71,636.76,82.67Zm-39-48.84-5,26.2q-.21,1.11.9,1.11h14.15a14.37,14.37,0,0,0,9.77-3.87,17.82,17.82,0,0,0,5.59-10.34q1.23-6.45-1.67-10.33a9.76,9.76,0,0,0-8.31-3.88H599.12A1.22,1.22,0,0,0,597.8,33.83Z"/><path class="cls-1" d="M681.2,124.87H651.55a2,2,0,0,1-1.65-.68,2.07,2.07,0,0,1-.34-1.78L672,4.31a3,3,0,0,1,1-1.79,2.89,2.89,0,0,1,1.91-.67h29.65a2.06,2.06,0,0,1,1.6.67,2,2,0,0,1,.4,1.79l-22.4,118.1a2.87,2.87,0,0,1-1.08,1.78A3,3,0,0,1,681.2,124.87Z"/><path class="cls-1" d="M789.83,82.3,810,101.12a2,2,0,0,1,.56,1.6,2.61,2.61,0,0,1-.82,1.73A85.17,85.17,0,0,1,784.2,122a71.25,71.25,0,0,1-29.32,6.39,57.12,57.12,0,0,1-24.14-5,49.62,49.62,0,0,1-18-13.65,50.41,50.41,0,0,1-9.88-20.55,59,59,0,0,1-.37-25,72.56,72.56,0,0,1,9.83-24.91,83.23,83.23,0,0,1,40.87-34.2A70.19,70.19,0,0,1,779.23,0a55.9,55.9,0,0,1,26.84,6.4A48.73,48.73,0,0,1,824.9,23.87a2.3,2.3,0,0,1,.14,1.84,3.05,3.05,0,0,1-1.16,1.6L796.59,46a2.62,2.62,0,0,1-1.77.55,1.66,1.66,0,0,1-1.38-.8,26.67,26.67,0,0,0-8.91-7.87,24,24,0,0,0-11.9-3.07q-12.3,0-22.55,8.61a35.2,35.2,0,0,0-12.55,20.79Q735.22,76.4,742.2,85t19.28,8.61a31.52,31.52,0,0,0,13.13-3.08,44,44,0,0,0,12-8,2.65,2.65,0,0,1,1.69-.8A1.94,1.94,0,0,1,789.83,82.3Z"/><path class="cls-1" d="M905.88,1.85a1.77,1.77,0,0,1,1.91,1.59l21.27,117.49a2.3,2.3,0,0,1,0,.74l-.16.86a2.84,2.84,0,0,1-1,1.66,2.7,2.7,0,0,1-1.78.68H895.83a1.68,1.68,0,0,1-1.91-1.6l-3.18-17.59H851.37l-10,17.59a2.65,2.65,0,0,1-2.52,1.6H808.73a2,2,0,0,1-1.65-.68,1.91,1.91,0,0,1-.36-1.66l.16-.86a3.78,3.78,0,0,1,.29-.86L873,3.44a2.8,2.8,0,0,1,2.52-1.59ZM868.31,75.41h17L881,52.65Z"/><path class="cls-1" d="M1031.05,4.31a3,3,0,0,1,1-1.79,2.69,2.69,0,0,1,1.79-.67h29.77a2,2,0,0,1,1.59.67,2,2,0,0,1,.4,1.79l-22.39,118.1a3,3,0,0,1-1.07,1.72,2.86,2.86,0,0,1-1.86.74h-30.76a1.83,1.83,0,0,1-1.85-1.23L982.1,55.48l-12.69,66.93a2.9,2.9,0,0,1-1.07,1.78,3,3,0,0,1-1.85.68H936.84a2,2,0,0,1-1.66-.68,2.11,2.11,0,0,1-.34-1.78l22.4-118.1a3,3,0,0,1,1-1.79,2.86,2.86,0,0,1,1.91-.67h30.75A1.66,1.66,0,0,1,992.68,3l26.85,62.13Z"/><path class="cls-1" d="M47.88,137.58A35.44,35.44,0,0,1,61.4,140a25.55,25.55,0,0,1,10,7.22q4.06,4.78,5.34,12.83a54.79,54.79,0,0,1-.7,18.53,64.15,64.15,0,0,1-6.28,18.53A41.61,41.61,0,0,1,59.56,210a42.14,42.14,0,0,1-12.67,7.21,42.67,42.67,0,0,1-14.44,2.42H1.37a1.33,1.33,0,0,1-1.1-.45A1.38,1.38,0,0,1,0,217.94l14.81-78.72a2,2,0,0,1,.67-1.19,1.92,1.92,0,0,1,1.28-.45ZM30.94,200.15a19.9,19.9,0,0,0,13.81-5.41q5.94-5.42,8-16.24t-1.86-16.24q-3.9-5.4-11.78-5.41H35.31a.86.86,0,0,0-.89.82l-7.85,41.74c-.09.49.1.74.6.74Z"/><path class="cls-1" d="M95.11,219.58H75.35a1.36,1.36,0,0,1-1.11-.45,1.38,1.38,0,0,1-.22-1.19l14.81-78.72A2,2,0,0,1,89.5,138a1.92,1.92,0,0,1,1.27-.45h19.77a1.37,1.37,0,0,1,1.06.45,1.33,1.33,0,0,1,.27,1.19L97.06,217.94a1.86,1.86,0,0,1-.72,1.19A2,2,0,0,1,95.11,219.58Z"/><path class="cls-1" d="M167.62,137.58a1.19,1.19,0,0,1,1.28,1.07L183.19,217a1.35,1.35,0,0,1,0,.49l-.11.58a1.88,1.88,0,0,1-.65,1.1,1.83,1.83,0,0,1-1.2.45H161.05a1.11,1.11,0,0,1-1.27-1.06l-2.14-11.73H131.39l-6.63,11.73a1.75,1.75,0,0,1-1.68,1.06H103a1.33,1.33,0,0,1-1.1-.45,1.24,1.24,0,0,1-.24-1.1l.1-.58a3.15,3.15,0,0,1,.19-.57l43.75-78.23a1.87,1.87,0,0,1,1.68-1.07Zm-25,49H154l-2.89-15.17Z"/><path class="cls-1" d="M253,174.89a7.81,7.81,0,0,0,.54.86,16.47,16.47,0,0,1,1.18,2.42,28.68,28.68,0,0,1,1.33,3.86,23.37,23.37,0,0,1,.68,5.12,28.6,28.6,0,0,1-.49,6.27,39.42,39.42,0,0,1-3.9,11.4,29.19,29.19,0,0,1-6.31,8.24,26.92,26.92,0,0,1-7.72,4.84,22.29,22.29,0,0,1-8.47,1.68h-41.5a1.33,1.33,0,0,1-1.1-.45,1.38,1.38,0,0,1-.23-1.19l14.81-78.72a2,2,0,0,1,.68-1.19,1.9,1.9,0,0,1,1.27-.45h36.9a19.6,19.6,0,0,1,8.14,1.64,16.2,16.2,0,0,1,6.08,4.72,17.16,17.16,0,0,1,3.3,7.95,30.72,30.72,0,0,1-.29,11,37.11,37.11,0,0,1-2,7,18.3,18.3,0,0,1-2.08,4.1Zm-31.58-17.38-2,10.49c-.1.55.12.82.67.82h7.38a7,7,0,0,0,4.6-1.8,7.26,7.26,0,0,0,2.61-4.31,4.89,4.89,0,0,0-4.93-6h-7.38A.9.9,0,0,0,221.44,157.51Zm3.81,43a7,7,0,0,0,4.64-1.77,7.18,7.18,0,0,0,2.56-4.26,5.1,5.1,0,0,0-.95-4.31,4.77,4.77,0,0,0-4-1.8H216.46a.9.9,0,0,0-1,.82l-2,10.5c-.11.54.11.82.66.82Z"/><path class="cls-1" d="M258.41,219.58a1.35,1.35,0,0,1-1.11-.45,1.41,1.41,0,0,1-.23-1.19l14.81-78.72a2,2,0,0,1,.68-1.19,1.9,1.9,0,0,1,1.27-.45H322A1.37,1.37,0,0,1,323,138a1.33,1.33,0,0,1,.27,1.19l-3.07,16.32a2,2,0,0,1-.71,1.15,1.88,1.88,0,0,1-1.24.49H291.55l-2.19,11.64h23.12a1.26,1.26,0,0,1,1,.45,1.3,1.3,0,0,1,.25,1.11l-3.09,16.4a1.84,1.84,0,0,1-.66,1.11,1.8,1.8,0,0,1-1.19.45H285.69l-2.21,11.73h26.73a1.39,1.39,0,0,1,1.07.45,1.24,1.24,0,0,1,.28,1.11l-3.07,16.31a1.86,1.86,0,0,1-.72,1.19,2,2,0,0,1-1.23.45Z"/><path class="cls-1" d="M389.4,139.22l-3.07,16.32a1.81,1.81,0,0,1-.7,1.11,2,2,0,0,1-1.23.45h-18L355,217.94a1.89,1.89,0,0,1-.71,1.19,2,2,0,0,1-1.24.45H333.2a1.23,1.23,0,0,1-1-.45,1.38,1.38,0,0,1-.23-1.19l11.44-60.84H325.44a1.34,1.34,0,0,1-1.11-.45,1.32,1.32,0,0,1-.24-1.11l3.07-16.32a2,2,0,0,1,.67-1.19,1.92,1.92,0,0,1,1.28-.45h59a1.37,1.37,0,0,1,1.06.45A1.33,1.33,0,0,1,389.4,139.22Z"/><path class="cls-1" d="M380.52,219.58a1.33,1.33,0,0,1-1.1-.45,1.38,1.38,0,0,1-.23-1.19L394,139.22a2,2,0,0,1,.67-1.19,1.94,1.94,0,0,1,1.28-.45h48.13a1.37,1.37,0,0,1,1.07.45,1.33,1.33,0,0,1,.27,1.19l-3.07,16.32a2,2,0,0,1-.71,1.15,1.9,1.9,0,0,1-1.24.49H413.66l-2.19,11.64H434.6a1.26,1.26,0,0,1,1,.45,1.3,1.3,0,0,1,.24,1.11l-3.08,16.4a1.94,1.94,0,0,1-1.85,1.56H407.8l-2.2,11.73h26.73a1.35,1.35,0,0,1,1.06.45,1.24,1.24,0,0,1,.29,1.11l-3.07,16.31a1.9,1.9,0,0,1-.72,1.19,2,2,0,0,1-1.23.45Z"/><path class="cls-1" d="M500.31,140.37l-4.56,16a2.11,2.11,0,0,1-.87,1.11,1.51,1.51,0,0,1-1.28.28A69.39,69.39,0,0,0,479,155.87a13.38,13.38,0,0,0-4.93.69,7.8,7.8,0,0,0-3.25,2,12,12,0,0,0-1.59,2.14,5.81,5.81,0,0,0-.64,1.64,5.69,5.69,0,0,0,0,1.8,9.12,9.12,0,0,0,.85,2.46,7.77,7.77,0,0,0,2.78,2.87,16.92,16.92,0,0,0,5.29,2.21,21.67,21.67,0,0,1,6.77,3,23.1,23.1,0,0,1,5.59,5.37,19.25,19.25,0,0,1,3.33,8,27.57,27.57,0,0,1-.14,10.34q-2.25,12-10.72,17.75T457.33,222a141.36,141.36,0,0,1-17.2-1,1.26,1.26,0,0,1-.88-.58,1.52,1.52,0,0,1-.19-1.14l4.57-16a1.9,1.9,0,0,1,.87-1.15,1.7,1.7,0,0,1,1.36-.25A67.62,67.62,0,0,0,460,203.68a13.66,13.66,0,0,0,5-.7,7.66,7.66,0,0,0,3.2-2,12.17,12.17,0,0,0,1.55-2.13,5.85,5.85,0,0,0,.64-1.68,5.21,5.21,0,0,0,0-1.81,9.69,9.69,0,0,0-.8-2.46,7.46,7.46,0,0,0-2.74-2.87,17.16,17.16,0,0,0-5.29-2.21,20.66,20.66,0,0,1-6.81-3,23.71,23.71,0,0,1-5.55-5.33,19,19,0,0,1-3.38-8,27.28,27.28,0,0,1,.11-10.37,25.4,25.4,0,0,1,11.61-17.51q9.47-6,24.06-6a165.06,165.06,0,0,1,17.67,1.07,1.18,1.18,0,0,1,.88.57A1.5,1.5,0,0,1,500.31,140.37Z"/><path class="cls-1" d="M597,137.58a1.19,1.19,0,0,1,1.28,1.07L612.62,217a1.61,1.61,0,0,1,0,.49l-.11.58a1.84,1.84,0,0,1-.66,1.1,1.82,1.82,0,0,1-1.19.45H590.47a1.11,1.11,0,0,1-1.27-1.06l-2.14-11.73H560.82l-6.64,11.73a1.75,1.75,0,0,1-1.67,1.06H532.42a1.35,1.35,0,0,1-1.11-.45,1.3,1.3,0,0,1-.24-1.1l.11-.58a2.52,2.52,0,0,1,.19-.57l43.74-78.23a1.88,1.88,0,0,1,1.68-1.07Zm-25,49h11.31l-2.88-15.17Z"/><path class="cls-1" d="M682.3,140.37l-4.56,16a2.11,2.11,0,0,1-.87,1.11,1.51,1.51,0,0,1-1.28.28,69.39,69.39,0,0,0-14.65-1.88,13.38,13.38,0,0,0-4.93.69,7.8,7.8,0,0,0-3.25,2,12,12,0,0,0-1.59,2.14,5.81,5.81,0,0,0-.64,1.64,5.69,5.69,0,0,0,0,1.8,9.12,9.12,0,0,0,.85,2.46,7.77,7.77,0,0,0,2.78,2.87,16.92,16.92,0,0,0,5.29,2.21,21.51,21.51,0,0,1,6.76,3,23,23,0,0,1,5.6,5.37,19.25,19.25,0,0,1,3.33,8,27.57,27.57,0,0,1-.14,10.34q-2.25,12-10.72,17.75T639.32,222a141.36,141.36,0,0,1-17.2-1,1.26,1.26,0,0,1-.88-.58,1.52,1.52,0,0,1-.19-1.14l4.57-16a1.9,1.9,0,0,1,.87-1.15,1.7,1.7,0,0,1,1.36-.25,67.62,67.62,0,0,0,14.09,1.81,13.66,13.66,0,0,0,5-.7,7.66,7.66,0,0,0,3.2-2,12.17,12.17,0,0,0,1.55-2.13,6.16,6.16,0,0,0,.64-1.68,5.21,5.21,0,0,0,0-1.81,9.69,9.69,0,0,0-.8-2.46,7.46,7.46,0,0,0-2.74-2.87,17.16,17.16,0,0,0-5.29-2.21,20.66,20.66,0,0,1-6.81-3,23.71,23.71,0,0,1-5.55-5.33,19,19,0,0,1-3.38-8,27.28,27.28,0,0,1,.11-10.37,25.4,25.4,0,0,1,11.61-17.51q9.46-6,24.06-6a165.06,165.06,0,0,1,17.67,1.07,1.18,1.18,0,0,1,.88.57A1.5,1.5,0,0,1,682.3,140.37Z"/><path class="cls-1" d="M736.27,140.37l-4.57,16a2,2,0,0,1-.86,1.11,1.52,1.52,0,0,1-1.28.28,69.48,69.48,0,0,0-14.66-1.88,13.32,13.32,0,0,0-4.92.69,7.8,7.8,0,0,0-3.25,2,12,12,0,0,0-1.59,2.14,5.52,5.52,0,0,0-.64,1.64,5.41,5.41,0,0,0,0,1.8,8.78,8.78,0,0,0,.85,2.46,7.77,7.77,0,0,0,2.78,2.87,16.76,16.76,0,0,0,5.28,2.21,21.56,21.56,0,0,1,6.77,3,22.92,22.92,0,0,1,5.59,5.37,19.13,19.13,0,0,1,3.34,8,27.77,27.77,0,0,1-.14,10.34q-2.25,12-10.72,17.75t-25,5.78a141.36,141.36,0,0,1-17.2-1,1.22,1.22,0,0,1-.88-.58,1.47,1.47,0,0,1-.19-1.14l4.56-16a2,2,0,0,1,.88-1.15,1.68,1.68,0,0,1,1.35-.25,67.71,67.71,0,0,0,14.1,1.81,13.66,13.66,0,0,0,5-.7,7.73,7.73,0,0,0,3.2-2,12.17,12.17,0,0,0,1.55-2.13,6.16,6.16,0,0,0,.64-1.68,5.47,5.47,0,0,0,0-1.81,9.38,9.38,0,0,0-.81-2.46,7.31,7.31,0,0,0-2.74-2.87,17,17,0,0,0-5.28-2.21,20.48,20.48,0,0,1-6.81-3,23.75,23.75,0,0,1-5.56-5.33,19.07,19.07,0,0,1-3.37-8,27.27,27.27,0,0,1,.1-10.37,25.42,25.42,0,0,1,11.62-17.51q9.45-6,24-6a165.38,165.38,0,0,1,17.68,1.07,1.22,1.22,0,0,1,.88.57A1.54,1.54,0,0,1,736.27,140.37Z"/><path class="cls-1" d="M768.62,139.75a47.7,47.7,0,0,1,17.49-3.4,38.43,38.43,0,0,1,16.21,3.4,32.74,32.74,0,0,1,18.84,22.8,38.77,38.77,0,0,1,.32,16.61,48.15,48.15,0,0,1-6.58,16.64,55.14,55.14,0,0,1-27.41,22.8A48.05,48.05,0,0,1,770,222a38.76,38.76,0,0,1-16.22-3.36,33.36,33.36,0,0,1-12.15-9.1A33.8,33.8,0,0,1,735,195.8a38.93,38.93,0,0,1-.31-16.64,48,48,0,0,1,6.57-16.61,55.72,55.72,0,0,1,27.41-22.8ZM761.39,193q4.74,5.75,13,5.75a25,25,0,0,0,23.57-19.6q1.53-8.13-3.21-13.86t-13-5.74a24.94,24.94,0,0,0-23.58,19.6Q756.64,187.27,761.39,193Z"/><path class="cls-1" d="M885.15,191.21l13.47,12.55a1.28,1.28,0,0,1,.37,1.06,1.7,1.7,0,0,1-.54,1.15,56.57,56.57,0,0,1-17,11.73A47.42,47.42,0,0,1,861.9,222a38.1,38.1,0,0,1-16.09-3.36,33.17,33.17,0,0,1-12-9.1,33.68,33.68,0,0,1-6.61-13.7,39.42,39.42,0,0,1-.27-16.64,48.45,48.45,0,0,1,6.53-16.61,55.48,55.48,0,0,1,27.21-22.8,47,47,0,0,1,17.37-3.4,37.35,37.35,0,0,1,17.89,4.26,32.62,32.62,0,0,1,12.57,11.65,1.58,1.58,0,0,1,.1,1.23,2.08,2.08,0,0,1-.78,1.07L889.62,167a1.77,1.77,0,0,1-1.17.37,1.15,1.15,0,0,1-.93-.53,17.58,17.58,0,0,0-5.94-5.25,16,16,0,0,0-7.94-2.05,22.78,22.78,0,0,0-15,5.74,23.41,23.41,0,0,0-8.35,13.86q-1.51,8.11,3.14,13.85t12.86,5.75a21.08,21.08,0,0,0,8.75-2,29.45,29.45,0,0,0,8-5.34,1.81,1.81,0,0,1,1.13-.53A1.27,1.27,0,0,1,885.15,191.21Z"/><path class="cls-1" d="M921.56,219.58H901.8a1.36,1.36,0,0,1-1.11-.45,1.38,1.38,0,0,1-.22-1.19l14.81-78.72A2,2,0,0,1,916,138a1.92,1.92,0,0,1,1.27-.45H937a1.37,1.37,0,0,1,1.06.45,1.33,1.33,0,0,1,.27,1.19l-14.81,78.72a1.86,1.86,0,0,1-.72,1.19A2,2,0,0,1,921.56,219.58Z"/><path class="cls-1" d="M994.81,137.58a1.19,1.19,0,0,1,1.28,1.07L1010.38,217a1.35,1.35,0,0,1,0,.49l-.11.58a1.88,1.88,0,0,1-.65,1.1,1.83,1.83,0,0,1-1.2.45H988.24a1.11,1.11,0,0,1-1.27-1.06l-2.14-11.73H958.58L952,218.52a1.75,1.75,0,0,1-1.68,1.06H930.18a1.33,1.33,0,0,1-1.1-.45,1.24,1.24,0,0,1-.24-1.1l.1-.58a3.15,3.15,0,0,1,.19-.57l43.75-78.23a1.87,1.87,0,0,1,1.68-1.07Zm-25,49h11.32l-2.89-15.17Z"/><path class="cls-1" d="M1075.94,139.22l-3.07,16.32a1.81,1.81,0,0,1-.7,1.11,2,2,0,0,1-1.23.45h-18l-11.45,60.84a1.89,1.89,0,0,1-.71,1.19,2,2,0,0,1-1.24.45h-19.84a1.23,1.23,0,0,1-1-.45,1.38,1.38,0,0,1-.23-1.19l11.45-60.84h-18a1.36,1.36,0,0,1-1.11-.45,1.32,1.32,0,0,1-.24-1.11l3.07-16.32a2,2,0,0,1,.67-1.19,1.94,1.94,0,0,1,1.28-.45h59a1.35,1.35,0,0,1,1.06.45A1.33,1.33,0,0,1,1075.94,139.22Z"/><path class="cls-1" d="M1086.09,219.58h-19.77a1.33,1.33,0,0,1-1.1-.45,1.38,1.38,0,0,1-.23-1.19l14.81-78.72a2,2,0,0,1,.67-1.19,1.94,1.94,0,0,1,1.28-.45h19.76a1.35,1.35,0,0,1,1.06.45,1.28,1.28,0,0,1,.27,1.19L1088,217.94a1.89,1.89,0,0,1-.71,1.19A2,2,0,0,1,1086.09,219.58Z"/><path class="cls-1" d="M1134.65,139.75a47.79,47.79,0,0,1,17.5-3.4,38.46,38.46,0,0,1,16.21,3.4,32.7,32.7,0,0,1,18.83,22.8,38.62,38.62,0,0,1,.32,16.61,48.33,48.33,0,0,1-6.57,16.64,55.11,55.11,0,0,1-27.42,22.8A48,48,0,0,1,1136,222a38.79,38.79,0,0,1-16.22-3.36,33.32,33.32,0,0,1-12.14-9.1,33.69,33.69,0,0,1-6.7-13.7,39.08,39.08,0,0,1-.31-16.64,48,48,0,0,1,6.57-16.61,55.72,55.72,0,0,1,27.41-22.8ZM1127.42,193q4.74,5.75,13,5.75a25,25,0,0,0,23.57-19.6q1.53-8.13-3.22-13.86t-13-5.74a24.94,24.94,0,0,0-23.57,19.6Q1122.68,187.27,1127.42,193Z"/><path class="cls-1" d="M1248.17,139.22a2,2,0,0,1,.67-1.19,1.83,1.83,0,0,1,1.2-.45h19.84a1.35,1.35,0,0,1,1.06.45,1.28,1.28,0,0,1,.27,1.19l-14.81,78.72a2,2,0,0,1-.7,1.15,1.9,1.9,0,0,1-1.25.49H1234a1.24,1.24,0,0,1-1.24-.82l-17.12-45.43-8.39,44.61a1.89,1.89,0,0,1-.71,1.19,2,2,0,0,1-1.24.45h-19.76a1.33,1.33,0,0,1-1.1-.45,1.38,1.38,0,0,1-.23-1.19L1199,139.22a2,2,0,0,1,.67-1.19,1.92,1.92,0,0,1,1.28-.45h20.5a1.12,1.12,0,0,1,1.17.74l18,41.41Z"/></g></g></svg>