<svg xmlns="http://www.w3.org/2000/svg" viewBox="0 0 980.86 221.96"><defs><style>.cls-1{fill:#fff;}</style></defs><title>Quest_White</title><g id="Layer_2" data-name="Layer 2"><g id="Layer_1-2" data-name="Layer 1"><path class="cls-1" d="M181.13,169.18c1.57-3,3.29-5.79,4.54-8.77s2.7-6.06,3-9.22c3.49-32.57,2.68-65.28.81-97.84C187.89,24.53,167.78,3.56,139,1.45,111.44-.58,83.63-.18,56,.86,27.46,2,6,21,2.77,49.31-1,82.69-.73,116.49,2.56,149.89c2.67,27.39,20.21,45.54,47.54,48.59a397.17,397.17,0,0,0,101-1.17L174.71,222,205,193.08C196.91,185,189.06,177.14,181.13,169.18Zm-39.85-41.45-21.93-24.41C109.08,112.85,99,122.2,88.42,132Q98.88,142.19,109,152c-13.72,0-27.41.94-40.87-.29-11.4-1-17.51-9.44-17.79-20.62-.48-20.55-.56-41.14.05-61.69C50.75,56.74,58.2,48.74,71,48.16c16.53-.73,33.13-.71,49.66,0,12.14.52,20,7.87,20.41,20C141.85,87.88,141.28,107.59,141.28,127.73Z"/><path class="cls-1" d="M802.66,137c-2.36,35-22.45,57.19-57.42,58.76-38.55,1.74-77.25.4-116.15.4V149.09q46.08,0,91.89,0c5.28,0,10.55.15,15.8-.12,8.6-.44,16.74-1.95,16.74-13.12s-8.35-12.27-16.72-12.73c-22.73-1.25-45.79,2.81-68.22-2.91-29.53-7.51-45.58-31.85-43-63.66C628.06,27.4,649.22,5.28,679.88,4c37.88-1.52,75.88-.37,114-.37v47.1q-31.89,0-63.7,0c-14,0-27.94-.08-41.9.13-7.78.13-14,2.72-14,12.05s6.28,11.45,13.92,11.81c22.35,1,44.93-2.37,67.07,2.38C786.15,83.8,804.63,107.59,802.66,137Z"/><path class="cls-1" d="M488.56,75.3H598.91v47.11h-110c-5,18.71,1.26,27.18,19.95,27.18q44.7,0,89.36,0a3.34,3.34,0,0,1,.65.14v47.36c-39.77-2-79.7,3.16-119.21-2.82-24.23-3.69-37.21-19-39.09-44.43a645.55,645.55,0,0,1,0-98.43c2.38-30.49,18-46,49.05-47.38,36.31-1.63,72.73-.37,109.37-.37V50.27H511C489.44,50.27,486.8,53.18,488.56,75.3Z"/><path class="cls-1" d="M408.45,146.16c-1.51,29.24-21.27,50-50.52,52.91a393,393,0,0,1-83.15-.17c-31.22-3.56-48.76-25-49.87-62.3-1.32-44.35-.31-88.76-.31-133.31h48.59V121.93c0,24,6.72,30.68,30.7,30.68,11,0,21.94.12,32.88-.11,15.19-.33,23.69-9.23,23.69-24.48q0-62.28,0-124.79h48.78c0,21,.09,41.83,0,62.72C409.12,92.69,409.81,119.48,408.45,146.16Z"/><polygon class="cls-1" points="980.86 3.31 980.86 50.65 923.35 50.65 923.35 196.68 874.72 196.68 874.72 50.84 817.25 50.84 817.25 3.31 980.86 3.31"/></g></g></svg>