<svg xmlns="http://www.w3.org/2000/svg" viewBox="0 0 1490.62 276.39"><defs><style>.cls-1{fill:#fff;}</style></defs><g id="Layer_2" data-name="Layer 2"><g id="Layer_1-2" data-name="Layer 1"><path class="cls-1" d="M1488.62,35.59c-3.5-7-10.7-9.8-18.3-8.9a132.72,132.72,0,0,1-17.7,1.8c-32,.2-64.2.2-96.3,0-10.2,0-20.3-.2-30.1-2.8a12.31,12.31,0,0,0-2-.2c-8.3.7-14.4,5.4-16.6,13.5a22.77,22.77,0,0,0-.9,3.9c-2.4-6.6-6.3-10.7-12.8-12.2-3.3-.7-6.8-1.7-10.2-2.4-19.2-4.3-38.4-5.2-57.7.2-18.7,5.4-33.1,15.9-41.2,33.8-6.8,15.2-6.3,30.7-.9,46.2a64.4,64.4,0,0,0,21.4,29c9.1,7.2,18.9,13.7,28.3,20.5a99,99,0,0,1,12.6,10.7c3,3.1,2.2,5.4-1.7,6.1-8.3,1.7-16.4.9-23.7-4.3a17.77,17.77,0,0,1-7.4-11.7c-.5-2.8-.9-5.5-1.5-8.3-2.6-11.3-15.9-15.7-25.5-9.8a16.45,16.45,0,0,0-7.8,11.5l-8-4.8c.4-3,.7-6.3.9-9.6.5-8.7.9-17.4,1.3-26.1.2-4.4,1.7-9,0-13.5-1.1-2.8-2.2-5.5-3.3-8.5a32.48,32.48,0,0,0,3.3-5.7,99.85,99.85,0,0,0,1.9-12.2c.6-7,.7-14.2,1.5-21.5.4-4.3,1.5-8.3.4-12.9-2.2-7.9-10.9-12.4-18.3-11.3a95.51,95.51,0,0,1-13.1,1.5c-31.4,0-62.8-.4-94.3-.4-7.2,0-13.9,1.3-18.1,7-2.8-1.8-5-4.3-8-5.2a37.35,37.35,0,0,0-11.5-1.8c-17.4-.2-34.8,0-52.1,0a48.67,48.67,0,0,0-13.7,1.3,14.48,14.48,0,0,0-8.1,5.4q-2.1,3.75-3.9,7.8l-.6-1.7a14.36,14.36,0,0,0-5.9-8.9c-4.4-3.2-9.4-3.9-14.8-3.9h-66.5a67.71,67.71,0,0,0-12.6,1.5,12.08,12.08,0,0,0-7.8,5.2c-1.5,2.4-2.8,4.8-4.1,7.4-3.5-3.5-6.8-7.6-10.7-11.3-21.6-20-47.9-28.3-76.7-29.9a150.43,150.43,0,0,0-44.3,5c-45.1,11.3-78.2,48.4-81.2,100a107,107,0,0,0,4.1,34.2c9.8,36,31.8,61.4,67.1,74a134.64,134.64,0,0,0,71.7,5.2,3.47,3.47,0,0,1,2.8.6c9.8,5.9,19.4,12,29.2,18.1,14.8,9.3,29.6,18.1,45.7,25a169.19,169.19,0,0,0,65,14.2,188.92,188.92,0,0,0,57.3-8.9,148.39,148.39,0,0,0,42-20.3c5.4-3.9,9.8-12.4,7.4-20.5a16,16,0,0,0-17.6-11.3,34.13,34.13,0,0,0-10.4,2.8,79,79,0,0,1-26.6,5.9,152.86,152.86,0,0,1-59.2-7.8,370.78,370.78,0,0,1-62.8-28.7c-3-1.7-6.1-3.3-9.2-5a108.85,108.85,0,0,0,26.6-53.6c.2,1.1.3,2.2.4,3.3a147.13,147.13,0,0,0,3.7,33.8c5.5,23.8,19.8,40.1,42.7,48.1,23.8,8.1,48.3,9.4,72.6,2,24-7.2,40.5-22.4,48.3-46.6a131.1,131.1,0,0,0,5.4-40.3c0-19.2,0-38.4.2-57.7,0-3,.4-5.9.4-8.7,9.2-2.2,9.8-2,15.3-7.6,4.8,5,4.8,5,15.3,7.8.4,39.7.7,79.7-.4,119.2a58.18,58.18,0,0,0-9.8,3,15,15,0,0,0-8.5,12.2,16.41,16.41,0,0,0,5.9,15.9c4.3,3.7,9.4,4.4,14.8,4.4,11.3-.2,22.5-.7,33.6-.7,20.3.2,40.7.9,61,1.1,7,0,14.2.7,21.1-1.3a16.07,16.07,0,0,0,9.6-6.5,68.68,68.68,0,0,0,4.4-7.4c3.7,7.4,10.5,10.5,18.1,12.6a123,123,0,0,0,67.8.5c16.3-4.4,29.6-13.3,38.3-27.9,10.7-17.8,11.6-36.8,4.4-56.2a54.89,54.89,0,0,0-19.6-25c-10.2-7.6-20.9-14.4-31.2-21.6-4.3-3-8.3-5.9-12.4-8.9a4.06,4.06,0,0,1-1.3-5.2,5.61,5.61,0,0,1,3.9-2.4,24.35,24.35,0,0,1,17.9,3.1,11.26,11.26,0,0,1,5.6,8.1,23.48,23.48,0,0,0,6.6,14.6,17.09,17.09,0,0,0,22.7.2,47.23,47.23,0,0,0,5-5.9,17.21,17.21,0,0,0,10.5,6.1,18.21,18.21,0,0,0,16.3-5.9,31.62,31.62,0,0,0,5.2-11.5,2.65,2.65,0,0,1,2.4-2c4.1-.2,8.1-.6,12.2-.6,2.6-.2,5.2,0,7.6,0,.9,4.4.2,103.5-.7,107.6l-4.4,1.1a16.72,16.72,0,0,0-13.5,13.3c-2,8.5,3.5,18.3,12.4,19.8a52,52,0,0,0,9.6.9c7.4,0,15-.4,22.4-.4,15.5,0,31.1.4,46.6.4a73.61,73.61,0,0,0,11.5-1.3,12.42,12.42,0,0,0,8.3-5.4,17.11,17.11,0,0,0-3.5-24,18.43,18.43,0,0,0-6.5-3c-3-.7-5.9-1.3-9.2-1.9v-107l20.7,1.1c.6,3.3,1.3,6.6,2.2,9.8a20.68,20.68,0,0,0,4.8,7.2,16,16,0,0,0,16.3,3.3,14.94,14.94,0,0,0,11.1-11.1,85.48,85.48,0,0,0,2-15.2c.5-8.7,1.1-17.4,1.1-26.1A21.11,21.11,0,0,0,1488.62,35.59Zm-553.5,13.8c.2-.5.2-.9.4-1.5,0,0,.2,0,.6-.4,2,11.8,10.7,14.6,21.3,15.5v11.1c0,24.8,0,49.6-.4,74.1a53,53,0,0,1-2.4,16.8,12.51,12.51,0,0,1-8.9,8.5,28.15,28.15,0,0,1-15.5.2c-8.3-2.4-12.2-8.7-13.1-16.8-.7-6.8-1.1-13.7-1.3-20.5,0-23.7.2-47.3.2-71.2,0-1.8.4-2.6,2.4-3,3.5-.7,7-1.1,10-3.3A13.91,13.91,0,0,0,935.12,49.39Zm-117.9,125.7c-2.4,3-5,5.7-7.6,8.9,5,2.6,9.8,5.2,14.6,7.8a391.73,391.73,0,0,0,52.3,25,179.68,179.68,0,0,0,41.4,11.1c17.2,2,34.2,2.2,51-2.4,5.2-1.5,10.2-3.7,15.3-5.2a11.29,11.29,0,0,1,12.7,4.3,12.13,12.13,0,0,1-1.7,16.5,77.18,77.18,0,0,1-13.5,9.3c-20.9,12-43.6,18.3-67.7,20.7a161.66,161.66,0,0,1-81.2-12.9,368.09,368.09,0,0,1-45.3-24.8c-10-6.3-20-12.6-30.1-18.7a6.08,6.08,0,0,0-3.5-.6c-26.4,5-52.5,3.1-77.5-7.4a96.85,96.85,0,0,1-47.3-42.7,107.74,107.74,0,0,1-13.9-61.6c1.7-22.4,9.3-42.7,24-59.9s34-28.1,56.4-33.5c27-6.3,53.6-5.7,79.5,4.3,34.4,13.3,56.4,37.7,63.6,74.1,6.5,32.3-1,61.7-21.5,87.7Zm19.2-113.3a38.2,38.2,0,0,1,6.7,1.5c.4,0,.7.9.7,1.3.2,7,0,14,0,20.9m186.9-38.6a11.49,11.49,0,0,1-8.9,10.3,60.49,60.49,0,0,1-7.2,1.3c-1.5.2-2,.6-2,2.2-.2,9.6-.5,19.2-.7,29-.2,17,0,34-.5,50.8a92.68,92.68,0,0,1-7.8,35.9,62.67,62.67,0,0,1-27.2,29,87.68,87.68,0,0,1-41,10.5,117.83,117.83,0,0,1-39.6-5c-23.3-7.2-38.1-22.5-43.6-46.4a126,126,0,0,1-3.1-28.1V59.19c-4.1-.7-7.6-1.3-11.1-2.2-6.6-1.9-9.1-6.3-9.2-12a11.53,11.53,0,0,1,9.2-11.7,34.74,34.74,0,0,1,9.1-.9c12.2,0,24.4.5,36.6.5,10.2,0,20.5-.4,30.9-.5,4.4,0,8.7.4,12.4,3.1a11.22,11.22,0,0,1,4.6,10.7,11.53,11.53,0,0,1-8.7,10.7,77.56,77.56,0,0,1-10.7,2c-.2,5.2-.4,10.3-.4,15.5,0,23.5,0,47.1.2,70.6a75.48,75.48,0,0,0,1.7,15.7c2,10.3,8.7,17.2,20.5,18.3a42.27,42.27,0,0,0,12.8-.7c8.1-1.8,12.6-7.8,13.7-15.5a147.24,147.24,0,0,0,1.8-22.9c.2-24.2,0-48.4,0-72.6,0-2.8-.4-5.5-.6-8.3-3.9-.6-7.6-.9-11.1-1.7a12.43,12.43,0,0,1-9.6-14.7v-.1a12.35,12.35,0,0,1,2.6-5.4,12.51,12.51,0,0,1,10-4.6c5.7-.2,11.5,0,17.2,0,14.2,0,28.3,0,42.5-.2,4.4,0,8.9.2,12.7,3A13,13,0,0,1,1030.72,46.89ZM1178,175h0c-1,8.1-1.7,16.5-3.2,24.6-1.7,9.2-7,13.7-16.4,14-11.6.2-23.3.2-34.9-.2-24.4-.9-48.6-1.1-72.8-.2a17.66,17.66,0,0,1-12.2-3,12.07,12.07,0,0,1-4.8-11.8,10.94,10.94,0,0,1,8.9-9.8c2.8-.7,5.7-.9,9-1.5.4-4.8.9-9.6.9-14.6q.3-51.9,0-103.3c0-3.3-.4-6.8-.4-10a91.25,91.25,0,0,1-9.1-1.7c-6.3-1.7-8.9-6.5-8.9-12a11.15,11.15,0,0,1,8.9-11.6,36.39,36.39,0,0,1,8.7-1.1c31.2,0,62.5.4,93.7.4a55.28,55.28,0,0,0,12.8-1.5,12.11,12.11,0,0,1,14.4,9.2,10.56,10.56,0,0,1,0,5c-1.1,6.5-1.5,12.9-2,19.6-.6,5-.6,10-1.3,15-.7,5.4-4.3,8.7-9.2,10.3,7,1.9,9.6,8,9.2,14.8l-2.2,36c-.4,4.6-1.5,8.7-5,11.3a46.16,46.16,0,0,1,7.4.6c4.4.9,6.8,3.9,8.1,8.1A33.58,33.58,0,0,1,1178,175Zm124.3-118.3h0v7.9l-.6,15.5a17.16,17.16,0,0,1-3,9.8,13.21,13.21,0,0,1-18.3,1.9,4,4,0,0,1-1.3-1.3,18.63,18.63,0,0,1-3.7-10.2,15.28,15.28,0,0,0-7-11.5,29.26,29.26,0,0,0-22.5-4.2c-3.3.6-6.3,2.2-7.2,5.7s-.6,7.2,2.6,9.8c4.3,3.3,8.5,6.5,12.9,9.6,10.2,7,20.7,13.7,30.5,21.1,25.5,19.4,27.7,49.7,16.3,72.5-6.7,13.1-17.9,21.4-31.4,26.8a99.68,99.68,0,0,1-35.9,6.1,120.27,120.27,0,0,1-39-5.9c-8.7-3-13.3-8.9-13.5-17.9-.2-12.8-.6-25.5,1.8-38.1a12.52,12.52,0,0,1,24.2-2,46.19,46.19,0,0,1,1.1,6.3c.9,8.7,5.6,14.8,13.1,18.8a34.81,34.81,0,0,0,23.3,3c3-.5,6.3-1.5,7.2-4.8a8.93,8.93,0,0,0-2.8-9.6c-4.6-3.9-9.3-7.8-14-11.5-8.7-6.5-18.1-12.4-26.4-19.2-13.3-10.7-22.2-24.2-23.8-41.6-2.2-21.8,5.7-39.2,24-51.6,10.9-7.4,23.5-10.4,36.4-11.5,16.3-1.3,32.4,1.3,48.1,5.5a12.6,12.6,0,0,1,9,12.9C1302.62,51.09,1302.32,54,1302.32,56.69Zm182.9,7.5c-.2,4.3-.4,8.7-.7,13.1-.4,3.9-.7,7.8-3.1,10.9a12.25,12.25,0,0,1-12,5,11.36,11.36,0,0,1-10-9.2,56.27,56.27,0,0,1-1.1-8.1,3.08,3.08,0,0,0-2.6-3.3h-.4c-9.2-.7-18.5-1.3-27.9-1.9,0,1.3-.2,2-.2,2.8,0,31.3,0,62.7.2,93.9,0,5.9.6,12,.7,17.9,0,1.3.6,1.8,1.9,2,3.7.5,7.4.9,10.9,1.7a12.61,12.61,0,0,1,9.3,15,12.08,12.08,0,0,1-2.4,4.8,14.22,14.22,0,0,1-10,4.6c-3.1.2-6.1.2-9.2.2-22.2-.6-44.6-.7-66.7,0a18.66,18.66,0,0,1-11.5-2.6,11.39,11.39,0,0,1-5-11.5,11.83,11.83,0,0,1,8.9-10.5c3-.9,5.9-1.1,9.4-1.9.2-4.3.7-8.7.7-13.1.2-33.6.2-67.5.2-101.3a13.55,13.55,0,0,0-.2-2c-.6,0-1.3-.2-1.8-.2-7.8.2-15.5.5-23.3.7A6.24,6.24,0,0,0,1333,76a42.56,42.56,0,0,1-4.6,10.2,10.67,10.67,0,0,1-11.3,4.6,11.51,11.51,0,0,1-10-8.7c-1.3-4.3-.6-8.5.2-12.8,1.5-9.4,3.1-18.9,4.8-28.3a13.06,13.06,0,0,1,15-10.5c.4,0,.7.2,1.1.2,8.7,2.4,17.9,2.4,26.8,2.4h99.6a92.1,92.1,0,0,0,15.7-1.8c5.9-.9,11.1.7,13.9,5.5a16.46,16.46,0,0,1,1.9,7.6C1486,51.09,1485.42,57.59,1485.22,64.19Z"/><path class="cls-1" d="M577.82,153.69a15,15,0,0,0-8.1-5.2c.4-3.5.7-6.8.9-10.2.5-8.7.9-17.2,1.3-25.9.2-4.3,1.7-8.5.2-12.8-1.1-3.1-2.4-6.3-3.5-9.4a25.89,25.89,0,0,0,3.2-5.9,86.17,86.17,0,0,0,1.8-12.4c.5-7,.7-14,1.5-20.9.4-4.3,1.7-8.3.4-12.9-2.2-8-10.9-12.4-18.3-11.3a95.51,95.51,0,0,1-13.1,1.5c-31.4,0-62.8-.4-94.3-.4a41.55,41.55,0,0,0-11.1,1.8,18.26,18.26,0,0,0-6.5,4.4,16.21,16.21,0,0,0-3.3,16.3A15.93,15.93,0,0,0,440,61.49c2,.6,4.1.9,6.3,1.5v28.3a5.17,5.17,0,0,1-.6-1.3c-9-26.4-27.3-44-53.6-53.2-18.9-6.7-38.6-8.7-58.6-8.7-14.4,0-29,.4-43.4.4-10.7,0-21.6-.4-32.4-.5-5.4,0-10.5.7-14.8,4.4a46,46,0,0,0-4.1,4.7,44.87,44.87,0,0,0-4.1-4.6c-4.1-3.5-9.1-4.4-14.2-4.4h-65.8a34.27,34.27,0,0,0-16.3,3.5c.2-2.2.4-4.1.4-6.1-.2-9.1-4.1-15.7-13.3-18.5-2.6-.7-5.2-1.5-8-2-21.3-5-42.6-6.3-63.8-.6-19.9,5.3-35.4,16.4-44.5,35-8.4,17.8-7.6,36.3-.6,54.6,5.2,13.3,14.2,24,25.3,32.7,8.3,6.8,17.4,12.8,26.1,19,5.5,4.1,11.5,7.8,16.1,13.1a19.05,19.05,0,0,1,2.6,4.1c2.2,5.5.6,9.6-5,11.3a30.15,30.15,0,0,1-17.6.2c-10.9-3.1-18.3-10.3-19.4-23.3a30.59,30.59,0,0,0-3-10.3,15.24,15.24,0,0,0-11.6-8,16.41,16.41,0,0,0-15.9,5.9,22,22,0,0,0-4.6,13.5c-.9,12-1.4,24.2-1.6,36.3a27.2,27.2,0,0,0,4.3,15.7,25.39,25.39,0,0,0,14.6,10c25.7,8.1,51.8,9.2,77.3.5,23.7-7.9,40.7-23.3,46.6-48.6a68.13,68.13,0,0,0-7.7-51.6c-6.5-10.9-15.5-19.4-25.9-26.8-9.4-6.8-19.4-13.3-29-20.1-4.4-3.1-9.2-6.3-11.3-11.7-2.4-6.3-.4-10,5.4-10.9,7.6-1.3,15-.7,21.8,3.7a15,15,0,0,1,6.6,10c.6,2.6.9,5.4,1.7,7.9A16.67,16.67,0,0,0,121.22,79c8-.2,14.6-5,16.3-13.5.4-2.2.9-4.6,1.3-6.3l11.8,3.7c0,.5.2,1.3.2,2,0,30.3.2,60.5.2,90.8,0,8.3-.6,16.5-.9,24.8a2,2,0,0,1-1.8,2.2h-.2a44,44,0,0,0-8,2.6,17.08,17.08,0,0,0-2.3,27.5c4.4,3.7,9.8,4.4,15.3,4.4,11.5-.2,22.7-.5,34.2-.5,12.8,0,25.5.5,38.5.5a20.31,20.31,0,0,0,14.4-4.6,33.41,33.41,0,0,0,3.2-3.3,15.66,15.66,0,0,0,11.8,7.4,71.89,71.89,0,0,0,9.2.5,460.26,460.26,0,0,1,55.1.9,168.7,168.7,0,0,0,58.8-4.1c33.8-8.9,56.4-30,68.2-62.7.2-.4.2-.5.4-.9v31.1a57.59,57.59,0,0,0-10,3,15,15,0,0,0-8.5,12.2,16.75,16.75,0,0,0,5.9,16.1c4.3,3.5,9.4,4.4,14.6,4.3,11.3,0,22.5-.7,33.6-.7,23.3.2,46.6.9,69.9,1.1a66.6,66.6,0,0,0,11.8-1.3c7.6-1.5,12-6.7,13.9-13.7a149.52,149.52,0,0,0,4.4-35.9A22.36,22.36,0,0,0,577.82,153.69Zm-444.4-94.1c-.2,5.2-1.3,10-5.9,13.1a12.6,12.6,0,0,1-17.4-3.1v-.1a21,21,0,0,1-1.5-3,22.45,22.45,0,0,1-1.3-5.7c-.9-8.9-5.5-14.6-13.7-17.9a33.48,33.48,0,0,0-22.5-1.3c-8.1,2.4-9.4,10-7,16.4,2.4,6.1,7.4,10,12.4,13.5,9.8,6.8,19.8,13.3,29.4,20.3a92.54,92.54,0,0,1,24.6,25.3,64,64,0,0,1,9.3,34.9c-.2,17.4-6.5,32.2-19.2,43.8a75,75,0,0,1-33.8,17.4,125.1,125.1,0,0,1-66.2-2.8,22.54,22.54,0,0,1-11.6-7,22.42,22.42,0,0,1-4.4-13.7c-.2-3.9,0-7.6,0-11.5h-.4q.75-13,1.8-26.1c.5-5,1.8-9.6,6.3-12.6a12.24,12.24,0,0,1,16.8,3.1,13.59,13.59,0,0,1,1.7,3.9,63.46,63.46,0,0,1,1.3,7.6c1.9,15.2,14,24.6,27.7,25.9a33.49,33.49,0,0,0,16.6-1.7c5.4-2.2,7.2-5.4,7.4-11.1a17.87,17.87,0,0,0-5.5-12.8c-6.8-7.2-15.3-12.2-23.5-17.7a188,188,0,0,1-27-21.8c-14.4-15.2-21.4-33.3-19.4-54.2,1.9-19.4,11.5-34.2,28.3-44.4,13.9-8.5,29.4-11,45.5-11.2a145.67,145.67,0,0,1,42,6.1c7,2,10.5,7,10.3,14.4C134.12,36.69,133.72,48.09,133.42,59.59Zm107.2,142.3a11.45,11.45,0,0,1-8.3,10.1,36.43,36.43,0,0,1-10.9,1.1c-22.7-.6-45.7-.7-68.4,0a18.87,18.87,0,0,1-11.8-2.8,10.9,10.9,0,0,1-4.8-11.1,11.74,11.74,0,0,1,8.7-10.9c2.8-.7,5.5-1.1,8.9-1.7.4-3.1.7-6.7.9-10,.4-10.7.5-21.6.5-32.4,0-25.5,0-51.2-.2-76.9,0-3-.4-5.9-.5-8.9-3.1-.6-5.9-.9-8.7-1.7a12.17,12.17,0,0,1-9.2-14.6,12,12,0,0,1,9.2-9.2,26.83,26.83,0,0,1,8-.7c22.2.7,44.4.6,66.5,0,5.5-.2,10.9.9,14,6.1a12.36,12.36,0,0,1-3.6,17h-.1a19.64,19.64,0,0,1-3.3,1.5,60.49,60.49,0,0,1-7.2,1.3c-1.5.2-2,.7-2,2.2-.2,8.1-.5,16.5-.5,24.6,0,28.1,0,56.2.2,84.3,0,5.7.6,11.3.7,17.4l5.2.6c4.3.4,8.7.5,12.4,3.5a12.27,12.27,0,0,1,4.3,11.2Zm2-10.7h0c-4.6-7.2-12-7.9-19.6-8.7-.2-3.3-.6-6.6-.6-10,0-35.9,0-71.5-.2-107.4,0-1.9.7-2.4,2.4-2.6,3.7-.7,7.4-1.3,10.2-4.1,1.5-1.5,3-3.1,4.6-4.8,4.1,7.6,11.7,8.7,19.6,9.8.2,39.7.6,79.5-.2,119.4C252,183.59,246.32,185.29,242.62,191.19Zm183.8-12.7h0c-13.7,17.5-32,28.1-53.8,32.9a168.86,168.86,0,0,1-48.1,3.1,479.26,479.26,0,0,0-63.4-1.1,17,17,0,0,1-11.8-3,12.06,12.06,0,0,1-4.8-11.3,11.74,11.74,0,0,1,8.7-10.4,37,37,0,0,1,7.4-1.3c1.5-.2,2.2-.5,2.2-2,.4-6.5.9-13.1.9-19.6,0-32.7-.2-65.6-.2-98.3,0-2.8-.4-5.4-.6-8-4.1-.7-8.1-1.1-12-2-6.5-1.7-9.1-6.3-9.2-12a11.31,11.31,0,0,1,9.2-11.8A20.8,20.8,0,0,1,257,33c25.5,0,50.8,0,76.3.2,18.3.2,36.6,2,54.2,7.4A84.78,84.78,0,0,1,423,62a76,76,0,0,1,20.3,38.3C450,128.79,444.72,155.19,426.42,178.49Zm150.9-10.2h0c-1,10.6-1.9,21.1-3.6,31.5-1.5,9.1-7,13.7-16.3,13.9-11.8.4-23.5.2-35.3-.2-24.2-.9-48.4-1.1-72.7-.2-4.4.2-8.7-.2-12.4-3a11.75,11.75,0,0,1-4.6-11.8,11,11,0,0,1,9.1-10c2.8-.7,5.7-.9,9.1-1.5.4-4.6,1.1-9.6,1.1-14.4.2-34.8.2-69.3,0-104.1,0-3.1-.4-6.3-.6-9.6a75.26,75.26,0,0,1-8.5-1.5,11.69,11.69,0,0,1-9.4-11.6,10.83,10.83,0,0,1,6.7-11.2,25.26,25.26,0,0,1,10.2-1.8c21.6,0,43.3.4,64.9.6,11.6,0,23.1-.2,34.8-.4a49.73,49.73,0,0,0,7.6-1.1,11.45,11.45,0,0,1,12.9,5,12.28,12.28,0,0,1,1.7,7.9c-2,9.8-1.7,19.8-2.6,29.8A38.28,38.28,0,0,1,567,85a10.26,10.26,0,0,1-7.8,5.7,9.79,9.79,0,0,1,7.6,5.7,26.73,26.73,0,0,1,1.7,9.2c-.4,12-1.3,23.8-2,35.7-.2,4.6-1.3,8.7-5,11.3a64.65,64.65,0,0,1,7.6.5,9.47,9.47,0,0,1,7.4,7A31.73,31.73,0,0,1,577.32,168.29Z"/><path class="cls-1" d="M1020,41a14.45,14.45,0,0,0-4.6-.5c-7.4.2-15,.5-22.4.5l-36.4-.5a14.34,14.34,0,0,0-5.5.5,4.81,4.81,0,0,0-2.4,1.8h0a5.07,5.07,0,0,0,1.1,7,9.66,9.66,0,0,0,4.1,1.5c3.1.6,6.5.7,9.6,1.3a5.16,5.16,0,0,1,4.8,4.8,57,57,0,0,1,.9,8.3c.2,25,.4,49.9.4,74.9a109.17,109.17,0,0,1-2.4,25.5c-2.6,10.6-8.9,17.8-19.8,20a48.48,48.48,0,0,1-12.6,1.1c-14.4-.5-24.8-9.2-28.3-23.1a100.07,100.07,0,0,1-2.4-24.4c-.2-20.9-.2-42,0-62.9,0-6.3.4-12.6.9-18.8.6-4.3,2.2-5.4,6.5-5.9,3-.4,5.7-.9,8.7-1.5a5.3,5.3,0,0,0,3.9-5.4,4.51,4.51,0,0,0-3.9-4.4,28.79,28.79,0,0,0-5.9-.5h-61.6c-3.7,0-7.6-.2-11.3,0a5.44,5.44,0,0,0-5.5,4.8c-.2,2.9,1.3,5,4.6,5.9a8.47,8.47,0,0,0,1.7.4c2.8.6,5.5.9,8.3,1.3a5.19,5.19,0,0,1,5,5.2c.2,3.7.6,7.4.6,11.1v35.1c0,10.9-.4,21.8,0,32.7a172.62,172.62,0,0,0,2.2,23.7c4.1,22.2,17.2,36.8,38.6,43.8a89.61,89.61,0,0,0,24.6,4.4c12,.7,24,.4,35.7-2.9,18.1-5.2,32.1-15.5,40.1-33.1a88.34,88.34,0,0,0,6.7-33.6c.4-17.7.4-35.7.6-53.4,0-8.9.4-17.9.9-26.8.2-5,1.3-5.9,6.1-6.8,1.1-.2,2.4-.4,3.5-.6a22.93,22.93,0,0,0,5.2-1.1v.1a10.18,10.18,0,0,0,3.5-3v-.1A5.35,5.35,0,0,0,1020,41Z"/><path class="cls-1" d="M1166.72,159.39a5.25,5.25,0,0,0-5.6,2.4,31.21,31.21,0,0,0-1.5,3.9c-.7,2.4-1.3,4.8-2,7.2a11.35,11.35,0,0,1-9.6,8.3,100.57,100.57,0,0,1-25.7,1.1,52.25,52.25,0,0,1-8.7-1.3,6.72,6.72,0,0,1-5.6-6.3,26,26,0,0,1-.6-5.6v-39.2a8.2,8.2,0,0,1,.2-2.2c10.5.4,20.9.6,31.2,1.5,6.7.6,8.3,3,9.1,9.8a20.09,20.09,0,0,0,1.3,5.5,5,5,0,0,0,5.6,2.8,4.58,4.58,0,0,0,4.3-3.9c.2-1.2.3-2.5.4-3.7.4-8,.6-15.7.9-23.7.4-4.4.9-8.9,1.3-13.3a5.13,5.13,0,0,0-3.3-5.7,5.4,5.4,0,0,0-6.3,2.6c-2.1,3.7-5.4,4.6-9.1,4.8l-33.5.7c-.5,0-1.1-.2-1.8-.2V62.59c9.1.4,17.8.5,26.4.9,3.4.2,6.8.6,10.2,1.1a6.62,6.62,0,0,1,5.9,6.1c.4,2.4.7,5,1.1,7.4a5.36,5.36,0,0,0,5.7,5,5.9,5.9,0,0,0,5.4-5.5c.2-2,.2-4.1.4-6.1.7-8.9.4-17.7,2.4-26.6,1.1-5-1.7-7.8-6.7-6.6a33.24,33.24,0,0,1-7,1.3c-10,.2-20.2.4-30.3.4-19.6,0-39.2-.2-58.8-.4-5.2,0-10.2-.2-15.3,0-3.7,0-5.9,2-6.1,5.2s2,5.4,5.7,5.7l5,.6c4.8.6,6.8,2.6,7.2,7.4.2,2.6.4,5,.4,7.4.2,25.7.4,51.6.4,77.5,0,9.8,0,19.4-.4,29.2a111.22,111.22,0,0,1-1.7,16.3c-.7,4.3-2,5.2-6.3,5.5l-5.9.6a5.13,5.13,0,0,0-5,4.1,5.33,5.33,0,0,0,3.9,6.5,9.46,9.46,0,0,0,3.3.5c4.6,0,9.3-.2,13.9-.2,15.2,0,30.1-.2,45.3,0,16.6.2,33.5.6,50.1.7,6.8.2,10-2.4,11.1-9.4s2-13.9,2.6-20.9a82.81,82.81,0,0,0,.1-12.2A4.84,4.84,0,0,0,1166.72,159.39Z"/><path class="cls-1" d="M1157.12,154.59c-5.6,1.1-10.5-.4-13.1-5.2a31.74,31.74,0,0,1-2.8-10c-.4-1.7-.7-2.6-2.6-2.8l-6.6-.6h-17v16.3c0,6.6.2,13.3.2,20,0,1.8.9,2.4,2.6,2.6a119.88,119.88,0,0,0,26.1.2c5-.4,7.4-3,8.3-7.6s1.8-9.6,6.5-13.1A4.68,4.68,0,0,1,1157.12,154.59Zm-10.1,13.7a2.59,2.59,0,0,1-2.6,2.2,134.77,134.77,0,0,1-24.6.2v-29.4h15.7c.4,0,.9.9,1.1,1.5a63.07,63.07,0,0,0,2.8,8.7,14.83,14.83,0,0,0,10,7.6C1148.62,162.19,1147.72,165.29,1147,168.29Z"/><path class="cls-1" d="M1144.62,80.89a34.67,34.67,0,0,1-1.1-6.3c-.2-1.8-.9-2.8-2.8-2.8l-25.2-1.1c-.2,0-.2.2-.4.4v27.7c9.8-.4,19.6-.5,29.2-.9a3.27,3.27,0,0,0,1.5-1.1,13.48,13.48,0,0,1,8.1-6.1A12.6,12.6,0,0,1,1144.62,80.89Zm-5.2,12.5H1120V75.29l18.9.7c1.3,5.2,1.5,10.5,5.5,14.2A4.25,4.25,0,0,1,1139.42,93.39Z"/><path class="cls-1" d="M1472.32,38c-.7,0-1.7.4-2.4.4-5.5.9-11.1,1.5-16.6,1.9q-49,.3-98.2,0c-9.8,0-19.6-.2-29.2-2.8a5.47,5.47,0,0,0-6.5,3.3,16.41,16.41,0,0,0-1.3,4.3c-1.3,7.8-2.6,15.5-3.9,23.5a73.16,73.16,0,0,0-.9,9.3,5.26,5.26,0,0,0,4.1,5.7,5.44,5.44,0,0,0,6.3-3.7,28,28,0,0,0,2.2-5.7c1.7-6.7,6.1-9.8,12.8-10,10.2-.4,20.2-.6,30.3-.9,2-.2,2.8.4,2.8,2.6-.2,31.1,0,62-.2,93,0,9.1-.4,18.3-1.1,27.5-.3,6.5-1.8,7.4-8.3,8a41,41,0,0,0-6.1,1.1,5,5,0,0,0-3.7,5.7,5.31,5.31,0,0,0,4.8,4.4,35.4,35.4,0,0,0,4.6.2c13.6-.2,27.3-.6,41-.6,9.9,0,19.9.4,29.9.6a41.36,41.36,0,0,0,7-.6,4.25,4.25,0,0,0,3.5-3.9,4.91,4.91,0,0,0-2.4-5.2,12.46,12.46,0,0,0-4.6-1.5c-2.6-.4-5.4-.6-8.1-.9-4.3-.5-5.9-2-6.8-6.3a25,25,0,0,1-.7-6.7c-.4-19-.7-37.9-1.1-56.9h.2V65.39c0-1.8.4-2.6,2.4-2.4,5.2.4,10.5.2,15.7.6,6.1.4,12.4.5,18.7,1.7s8.3,3.9,8.7,10.2a59.68,59.68,0,0,0,1.1,7.2,4.83,4.83,0,0,0,4.6,3.3,4.71,4.71,0,0,0,5-3,10.17,10.17,0,0,0,.9-3.3c.6-6.5.9-13.1,1.3-19.6q.6-7.8.6-15.9C1478.62,40,1476.62,38.29,1472.32,38Z"/><path class="cls-1" d="M1290.32,42.39a267.82,267.82,0,0,0-26.8-4.6,89.45,89.45,0,0,0-34.9,3c-13.5,4.3-24.9,11.5-31.2,24.4-9.4,19.2-6.5,37.3,6.3,54.2,6.4,8.7,15.1,15,24,21.1,6.8,4.8,13.9,9.4,20.5,14.4a43.62,43.62,0,0,1,9,9.2c6.3,9.3,2.4,19.7-8.5,22.7a41,41,0,0,1-29.2-2.6c-10-4.8-16.3-12.2-17.7-23.3-.4-2-.6-3.9-.9-5.9a5.2,5.2,0,0,0-4.3-4.3,5,5,0,0,0-5.5,3,20.25,20.25,0,0,0-.9,3.3,211.11,211.11,0,0,0-1.3,36.4,9.68,9.68,0,0,0,6.5,9.1,81.31,81.31,0,0,0,27.2,5.9c12.9.7,25.7.5,38.3-3,21.1-6.1,41.8-22.2,40-53.6a43.71,43.71,0,0,0-11.3-27.2,118.2,118.2,0,0,0-22.2-18.3c-7.2-4.6-14.6-9.1-21.6-13.9a47,47,0,0,1-10-8.3c-8.3-9.8-3.7-23.7,8.9-26.4a35.49,35.49,0,0,1,21.6,1.7c9.8,3.7,16.1,10.2,17,21.1a10.57,10.57,0,0,0,.9,3.9,5.54,5.54,0,0,0,5.5,3.5,5.11,5.11,0,0,0,4.8-4.3c.2-1.3.3-2.6.4-3.9V64.89l.7-15.5C1295.72,45.19,1294.42,43.19,1290.32,42.39Z"/><path class="cls-1" d="M566.52,159.49a5.11,5.11,0,0,0-5.4,1.8,15.14,15.14,0,0,0-1.8,4.4c-.9,2.4-1.5,5-2.2,7.6a11,11,0,0,1-9.2,8,97.55,97.55,0,0,1-25.9,1.1,43.86,43.86,0,0,1-8.1-1.1c-4.1-.9-6.1-3-6.3-7.2-.4-6.3-.5-12.4-.5-18.7v-27a2.51,2.51,0,0,1,.7-.4c9.9.2,19.9.2,29.9.9,7.2.4,9.3,3,10,10.2a22.93,22.93,0,0,0,1.1,5.2,5.05,5.05,0,0,0,5.5,3.1,4.78,4.78,0,0,0,4.3-4.1c.2-1.3.3-2.6.4-3.9.4-7.6.6-15,.9-22.4.2-4.6.9-9.2,1.3-14a5.13,5.13,0,0,0-3.3-5.7,5.07,5.07,0,0,0-6.3,2.4c-2.1,3.7-5.4,4.8-9.1,4.8-11.3.2-22.4.5-33.6.7a5,5,0,0,1-1.7-.2V62.79c8.9.4,17.8.6,26.4.9a66.48,66.48,0,0,1,10.9,1.5,5.62,5.62,0,0,1,4.6,5c.4,2.8.7,5.5,1.3,8.1a5.83,5.83,0,0,0,5.7,5.2,5.74,5.74,0,0,0,5.4-5.5c.2-2,.2-4.1.4-6.1.7-8.9,1.3-17.6,2.4-26.2.7-5.9-1.7-8.3-7.6-6.8a34.17,34.17,0,0,1-6.3.9c-10,.2-20,.4-30,.4-19.6,0-39.4-.2-59.1-.4-5.2,0-10.2-.2-15.4,0h-.2A5.47,5.47,0,0,0,440,45c-.2,3.1,2,5.5,5.7,5.9,1.9.2,3.5.4,5.2.5,4.8.6,6.8,2.6,7.2,7.4.2,2.6.4,5,.4,7.4.2,25.7.4,51.6.4,77.5,0,9.8,0,19.4-.4,29.2a108.54,108.54,0,0,1-1.7,16.1c-.7,4.4-2.2,5.4-6.8,5.7l-5.7.5a5.32,5.32,0,0,0-4.8,4.1,5.25,5.25,0,0,0,3.9,6.3,9.6,9.6,0,0,0,3.3.6c4.4,0,9.1-.2,13.7-.2,15.3,0,30.7-.2,46,0,16.6,0,33.1.4,49.7.6,6.6,0,9.8-2.4,10.9-9.4s2-13.9,2.6-20.9c.4-4.1.4-8.2.6-12.3A4.53,4.53,0,0,0,566.52,159.49Z"/><path class="cls-1" d="M556,154.79c-5.4,1.1-10.3-.5-12.9-5.2a30.59,30.59,0,0,1-2.8-9.8c-.4-1.8-.9-3-3-3.1s-4.1-.4-6.3-.4H514v22.2c0,4.4.2,9.1.2,13.5,0,2,.7,3.1,3,3.1,8,0,15.7.6,23.7.2s9-1.5,10.7-9.1c.9-4.4,2-8.5,6.3-11.8A10.62,10.62,0,0,0,556,154.79ZM545.62,169h0c-.4.8-2,1.4-3.2,1.5-4.6.4-9.4.4-14.2.6h-9.8v-30h15.9c.4,0,.9.9,1.1,1.5a63.07,63.07,0,0,0,2.8,8.7,15.72,15.72,0,0,0,10,7.8A43.85,43.85,0,0,1,545.62,169Z"/><path class="cls-1" d="M543.62,80.49a46.42,46.42,0,0,1-1.1-6.5,1.92,1.92,0,0,0-1.9-2h-.3c-3-.2-6.1-.6-9.1-.6-5.7-.2-11.3,0-17,0v27a.84.84,0,0,0,.7.2L543,98a2.87,2.87,0,0,0,1.9-1.1A13.08,13.08,0,0,1,553,91,12.89,12.89,0,0,1,543.62,80.49Zm-5.2,12.9c-5.9,0-12,.2-17.9.4a5,5,0,0,1-1.7-.2V75.49l18.9.7a76.63,76.63,0,0,0,1.8,8A72.43,72.43,0,0,0,543,91C542.52,92.89,540.62,93.39,538.42,93.39Z"/><path class="cls-1" d="M121.42,17.49a139.48,139.48,0,0,0-45.9-5.2,75.44,75.44,0,0,0-29.8,7.2c-17.1,8.3-28,21.6-30.1,40.8a58.59,58.59,0,0,0,15.3,47,144.49,144.49,0,0,0,24.4,21.1c7.6,5.4,15.3,10.5,22.7,16.3a41.56,41.56,0,0,1,9.8,10.7c8.3,13.3,2,27.9-13.3,31.2A50.07,50.07,0,0,1,56,187a36.61,36.61,0,0,1-30.5-28.7c-.5-3.1-.9-6.3-1.5-9.4a4.6,4.6,0,0,0-4.3-4.1,4.93,4.93,0,0,0-5.3,3.3,14.32,14.32,0,0,0-1.3,4.6l-1.5,26.1c0,4.4-.2,9.1,0,13.5a10.85,10.85,0,0,0,7,9.6,80.66,80.66,0,0,0,9.4,3.3c13.3,3.9,27.1,4.3,41,3.5a78,78,0,0,0,29.6-7.2c25.5-11.8,37.5-34.8,32.8-62.3-2.2-12.6-8.7-22.7-17.7-31.4-9.4-9.1-20.2-16.5-31.1-23.7-5-3.3-10.2-6.8-15-10.5a32,32,0,0,1-9.8-11.8c-5.9-12.6.2-24.9,13.7-27.9a41.18,41.18,0,0,1,23.3,1.7c10.9,4.1,17.8,11.5,19.4,23.3a12.79,12.79,0,0,0,1.3,5,5,5,0,0,0,3.3,3.3,5.58,5.58,0,0,0,6.7-3.5,33.76,33.76,0,0,0,.7-6.3c.4-10.5.5-21.3.9-31.8C127.52,20.79,126.22,18.89,121.42,17.49Z"/><path class="cls-1" d="M438,108.19c-3.9-26.8-18.3-46.2-43.1-57.5-15.9-7.2-32.9-9.6-50.3-10.2-14.4-.5-29,0-43.4,0l-31-.4c-5.2,0-10.2-.2-15.4-.2-3.7.2-6.1,2.6-5.7,5.9a5.72,5.72,0,0,0,5.7,5c2.6.4,5.4.6,8,.9,4.8.5,6.8,2.4,7.6,7.2a36.83,36.83,0,0,1,.6,6.6c.2,25.9.2,51.8.4,77.6,0,11.7,0,23.5-.4,35.1a74.18,74.18,0,0,1-1.7,11.5,4.9,4.9,0,0,1-4.6,4.1c-2.4.2-4.6.6-7,.9a5.59,5.59,0,0,0-5.5,5.7c0,3,2.2,5,5.7,5.4h3.7a530.46,530.46,0,0,1,64.3,1.3,154.48,154.48,0,0,0,44.5-2.6c19.4-4.1,36.2-13.1,49-28.5C435.62,156.49,441.72,133.49,438,108.19Zm-53.6,51.4c-5,16.5-18.1,26.4-35.3,27.4a48.13,48.13,0,0,1-18.5-1.5c-7.9-2.4-10.5-5.5-10.9-13.7-.4-10-.6-20.2-.7-30.1-.2-8.5,0-16.8,0-25.3h.4v-36c0-4.3,0-8.5.2-12.6,0-7-.5-6.8,7-7.2,17.4-.7,32.6,4.1,44.4,17.2a69.09,69.09,0,0,1,15.7,31.8,104.55,104.55,0,0,1-2.3,50Z"/><path class="cls-1" d="M231,196.19a9.89,9.89,0,0,0-4.4-1.7c-3.5-.6-7-.7-10.5-1.3a5.47,5.47,0,0,1-4.8-5.2c-.2-2.8-.7-5.5-.7-8.3-.4-19-.7-38.3-1.1-57.3h.4c0-12.4-.2-24.6,0-37,0-8.7.4-17.2.7-25.9.2-5.9,1.7-7.4,7.6-8.3,1.5-.2,3-.4,4.3-.6a15.83,15.83,0,0,0,3.1-.9,4.66,4.66,0,0,0,3.1-4.8,4.55,4.55,0,0,0-3.5-4.8,18,18,0,0,0-5.2-.5h-64.5c-2.2,0-4.4,0-6.7.2h-.9a5.6,5.6,0,0,0-4.6,6.3c.4,2.4,2.4,4.3,5.7,4.6,2.8.4,5.4.7,8,1.1a4.32,4.32,0,0,1,4,4.1,68.41,68.41,0,0,1,.9,9.1c.2,26.8.4,53.6.4,80.2,0,10.9-.4,21.6-.7,32.5a75,75,0,0,1-1.3,11.5c-.7,3.7-2.2,4.8-5.9,5.2l-6.1.6a5.36,5.36,0,0,0-5.1,4.8,5.47,5.47,0,0,0,4.7,6,32.72,32.72,0,0,0,5.4.4c14.4,0,28.6-.4,42.9-.4,9.6,0,19.4.4,29.2.4a15.38,15.38,0,0,0,5.2-.9c1.1-.4,2-1.1,2-2A5.43,5.43,0,0,0,231,196.19Z"/><path class="cls-1" d="M771.32,117.69c0-16.1-2-31.6-8.7-46.4a56.77,56.77,0,0,0-16.3-22.2c-9.1-7.2-19.6-9-30.9-7.8a27,27,0,0,0-17.6,9.2,45.89,45.89,0,0,0-10.5,22.9,149.21,149.21,0,0,0-1.7,42.7,94.56,94.56,0,0,0,11.3,38.8c9.1,16.5,22.4,26.1,42,24.8a25.94,25.94,0,0,0,19-9.4,51.3,51.3,0,0,0,10-20.9A125.23,125.23,0,0,0,771.32,117.69Zm-7.4,28.2a41.26,41.26,0,0,1-10.5,22.5,21.48,21.48,0,0,1-14.8,6.7c-15.3,1.1-26.6-5.7-34.9-18.1a82.9,82.9,0,0,1-12.9-37,160.35,160.35,0,0,1,.4-42.1,48.07,48.07,0,0,1,7.6-20.7c5.5-8.7,14-11.8,24-11.5,14.3.4,24.1,7.8,31.1,19.6a83.17,83.17,0,0,1,11.6,37.5c.4,5,.7,10,1.1,17.4a206.7,206.7,0,0,1-2.7,25.7Z"/><path class="cls-1" d="M372.62,93.09c-10-18.5-27.2-26.4-46-25.1,0,.6-.2,1.1-.2,1.7q.3,50.55.6,100.9c0,6.1.9,6.8,6.7,8.5a5.85,5.85,0,0,0,1.3.2c4.6.2,9,.6,13.7.4a30.53,30.53,0,0,0,28.3-20.3,83.28,83.28,0,0,0,4.2-23.2C382,121,380,106.69,372.62,93.09Zm3.8,33.4a172.15,172.15,0,0,1-1.8,23.8h0c-1.8,11.1-7.4,20-18.7,23.3a38.33,38.33,0,0,1-22,.4,2.68,2.68,0,0,1-2.2-3c-.2-13.5-.5-27.2-.7-40.7,0-18.5.2-36.8.2-55.3a13.2,13.2,0,0,1,.2-2.8c14.6.4,26.3,6.1,34.2,17.9A61,61,0,0,1,376.42,126.49Z"/><path class="cls-1" d="M991.12,229.09a4.75,4.75,0,0,0-5.2-1.8,34.71,34.71,0,0,0-4.6,1.3c-13.3,5.9-27.4,7.8-41.8,8-20,.4-39.4-3.7-58.2-10.4a363.14,363.14,0,0,1-60.4-27.9c-7.8-4.4-15.7-8.5-23.8-12.9l1.9-1.7c29.4-26.6,40.5-59.7,32.3-98.2-7-32.7-27.9-54.3-59-66-24-9.1-48.8-9.4-73.8-3.7-21.8,5-40.7,15.3-54.5,33.1-19.4,24.6-25.5,52.5-18.9,83,7.4,33.8,27.2,58,60.1,70.2,22.9,8.5,46.6,8.9,70.4,4.3a5.31,5.31,0,0,1,3.5.7c9.2,5.7,18.7,11.5,27.9,17.4,15.7,10,31.6,19.6,48.8,27a149.38,149.38,0,0,0,46.4,12.6,169.44,169.44,0,0,0,46.6-2,159.08,159.08,0,0,0,57.7-22.7,16.35,16.35,0,0,0,4.4-4.3A5,5,0,0,0,991.12,229.09ZM773,157.79c-2.8,8.5-7,16.1-14.1,21.8a33.48,33.48,0,0,1-19.4,7.4c-18.9,1.3-33.5-6.3-44.4-21.5-8-10.9-12.2-23.3-14.8-36.4a144.68,144.68,0,0,1-.2-56.4,72.94,72.94,0,0,1,5.9-17.6c7.8-16.1,21.5-22.2,37.7-21.6,16.6.5,29.2,8.5,38.5,22a88.35,88.35,0,0,1,14,37l2.2,25.2c-.1,13.7-1,27.2-5.4,40.1Z"/></g></g></svg>