<svg xmlns="http://www.w3.org/2000/svg" viewBox="0 0 854.28 221.96"><defs><style>.cls-1{fill:#fff;}</style></defs><title>ARC_White</title><g id="Layer_2" data-name="Layer 2"><g id="Layer_1-2" data-name="Layer 1"><path class="cls-1" d="M96.82,1.83a1.77,1.77,0,0,1,1.9,1.59l22,116.61a2.62,2.62,0,0,1,0,.74l-.15.85a2.77,2.77,0,0,1-1,1.65,2.62,2.62,0,0,1-1.76.67H88a1.67,1.67,0,0,1-1.9-1.59l-3.3-17.46H44l-9.69,17.46a2.58,2.58,0,0,1-2.47,1.59H2.05a2,2,0,0,1-1.64-.67A2,2,0,0,1,0,121.62l.16-.85a3.77,3.77,0,0,1,.27-.86L64.36,3.42a2.73,2.73,0,0,1,2.47-1.59Zm-36.42,73H77.15L72.71,52.26Z"/><path class="cls-1" d="M235.27,2.44A2.52,2.52,0,0,1,237,1.83h30.84a1.88,1.88,0,0,1,1.52.67,2.12,2.12,0,0,1,.35,1.77L248.61,121.5a3,3,0,0,1-1,1.77,2.64,2.64,0,0,1-1.76.67H216.49a1.84,1.84,0,0,1-1.52-.67,2.12,2.12,0,0,1-.35-1.77l10.63-59.22-16,38.22a2.61,2.61,0,0,1-2.64,1.83H176.06q-2,0-2-1.83L172,62.28,161.33,121.5a3,3,0,0,1-2.87,2.44H129.2a2,2,0,0,1-1.64-.67,2.12,2.12,0,0,1-.35-1.77l21-117.23a3,3,0,0,1,1-1.77,2.85,2.85,0,0,1,1.88-.67h30.72a1.83,1.83,0,0,1,1.47.61q4.06,5,8.24,18a214.15,214.15,0,0,1,6.25,23.63l2.13,10.5c.59-1,1.42-2.54,2.5-4.45s3.11-5.42,6.13-10.51,5.9-9.78,8.66-14.1,5.83-8.71,9.23-13.19A64.6,64.6,0,0,1,235.27,2.44Z"/><path class="cls-1" d="M257.2,123.94a2,2,0,0,1-1.64-.67,2.08,2.08,0,0,1-.35-1.77l21-117.23a2.91,2.91,0,0,1,1-1.77,2.83,2.83,0,0,1,1.88-.67h71.26A2,2,0,0,1,352,2.5a2,2,0,0,1,.41,1.77L348,28.57a2.83,2.83,0,0,1-1,1.71,2.77,2.77,0,0,1-1.83.74H305.57l-3.12,17.34h34.24a1.85,1.85,0,0,1,1.52.67,2,2,0,0,1,.37,1.65L334.2,75.1a2.77,2.77,0,0,1-1,1.65,2.67,2.67,0,0,1-1.76.67H297.24L294.1,94.88h39.58a2,2,0,0,1,1.58.67,1.85,1.85,0,0,1,.43,1.65l-4.36,24.3a2.81,2.81,0,0,1-1.05,1.77,2.85,2.85,0,0,1-1.82.67Z"/><path class="cls-1" d="M427.32,82.06q11.3,16.25,7.53,41.27a3.05,3.05,0,0,1-1,1.71,2.69,2.69,0,0,1-1.89.73H400.54a1.84,1.84,0,0,1-1.52-.67,1.92,1.92,0,0,1-.37-1.65q2-14.78-3.4-22.65t-17.31-8.73l-5.62,31.26a2.87,2.87,0,0,1-1,1.71,2.77,2.77,0,0,1-1.83.73H340.2a1.88,1.88,0,0,1-1.63-.73,2.12,2.12,0,0,1-.36-1.71L359.58,4.27a3,3,0,0,1,1-1.77,2.83,2.83,0,0,1,1.88-.67H420A32.8,32.8,0,0,1,433.6,4.52a25.46,25.46,0,0,1,10,8,29.89,29.89,0,0,1,5.31,13.73,59.58,59.58,0,0,1-.68,19.3Q443.73,70.45,427.32,82.06ZM388.44,33.58l-4.67,26c-.13.73.16,1.1.89,1.1h14a14,14,0,0,0,9.62-3.85,17.51,17.51,0,0,0,5.42-10.26q1.15-6.4-1.74-10.25a9.67,9.67,0,0,0-8.23-3.85h-14A1.19,1.19,0,0,0,388.44,33.58Z"/><path class="cls-1" d="M473.76,123.94H444.5a2,2,0,0,1-1.64-.67,2.08,2.08,0,0,1-.35-1.77l21-117.23a2.91,2.91,0,0,1,1-1.77,2.83,2.83,0,0,1,1.88-.67h29.26a2.08,2.08,0,0,1,1.58.67,2,2,0,0,1,.41,1.77L476.62,121.5a2.84,2.84,0,0,1-1,1.77A2.89,2.89,0,0,1,473.76,123.94Z"/><path class="cls-1" d="M579.84,81.69l20.07,18.68a2,2,0,0,1,.57,1.59,2.54,2.54,0,0,1-.8,1.71,82.61,82.61,0,0,1-25,17.46,69.58,69.58,0,0,1-28.88,6.35,56.51,56.51,0,0,1-23.87-5A49.59,49.59,0,0,1,504,108.92a50.66,50.66,0,0,1-9.94-20.39,59.09,59.09,0,0,1-.59-24.79A71.84,71.84,0,0,1,502.94,39,81.31,81.31,0,0,1,543,5.07,68.61,68.61,0,0,1,568.64,0a55.34,55.34,0,0,1,26.54,6.35,48.88,48.88,0,0,1,18.74,17.34,2.32,2.32,0,0,1,.16,1.83,3,3,0,0,1-1.14,1.59L586.18,45.67a2.6,2.6,0,0,1-1.74.55,1.68,1.68,0,0,1-1.37-.8,26.74,26.74,0,0,0-8.86-7.81,23.77,23.77,0,0,0-11.77-3q-12.15,0-22.17,8.54a34.62,34.62,0,0,0-12.21,20.64q-2.16,12.09,4.8,20.64T552,92.93a30.67,30.67,0,0,0,12.93-3.06,43.09,43.09,0,0,0,11.75-7.93,2.54,2.54,0,0,1,1.66-.8A1.92,1.92,0,0,1,579.84,81.69Z"/><path class="cls-1" d="M695.1,1.83A1.77,1.77,0,0,1,697,3.42L719,120a2.62,2.62,0,0,1,0,.74l-.16.85a2.71,2.71,0,0,1-1,1.65,2.64,2.64,0,0,1-1.76.67H686.29a1.67,1.67,0,0,1-1.9-1.59l-3.3-17.46H642.24l-9.69,17.46a2.58,2.58,0,0,1-2.47,1.59H600.33a2,2,0,0,1-1.64-.67,2,2,0,0,1-.37-1.65l.16-.85a3.77,3.77,0,0,1,.27-.86L662.64,3.42a2.73,2.73,0,0,1,2.47-1.59Zm-36.42,73h16.75L671,52.26Z"/><path class="cls-1" d="M820.11,4.27a3,3,0,0,1,1-1.77,2.67,2.67,0,0,1,1.76-.67h29.38a2.06,2.06,0,0,1,1.58.67,2,2,0,0,1,.41,1.77L833.18,121.5a2.87,2.87,0,0,1-1,1.71,2.77,2.77,0,0,1-1.83.73H800a1.86,1.86,0,0,1-1.85-1.22L772.27,55.07,760.34,121.5a2.84,2.84,0,0,1-1,1.77,2.89,2.89,0,0,1-1.82.67H728.22a2,2,0,0,1-1.64-.67,2.08,2.08,0,0,1-.35-1.77l21-117.23a2.91,2.91,0,0,1,1-1.77,2.83,2.83,0,0,1,1.88-.67h30.35a1.68,1.68,0,0,1,1.75,1.1l27,61.67Z"/><path class="cls-1" d="M190.38,191.27q7.85,11,5.57,27.89a2,2,0,0,1-.65,1.15,1.8,1.8,0,0,1-1.27.5H172.66a1.29,1.29,0,0,1-1-.46,1.33,1.33,0,0,1-.27-1.11q1.23-10-2.56-15.3T156.93,198l-3.47,21.12a2.08,2.08,0,0,1-1.92,1.65H131.66a1.32,1.32,0,0,1-1.12-.5,1.44,1.44,0,0,1-.26-1.15l13.2-80.44a1.93,1.93,0,0,1,.65-1.2,1.88,1.88,0,0,1,1.27-.45h39.1a22.52,22.52,0,0,1,9.27,1.82,17.72,17.72,0,0,1,6.87,5.4,20.52,20.52,0,0,1,3.76,9.28,40,40,0,0,1-.24,13Q201.4,183.43,190.38,191.27Zm-27-32.75-2.88,17.57c-.09.5.12.75.62.75h9.48a9.39,9.39,0,0,0,6.49-2.6,11.57,11.57,0,0,0,3.57-6.93q.72-4.34-1.29-6.93a6.7,6.7,0,0,0-5.64-2.6h-9.49A.79.79,0,0,0,163.41,158.52Z"/><path class="cls-1" d="M202.22,219.57a1.37,1.37,0,0,1-1.12-.45,1.42,1.42,0,0,1-.26-1.2l13-79.2a2,2,0,0,1,.65-1.2,1.9,1.9,0,0,1,1.27-.45h48.43a1.41,1.41,0,0,1,1.08.45,1.37,1.37,0,0,1,.3,1.2l-2.69,16.42a1.92,1.92,0,0,1-.69,1.15,1.85,1.85,0,0,1-1.23.5h-26.9l-1.92,11.71h23.26a1.29,1.29,0,0,1,1.31,1.57l-2.7,16.5a1.81,1.81,0,0,1-.64,1.11,1.75,1.75,0,0,1-1.19.46H228.91L227,199.93h26.9a1.42,1.42,0,0,1,1.08.46,1.25,1.25,0,0,1,.31,1.11l-2.69,16.42a1.89,1.89,0,0,1-.69,1.2,2,2,0,0,1-1.23.45Z"/><path class="cls-1" d="M302.62,137.07a36.09,36.09,0,0,1,13.66,2.43,26.72,26.72,0,0,1,10.2,7.26q4.2,4.83,5.67,12.92a54.6,54.6,0,0,1-.25,18.64A63.14,63.14,0,0,1,326,197a40.52,40.52,0,0,1-9.92,12.92,41.55,41.55,0,0,1-12.57,7.26,42.64,42.64,0,0,1-14.47,2.43H257.81a1.38,1.38,0,0,1-1.12-.45,1.46,1.46,0,0,1-.26-1.2l13-79.2a2,2,0,0,1,.65-1.2,1.88,1.88,0,0,1,1.27-.45Zm-15.53,63a19.51,19.51,0,0,0,13.76-5.45q5.85-5.44,7.63-16.33t-2.27-16.34q-4.05-5.44-12-5.44h-3.8c-.49,0-.78.27-.88.82l-6.88,42c-.09.5.12.75.62.75Z"/><path class="cls-1" d="M431.19,191,445,203.65a1.31,1.31,0,0,1,.4,1.07,1.68,1.68,0,0,1-.52,1.15,55,55,0,0,1-16.82,11.8A47,47,0,0,1,408.54,222a38.94,38.94,0,0,1-16.27-3.38A33.59,33.59,0,0,1,373,195.64a39.77,39.77,0,0,1-.68-16.74,47.74,47.74,0,0,1,6.17-16.71,53.9,53.9,0,0,1,26.82-22.93,46.56,46.56,0,0,1,17.39-3.43,38.18,38.18,0,0,1,18.11,4.29,34.11,34.11,0,0,1,12.93,11.72,1.57,1.57,0,0,1,.12,1.24,2,2,0,0,1-.75,1.07l-18,12.54a1.77,1.77,0,0,1-1.17.37,1.19,1.19,0,0,1-.95-.54,18.65,18.65,0,0,0-6.1-5.28,16.48,16.48,0,0,0-8-2.06,22.42,22.42,0,0,0-15,5.78,22.84,22.84,0,0,0-8.06,13.94q-1.35,8.16,3.48,13.94t13.08,5.77a20.73,20.73,0,0,0,8.76-2.06,28.58,28.58,0,0,0,7.89-5.36,1.72,1.72,0,0,1,1.12-.54A1.38,1.38,0,0,1,431.19,191Z"/><path class="cls-1" d="M507.12,191.27q7.86,11,5.57,27.89a1.94,1.94,0,0,1-.64,1.15,1.82,1.82,0,0,1-1.28.5H489.41a1.28,1.28,0,0,1-1-.46,1.3,1.3,0,0,1-.28-1.11q1.23-10-2.56-15.3T473.67,198l-3.46,21.12a1.92,1.92,0,0,1-.69,1.15,1.87,1.87,0,0,1-1.23.5H448.4a1.31,1.31,0,0,1-1.11-.5,1.44,1.44,0,0,1-.27-1.15l13.2-80.44a2,2,0,0,1,.65-1.2,1.9,1.9,0,0,1,1.27-.45h39.11a22.58,22.58,0,0,1,9.27,1.82,17.86,17.86,0,0,1,6.87,5.4,20.4,20.4,0,0,1,3.75,9.28,39.5,39.5,0,0,1-.24,13Q518.14,183.43,507.12,191.27Zm-27-32.75-2.88,17.57c-.08.5.13.75.62.75h9.49a9.41,9.41,0,0,0,6.49-2.6,11.57,11.57,0,0,0,3.57-6.93q.71-4.34-1.3-6.93a6.68,6.68,0,0,0-5.63-2.6H481A.8.8,0,0,0,480.15,158.52Z"/><path class="cls-1" d="M557.22,139.26a47.26,47.26,0,0,1,17.52-3.43,39.16,39.16,0,0,1,16.39,3.43,34,34,0,0,1,19.5,22.93,39,39,0,0,1,.72,16.71,47.15,47.15,0,0,1-6.21,16.74,53.64,53.64,0,0,1-27,22.94A47.75,47.75,0,0,1,560.6,222a39.6,39.6,0,0,1-16.39-3.38,33.78,33.78,0,0,1-19.51-22.94A39.28,39.28,0,0,1,524,178.9a47,47,0,0,1,6.2-16.71,54.21,54.21,0,0,1,27-22.93Zm-6,53.58q4.92,5.78,13.21,5.77a24.34,24.34,0,0,0,23.24-19.71q1.34-8.18-3.57-13.94t-13.2-5.78a24.36,24.36,0,0,0-23.25,19.72Q546.33,187.06,551.23,192.84Z"/><path class="cls-1" d="M670.46,139.88,666.26,156a2,2,0,0,1-.85,1.12,1.51,1.51,0,0,1-1.28.29,70.23,70.23,0,0,0-14.79-1.9,13.16,13.16,0,0,0-4.94.7,7.69,7.69,0,0,0-3.22,2,12.35,12.35,0,0,0-1.55,2.15A5.65,5.65,0,0,0,639,162a5.29,5.29,0,0,0,0,1.81,9.12,9.12,0,0,0,.91,2.48,8,8,0,0,0,2.87,2.88,17.33,17.33,0,0,0,5.37,2.23,22.14,22.14,0,0,1,6.88,3.05,23.9,23.9,0,0,1,5.75,5.41,19.75,19.75,0,0,1,3.55,8,27.77,27.77,0,0,1,.11,10.39q-2,12-10.35,17.87t-25,5.81a141.41,141.41,0,0,1-17.32-1,1.25,1.25,0,0,1-.9-.58,1.55,1.55,0,0,1-.22-1.15l4.2-16.09a1.94,1.94,0,0,1,.85-1.15,1.72,1.72,0,0,1,1.37-.25,68.36,68.36,0,0,0,14.22,1.81,13.24,13.24,0,0,0,5-.7,7.39,7.39,0,0,0,3.17-2,11.73,11.73,0,0,0,1.51-2.14,6.36,6.36,0,0,0,.61-1.69,5.35,5.35,0,0,0,0-1.82,9.84,9.84,0,0,0-.87-2.47,7.67,7.67,0,0,0-2.83-2.89,17.62,17.62,0,0,0-5.36-2.23,21.29,21.29,0,0,1-6.93-3,25,25,0,0,1-5.72-5.36,19.79,19.79,0,0,1-3.59-8,27.54,27.54,0,0,1-.14-10.43,24.8,24.8,0,0,1,11.26-17.62q9.38-6.06,24.06-6.06a168.12,168.12,0,0,1,17.81,1.07,1.28,1.28,0,0,1,.89.58A1.53,1.53,0,0,1,670.46,139.88Z"/><path class="cls-1" d="M724,139.88,719.79,156a2.07,2.07,0,0,1-.84,1.12,1.54,1.54,0,0,1-1.29.29,70.22,70.22,0,0,0-14.78-1.9,13.21,13.21,0,0,0-5,.7,7.58,7.58,0,0,0-3.21,2,11.83,11.83,0,0,0-1.55,2.15,5.37,5.37,0,0,0-.6,1.65,5.54,5.54,0,0,0,0,1.81,9.47,9.47,0,0,0,.91,2.48,8.06,8.06,0,0,0,2.87,2.88,17.33,17.33,0,0,0,5.37,2.23,22.14,22.14,0,0,1,6.88,3.05,23.94,23.94,0,0,1,5.76,5.41,19.74,19.74,0,0,1,3.54,8,27.56,27.56,0,0,1,.11,10.39q-2,12-10.35,17.87t-25,5.81a141.58,141.58,0,0,1-17.33-1,1.25,1.25,0,0,1-.9-.58,1.55,1.55,0,0,1-.22-1.15l4.21-16.09a1.9,1.9,0,0,1,.85-1.15,1.7,1.7,0,0,1,1.36-.25,68.36,68.36,0,0,0,14.22,1.81,13.21,13.21,0,0,0,5-.7,7.43,7.43,0,0,0,3.18-2,11.62,11.62,0,0,0,1.5-2.14,6,6,0,0,0,.61-1.69,5.6,5.6,0,0,0,0-1.82,10.35,10.35,0,0,0-.88-2.47,7.71,7.71,0,0,0-2.82-2.89,17.79,17.79,0,0,0-5.37-2.23,21.24,21.24,0,0,1-6.92-3,24.75,24.75,0,0,1-5.72-5.36,19.66,19.66,0,0,1-3.59-8,27.53,27.53,0,0,1-.15-10.43A24.82,24.82,0,0,1,681,143.13q9.36-6.06,24.05-6.06a168.12,168.12,0,0,1,17.81,1.07,1.28,1.28,0,0,1,.89.58A1.58,1.58,0,0,1,724,139.88Z"/></g></g></svg>