<?xml version="1.0" encoding="utf-8"?>
<!-- Generator: Adobe Illustrator 23.0.1, SVG Export Plug-In . SVG Version: 6.00 Build 0)  -->
<svg version="1.1" id="Layer_1" xmlns="http://www.w3.org/2000/svg" xmlns:xlink="http://www.w3.org/1999/xlink" x="0px" y="0px"
	 viewBox="0 0 452.5 188.2" style="enable-background:new 0 0 452.5 188.2;" xml:space="preserve">
<style type="text/css">
	.st0{fill:#FFFFFF;}
</style>
<g>
	<g id="Layer_1-2">
		<path class="st0" d="M43.4,68.2V0h42.6c2.3,0,4.4,0.9,6,2.5c1.6,1.6,2.6,3.7,2.5,6v25.6c0,2.3-0.9,4.5-2.6,6.1
			c-1.6,1.6-3.7,2.5-6,2.5H60.5v25.6H43.4z M77.5,25.6v-8.5H60.5v8.5H77.5z"/>
		<path class="st0" d="M99.2,68.2V0h17v68.2H99.2z"/>
		<path class="st0" d="M119.5,68.2V0h51.2v17.1h-34.1v8.5h25.6v17.1h-25.6v8.5h34.1v17.1L119.5,68.2z"/>
		<path class="st0" d="M182.9,68.2c-2.3,0-4.5-0.8-6.1-2.5c-1.6-1.6-2.5-3.8-2.5-6.1V8.5c0-2.3,0.9-4.4,2.5-6
			c1.6-1.6,3.8-2.6,6.1-2.5h34.2c2.3,0,4.4,0.9,6,2.5c1.6,1.6,2.6,3.7,2.5,6v17h-17.1v-8.5h-17.1v34.1h17.1v-8.5h17.1v17
			c0,2.3-0.9,4.5-2.5,6.1c-1.6,1.6-3.8,2.5-6,2.5L182.9,68.2z"/>
		<path class="st0" d="M230.5,68.2V0h51.2v17.1h-34.1v8.5h25.6v17.1h-25.6v8.5h34.1v17.1L230.5,68.2z"/>
		<path class="st0" d="M310.8,68.2c-2.3,0-4.5-0.8-6.1-2.5c-1.6-1.6-2.5-3.8-2.5-6.1V8.5c-0.1-2.3,0.8-4.4,2.5-6
			c1.6-1.6,3.8-2.6,6.1-2.5h34.1c2.3,0,4.5,0.9,6,2.5c1.6,1.6,2.6,3.7,2.5,6v51.2c0,2.3-0.9,4.5-2.5,6.1c-1.6,1.6-3.7,2.5-6,2.5
			H310.8z M336.4,51.2V17.1h-17.1v34.1H336.4z"/>
		<path class="st0" d="M357.9,68.2V0h51.2v17.1H375v8.5h25.6v17.1H375v25.6L357.9,68.2z"/>
		<path class="st0" d="M0,188.1V73.6h28.6v42.9h28.6V73.6h28.6v114.5H57.3v-42.9H28.6v42.9H0z"/>
		<path class="st0" d="M91.8,188.1V73.6h85.9v28.6h-57.3v14.3h42.9v28.6h-42.9v14.3h57.2v28.6L91.8,188.1z"/>
		<path class="st0" d="M183.3,188.1V87.9c-0.1-3.8,1.4-7.4,4.1-10c2.7-2.8,6.3-4.3,10.2-4.3h57.3c3.8-0.1,7.5,1.5,10.1,4.3
			c2.7,2.6,4.3,6.2,4.3,10v100.2h-28.6v-42.9h-28.6v42.9H183.3z M240.6,116.6v-14.3h-28.6v14.3L240.6,116.6z"/>
		<path class="st0" d="M275.5,188.1V73.6H347c3.8,0,7.5,1.5,10.1,4.3c2.7,2.6,4.3,6.2,4.3,10v43c0.1,3.8-1.5,7.5-4.3,10.2
			c-2.7,2.7-6.3,4.2-10.1,4.1h-7.2l21.5,42.9h-28.6l-21.5-42.9h-7.1v42.9L275.5,188.1z M332.7,116.6v-14.3h-28.6v14.3L332.7,116.6z"
			/>
		<path class="st0" d="M395.2,188.1v-85.9h-28.6V73.6h85.9v28.6h-28.6v85.9H395.2z"/>
	</g>
</g>
</svg>
