<svg xmlns="http://www.w3.org/2000/svg" viewBox="0 0 869.76 221.96"><defs><style>.cls-1{fill:#fff;}</style></defs><title>ChildsPlay_White</title><g id="Layer_2" data-name="Layer 2"><g id="Layer_1-2" data-name="Layer 1"><path class="cls-1" d="M90.47,140.89c-26.2-4.2-40-10.88-48.2-21.26-5-6.18-8.9-16.06-8.9-24.72,0-6.92,3.71-15.32,8.15-21,9.64-12.35,28.18-16.56,47-19.52,3.71-.5,12.11-9.39,12.11-12.61,0-6.67-9.64-16.06-15.08-16.06C59.32,25.71,23.23,42,9.15,66A71.79,71.79,0,0,0,0,100.11C0,114,6.67,129.52,14.58,138.17,36.09,161.9,66.74,165.61,84,165.61c2.22,0,16.81-4.45,16.81-11.87v-.24A12.6,12.6,0,0,0,90.47,140.89Z"/><path class="cls-1" d="M191.22,82.13c-4.09-5.5-10.34-8.18-17.2-8.4-13.62-.43-27.38,6-37.19,15.31.08-22.38.5-55.84,2.44-73.72.5-4.2-7.91-7.41-10.87-7.41-8.66,0-20,5.44-20.27,9.14-1.24,23.49.25,107.53.25,133.73,0,6.92,24.71,9.64,26.94,4.45,1.48-3.46,6.18-14.59,7.66-18,8.16-18.54,19.28-28.18,22.49-28.18,2.47,0,6.18,3.22,6.92,5.44s1.73,10.63,1.73,17.3c0,9.64-1.73,20.27-3,27.44-.25,2,5.68,6.43,8.9,6.43,6.18,0,15.32-6.18,16.8-10.38,3-7.91,5.44-21.51,5.44-36.34v-.25c0-15.32-3.21-28.17-5.19-31.14A21.63,21.63,0,0,0,191.22,82.13Z"/><path class="cls-1" d="M244,81.57c0-4.2-10.38-8.41-18.54-8.41-3.21,0-10.13,4.21-10.38,7.91-1.48,19.78-2.47,56.85-2.47,69,0,2.48,8.41,11.87,15.82,11.87,4.7,0,15.82-4.7,16.07-8.9,1.23-21.5-.5-52.65-.5-71.19Z"/><path class="cls-1" d="M227.42,69.17c8.16,0,17.06-5.69,17.06-14.58v-.25c0-8.41-9.4-13.35-16.81-13.35-5.44,0-13.35,6.92-13.35,12.61C214.32,59.78,220.25,69.17,227.42,69.17Z"/><path class="cls-1" d="M290.5,11.62c.25-6.18-11.86-8.9-15.57-8.9-7.17,0-14.83,11.12-14.83,13.59.25,25.22.5,46,1,74.4.49,22.25.49,49.19.49,63.53,0,6.67,13.85,9.14,21.76,9.14,1.73,0,8.4-4.94,8.4-12.36v-.24c0-12.12-.49-31.39-.49-52.4C291.25,62.29,289.76,26.94,290.5,11.62Z"/><path class="cls-1" d="M372,0c-8.67,0-16.61,4.94-16.61,7.66,0,23.24.72,36.58.72,49.68,0,12.36-1.44,14.83-2.89,15.08C340,74.65,324.38,77.86,315.72,84c-12.76,9.14-19.26,23.73-19.26,36.58,0,13.84,10.59,30.65,25.52,36.58,6.73,2.72,24.54,3.22,28.88,3.22,2.88,0,4.81,1.48,4.81,3,0,3.71,26.24,2,26.24-5.68,0-11.62.72-40.79.72-66.74,0-30.4,1.68-60.31,1.68-83.3V7.42C384.31,4.2,377.33,0,372,0ZM354.47,133.23c-1.21,2.22-8,3.21-11.31,3.21-8.91,0-15.89-10.38-15.89-17.3,0-6.43,4.09-13.35,8.91-16.07,3.12-1.73,10.1-2,13.95-2,3.13,0,4.82,1.24,4.82,3.71v.25C355,112.46,355.19,131.5,354.47,133.23Z"/><path class="cls-1" d="M410.72,23.71c-2.22,1-6.66,5-6.58,8.51-.13,5.08.61,29.56.49,42,0,6.78,14.7,3.86,16.5-.77,2.18-5.1,4.26-37.92,4.39-43S415.67,21.53,410.72,23.71Z"/><path class="cls-1" d="M487.37,109.25c-6.92-3.71-11.37-5.93-11.37-10.63,0-4.94,3.95-9.39,20-9.39,2,0,5.19-5.93,5.19-8.9,0-4.2-7.91-12.85-16.56-12.85-17.8,0-37.82,17.3-37.82,32.63,0,8.4,2.47,16.06,11.12,21.75,6.18,4,14.34,6.67,14.34,12.6,0,6.18-6.18,9.89-21.75,10.88-2.47,0-5.93,6.18-5.93,9.14,0,4,8.65,11.37,14.83,11.37,19.28,0,42.51-14.33,42.51-34.11v-.24C502,122.1,498,114.94,487.37,109.25Z"/><path class="cls-1" d="M574.39,27.19c-1.89,0-5.85,7.91-5.85,18,0,4.2,4.13,6.18,4.64,8.16.69,3,1,33.12.69,47.46-.69,32.13,0,48-1.2,57.34-.17,1.24,7.56,9.39,10.83,9.39,4.3,0,8.94-8.15,10.15-13.59.74-3.49,1-14.24,1-27.68a39.83,39.83,0,0,0,10.52-4.22c9.1-.26,34.38-19.94,34.38-47.2v-.24c0-11.13-4.3-23.48-12.39-31.64C614.46,29.91,587.8,27.19,574.39,27.19ZM600,98.62a2.3,2.3,0,0,0-.62.39l-4.71.84V58.58a2.21,2.21,0,0,1,2.07-2.22c4.29,0,10.66,1.73,13.93,4.94,2.92,2.72,6.87,10.13,6.87,15.82C617.55,85.77,612.22,94.67,600,98.62Z"/><path class="cls-1" d="M680.61,11.62c.24-6.18-11.87-8.9-15.58-8.9-7.16,0-14.83,11.12-14.83,13.59.25,25.22.5,46,1,74.4.5,22.25.5,49.19.5,63.53,0,6.67,13.84,9.14,21.75,9.14,1.73,0,8.4-4.94,8.4-12.36v-.24c0-12.12-.49-31.39-.49-52.4C681.35,62.29,679.86,26.94,680.61,11.62Z"/><path class="cls-1" d="M782.47,142.13c-5.94-5.94-16.07-18.54-26-34.11A280.16,280.16,0,0,1,736.24,70.2c-1.48-3-11.12-5-17.55-3.71-10.87,2-19.52,12.11-16.56,14.58C710.78,88,714,94.67,714,98.13c0,7.41-27.44,29.91-27.44,44.74,0,5.93,7.42,17.79,15.08,17.79,18.78,0,41.52-8.4,46.22-8.4,2,0,5.19,3.21,10.38,10.13,2.47,3.22,9.39,1.49,12.11-.49C778,156.46,784.94,144.6,782.47,142.13Zm-45.24-8.9c0,1.23-8.9,4.2-16.81,4.2a3.47,3.47,0,0,1-2.71-3.21c0-4.21,8.89-13.85,10.87-13.85,1.24,0,8.65,10.88,8.65,12.61Z"/><path class="cls-1" d="M857.64,74.4c-2-.5-13.59-.25-14.33,1.48-11.13,26-21,48.94-23,48.94-2.22,0-10.63-22.74-21.75-47.95-.74-1.73-9.15-4.94-12.36-4.94-7.17,0-17.06,8.65-17.06,14.83,0,3.95,8.9,19,20.52,40.78,5.93,11.37,12.85,23.48,12.85,28.18,0,3.71-12.11,25-29.41,48.69-2.72,3.46,3.21,17.55,8.16,17.55,6.42,0,16.06-3,20.26-8.9,8.65-12.11,19.53-33.86,32.39-57.83,14.82-27.44,30.64-51.91,35.34-65.26C871.48,83.79,866.05,76.38,857.64,74.4Z"/></g></g></svg>