<?xml version="1.0" encoding="utf-8"?>
<!-- Generator: Adobe Illustrator 26.0.2, SVG Export Plug-In . SVG Version: 6.00 Build 0)  -->
<svg version="1.1" id="Layer_1" xmlns="http://www.w3.org/2000/svg" xmlns:xlink="http://www.w3.org/1999/xlink" x="0px" y="0px"
	 viewBox="0 0 1740.2 681.6" style="enable-background:new 0 0 1740.2 681.6;" xml:space="preserve">
<style type="text/css">
	.st0{fill:#FFFFFF;}
</style>
<path class="st0" d="M83.9,405.3c11.9-28.7,31.5-48.6,58.3-59.5c-11.9-9.5-24.1-15.4-36.4-17.7h-0.1c-3.3-0.6-6.8-1-10.6-1
	c-3.8,0-7.5-1-10.8-2.6c-11.7,1.9-22.8,6.9-32.9,14.2c-6.9,5-13.1,10.9-18.8,17.4c-18.8,22-30,51.3-32.2,81
	c-2.2,29.5,4.5,59.3,21.3,82.4c4.4,6.1,9.6,11.8,15.6,16.9c0.4,0.4,1,0.8,1.7,1.3c3.9,2.7,9.1,4.9,14.2,5.4c3.7,0.4,7-0.2,8.9-2.4
	c0.1-0.1,0.2-0.3,0.4-0.6c5.9-8.4,7.4-27.6,9-49.9c1.7-22.7,3.7-48.3,10.8-71.8C81.6,414,82.2,409.5,83.9,405.3z"/>
<path class="st0" d="M251.2,557.3c-2.5-2.8-5-5.6-7.5-8.4c-45.1-52.4-75.3-118.9-83.3-182.8c-28.4,8.3-44.2,26.8-53.4,48.9
	c7.4,29.6,18.6,58.3,33.9,85.7c16,28.5,36.5,55.7,62.1,81.1c10.9,10.7,22.4,20.4,34.5,29l0.5-31.3
	C238.2,569.8,243.5,561.6,251.2,557.3z"/>
<path class="st0" d="M231,370.6c-10.6-2.4-21.6-3.6-32.8-3.4c-4,0-8.2,0.3-12.3,0.6c6.7,46.6,26.9,98.1,60.1,143.7l1-62.6
	c0-2.1,0.3-4.2,0.9-6.2l7.3-27.5c-6.3-13.7-11.4-27.7-15.6-42.2C236.8,372,233.9,371.2,231,370.6z"/>
<path class="st0" d="M95.4,302.1c4.9,0.1,9.9,0.5,14.9,1.4c16.8,3.1,33.9,11.1,50.8,25.4c2.6-5.4,5.3-10.5,8.2-15.3
	c7.5-12.7,15.5-23,24.6-31.3c3.4-3.2,7-6.1,10.6-8.6c3.6-2.6,7.4-4.9,11.3-6.9c0,0,0.1,0,0.1-0.1c2.9-1.5,5.9-2.8,8.9-3.9
	c-0.2-8.9-0.2-18-0.2-27.3c0.1-13.8,0.6-28.5,1.3-44c0.2-5.8,0.8-12.9,1.5-21c3.6-44,9.8-117.9-27.2-125.1
	c-20.9-4.1-38.6,15.9-52.3,41.1c-15,27.4-25,60.8-30.2,78.8c-7.1,24.5-12.7,49.3-16.5,74.2C98,260.5,96.1,281.4,95.4,302.1z"/>
<path class="st0" d="M1504.1,165c1.3,15.4,2.3,30.1,3,43.9c0.4,9.4,0.8,18.5,0.9,27.3c3.1,1,6.1,2.2,9.1,3.5c0,0,0.1,0,0.1,0.1
	c4,1.9,7.9,4.1,11.7,6.5c3.6,2.4,7.3,5.1,10.9,8.2c9.3,8,17.8,17.9,25.8,30.3c2.4,3.7,4.7,7.7,7,11.8c15.8-14.4,32.8-23.7,50.6-27.7
	c0.6-0.1,1-0.2,1.5-0.3c4.6-0.9,9.2-1.5,13.8-1.8c-1.5-19.5-4.2-39.1-8.1-58.7c-4.8-24.7-11.4-49.3-19.4-73.5
	c-5.9-17.8-17.3-50.7-33.3-77.5c-14.7-24.6-33.2-43.9-53.9-39c-36.6,8.7-27.6,82.2-22.2,126.1C1502.7,152.1,1503.6,159.2,1504.1,165
	z"/>
<path class="st0" d="M1580.3,341.2c-1.4-0.4-2.7-0.9-4-1.6c-4.9,51.3-23.8,104.7-53.3,151.5c9.2,55.8,9.1,58.6,9.1,60.6
	c-0.1,8.7-4,15.6-10.2,22c7.1-6.2,14-12.8,20.6-19.9c24.6-26.3,44-54.3,58.9-83.5c13.5-26.5,23.1-54.1,29.4-82.3
	C1621.6,365.2,1606.8,348.9,1580.3,341.2z"/>
<path class="st0" d="M1551.1,339.5c-12.6-0.7-25,0.2-36.8,2.7c-2.7,0.6-5.4,1.2-8.1,1.9c-2.8,0.8-5.6,1.6-8.4,2.6
	c0.9,2,1.5,4,1.9,6.2c7,41.1,12.5,73.5,16.8,99.2C1535.8,414.6,1547.4,375.5,1551.1,339.5z"/>
<path class="st0" d="M1703.8,321.8c-5.9-6.3-12.3-11.9-19.4-16.6c-16.7-11.2-36-16.2-55.6-11.9c-13.7,3.1-27.7,10.7-41.6,23.9
	c69.1,19.9,77,87.6,83.1,140.2c2.5,22.2,4.8,41.3,11,49.5c0.2,0.3,0.4,0.5,0.4,0.5c1.9,2.1,5.3,2.6,9,2c5-0.7,10.2-3.1,14-6
	c0.7-0.5,1.2-1,1.6-1.4c5.7-5.3,10.7-11.2,14.9-17.5c15.9-23.8,21.4-53.8,18-83.2C1735.8,371.8,1723.5,343,1703.8,321.8z"/>
<path class="st0" d="M361.8,461.7l0.4-22.1c-4.4,1.8-9.2,2.8-14,2.9c-0.1,0-0.2,0-0.3,0c-20.3,0.2-35.1-16.2-48.1-30.6l-0.2-0.2
	c-4.7-5.2-9.2-10.2-13.6-14l-13.1,49l-1.3,79.9l101.7,1.6l15.5,50.9l-124.9-2l-1.5,95.5l131.1-21.3l84.9-58.2l-19.3-102.6
	L361.8,461.7z"/>
<path class="st0" d="M491.2,370.3h-73.1l-36.2,0.7c0.5,1.5,1,3,1.4,4.5c0,0.1,0,0.1,0.1,0.2c3.4,11.7,4.6,20.8,3.8,28.5
	c-0.4,4.2-1.4,8.2-2.7,11.9c-0.1,0.2-0.1,0.4-0.2,0.6c-1.4,3.4-3,6.5-5,9.2l108.5,8.5L491.2,370.3z"/>
<polygon class="st0" points="585.4,393.3 527.2,370.9 518.4,370.7 486.8,664.9 717.3,680.4 746.5,612.5 574.3,598 "/>
<path class="st0" d="M653.2,372.9l-27.6,173.2l-0.6,35.1l56.3,8.7l11-77.9l74.3-6.6l32.3,176.2l86.2-20.1l-73.3-293.9L653.2,372.9z
	 M690.9,482.8l12.7-58.3l72.2,1.2l11,41.2L690.9,482.8z"/>
<path class="st0" d="M994,471l-62.6-107.3l-53.2-0.9c0,0,33.5,282.1,29.5,291.8l59.5-3.5l-28.6-164.4l43.9,71.5l55.2-49.4
	L1011.6,644l70.6,8.9l4.6-286.8l-70.7-1.1L994,471z"/>
<polygon class="st0" points="1208,368.2 1182.6,490.8 1153.3,367.3 1112.4,366.7 1107.7,653.5 1156.5,654.3 1151,510.8 
	1194.1,578.8 1229,518.8 1226.7,655.4 1278,656.2 1258.7,369.1 "/>
<path class="st0" d="M1397.9,420c-2,0.4-4,0.6-5.9,0.6c-5.9,0.1-11.7-1-17.1-3.5c-5.2-2.4-9.9-5.9-13.7-10.5
	c-2.5-3-4.6-6.5-6.3-10.3c-0.1-0.2-0.2-0.4-0.2-0.6c-1.5-3.6-2.6-7.6-3.2-11.8c-1.1-7.7-0.3-16.8,2.7-28.7c0-0.1,0-0.1,0-0.2
	c0.7-2.6,1.4-5.2,2.2-7.8l-11.4-2.4l-62.4,24.3l14.4,286.8l31.2,0.5l11.8-123.6l35.4-18.9l9.4,143.4l56.6,0.9L1397.9,420z
	 M1324.5,492.9l-8.1-82.4l21.6-9.8l25.3,28.5l21.3,54.4L1324.5,492.9z"/>
<path class="st0" d="M1474.7,357.2c-6.8,3.9-13.4,8.5-19.6,13.7c-5.1,4.3-10.3,10.5-15.8,17l-0.2,0.3c-2.9,3.5-5.9,7-8.9,10.4
	l13.5,166l31.2,10.3c0,0,31.2-20.5,31.3-26.1C1506.4,543.5,1478.6,379.6,1474.7,357.2z"/>
<polygon class="st0" points="1474.6,594.5 1464,600 1454.3,639.1 1473.6,659 1504.8,639.9 1505.3,609 "/>
<path class="st0" d="M227.2,289c-2.8,1.4-5.5,3.1-8.3,5.1c-2.7,1.9-5.4,4.1-8.1,6.6c-7.8,7.3-14.4,16.1-20,25.7
	c-3.2,5.4-6,10.9-8.6,16.6c18.3-1.8,36.6-0.9,54.4,3.2c21.8,5,42.6,14.6,61.7,29.3c7.2,5.5,13.6,12.6,20,19.7
	c10.3,11.3,20.4,22.6,29.4,22.4c2.2,0,4.3-0.6,6.1-1.5s3.4-2.3,4.7-4c1-1.3,1.8-2.9,2.5-4.5c0.6-1.7,1.1-3.7,1.3-5.8
	c0.5-4.8-0.8-11.7-2.9-18.9c-3.3-10.9-8.4-22.4-12.1-29.8c-8.6-17-20-32.9-34-45.3c-12.2-10.9-26.4-19.1-42.4-23.1
	c-7.5-1.9-15.1-2.6-22.7-1.8C241.1,283.5,234.1,285.6,227.2,289z"/>
<path class="st0" d="M1390.8,328.5c-3.4,7.5-8.1,19.2-10.9,30.2c-1.8,7.3-2.9,14.2-2.2,19c0.3,2.1,0.8,4.1,1.5,5.8
	c0.7,1.6,1.6,3.1,2.7,4.4c1.4,1.7,3,3,4.9,3.8s4,1.3,6.2,1.3c9-0.2,18.7-11.8,28.5-23.5c6.1-7.3,12.3-14.7,19.2-20.5
	c18.5-15.5,39-25.9,60.5-31.7c17.6-4.8,35.8-6.5,54.2-5.4c-2.8-5.5-5.9-11-9.3-16.2c-6-9.3-12.9-17.9-21-24.9
	c-2.7-2.3-5.5-4.4-8.3-6.3c-2.9-1.9-5.7-3.4-8.5-4.8c-7-3.2-14.1-5-21.2-5.4c-7.6-0.5-15.2,0.5-22.6,2.7
	c-15.8,4.6-29.7,13.4-41.4,24.8C1409.5,294.8,1398.8,311.1,1390.8,328.5z"/>
<polygon class="st0" points="745.9,188.2 790.1,327.6 838.4,327.6 875.3,17.4 831.1,17.4 787.1,152.6 752.9,17.4 694.5,17.5 
	671.9,327.7 718.9,314.9 "/>
<polygon class="st0" points="1164.6,313.5 1240,313.5 1204.2,16.1 1161.5,16.1 1175.9,180.5 1101.8,16.1 1052,16.2 1042.2,313.6 
	1076.3,313.6 1124.6,164.8 "/>
<path class="st0" d="M588.3,323.3l-12.9-130.9l37-5.7l-2.8,123.8l48.4,2.8L657.8,1.6H598l-86.9,32c0,0,30.2,292.5,31.6,296.8
	L588.3,323.3z M599.5,50h19.9l-15.6,91.1l-49.8,9.3V78.5L599.5,50z"/>
<path class="st0" d="M924.1,298.9l4.2-112.4H971l11.4,112.4h48.4L996.5,1.5h-86.8l-43.9,310.3L924.1,298.9z M929.7,71.2l18.5-21.4
	l24.2,28.4l4.3,71.9l-55.5,6.4L929.7,71.2z"/>
<path class="st0" d="M1283,303.5h21.8l2.8-112.4h29.9L1339,305c0,0,39,5.3,44.7,8.1s4.9-289,4.9-289L1289,0l-63,31l41.9,272.6
	L1283,303.5z M1329.9,48.4l25.3,32.2l-8.4,64.7l-66.3,7.9l-7-83.5L1329.9,48.4z"/>
<path class="st0" d="M349.2,347.6l85.4-22.8l83.9-48.4l-15.7-62.6L461.6,181l37-64.1L487.1,60l-78.3-34.1L332,47.3L349.2,347.6z
	 M480.1,233.7l-19.9,44.8l-76.8,20.7l-1.5-54.1l46.2-25.6L480.1,233.7z M433,78.6l27.1,27l-25.6,54.1l-58.3,12.8V97.1L433,78.6z"/>
</svg>
