<svg xmlns="http://www.w3.org/2000/svg" viewBox="0 0 1817.28 214.5"><defs><style>.cls-1{fill:#fff;}</style></defs><title>Ultimate_White</title><g id="Layer_2" data-name="Layer 2"><g id="Layer_1-2" data-name="Layer 1"><path class="cls-1" d="M0,26.23V.06l124.24,0V26.41c-1.39-.1-2.88-.17-4.48-.22s-3.78-.08-6.54-.08q-13.42,0-17.89,4.69t-4.48,26l0,83.23q0,23.74,8.7,33.59t29,9.84q24.28,0,34.66-9.37t10.39-31.47l0-84.29q0-21.18-4.55-26.71t-18.6-5.52c-2.24,0-4,0-5.19.07s-2.32.13-3.28.23V.09l97.74,0V26.44a120.44,120.44,0,0,0-19,1.13q-6.54,1.14-8.78,3.86c-1,1-1.62,3.08-2,6.2s-.56,10.14-.56,21l0,87.92q0,33.28-23.49,50.61T117.34,214.5q-41.2,0-64.12-17.19t-22.91-48.2l0-91.39q0-19.38-4.38-25.5T9.42,26.09c-2.34,0-4.2,0-5.59.07S1.17,26.23,0,26.23Z"/><path class="cls-1" d="M249.53,0H369.76V26.93H356.82q-12.35,0-15.73,3.06t-3.38,14.74V178.61H354q23.48,0,32.5-2.24a32.45,32.45,0,0,0,14.74-7.63q6.48-6,10-16.83t5-30.29h27.09v83.92H249.53V178.61H261q12,0,15.42-3t3.39-14.81V44.73q0-12-3.39-14.89T261,26.93H249.53Z"/><path class="cls-1" d="M694.15,210V182.47h13.11q12.48,0,16-3.06t3.51-15.13V45.69q0-12.22-3.51-15.2t-16-3H694.15V0H820.67V27.51h-13.1q-12.65,0-16.23,3.13t-3.58,15V164.28q0,11.92,3.58,15.05t16.23,3.14h13.1V210Z"/><path class="cls-1" d="M899.33,164.28q0,11.92,3.61,15.05t16.73,3.14h6.24V210H831.77V182.47H842.5q13.13,0,16.73-3.14t3.6-15.05V45.69q0-11.91-3.6-15T842.5,27.51H831.77V0H947.2l38.27,129.29L1025.82,0h114.47V27.51h-11.21q-13,0-16.65,3.13t-3.68,15V164.28q0,11.92,3.68,15.05t16.65,3.14h11.21V210H1024.85V182.47h6.57q12.81,0,16.41-3.06t3.6-15.13V33.16L996.68,210H952.49L899.33,32.86Z"/><path class="cls-1" d="M1133.64,210V182.47h8q10.77,0,15.76-3.29t9.81-17L1224,0h65.76l54.35,163.06q4.19,11.92,8.76,15.66t13.91,3.75h11.26V210H1256.16V182.47h9.33q11.9,0,16-1.61a5.87,5.87,0,0,0,4.1-5.88,27.19,27.19,0,0,0-1.13-4.43c-.32-1-.53-1.78-.64-2.29l-8.52-25.83h-63.51l-8.37,24.14c-.43,1.43-.8,2.91-1.12,4.44a19.69,19.69,0,0,0-.48,4q0,4.28,3.37,5.88t14.47,1.61h10.78V210Zm132.49-94.91-22.19-66.32-22.67,66.32Z"/><path class="cls-1" d="M1588.66,0V81h-29.92q0-27-10.7-40T1515,28.12h-3.38V161.53q0,10.86,1.12,14.29a6.22,6.22,0,0,0,4.19,4.36,34.68,34.68,0,0,0,9.17,2q5.79.61,20.43.92V210H1415.39v-26.9q10.29,0,17.78-.69a60.63,60.63,0,0,0,12.3-2.21,6.25,6.25,0,0,0,4-4.36q1.11-3.44,1.12-14V28.12h-3.22q-22.51,0-33.38,13T1403.16,81h-29.6V0Z"/><path class="cls-1" d="M678.62,0V81H648.69q0-27-10.7-40T604.93,28.12h-3.38V161.53q0,10.86,1.13,14.29a6.21,6.21,0,0,0,4.18,4.36,34.68,34.68,0,0,0,9.17,2q5.79.61,20.43.92V210H505.34v-26.9q10.29,0,17.78-.69a60.62,60.62,0,0,0,12.31-2.21,6.22,6.22,0,0,0,4-4.36q1.13-3.44,1.12-14V28.12h-3.21q-22.53,0-33.39,13T493.11,81h-29.6V0Z"/><path class="cls-1" d="M1601.07,210V182.47h12.1q12.74,0,16.32-3.06t3.58-15.13V45.69q0-12.22-3.58-15.2t-16.32-3h-12.1V0h216.21V80.08h-28.66q-2.7-18.35-6.36-27.74t-9.72-14.75a34.82,34.82,0,0,0-15.6-7.79q-9.56-2.3-34.23-2.29h-28.34V87.26h5.41q18.15,0,24.28-6.57t6.13-26.59h27.39v95.82l-27.39-.16q-.48-21.84-6-28.42t-24.36-6.57h-5.41v67.7h29.29q36,0,48.64-11.92t16.32-47.22h28.66V210Z"/></g></g></svg>