<svg xmlns="http://www.w3.org/2000/svg" viewBox="0 0 837.5 213"><defs><style>.cls-1{fill:#fff;}</style></defs><title>Water_White</title><g id="Layer_2" data-name="Layer 2"><g id="Layer_1-2" data-name="Layer 1"><path class="cls-1" d="M243.3,59c-12.65,3-17.91,13.77-22.06,23.92-17,41.65-33.13,83.68-49.54,125.58-1.68,4.31-5.29,2.14-8.09,2.61-2.18.37-2.84-1.31-3.41-3q-16.08-48.5-32.18-97c-.28-.87-.69-1.69-1.48-3.59-3.75,11.42-7.14,21.76-10.56,32.09q-11.34,34.17-22.71,68.34c-.64,1.91-1.45,3.51-3.77,3.17-2.79-.4-6.18,1.6-7.94-2.78Q53.89,139.55,25.93,70.88c-3.38-8.28-10-12.07-19.07-12A6.51,6.51,0,0,1,0,52.67c0-3.35,3-6.15,6.9-6.16,25.36,0,50.72.15,76.08.14,4.33,0,7.5,2.21,7.59,6,.08,3.95-3.22,6.23-7.53,6.34-12,.33-17.53,7.4-14.34,18.76,6.71,23.91,18.1,46,26.5,69.31.22.62.88,1.08,1.82,2.19.9-2.93,1.57-5.27,2.33-7.58q15.25-46.52,30.53-93c.76-2.33,1.6-4.51,4.69-3.89,3.47.68,7.83-2.13,9.78,3.94,10.52,32.61,21.4,65.1,32.17,97.63a20.27,20.27,0,0,0,1.78,2.94c1.37-3.74,2.46-6.58,3.46-9.45,7.41-21.31,17.67-41.59,22.85-63.68A13.86,13.86,0,0,0,192.12,59c-4.15-.38-7.59-2.63-7.24-6.42.37-4.05,3.77-6.19,8.59-6.09,16.32.29,32.64.2,49,.15,4.18,0,7,2.38,7.32,5.9S246.89,58.15,243.3,59Z"/><path class="cls-1" d="M413.79,182.46c-2.32-2.12-4-.08-4.92,2.13-2.91,6.85-8.19,9.6-15.23,8-6.48-1.42-7-7.32-7.09-12.41-.46-30.94-.39-61.88-.94-92.82-.25-13.8-5.2-25.7-17.32-33.64C347.6,40.2,303.44,40.92,282.94,54.9c-9.27,6.32-15.39,14.09-12.32,25.82,2.34,9,8.78,13.66,18.22,13.08,10-.62,14.61-7.22,16.68-16.25,1.52-6.66,1.87-14.23,9.58-17.2,12.4-4.77,29.18,0,32.22,10.25,6.31,21.28,6.12,36.85-11,45.49-13,6.53-27.83,6.5-41.19,12-23.08,9.48-34.88,24.52-33.19,43.65,1.79,20.27,14.79,34.44,36.64,37.82,19.53,3,38.69,2.07,54.94-13.75a20.55,20.55,0,0,0,1.62,2.62c13.13,15.28,59,18.7,65.56-8.68C422.28,183.08,416.22,184.65,413.79,182.46ZM341.65,187c-6.57,9-25.82,11.48-35,5.3-7.86-5.3-10.6-24-4.06-34.66,10.8-17.63,30.86-21.57,48.49-32C349,147.27,355,168.64,341.65,187Z"/><path class="cls-1" d="M690.19,162.4c-2.85-1.14-6.61-1.76-8.4,3-6.66,17.69-19.89,26.35-38.53,27.15-21,.89-40.17-2.75-50.89-23.68-9.73-19-8.39-39.59-7.64-60,.09-2.36,1.14-3.17,3.49-3.16,16.25.07,32.5,0,48.75,0V106c16.39,0,32.77.09,49.15-.06,4-.05,6.82-2.73,6.83-6.59a46.69,46.69,0,0,0-5.65-22.86c-15.58-28.47-58.37-41.32-92-27.68-41.91,17-61.65,72.37-41.9,117.54,14.39,32.9,45.71,49.24,86.33,45,29.29-3,47.59-16.58,54.68-40.46C695.67,166.69,693.39,163.67,690.19,162.4ZM602.46,63.79c11.18-7.39,33.26-7.41,42.91,0,8.73,6.74,10.39,16.43,11.14,26.91H586.86C589.36,79.79,593,70.08,602.46,63.79Z"/><path class="cls-1" d="M829,81.08c-8.87,4.74-16.24,2.13-21.54-6.19-4.06-6.38-8.07-13.39-17.1-10.94-10.92,3-18.21,11-19.24,22-3,31.72-2.41,63.56-.18,95.34.54,7.77,5.61,11.23,13.1,11.32,5.17.05,9.08,2.17,8.89,7.56-.19,5.11-4.06,6.91-9.08,6.88-21.4-.12-42.81,0-64.22-.07-4.54,0-7.41-2.74-7.46-7.06s2.88-7.09,7.36-7.23c12.23-.37,16-4.42,16.45-24,.72-31.09.17-62.21.09-93.32C736,59.43,723.68,62.07,714,61c-2.07-.23-4.22-.45-3.41-3,1.07-3.27-3.6-8.73,3.32-9.77,13.14-2,26.39-3.32,39.44-5.72,9.49-1.75,15.84-.9,14.68,11-.15,1.57.35,3.2.68,5.86a50.33,50.33,0,0,1,32.5-14.54c13.23-1,26.4-.92,34.14,12.73C839.92,65.62,837,76.8,829,81.08Z"/><path class="cls-1" d="M536.17,193.6c-10.39,17.91-27.89,20.37-45.83,19.13-31.16-2.17-40.53-17-38.6-55.62,1.56-31,1.9-62.06,2.76-93.09a22.42,22.42,0,0,0-.32-2.55c-4.47,0-8.74-.12-13,0-4.7.16-7.41-2.29-8.31-6.52-1-4.72.08-7.47,6.08-8.44,20.87-3.36,31-15.31,36-41.72.89-4.79,3.38-5.26,7-4.56,3.39.65,6,2.63,6.05,6.44q.14,18.06,0,36.1c0,2.67.79,3.79,3.55,3.76,10.41-.13,20.83-.15,31.25-.17,4.53,0,7.27,2.36,7.57,6.84.34,5.06-2.24,8.12-7.41,8.18-10.49.13-21,0-31.45,0-1.7,0-3.5,0-3.42,2.34,1.23,37.88-1.5,75.82,1.67,113.65.61,7.28,1.65,15.65,10.64,17.64,10.17,2.24,19.12-.29,25.31-9.7,2.14-3.27,6.34-4.32,9.23-2.2C538.15,185.54,538.26,190,536.17,193.6Z"/></g></g></svg>