<svg xmlns="http://www.w3.org/2000/svg" viewBox="0 0 780.5 221.96"><defs><style>.cls-1{fill:#fff;}</style></defs><title>Lives_White</title><g id="Layer_2" data-name="Layer 2"><g id="Layer_1-2" data-name="Layer 1"><path class="cls-1" d="M137,180.48l-1.3,35.6H0q2-44.25,2-111.22Q2,43.45,0,3.43H45.89q-1.95,37.08-2,101.43,0,49.15-2.12,78.07Q86.89,182.93,137,180.48Z"/><path class="cls-1" d="M213,216.08H166.79q2.11-50.62,2.12-111.22,0-59.62-2.12-101.43H213q-2.13,41.16-2.12,101.43Q210.89,166.44,213,216.08Z"/><path class="cls-1" d="M433.3,3.43q0,13.4-37.32,106.49T358.66,216.08H313.75q0-12.57-34.39-106.65T245,3.43h51.78q0,11.93,21.88,84.6t21.89,82.48h2.78q0-9.47,22-79.54t22-87.54Z"/><path class="cls-1" d="M601.13,180.15l-1.3,35.93h-139Q463,166.76,463,104.86q0-59.46-2.12-101.43H593.46l-1.8,35.77q-49-2.61-88.85-2.61,1.63,22.69,1.63,53.57,34.14,0,73-1.8V122.5q-38.22-1.64-73-1.64,0,33.17,1.31,62.07Q550.5,182.93,601.13,180.15Z"/><path class="cls-1" d="M780.5,158.1q0,63.87-91.79,63.86a213.89,213.89,0,0,1-58-7.51l8-36.42q26.46,9.15,50,9.14,26.13,0,37.56-5.06t11.44-17q0-12.41-10.78-20.9-9.31-7.51-37.73-19.6-25.82-11.1-38.38-24.17Q635,84,635,59.78q0-28.1,20.83-43.94T715.66,0q32,0,53.73,5.39l-6,36.26a138.66,138.66,0,0,0-47.69-8q-38.55,0-38.55,20.57,0,11,9,17.81,7.85,5.88,34.14,16.49Q748.16,99.8,762,113.35,780.49,131.49,780.5,158.1Z"/></g></g></svg>